<?xml version="1.0" encoding="UTF-8"?> <svg xmlns="http://www.w3.org/2000/svg" id="Слой_1" data-name="Слой 1" viewBox="0 0 570 440"><defs><style>.cls-36{fill:#e1e7f4}.cls-11,.cls-12,.cls-13,.cls-14,.cls-15,.cls-16,.cls-17,.cls-18,.cls-20,.cls-22,.cls-25,.cls-27,.cls-28,.cls-29,.cls-3,.cls-30,.cls-32,.cls-33,.cls-34,.cls-35,.cls-39,.cls-4,.cls-40,.cls-41,.cls-5,.cls-52,.cls-55,.cls-57,.cls-58,.cls-6,.cls-9{fill-rule:evenodd}.cls-11,.cls-2{fill:#0a0c0d}.cls-3{fill:#1b2b32}.cls-4{fill:#416d5a}.cls-5{fill:#a0c16b}.cls-6{fill:#5d915c}.cls-9{fill:#41455d}.cls-12{fill:#20242f}.cls-10,.cls-17{fill:#fff}.cls-13{fill:#b1bede}.cls-14{fill:#bfcbe5}.cls-15{fill:#4e8b70}.cls-16{fill:#8490b4}.cls-18,.cls-21{fill:#d7588e}.cls-20{fill:#4c8483}.cls-22{fill:#4c77a8}.cls-25{fill:#29313d}.cls-38{fill:#b5c5e2}.cls-27,.cls-37{fill:#9eafd4}.cls-28{fill:#d96d62}.cls-29{fill:#e9ab89}.cls-30{fill:#e08976}.cls-32{fill:#1f232e}.cls-33{fill:#121417}.cls-34{fill:#0f1012}.cls-35{fill:#15181c}.cls-39{fill:#5eb1b4}.cls-40{fill:#f8e2d6}.cls-41{fill:#dd7c69}.cls-52{fill:#e29076}.cls-53{fill:#d25383}.cls-55,.cls-56{fill:#ddaf9a}.cls-57{fill:#e6f0f8}.cls-58{fill:#e18e44}</style></defs><path d="M110.29 299.33h-44.8a44 44 0 0 0-43.85 43.84A44 44 0 0 0 65.49 387h378.83a71.2 71.2 0 0 0 71-71 71.2 71.2 0 0 0-71-71 30.11 30.11 0 0 1-30-30 30.1 30.1 0 0 1 30-30h36.12a31.3 31.3 0 0 0 31.21-31.21 31.3 31.3 0 0 0-31.21-31.21h-45.68a12.19 12.19 0 0 1-12.15-12.15 12.19 12.19 0 0 1 12.15-12.15h8.05a8.41 8.41 0 0 0 8.39-8.38 8.41 8.41 0 0 0-8.39-8.39H390c-11.13 0-12.36 13.15-40.47 13.15h-81a11 11 0 0 0-10.94 10.94 11 11 0 0 0 10.94 10.94H279a15.9 15.9 0 0 1 15.85 15.85A15.9 15.9 0 0 1 279 148.25h-15.8c-42.7 0-48.74 11.16-56.21 33.35s-46.33 24-46.33 24h-53.11a24 24 0 0 0-23.89 23.89 24 24 0 0 0 23.89 23.89h2.74a23 23 0 0 1 23 23 23 23 0 0 1-23 23zm356-201a8.39 8.39 0 1 1 8.39-8.38 8.38 8.38 0 0 1-8.34 8.33z" fill-rule="evenodd" fill="#e1e7f4"></path><path class="cls-2" d="M4 384.24h10.1a4 4 0 0 1 4 4 4 4 0 0 1-4 4H4a4 4 0 0 1-4-4 4 4 0 0 1 4-4z"></path><path class="cls-3" d="M192.27 217.15a124.84 124.84 0 0 1-52.27-21.3c-26.87-19.16 29.67-12.64 75.7 2.83l-17.79 15.81z"></path><path class="cls-4" d="M145.73 180.51c9.1 8.69 32.89 26 56 44.47l25.27 9.91 5-15.48c-17.68-28.52-41.3-57.73-61.92-72.64-36.2-26.15-56.27 3.23-24.35 33.74z"></path><path class="cls-3" d="M227.24 234.12c-29.05-46.54-84-84.26-84.21-84.4a.8.8 0 0 0-1.16.26 1 1 0 0 0 .27 1.24c.2.13 54.28 37.25 83.21 83l1.64.65z"></path><path class="cls-5" d="M203.18 121.23c4.36 12.42 10.75 41.57 18.38 71.74a56 56 0 0 1-22.21 29.55c-18-28.6-33.61-61.41-39-87.14-10.67-50.38 26.23-61.44 42.83-14.15z"></path><path class="cls-6" d="M210.34 212.86c-25.14-48.17-36-106.22-36.06-106.47a1 1 0 0 1 .73-1.18.94.94 0 0 1 1.1.77c0 .24 10.79 57.63 35.53 105.33-.42.52-.86 1.04-1.3 1.55z"></path><path class="cls-2" d="M308.02 358.81h101.1v18.78h-101.1z"></path><rect x="184.1" y="135.08" width="360.02" height="232.37" rx="5.12" fill="#41455d"></rect><rect x="178.56" y="135.08" width="360.02" height="232.37" rx="5.12" fill="#20242f"></rect><path class="cls-9" d="M189.27 140.1h338.6a3.35 3.35 0 0 1 3.33 3.34v197a2.08 2.08 0 0 1-2.08 2.08H188a2.08 2.08 0 0 1-2.08-2.08v-197a3.36 3.36 0 0 1 3.35-3.34z"></path><path class="cls-10" d="M193.24 148.34H523.9v185.95H193.24z"></path><path class="cls-11" d="M483.41 378.88a7.64 7.64 0 0 0-7.62-7.62H241.35a7.64 7.64 0 0 0-7.62 7.62v3.35a2.74 2.74 0 0 0 2.73 2.73h244.21a2.74 2.74 0 0 0 2.74-2.73z"></path><path class="cls-12" d="M469 380.13a5.48 5.48 0 0 0-5.46-5.46H253.63a5.48 5.48 0 0 0-5.47 5.46v2.41a2 2 0 0 0 2 2H467a2 2 0 0 0 2-2z"></path><path class="cls-2" d="M35.12 384.24h519.1a4 4 0 0 1 4 4 4 4 0 0 1-4 4H35.12a4 4 0 0 1-4-4 4 4 0 0 1 4-4z"></path><path class="cls-13" d="M355.53 105h30.2a2.86 2.86 0 0 1 1.81.65.8.8 0 0 1 .35.28.71.71 0 0 1 .13.22 2.89 2.89 0 0 1 .57 1.7v17.76a2.88 2.88 0 0 1-.84 2 2.84 2.84 0 0 1-2 .84h-30.2a2.87 2.87 0 0 1-2.86-2.85v-17.74a2.87 2.87 0 0 1 .57-1.7.78.78 0 0 1 .12-.22.88.88 0 0 1 .36-.28 2.86 2.86 0 0 1 1.81-.65zm30.59 21.65l-12-9.14-3 2.28a.18.18 0 0 1-.07 0h-.97l-3-2.28-12 9.14a1 1 0 0 0 .39.08h30.2a1 1 0 0 0 .39-.08zm-10.9-10l11.63 8.88v-17.71l-11.63 8.89zm-20.81 8.88l11.59-8.82-11.63-8.89v17.77zm16.22-7.53l14.78-11.3h-29.56z"></path><path class="cls-14" d="M65.31 153.51a13.52 13.52 0 0 1 4.34-2.89 13.26 13.26 0 0 1 10.2 0 13.32 13.32 0 0 1 7.24 7.23 13.35 13.35 0 0 1-2.9 14.55 13.52 13.52 0 0 1-4.34 2.89 13.12 13.12 0 0 1-5.1 1 13.34 13.34 0 0 1-5.1-1 13.32 13.32 0 0 1-7.24-7.23 13.35 13.35 0 0 1 2.9-14.55zm4.8-1.75a12.14 12.14 0 1 0 4.64-.92 12.17 12.17 0 0 0-4.64.92zm-1.47-9.83a21.16 21.16 0 0 0-2.46.88 20.78 20.78 0 0 0-2.36 1.19 21 21 0 0 0-2.23 1.48 19.9 19.9 0 0 0-2 1.73 1.36 1.36 0 0 1-.8.38 1.33 1.33 0 0 1-.87-.18c-2-1.13-4-2.25-6-3.43a.76.76 0 0 0-.28-.09.91.91 0 0 0-.33 0 1 1 0 0 0-.3.14.88.88 0 0 0-.22.25c-1.43 2.16-2.86 5-4.19 7.25a.87.87 0 0 0-.1.31 1 1 0 0 0 0 .34.82.82 0 0 0 .4.51c1.76 1.17 4 2.34 5.9 3.42a1.3 1.3 0 0 1 .59.66 1.4 1.4 0 0 1 .09.29h.12l-.13.55c-.11.43-.21.87-.28 1.3s-.15.86-.2 1.31-.1.89-.13 1.33 0 .88 0 1.35v1.34c0 .43.07.88.13 1.33s.12.89.2 1.31.17.87.28 1.3a1.41 1.41 0 0 1-.72 1.58l-5.23 3-.62.36a.82.82 0 0 0-.4.51 1 1 0 0 0 0 .34.87.87 0 0 0 .1.31l3.88 6.71.31.54a.88.88 0 0 0 .22.25 1 1 0 0 0 .3.14.93.93 0 0 0 .33 0 .89.89 0 0 0 .31-.11c1.87-1.18 4-2.3 5.92-3.41a1.35 1.35 0 0 1 .86-.18 1.31 1.31 0 0 1 .8.38 22.33 22.33 0 0 0 2 1.73 22.1 22.1 0 0 0 2.23 1.48 21.86 21.86 0 0 0 2.37 1.19 21.28 21.28 0 0 0 2.51.88 1.46 1.46 0 0 1 .73.5 1.42 1.42 0 0 1 .28.85v6.82a.79.79 0 0 0 .06.32.77.77 0 0 0 .19.28.88.88 0 0 0 .27.19.87.87 0 0 0 .32.06h8.38a.87.87 0 0 0 .32-.06.88.88 0 0 0 .27-.19.77.77 0 0 0 .19-.28.79.79 0 0 0 .06-.32v-6.82a1.4 1.4 0 0 1 .31-.87 1.37 1.37 0 0 1 .77-.49 21.16 21.16 0 0 0 2.46-.88 21.64 21.64 0 0 0 2.36-1.18 22.1 22.1 0 0 0 2.23-1.48 24 24 0 0 0 2-1.73 1.38 1.38 0 0 1 1.74-.16l5.84 3.37a1 1 0 0 0 .31.11 1 1 0 0 0 .34 0 1 1 0 0 0 .3-.14.88.88 0 0 0 .22-.25l4.18-7.25a.72.72 0 0 0 .11-.31 1 1 0 0 0 0-.34.83.83 0 0 0-.14-.3 1 1 0 0 0-.24-.21l-5.91-3.42a1.3 1.3 0 0 1-.59-.66 1.43 1.43 0 0 1-.08-.22h-.15l.15-.63c.11-.43.2-.87.28-1.3s.15-.86.2-1.31.1-.9.12-1.33 0-.88 0-1.34v-1.35c0-.43-.06-.88-.12-1.32s-.12-.91-.2-1.33-.17-.86-.28-1.29a1.37 1.37 0 0 1 .09-.92 1.44 1.44 0 0 1 .63-.66l5.85-3.38a.85.85 0 0 0 .25-.21 1 1 0 0 0 .14-.3 1 1 0 0 0 0-.34.72.72 0 0 0-.11-.31c-1.42-2.12-2.86-5-4.18-7.25a.88.88 0 0 0-.22-.25 1 1 0 0 0-.3-.14 1 1 0 0 0-.33 0 .89.89 0 0 0-.31.11l-5.92 3.41a1.35 1.35 0 0 1-.89.18 1.41 1.41 0 0 1-.79-.39 22.1 22.1 0 0 0-2-1.73 22 22 0 0 0-4.6-2.66 20.51 20.51 0 0 0-2.5-.88 1.41 1.41 0 0 1-1-1.35v-6.82a.79.79 0 0 0-.06-.32.77.77 0 0 0-.19-.28.88.88 0 0 0-.27-.19.87.87 0 0 0-.32-.06h-8.33a.87.87 0 0 0-.32.06 1.07 1.07 0 0 0-.28.19.86.86 0 0 0-.24.6v6.82a1.45 1.45 0 0 1-.3.87 1.43 1.43 0 0 1-.78.49zm-2.94-.25a22.35 22.35 0 0 0-2.5 1.24 23.93 23.93 0 0 0-2.35 1.56 25 25 0 0 0-2.15 1.83.16.16 0 0 1-.09.05h-.1l-6-3.45a2.11 2.11 0 0 0-1.53-.17 2 2 0 0 0-1.27 1c-1.44 2.34-2.81 4.87-4.18 7.25a2.07 2.07 0 0 0-.26.77 2 2 0 0 0 .05.82 2.05 2.05 0 0 0 1 1.26c1.9 1.17 4 2.29 5.91 3.41a.27.27 0 0 1 .07.08.34.34 0 0 1 0 .1l-.14.56c-.06.27-.12.54-.17.82-.08.47-.15.93-.21 1.39s-.1.92-.13 1.4 0 1 0 1.42v1.41c0 .48.07.95.13 1.4s.13.92.21 1.39.19.93.3 1.38a.17.17 0 0 1 0 .1.15.15 0 0 1-.08.08c-2.17 1.16-4.37 2.53-6.52 3.77l.08.09-.07.09a1.92 1.92 0 0 0-.36.73 2 2 0 0 0-.05.81 2.07 2.07 0 0 0 .26.77l4.5 7.79.08-.05.14.12a2.24 2.24 0 0 0 .73.35 2.19 2.19 0 0 0 .81.06 2.08 2.08 0 0 0 .75-.25c2-1 4-2.3 5.94-3.43a.16.16 0 0 1 .1 0 .15.15 0 0 1 .09 0 23.35 23.35 0 0 0 2.15 1.83A23.93 23.93 0 0 0 63.2 183a25.5 25.5 0 0 0 2.51 1.25 22.54 22.54 0 0 0 2.65.94.15.15 0 0 1 .09.06.17.17 0 0 1 0 .1v6.82a2.15 2.15 0 0 0 .16.8 2.13 2.13 0 0 0 1.13 1.13 2.06 2.06 0 0 0 .79.16h8.38a2.1 2.1 0 0 0 .79-.16 2.13 2.13 0 0 0 1.16-1.1 2.15 2.15 0 0 0 .16-.8v-6.82a.15.15 0 0 1 0-.1.18.18 0 0 1 .09-.06 24 24 0 0 0 2.63-.93A24.28 24.28 0 0 0 86.3 183a23.93 23.93 0 0 0 2.35-1.56 25 25 0 0 0 2.15-1.83.19.19 0 0 1 .1 0 .19.19 0 0 1 .1 0l5.91 3.39a2 2 0 0 0 1.58.2 2.24 2.24 0 0 0 .73-.35 2 2 0 0 0 .53-.6c1.55-2.49 3-5.23 4.5-7.79h-.08v-.2a2 2 0 0 0 0-.81 2 2 0 0 0-.36-.72 2 2 0 0 0-.61-.54l-5.91-3.41a.27.27 0 0 1-.07-.08.2.2 0 0 1 0-.11l.16-.62.15-.74c.08-.48.16-.94.21-1.4s.1-.92.13-1.4 0-1 0-1.41v-1.42c0-.48-.07-.95-.13-1.4s-.13-.92-.21-1.4-.19-.92-.3-1.37a.17.17 0 0 1 0-.1s0-.07.08-.08l5.9-3.41a1.87 1.87 0 0 0 .61-.54 2.12 2.12 0 0 0 .36-.72 2 2 0 0 0 0-.81 2 2 0 0 0-.18-.77c-1.4-2.6-3-5.23-4.51-7.81l-.08.05-.14-.12a2.24 2.24 0 0 0-.73-.35 2.21 2.21 0 0 0-.81-.06 2.13 2.13 0 0 0-.77.26l-.43.25-5.53 3.12a.18.18 0 0 1-.1 0 .13.13 0 0 1-.09-.05 23.45 23.45 0 0 0-2.14-1.83 24.3 24.3 0 0 0-2.34-1.55 25.5 25.5 0 0 0-2.51-1.25 22.54 22.54 0 0 0-2.65-.94.15.15 0 0 1-.09-.06.17.17 0 0 1 0-.1v-6.82a2.15 2.15 0 0 0-.16-.8 2.22 2.22 0 0 0-1.13-1.13 2.1 2.1 0 0 0-.79-.16h-8.44a2.06 2.06 0 0 0-.79.16 2.21 2.21 0 0 0-.68.46 2 2 0 0 0-.61 1.47v6.82a.2.2 0 0 1 0 .11h-.1a22.11 22.11 0 0 0-2.68 1.01zM29.78 220.82zm2.95-11.21a5.66 5.66 0 1 1-1.66 4 5.61 5.61 0 0 1 1.66-4zM34 204a10.08 10.08 0 0 0-4.17 2.42.35.35 0 0 1-.41.05l-2.64-1.52a.67.67 0 0 0-.48-.06.71.71 0 0 0-.4.3L24 208.4a.68.68 0 0 0-.07.5.66.66 0 0 0 .31.39l2.62 1.51a.36.36 0 0 1 .16.39 9 9 0 0 0-.22 1.19 9.87 9.87 0 0 0-.07 1.22 9.65 9.65 0 0 0 .07 1.22A9.41 9.41 0 0 0 27 216a.36.36 0 0 1-.18.4l-2.61 1.5a.63.63 0 0 0-.31.39.68.68 0 0 0 .07.5l1.86 3.22a.68.68 0 0 0 .4.31.65.65 0 0 0 .49-.07l2.62-1.51a.35.35 0 0 1 .41 0 10 10 0 0 0 1.95 1.47 9.6 9.6 0 0 0 2.23 1 .36.36 0 0 1 .26.34v3a.63.63 0 0 0 .19.46.65.65 0 0 0 .46.2h3.76a.67.67 0 0 0 .65-.66v-3a.34.34 0 0 1 .26-.34 10 10 0 0 0 2.23-1 9.91 9.91 0 0 0 1.94-1.47.38.38 0 0 1 .44 0l2.61 1.51a.68.68 0 0 0 .5.07.66.66 0 0 0 .39-.31l1.85-3.21a.68.68 0 0 0 .06-.5.62.62 0 0 0-.3-.39l-2.63-1.52a.36.36 0 0 1-.17-.39 9.41 9.41 0 0 0 .22-1.2 9.62 9.62 0 0 0 .08-1.22 9.87 9.87 0 0 0-.08-1.22 9 9 0 0 0-.22-1.19.35.35 0 0 1 .19-.4l2.61-1.51a.62.62 0 0 0 .3-.39.68.68 0 0 0-.06-.5l-1.86-3.21a.68.68 0 0 0-.39-.3.68.68 0 0 0-.5.07l-2.63 1.52a.35.35 0 0 1-.42-.06 10.17 10.17 0 0 0-1.94-1.46 9.43 9.43 0 0 0-2.23-.93.36.36 0 0 1-.25-.34v-3a.67.67 0 0 0-.65-.66h-3.73a.65.65 0 0 0-.46.2.63.63 0 0 0-.19.46v3a.35.35 0 0 1-.22.34z"></path><path class="cls-4" d="M141.19 358c-10 5.56-34.75 15.33-59.26 26.26H56.46l-.66-11.65c22.24-21.2 49.91-41.65 71.62-50.11 38.08-14.87 49.1 15.81 13.77 35.5z"></path><path class="cls-3" d="M59.29 384.24c36.54-33.07 91.2-52.85 91.4-52.93a.73.73 0 0 1 1 .5.87.87 0 0 1-.52 1c-.2.07-53.34 19.3-89.55 51.39zM130.11 384.24c-4.66-6.3-25.27-8.91-55.09 0z"></path><path class="cls-15" d="M68.73 384.24c7.91-6.66 16-15.25 21.49-25.57 14.06-26.63 18.42-35 25.28-37.27 5.91-1.95-45.25-24-93.62 27.75 1.69 11.86 8.19 24.58 24.61 35.09z"></path><path class="cls-4" d="M108.73 317.2c-27.81 10.19-55.6 31.45-78.32 52.5.4.54.81 1.07 1.24 1.59 23.28-21.58 51.88-43.38 80.29-53-.94-.39-2-.74-3.21-1.09z"></path><path class="cls-5" d="M69.61 264.35c-8.17 8.19-22.83 26.58-39.61 47.07 0 0-17.07 27.36-3.1 52.83 30.55-19.39 60.71-43.82 77.84-66.14 33.81-44.05 3.07-72.04-35.13-33.76z"></path><path class="cls-6" d="M21.82 348.78c46-35.11 82.67-85.19 82.83-85.4a1.09 1.09 0 0 0-.15-1.49 1 1 0 0 0-1.43.24c-.16.21-36.21 49.47-81.5 84.3.07.78.15 1.57.25 2.35z"></path><path class="cls-5" d="M44.27 382.75a117.38 117.38 0 0 1 22.52-21c22.08-15.33 44-6.73 46.13 1.57.85 3.38.1 11.36-3.8 20.91H46.5c-.77-.48-1.5-.98-2.23-1.48z"></path><path class="cls-6" d="M60.51 384.24c2-4.92 5.5-13.35 8.39-17.91.24-.39.64-.54.88-.32a.89.89 0 0 1 0 1.09c-2.73 4.31-6.09 12.26-8 17.14zm2.71 0h5.07c1.64-1 3.33-1.95 5-2.89.73.58 1.9 1.56 3.34 2.89h2.38a71.295 71.295 0 0 0-4.14-3.75 146.25 146.25 0 0 1 19-8.51 25.65 25.65 0 0 1 8.07 7.15c.2.28.59.22.87-.13a1 1 0 0 0 .17-1.13 25.77 25.77 0 0 0-7.06-6.61 125.11 125.11 0 0 1 13.29-3.82 2.13 2.13 0 0 0 1.4-1.87c.08-.88-.41-1.47-1.1-1.31a135.22 135.22 0 0 0-26.4 9.06 106.26 106.26 0 0 1 9.4-16 1 1 0 0 0 .1-1.13c-.21-.25-.6-.17-.88.2a112.29 112.29 0 0 0-10.25 17.65 163.1 163.1 0 0 0-18.26 10.2z"></path><path class="cls-16" d="M126.74 216.38h37.87a6.69 6.69 0 0 1 6.68 6.68v33a1.47 1.47 0 0 1-.89 1.33 1.41 1.41 0 0 1-.83.08 1.37 1.37 0 0 1-.74-.39l-9.83-9.85h-32.26a6.69 6.69 0 0 1-6.68-6.68v-17.49a6.69 6.69 0 0 1 6.68-6.68zm37.87 1.56h-37.87a5.14 5.14 0 0 0-5.12 5.12v17.49a5.14 5.14 0 0 0 5.12 5.12h32.91l10.08 10.08v-32.69a5.14 5.14 0 0 0-5.12-5.12z"></path><path class="cls-16" d="M126.43 222.9a.43.43 0 1 1 0-.85h38.49a.43.43 0 1 1 0 .85zM126.43 227.06a.43.43 0 1 1 0-.85h4.07a.43.43 0 1 1 0 .85zm9.5 0a.43.43 0 0 1 0-.85h29a.43.43 0 1 1 0 .85zM126.43 231.22a.43.43 0 1 1 0-.85h38.49a.43.43 0 1 1 0 .85zM137.13 236.86a.43.43 0 0 1 0-.85h27.79a.43.43 0 1 1 0 .85zM149.54 241.37a.43.43 0 1 1 0-.85h15.38a.43.43 0 1 1 0 .85zM140.73 241.37a.43.43 0 1 1 0-.85h5.5a.43.43 0 0 1 0 .85z"></path><path class="cls-17" d="M536.62 84.34H514a4 4 0 0 0-2.81 1.17 4 4 0 0 0-1.19 2.82v23.1c0 .66.07 1 .82 1.3 1.21.52 1.24.09 1.63-.65V112a14.58 14.58 0 0 1 3.7-4.29 6.45 6.45 0 0 1 3.79-1.38h1.75v1.48a3.28 3.28 0 0 0 1 2.33 3.32 3.32 0 0 0 2.33 1h12.34a4.47 4.47 0 0 1 2.62 1 10.48 10.48 0 0 1 2.61 3l.06.11c.38.76.69 1.06 1.67.64.76-.32.8-.64.78-1.26.16-5.58 0-11.57 0-17.16a3.29 3.29 0 0 0-3.3-3.29h-1.24v-5.85a4 4 0 0 0-4-4zm-19.41 14.32h-1.36a.77.77 0 1 1 0-1.54h1.36a.77.77 0 0 1 0 1.54zm2.91-1.54h12.48a.77.77 0 0 1 0 1.54h-12.48a.77.77 0 1 1 0-1.54zm13.32-5.93h1.36a.77.77 0 1 1 0 1.54h-1.36a.77.77 0 0 1 0-1.54zm-2.9 1.54h-14.69a.77.77 0 1 1 0-1.54h14.69a.77.77 0 0 1 0 1.54zm-6.21 13.6h12.29a4 4 0 0 0 2.82-1.17 3.94 3.94 0 0 0 1.17-2.82v-5.67h1.24a.72.72 0 0 1 .52.21.77.77 0 0 1 .22.52v13.5a10.25 10.25 0 0 0-1.05-.89 7 7 0 0 0-4.13-1.47h-12.34a.74.74 0 0 1-.52-.21.77.77 0 0 1-.22-.52v-1.48zM514 86.9h22.59a1.41 1.41 0 0 1 1 .42 1.43 1.43 0 0 1 .42 1v14a1.43 1.43 0 0 1-.42 1 1.41 1.41 0 0 1-1 .42H520a8.92 8.92 0 0 0-5.3 1.88 14.72 14.72 0 0 0-2.12 1.93V88.33A1.43 1.43 0 0 1 514 86.9z"></path><path class="cls-18" d="M510.92 91.74a6.73 6.73 0 1 0-6.73-6.74 6.74 6.74 0 0 0 6.73 6.74z"></path><path class="cls-17" d="M511.69 88.22h-1.31v-5a4.61 4.61 0 0 1-1.7 1V83a4 4 0 0 0 1.12-.64 2.48 2.48 0 0 0 .83-1.1h1.06z"></path><path class="cls-14" d="M379.67 50.86a1 1 0 0 0-1.95 0v2.29h-2.28a1 1 0 0 0 0 1.94h2.28v2.28a1 1 0 1 0 1.95 0v-2.28H382a1 1 0 0 0 0-1.94h-2.28zM234.41 101.48a1 1 0 0 0-1.95 0v2.29h-2.28a1 1 0 1 0 0 1.94h2.28V108a1 1 0 1 0 1.95 0v-2.28h2.28a1 1 0 0 0 0-1.94h-2.28zM127.66 124.59a1 1 0 0 0-1.94 0v2.29h-2.29a1 1 0 1 0 0 1.94h2.29v2.28a1 1 0 1 0 1.94 0v-2.28H130a1 1 0 1 0 0-1.94h-2.29zM45.13 246.74a1 1 0 0 0-1.94 0V249H40.9a1 1 0 0 0 0 1.95h2.29v2.28a1 1 0 1 0 1.94 0V251h2.29a1 1 0 0 0 0-1.95h-2.29zM179.39 57.46a1 1 0 0 0-1.95 0v2.29h-2.28a1 1 0 1 0 0 1.94h2.28V64a1 1 0 0 0 1.95 0v-2.31h2.28a1 1 0 0 0 0-1.94h-2.28z"></path><path class="cls-17" d="M325.74 110.28a1 1 0 1 0-1.94 0v2.29h-2.28a1 1 0 1 0 0 1.94h2.28v2.29a1 1 0 1 0 1.94 0v-2.29H328a1 1 0 1 0 0-1.94h-2.29zM441.29 48.74a1 1 0 1 0-1.94 0V51h-2.29a1 1 0 1 0 0 1.94h2.29v2.29a1 1 0 1 0 1.94 0V53h2.29a1 1 0 0 0 0-1.94h-2.29zM566.74 144.48a1 1 0 0 0-1.94 0v2.29h-2.29a1 1 0 0 0 0 1.94h2.29V151a1 1 0 1 0 1.94 0v-2.29H569a1 1 0 1 0 0-1.94h-2.29zM566.74 353.57a1 1 0 1 0-1.94 0v2.28h-2.29a1 1 0 0 0 0 1.95h2.29v2.28a1 1 0 0 0 1.94 0v-2.28H569a1 1 0 0 0 0-1.95h-2.29zM148.57 297.44a1 1 0 1 0-1.94 0v2.29h-2.29a1 1 0 0 0 0 1.94h2.29V304a1 1 0 1 0 1.94 0v-2.29h2.29a1 1 0 0 0 0-1.94h-2.29zM168.38 363.47a1 1 0 1 0-1.94 0v2.29h-2.29a1 1 0 0 0 0 1.94h2.29v2.3a1 1 0 1 0 1.94 0v-2.3h2.29a1 1 0 0 0 0-1.94h-2.29z"></path><path d="M16.52 288.64a1 1 0 0 0-1.95 0v2.29h-2.28a1 1 0 0 0 0 1.94h2.28v2.29a1 1 0 0 0 1.95 0v-2.29h2.28a1 1 0 1 0 0-1.94h-2.28z" fill="#e1e0e7" fill-rule="evenodd"></path><path class="cls-20" d="M261.92 310.21a1.28 1.28 0 1 0-1.27-1.28 1.28 1.28 0 0 0 1.27 1.28zM455.21 310.2a1.28 1.28 0 1 0-1.28-1.28 1.28 1.28 0 0 0 1.28 1.28zM338.52 183.31a1.28 1.28 0 1 0-1.28-1.27 1.27 1.27 0 0 0 1.28 1.27zM378.62 183.31a1.28 1.28 0 1 0-1.28-1.27 1.28 1.28 0 0 0 1.28 1.27zM338.52 205.89a1.28 1.28 0 1 0-1.28-1.27 1.27 1.27 0 0 0 1.28 1.27zM378.62 205.89a1.28 1.28 0 1 0-1.28-1.27 1.28 1.28 0 0 0 1.28 1.27z"></path><rect class="cls-21" x="236.1" y="155.47" width="281.38" height="8.25" rx="1.62"></rect><path class="cls-14" d="M227 162.74a3.14 3.14 0 1 0-3.14-3.14 3.14 3.14 0 0 0 3.14 3.14z"></path><path class="cls-18" d="M214.91 162.74a3.14 3.14 0 1 0-3.14-3.14 3.14 3.14 0 0 0 3.14 3.14z"></path><path class="cls-22" d="M202.79 162.74a3.14 3.14 0 1 0-3.13-3.14 3.15 3.15 0 0 0 3.13 3.14z"></path><rect x="215.68" y="183.12" width="86.45" height="72.01" rx="1.86" fill="#f5d4a5"></rect><path d="M217.54 183.12h.27v72h-.27a1.87 1.87 0 0 1-.71-.14v-71.72a1.87 1.87 0 0 1 .71-.14zm1.74 0h1v72h-1v-72zm2.45 0h1v72h-1v-72zm2.44 0h1v72h-1v-72zm2.45 0h1v72h-1v-72zm2.45 0h1v72h-1v-72zm2.44 0h1v72h-1v-72zm2.45 0h1v72h-1v-72zm2.45 0h1v72h-1v-72zm2.44 0h1v72h-1v-72zm2.45 0h1v72h-1v-72zm2.44 0h1v72h-1v-72zm2.45 0h1v72h-1v-72zm2.45 0h1v72h-1v-72zm2.44 0h1v72h-1v-72zm2.45 0h1v72h-1v-72zm2.45 0h1v72h-1v-72zm2.44 0h1v72h-1v-72zm2.45 0h1v72h-1v-72zm2.44 0h1v72h-1v-72zm2.45 0h1v72h-1v-72zm2.45 0h1v72h-1v-72zm2.44 0h1v72h-1v-72zm2.45 0h1v72h-1v-72zm2.45 0h1v72h-1v-72zm2.44 0h1v72h-1v-72zm2.45 0h1v72h-1v-72zm2.44 0h1v72h-1v-72zm2.45 0h1v72h-1v-72zm2.45 0h1v72h-1v-72zm2.44 0h1v72h-1v-72zm2.45 0h1v72h-1v-72zm2.45 0h1v72h-1v-72zm2.44 0h1v72h-1v-72zm2.45 0h.27a1.78 1.78 0 0 1 .7.14V255a1.78 1.78 0 0 1-.7.14H300z" fill="#fef2d5" fill-rule="evenodd"></path><path class="cls-25" d="M282.18 226.56a7.24 7.24 0 0 1 2.22 3c.46 1.13 5.28 22 5.46 23a4.77 4.77 0 0 1-.29 2.59h-5.66a2 2 0 0 0 0-1.48c-.3-1-5-13.12-5-13.12s-.74-11.39 3.27-13.99zM254.44 223.2a17.4 17.4 0 0 0-4.33 1.31c-2.05.89-7 5.79-9.55 7.29-2.32 1.34-2.69 2-3.36-.81-1.27-5.34-1.8-18.91-1.8-18.91l-4.84-.25s.14 24 2.11 26.89 6 3.27 22.31-4.74c.02.02 2.74-5.91-.54-10.78z"></path><path d="M272.34 222.57s6.53 2 7.22 2.66l-.56 13.68s-4 11.64-4.48 13.43a18.35 18.35 0 0 0-.28 2.79h-20.09a26.7 26.7 0 0 0 0-3.64c-.31-1.82-3.35-13.75-3.35-13.75l.57-13.68c.74-.57 7.41-2.05 7.41-2.05l6.7 2.51z" fill="#b5c5e2" fill-rule="evenodd"></path><path class="cls-27" d="M272.34 222.57s6.53 2 7.22 2.66l-.44 10.49-.48 4.2c-1 2.87-3.76 11-4.13 12.42a18.35 18.35 0 0 0-.28 2.79h-8.46v-3l2.57-7.68a7.16 7.16 0 0 0-1-1.44c-.24-.09-4.78-.36-5.28-.32a8 8 0 0 0-1.92 1l-1.45-5.1s10.29.3 10.48-.32 1.48-7.57 1.56-8.32-1.75-4.07-1.75-4.07a6.5 6.5 0 0 1 .08-2.35z"></path><path class="cls-2" transform="rotate(-87.62 265.783 216.382)" d="M259.17 207.73h13.26v17.31h-13.26z"></path><path class="cls-14" d="M270.48 220.87a14.62 14.62 0 0 0-9.65-.4l.43 1.62 4.32.43 4.34-.07z"></path><path class="cls-28" d="M265.88 214.45h.12a3.55 3.55 0 0 1 3.38 3.68l-.18 4.14a3.54 3.54 0 0 1-3.67 3.38h-.07A3.54 3.54 0 0 1 262 222l.18-4.15a3.54 3.54 0 0 1 3.7-3.4zM259.8 205.79a2.5 2.5 0 1 1-3 1.92 2.5 2.5 0 0 1 3-1.92zM275.94 209.27a2.5 2.5 0 1 1-3 1.92 2.5 2.5 0 0 1 3-1.92z"></path><path class="cls-29" d="M270.35 195.89a8.44 8.44 0 0 1 6.22 10.11l-1.64 7.61a8.4 8.4 0 0 1-9.82 6.64 8.43 8.43 0 0 1-6.22-10.11l1.64-7.61a8.41 8.41 0 0 1 9.82-6.64z"></path><path class="cls-30" d="M270.35 195.89a8.44 8.44 0 0 1 6.22 10.11l-1.64 7.61a8.4 8.4 0 0 1-9.82 6.64l-.4-.1c3.83-.09 6-1.46 7.11-3.29 4.05-6.82-3.36-9.66-5.73-12.86a5.92 5.92 0 0 1-1-1.93 12.09 12.09 0 0 1-5.4 4.46l.85-4a8.43 8.43 0 0 1 9.81-6.64z"></path><path d="M265.51 214.34a.32.32 0 0 0-.25-.37.31.31 0 0 0-.37.25 1.5 1.5 0 0 0 .23 1.14 1.53 1.53 0 0 0 1 .64 1.48 1.48 0 0 0 1.13-.24 1.46 1.46 0 0 0 .64-1 .31.31 0 0 0-.25-.37.32.32 0 0 0-.37.25.86.86 0 0 1-.37.57.91.91 0 0 1-.67.14.94.94 0 0 1-.57-.37.91.91 0 0 1-.15-.64z" fill="#db766e" fill-rule="evenodd"></path><path class="cls-32" d="M265.14 199.52s-.08 4.09 11.63 9.92l1.82-9.08-5.38-5.84-6.36-.51a35.29 35.29 0 0 0-4.21 1.87c-.41.4-3.61 5.86-3.61 5.86l.62 3.12s2.95-.12 5.49-5.34z"></path><path class="cls-33" d="M265.14 199.52s-.08 4.09 11.63 9.92l.57-2.82c-5.88-.68-12.2-7.1-12.2-7.1zm-5.75 4a9.28 9.28 0 0 0 5.75-4c-2.54 5.22-5.49 5.34-5.49 5.34z"></path><path class="cls-25" d="M272.12 222.19s-2 15.26-2.29 16.42-3.52 11-4.05 12.21a26.66 26.66 0 0 0 .12 4.31h9.92c1.2-6.07 3-14 3-14l3.35-14.59a48.91 48.91 0 0 0-10.05-4.35z"></path><path class="cls-34" d="M271.23 228.9c-.58 4.25-1.24 9.08-1.4 9.71-.29 1.15-3.52 11-4.05 12.21a26.66 26.66 0 0 0 .12 4.31h.85a35.23 35.23 0 0 1 .69-4.34c.37-1 8.14-13.34 8.39-14.2s-1.29-8-1.29-8z"></path><path class="cls-35" d="M272.12 222.19s-.82 6.23-1.48 11c1.74-1 5.52-3.19 5.44-3.55s-2.15-6.88-2.15-6.89z"></path><path class="cls-17" d="M270.48 220.87s.61 1 .9 1.43a1.25 1.25 0 0 1 .08 1c-.18.63-2.55 5.85-2.55 5.85s-.17.28-.45 0-2.48-3.54-2.48-3.54l4-4.35c.17-.21.45-.43.5-.39zM260.83 220.47c-.06 0-.69.93-1 1.35a1.23 1.23 0 0 0-.16 1c.12.64 2.05 6 2.05 6s.15.29.45 0 2.77-3.31 2.77-3.31l-3.61-4.67c-.19-.17-.45-.41-.5-.37z"></path><path class="cls-25" d="M259 221.65s.72 15.37.91 16.54 2.59 11.25 3 12.52a26 26 0 0 1-.5 4.42h-9.76c-.66-6.24-3-18.64-3-18.64l.45-12s2.65-1.49 8.9-2.84z"></path><path class="cls-34" d="M259.35 228.4c.22 4.29.48 9.15.58 9.79.19 1.18 2.59 11.25 3 12.52a26 26 0 0 1-.5 4.42h-.81a36.47 36.47 0 0 0-.34-4.59c-.29-1-7-14-7.18-14.86s2-7.88 2-7.88z"></path><path class="cls-35" d="M259 221.65s.29 6.27.56 11.11c-1.66-1.14-5.24-3.64-5.13-4s2.71-6.68 2.71-6.69c.6-.13 1.22-.28 1.86-.42z"></path><path class="cls-32" d="M265.16 192.86s2.29-2.75 8.56-1.48 9.47 9.52 6.51 21.13-6.57 13.87-11.75 13.36a.24.24 0 0 1-.24-.28c0-.29 4.73-4.39 6.09-11.09 0 0 .5-2.48.63-3.1s1.24-6.14 1.24-6.14l-10.83-7.84-5.06 4.39.05 2.58s-1.25 6.17-1.67 8.2-.71 8.15 2.11 10a.26.26 0 0 1 0 .34c-.12.21-5.9.27-7.2-4.38s2.52-18 3.75-20.69 3.47-5.98 7.81-5z"></path><path class="cls-33" d="M281.29 206a34.77 34.77 0 0 1-1.06 6.51c-3 11.62-6.57 13.87-11.75 13.36a.24.24 0 0 1-.24-.28c0-.29 4.73-4.39 6.09-11.09 0 0 .5-2.48.63-3.1l1-5a7.51 7.51 0 0 0 5.31-.37zm-21-2.72v1.11s-1.25 6.17-1.67 8.2-.71 8.15 2.11 10a.26.26 0 0 1 0 .34c-.12.21-5.9.27-7.2-4.38-.84-3 .42-9.46 1.76-14.48a14.68 14.68 0 0 0 5.05-.79z"></path><path class="cls-34" d="M250.07 236.79c1-3.07 2.91-9.79 2.05-13.16l-.41.16c.84 3.27-1.21 10.09-2.17 13.07l.5-.21z"></path><path class="cls-29" d="M237.13 208.64a9.47 9.47 0 0 1 2.48-2.95c.86-.57-.38-1.09-1.71-.61-1 .35-2.05 1.71-2.18 1.58-.33-.29.63-6.12.71-6.76 0-.21-1.09-2.54-1.78 1.44-.2 1.17-.2 2.77-.32 2.86s-.27 0-.41-.65a35.14 35.14 0 0 0-1-4.72c-.28-.24-1.42-.33-1.49.26s.64 4.13.65 4.86l.12 1.11a1.08 1.08 0 0 0-1.42.9 1.23 1.23 0 0 0-1.33 1.14c-.09 1.22.05 3.78 1.14 4.73a4.41 4.41 0 0 0 3.8.74c1.98-.57 2.01-2.2 2.74-3.93z"></path><path class="cls-30" d="M237.13 208.64a8.55 8.55 0 0 1 1.85-2.41c-.29.14-3.15 2.64-3.81 2.66s-1.86-3.18-2.85-4.07c.91 2.69 1.36 3.68.62 4s-.87.2-1.24-.83-.66-1.15-.66-.53.43 1.46.21 1.65-.69.49-1.06 0c-.2-.29-.52-.81-.75-1.23 0 1.32.26 3.19 1.16 4a4.41 4.41 0 0 0 3.8.74c1.97-.62 2-2.25 2.73-3.98z"></path><path class="cls-34" d="M278.63 240.15c.14-2.79.77-10.65 3.55-13.59l.35.27c-3.24 3.26-3.36 14.1-3.37 14.36l-.14-.36c-.11-.32-.19.32-.19.32s-.14-.66-.2-1z"></path><path class="cls-17" d="M268.46 214.8a2.5 2.5 0 1 1-4.82-1.3.43.43 0 0 1 .53-.3l4 1.07a.43.43 0 0 1 .3.53z"></path><path class="cls-11" d="M217.54 181.56h82.74a3.43 3.43 0 0 1 3.42 3.44v68.3a3.43 3.43 0 0 1-3.42 3.41h-82.74a3.41 3.41 0 0 1-3.42-3.41V185a3.41 3.41 0 0 1 3.42-3.42zm82.74 3.12h-82.74a.31.31 0 0 0-.21.09.29.29 0 0 0-.09.21v68.3a.25.25 0 0 0 .09.2.27.27 0 0 0 .21.09h82.74a.31.31 0 0 0 .3-.29V185a.31.31 0 0 0-.3-.3z"></path><rect class="cls-36" x="415" y="183.12" width="86.45" height="72.01" rx="1.86"></rect><path class="cls-37" d="M422.26 193.68h27v30.34h-27z"></path><path class="cls-38" d="M422.89 193.26h27v30.34h-27z"></path><path class="cls-10" d="M425.17 195.54h22.44v25.78h-22.44z"></path><path class="cls-37" d="M455.09 193.68h25.72v22.01h-25.72z"></path><path class="cls-38" d="M455.73 193.26h25.72v22.01h-25.72z"></path><path class="cls-10" d="M458.01 195.54h21.16v17.45h-21.16z"></path><path class="cls-36" d="M426.27 196.8h20.24v23.25h-20.24zM459.58 197.1h18.02v14.32h-18.02z"></path><path class="cls-29" d="M449.75 255.13c2.18-5.31 6.74-15.66 6.74-15.66s2.33-12.95-1.28-13.28c0 0-2.78 1.34-4.63 8.9-1.65 6.74-5.16 16.62-6.35 20z"></path><path class="cls-20" d="M457.1 225.21s-8.21-.54-7.32 12.89l5.1 3.45s7.1-7.28 6.75-9-4-7.2-4-7.2z"></path><path class="cls-39" d="M457.1 225.21a1.61 1.61 0 0 0-.25 0l-6.73 6.73c-.09.4-.16.84-.23 1.3l7.81-7.81-.05-.08-.55-.14zm-2.31.44l-3.88 3.88a7.05 7.05 0 0 1 3.88-3.88zm-5.05 9.35l8.6-8.61.42.66-9.05 9.05V235zm0 2.68l9.62-9.62.4.67-9.62 9.61-.38-.26v-.4zm1.37 1.32l9.24-9.24.38.69-9 9-.64-.43zm1.61 1.08l8.54-8.54q.2.45.3.78l-8.2 8.2-.64-.44zm1.61 1.09l.53.36a68.67 68.67 0 0 0 5.53-6.42z"></path><path class="cls-33" d="M475.34 197.55a5 5 0 0 1 4.1 3.53c1.21 3.38-2.73 12.47 0 17s6 8.28-1.53 13.67c-6.5 4.63-18.84 1.95-22.16 1.11l-.6-1.12a7.23 7.23 0 0 1-2.63-2.81 12.05 12.05 0 0 1-.26-9.56c3-7.56 4.43-6.84 2.82-13s1.77-10.53 5.06-12.7 13.75-5.67 15.2 3.88z"></path><path class="cls-11" d="M481.13 228.89a15.82 15.82 0 0 1-3.22 2.91c-2.76 2-6.58 2.62-10.32 2.64-4.64-2.26-12.22-6-11.38-11.58a11.14 11.14 0 0 1 6.62-8.85l4.15-1.18 9.55-4.17s-1.54 6.94 2.11 10.78 2.36 7.68 2.36 7.68l-1.81 1.41s.81.11 1.94.36z"></path><path class="cls-29" d="M481.61 226.19s3.11 1.34 6.89 9.38c3.38 7.2 7.15 16.2 8 19.56h-7.13c-3-4.35-7.4-13.58-7.4-13.58l-2.52-5.34s.36-8.28 2.16-10.02z"></path><path class="cls-40" d="M449.41 238.68s3.47 3.32 6.6 5.68a.43.43 0 0 0 .49-.11c.17-.24.51-.92.51-.92a.52.52 0 0 0-.08-.49c-.17-.3-7.08-6.17-7.08-6.17s-.18-.16-.36.09a5.27 5.27 0 0 0-.41 1.2.88.88 0 0 0 .33.72z"></path><path class="cls-20" d="M478.75 226.42l2.86-.23s7.93.29 8.15 12.1l-6.6 5.76a4.73 4.73 0 0 1-1.65-3.41c-.32-2.52-2.76-14.22-2.76-14.22z"></path><path class="cls-39" d="M480 226.32l1.16-.1-2.05 2.05-.18-.89 1.07-1.06zm2.64.05l-3.25 3.25.18.89 3.89-3.88a6.3 6.3 0 0 0-.82-.26zm1.93.77l-4.73 4.72.18.9 5.21-5.21c-.23-.15-.45-.29-.66-.41zm1.56 1.13q.27.25.54.54l-6.2 6.2-.18-.9 5.84-5.84zm1.26 1.44a6 6 0 0 1 .42.65l-6.9 6.91-.18-.9 6.66-6.66zm1 1.72c.11.24.22.49.32.75l-7.37 7.37c0-.27-.1-.58-.16-.91l7.21-7.21zm.72 2l-7.56 7.57a8 8 0 0 0 .21.87l7.56-7.56c-.07-.3-.14-.58-.21-.86zm.45 2.24l-7.32 7.33a4.74 4.74 0 0 0 .45.63l7-7c0-.33-.07-.65-.11-1zm.19 2.51v.13l-1.05.91z"></path><path class="cls-41" d="M475.81 206.78c1.19-.75 1.26.88 1.19 1.77s-.71 2.23-1.62 2.34-.24-3.71.43-4.11z"></path><path class="cls-39" d="M473.69 223.82s5.95 1.53 7.92 2.37c0 0 .08 13.51.32 15.36.21 1.58-1.18 8.69-1.74 13.58h-24.34c0-.77.06-1.53.07-2.29.07-5.5-1.15-10.44-1-11.29.25-1.85.33-15.36.33-15.36 2-.84 7.92-2.37 7.92-2.37l3.73-1.44h3.1z"></path><path class="cls-20" d="M474.27 224l.85.22-19.93 19.93c-.05-.34-.09-.65-.14-.93L474.27 224zm5 31.16h-1.08l2.32-2.31c-.06.42-.11.83-.17 1.24l-1.07 1.07zm-2.7 0l4.22-4.21c.06-.43.12-.85.19-1.27l-5.48 5.48zm-2.7 0l7.4-7.4c.07-.43.13-.85.19-1.26l-8.66 8.66zm-2.7 0l10.56-10.55c.06-.44.11-.85.15-1.22l-11.78 11.77zm-2.69 0l13.48-13.48a.31.31 0 0 0 0-.1c0-.19 0-.5-.07-.9l-14.48 14.48zm-2.7 0l16-16v-1l-17.08 17.08zm-2.7 0l18.68-18.67v-1.05L462 255.13zm-2.69 0l21.32-21.32v-1.06l-22.39 22.38zm-2.7 0l24-24v-1.06l-25.05 25zm18.73-30.59l-21 21c0 .3.08.62.12 1l21.71-21.71-.83-.24zm2.09.6L455.69 248l.09 1 23.54-23.54-.83-.25zm2.05.65l-24.66 24.67v1l25.41-25.41-.79-.29zm1.08 1.62l-25.7 25.7v1.11l25.74-25.75v-1.06zm-26.74 14.33l18.17-18.17-.78-.3L455 240.59c0 .43 0 .76-.08 1v.19zm.14-2.84l16.08-16.08-.78-.3-15.27 15.27v1.11zm.07-2.77l13.75-13.75h-1.07L455.11 235v1.09zm0-2.74l10.57-10.56-1.75.67-8.8 8.8v1.09zm0-2.73l6.44-6.44-1.48.4-4.95 5v1.08zm0-2.72l2.65-2.65-1.58.5-1.06 1.07z"></path><path class="cls-17" d="M473.69 223.82l2.62.7-.68.85c-3 3.79-11.4 3.79-14.44 0l-.69-.85 2.63-.7 3.73-1.44H470z"></path><path class="cls-41" d="M473.69 223.82s-1.81-1.55-1.81-3.34v-3.82l-3.47.71-3.47-.71v3.82c0 1.79-1.81 3.34-1.81 3.34 2.04 2.54 8.52 2.54 10.56 0z"></path><path class="cls-29" d="M471.82 217.47c.83-.93 3.49-5.11 3.87-8.57s0-10-7.28-9.56c-7.28-.41-7.66 6.11-7.28 9.56s3 7.64 3.87 8.57a4.66 4.66 0 0 0 6.82 0z"></path><path d="M474.28 213.41a14.93 14.93 0 0 0 1.41-4.51c.31-2.9.1-8-4.31-9.27a8.88 8.88 0 0 0-4.52 2.15c-5.05 4.54-5.6 7.94-5.6 7.94l2.44 1.17s.12-2.34 3.61-3 4.38-1.66 4.82-2.46a6.17 6.17 0 0 1 2.15 7.98z" fill="#e4987b" fill-rule="evenodd"></path><path class="cls-33" d="M475.78 207.7a.29.29 0 0 1-.25-.33v-.73a6.9 6.9 0 0 1-3-4.48 6.78 6.78 0 0 1-4.66 4.55c-3.7.92-4.18 2.69-4.18 4.18s.36 4.26-4.78 3.94 1-14.72 1.93-15.68 11.25-4.1 11.74-3.78 4 9.57 4 9.57l-.47 1.68a1.4 1.4 0 0 0-.33 1.08zM454.16 222.45l-1.5 6.85a9.54 9.54 0 0 0 4 3.29c2.52 1 5 4.15 2.94 10 0 0-.3.86.24 1.06s1-.74 1.14-1.38a6.07 6.07 0 0 0 5 5.72c4.92 1 11.83-5.27 8.2-11.32s-9.21-2.85-9.21-16.21v-3.06a8 8 0 0 1-.59-.79z"></path><path class="cls-11" d="M474.54 243a6.56 6.56 0 0 0-.39-6.28c-3.63-6-9.21-2.85-9.21-16.21v-3.11a8 8 0 0 1-.59-.79l-7.74 4.44a11.75 11.75 0 0 0-.4 1.81c-1 6.84 10.7 11 14 12.92 2.08 1.22 4.39 4.22 4.33 7.22z"></path><path class="cls-40" d="M490.15 239.16s-3.47 3.32-6.6 5.68a.43.43 0 0 1-.49-.11 8.73 8.73 0 0 1-.51-.91.56.56 0 0 1 .07-.5c.18-.29 7.09-6.17 7.09-6.17s.18-.16.36.09a5.82 5.82 0 0 1 .41 1.2.92.92 0 0 1-.33.72z"></path><path class="cls-33" d="M470.37 199.5a.12.12 0 0 1 0-.18.14.14 0 0 1 .19 0l2.07 2.74a.16.16 0 0 1 0 .09s-.4 6.11-9.09 6.39a.13.13 0 0 1-.14-.13.13.13 0 0 1 .13-.13c8-.27 8.77-5.53 8.83-6.1zM455.82 206.35a.13.13 0 0 1 .1-.16.13.13 0 0 1 .16.11s.76 3.7-2.08 8.15a21.19 21.19 0 0 0-3.08 7 7.94 7.94 0 0 0 1.41 6.72 8.2 8.2 0 0 0 7.62 3.15.14.14 0 0 1 .16.11.15.15 0 0 1-.11.16 8.53 8.53 0 0 1-7.88-3.26 8.17 8.17 0 0 1-1.46-6.93 21.14 21.14 0 0 1 3.12-7.11c2.78-4.29 2.04-7.93 2.04-7.94zM478.16 210.91a.13.13 0 0 1 .16-.1.12.12 0 0 1 .1.15 9.31 9.31 0 0 0 1.39 6.32 28.71 28.71 0 0 1 2.29 4.16 6.29 6.29 0 0 1 .4 3.55.13.13 0 0 1-.16.1.12.12 0 0 1-.1-.15 6 6 0 0 0-.39-3.4 27.77 27.77 0 0 0-2.27-4.12 9.61 9.61 0 0 1-1.42-6.51z"></path><path class="cls-11" d="M416.86 181.56h82.74A3.41 3.41 0 0 1 503 185v68.3a3.41 3.41 0 0 1-3.41 3.41h-82.73a3.41 3.41 0 0 1-3.42-3.41V185a3.42 3.42 0 0 1 1-2.42 3.46 3.46 0 0 1 2.42-1zm82.74 3.12h-82.74a.31.31 0 0 0-.21.09.29.29 0 0 0-.09.21v68.3a.25.25 0 0 0 .09.2.27.27 0 0 0 .21.09h82.74a.29.29 0 0 0 .21-.09.28.28 0 0 0 .08-.2V185a.32.32 0 0 0-.08-.21.33.33 0 0 0-.21-.11z"></path><path class="cls-10" d="M300.94 214.79H416.2a3.56 3.56 0 0 1 3.56 3.56v83.26a3.56 3.56 0 0 1-3.56 3.56H300.94a3.55 3.55 0 0 1-3.55-3.55v-83.27a3.55 3.55 0 0 1 3.55-3.56z"></path><path d="M300.94 214.79H416.2a3.55 3.55 0 0 1 3.55 3.55v83.26a3.56 3.56 0 0 1-3.56 3.56H300.94a3.55 3.55 0 0 1-3.55-3.55v-83.26a3.55 3.55 0 0 1 3.55-3.56z" fill="#ecc5c5"></path><path d="M314.18 214.79h.26v1.35h29.25v-1.35h.31v1.35h29.24v-1.35h.26v1.35h29.2v-1.35h.3v1.35h16l.19.26h-1.46v8.49h2v.25H403v8.49h16.8v.25h-2v8.49h2v.26H403v8.48h16.8v.26h-2v8.48h2v.26H403v8.48h16.8v.26h-2v8.49h2v.25H403v8.49h16.8v.26h-2v8.48h2v.26H403v8.48h16.22a2.48 2.48 0 0 1-.19.26h-1.27v1l-.26.11v-1.12h-29.3v1.35h-.26v-1.35H358.7v1.35h-.26v-1.35h-29.25v1.35h-.26v-1.35h-29.24v1.12l-.26-.11v-1h-1.28l-.18-.26h16.21v-8.48h-16.8v-.26h2.05v-8.48h-2.05v-.26h16.8v-8.49h-16.8v-.25h2.05v-8.49h-2.05v-.26h16.8v-8.48h-16.8v-.26h2.05v-8.48h-2.05v-.26h16.8v-8.48h-16.8v-.26h2.05v-8.49h-2.05v-.25h16.8v-8.49h-16.8v-.25h2.05v-8.49H298l.18-.26h16v-1.35zm88.52 80.29h-29.25v8.48h29.25v-8.48zm-29.51 0H344v8.48h29.24v-8.48zm-29.5 0h-29.25v8.48h29.25v-8.48zm73.76-8.74H388.2v8.48h29.25v-8.48zm-29.51 0H358.7v8.48h29.24v-8.48zm-29.5 0h-29.25v8.48h29.25v-8.48zm-29.51 0h-29.24v8.48h29.24v-8.48zm73.77-8.75h-29.25v8.49h29.25v-8.49zm-29.51 0H344v8.49h29.24v-8.49zm-29.5 0h-29.25v8.49h29.25v-8.49zm73.76-8.74H388.2v8.49h29.25v-8.49zm-29.51 0H358.7v8.49h29.24v-8.49zm-29.5 0h-29.25v8.49h29.25v-8.49zm-29.51 0h-29.24v8.49h29.24v-8.49zm73.77-8.74h-29.25v8.48h29.25v-8.48zm-29.51 0H344v8.48h29.24v-8.48zm-29.5 0h-29.25v8.48h29.25v-8.48zm73.76-8.74H388.2v8.48h29.25v-8.48zm-29.51 0H358.7v8.48h29.24v-8.48zm-29.5 0h-29.25v8.48h29.25v-8.48zm-29.51 0h-29.24v8.48h29.24v-8.48zm73.77-8.74h-29.25v8.48h29.25v-8.48zm-29.51 0H344v8.48h29.24v-8.48zm-29.5 0h-29.25v8.48h29.25v-8.48zm73.76-8.75H388.2v8.49h29.25v-8.49zm-29.51 0H358.7v8.49h29.24v-8.49zm-29.5 0h-29.25v8.49h29.25v-8.49zm-29.51 0h-29.24v8.49h29.24v-8.49zm73.77-8.74h-29.25v8.49h29.25v-8.49zm-29.51 0H344v8.49h29.24v-8.49zm-29.5 0h-29.25v8.49h29.25v-8.49zm73.76-8.74H388.2v8.49h29.25v-8.49zm-29.51 0H358.7v8.49h29.24v-8.49zm-29.5 0h-29.25v8.49h29.25v-8.49zm-29.51 0h-29.24v8.49h29.24z" fill="#df9a97" fill-rule="evenodd"></path><path fill="#df9a97" d="M361.13 214.79h1.47v90.37h-1.47z"></path><path d="M362.6 305.17v-90.38h53.6a3.56 3.56 0 0 1 3.55 3.56v83.26a3.56 3.56 0 0 1-3.55 3.56z" fill="#e6e8f4" fill-rule="evenodd"></path><path class="cls-10" d="M362.6 214.79h16.39v90.37H362.6z"></path><path d="M391.82 214.79h6.41l-6.41 5.93v-5.93zm16.32 0l-16.32 15.08v11l27-24.91a3.56 3.56 0 0 0-2.59-1.13zM419.75 297v4.58a3.56 3.56 0 0 1-3.55 3.56H411z" fill="#f3f5fb" fill-rule="evenodd"></path><path fill="#c6c6e1" fill-rule="evenodd" d="M391.82 305.17v-90.38h5.51v11.28h22.42v4.49h-22.42V277.76h22.42v4.48h-22.42v22.93h-5.51z"></path><path class="cls-17" d="M390.19 305.17v-90.38h5.5v10.05h24.06v4.48h-24.06v47.21h24.06v4.48h-24.06v24.16h-5.5z"></path><path fill="#c6c6e1" d="M378.98 214.79h1.47v90.37h-1.47z"></path><path class="cls-11" d="M343.11 245.75c10.09-12.07-3-29.94-11.05-20.78-4 4.58-9.31 2.74-9.31 7.66 0 0-.74-.78-1.38-.55s.25 1.6.25 1.6-2.15 1.55-2.47 2.77 2.16 6.94 2 8.53l1.34-4.82 5.72-5 10.36-.65 4.5 4.94z"></path><path fill="#acabba" fill-rule="evenodd" d="M326.55 258.77l-1.79 1 1.75.87.04-1.87z"></path><path class="cls-12" d="M334.59 273.22s2 5 3.38 5.07c.51 0 4.81 6.79 9.13 5.46 1.18-.37 1.59-8.52 2.85-8.92 6.85-2.17 14.26-4.67 15.26-5.2 1.86-1 4.35-3.58 5.92-9.25s6.06-18.88 6.1-19.23-4.24-1.35-5-1.16c0 0-.27 0-.45.52s-10.71 18.64-11.35 19.92-20.29 2.58-21.72 3-8.33 3.24-4.12 9.79z"></path><path d="M333.37 260.1l7 5s5 19.52 5 20.4 1.92 11.65 1.92 11.65-.81 4.25-2.24 4.62c-2.1.53-5.15-2.92-5.74-4.51-1-2.66-12.2-21.73-12.75-24.73s.77-10.09 1.44-10.86 5.37-1.57 5.37-1.57z" fill="#dadcdc" fill-rule="evenodd"></path><path class="cls-28" d="M334.63 263.19l.88-2.16-.27-1.28v-3.88l-9.04-3.66v9.42l8.43 1.56z"></path><path class="cls-17" d="M326.21 259.14l-1 .44c-.17.08 8.62 3.11 9.45 3.6 0 0-1 .85-1.29 1.11s-2.84 5.73-3.2 6.23l-6.1-6.77s.38-4.07.47-4.25a7.64 7.64 0 0 1 1.7-.56z"></path><path class="cls-11" d="M339.72 263.27a5.26 5.26 0 0 0 2.28.46c2 0 5.38 8.57 6.52 12C352 286.15 350 301.19 350 304.3a2.91 2.91 0 0 0 .05.87H345c.32-4.58-1.5-6-1.5-6l-.12-14.44-2-16.93z"></path><path class="cls-11" d="M322.61 265.56s-8.78 4.66-9.07 5.15 4.24 25.55 6.75 34.46h26.64c0-.16-11.06-24.05-12-26.21.07.04-6.85-12.82-12.32-13.4z"></path><path class="cls-12" d="M337.79 262.2a14.84 14.84 0 0 1 2.52.64c.5.27 4.43 6.82 4.55 7.37a.36.36 0 0 1-.17.38 11.86 11.86 0 0 0-1.12.7c-.09.09 1.37.25 1.37.25s.16.06.14.32-1.46 27.48-1.46 27.48c-.59-6.18-.36-17.6-1.87-26-.83-4.6-4.62-9.42-4.34-10.12zM324.1 263.18c5.43 7.4 16.33 26.1 18.49 33.93-1.58-2.12-17-17-16.63-18.06.07-.19 3.64-4.25 3.64-4.25s-4.27.64-4.66.61-3.38-9-3.44-9.23a23.77 23.77 0 0 1 2.6-3z"></path><path class="cls-17" d="M335.24 259.75a17.4 17.4 0 0 1 1.7.69c.31.19 2.89 6.82 3.11 7.32s-4.23-4.16-4.48-4.27a1 1 0 0 0-.65.07l-.29-.38z"></path><path class="cls-28" d="M342.42 243.6a3.22 3.22 0 0 0-3 3.29 3 3 0 0 0 3.14 2.94 3.21 3.21 0 0 0 3-3.29 3 3 0 0 0-3.14-2.94zM321.4 244.8a3.22 3.22 0 0 0-3 3.29 3 3 0 0 0 3.15 2.94 3.22 3.22 0 0 0 3-3.29 3 3 0 0 0-3.15-2.94z"></path><path class="cls-29" d="M332.23 228.42A11.06 11.06 0 0 0 322 239.68l.24 9.69A10.2 10.2 0 0 0 333 259.43a11 11 0 0 0 10.25-11.26l-.12-4.84-.12-4.85a10.22 10.22 0 0 0-10.78-10.06z"></path><path class="cls-52" d="M328 229.6a11.14 11.14 0 0 0-6 10.07l.24 9.69A10.21 10.21 0 0 0 333 259.43a10.35 10.35 0 0 0 3.75-.93c-10.28.67-11.59-6.35-11.73-12.29-.22-8.76 9.29-6.15 17-6.59.35 0 .68 0 1-.08v-1.06a10.4 10.4 0 0 0-.43-2.75c-4.22-2.41-10.05-5.52-12.77-5.92l-1.74-.26h-.07c.04.05.04.06-.01.05z"></path><path class="cls-11" d="M323.23 242.69a3.66 3.66 0 0 0 2.4-3.53c.93 1.51 3.28 1.71 2-.63 11 1.69 15.37-4.23 15.37 3.27.65-5.14.61-14.43-6.11-15.35-3.15-.43-10.26 2.82-10.8 3-1.25.52-5.26 7.7-5.26 7.7z"></path><path class="cls-11" d="M323.36 239.69l.56 2.73V244c0 .58-.25 1.5-.77 1.64v1.13c0 .45-.16 1.32-1 1.32l-.05-2s-.06-1.32-1-1.25l-.78-6.61h3.15z"></path><path class="cls-12" d="M314 270.32a13.39 13.39 0 0 0-1.78 3.24c-.47 1.48-4.73 21.57-5.67 31.61h10.55c1.19-8.34 6-24.62 6.05-26.28s-.92-11.38-9.15-8.57z"></path><path class="cls-11" d="M323.27 236.44a.19.19 0 0 0 .25.08.2.2 0 0 0 .08-.26s-1.93-3.42.28-8.12a.2.2 0 0 0-.09-.25.19.19 0 0 0-.25.09c-2.29 4.88-.28 8.45-.27 8.46zM344.83 242.21a.19.19 0 0 1-.25-.28s3-2.57 2.48-7.74a.19.19 0 1 1 .38 0c.5 5.33-2.6 8.01-2.61 8.02zM343.24 248.17a9.16 9.16 0 0 1 .33 1.43 65.14 65.14 0 0 1-.69 7.17c-.34 1.62-3.67 4.7-9.08 4.37s-9.28-3.95-10.18-5.71a14.58 14.58 0 0 1-1.43-7.3l1-1.23v2.32a9.4 9.4 0 0 0 2.36 3.34c.7.41 4.2-3.16 6.47-3.16h7c.57 0 1.53 1.1 1.81 1.54s2.46-.22 2.44-2.77zm-5.71 3h-3.59a2 2 0 0 0-2 2 2 2 0 0 0 2 2h3.59a2 2 0 0 0 2-2 2 2 0 0 0-2-2.04z"></path><path class="cls-12" d="M300.94 213.24H416.2a5.06 5.06 0 0 1 3.61 1.5.47.47 0 0 1 .1.1 5.1 5.1 0 0 1 1.4 3.51v83.26a5.08 5.08 0 0 1-1.5 3.61 5.1 5.1 0 0 1-3.61 1.5H300.94a5.14 5.14 0 0 1-3.61-1.5 5.1 5.1 0 0 1-1.5-3.61v-83.26a5.14 5.14 0 0 1 1.5-3.61 5.13 5.13 0 0 1 3.61-1.49zm115.26 3.11H300.94a2 2 0 0 0-1.41.59 2 2 0 0 0-.58 1.41v83.26a2 2 0 0 0 .58 1.41 2 2 0 0 0 1.41.58H416.2a2 2 0 0 0 1.41-.59 2 2 0 0 0 .58-1.41v-83.25a2 2 0 0 0-.52-1.35l-.06-.06a2 2 0 0 0-1.41-.59z"></path><rect class="cls-21" x="199.66" y="319.4" width="281.38" height="8.25" rx="1.62"></rect><path class="cls-14" d="M490.12 326.67a3.14 3.14 0 1 0-3.14-3.14 3.15 3.15 0 0 0 3.14 3.14z"></path><path class="cls-18" d="M502.23 326.67a3.14 3.14 0 1 0-3.14-3.14 3.14 3.14 0 0 0 3.14 3.14z"></path><path class="cls-22" d="M514.34 326.67a3.14 3.14 0 1 0-3.14-3.14 3.15 3.15 0 0 0 3.14 3.14z"></path><path class="cls-53" d="M346.81 190.56v8.16h-1.59v-11.27h2.22l1.82 6.75v-6.75h1.58v11.27H349zM353.88 192.2h2.43v1.61h-2.43v3.3h3.06v1.61h-4.83v-11.27h4.83v1.61h-3.06zM362 192.72l-.64 6h-2.43l-1.26-11.27h1.73l.95 8.89.85-8.89h1.71l.88 9 .92-9h1.55L365 198.72h-2.35zM366.88 190.16a3 3 0 0 1 .65-2.11 3 3 0 0 1 3.91 0 3 3 0 0 1 .65 2.11v.35h-1.67V190a1.25 1.25 0 0 0-.24-.86.86.86 0 0 0-.65-.25.87.87 0 0 0-.65.25 1.25 1.25 0 0 0-.23.86 2 2 0 0 0 .25 1 4.56 4.56 0 0 0 .65.83c.26.27.53.53.83.79a9.66 9.66 0 0 1 .83.86 4.53 4.53 0 0 1 .64 1.07 3.5 3.5 0 0 1 .26 1.4 3 3 0 0 1-.67 2.1 3 3 0 0 1-3.94 0 3 3 0 0 1-.67-2.1v-.7h1.67v.81a1.14 1.14 0 0 0 .25.85 1.06 1.06 0 0 0 1.34 0 1.18 1.18 0 0 0 .25-.85 2 2 0 0 0-.26-1 4.25 4.25 0 0 0-.64-.84c-.26-.26-.54-.53-.83-.79a6.75 6.75 0 0 1-.83-.86 4.37 4.37 0 0 1-.65-1.06 3.57 3.57 0 0 1-.25-1.35z"></path><path d="M286.41 264h-67.86a.92.92 0 0 0-.58.21l-.05.05a.9.9 0 0 0-.26.63v37a.88.88 0 0 0 .26.63.88.88 0 0 0 .63.26h67.86a.92.92 0 0 0 .63-.26.88.88 0 0 0 .26-.63v-37a.9.9 0 0 0-.26-.63.92.92 0 0 0-.63-.26z" fill="#faeae4" fill-rule="evenodd"></path><path class="cls-55" d="M221.36 266.4a.32.32 0 0 1 .32.33.32.32 0 0 1-.32.32.32.32 0 0 1-.33-.32.33.33 0 0 1 .33-.33z"></path><circle class="cls-56" cx="224.63" cy="266.73" r=".33"></circle><path class="cls-55" d="M227.91 266.4a.32.32 0 0 1 .32.33.32.32 0 0 1-.32.32.32.32 0 0 1-.33-.32.33.33 0 0 1 .33-.33z"></path><circle class="cls-56" cx="231.18" cy="266.73" r=".33"></circle><circle class="cls-56" cx="234.46" cy="266.73" r=".33"></circle><path class="cls-55" d="M237.74 266.4a.32.32 0 0 1 .32.33.32.32 0 0 1-.32.32.32.32 0 0 1-.33-.32.33.33 0 0 1 .33-.33z"></path><circle class="cls-56" cx="241.01" cy="266.73" r=".33"></circle><circle class="cls-56" cx="244.29" cy="266.73" r=".33"></circle><circle class="cls-56" cx="247.56" cy="266.73" r=".33"></circle><path class="cls-55" d="M250.84 266.4a.33.33 0 0 1 .33.33.33.33 0 0 1-.66 0 .33.33 0 0 1 .33-.33zM254.12 266.4a.32.32 0 0 1 .32.33.32.32 0 0 1-.32.32.32.32 0 0 1-.33-.32.33.33 0 0 1 .33-.33z"></path><circle class="cls-56" cx="257.39" cy="266.73" r=".33"></circle><path class="cls-55" d="M260.67 266.4a.33.33 0 0 1 .33.33.33.33 0 0 1-.66 0 .33.33 0 0 1 .33-.33z"></path><circle class="cls-56" cx="263.94" cy="266.73" r=".33"></circle><circle class="cls-56" cx="267.22" cy="266.73" r=".33"></circle><path class="cls-55" d="M270.5 266.4a.32.32 0 0 1 .32.33.32.32 0 0 1-.32.32.32.32 0 0 1-.33-.32.33.33 0 0 1 .33-.33zM273.77 266.4a.33.33 0 0 1 .33.33.32.32 0 0 1-.33.32.32.32 0 0 1-.32-.32.32.32 0 0 1 .32-.33zM277.05 266.4a.33.33 0 0 1 .33.33.33.33 0 0 1-.66 0 .33.33 0 0 1 .33-.33zM280.33 266.4a.32.32 0 0 1 .32.33.32.32 0 0 1-.32.32.32.32 0 0 1-.33-.32.33.33 0 0 1 .33-.33zM283.6 266.4a.33.33 0 0 1 .33.33.32.32 0 0 1-.33.32.32.32 0 0 1-.32-.32.32.32 0 0 1 .32-.33zM221.36 269.74a.33.33 0 0 1 0 .66.33.33 0 1 1 0-.66z"></path><circle class="cls-56" cx="224.63" cy="270.07" r=".33"></circle><path class="cls-55" d="M227.91 269.74a.33.33 0 0 1 0 .66.33.33 0 0 1 0-.66z"></path><circle class="cls-56" cx="231.18" cy="270.07" r=".33"></circle><circle class="cls-56" cx="234.46" cy="270.07" r=".33"></circle><path class="cls-55" d="M237.74 269.74a.33.33 0 0 1 0 .66.33.33 0 1 1 0-.66z"></path><circle class="cls-56" cx="241.01" cy="270.07" r=".33"></circle><circle class="cls-56" cx="244.29" cy="270.07" r=".33"></circle><circle class="cls-56" cx="247.56" cy="270.07" r=".33"></circle><path class="cls-55" d="M250.84 269.74a.33.33 0 1 1-.33.33.33.33 0 0 1 .33-.33zM254.12 269.74a.33.33 0 0 1 0 .66.33.33 0 1 1 0-.66z"></path><circle class="cls-56" cx="257.39" cy="270.07" r=".33"></circle><path class="cls-55" d="M260.67 269.74a.33.33 0 1 1-.33.33.33.33 0 0 1 .33-.33z"></path><circle class="cls-56" cx="263.94" cy="270.07" r=".33"></circle><circle class="cls-56" cx="267.22" cy="270.07" r=".33"></circle><path class="cls-55" d="M270.5 269.74a.33.33 0 0 1 0 .66.33.33 0 0 1 0-.66zM273.77 269.74a.33.33 0 0 1 0 .66.33.33 0 0 1 0-.66zM277.05 269.74a.33.33 0 1 1-.33.33.33.33 0 0 1 .33-.33zM280.33 269.74a.33.33 0 0 1 0 .66.33.33 0 0 1 0-.66zM283.6 269.74a.33.33 0 0 1 0 .66.33.33 0 0 1 0-.66zM221.36 273.09a.32.32 0 0 1 .32.32.32.32 0 0 1-.32.33.33.33 0 0 1-.33-.33.32.32 0 0 1 .33-.32z"></path><circle class="cls-56" cx="224.63" cy="273.41" r=".33"></circle><path class="cls-55" d="M227.91 273.09a.32.32 0 0 1 .32.32.32.32 0 0 1-.32.33.33.33 0 0 1-.33-.33.32.32 0 0 1 .33-.32z"></path><circle class="cls-56" cx="231.18" cy="273.41" r=".33"></circle><circle class="cls-56" cx="234.46" cy="273.41" r=".33"></circle><path class="cls-55" d="M237.74 273.09a.32.32 0 0 1 .32.32.32.32 0 0 1-.32.33.33.33 0 0 1-.33-.33.32.32 0 0 1 .33-.32z"></path><circle class="cls-56" cx="241.01" cy="273.41" r=".33"></circle><circle class="cls-56" cx="244.29" cy="273.41" r=".33"></circle><circle class="cls-56" cx="247.56" cy="273.41" r=".33"></circle><path class="cls-55" d="M250.84 273.09a.32.32 0 0 1 .33.32.33.33 0 0 1-.66 0 .32.32 0 0 1 .33-.32zM254.12 273.09a.32.32 0 0 1 .32.32.32.32 0 0 1-.32.33.33.33 0 0 1-.33-.33.32.32 0 0 1 .33-.32z"></path><circle class="cls-56" cx="257.39" cy="273.41" r=".33"></circle><path class="cls-55" d="M260.67 273.09a.32.32 0 0 1 .33.32.33.33 0 0 1-.66 0 .32.32 0 0 1 .33-.32z"></path><circle class="cls-56" cx="263.94" cy="273.41" r=".33"></circle><circle class="cls-56" cx="267.22" cy="273.41" r=".33"></circle><path class="cls-55" d="M270.5 273.09a.32.32 0 0 1 .32.32.32.32 0 0 1-.32.33.33.33 0 0 1-.33-.33.32.32 0 0 1 .33-.32zM273.77 273.09a.32.32 0 0 1 .33.32.33.33 0 0 1-.33.33.32.32 0 0 1-.32-.33.32.32 0 0 1 .32-.32zM277.05 273.09a.32.32 0 0 1 .33.32.33.33 0 0 1-.66 0 .32.32 0 0 1 .33-.32zM280.33 273.09a.32.32 0 0 1 .32.32.32.32 0 0 1-.32.33.33.33 0 0 1-.33-.33.32.32 0 0 1 .33-.32zM283.6 273.09a.32.32 0 0 1 .33.32.33.33 0 0 1-.33.33.32.32 0 0 1-.32-.33.32.32 0 0 1 .32-.32zM221.36 276.43a.32.32 0 0 1 .32.33.32.32 0 0 1-.32.32.32.32 0 0 1-.33-.32.33.33 0 0 1 .33-.33zM224.63 276.43a.33.33 0 0 1 .33.33.32.32 0 0 1-.33.32.32.32 0 0 1-.32-.32.32.32 0 0 1 .32-.33zM227.91 276.43a.32.32 0 0 1 .32.33.32.32 0 0 1-.32.32.32.32 0 0 1-.33-.32.33.33 0 0 1 .33-.33zM231.18 276.43a.33.33 0 0 1 .33.33.32.32 0 0 1-.33.32.32.32 0 0 1-.32-.32.32.32 0 0 1 .32-.33zM234.46 276.43a.33.33 0 0 1 .33.33.33.33 0 0 1-.66 0 .33.33 0 0 1 .33-.33zM237.74 276.43a.32.32 0 0 1 .32.33.32.32 0 0 1-.32.32.32.32 0 0 1-.33-.32.33.33 0 0 1 .33-.33zM241 276.43a.33.33 0 0 1 .33.33.32.32 0 0 1-.33.32.32.32 0 0 1-.32-.32.32.32 0 0 1 .32-.33zM244.29 276.43a.33.33 0 0 1 .33.33.33.33 0 0 1-.66 0 .33.33 0 0 1 .33-.33zM247.56 276.43a.33.33 0 0 1 .33.33.32.32 0 0 1-.33.32.32.32 0 0 1-.32-.32.32.32 0 0 1 .32-.33zM250.84 276.43a.33.33 0 0 1 .33.33.33.33 0 0 1-.66 0 .33.33 0 0 1 .33-.33zM254.12 276.43a.32.32 0 0 1 .32.33.32.32 0 0 1-.32.32.32.32 0 0 1-.33-.32.33.33 0 0 1 .33-.33zM257.39 276.43a.33.33 0 0 1 .33.33.32.32 0 0 1-.33.32.32.32 0 0 1-.32-.32.32.32 0 0 1 .32-.33zM260.67 276.43a.33.33 0 0 1 .33.33.33.33 0 0 1-.66 0 .33.33 0 0 1 .33-.33zM263.94 276.43a.33.33 0 0 1 .33.33.33.33 0 0 1-.65 0 .32.32 0 0 1 .32-.33zM267.22 276.43a.33.33 0 0 1 .33.33.32.32 0 0 1-.33.32.32.32 0 0 1-.32-.32.32.32 0 0 1 .32-.33zM270.5 276.43a.32.32 0 0 1 .32.33.32.32 0 0 1-.32.32.32.32 0 0 1-.33-.32.33.33 0 0 1 .33-.33zM273.77 276.43a.33.33 0 0 1 .33.33.32.32 0 0 1-.33.32.32.32 0 0 1-.32-.32.32.32 0 0 1 .32-.33zM277.05 276.43a.33.33 0 0 1 .33.33.33.33 0 0 1-.66 0 .33.33 0 0 1 .33-.33zM280.33 276.43a.32.32 0 0 1 .32.33.32.32 0 0 1-.32.32.32.32 0 0 1-.33-.32.33.33 0 0 1 .33-.33zM283.6 276.43a.33.33 0 0 1 .33.33.32.32 0 0 1-.33.32.32.32 0 0 1-.32-.32.32.32 0 0 1 .32-.33zM221.36 279.78a.32.32 0 0 1 .32.32.32.32 0 0 1-.32.33.33.33 0 0 1-.33-.33.32.32 0 0 1 .33-.32z"></path><circle class="cls-56" cx="224.63" cy="280.1" r=".33"></circle><path class="cls-55" d="M227.91 279.78a.32.32 0 0 1 .32.32.32.32 0 0 1-.32.33.33.33 0 0 1-.33-.33.32.32 0 0 1 .33-.32z"></path><circle class="cls-56" cx="231.18" cy="280.1" r=".33"></circle><circle class="cls-56" cx="234.46" cy="280.1" r=".33"></circle><path class="cls-55" d="M237.74 279.78a.32.32 0 0 1 .32.32.32.32 0 0 1-.32.33.33.33 0 0 1-.33-.33.32.32 0 0 1 .33-.32z"></path><circle class="cls-56" cx="241.01" cy="280.1" r=".33"></circle><circle class="cls-56" cx="244.29" cy="280.1" r=".33"></circle><circle class="cls-56" cx="247.56" cy="280.1" r=".33"></circle><path class="cls-55" d="M250.84 279.78a.32.32 0 0 1 .33.32.33.33 0 0 1-.66 0 .32.32 0 0 1 .33-.32zM254.12 279.78a.32.32 0 0 1 .32.32.32.32 0 0 1-.32.33.33.33 0 0 1-.33-.33.32.32 0 0 1 .33-.32z"></path><circle class="cls-56" cx="257.39" cy="280.1" r=".33"></circle><path class="cls-55" d="M260.67 279.78a.32.32 0 0 1 .33.32.33.33 0 0 1-.66 0 .32.32 0 0 1 .33-.32z"></path><circle class="cls-56" cx="263.94" cy="280.1" r=".33"></circle><circle class="cls-56" cx="267.22" cy="280.1" r=".33"></circle><path class="cls-55" d="M270.5 279.78a.32.32 0 0 1 .32.32.32.32 0 0 1-.32.33.33.33 0 0 1-.33-.33.32.32 0 0 1 .33-.32zM273.77 279.78a.32.32 0 0 1 .33.32.33.33 0 0 1-.33.33.32.32 0 0 1-.32-.33.32.32 0 0 1 .32-.32zM277.05 279.78a.32.32 0 0 1 .33.32.33.33 0 0 1-.66 0 .32.32 0 0 1 .33-.32zM280.33 279.78a.32.32 0 0 1 .32.32.32.32 0 0 1-.32.33.33.33 0 0 1-.33-.33.32.32 0 0 1 .33-.32zM283.6 279.78a.32.32 0 0 1 .33.32.33.33 0 0 1-.33.33.32.32 0 0 1-.32-.33.32.32 0 0 1 .32-.32zM221.36 283.12a.32.32 0 0 1 .32.33.32.32 0 0 1-.32.32.32.32 0 0 1-.33-.32.33.33 0 0 1 .33-.33z"></path><circle class="cls-56" cx="224.63" cy="283.45" r=".33"></circle><path class="cls-55" d="M227.91 283.12a.32.32 0 0 1 .32.33.32.32 0 0 1-.32.32.32.32 0 0 1-.33-.32.33.33 0 0 1 .33-.33z"></path><circle class="cls-56" cx="231.18" cy="283.45" r=".33"></circle><circle class="cls-56" cx="234.46" cy="283.45" r=".33"></circle><path class="cls-55" d="M237.74 283.12a.32.32 0 0 1 .32.33.32.32 0 0 1-.32.32.32.32 0 0 1-.33-.32.33.33 0 0 1 .33-.33z"></path><circle class="cls-56" cx="241.01" cy="283.45" r=".33"></circle><circle class="cls-56" cx="244.29" cy="283.45" r=".33"></circle><circle class="cls-56" cx="247.56" cy="283.45" r=".33"></circle><path class="cls-55" d="M250.84 283.12a.33.33 0 0 1 .33.33.33.33 0 0 1-.66 0 .33.33 0 0 1 .33-.33zM254.12 283.12a.32.32 0 0 1 .32.33.32.32 0 0 1-.32.32.32.32 0 0 1-.33-.32.33.33 0 0 1 .33-.33z"></path><circle class="cls-56" cx="257.39" cy="283.45" r=".33"></circle><path class="cls-55" d="M260.67 283.12a.33.33 0 0 1 .33.33.33.33 0 0 1-.66 0 .33.33 0 0 1 .33-.33z"></path><circle class="cls-56" cx="263.94" cy="283.45" r=".33"></circle><circle class="cls-56" cx="267.22" cy="283.45" r=".33"></circle><path class="cls-55" d="M270.5 283.12a.32.32 0 0 1 .32.33.32.32 0 0 1-.32.32.32.32 0 0 1-.33-.32.33.33 0 0 1 .33-.33zM273.77 283.12a.33.33 0 0 1 .33.33.32.32 0 0 1-.33.32.32.32 0 0 1-.32-.32.32.32 0 0 1 .32-.33zM277.05 283.12a.33.33 0 0 1 .33.33.33.33 0 0 1-.66 0 .33.33 0 0 1 .33-.33zM280.33 283.12a.32.32 0 0 1 .32.33.32.32 0 0 1-.32.32.32.32 0 0 1-.33-.32.33.33 0 0 1 .33-.33zM283.6 283.12a.33.33 0 0 1 .33.33.32.32 0 0 1-.33.32.32.32 0 0 1-.32-.32.32.32 0 0 1 .32-.33zM221.36 286.46a.33.33 0 0 1 0 .66.33.33 0 1 1 0-.66zM224.63 286.46a.33.33 0 1 1 0 .66.33.33 0 0 1 0-.66zM227.91 286.46a.33.33 0 0 1 0 .66.33.33 0 1 1 0-.66zM231.18 286.46a.33.33 0 1 1 0 .66.33.33 0 0 1 0-.66zM234.46 286.46a.33.33 0 1 1-.33.33.33.33 0 0 1 .33-.33zM237.74 286.46a.33.33 0 0 1 0 .66.33.33 0 1 1 0-.66zM241 286.46a.33.33 0 1 1 0 .66.33.33 0 0 1 0-.66zM244.29 286.46a.33.33 0 1 1-.33.33.33.33 0 0 1 .33-.33zM247.56 286.46a.33.33 0 1 1 0 .66.33.33 0 0 1 0-.66zM250.84 286.46a.33.33 0 1 1-.33.33.33.33 0 0 1 .33-.33zM254.12 286.46a.33.33 0 0 1 0 .66.33.33 0 1 1 0-.66zM257.39 286.46a.33.33 0 1 1 0 .66.33.33 0 0 1 0-.66zM260.67 286.46a.33.33 0 1 1-.33.33.33.33 0 0 1 .33-.33zM263.94 286.46a.33.33 0 1 1-.32.33.33.33 0 0 1 .32-.33zM267.22 286.46a.33.33 0 1 1 0 .66.33.33 0 0 1 0-.66zM270.5 286.46a.33.33 0 0 1 0 .66.33.33 0 1 1 0-.66zM273.77 286.46a.33.33 0 0 1 0 .66.33.33 0 0 1 0-.66zM277.05 286.46a.33.33 0 1 1-.33.33.33.33 0 0 1 .33-.33zM280.33 286.46a.33.33 0 0 1 0 .66.33.33 0 0 1 0-.66zM283.6 286.46a.33.33 0 1 1 0 .66.33.33 0 0 1 0-.66zM221.36 289.81a.32.32 0 0 1 .32.32.32.32 0 0 1-.32.33.33.33 0 0 1-.33-.33.32.32 0 0 1 .33-.32z"></path><circle class="cls-56" cx="224.63" cy="290.13" r=".33"></circle><path class="cls-55" d="M227.91 289.81a.32.32 0 0 1 .32.32.32.32 0 0 1-.32.33.33.33 0 0 1-.33-.33.32.32 0 0 1 .33-.32z"></path><circle class="cls-56" cx="231.18" cy="290.13" r=".33"></circle><circle class="cls-56" cx="234.46" cy="290.13" r=".33"></circle><path class="cls-55" d="M237.74 289.81a.32.32 0 0 1 .32.32.32.32 0 0 1-.32.33.33.33 0 0 1-.33-.33.32.32 0 0 1 .33-.32z"></path><circle class="cls-56" cx="241.01" cy="290.13" r=".33"></circle><circle class="cls-56" cx="244.29" cy="290.13" r=".33"></circle><circle class="cls-56" cx="247.56" cy="290.13" r=".33"></circle><path class="cls-55" d="M250.84 289.81a.32.32 0 0 1 .33.32.33.33 0 0 1-.66 0 .32.32 0 0 1 .33-.32zM254.12 289.81a.32.32 0 0 1 .32.32.32.32 0 0 1-.32.33.33.33 0 0 1-.33-.33.32.32 0 0 1 .33-.32z"></path><circle class="cls-56" cx="257.39" cy="290.13" r=".33"></circle><path class="cls-55" d="M260.67 289.81a.32.32 0 0 1 .33.32.33.33 0 0 1-.66 0 .32.32 0 0 1 .33-.32z"></path><circle class="cls-56" cx="263.94" cy="290.13" r=".33"></circle><circle class="cls-56" cx="267.22" cy="290.13" r=".33"></circle><path class="cls-55" d="M270.5 289.81a.32.32 0 0 1 .32.32.32.32 0 0 1-.32.33.33.33 0 0 1-.33-.33.32.32 0 0 1 .33-.32zM273.77 289.81a.32.32 0 0 1 .33.32.33.33 0 0 1-.33.33.32.32 0 0 1-.32-.33.32.32 0 0 1 .32-.32zM277.05 289.81a.32.32 0 0 1 .33.32.33.33 0 0 1-.66 0 .32.32 0 0 1 .33-.32zM280.33 289.81a.32.32 0 0 1 .32.32.32.32 0 0 1-.32.33.33.33 0 0 1-.33-.33.32.32 0 0 1 .33-.32zM283.6 289.81a.32.32 0 0 1 .33.32.33.33 0 0 1-.33.33.32.32 0 0 1-.32-.33.32.32 0 0 1 .32-.32zM221.36 293.15a.32.32 0 0 1 .32.33.32.32 0 0 1-.32.32.32.32 0 0 1-.33-.32.33.33 0 0 1 .33-.33zM224.63 293.15a.33.33 0 0 1 .33.33.32.32 0 0 1-.33.32.32.32 0 0 1-.32-.32.32.32 0 0 1 .32-.33zM227.91 293.15a.32.32 0 0 1 .32.33.32.32 0 0 1-.32.32.32.32 0 0 1-.33-.32.33.33 0 0 1 .33-.33zM231.18 293.15a.33.33 0 0 1 .33.33.32.32 0 0 1-.33.32.32.32 0 0 1-.32-.32.32.32 0 0 1 .32-.33zM234.46 293.15a.33.33 0 0 1 .33.33.33.33 0 0 1-.66 0 .33.33 0 0 1 .33-.33zM237.74 293.15a.32.32 0 0 1 .32.33.32.32 0 0 1-.32.32.32.32 0 0 1-.33-.32.33.33 0 0 1 .33-.33zM241 293.15a.33.33 0 0 1 .33.33.32.32 0 0 1-.33.32.32.32 0 0 1-.32-.32.32.32 0 0 1 .32-.33zM244.29 293.15a.33.33 0 0 1 .33.33.33.33 0 0 1-.66 0 .33.33 0 0 1 .33-.33zM247.56 293.15a.33.33 0 0 1 .33.33.32.32 0 0 1-.33.32.32.32 0 0 1-.32-.32.32.32 0 0 1 .32-.33zM250.84 293.15a.33.33 0 0 1 .33.33.33.33 0 0 1-.66 0 .33.33 0 0 1 .33-.33zM254.12 293.15a.32.32 0 0 1 .32.33.32.32 0 0 1-.32.32.32.32 0 0 1-.33-.32.33.33 0 0 1 .33-.33zM257.39 293.15a.33.33 0 0 1 .33.33.32.32 0 0 1-.33.32.32.32 0 0 1-.32-.32.32.32 0 0 1 .32-.33zM260.67 293.15a.33.33 0 0 1 .33.33.33.33 0 0 1-.66 0 .33.33 0 0 1 .33-.33zM263.94 293.15a.33.33 0 0 1 .33.33.33.33 0 0 1-.65 0 .32.32 0 0 1 .32-.33zM267.22 293.15a.33.33 0 0 1 .33.33.32.32 0 0 1-.33.32.32.32 0 0 1-.32-.32.32.32 0 0 1 .32-.33zM270.5 293.15a.32.32 0 0 1 .32.33.32.32 0 0 1-.32.32.32.32 0 0 1-.33-.32.33.33 0 0 1 .33-.33zM273.77 293.15a.33.33 0 0 1 .33.33.32.32 0 0 1-.33.32.32.32 0 0 1-.32-.32.32.32 0 0 1 .32-.33zM277.05 293.15a.33.33 0 0 1 .33.33.33.33 0 0 1-.66 0 .33.33 0 0 1 .33-.33zM280.33 293.15a.32.32 0 0 1 .32.33.32.32 0 0 1-.32.32.32.32 0 0 1-.33-.32.33.33 0 0 1 .33-.33zM283.6 293.15a.33.33 0 0 1 .33.33.32.32 0 0 1-.33.32.32.32 0 0 1-.32-.32.32.32 0 0 1 .32-.33zM221.36 296.5a.32.32 0 0 1 .32.32.32.32 0 0 1-.32.33.33.33 0 0 1-.33-.33.32.32 0 0 1 .33-.32z"></path><circle class="cls-56" cx="224.63" cy="296.82" r=".33"></circle><path class="cls-55" d="M227.91 296.5a.32.32 0 0 1 .32.32.32.32 0 0 1-.32.33.33.33 0 0 1-.33-.33.32.32 0 0 1 .33-.32z"></path><circle class="cls-56" cx="231.18" cy="296.82" r=".33"></circle><circle class="cls-56" cx="234.46" cy="296.82" r=".33"></circle><path class="cls-55" d="M237.74 296.5a.32.32 0 0 1 .32.32.32.32 0 0 1-.32.33.33.33 0 0 1-.33-.33.32.32 0 0 1 .33-.32z"></path><circle class="cls-56" cx="241.01" cy="296.82" r=".33"></circle><circle class="cls-56" cx="244.29" cy="296.82" r=".33"></circle><circle class="cls-56" cx="247.56" cy="296.82" r=".33"></circle><path class="cls-55" d="M250.84 296.5a.32.32 0 0 1 .33.32.33.33 0 0 1-.66 0 .32.32 0 0 1 .33-.32zM254.12 296.5a.32.32 0 0 1 .32.32.32.32 0 0 1-.32.33.33.33 0 0 1-.33-.33.32.32 0 0 1 .33-.32z"></path><circle class="cls-56" cx="257.39" cy="296.82" r=".33"></circle><path class="cls-55" d="M260.67 296.5a.32.32 0 0 1 .33.32.33.33 0 0 1-.66 0 .32.32 0 0 1 .33-.32z"></path><circle class="cls-56" cx="263.94" cy="296.82" r=".33"></circle><circle class="cls-56" cx="267.22" cy="296.82" r=".33"></circle><path class="cls-55" d="M270.5 296.5a.32.32 0 0 1 .32.32.32.32 0 0 1-.32.33.33.33 0 0 1-.33-.33.32.32 0 0 1 .33-.32zM273.77 296.5a.32.32 0 0 1 .33.32.33.33 0 0 1-.33.33.32.32 0 0 1-.32-.33.32.32 0 0 1 .32-.32zM277.05 296.5a.32.32 0 0 1 .33.32.33.33 0 0 1-.66 0 .32.32 0 0 1 .33-.32zM280.33 296.5a.32.32 0 0 1 .32.32.32.32 0 0 1-.32.33.33.33 0 0 1-.33-.33.32.32 0 0 1 .33-.32zM283.6 296.5a.32.32 0 0 1 .33.32.33.33 0 0 1-.33.33.32.32 0 0 1-.32-.33.32.32 0 0 1 .32-.32zM221.36 299.84a.32.32 0 0 1 .32.32.32.32 0 0 1-.32.33.33.33 0 0 1-.33-.33.33.33 0 0 1 .33-.32zM224.63 299.84a.33.33 0 0 1 .33.32.33.33 0 0 1-.33.33.32.32 0 0 1-.32-.33.32.32 0 0 1 .32-.32zM227.91 299.84a.32.32 0 0 1 .32.32.32.32 0 0 1-.32.33.33.33 0 0 1-.33-.33.33.33 0 0 1 .33-.32zM231.18 299.84a.33.33 0 0 1 .33.32.33.33 0 0 1-.33.33.32.32 0 0 1-.32-.33.32.32 0 0 1 .32-.32zM234.46 299.84a.33.33 0 0 1 .33.32.33.33 0 0 1-.66 0 .33.33 0 0 1 .33-.32zM237.74 299.84a.32.32 0 0 1 .32.32.32.32 0 0 1-.32.33.33.33 0 0 1-.33-.33.33.33 0 0 1 .33-.32zM241 299.84a.33.33 0 0 1 .33.32.33.33 0 0 1-.33.33.32.32 0 0 1-.32-.33.32.32 0 0 1 .32-.32zM244.29 299.84a.33.33 0 0 1 .33.32.33.33 0 0 1-.66 0 .33.33 0 0 1 .33-.32zM247.56 299.84a.33.33 0 0 1 .33.32.33.33 0 0 1-.33.33.32.32 0 0 1-.32-.33.32.32 0 0 1 .32-.32zM250.84 299.84a.33.33 0 0 1 .33.32.33.33 0 0 1-.66 0 .33.33 0 0 1 .33-.32zM254.12 299.84a.32.32 0 0 1 .32.32.32.32 0 0 1-.32.33.33.33 0 0 1-.33-.33.33.33 0 0 1 .33-.32zM257.39 299.84a.33.33 0 0 1 .33.32.33.33 0 0 1-.33.33.32.32 0 0 1-.32-.33.32.32 0 0 1 .32-.32zM260.67 299.84a.33.33 0 0 1 .33.32.33.33 0 0 1-.66 0 .33.33 0 0 1 .33-.32zM263.94 299.84a.32.32 0 0 1 .33.32.33.33 0 1 1-.33-.32zM267.22 299.84a.33.33 0 0 1 .33.32.33.33 0 0 1-.33.33.32.32 0 0 1-.32-.33.32.32 0 0 1 .32-.32zM270.5 299.84a.32.32 0 0 1 .32.32.32.32 0 0 1-.32.33.33.33 0 0 1-.33-.33.33.33 0 0 1 .33-.32zM273.77 299.84a.33.33 0 0 1 .33.32.33.33 0 0 1-.33.33.32.32 0 0 1-.32-.33.32.32 0 0 1 .32-.32zM277.05 299.84a.33.33 0 0 1 .33.32.33.33 0 0 1-.66 0 .33.33 0 0 1 .33-.32zM280.33 299.84a.32.32 0 0 1 .32.32.32.32 0 0 1-.32.33.33.33 0 0 1-.33-.33.33.33 0 0 1 .33-.32zM283.6 299.84a.33.33 0 0 1 .33.32.33.33 0 0 1-.33.33.32.32 0 0 1-.32-.33.32.32 0 0 1 .32-.32z"></path><path class="cls-57" d="M500.44 264h-67.86a.87.87 0 0 0-.57.21l-.05.05a.9.9 0 0 0-.26.63v37a.88.88 0 0 0 .25.63.88.88 0 0 0 .62.26h67.86a.88.88 0 0 0 .63-.26.88.88 0 0 0 .26-.63v-37a.9.9 0 0 0-.26-.63.88.88 0 0 0-.62-.26z"></path><path class="cls-57" d="M498.86 264h-.11v.21H486V264h-.12v.21H473V264h-.11v.21h-12.78V264H460v.21h-12.81V264h-.11v.21h-12.81V264h-.11v.21H432l-.05.05-.06.06h8.72v3.72h-8.91v.11h2.46v3.72h-2.46v.13h8.92v3.71h-8.92v.12h2.46v3.71h-2.46v.11h8.92v3.72h-8.92v.11h2.46v3.72h-2.46v.11h8.92V291h-8.92v.12h2.46v3.71h-2.46v.17h8.92v3.72h-8.92v.11h2.46v3.72h-2.26l.05.06.05.05h8.61v.21h.11v-.21h12.81v.21h.11v-.21h12.81v.21h.11v-.21h12.8v.21h.12v-.21h12.8v.21h.11v-.21H501l.06-.05.06-.06h-2.27v-3.72h2.47v-.11h-8.92V295h8.93v-.11h-2.47v-3.71h2.47V291h-8.93v-3.71h8.93v-.11h-2.47v-3.68h2.47v-.11h-8.93v-3.72h8.93v-.11h-2.47v-3.71h2.47v-.12h-8.93V272h8.93v-.11h-2.47v-3.72h2.47v-.11h-8.93v-3.72h8.72l-.05-.06-.06-.05h-2.15V264zm-.11 34.77v3.72H486v-3.72h12.8zm-12.92 0v3.72H473v-3.72h12.8zm-12.91 0v3.72h-12.81v-3.72h12.81zm-12.92 0v3.72h-12.81v-3.72H460zm-12.92 0v3.72h-12.81v-3.72h12.81zm45.21-3.77v3.72h-12.8V295h12.8zm-12.92 0v3.72h-12.8V295h12.8zm-12.91 0v3.72h-12.81V295h12.81zm-12.92 0v3.72h-12.81V295h12.81zm45.21-3.82v3.71H486v-3.71h12.8zm-12.92 0v3.71H473v-3.71h12.8zm-12.91 0v3.71h-12.81v-3.71h12.81zm-12.92 0v3.71h-12.81v-3.71H460zm-12.92 0v3.71h-12.81v-3.71h12.81zm45.21-3.83V291h-12.8v-3.71h12.8zm-12.92 0V291h-12.8v-3.71h12.8zm-12.91 0V291h-12.81v-3.71h12.81zm-12.92 0V291h-12.81v-3.71h12.81zm45.21-3.83v3.72H486v-3.74h12.8zm-12.92 0v3.72H473v-3.74h12.8zm-12.91 0v3.72h-12.81v-3.74h12.81zm-12.92 0v3.72h-12.81v-3.74H460zm-12.92 0v3.72h-12.81v-3.74h12.81zm45.21-3.83v3.72h-12.8v-3.72h12.8zm-12.92 0v3.72h-12.8v-3.72h12.8zm-12.91 0v3.72h-12.81v-3.72h12.81zm-12.92 0v3.72h-12.81v-3.72h12.81zm45.21-3.82v3.71H486v-3.71h12.8zm-12.92 0v3.71H473v-3.71h12.8zm-12.91 0v3.71h-12.81v-3.71h12.81zm-12.92 0v3.71h-12.81v-3.71H460zm-12.92 0v3.71h-12.81v-3.71h12.81zm45.21-3.87v3.71h-12.8V272h12.8zm-12.92 0v3.71h-12.8V272h12.8zm-12.91 0v3.71h-12.81V272h12.81zm-12.92 0v3.71h-12.81V272h12.81zm45.21-3.83v3.72H486v-3.72h12.8zm-12.92 0v3.72H473v-3.72h12.8zm-12.91 0v3.72h-12.81v-3.72h12.81zm-12.92 0v3.72h-12.81v-3.72H460zm-12.92 0v3.72h-12.81v-3.72h12.81zm45.21-3.83v3.72h-12.8v-3.72h12.8zm-12.92 0v3.72h-12.8v-3.72h12.8zm-12.91 0v3.72h-12.81v-3.72h12.81zm-12.92 0v3.72h-12.81v-3.72h12.81z"></path><path class="cls-13" d="M437.52 280v-3.34H449V280zm11.62 0v-3.34h11.51V280zm5.7-3.44h-11.51v-3.34h11.51v3.34zm.1 0v-3.34h11.52v3.34zm17.33-3.44h-11.52v-3.34h11.52v3.34zm.1 0v-3.34h11.52v3.34zm5.71-3.45h-11.52v-3.34h11.52v3.34zm.1 0v-3.34h11.52v3.34zm17.33-3.44H484V264h-.1v2.14h-11.53V264h-.1v2.14h-11.52V264h-.1v2.14h-11.51V264H449v2.14h-11.48V264h-.11v2.14h-5.71v3.55h5.71v3.34h-5.71v3.54h5.71V280h-5.71v3.55h5.71v3.34h-5.71v3.54h5.71v3.34h-5.71v3.55h5.71v3.34h-5.71v.1h11.51v2.14h.11v-2.14h11.51v2.14h.1v-2.14h11.52v2.14h.1v-2.14h11.52v2.14h.1v-2.14h11.53v2.14h.1v-2.14h11.52v-.1h-5.72v-3.34h5.72v-3.55h-5.72v-3.34h5.72v-3.54h-5.72v-3.39h5.72V280h-5.72v-3.34h5.72v-3.54h-5.72v-3.34h5.72v-3.55h-5.72V264h-.1v2.14zm-63.8 13.87h11.51v3.34h-11.51v-3.34zm11.62 3.34v-3.34h11.51v3.34zm-5.81.11H449v3.34h-11.48v-3.39zm11.62 3.34v-3.39h11.51v3.34zm5.8.1h11.52v3.34h-11.52v-3.34zm11.62 3.34v-3.34h11.52v3.34zm-5.81.1h11.52v3.34h-11.52v-3.34zm11.62 3.34v-3.34h11.52v3.34zm5.81.1h11.52v3.35h-11.52v-3.35zm11.62 3.35v-3.35h11.52v3.35zm-5.81.1h11.52v3.34H484v-3.34zm-40.66-10.33h11.51v3.34h-11.51v-3.34zm23.23 6.88h11.52v3.35h-11.52v-3.35zm5.81 3.45h11.52v3.34h-11.52v-3.34zm-23.23-6.89h11.51v3.34h-11.51v-3.34zm5.8 3.44h11.52v3.35h-11.52v-3.35zm5.81 3.45h11.52v3.34h-11.52v-3.34zm-23.23-6.89H449v3.34h-11.48v-3.34zm5.81 3.44h11.51v3.35h-11.51v-3.35zm5.81 3.45h11.51v3.34h-11.51v-3.34zm-17.43-10.33h11.51v3.34h-11.51v-3.34zm0 6.88h11.51v3.35h-11.51v-3.35zm5.81 3.45H449v3.34h-11.48v-3.34zm17.42-13.88v-3.34h11.52v3.34zm5.81 3.45v-3.39h11.52v3.34zm11.62 0v-3.39h11.52v3.34zm5.81 3.44v-3.34h11.52v3.34zm11.62 0v-3.34h11.52v3.34zm-5.81.1h11.52v3.34H484v-3.34zm-17.43-7v-3.34h11.52v3.34zm11.62 0v-3.34h11.52v3.34zm5.81.11h11.52v3.34H484v-3.38zm5.81-3.45h11.52v3.34H489.8v-3.34zm-29.05-.1v-3.34h11.52V280zm11.62 0v-3.34h11.52V280zM484 280v-3.34h11.52V280zm-5.91-3.44h-11.53v-3.34h11.52v3.34zm.1 0v-3.34h11.51v3.34zm11.62 0v-3.34h11.52v3.34zm-46.58 0h-11.52v-3.34h11.51v3.34zm40.77-3.49v-3.34h11.52v3.34zm-23.34 0h-11.52v-3.34h11.51v3.34zm-11.62 0h-11.52v-3.34H449v3.34zm40.77-3.45v-3.34h11.52v3.34zm-23.34 0h-11.53v-3.34h11.52v3.34zm-11.62 0h-11.52v-3.34h11.51v3.34zm-11.62 0h-11.52v-3.34h11.51z"></path><path class="cls-29" d="M473 293.9l-1.43 1.17-2.89 7.78h5.42c1.23-2.87 2.56-5.91 2.56-5.91z"></path><path class="cls-11" d="M470.66 280.12a19.56 19.56 0 0 1-.81 7.25 1 1 0 0 0 .19 1.26c.59.53 4.23 2.76 10 2.76s10.74-5.4 10.8-6-2.42-4.71-2.78-8.43z"></path><path class="cls-58" d="M479.26 288.29l-1.23-1s-2.5.35-4.79 4.14c0 0-1.56 2.68-1.71 2.87a1 1 0 0 0-.12.57s2.24 3 4.7 2.94 3.15-9.52 3.15-9.52z"></path><path d="M476.54 288.15a7.45 7.45 0 0 0-1.35 3c-.45 2 .48 8.34.48 9.2a6.49 6.49 0 0 0 1.26 2.46h15.49V291a10.27 10.27 0 0 0-8.11-4s-6.06-.73-7.77 1.15z" fill="#f1be44" fill-rule="evenodd"></path><path d="M496.24 302.85l-.17-1.06-1.07-7.29-4.37 2.91s-.2.85-.56 2.8a5.09 5.09 0 0 1-1.55 2.64z" fill="#e8a644" fill-rule="evenodd"></path><path class="cls-28" d="M483.26 285.64v3a2.65 2.65 0 0 1-2.69 2.8h-.44a2.65 2.65 0 0 1-2.69-2.8v-3a3.45 3.45 0 0 1 5.82 0zM473.32 281a1.92 1.92 0 1 1-1.88 2 1.92 1.92 0 0 1 1.88-2zM486.77 280.78h.14a1.92 1.92 0 1 1-1.6.38c-.05.57 0 1.27.76 1.34v-1.1a.67.67 0 0 1 .7-.62z"></path><path class="cls-29" d="M479.28 271.19a6.59 6.59 0 0 1 6.7 6.45l.11 6a6.59 6.59 0 0 1-6.45 6.7 6.59 6.59 0 0 1-6.7-6.45l-.11-6a6.59 6.59 0 0 1 6.45-6.7z"></path><path class="cls-52" d="M479.28 271.19a6.59 6.59 0 0 1 6.7 6.45l.11 6a6.59 6.59 0 0 1-6.45 6.7h-.4c4.23-.26 4.86-4.24 5-6.82a10.69 10.69 0 0 0-2-6.21c-.77-1-2.54-.4-3.44.84a10.52 10.52 0 0 1-2.83 2.35l-1 .06-.77-2.74s1.74-3.91 2.91-6.23a6.62 6.62 0 0 1 2.17-.4z"></path><path class="cls-11" d="M486.08 280.41h-.64s-.6 2 .63 2.07v-1.1a.66.66 0 0 1 0-.21z"></path><path class="cls-17" d="M479.81 285.53a1.7 1.7 0 1 1-3.4.14.31.31 0 0 1 .28-.31l2.81-.11a.31.31 0 0 1 .31.28z"></path><path class="cls-11" d="M480.58 273l.49 1s1.39-.59 1.81 1.32 1.27 7.08 5.49 5.51c0 0 .13-6.36-2-8.18s-5.79.35-5.79.35z"></path><path d="M483.27 277c.6 2.22 1.85 5 5.1 3.8v-1.3c-3.54 1.6-5.09-2.44-5.1-2.5z" fill="#1d1819" fill-rule="evenodd"></path><path class="cls-11" d="M483.27 277c.6 2.22 1.85 5 5.1 3.8v-1.3c-3.54 1.6-5.09-2.44-5.1-2.5z"></path><path class="cls-12" d="M483.28 273.79a.21.21 0 0 1-.16 0c-1.6-.45-2.58 1.05-3.72 2.82s-2.48 3.82-4.8 4.52a3.54 3.54 0 0 1-.62.3c-3.89 1.52-7.15-3.46-4.38-8.06 3-4.92 11.54-7.77 14.17-1.8a2 2 0 0 1-.45 2.19zm-2.59.45c-2 1.18-3.11 4.15-4.94 6a11.81 11.81 0 0 0 3.31-3.77 13.78 13.78 0 0 1 1.63-2.23z"></path><path class="cls-11" d="M483.28 273.79a.21.21 0 0 1-.16 0c-1.6-.45-2.58 1.05-3.72 2.82s-2.48 3.82-4.8 4.52a3.54 3.54 0 0 1-.62.3c-2.7 1.05-5.1-1-5.39-3.94 0 .14.58 2.48 2.56 2.75s4.87-2.14 6.25-4.62 3.25-3.24 4.44-3.22 1.92-.76 1.13-2.17a6 6 0 0 1 .8 1.34 2 2 0 0 1-.45 2.19zm-2.59.45c-2 1.18-3.11 4.15-4.94 6a11.81 11.81 0 0 0 3.31-3.77 13.78 13.78 0 0 1 1.63-2.23z"></path><path class="cls-29" d="M495.22 296.7l2.36 1.65 2 4.5H492c-.81-1.28-1.47-2.25-1.47-2.25z"></path><path class="cls-58" d="M486.71 287.18s3.35.2 6.94 4.27a64.91 64.91 0 0 1 3.83 5.71 2.44 2.44 0 0 1 .1 1.19 6.28 6.28 0 0 0-6.09 3.63 1.55 1.55 0 0 1-.62 0c-.17-.07-4.91-5.91-5.53-6.73s-3.22-6.17 1.37-8.07z"></path><path class="cls-9" d="M434 261.72h65a4 4 0 0 1 4 4v35.48a4 4 0 0 1-1.16 2.8 4 4 0 0 1-2.81 1.17H434a4 4 0 0 1-2.8-1.17 4 4 0 0 1-1.2-2.8v-35.51a4 4 0 0 1 1.17-2.8.52.52 0 0 1 .11-.1 4 4 0 0 1 2.69-1.07zm65 3.12h-65a.88.88 0 0 0-.55.2h-.05a.88.88 0 0 0-.25.6v35.56a.86.86 0 0 0 .25.6.82.82 0 0 0 .6.25h65a.86.86 0 0 0 .6-.25.86.86 0 0 0 .24-.6v-35.51a.84.84 0 0 0-.25-.6.86.86 0 0 0-.59-.25z"></path><path class="cls-12" d="M414.6 251.15a.65.65 0 0 0 0-1.3h-20.78a.65.65 0 1 0 0 1.3zM414.41 255.18a.65.65 0 1 0 0-1.29h-8a.65.65 0 0 0 0 1.29zM414.6 259.5a.65.65 0 1 0 0-1.3h-8.31a.65.65 0 1 0 0 1.3zM414.6 263.29a.65.65 0 1 0 0-1.29H398a.65.65 0 1 0 0 1.29zM415.07 267.33c.1 0 .18-.29.18-.65s-.08-.65-.18-.65h-7.45c-.1 0-.18.29-.18.65s.08.65.18.65zM414.6 271.66a.65.65 0 0 0 0-1.3h-26.71a.65.65 0 0 0 0 1.3z"></path><path class="cls-27" d="M244 299.8l-1.69-1.65a3.76 3.76 0 0 0-.52.4 16.53 16.53 0 0 0 2.21 1.25z"></path><path class="cls-27" d="M244 299.8l-1.69-1.65a3.76 3.76 0 0 0-.52.4 16.53 16.53 0 0 0 2.21 1.25zM259 299.8l1.69-1.65a4.25 4.25 0 0 1 .51.4 17.06 17.06 0 0 1-2.2 1.25z"></path><path class="cls-27" d="M259 299.8l1.69-1.65a4.25 4.25 0 0 1 .51.4 17.06 17.06 0 0 1-2.2 1.25z"></path><path class="cls-18" d="M257.34 296.82h.13a17.43 17.43 0 0 1 3.18 1.29c.12.07 4.79 3.62 5 3.84-2.78 1.84-10.66 1.19-14.24 1.19s-10.92.65-13.69-1.19c.2-.22 4.41-3.77 4.53-3.84a16.88 16.88 0 0 1 3.18-1.29h.14a16.68 16.68 0 0 1 2.41-.3l3.42.49h.08l3.42-.49a16.84 16.84 0 0 1 2.41.3z"></path><path class="cls-28" d="M254.26 289l-.09 1.93v4.53a1.62 1.62 0 0 0 .75 1.07c-2.47 2.68-4.45 2.68-6.92 0a1.64 1.64 0 0 0 .74-1.07v-4.53l-.08-1.93s1.38.25 2.8.6c1.42-.35 2.8-.6 2.8-.6z"></path><path class="cls-12" d="M242.55 278.19a4.24 4.24 0 0 0-.42 1.65c0 .8 1.68 1.13 2.26 1.13s16 .57 16 .57a.58.58 0 0 0 .48-.55c0-.47-2.65-6.25-2.65-6.25z"></path><path class="cls-28" d="M243 283.1a2.46 2.46 0 1 1-2.46 2.46 2.46 2.46 0 0 1 2.46-2.46zM259.94 283.1a2.46 2.46 0 1 1-2.46 2.46 2.46 2.46 0 0 1 2.46-2.46z"></path><path class="cls-29" d="M251.52 270a8.47 8.47 0 0 1 8.43 8.44v7.66a8.46 8.46 0 0 1-8.43 8.43 8.46 8.46 0 0 1-8.44-8.43v-7.66a8.47 8.47 0 0 1 8.44-8.44z"></path><path class="cls-12" d="M259 278.35V281a36.64 36.64 0 0 0 .85 4.69s.12-2.27.57-2.51l1.32-6.59a10.87 10.87 0 0 1-2.8 1.17 2.74 2.74 0 0 1 .06.59zM244.65 277.87v1.9a1.53 1.53 0 0 1-.68 1.38s-.48 3.37-.89 3.54l-1.48-7.09c.26.3 2.63-.33 3.09-.16a1.91 1.91 0 0 0-.04.43z"></path><path class="cls-12" d="M260.9 281a6.77 6.77 0 0 0-1.92-1.58l-.23-.13a5 5 0 0 1-2-2c-.7.49-3.58.41-4.67.37h-.37c-4.82-.19-9.49 1-9.51 2.19-4.17-8.77 6.26-17.22 15.55-7.63 4.84.22 4.4 5.26 3.15 8.78z"></path><path class="cls-17" d="M419.74 187.35a.2.2 0 0 1 0-.4h4.42a.2.2 0 0 1 0 .4zm0 2.9a.2.2 0 0 1-.2-.2.21.21 0 0 1 .2-.21h4.42a.21.21 0 0 1 .2.21.2.2 0 0 1-.2.2zm0-1.45a.2.2 0 1 1 0-.4h4.42a.2.2 0 0 1 0 .4zM495.91 187.33zm-5.3.23h2.59v2.08h-2.59a.21.21 0 0 1-.21-.21v-1.67a.18.18 0 0 1 .06-.14.2.2 0 0 1 .15-.06zm4.87-.41h-4.87a.61.61 0 0 0-.62.61v1.67a.6.6 0 0 0 .18.43.63.63 0 0 0 .44.18h4.87a.63.63 0 0 0 .42-.16.6.6 0 0 0 .18-.43v-1.67a.62.62 0 0 0-.18-.43.6.6 0 0 0-.42-.2z"></path><path class="cls-9" d="M220 261.72h65a4 4 0 0 1 4 4v35.48a4 4 0 0 1-1.17 2.8 4 4 0 0 1-2.81 1.17H220a4 4 0 0 1-2.8-1.17 3.94 3.94 0 0 1-1.2-2.8v-35.51a4 4 0 0 1 1.16-2.8l.12-.1a4 4 0 0 1 2.69-1.07zm65 3.12h-65a.86.86 0 0 0-.55.2h-.05a.84.84 0 0 0-.25.6v35.56a.86.86 0 0 0 .24.6.81.81 0 0 0 .6.25H285a.88.88 0 0 0 .6-.25.82.82 0 0 0 .25-.6v-35.51a.85.85 0 0 0-.85-.85z"></path><path class="cls-18" d="M288.49 258.47h-19.61a2.6 2.6 0 0 0-2.59 2.59v18.27a.29.29 0 0 0 .18.27.3.3 0 0 0 .32-.07l4.41-4.41h17.29a2.6 2.6 0 0 0 2.59-2.59v-11.47a2.6 2.6 0 0 0-2.59-2.59z"></path><path class="cls-17" d="M284.88 268a1.53 1.53 0 1 0-1.53-1.52 1.53 1.53 0 0 0 1.53 1.52zM278.69 268a1.53 1.53 0 1 0-1.53-1.52 1.53 1.53 0 0 0 1.53 1.52zM272.5 268a1.53 1.53 0 1 0-1.53-1.52 1.53 1.53 0 0 0 1.53 1.52z"></path><path class="cls-13" d="M442.09 270.75h18.47a3.28 3.28 0 0 1 3.26 3.26v16.09a.71.71 0 0 1-.44.65.69.69 0 0 1-.4 0 .74.74 0 0 1-.36-.19l-4.79-4.8h-15.74a3.24 3.24 0 0 1-3.26-3.26V274a3.23 3.23 0 0 1 .95-2.3 3.28 3.28 0 0 1 2.31-.95z"></path><path class="cls-25" d="M441.6 270.06h18.48a3.28 3.28 0 0 1 3.26 3.26v16.09a.75.75 0 0 1-.12.39.68.68 0 0 1-.32.26.62.62 0 0 1-.4 0 .63.63 0 0 1-.36-.19l-4.8-4.79H441.6a3.26 3.26 0 0 1-3.25-3.26v-8.54a3.26 3.26 0 0 1 3.25-3.26zm18.48.76H441.6a2.51 2.51 0 0 0-2.49 2.5v8.54a2.49 2.49 0 0 0 2.49 2.49h16.06l4.91 4.92v-15.95a2.51 2.51 0 0 0-2.49-2.5z"></path><path class="cls-25" d="M441.45 273.25a.22.22 0 0 1-.21-.21.21.21 0 0 1 .21-.21h18.78a.21.21 0 0 1 .21.21.21.21 0 0 1-.21.21zM441.45 275.27a.21.21 0 1 1 0-.41h2a.21.21 0 0 1 .21.21.2.2 0 0 1-.21.2zm4.64 0a.2.2 0 0 1-.21-.2.21.21 0 0 1 .21-.21h14.14a.21.21 0 0 1 .21.21.2.2 0 0 1-.21.2zM441.45 277.3a.21.21 0 1 1 0-.41h18.78a.21.21 0 0 1 .21.21.2.2 0 0 1-.21.2zM446.67 280.06a.21.21 0 0 1-.2-.21.2.2 0 0 1 .2-.21h13.56a.21.21 0 0 1 .21.21.21.21 0 0 1-.21.21zM452.73 282.26a.21.21 0 0 1-.21-.21.21.21 0 0 1 .21-.21h7.5a.21.21 0 0 1 .21.21.21.21 0 0 1-.21.21zM448.43 282.26a.21.21 0 0 1-.21-.21.21.21 0 0 1 .21-.21h2.68a.21.21 0 0 1 .21.21.21.21 0 0 1-.21.21z"></path><path class="cls-18" d="M411.27 224.54h-22.59a4 4 0 0 0-4 4v19.67a.87.87 0 0 0 .14.48.94.94 0 0 0 .39.32.92.92 0 0 0 .49 0 .91.91 0 0 0 .44-.24l5.86-5.86h19.25a4 4 0 0 0 4-4v-10.39a4 4 0 0 0-4-4z"></path><path class="cls-17" d="M411.46 228.43a.26.26 0 0 0 .25-.26.25.25 0 0 0-.25-.25h-23a.26.26 0 0 0-.26.25.26.26 0 0 0 .26.26zM411.46 230.91a.26.26 0 0 0 .25-.26.25.25 0 0 0-.25-.25H409a.25.25 0 0 0-.25.25.26.26 0 0 0 .25.26zm-5.67 0a.26.26 0 0 0 .25-.26.25.25 0 0 0-.25-.25H388.5a.26.26 0 0 0-.26.25.26.26 0 0 0 .26.26zM411.46 233.39a.26.26 0 0 0 0-.51h-23a.26.26 0 1 0 0 .51zM405.07 236.75a.25.25 0 0 0 .25-.25.26.26 0 0 0-.25-.26H388.5a.26.26 0 0 0-.26.26.26.26 0 0 0 .26.25zM397.67 239.44a.25.25 0 0 0 0-.5h-9.17a.25.25 0 1 0 0 .5zM402.93 239.44a.25.25 0 0 0 0-.5h-3.28a.25.25 0 1 0 0 .5z"></path><path class="cls-12" d="M414.6 279.7a.65.65 0 1 0 0-1.29h-20.78a.65.65 0 1 0 0 1.29zM414.41 283.74a.65.65 0 0 0 0-1.3h-8a.65.65 0 0 0 0 1.3zM414.6 288.05a.65.65 0 0 0 0-1.3h-8.31a.65.65 0 0 0 0 1.3zM414.6 291.85a.65.65 0 0 0 0-1.3H398a.66.66 0 0 0-.65.65.66.66 0 0 0 .65.65zM415.07 295.88c.1 0 .18-.29.18-.65s-.08-.65-.18-.65h-7.45c-.1 0-.18.29-.18.65s.08.65.18.65zM414.6 300.21a.65.65 0 0 0 0-1.3h-26.71a.65.65 0 0 0 0 1.3z"></path><path class="cls-29" d="M369.86 237.75a23 23 0 0 0-2.13-5.43c-.48-.48 2-2 2.89.38 0 0 1.16 1.56 1.61 1.3s1.33-6.3 1.4-7.06 1.11-.81 1.34-.6 0 1.18 0 2.58a9 9 0 0 0 0 2.39c.33.39 2-4.74 2.59-5.07.38-.21 1.56.3 1.5 1s-1.91 4.89-2 5.5.29.27.57-.06 2.76-4.49 3.1-4.7 1.43.42 1.18 1.14-2.62 4.89-2.6 5.24.26.31 1-.24 2.3-1.68 2.74-1.57.67.86 0 1.56-2.32 2.51-2.53 2.81c-1.11 1.57-1.68 3.3-2.71 4.41a3.73 3.73 0 0 1-1.4.91c-3.36 1.25-5.93-1.24-6.55-4.49z"></path><path class="cls-52" d="M378.05 241.06l-.24.27a3.51 3.51 0 0 1-1.27.85l-.13.06a4.37 4.37 0 0 1-5.27-1.54 6.92 6.92 0 0 1-1.28-2.95v-.11a6.53 6.53 0 0 0 8.19 3.42z"></path><path d="M555.68 300.48c10.23-5.44 12.83 6.39 8.85 16.18s-24.38 42.74-25.44 55.8c-.42 5.07-1.36 4.51-2.17 1-4.03-17.75 4.69-65.46 18.76-72.98z" fill="#304b3f" fill-rule="evenodd"></path><path class="cls-15" d="M534 255.61c-11.73-10.56-19.06 4.22-17 18.48s18.13 64.53 15.23 82.15c-1.12 6.83.31 6.41 2.55 2 11.22-22.1 15.39-88.1-.78-102.63z"></path><path class="cls-4" d="M532 361.13c.25.66.8.33 1.55-.76 12.22-40.71-6.82-101.54-6.88-101.73a.62.62 0 0 0-.79-.42.63.63 0 0 0-.42.79c.05.2 19.35 61.86 6.54 102.12z"></path><path class="cls-5" d="M508.42 289.43c-11.37-4.94-13.15 7.89-8.09 18s29.57 43.55 31.79 57.4c.86 5.37 1.83 4.7 2.39.84 2.82-19.22-10.45-69.43-26.09-76.24z"></path><path class="cls-6" d="M533.16 368.55c.35.42.68 0 1-1-1-33.36-30.35-73.94-30.45-74.07a.5.5 0 0 0-.81.59c.1.17 29.79 41.29 30.26 74.48z"></path><path class="cls-17" d="M524.42 361.16h21.83l5.7 5.14-4.66 17.94h-23.92l-4.65-17.94 5.7-5.14z"></path><rect class="cls-10" x="516.91" y="354.48" width="36.84" height="11.82" rx="1.81"></rect><path fill="#c8c3d0" fill-rule="evenodd" d="M551.95 366.3l-.96 3.69h-31.32l-.95-3.69h33.23z"></path><path class="cls-18" d="M334 266.78l1.18 1.05.07.76v.26l.67 7.15.13 1.34v.25l.25 2.68.15 1.59.34 1.17 1.39 3.05.12.26 3.89 8.48.12.26 1.12 2.44v-.63c0-.58-.07-1.18-.1-1.81a2.26 2.26 0 0 0 0-.26c-.11-2.56-.2-5.48-.34-8.48v-.26c-.05-1.07-.11-2.15-.18-3.23l-.06-1-1.75-4.26-.1-.25-2.33-5.63-1.19-2.86-.1-.26-.53-1.26.68-2.08-.85-.86c-1.28-1.27-1.94-1.41-3.19-.1-.07.08-.34.6-.7 1.31z"></path></svg> 