<?xml version="1.0" encoding="UTF-8"?> <svg xmlns="http://www.w3.org/2000/svg" viewBox="0 0 570 440"><defs><style>.cls-10,.cls-11,.cls-12,.cls-14,.cls-15,.cls-16,.cls-2,.cls-20,.cls-23,.cls-27,.cls-28,.cls-29,.cls-3,.cls-31,.cls-32,.cls-33,.cls-4,.cls-5,.cls-6,.cls-7,.cls-8,.cls-9{fill-rule:evenodd}.cls-2{fill:#b1bede}.cls-3{fill:#bfcbe5}.cls-4{fill:#9eafd4}.cls-5{fill:#0a0c0d}.cls-6{fill:#e1e0e7}.cls-7{fill:#d7588e}.cls-8{fill:#20242f}.cls-9{fill:#d96d62}.cls-10,.cls-26{fill:#fff}.cls-11{fill:#4c77a8}.cls-12{fill:#3f455c}.cls-14{fill:#e9ab89}.cls-15{fill:#e29076}.cls-16{fill:#101113}.cls-20,.cls-36{fill:#e6e4eb}.cls-22{fill:#384966}.cls-23{fill:#212c39}.cls-29{fill:#41455d}.cls-27{fill:#af5574}.cls-28{fill:#c8c3d0}.cls-30,.cls-31{fill:#f4f4f7}.cls-32{fill:#ebeaee}.cls-33{fill:#c5c1cd}</style></defs><g id="Слой_2" data-name="Слой 2"><path d="M162.76 383.16h373.13a24.38 24.38 0 0 0 24.31-24.31 24.38 24.38 0 0 0-24.31-24.31h-10.1a79.08 79.08 0 0 1-78.85-78.84 79.07 79.07 0 0 0-78.84-78.84h-64.87a9.3 9.3 0 0 1-9.27-9.28 9.3 9.3 0 0 1 9.27-9.28h41.3a13 13 0 0 0 12.93-12.94 13 13 0 0 0-12.93-12.93H292.7a26.21 26.21 0 0 1-26.13-26.13 26.19 26.19 0 0 0-26.12-26.12H99.65a26.67 26.67 0 0 0-26.59 26.59 26.67 26.67 0 0 0 26.59 26.6h39.91a15.12 15.12 0 0 1 15 15.08 15.12 15.12 0 0 1-15 15.08h.07a29.91 29.91 0 0 0-29.82 29.82A29.89 29.89 0 0 1 80 223.16a80.24 80.24 0 0 0-80 80 80.24 80.24 0 0 0 80 80zM32.7 133.37a26.68 26.68 0 0 1-26.6-26.6 26.68 26.68 0 0 1 26.6-26.59 26.67 26.67 0 0 1 26.59 26.59 26.68 26.68 0 0 1-26.59 26.6z" fill-rule="evenodd" fill="#e1e7f4"></path><path class="cls-2" d="M441.61 227.27c-.92-2.35-1.95-4.66-3.08-6.9h-71.07c-.61 0-.84.5-.51 1.11l2.49 4.68a2.19 2.19 0 0 0 1.7 1.11zM444.56 236.51c-.59-2.34-1.29-4.65-2.09-6.9h-75c-.61 0-.84.5-.51 1.11l2.49 4.68a2.19 2.19 0 0 0 1.7 1.11zM446.31 245.75q-.45-3.51-1.2-6.9h-77.65c-.61 0-.84.5-.51 1.11l2.49 4.68a2.19 2.19 0 0 0 1.7 1.11zM446.93 255q0-3.48-.36-6.89h-79.11c-.61 0-.84.49-.51 1.1l2.49 4.68a2.19 2.19 0 0 0 1.7 1.11zM447.41 264.22q-.37-3.41-.45-6.9h-79.5c-.61 0-.84.5-.51 1.11l2.49 4.68a2.19 2.19 0 0 0 1.7 1.11z"></path><path class="cls-2" d="M380.22 222.9a.7.7 0 0 0-1.4 0v60.35a.7.7 0 1 0 1.4 0z"></path><path class="cls-2" d="M376.73 299.38a2.79 2.79 0 1 0 5.58 0v-16.13a2.79 2.79 0 0 0-5.58 0zM240.2 91.44h-89.94c-.63 0-.87.52-.54 1.15l2.59 4.86a2.27 2.27 0 0 0 1.76 1.15H244c.63 0 .88-.52.54-1.15L242 92.59a2.27 2.27 0 0 0-1.8-1.15zM240.2 101h-89.94c-.63 0-.87.52-.54 1.15l2.59 4.86a2.27 2.27 0 0 0 1.76 1.15H244c.63 0 .88-.52.54-1.15l-2.54-4.84a2.27 2.27 0 0 0-1.8-1.17z"></path><path class="cls-2" d="M163.49 94.06a.73.73 0 0 0-.73-.72.72.72 0 0 0-.72.72v62.6a.72.72 0 0 0 .72.72.73.73 0 0 0 .73-.72z"></path><path class="cls-2" d="M159.86 173.39a2.9 2.9 0 0 0 5.8 0v-16.73a2.9 2.9 0 1 0-5.8 0zM87 222.33a29.77 29.77 0 0 1-7 .83 79.45 79.45 0 0 0-29.75 5.77h40.37a2.07 2.07 0 0 0 1.63-1.06l2.39-4.48c.31-.58.09-1.06-.5-1.06zM45.21 231.18a80.14 80.14 0 0 0-11.21 6.6h56.62a2.07 2.07 0 0 0 1.63-1.06l2.39-4.48c.31-.59.09-1.06-.5-1.06zM31 240a82.5 82.5 0 0 0-7.49 6.61h67.11a2.09 2.09 0 0 0 1.63-1.06l2.39-4.49c.31-.58.09-1.06-.5-1.06zM21.38 248.87a79.39 79.39 0 0 0-5.51 6.61h74.75a2.08 2.08 0 0 0 1.63-1.07l2.39-4.48c.31-.58.09-1.06-.5-1.06zM14.26 257.72a82.921 82.921 0 0 0-4.13 6.6h80.49a2.09 2.09 0 0 0 1.63-1.06l2.39-4.48c.31-.59.09-1.06-.5-1.06z"></path><path class="cls-2" d="M81.93 225.63c0-.86.3-1.55.67-1.55s.67.69.67 1.55V360c0 .86-.3 1.55-.67 1.55s-.67-.69-.67-1.55z"></path><path class="cls-2" d="M85.28 377a2.68 2.68 0 1 1-5.35 0v-15.43a2.68 2.68 0 0 1 5.35 0zM11.1 266.56h83c.59 0 .81.48.5 1.07l-2.39 4.48a2.09 2.09 0 0 1-1.63 1.06h-83c-.58 0-.81-.48-.49-1.06l2.39-4.48a2.08 2.08 0 0 1 1.62-1.07zM11.1 275.41h83c.59 0 .81.48.5 1.06L92.25 281a2.08 2.08 0 0 1-1.63 1h-83c-.58 0-.81-.48-.49-1.07l2.39-4.48a2.09 2.09 0 0 1 1.58-1.04zM11.1 284.26h83c.59 0 .81.47.5 1.06l-2.39 4.48a2.09 2.09 0 0 1-1.63 1.06h-83c-.58 0-.81-.48-.49-1.06l2.39-4.48a2.07 2.07 0 0 1 1.62-1.06zM11.1 293.1h83c.59 0 .81.48.5 1.06l-2.39 4.49a2.09 2.09 0 0 1-1.63 1.06h-83c-.58 0-.81-.48-.49-1.06l2.39-4.49a2.09 2.09 0 0 1 1.62-1.06zM11.1 302h83c.59 0 .81.48.5 1.06l-2.39 4.48a2.07 2.07 0 0 1-1.63 1.06h-83c-.58 0-.81-.47-.49-1.06L9.48 303a2.09 2.09 0 0 1 1.62-1zM11.1 310.8h83c.59 0 .81.47.5 1.06l-2.39 4.48a2.09 2.09 0 0 1-1.63 1.06h-83c-.58 0-.81-.48-.49-1.06l2.39-4.48a2.07 2.07 0 0 1 1.62-1.06zM11.1 319.64h83c.59 0 .81.48.5 1.06l-2.39 4.49a2.09 2.09 0 0 1-1.63 1.06h-83c-.58 0-.81-.48-.49-1.06l2.39-4.49a2.09 2.09 0 0 1 1.62-1.06zM11.1 328.49h83c.59 0 .81.48.5 1.06L92.25 334a2.07 2.07 0 0 1-1.63 1.06h-83c-.58 0-.81-.47-.49-1.06l2.39-4.48a2.09 2.09 0 0 1 1.58-1.03z"></path><path class="cls-3" d="M110 123a9.41 9.41 0 0 1-4 4.77 12.33 12.33 0 0 1-3 1.37.89.89 0 0 1-1.09-.6 1 1 0 0 1 0-.34 11.61 11.61 0 0 0 0-2.7 8.39 8.39 0 0 0-.31-1.49 17 17 0 1 1 8.48-1z"></path><path class="cls-4" d="M413 300.72h29.21a2.77 2.77 0 0 1 1.75.63.89.89 0 0 1 .34.27.78.78 0 0 1 .12.22 2.76 2.76 0 0 1 .55 1.64v17.17a2.75 2.75 0 0 1-.81 1.94 2.75 2.75 0 0 1-1.95.81H413a2.77 2.77 0 0 1-2.76-2.76v-17.16a2.77 2.77 0 0 1 .55-1.65.88.88 0 0 1 .12-.21.89.89 0 0 1 .34-.27 2.77 2.77 0 0 1 1.75-.63z"></path><path class="cls-5" d="M186.61 267.05c6.57 3.55 10.22 7.74 14.7 13.81 10 13.51 13.88 23.86 25.25 36.06 4.19 4.49 24.82-30.83 27.21-35.48.46-.91 2.47-5.28 4.18-3.9.8.64 3.58 3.46 5.35 4.37s3.94.44 4.36 3.06c-4.69 17.43-25.53 73-50.28 54.74-17.55-13-30.65-32.95-32.89-35.84-8.12-10.51-2.83-21.05-6.46-28.53l-.24-.51-.08-.17-.15-.32-.14-.3-.08-.18-.06-.12a17.47 17.47 0 0 1-1.62-4.88l3.41 3.79z"></path><path class="cls-6" d="M116.87 281l11.5-14.54 2.55-2.18 25.56-9.62 11.82 1.85s11.8 5.74 12.8 5.69a1.7 1.7 0 0 0 .5-.19l7 20.07s4.24 29.07 4.84 31.05 1.08 29.87-1.12 33.87-.33 10.21-8.8 12.82-26.57 7.64-38.72-5.21-14.69-20-17.73-24.32-10.2-49.29-10.2-49.29z"></path><path class="cls-7" d="M165.16 272.88l.71 1.23s10.13 30.64 9.71 55.2-12.8 3.57-12.59 1.47 2.41-42.08.26-56.51c0 0 .16-1.94 1.91-1.39z"></path><path class="cls-5" d="M170.77 257.84s9.83 23.45 6.12 50.32a240.84 240.84 0 0 1-11.51 47.43l-1.89 23.55h33.95c.24-9.5.58-17.51 1.07-22.92 2.67-29.8 10.9-93.22-27.74-98.38z"></path><path class="cls-8" d="M170.77 257.84s9.83 23.45 6.12 50.32a242.72 242.72 0 0 1-5.1 26.13l.89 4.14C180 321.29 191.27 278 191 277.84s-7-.66-7-.66c1.59-1.56 3.56-2.35 3.15-3.12s-9.82-12.81-11.7-15.23a32.28 32.28 0 0 0-4.68-.99z"></path><path class="cls-5" d="M175.4 379.14c-.34-6.21-.65-10.7-.83-12.72-3.8-43.54-1.9-72.69-31.15-107.11-6.84 1.31-19.17 7.74-19.17 7.74-5.42 2.83-10.59 7.38-11.49 13.65-1.27 8.9 8.41 39.74 14.37 59.06 2.57 8.32 2.89 22.58 2.05 39.38z"></path><path class="cls-9" d="M147.08 230.49l.3 7v16.47c0 1-1 2.57-2.71 3.88 2.58 2.8 8.92 9.28 12.9 9.9 5.09.78 11-1.47 12.44-2.73 1-.88 1.13-5.44 1.73-8-.48-.13.06 0-.41-.15a7.57 7.57 0 0 1-3.19-1.83c-2.38-2.6-2.27-14.22.11-17.26s-21.17-7.28-21.17-7.28z"></path><path class="cls-6" d="M166.16 264.51l-2.88-1.51s-.25 3.18-.59 3.29-.8-2-2-2.76-4.57 3.78-4.57 3.78 1.24 3.54 3 3.81 7.16.85 7.22-.75-.18-5.86-.18-5.86z"></path><path class="cls-7" d="M162.46 268.34a11.21 11.21 0 0 1-4.68-1.55 2.87 2.87 0 0 0-3.69.34l2 2.33.16 1s3.05-.54 5 .87 1.21-2.99 1.21-2.99z"></path><path class="cls-10" d="M146 254.48s3.62 6.5 13.23 8.18c1.31.28 3.79 2.69 2 2.36s-5.67 7.19-6.19 10-12.04-11.88-12.8-16.5c0 0 1.9-3.52 3.76-4.04z"></path><path class="cls-7" d="M166.48 268.52a4.16 4.16 0 0 0-2-.86c-.89 0-2.52 0-3.2.6a6.29 6.29 0 0 0-1.55 2.44c0 .45 2.68 3.15 3.52 3.57s1.73-.26 2.62-.16 1.13-4.65.61-5.59z"></path><path class="cls-10" d="M167.68 254.34s.77 5.75-3.78 7.8a1 1 0 0 0-.23 1.77c1 1.14 2.52 5.62 3 7.64s6.07-8.19 5.68-14.47c-.02 0-3.14-2.33-4.67-2.74z"></path><path class="cls-5" d="M124.26 267.05c-6.58 3.55-10.23 7.74-14.71 13.81-10 13.51-13.88 23.86-25.25 36.06-4.18 4.49-24.82-30.83-27.2-35.48-.47-.91-2.48-5.28-4.19-3.9-.8.64-3.58 3.46-5.35 4.37s-3.94.44-4.36 3.06c4.69 17.43 25.53 73 50.28 54.74 17.56-13 30.65-32.95 32.89-35.84 8.12-10.51 2.83-21.05 6.46-28.53l.24-.51.08-.17.15-.32.13-.3.08-.18.06-.12a17.47 17.47 0 0 0 1.62-4.88l-3.41 3.79z"></path><path class="cls-11" d="M187.91 219.83a1.33 1.33 0 0 0 2.65 0V184a17.7 17.7 0 0 0-6.35-13.69c-3.45-2.84-8.6-4.91-16.14-5.12-8.78-.23-18.24.44-25.55 3.47-7.6 3.15-12.9 8.77-12.9 18.38v30.46a1.33 1.33 0 0 0 2.65 0V187c0-8.31 4.63-13.19 11.26-15.94 6.92-2.87 16-3.5 24.47-3.27 6.87.18 11.5 2 14.54 4.52a15 15 0 0 1 5.37 11.69z"></path><path class="cls-12" d="M196.49 223.78h-1.06a2.66 2.66 0 0 0-2.66 2.65 2.66 2.66 0 0 0 2.66 2.66h1.06a2.67 2.67 0 0 0 2.66-2.66 2.66 2.66 0 0 0-2.66-2.65z"></path><path class="cls-11" d="M185.4 237a10.62 10.62 0 0 0 10.6-10.57 10.61 10.61 0 0 0-10.58-10.58z"></path><rect x="183.51" y="213.54" width="3.77" height="25.78" rx="1.89" fill="#20242f"></rect><path class="cls-14" d="M162.4 179.65a25.65 25.65 0 0 0-26.6 24.5l-1 23.22A25.65 25.65 0 0 0 159.35 254 25.64 25.64 0 0 0 186 229.47l1-23.22a25.65 25.65 0 0 0-24.6-26.6z"></path><path class="cls-15" d="M158.8 179.76a25.67 25.67 0 0 0-23 24.39l-1 23.22A25.65 25.65 0 0 0 159.35 254a25.26 25.26 0 0 0 2.89 0c-18-.2-18.65-20.85-18.65-29.56s10.38-18.68 14.87-18.89 12.3 5.56 12.3 5.56 9-11.44 8.87-10.61c-1.97-2.04-12.25-13.67-20.83-20.74z"></path><path class="cls-10" d="M155.53 232.05a8.13 8.13 0 1 0 16.25.67 1.41 1.41 0 0 0-1.35-1.46l-13.43-.55a1.41 1.41 0 0 0-1.46 1.34z"></path><path class="cls-8" d="M133.86 188.13s-12 3.57-1.84 28.23c2.49.1 3.2 2 3.13 3.61l-.13 3.18c3.91-1.56 3.42-5.71 2.92-7.73a22.76 22.76 0 0 0 17-18.68s.1-1.14 1.53-.22c1.23.79 13.36 16.68 24.59 21 10.26 4 20.47-9.07 18.53-20.31-6.54-37.6-64.66-35.15-65.73-9.08z"></path><path class="cls-16" d="M133.86 188.13s-12 3.57-1.84 28.23c2.49.1 3.2 2 3.13 3.61l-.13 3.18c3.91-1.56 3.42-5.71 2.92-7.73a22.76 22.76 0 0 0 17-18.68s.1-1.14 1.53-.22c1.23.79 13.36 16.68 24.59 21 9.52 3.67 19-7.26 18.76-17.84 0 .62-1.05 15-15.5 10.15-14.76-5-25.21-17.83-31.89-15.34s-22 3.63-17-12.72a16.17 16.17 0 0 0-1.57 6.36z"></path><path class="cls-11" d="M129.62 187.13v30.37a1.33 1.33 0 0 0 2.65 0v-30.37z"></path><path class="cls-12" d="M123.89 223.78H125a2.65 2.65 0 0 1 2.65 2.65 2.66 2.66 0 0 1-2.65 2.66h-1.07a2.66 2.66 0 0 1-2.65-2.66 2.65 2.65 0 0 1 2.61-2.65z"></path><path class="cls-11" d="M135 237a10.62 10.62 0 0 1-10.58-10.59A10.61 10.61 0 0 1 135 215.85z"></path><path class="cls-8" d="M135 213.54a1.89 1.89 0 0 1 1.88 1.89v22a1.88 1.88 0 0 1-1.88 1.88 1.89 1.89 0 0 1-1.89-1.88v-22a1.89 1.89 0 0 1 1.89-1.89zM173.32 350.39c-2.57-35.05-4.38-61.06-29.9-91.08a39.26 39.26 0 0 0-6.1 1.85c.66 3.17 2.84 13.87 3 15.81a.93.93 0 0 0 .64.47c.48.12 7.11-1 7.11-1s-7.94 5.22-8.31 5.55S173 350.61 173 350.61z"></path><path class="cls-14" d="M57.23 275.64c.65-3.4 3.86-11 4.63-11.77 1-1.06-4.36-4.3-6.27.81 0 0-2.51 3.39-3.49 2.83s-2.88-13.68-3.05-15.31-2.4-1.77-2.9-1.31 0 2.57.09 5.59.25 4.89 0 5.19c-.72.85-4.33-10.27-5.62-11-.81-.45-3.37.64-3.23 2.17s4.14 10.59 4.28 11.92-.64.59-1.23-.13-6-9.73-6.72-10.18-3.1.91-2.56 2.46 5.67 10.6 5.63 11.36-.57.67-2.24-.52-5-3.64-6-3.41c-.62 0-1.44 1.87.05 3.4s5 5.44 5.5 6.08c2.39 3.41 3.62 7.16 5.85 9.56a7.92 7.92 0 0 0 3.05 2c7.32 2.71 12.89-2.71 14.23-9.74z"></path><path class="cls-15" d="M39.48 282.81c.16.2.33.39.5.58a7.77 7.77 0 0 0 2.77 1.86l.28.11A9.49 9.49 0 0 0 54.46 282a15.33 15.33 0 0 0 2.77-6.4c0-.08 0-.16.05-.25-3.18 7.02-10.55 9.72-17.8 7.46z"></path><path d="M260.39 224.79a7.32 7.32 0 0 0 4.55-5c.92-3.86 8.92-1.88 9.19-.74s1.16 2.67.93 4.71.81 2.67.81 2.67c-5.59 3.36-6.33.11-12.42 4.88-1.97 1.52-2.66-4.04-3.06-6.52z" fill="#dc8592" fill-rule="evenodd"></path><path class="cls-8" d="M289.86 260.82l-4.15-6s-25.78 8.47-39 3.77 16.92-25.3 19-27.64-1.91-3.66-3-5.42-1.32-4-2.57-3.72-32.51 21.79-33.73 41.54 48.67 22.51 53.55 19.92 9.9-22.45 9.9-22.45z"></path><path class="cls-5" d="M289.86 260.82l-4.15-6a126.12 126.12 0 0 1-13.43 3.43c-2.5 5.1-6.64 11.28-12.78 13.89-11.27 4.81-28.89 2-33-8.79-1.21 19.75 48.67 22.51 53.55 19.92s9.82-22.41 9.82-22.41zm-46.48-6c-1.07-6.65 12.15-17.32 13.7-22.78a8.48 8.48 0 0 0-1.55-7.17 36.07 36.07 0 0 1 4.69-3.13c1.25-.28 1.5 2 2.57 3.72s5.1 3.08 3 5.42c-1.79 1.96-22.67 16.37-22.41 23.97z"></path><path d="M259.7 220.84a25.3 25.3 0 0 0-2.74 1.83c-.62.57.94 3.9 2.51 6.71s3.26 4.26 3.75 4.41 1.88-1.13 1.88-1.13z" fill="#f2f0f0" fill-rule="evenodd"></path><path class="cls-8" d="M285 189.14c-.9.35-26.29 22-27.81 23.22s-1.21 2.31.58 5.61 5.51 10 6.38 12c.68 1.54 2.28 3.19 3.59 3.23.38 0 3 .46 3.27.17 1.35-1.29 24.2-22.53 24.62-23.11s1.45-2.2-.53-5.42-2.63-4.92-7.3-13.63c-.25-.47 1.58-1.66 1.05-1.91a6.39 6.39 0 0 0-3.85-.16z"></path><path class="cls-5" d="M287.92 189.33c-.89.36-26.29 22-27.81 23.23s-1.21 2.31.58 5.6 5.51 10 6.38 12 3.27 4.13 4.62 2.84 26.44-22 26.86-22.54 1.45-2.2-.53-5.43c-1.88-3.07-2.62-4.92-7.3-13.63-.55-1.06-1.46-2.6-2.8-2.07z"></path><path class="cls-5" d="M272 232.73c3-2.63 26.2-21.75 26.6-22.3s1.45-2.2-.53-5.43c-1.88-3.07-2.63-4.92-7.3-13.63a7.77 7.77 0 0 0-.82-1.3c-4.71 3.72-25.52 21.46-26.89 22.55s-1.21 2.31.58 5.61 5.51 10 6.38 12a6.82 6.82 0 0 0 1.98 2.5z"></path><path class="cls-8" d="M267.75 220.69a1.41 1.41 0 0 0-2.18-.38 2 2 0 0 0-.66 2.5 1.42 1.42 0 0 0 2.19.38 2 2 0 0 0 .65-2.5zM294.32 204.6c-.06-.07-2.08-3.94-2.16-4.09s-.05-.23.14-.38.57-.45.66-.55.31-.14.38 0 2.09 3.94 2.11 4a.29.29 0 0 1-.13.36c-.19.13-.28.22-.77.62-.05.07-.15.14-.23.04zM291.62 199.51c-.05-.07-.51-1-.59-1.13s0-.23.14-.38.57-.45.67-.55a.23.23 0 0 1 .38 0c.07.16.52 1 .54 1a.3.3 0 0 1-.14.36c-.19.13-.27.23-.76.63-.06.1-.15.17-.24.07z"></path><path class="cls-12" d="M286.08 194.53c-.69.28-19 15.9-20.2 16.84s-.93 1.78.45 4.33 4.26 7.71 4.93 9.24 2.53 3.2 3.57 2.2 19.14-15.86 19.46-16.3 1.12-1.7-.41-4.2-2-3.8-5.64-10.53c-.42-.79-1.13-1.99-2.16-1.58z"></path><path class="cls-10" d="M267 214.07a.06.06 0 0 1 0 .07.07.07 0 0 1-.08 0 .68.68 0 0 1 .16-.7.41.41 0 0 1 .31-.11.35.35 0 0 1 .29.17.88.88 0 0 1 0 .75.55.55 0 0 1 .56 0 .4.4 0 0 1 .18.6 1 1 0 0 1-.39.39.55.55 0 0 1-.48.08c-.18-.07-.26-.3-.11-.77a.83.83 0 0 1-.43.07.07.07 0 0 1-.06-.07.07.07 0 0 1 .07-.06.73.73 0 0 0 .48-.12v-.06a.84.84 0 0 0 .06-.73.29.29 0 0 0-.19-.11.35.35 0 0 0-.22.09.56.56 0 0 0-.11.57zm4.79 8.68a.06.06 0 0 1 0 .08.06.06 0 0 1-.09 0 1.06 1.06 0 0 1 0-1.13.74.74 0 0 1 .23-.2.56.56 0 0 1 .27-.08.46.46 0 0 1 .41.31l.11.31a3.3 3.3 0 0 0 .82 1.43 3 3 0 0 1 .07-.46 2.42 2.42 0 0 1 .22-.51c.05-.12.12-.27.22-.47a.31.31 0 0 1 .08-.11.19.19 0 0 1 .18 0 .47.47 0 0 1 .17.09 1.18 1.18 0 0 1 .23.32 1.23 1.23 0 0 1 .07.32 1.37 1.37 0 0 1-.22.74 1.08 1.08 0 0 1-.36.41h-.05a1.1 1.1 0 0 1-.49-.11v.42c0 .11-.16.22-.35.26a.82.82 0 0 1-.22 0 .63.63 0 0 1-.23-.08.69.69 0 0 1-.26-.73v-.29a2.83 2.83 0 0 1 0-.29.09.09 0 0 1 .07-.06.08.08 0 0 1 .06.08 2.64 2.64 0 0 0 0 .28v.29c0 .35.06.53.19.61a.64.64 0 0 0 .18.06.61.61 0 0 0 .19 0c.13 0 .24-.09.24-.15l.05-.48a3 3 0 0 1-.93-1.54l-.11-.3a.32.32 0 0 0-.29-.23.42.42 0 0 0-.21.06.75.75 0 0 0-.19.17 1 1 0 0 0 0 1zm1.88.77a1 1 0 0 0 .48.12 1 1 0 0 0 .31-.36 1.38 1.38 0 0 0 .2-.67.67.67 0 0 0-.06-.28.86.86 0 0 0-.2-.27l-.11-.07a.08.08 0 0 0-.08 0 .11.11 0 0 0 0 .05l-.22.47a2.28 2.28 0 0 0-.2.49 3.27 3.27 0 0 0-.07.51zm.07-.51h-.07a.06.06 0 0 0 .07 0zm-3.51-5.36a.07.07 0 0 1 .07.11l-.19.13c.13.2.35.51.54.77l.13.18.23-.29c0-.07.07-.09.16-.07.09-.24.18-.5.24-.72h.12a7.77 7.77 0 0 1-.26.77v.08a1.36 1.36 0 0 1-.3.55.44.44 0 0 1-.11-.12c-.23.28-.5.62-.62.75h-.05a.05.05 0 0 1-.07 0 3.71 3.71 0 0 0-.54-1l-.14-.23c-.08-.12.11-.33.34-.52l.23-.18a.4.4 0 0 1-.06-.11.06.06 0 0 1 0-.08.08.08 0 0 1 .09 0 .3.3 0 0 0 .05.08 2 2 0 0 1 .2-.14zm-.23.35l-.22.17c-.18.16-.34.32-.31.37s.08.14.14.22a4.84 4.84 0 0 1 .53 1c.1-.13.34-.46.56-.73l-.15-.2c-.19-.26-.41-.57-.55-.78zm1.14.63l-.25.32.08.09c0-.05.11-.23.2-.45zm-1.44-1.16s-.06 0-.06-.07 0-.06.07-.05a6.64 6.64 0 0 0 .71 0c.53 0 1.15-.06 1.19.07l-1.91.07zm.73 0h-.73a6.25 6.25 0 0 0 .73 0zm1.06 0a6.52 6.52 0 0 0-1.06 0h1.06zm0 0zm-.05.32a1 1 0 0 0 .05-.32l-.05.32zm-3.88-3.33c-.19.48-.14.69 0 .75a.5.5 0 0 0 .37-.08.92.92 0 0 0 .34-.34.28.28 0 0 0-.13-.42.49.49 0 0 0-.53.07z"></path><path class="cls-8" d="M348.1 260.15c-14.07-10.64-26.89-9-46.76-10.93-10.42.66-16.7 6.33-20.39 14.82v.13l-.08.19V264.53l-.1.27v.25l-.08.2v.26l-.11.26v.13l-.15.41v.13l-.12.35v.06c-.11.3-.21.6-.31.91v.06c-.05.16-.1.33-.16.49-6.43 15-17.17 21.13-3.13 40.16l.09.13v.44c1.36 32.9-1 46.85-2.69 74.05h70.22c-5.49-21-14.3-40.48-12.88-58.17 1.81-28.63 23.95-38.72 16.65-64.77z"></path><path class="cls-5" d="M313 250.1l-.53 4.52s27.58-.4 27.4 16.17-12.63 24.87-21.25 32.84c-9.44 5.51-46.16-1-46.89-2.71a.55.55 0 0 1 0 .36 46.2 46.2 0 0 0 4.5 7.26l.09.13v.44c0 1 .08 2 .11 2.93 20.69-1.26 39.6 2.7 44.69 25.72 2.46 11.15-2.38 30.9-8.39 45.36h31.08c-5.49-21-14.3-40.48-12.88-58.17 2.29-28.7 24.43-38.79 17.13-64.84C337 251.74 326.63 251 313 250.1z"></path><path class="cls-8" d="M348 259.66c7.35 10.44 29.89 44.24 35.72 31.42 8.66-14.43 19.77-27.51 22.7-33.75.71-1.52 3.8 2.77 4.75 3.12 1.56.59 4.85.3 4.32 1.9-3.85 10.42-23.68 47.32-26.32 50.54-7.25 8.87-17.92 5.16-23.65.36-7.87-6.59-17.91-14.27-26.54-24.06z"></path><path class="cls-5" d="M345.89 257.88c2.61 3.71 4.77 6.51 7.73 10.63-3 5.83-2.32 27.16 5 34.48 24.67 24.69 37.65-7.21 47.74-29.38 3.73-8.2.38-10.34-1.62-12.72.14-.31 1.76-3.81 2.16-4 3.05-1.46 11.23 3.38 10.22 5.17-3.85 10.42-25.74 49.8-28.38 53-4.08 5-10.15 7.36-18.42 2.39-12.89-7.74-28.12-24.6-31.37-28.28z"></path><path d="M320 223.59l-1.15 6.49-2.05 15.39c-.27 2 1.19 5.83 7.05 6.89 4.79.87-12.08 7-21.83 4.57-10.09-2.53-12.09-11-8.13-11.38a6.88 6.88 0 0 0 3.37-1.66c2.56-2.14 3.9-13 2.05-16.14s20.69-4.16 20.69-4.16z" fill="#d97d68" fill-rule="evenodd"></path><path class="cls-10" d="M285.86 189.65c1.3-14.8 10.58-32 29.65-33.42s38.68 8.69 41.8 33.19c2.05 16.07-1.49 34.93-3.16 50.47-2.78 15 2 23.56-1.06 27.92A20.24 20.24 0 0 0 339 257.58c-2.91-.46-5.67.86-7.67 4.85-23.19 46.4-65.56 34.43-54.89-4.67 5-18.38 4.23-10.83 7.25-45.1.57-6.45 1.31-13.66 2.17-23.01z"></path><path class="cls-20" d="M289 196.08s.11-.87.28-2.14c.08-.6.18-1.29.27-2 .18-1.34.38-2.82.55-4.13.47-3.52 5.53-14.14 18.35-16.29s25.43 9.73 29.87 19.83 3.19 16.4 4.11 17.77 4.9-8.86-1.45-24.31c0 0-.47-1.83.26-2.51s8.6 10.57 8.27 32.49-14.82 37.55-38 38.6-28.19-18-25.57-37.66l19.27-12.91z"></path><path class="cls-14" d="M337.74 213.57l-1.27 8a25.48 25.48 0 0 1-29.08 21.13 25.5 25.5 0 0 1-21.13-29.08l3.15-19.89s2.54-13.44 15.19-16.58 35.89 15.76 33.14 36.42z"></path><path class="cls-15" d="M337.74 213.57l-1.27 8a25.48 25.48 0 0 1-29.08 21.13c19.05 2 30.35-29.12 24.53-40.27s-17.82-14.51-17.82-14.51l3.09-3.86s2.88-.07 7.21.09c8.3 6.9 14.87 17.85 13.34 29.42z"></path><path class="cls-16" d="M290.76 189.59c1.8-4.22 5.75-10.44 13.84-12.45 9.53-2.36 25.06 7.79 31 21.77-28.76-19.65-41.55-11.41-44.84-9.32zM310.8 224.88a6.57 6.57 0 0 1-13-1.8 1.13 1.13 0 0 1 1.28-1l10.75 1.48a1.13 1.13 0 0 1 1 1.27z"></path><path d="M307.68 229.61a6.58 6.58 0 0 1-7.59-.57 4.07 4.07 0 0 1 4.05-1.89 4.15 4.15 0 0 1 3.54 2.46z" fill="#cb4c49" fill-rule="evenodd"></path><path class="cls-10" d="M298.92 222.11L309 223.5a2.31 2.31 0 0 1-1.45 2.34c-1 .17-8.25-1-8.69-1.67a3.94 3.94 0 0 1 .06-2.06z"></path><path class="cls-20" d="M287.28 262.05c8.16 11.32 22.43 3 32.71-2.31 2.64-1.36 2.59-1 1 1.5-10.54 16.63-32.99 19.99-33.71.81z"></path><path class="cls-14" d="M262.57 207.48c2.6-1.53 3.13-2.73 4.39-.73s5.56.9 4.66-.67c-1.33-2.31-1.11-2.15.17-1.71 3.36 1.14 6.38-.48 4.28-2.94 0 0 3.66 1 4.46-.6s-.93-3.32-.93-3.32-.1-.94.54-1c.87-.08 1.35 1.72 3.12.6 1-.64-.27-4-1.73-4.66s-5.66-.86-6.85-.33-1.53 2.46-1.53 2.46c-2.8-.41-4.14.33-4.39 2.93-.09.92-2.46.6-3.19 1.73-.41.63.81 3.45-.67 3.39s-1.73 2.06-2.33 4.85zM403.54 251.43c-.65-3.4-3.86-11-4.63-11.77-1-1.06 4.36-4.29 6.26.81 0 0 2.52 3.39 3.5 2.83s2.88-13.68 3-15.31 2.4-1.77 2.91-1.3 0 2.56-.1 5.58-.24 4.89 0 5.19c.73.85 4.34-10.27 5.63-11 .8-.45 3.36.64 3.23 2.17s-4.14 10.6-4.28 11.92.63.59 1.22-.13 6-9.73 6.73-10.18 3.1.91 2.55 2.46-5.56 10.61-5.56 11.37.57.67 2.25-.52 5-3.64 5.95-3.41c.63 0 1.44 1.87 0 3.4s-5 5.44-5.5 6.08c-2.4 3.41-3.62 7.16-5.86 9.56a7.78 7.78 0 0 1-3 2c-7.39 2.7-12.97-2.72-14.3-9.75z"></path><path class="cls-15" d="M421.29 258.6a7 7 0 0 1-.51.58A7.73 7.73 0 0 1 418 261l-.29.11a9.48 9.48 0 0 1-11.42-3.32 15.2 15.2 0 0 1-2.77-6.4c0-.08 0-.16-.05-.25 3.2 7.02 10.53 9.72 17.82 7.46z"></path><path class="cls-22" d="M128.97 340.31h7.61v9.38h-7.61z"></path><path class="cls-23" d="M132.9 342.25a1.72 1.72 0 0 1 1.71 1.72v2.2h2V341H130c-.37 0-.73 0-1.07.05v1.21z"></path><path class="cls-22" d="M109.93 340.31h7.61v9.38h-7.61z"></path><path class="cls-11" d="M105.16 369.48h35.93a1.15 1.15 0 0 0 1.16-1.38l-3.37-20.55a1.7 1.7 0 0 0-1.61-1.38H109a1.7 1.7 0 0 0-1.61 1.38L104 368.1a1.15 1.15 0 0 0 1.16 1.38z"></path><path class="cls-8" d="M123.26 368.22h19.12a3.53 3.53 0 0 1 2.38 1.36l2.75 3.65H99l2.75-3.65a3.53 3.53 0 0 1 2.38-1.36z"></path><path d="M135.91 348.4l.21 1.3 3 18.52h3.1a.49.49 0 0 0 0-.12l-3.37-20.55a1.7 1.7 0 0 0-1.61-1.38H109a1.68 1.68 0 0 0-1.41.85h26.71a1.7 1.7 0 0 1 1.61 1.38zm-11.91-.16a9.59 9.59 0 1 1-9.59 9.58 9.58 9.58 0 0 1 9.59-9.58z" fill="#42557a" fill-rule="evenodd"></path><rect x="98.75" y="372.65" width="49.02" height="6.52" rx="1.36" fill="#41455d"></rect><circle class="cls-26" cx="123.16" cy="357.15" r="9.58"></circle><path class="cls-7" d="M123.16 361.8a4.65 4.65 0 1 0-4.65-4.65 4.65 4.65 0 0 0 4.65 4.65z"></path><path class="cls-27" d="M127.79 356.85v.3a4.81 4.81 0 0 1-.25 1.53h-4.39a.92.92 0 1 1 0-1.83z"></path><path class="cls-27" d="M123.16 354.93a2.23 2.23 0 1 1-2.23 2.22 2.21 2.21 0 0 1 2.23-2.22z"></path><path class="cls-28" d="M123.16 351.05a1 1 0 1 0 0-2.06 1 1 0 1 0 0 2.06zM128.93 351.38a1 1 0 0 1 0 1.45 1 1 0 0 1-1.45 0 1 1 0 0 1 1.45-1.45zM128.93 362.93a1 1 0 0 1-1.45 0 1 1 0 0 1 0-1.46 1 1 0 0 1 1.45 0 1 1 0 0 1 0 1.46zM123.16 365.32a1 1 0 1 1 1-1 1 1 0 0 1-1 1zM117.39 362.93a1 1 0 0 1 1.45-1.46 1 1 0 0 1 0 1.46 1 1 0 0 1-1.45 0zM115 357.15a1 1 0 1 1 1 1 1 1 0 0 1-1-1zM117.39 351.38a1 1 0 0 1 1.45 1.45 1 1 0 1 1-1.45-1.45z"></path><path class="cls-8" d="M123.16 358.07a.92.92 0 1 1 0-1.83h7.13a.92.92 0 1 1 0 1.83z"></path><path class="cls-29" d="M135.25 341c5 0 6.71 3.26 6.71 5.84l.84 1.45h10.65l.72-.79V344c0-1.32.26-9.05-11.67-9.05h-38.75c-11.92 0-11.67 7.73-11.67 9.05v3.54l.72.79h10.65l.84-1.45c0-2.58 1.7-5.84 6.71-5.84h24.25z"></path><path class="cls-10" d="M104.63 346.83H91.4a.93.93 0 0 0-.84 1v4.93a.92.92 0 0 0 .84 1h13.23a.92.92 0 0 0 .84-1v-4.93a.93.93 0 0 0-.84-1z"></path><path class="cls-23" d="M113.86 342.25a1.72 1.72 0 0 1 1.71 1.72v2.2h2V341H111c-.37 0-.73 0-1.07.05v1.21z"></path><path class="cls-8" d="M146 375.76a1.36 1.36 0 0 1-1.35 1.35h-45.9v.71a1.29 1.29 0 0 0 .17.65h48.67a1.29 1.29 0 0 0 .17-.65V374a1.32 1.32 0 0 0-.25-.78v-.07a1.37 1.37 0 0 0-1.06-.51H146v3.11zM123.13 341h12.12a11.06 11.06 0 0 1 1.33.08 5.7 5.7 0 0 1 5.38 5.76h3.39v-.08c0-2.93-1.94-6.65-7.64-6.65h-27.6c-5.71 0-7.65 3.72-7.65 6.65v.08h1.91c0-2.39 1.45-5.35 5.64-5.79.34 0 .7-.05 1.07-.05h12.13z"></path><rect class="cls-30" x="92.4" y="347.85" width="9.15" height="3.58" rx=".52"></rect><path class="cls-31" d="M103.9 347.51v4.05a.93.93 0 0 1-.84 1h-12.5v.2a.92.92 0 0 0 .84 1h13.23a.92.92 0 0 0 .84-1v-4.93a.93.93 0 0 0-.84-1h-.73z"></path><path class="cls-10" d="M154.85 346.83h-13.22a.93.93 0 0 0-.84 1v4.93a.92.92 0 0 0 .84 1h13.22a.92.92 0 0 0 .84-1v-4.93a.93.93 0 0 0-.84-1z"></path><rect class="cls-30" x="142.62" y="347.85" width="9.15" height="3.58" rx=".52"></rect><path class="cls-31" d="M154.12 347.51v4.05a.93.93 0 0 1-.84 1h-12.49v.2a.92.92 0 0 0 .84 1h13.22a.92.92 0 0 0 .84-1v-4.93a.93.93 0 0 0-.84-1h-.73z"></path><path class="cls-10" d="M412 299.46h29.2a2.69 2.69 0 0 1 1.75.64.78.78 0 0 1 .34.26.71.71 0 0 1 .13.22 2.76 2.76 0 0 1 .54 1.64v17.17a2.75 2.75 0 0 1-.81 1.95 2.75 2.75 0 0 1-2 .81H412a2.77 2.77 0 0 1-2.76-2.76v-17.17a2.73 2.73 0 0 1 .55-1.65.71.71 0 0 1 .11-.21.84.84 0 0 1 .34-.26 2.73 2.73 0 0 1 1.76-.64zm29.58 20.94L430 311.56l-2.89 2.21h-1.02l-2.89-2.21-11.57 8.84a1 1 0 0 0 .38.07h29.2a1 1 0 0 0 .38-.07zm-10.54-9.63l11.25 8.59v-17.18l-11.24 8.59zm-20.13 8.59l11.25-8.59-11.25-8.59v17.18zm15.69-7.3l14.29-10.92h-28.58z"></path><path class="cls-7" d="M60.84 161.26h46a6.1 6.1 0 0 1 6.08 6.08v42.89a.65.65 0 0 1-.42.62.68.68 0 0 1-.74-.14l-10.36-10.36H60.84a6.11 6.11 0 0 1-6.08-6.09v-26.92a6.1 6.1 0 0 1 6.08-6.08z"></path><path class="cls-10" d="M70.29 184.15a3.35 3.35 0 1 0-3.35-3.35 3.36 3.36 0 0 0 3.35 3.35zM83.86 184.15a3.35 3.35 0 1 0-3.35-3.35 3.36 3.36 0 0 0 3.35 3.35zM97.42 184.15a3.35 3.35 0 1 0-3.34-3.35 3.36 3.36 0 0 0 3.34 3.35z"></path><path class="cls-28" d="M332.57 281.22H220.92a3.31 3.31 0 0 0-3.08 2.57L203.61 354a2.26 2.26 0 0 0 .2 1.52c.46.86 2.4 3 2.9 3l107.72-4.55a3.53 3.53 0 0 0 3.09-2.56l19.08-67.06a28.75 28.75 0 0 0-2.81-2.75 2.19 2.19 0 0 0-1.22-.38z"></path><path class="cls-10" d="M334.94 283.55H223.29a3.31 3.31 0 0 0-3.09 2.57L206 356.34a2 2 0 0 0 2 2.57h111.67a3.31 3.31 0 0 0 3.09-2.57L337 286.12a2 2 0 0 0-2.06-2.57z"></path><path class="cls-32" d="M306.35 312.94h-49.16a2.49 2.49 0 0 0-2.33 2l-6.08 32.69a1.6 1.6 0 0 0 1.6 2h49.16a2.49 2.49 0 0 0 2.33-2l6.13-32.72a1.6 1.6 0 0 0-1.65-1.97z"></path><path class="cls-33" d="M280.16 329.15h-14.47a2.47 2.47 0 0 0-2.46 3.24l10 41.38a4.4 4.4 0 0 0 4 3.24h14.48a2.47 2.47 0 0 0 2.45-3.24l-10-41.38a4.41 4.41 0 0 0-4-3.24z"></path><path class="cls-10" d="M285.16 329.15h-14.47a2.47 2.47 0 0 0-2.46 3.24l10 41.38a4.4 4.4 0 0 0 4 3.24h14.48a2.48 2.48 0 0 0 2.46-3.24l-10-41.38a4.4 4.4 0 0 0-4.01-3.24z"></path><path class="cls-10" d="M315.38 382.17h-65a3.87 3.87 0 0 1-3.85-3.86 3.86 3.86 0 0 1 3.85-3.85h65a3.86 3.86 0 0 1 3.85 3.85 3.87 3.87 0 0 1-3.85 3.86z"></path><path class="cls-33" d="M263.38 382.17h-24.27a3.87 3.87 0 0 1-3.85-3.86 3.86 3.86 0 0 1 3.85-3.85h24.27a3.86 3.86 0 0 1 3.85 3.85 3.87 3.87 0 0 1-3.85 3.86z"></path><path class="cls-32" d="M321.78 289.74h-.6a1.12 1.12 0 0 0-1.05.89l-2.75 14.79a.72.72 0 0 0 .72.89h.6a1.12 1.12 0 0 0 1.05-.89l2.75-14.79a.72.72 0 0 0-.72-.89zM317.08 289.74h-.59a1.13 1.13 0 0 0-1.06.89l-2.75 14.79a.72.72 0 0 0 .73.89h.59a1.13 1.13 0 0 0 1.06-.89l2.75-14.79a.72.72 0 0 0-.73-.89zM312.39 289.74h-.6a1.12 1.12 0 0 0-1.05.89L308 305.42a.72.72 0 0 0 .72.89h.6a1.14 1.14 0 0 0 1.06-.89l2.74-14.79a.71.71 0 0 0-.73-.89zM307.7 289.74h-.6a1.13 1.13 0 0 0-1.06.89l-2.75 14.79a.72.72 0 0 0 .73.89h.6a1.12 1.12 0 0 0 1.05-.89l2.75-14.79a.72.72 0 0 0-.72-.89zM303 289.74h-.6a1.13 1.13 0 0 0-1 .89l-2.75 14.79a.72.72 0 0 0 .72.89h.6a1.13 1.13 0 0 0 1.06-.89l2.75-14.79a.72.72 0 0 0-.78-.89zM298.31 289.74h-.6a1.12 1.12 0 0 0-1 .89l-2.75 14.79a.72.72 0 0 0 .72.89h.6a1.12 1.12 0 0 0 1-.89l2.72-14.79a.72.72 0 0 0-.69-.89zM293.61 289.74H293a1.13 1.13 0 0 0-1.06.89l-2.75 14.79a.72.72 0 0 0 .73.89h.59a1.13 1.13 0 0 0 1.06-.89l2.75-14.79a.72.72 0 0 0-.71-.89zM288.92 289.74h-.6a1.12 1.12 0 0 0-1.05.89l-2.75 14.79a.72.72 0 0 0 .72.89h.6a1.14 1.14 0 0 0 1.06-.89l2.74-14.79a.71.71 0 0 0-.72-.89zM284.23 289.74h-.6a1.14 1.14 0 0 0-1.06.89l-2.74 14.79a.71.71 0 0 0 .72.89h.6a1.12 1.12 0 0 0 1.05-.89l2.8-14.79a.72.72 0 0 0-.77-.89zM279.53 289.74h-.59a1.13 1.13 0 0 0-1.06.89l-2.75 14.79a.72.72 0 0 0 .73.89h.59a1.13 1.13 0 0 0 1.06-.89l2.75-14.79a.72.72 0 0 0-.73-.89zM274.84 289.74h-.6a1.12 1.12 0 0 0-1.05.89l-2.75 14.79a.72.72 0 0 0 .72.89h.6a1.12 1.12 0 0 0 1.05-.89l2.75-14.79a.72.72 0 0 0-.72-.89zM270.15 289.74h-.6a1.13 1.13 0 0 0-1.06.89l-2.75 14.79a.72.72 0 0 0 .73.89h.6a1.13 1.13 0 0 0 1.05-.89l2.75-14.79a.72.72 0 0 0-.72-.89zM265.45 289.74h-.6a1.12 1.12 0 0 0-1.05.89l-2.75 14.79a.72.72 0 0 0 .72.89h.6a1.13 1.13 0 0 0 1.06-.89l2.75-14.79a.72.72 0 0 0-.73-.89zM260.76 289.74h-.6a1.12 1.12 0 0 0-1.05.89l-2.75 14.79a.72.72 0 0 0 .72.89h.6a1.12 1.12 0 0 0 1.05-.89l2.75-14.79a.72.72 0 0 0-.72-.89zM256.06 289.74h-.59a1.13 1.13 0 0 0-1.06.89l-2.75 14.79a.72.72 0 0 0 .73.89h.61a1.13 1.13 0 0 0 1.06-.89l2.75-14.79a.72.72 0 0 0-.75-.89zM251.37 289.74h-.6a1.12 1.12 0 0 0-1.05.89L247 305.42a.72.72 0 0 0 .72.89h.6a1.12 1.12 0 0 0 1.05-.89l2.75-14.79a.72.72 0 0 0-.75-.89zM246.68 289.74h-.6a1.13 1.13 0 0 0-1.06.89l-2.75 14.79a.72.72 0 0 0 .73.89h.6a1.13 1.13 0 0 0 1.05-.89l2.75-14.79a.72.72 0 0 0-.72-.89zM242 289.74h-.6a1.13 1.13 0 0 0-1 .89l-2.75 14.79a.72.72 0 0 0 .72.89h.6a1.13 1.13 0 0 0 1.06-.89l2.75-14.79a.72.72 0 0 0-.78-.89zM237.29 289.74h-.6a1.12 1.12 0 0 0-1.05.89l-2.75 14.79a.72.72 0 0 0 .72.89h.6a1.12 1.12 0 0 0 1-.89l2.79-14.79a.72.72 0 0 0-.71-.89z"></path><path class="cls-10" d="M108.54 121.47a9.41 9.41 0 0 1-4.05 4.77 12.51 12.51 0 0 1-3 1.37.89.89 0 0 1-1.09-.6.93.93 0 0 1 0-.33 11.69 11.69 0 0 0 0-2.71 10.65 10.65 0 0 0-.31-1.49 17 17 0 1 1 16.22-7.09 17.14 17.14 0 0 1-7.74 6.08zm-6.32 4a8.23 8.23 0 0 0 4.76-4.92.91.91 0 0 1 .55-.58 15.28 15.28 0 0 0 7.3-5.6 15.24 15.24 0 1 0-14 6.43.88.88 0 0 1 .74.58 11.12 11.12 0 0 1 .56 2.36 12.46 12.46 0 0 1 .09 1.73z"></path><path class="cls-10" d="M108.76 96.75a5.86 5.86 0 0 0-2.36-2.63 9.32 9.32 0 0 0-2.55 4.51c.7.47 2.62 1.94 1.72 3.51l-3.76 6.52c-.92 1.52-3.14.6-3.89.23a9.39 9.39 0 0 0-2.63 4.47 5.89 5.89 0 0 0 3.46.73 3.73 3.73 0 0 0 2.75-1.54l7.31-12.67a3.72 3.72 0 0 0-.05-3.13z"></path><path class="cls-11" d="M423.9 165.69h-46a6.1 6.1 0 0 0-6.08 6.08v42.89a.67.67 0 0 0 .42.63.66.66 0 0 0 .74-.15l10.36-10.36h40.6a6.1 6.1 0 0 0 6.06-6.08v-26.93a6.1 6.1 0 0 0-6.1-6.08z"></path><path class="cls-10" d="M414.44 188.59a3.35 3.35 0 1 0-3.35-3.35 3.36 3.36 0 0 0 3.35 3.35zM400.88 188.59a3.35 3.35 0 1 0-3.35-3.35 3.36 3.36 0 0 0 3.35 3.35zM387.31 188.59a3.35 3.35 0 1 0-3.35-3.35 3.36 3.36 0 0 0 3.35 3.35zM217.35 149.91A15.92 15.92 0 1 0 201.43 134a16 16 0 0 0 15.92 15.91z"></path><circle class="cls-26" cx="217.35" cy="172.34" r="15.92" transform="rotate(-45 217.355 172.339)"></circle><path class="cls-4" d="M218.15 167.48a8.69 8.69 0 0 1 2.78-4.79.33.33 0 0 1 .37 0 6 6 0 0 1 2.58 2.79 4 4 0 0 1 0 3.41l-6.6 11.43a4 4 0 0 1-3 1.72 6.11 6.11 0 0 1-3.7-.84.32.32 0 0 1-.18-.32s.17-2.22 2.75-4.81a.32.32 0 0 1 .4-.06s2.18 1.26 2.85.13l3.39-5.86c.63-1.1-1.35-2.3-1.53-2.4a.34.34 0 0 1-.11-.4zM246.46 124.7a.63.63 0 1 1 0-1.25h20.1a.63.63 0 1 1 0 1.25zM246.64 128.6a.63.63 0 1 1 0-1.25h7.74a.63.63 0 0 1 0 1.25zM246.46 132.78a.63.63 0 0 1-.63-.63.63.63 0 0 1 .63-.63h8a.63.63 0 0 1 .63.63.64.64 0 0 1-.63.63zM246.46 136.44a.63.63 0 1 1 0-1.25h16.08a.63.63 0 1 1 0 1.25zM246 140.34c-.1 0-.18-.28-.18-.62s.08-.63.18-.63h7.2c.1 0 .17.28.17.63s-.07.62-.17.62zM246.46 144.53a.63.63 0 1 1 0-1.25h25.83a.63.63 0 0 1 0 1.25zM246.46 163.05a.63.63 0 1 1 0-1.25h20.1a.63.63 0 1 1 0 1.25zM246.64 167a.63.63 0 1 1 0-1.25h7.74a.63.63 0 0 1 0 1.25zM246.46 171.12a.63.63 0 1 1 0-1.25h8a.63.63 0 1 1 0 1.25zM246.46 174.79a.63.63 0 1 1 0-1.25h16.08a.63.63 0 1 1 0 1.25zM246.46 178.69a.63.63 0 1 1 0-1.25h25.83a.63.63 0 0 1 0 1.25zM246 182.88c-.07 0-.13-.28-.13-.63s.06-.63.13-.63h5.11c.07 0 .12.29.12.63s-.05.63-.12.63zM211.22 146.26l-1.37-1.34a3.6 3.6 0 0 0-.42.32 15 15 0 0 0 1.79 1.02z"></path><path class="cls-4" d="M211.22 146.26l-1.37-1.34a2.52 2.52 0 0 0-.42.32 15 15 0 0 0 1.79 1.02zM223.45 146.26l1.37-1.34a3.6 3.6 0 0 1 .42.32 15 15 0 0 1-1.79 1.02z"></path><path class="cls-4" d="M223.45 146.26l1.37-1.34a2.52 2.52 0 0 1 .42.32 15 15 0 0 1-1.79 1.02z"></path><path class="cls-7" d="M222.12 143.83h.11a14.37 14.37 0 0 1 2.59 1.06 1.7 1.7 0 0 1 .4.34 14.3 14.3 0 0 1-15.77 0 1.7 1.7 0 0 1 .4-.34 14.67 14.67 0 0 1 2.59-1.06h.11a13.46 13.46 0 0 1 2-.24l2.78.4h.07l2.78-.4a13.46 13.46 0 0 1 2 .24z"></path><path class="cls-9" d="M219.61 137.47l-.06 1.57v3.69a1.37 1.37 0 0 0 .6.87c-2 2.18-3.62 2.18-5.63 0a1.33 1.33 0 0 0 .6-.87V139l-.06-1.57s1.12.2 2.28.49c1.15-.25 2.27-.45 2.27-.45z"></path><path class="cls-8" d="M210.09 128.67a3.44 3.44 0 0 0-.34 1.35c0 .65 1.36.91 1.83.91s13 .47 13 .47a.48.48 0 0 0 .42-.4c0-.38-2.16-5.09-2.16-5.09z"></path><path class="cls-9" d="M210.47 132.67a2 2 0 1 1-2 2 2 2 0 0 1 2-2zM224.24 132.67a2 2 0 1 1-2 2 2 2 0 0 1 2-2z"></path><path class="cls-14" d="M217.38 122a6.89 6.89 0 0 1 6.87 6.87v6.23a6.88 6.88 0 0 1-6.87 6.86 6.88 6.88 0 0 1-6.86-6.86v-6.23a6.89 6.89 0 0 1 6.86-6.87z"></path><path class="cls-8" d="M223.46 128.8v2.2c0 .84.15 1.09.57 1.4 0 0-.26.81.22 1a.77.77 0 0 1 .37-.64v-5.22a3 3 0 0 1-1.21.81 2.44 2.44 0 0 1 .05.45zM211.36 128.44V130c0 .61-.11.79-.42 1 0 0-.08.52-.42.65l-.3-4.07a3.51 3.51 0 0 0 1.17.51 1.79 1.79 0 0 0-.03.35z"></path><path class="cls-8" d="M225 131a5.6 5.6 0 0 0-1.56-1.28l-.19-.1a4 4 0 0 1-1.62-1.6c-.57.39-2.92.33-3.8.3h-.3c-3.92-.16-7.72.79-7.73 1.79-3.4-7.14 5.09-14 12.65-6.22 3.94.11 3.55 4.2 2.55 7.11z"></path><path fill="#e0dee1" d="M409.72 370.62h70.29v6.44h-70.29z"></path><path class="cls-10" d="M418.38 371.18a1.39 1.39 0 0 0 0-2.78h-49.65a5.42 5.42 0 0 0-3.84 1.59 5.45 5.45 0 0 0 3.85 9.29h49.65a1.4 1.4 0 0 0 0-2.79h-2.27a8.91 8.91 0 0 1-1.1-.95 2.94 2.94 0 0 1-1-2.2 3.36 3.36 0 0 1 1.31-2.17z"></path><path d="M480 371.18a1.39 1.39 0 0 0 0-2.78h-62.26a5.46 5.46 0 0 0-3.85 1.59 5.45 5.45 0 0 0 3.85 9.29H480a1.4 1.4 0 0 0 0-2.79h-62.26a2.66 2.66 0 0 1-1.88-.78 2.66 2.66 0 0 1 1.88-4.54z" fill="#abadba" fill-rule="evenodd"></path><path class="cls-36" d="M370.91 358.3h58.93v7.82h-58.93z"></path><path class="cls-7" d="M419.33 359a1.69 1.69 0 0 1 0-3.38h45.76a6.54 6.54 0 0 1 4.66 1.94 6.61 6.61 0 0 1-4.67 11.27h-45.75a1.69 1.69 0 0 1 0-3.38h2.76a9.71 9.71 0 0 0 1.33-1.15 3.56 3.56 0 0 0 1.24-2.66 4.08 4.08 0 0 0-1.59-2.64z"></path><path d="M370.91 359a1.69 1.69 0 0 1 0-3.38h49.21a6.58 6.58 0 0 1 4.66 1.94 6.61 6.61 0 0 1-4.66 11.27h-49.21a1.69 1.69 0 0 1 0-3.38h49.21a3.24 3.24 0 0 0 3.22-3.22 3.23 3.23 0 0 0-3.22-3.23z" fill="#be5478" fill-rule="evenodd"></path><path class="cls-36" d="M414.73 344.84h38.24v8h-38.24z"></path><path class="cls-8" d="M425.48 345.54a1.73 1.73 0 0 0 0-3.46h-28.19a6.74 6.74 0 0 0-4.77 2 6.76 6.76 0 0 0 4.78 11.53h28.19a1.73 1.73 0 0 0 0-3.46h-2.83a10.76 10.76 0 0 1-1.36-1.15 3.65 3.65 0 0 1-1.28-2.73 4.2 4.2 0 0 1 1.63-2.69z"></path><path class="cls-29" d="M453 345.54a1.73 1.73 0 0 0 0-3.46h-28.32a6.74 6.74 0 0 0-4.77 2 6.76 6.76 0 0 0 4.78 11.53H453a1.73 1.73 0 0 0 0-3.46h-28.32a3.33 3.33 0 0 1-3.31-3.3 3.29 3.29 0 0 1 3.31-3.3z"></path><path class="cls-5" d="M223.39 379.29h-29.93v-11.1h24.87l5.06 11.1z"></path><path fill="#afd8df" fill-rule="evenodd" d="M162.73 379.29h50.53l5.07-11.1h-50.54l-5.06 11.1z"></path><path class="cls-10" d="M170.78 372.44a1.29 1.29 0 0 0-.83.35 2.83 2.83 0 0 0-.68 1c-.38.85-.25 1.27.39 1.27a2.62 2.62 0 0 0 .61-.08 5.84 5.84 0 0 0 .64-.2l-.46 1a4 4 0 0 1-1.36.24c-.67 0-1.09-.19-1.27-.58a2.11 2.11 0 0 1 .23-1.68 4.42 4.42 0 0 1 .81-1.21 3.74 3.74 0 0 1 1.11-.8 3.13 3.13 0 0 1 1.27-.28 2.39 2.39 0 0 1 1.23.31l-.8.94a2.93 2.93 0 0 0-.4-.19 1.44 1.44 0 0 0-.49-.08zm3.66 3.51h1.31l.57-4.44h-1.6l-3.47 4.49h1.32l.6-.83h1.43l-.16.83zm.36-1.81h-.94c.5-.7.83-1.16 1-1.4s.28-.4.34-.5c0 .11-.07.29-.12.55s-.1.46-.13.62l-.14.73zm1.93 1.81l2-4.43h1.19l-1.56 3.48h1.71l-.44 1zm4.1 0l2-4.43h1.2l-1.56 3.48h1.7l-.44 1zm8.79-3.51a1.27 1.27 0 0 0-.83.35 2.83 2.83 0 0 0-.68 1c-.38.85-.25 1.27.39 1.27a2.62 2.62 0 0 0 .61-.08 5.84 5.84 0 0 0 .64-.2l-.46 1a4 4 0 0 1-1.36.24c-.67 0-1.09-.19-1.27-.58a2.07 2.07 0 0 1 .23-1.68 4.42 4.42 0 0 1 .81-1.21 3.74 3.74 0 0 1 1.11-.8 3.13 3.13 0 0 1 1.27-.28 2.41 2.41 0 0 1 1.23.31l-.8.94a2.93 2.93 0 0 0-.4-.19 1.44 1.44 0 0 0-.49-.08zm3.58 3.56l.44-1h-1.43l.38-.84h1.33l.43-1H193l.31-.7h1.44l.44-1h-2.63l-2 4.43zm5.48 0h-1.57l-.19-3.12c-.18.49-.33.87-.45 1.12l-.91 2h-1.06l2-4.43h1.56l.21 3.08c.18-.45.33-.8.45-1.08l.91-2h1.07l-2 4.43zm3.41 0h-1.2l1.57-3.45h-1.08l.45-1h3.35l-.44 1h-1.08l-1.57 3.45zm4.83 0l.45-1h-1.44l.39-.84h1.32l.44-1h-1.32l.31-.7h1.43l.44-1h-2.63l-2 4.43zm3.21-1.61l-.74 1.61h-1.19l2-4.43h1.45c1.21 0 1.61.44 1.21 1.31a2.41 2.41 0 0 1-1.29 1.19L212 376h-1.36l-.2-1.61zm.41-.9h.22a.9.9 0 0 0 .88-.55c.14-.31 0-.46-.41-.46H211z"></path><path class="cls-5" d="M565.86 387.4H49.52a4.15 4.15 0 0 1-4.13-4.14 4.15 4.15 0 0 1 4.13-4.14h516.34a4.15 4.15 0 0 1 4.14 4.14 4.15 4.15 0 0 1-4.14 4.14zM11.48 387.4h18.33a4.15 4.15 0 0 0 4.19-4.14 4.15 4.15 0 0 0-4.14-4.14H11.48a4.15 4.15 0 0 0-4.14 4.14 4.15 4.15 0 0 0 4.14 4.14z"></path><path class="cls-3" d="M490.23 211.33a12.91 12.91 0 0 1 18.26 0 12.94 12.94 0 0 1 3.78 9.13 12.91 12.91 0 0 1-17.84 11.93 12.78 12.78 0 0 1-4.2-2.8 13.16 13.16 0 0 1-2.8-4.19 12.92 12.92 0 0 1 0-9.87 13.1 13.1 0 0 1 2.8-4.2zm4.65-1.7a11.7 11.7 0 0 0-3.8 19.11 11.55 11.55 0 0 0 3.8 2.55 11.84 11.84 0 0 0 9 0 11.85 11.85 0 0 0 6.35-6.35 11.72 11.72 0 0 0 0-9 11.55 11.55 0 0 0-2.55-3.8 11.75 11.75 0 0 0-12.76-2.55zm-1.43-9.5a21.05 21.05 0 0 0-4.66 2 19.57 19.57 0 0 0-2.15 1.43 19.83 19.83 0 0 0-2 1.68 1.39 1.39 0 0 1-.77.37 1.37 1.37 0 0 1-.84-.18c-1.9-1.09-3.89-2.18-5.75-3.32a.9.9 0 0 0-.28-.11.87.87 0 0 0-.32 0 1.11 1.11 0 0 0-.29.14 1.21 1.21 0 0 0-.21.24c-1.38 2.09-2.76 4.8-4 7a1.18 1.18 0 0 0-.1.3.93.93 0 0 0 0 .33.86.86 0 0 0 .14.29.83.83 0 0 0 .24.21c1.7 1.12 3.9 2.25 5.71 3.3a1.36 1.36 0 0 1 .57.64.9.9 0 0 1 .08.28h.12l-.13.53c-.1.42-.2.84-.27 1.25s-.14.84-.19 1.28-.1.86-.12 1.28 0 .85 0 1.3v1.3c0 .42.06.85.12 1.28s.11.87.19 1.28.17.83.27 1.25a1.29 1.29 0 0 1-.09.89 1.31 1.31 0 0 1-.61.64l-5.05 2.99-.6.34a.83.83 0 0 0-.24.21.86.86 0 0 0-.14.29.93.93 0 0 0 0 .33 1.18 1.18 0 0 0 .1.3l3.75 6.49.3.53a1.21 1.21 0 0 0 .21.24 1.11 1.11 0 0 0 .29.14.74.74 0 0 0 .33 0 .63.63 0 0 0 .29-.1c1.82-1.14 3.86-2.22 5.73-3.3a1.32 1.32 0 0 1 .83-.17 1.37 1.37 0 0 1 .78.36 21 21 0 0 0 2 1.68 19.57 19.57 0 0 0 2.15 1.43 20.42 20.42 0 0 0 4.72 2 1.35 1.35 0 0 1 1 1.31v6.6a.73.73 0 0 0 .06.3.8.8 0 0 0 .18.27.68.68 0 0 0 .26.18.81.81 0 0 0 .31.06h8.1a.78.78 0 0 0 .31-.06.8.8 0 0 0 .27-.18 1 1 0 0 0 .18-.27.73.73 0 0 0 .06-.3v-6.6a1.35 1.35 0 0 1 1-1.32 22.46 22.46 0 0 0 2.38-.85 22 22 0 0 0 2.28-1.14 20.7 20.7 0 0 0 2.16-1.43 19.71 19.71 0 0 0 2-1.68 1.37 1.37 0 0 1 .82-.37 1.42 1.42 0 0 1 .87.22l5.64 3.26a.71.71 0 0 0 .3.1.74.74 0 0 0 .33 0 .87.87 0 0 0 .29-.14 1 1 0 0 0 .21-.24c1.34-2.34 2.71-4.67 4-7a.88.88 0 0 0 .1-.3 1.22 1.22 0 0 0 0-.33.89.89 0 0 0-.15-.29.93.93 0 0 0-.23-.21l-5.71-3.3a1.29 1.29 0 0 1-.57-.63c0-.08-.06-.15-.08-.22h-.15l.16-.61c.1-.42.19-.84.27-1.25s.13-.83.19-1.28.09-.86.12-1.28 0-.85 0-1.3v-1.3c0-.42-.07-.85-.12-1.28s-.12-.88-.19-1.28-.17-.83-.27-1.25a1.34 1.34 0 0 1 .08-.89 1.4 1.4 0 0 1 .61-.64l5.66-3.26a.93.93 0 0 0 .23-.21.8.8 0 0 0 .15-.29 1.22 1.22 0 0 0 0-.33.88.88 0 0 0-.1-.3c-1.38-2.05-2.77-4.8-4-7a1 1 0 0 0-.21-.24.87.87 0 0 0-.36-.22.74.74 0 0 0-.33 0 .67.67 0 0 0-.29.1l-5.72 3.3a1.32 1.32 0 0 1-.86.17 1.34 1.34 0 0 1-.77-.38 20.6 20.6 0 0 0-2-1.67 21 21 0 0 0-2.15-1.42 21.45 21.45 0 0 0-2.3-1.15 20.94 20.94 0 0 0-2.42-.85 1.43 1.43 0 0 1-.71-.49 1.39 1.39 0 0 1-.27-.82v-6.59a.75.75 0 0 0-.06-.31 1 1 0 0 0-.18-.27.8.8 0 0 0-.27-.18.78.78 0 0 0-.31-.06h-8.1a.81.81 0 0 0-.31.06.68.68 0 0 0-.26.18.81.81 0 0 0-.24.58v6.59a1.31 1.31 0 0 1-.3.84 1.34 1.34 0 0 1-.75.48zm-2.84-.25a22.75 22.75 0 0 0-2.42 1.21 21.81 21.81 0 0 0-2.27 1.51 20.48 20.48 0 0 0-2.08 1.77.13.13 0 0 1-.09 0 .18.18 0 0 1-.1 0l-5.76-3.33a2.14 2.14 0 0 0-.73-.23 2.05 2.05 0 0 0-1.46.41 1.94 1.94 0 0 0-.52.58c-1.39 2.26-2.71 4.71-4.05 7a2.08 2.08 0 0 0-.25.75 2.33 2.33 0 0 0 .05.79 2.09 2.09 0 0 0 .35.7 2 2 0 0 0 .59.52c1.84 1.13 3.83 2.21 5.72 3.3 0 0 .05 0 .06.07a.17.17 0 0 1 0 .1l-.13.54c-.06.26-.12.52-.16.79q-.13.69-.21 1.35t-.12 1.35c0 .47-.05.93-.05 1.37s0 .9.05 1.37.07.91.12 1.35.12.89.21 1.35.17.9.28 1.33a.12.12 0 0 1 0 .1.27.27 0 0 1-.07.08c-2.1 1.12-4.23 2.44-6.31 3.64l.07.09-.06.08a2.05 2.05 0 0 0-.35.71 2.25 2.25 0 0 0-.05.78 2 2 0 0 0 .25.74l4.35 7.54.08-.05.14.11a1.75 1.75 0 0 0 .71.35 1.85 1.85 0 0 0 .78.05 2 2 0 0 0 .72-.23c1.91-1 3.87-2.24 5.75-3.32a.13.13 0 0 1 .09 0 .19.19 0 0 1 .1.05 21.94 21.94 0 0 0 2.07 1.77 23.45 23.45 0 0 0 2.27 1.5 22 22 0 0 0 2.43 1.21 21 21 0 0 0 2.56.91.15.15 0 0 1 .09.06.17.17 0 0 1 0 .1v6.6a1.94 1.94 0 0 0 .15.76 2.31 2.31 0 0 0 .44.66 2.16 2.16 0 0 0 .65.43 2 2 0 0 0 .77.16h8.1a2 2 0 0 0 .77-.16 2 2 0 0 0 .65-.43 2 2 0 0 0 .59-1.42v-6.6a.15.15 0 0 1 0-.1.15.15 0 0 1 .09-.06 21.35 21.35 0 0 0 2.55-.9 22.6 22.6 0 0 0 2.41-1.21 24.89 24.89 0 0 0 2.28-1.5 23.16 23.16 0 0 0 2.07-1.78.18.18 0 0 1 .09 0 .2.2 0 0 1 .11 0l5.71 3.3a2 2 0 0 0 1.53.2 1.89 1.89 0 0 0 .71-.35 2 2 0 0 0 .5-.57c1.5-2.41 2.92-5.06 4.36-7.54h-.08v-.19a1.85 1.85 0 0 0-.05-.78 2.05 2.05 0 0 0-.35-.71 1.86 1.86 0 0 0-.59-.52l-5.71-3.3-.07-.07a.37.37 0 0 1 0-.11l.15-.6c.06-.24.1-.48.15-.72.08-.46.15-.91.2-1.35s.1-.89.13-1.35 0-.93 0-1.37v-1.37c0-.47-.07-.91-.13-1.36s-.12-.88-.2-1.34-.18-.9-.29-1.33a.17.17 0 0 1 0-.1l.08-.08 5.71-3.29a2.08 2.08 0 0 0 .58-.52 2 2 0 0 0 .4-1.49 2 2 0 0 0-.24-.73c-1.36-2.52-2.92-5.06-4.36-7.55h-.08l-.13-.11a2 2 0 0 0-.71-.35 1.86 1.86 0 0 0-.78 0 2.06 2.06 0 0 0-.75.24l-.42.25-5.3 3.06a.18.18 0 0 1-.1 0 .15.15 0 0 1-.09 0 22.07 22.07 0 0 0-2.07-1.76 22.34 22.34 0 0 0-7.25-3.62.16.16 0 0 1-.08-.06.18.18 0 0 1 0-.1v-6.59a2 2 0 0 0-.15-.77 2 2 0 0 0-.44-.66 2 2 0 0 0-.65-.43 2 2 0 0 0-.77-.16h-8.1a2 2 0 0 0-.77.16 2.16 2.16 0 0 0-.65.43 2 2 0 0 0-.59 1.43v6.59a.2.2 0 0 1 0 .11l-.09.05a22.39 22.39 0 0 0-2.54.81zM508.83 292.16zm2.85-10.84a5.49 5.49 0 1 1-1.6 3.87 5.47 5.47 0 0 1 1.6-3.87zm1.18-5.43a9.19 9.19 0 0 0-2.14.91 10.16 10.16 0 0 0-1.89 1.42.33.33 0 0 1-.4 0l-2.54-1.47a.62.62 0 0 0-.46-.05.63.63 0 0 0-.39.29l-1.79 3.1a.67.67 0 0 0-.06.48.59.59 0 0 0 .29.38l2.53 1.46a.35.35 0 0 1 .16.37 9.12 9.12 0 0 0-.22 1.16 11.5 11.5 0 0 0-.07 1.18 11.33 11.33 0 0 0 .07 1.18 8.8 8.8 0 0 0 .22 1.16.34.34 0 0 1-.18.38l-2.53 1.46a.64.64 0 0 0-.29.38.67.67 0 0 0 .06.48l1.8 3.12a.68.68 0 0 0 .39.3.63.63 0 0 0 .48-.07l2.52-1.46a.34.34 0 0 1 .4.05 9.77 9.77 0 0 0 4.05 2.34.33.33 0 0 1 .24.33v2.93a.68.68 0 0 0 .19.45.63.63 0 0 0 .44.18h3.61a.63.63 0 0 0 .44-.18.64.64 0 0 0 .19-.45v-2.93a.33.33 0 0 1 .26-.33 9.87 9.87 0 0 0 4-2.34.35.35 0 0 1 .42 0l2.53 1.46a.61.61 0 0 0 .47.07.68.68 0 0 0 .39-.3l1.79-3.11a.62.62 0 0 0 .06-.48.61.61 0 0 0-.29-.38l-2.54-1.47a.32.32 0 0 1-.16-.37 10.8 10.8 0 0 0 .21-1.16 9.12 9.12 0 0 0 .07-1.18 9.23 9.23 0 0 0-.07-1.18 11.27 11.27 0 0 0-.21-1.16.34.34 0 0 1 .17-.38l2.53-1.46a.59.59 0 0 0 .29-.38.62.62 0 0 0-.06-.48l-1.79-3.1a.63.63 0 0 0-.39-.29.6.6 0 0 0-.47.06l-2.55 1.47a.33.33 0 0 1-.41-.06 9.33 9.33 0 0 0-1.88-1.41 9.43 9.43 0 0 0-2.16-.92.34.34 0 0 1-.24-.32v-2.94a.65.65 0 0 0-.63-.63h-3.61a.6.6 0 0 0-.44.19.64.64 0 0 0-.19.44v2.94a.34.34 0 0 1-.22.32z"></path><path class="cls-2" d="M292.44 68.39h29.21a2.71 2.71 0 0 1 1.75.64.78.78 0 0 1 .34.26.68.68 0 0 1 .12.22 2.7 2.7 0 0 1 .55 1.64v17.17a2.75 2.75 0 0 1-.81 2 2.75 2.75 0 0 1-2 .81h-29.16a2.77 2.77 0 0 1-2.75-2.76V71.15a2.79 2.79 0 0 1 .54-1.65 1.13 1.13 0 0 1 .12-.21.84.84 0 0 1 .34-.26 2.73 2.73 0 0 1 1.75-.64zM322 89.33l-11.58-8.84-2.88 2.21h-1.02l-2.89-2.21-11.57 8.84a.94.94 0 0 0 .37.07h29.21a1 1 0 0 0 .38-.07zm-10.51-9.63l11.25 8.59V71.11l-11.25 8.59zm-20.13 8.59l11.25-8.59-11.25-8.59v17.18zM307.05 81l14.29-10.92h-28.59zM27.76 156.81a16.93 16.93 0 0 1 2.64-5.72 9.19 9.19 0 0 1 1.82-1.93 1.11 1.11 0 0 1 .64-.25 1.14 1.14 0 0 1 .67.15 11.24 11.24 0 0 1 2.55 2 8.83 8.83 0 0 1 1.67 2.54 7.84 7.84 0 0 1 .63 3 5.78 5.78 0 0 1-.65 2.79l-10.08 17.49a5.73 5.73 0 0 1-2.09 2 7.73 7.73 0 0 1-2.93 1 9 9 0 0 1-3-.17 11.69 11.69 0 0 1-3-1.18 1.18 1.18 0 0 1-.48-.46 1.11 1.11 0 0 1-.14-.65 10.49 10.49 0 0 1 1.44-4 18.11 18.11 0 0 1 2.94-3.8 1.16 1.16 0 0 1 .66-.35 1.24 1.24 0 0 1 .75.14c.05 0 2.78 1.59 3.46.44l5.17-9c.29-.49-.11-1.11-.6-1.62a8.76 8.76 0 0 0-1.49-1.16 1.07 1.07 0 0 1-.49-.54 1.1 1.1 0 0 1-.06-.76zm3.69-4.95a16.05 16.05 0 0 0-2.4 5.17 9.51 9.51 0 0 1 1.68 1.33c.85.87 1.48 2 .8 3.19l-5.17 9c-1.23 2.06-4.52.42-5.14.08a17 17 0 0 0-2.67 3.47 9.77 9.77 0 0 0-1.26 3.31 9.78 9.78 0 0 0 2.6 1 7.69 7.69 0 0 0 2.58.15 6.45 6.45 0 0 0 2.43-.8 4.41 4.41 0 0 0 1.62-1.5l10.07-17.45a4.47 4.47 0 0 0 .48-2.15 6.35 6.35 0 0 0-.52-2.48 7.53 7.53 0 0 0-1.43-2.18 9.9 9.9 0 0 0-2.12-1.76 8.67 8.67 0 0 0-1.55 1.62z"></path><path class="cls-3" d="M519.82 359.28a.94.94 0 1 0-1.88 0v2.21h-2.21a.94.94 0 1 0 0 1.88h2.21v2.21a.94.94 0 1 0 1.88 0v-2.21H522a.94.94 0 0 0 0-1.88h-2.21zM218.67 230.52a.94.94 0 0 0-1.88 0v2.21h-2.21a.94.94 0 0 0 0 1.88h2.21v2.21a.94.94 0 0 0 1.88 0v-2.21h2.21a.94.94 0 0 0 0-1.88h-2.21zM114.39 244.35a.94.94 0 0 0-1.88 0v2.21h-2.21a.94.94 0 0 0 0 1.88h2.21v2.21a.94.94 0 0 0 1.88 0v-2.21h2.21a.94.94 0 1 0 0-1.88h-2.21zM219.74 59.2a.94.94 0 1 0-1.88 0v2.2h-2.21a.94.94 0 1 0 0 1.88h2.21v2.21a.94.94 0 0 0 1.88 0v-2.21H222a.94.94 0 0 0 0-1.88h-2.21zM74 146.12a.94.94 0 1 0-1.88 0v2.21h-2.26a.94.94 0 1 0 0 1.88h2.21v2.21a.94.94 0 1 0 1.88 0v-2.21h2.21a.94.94 0 0 0 0-1.88H74zM59.05 53.54a.94.94 0 0 0-1.88 0v2.21H55a.94.94 0 0 0 0 1.88h2.21v2.21a.94.94 0 0 0 1.88 0v-2.21h2.21a.94.94 0 0 0 0-1.88h-2.25zM9 234.44a.94.94 0 0 0-1.88 0v2.21H5a.94.94 0 0 0 0 1.88h2.16v2.21a.94.94 0 0 0 1.88 0v-2.21h2.21a.94.94 0 1 0 0-1.88H9zM463.42 155.7a.94.94 0 0 0-1.88 0v2.21h-2.21a.94.94 0 0 0 0 1.88h2.21V162a.94.94 0 0 0 1.88 0v-2.21h2.21a.94.94 0 0 0 0-1.88h-2.21zM475.13 278.07a.94.94 0 0 0-1.88 0v2.21H471a.94.94 0 1 0 0 1.88h2.21v2.21a.94.94 0 1 0 1.88 0v-2.21h2.21a.94.94 0 1 0 0-1.88h-2.21z"></path><path class="cls-10" d="M243.11 196.42a.94.94 0 1 0-1.88 0v2.21H239a.94.94 0 0 0 0 1.88h2.21v2.21a.94.94 0 0 0 1.88 0v-2.21h2.21a.94.94 0 0 0 0-1.88h-2.21zM175 127.26a.94.94 0 1 0-1.88 0v2.21h-2.21a.94.94 0 0 0 0 1.88h2.21v2.21a.94.94 0 0 0 1.88 0v-2.21h2.21a.94.94 0 0 0 0-1.88H175zM298.44 142.15a.94.94 0 0 0-1.88 0v2.21h-2.21a.94.94 0 1 0 0 1.88h2.21v2.21a.94.94 0 0 0 1.88 0v-2.21h2.21a.94.94 0 1 0 0-1.88h-2.21zM359.09 333.7a.94.94 0 1 0-1.87 0v2.21H355a.94.94 0 0 0 0 1.88h2.21V340a.94.94 0 1 0 1.87 0v-2.21h2.22a.94.94 0 0 0 0-1.88h-2.22zM487.85 332.63a.94.94 0 1 0-1.88 0v2.21h-2.2a.94.94 0 1 0 0 1.88H486v2.21a.94.94 0 0 0 1.88 0v-2.21h2.21a.94.94 0 0 0 0-1.88h-2.21z"></path></g></svg> 