<?xml version="1.0" encoding="UTF-8"?> <svg xmlns="http://www.w3.org/2000/svg" viewBox="0 0 570 440"><defs><style>.cls-20{fill:#e1e7f4}.cls-2,.cls-3{fill-rule:evenodd}.cls-2{fill:#bfcbe5}.cls-12,.cls-3{fill:#fff}.cls-4,.cls-6{opacity:.24}.cls-5{fill:#d76646}.cls-6,.cls-7{fill:#91b3e1}.cls-24{fill:none;stroke-miterlimit:10}.cls-11{opacity:.53}.cls-13{fill:#d7a895}.cls-14{fill:#20242f}.cls-15{fill:#0a0c0d}.cls-16{fill:#c48f7d}.cls-17{fill:#2d323a}.cls-18{fill:#344456}.cls-19{fill:#d7588e}.cls-21{fill:#d7dbe5}.cls-22{fill:#88aedf}.cls-24{stroke:#2d323a;stroke-width:.5px}.cls-25{fill:#344457}.cls-28{fill:#e3ae46}.cls-29{fill:#d18f47}.cls-33{fill:#242738}</style></defs><g id="Слой_3" data-name="Слой 3"><path d="M115.79 296.91h-42a42.76 42.76 0 0 0-42.63 42.63 42.76 42.76 0 0 0 42.63 42.62H488a69.23 69.23 0 0 0 69-69 69.23 69.23 0 0 0-69-69 29.27 29.27 0 0 1-29.18-29.19A29.26 29.26 0 0 1 488 185.75h35.13a30.43 30.43 0 0 0 30.34-30.35 30.43 30.43 0 0 0-30.34-30.34h-44.42a11.85 11.85 0 0 1-11.81-11.81 11.85 11.85 0 0 1 11.81-11.81h7.83a8.18 8.18 0 0 0 8.16-8.16 8.18 8.18 0 0 0-8.16-8.15h-51.37c-10.82 0-12 12.78-39.36 12.78h-78.75a10.67 10.67 0 0 0-10.64 10.64 10.67 10.67 0 0 0 10.64 10.64h10.22a15.46 15.46 0 0 1 15.41 15.41 15.46 15.46 0 0 1-15.41 15.4H311.9c-41.51 0-47.38 10.85-54.65 32.43s-45 23.32-45 23.32H110A23.29 23.29 0 0 0 86.79 229 23.3 23.3 0 0 0 110 252.23h5.77a22.41 22.41 0 0 1 22.34 22.34 22.41 22.41 0 0 1-22.34 22.34zm393.63-195.47a8.16 8.16 0 1 1 8.15-8.16 8.15 8.15 0 0 1-8.15 8.16z" fill-rule="evenodd" fill="#e1e7f4"></path><path class="cls-2" d="M36.7 188.68a12.81 12.81 0 0 0-4.09-2.68 12.65 12.65 0 0 0-9.61 0 12.81 12.81 0 0 0-4.09 2.73 12.59 12.59 0 0 0 13.71 20.53 12.57 12.57 0 0 0 6.82-6.82 12.65 12.65 0 0 0 0-9.62 12.81 12.81 0 0 0-2.73-4.09zM32.17 187a11.2 11.2 0 0 1 3.7 2.48 11.39 11.39 0 0 1 0 16.14 11.2 11.2 0 0 1-3.7 2.48 11.41 11.41 0 0 1-8.74 0 11.5 11.5 0 0 1-6.18-6.1 11.41 11.41 0 0 1 0-8.74 11.5 11.5 0 0 1 6.18-6.26 11.41 11.41 0 0 1 8.74 0zm1.39-9.26a20.61 20.61 0 0 1 4.54 1.94 19.56 19.56 0 0 1 2.1 1.39 23 23 0 0 1 1.92 1.63 1.3 1.3 0 0 0 1.57.19c1.85-1.06 3.79-2.12 5.6-3.23a.92.92 0 0 1 .27-.08.8.8 0 0 1 .31 0 .92.92 0 0 1 .28.14.93.93 0 0 1 .21.23c1.35 2 2.7 4.67 3.94 6.83a.72.72 0 0 1 .1.29.69.69 0 0 1 0 .32.74.74 0 0 1-.14.28.77.77 0 0 1-.23.21c-1.66 1.1-3.8 2.2-5.57 3.22a1.28 1.28 0 0 0-.55.62.92.92 0 0 0-.08.27h-.12l.13.52a21.575 21.575 0 0 1 .57 3.72c.03.42 0 .82 0 1.26v1.27c0 .41-.07.83-.12 1.25s-.11.84-.19 1.24-.16.81-.26 1.22a1.29 1.29 0 0 0 .08.87 1.33 1.33 0 0 0 .6.62l4.93 2.84.59.33a.93.93 0 0 1 .23.21.74.74 0 0 1 .14.28.7.7 0 0 1 0 .32.63.63 0 0 1-.1.29l-3.64 6.32-.29.51a.93.93 0 0 1-.21.23.74.74 0 0 1-.28.14.69.69 0 0 1-.32 0 .76.76 0 0 1-.28-.09c-1.77-1.11-3.76-2.17-5.58-3.22a1.34 1.34 0 0 0-.82-.17 1.29 1.29 0 0 0-.75.36 21.2 21.2 0 0 1-1.92 1.63 19.56 19.56 0 0 1-2.1 1.39 20.34 20.34 0 0 1-2.24 1.12 22.72 22.72 0 0 1-2.36.84 1.32 1.32 0 0 0-1 1.27v6.43a.73.73 0 0 1-.06.3.9.9 0 0 1-.17.26 1.1 1.1 0 0 1-.26.18 1.06 1.06 0 0 1-.31.05h-7.87a.94.94 0 0 1-.3-.05 1 1 0 0 1-.26-.18.62.62 0 0 1-.17-.26.73.73 0 0 1-.06-.3v-6.43a1.34 1.34 0 0 0-1-1.29 21.3 21.3 0 0 1-2.32-.82 20.2 20.2 0 0 1-2.23-1.12 20.48 20.48 0 0 1-2.09-1.39 18.77 18.77 0 0 1-1.92-1.63 1.23 1.23 0 0 0-.79-.36 1.28 1.28 0 0 0-.85.21l-5.51 3.18a.75.75 0 0 1-.29.09.7.7 0 0 1-.32 0 .82.82 0 0 1-.28-.14.74.74 0 0 1-.2-.23c-1.31-2.28-2.64-4.55-3.95-6.83a1 1 0 0 1-.1-.29.87.87 0 0 1 0-.32.72.72 0 0 1 .13-.28.77.77 0 0 1 .23-.21L7.15 204a1.31 1.31 0 0 0 .56-.63 1 1 0 0 0 .07-.21h.14l-.14-.59c-.1-.41-.19-.81-.27-1.22s-.13-.81-.18-1.24-.09-.84-.12-1.25 0-.83 0-1.27v-1.26c0-.4.06-.83.11-1.25s.12-.86.19-1.25.17-.81.27-1.22a1.34 1.34 0 0 0-.68-1.49l-5.52-3.18a.87.87 0 0 1-.23-.2.7.7 0 0 1-.13-.29.82.82 0 0 1 0-.31 1.18 1.18 0 0 1 .1-.3c1.35-2 2.7-4.68 4-6.83a.74.74 0 0 1 .2-.23 1 1 0 0 1 .28-.14.7.7 0 0 1 .32 0 .63.63 0 0 1 .29.1l5.58 3.21a1.23 1.23 0 0 0 .83.17 1.4 1.4 0 0 0 .76-.37 20 20 0 0 1 4-3 19.64 19.64 0 0 1 2.25-1.12 21.92 21.92 0 0 1 2.36-.84 1.34 1.34 0 0 0 .69-.47 1.29 1.29 0 0 0 .26-.79v-6.44a1 1 0 0 1 .05-.3.87.87 0 0 1 .18-.26.78.78 0 0 1 .26-.17.73.73 0 0 1 .3-.06h7.89a.81.81 0 0 1 .31.06 1.06 1.06 0 0 1 .26.17.83.83 0 0 1 .23.56v6.44a1.35 1.35 0 0 0 .28.81 1.39 1.39 0 0 0 .74.47zm2.77-.24a19.78 19.78 0 0 1 2.35 1.17 21.33 21.33 0 0 1 2.22 1.47 20.72 20.72 0 0 1 2 1.73h.09a.16.16 0 0 0 .1 0l5.62-3.25a2 2 0 0 1 .7-.22 1.85 1.85 0 0 1 .74.06 1.87 1.87 0 0 1 1.19.91c1.36 2.2 2.65 4.58 4 6.83a2.18 2.18 0 0 1 .25.73 1.93 1.93 0 0 1-.06.76 2 2 0 0 1-.33.69 2.2 2.2 0 0 1-.58.51c-1.79 1.1-3.73 2.15-5.57 3.21a.13.13 0 0 0-.06.07.17.17 0 0 0 0 .1l.13.52c.06.26.11.51.16.77.08.45.15.89.2 1.32s.09.86.12 1.32 0 .9 0 1.33v1.33c0 .45-.07.9-.12 1.32s-.12.87-.2 1.32-.18.87-.28 1.29a.12.12 0 0 0 0 .1.14.14 0 0 0 0 .11c2 1.09 4.12 2.37 6.15 3.54l-.08.09.07.08a2 2 0 0 1 .33.69 1.93 1.93 0 0 1 .06.76 2.11 2.11 0 0 1-.25.73l-4.24 7.34h-.08l-.13.11a2.22 2.22 0 0 1-.69.34 2.14 2.14 0 0 1-.76.05 2.06 2.06 0 0 1-.71-.24c-1.85-1-3.76-2.17-5.6-3.23a.13.13 0 0 0-.09 0 .12.12 0 0 0-.09 0 22.43 22.43 0 0 1-4.23 3.19 22.11 22.11 0 0 1-4.87 2.07l-.08.05a.12.12 0 0 0 0 .1v6.43a2.13 2.13 0 0 1-.15.75 2 2 0 0 1-.43.63 2 2 0 0 1-.64.43 1.86 1.86 0 0 1-.75.15h-7.89a1.93 1.93 0 0 1-.75-.15 2.08 2.08 0 0 1-.63-.43 2 2 0 0 1-.43-.63 1.93 1.93 0 0 1-.15-.75v-6.43a.15.15 0 0 0 0-.1.11.11 0 0 0-.09-.05 23.38 23.38 0 0 1-2.48-.88 22.58 22.58 0 0 1-2.36-1.18 22.93 22.93 0 0 1-4.24-3.19.16.16 0 0 0-.09-.05.19.19 0 0 0-.1 0l-5.57 3.21a1.94 1.94 0 0 1-.72.25 2.21 2.21 0 0 1-.77-.05 2 2 0 0 1-.68-.34 1.92 1.92 0 0 1-.5-.56c-1.46-2.35-2.84-4.93-4.24-7.35h.07v-.19a2.14 2.14 0 0 1 0-.76 2 2 0 0 1 .34-.69 2 2 0 0 1 .57-.5L6.58 203l.06-.07a.17.17 0 0 0 0-.1l-.15-.59c0-.23-.1-.46-.14-.7-.08-.45-.15-.88-.2-1.32s-.09-.86-.12-1.32 0-.9 0-1.33v-1.33c0-.45.07-.9.12-1.33s.12-.86.2-1.31.18-.87.28-1.29a.17.17 0 0 0 0-.1.16.16 0 0 0-.07-.07L1 188.93a1.84 1.84 0 0 1-.57-.5 2 2 0 0 1-.34-.69A2.14 2.14 0 0 1 0 187a1.93 1.93 0 0 1 .24-.71c1.32-2.46 2.84-4.93 4.25-7.36l.07.05.14-.12a2 2 0 0 1 .68-.33 1.82 1.82 0 0 1 .77 0 1.86 1.86 0 0 1 .72.24l.41.23 5.17 3a.18.18 0 0 0 .1 0h.09a22.33 22.33 0 0 1 2-1.72 21.5 21.5 0 0 1 2.2-1.46 21.79 21.79 0 0 1 2.37-1.18 23.92 23.92 0 0 1 2.5-.89.14.14 0 0 0 .08 0 .16.16 0 0 0 0-.09v-6.44a1.85 1.85 0 0 1 .15-.74 1.9 1.9 0 0 1 .43-.64 2.08 2.08 0 0 1 .63-.43 2.13 2.13 0 0 1 .75-.15h7.89a2 2 0 0 1 .75.15 2 2 0 0 1 .64.43 1.92 1.92 0 0 1 .58 1.38v6.44a.14.14 0 0 0 0 .09.16.16 0 0 0 .08.06 19.64 19.64 0 0 1 2.64.72zM101.85 187.15zm-2.78-10.57a5.32 5.32 0 1 0 1.57 3.78 5.31 5.31 0 0 0-1.57-3.78zm-1.15-5.29a9 9 0 0 1 2.09.89 9.22 9.22 0 0 1 1.84 1.38.32.32 0 0 0 .39.05l2.48-1.43a.62.62 0 0 1 .46 0 .64.64 0 0 1 .37.28l1.75 3a.65.65 0 0 1 .06.47.63.63 0 0 1-.29.37l-2.46 1.43a.31.31 0 0 0-.15.36 8.07 8.07 0 0 1 .2 1.13 8.66 8.66 0 0 1 .07 1.15 8.77 8.77 0 0 1-.07 1.15 8.19 8.19 0 0 1-.2 1.12.32.32 0 0 0 .17.38l2.46 1.42a.63.63 0 0 1 .29.37.65.65 0 0 1-.06.47l-1.76 3a.66.66 0 0 1-.37.29.64.64 0 0 1-.47-.06l-2.46-1.43a.33.33 0 0 0-.39.05 9.22 9.22 0 0 1-1.84 1.38 9 9 0 0 1-2.11.9.32.32 0 0 0-.23.31v2.87a.57.57 0 0 1-.19.43.6.6 0 0 1-.43.18h-3.53a.6.6 0 0 1-.43-.18.57.57 0 0 1-.19-.43v-2.87a.31.31 0 0 0-.25-.31 9.49 9.49 0 0 1-2.09-.9 9.22 9.22 0 0 1-1.84-1.38.32.32 0 0 0-.4 0l-2.47 1.43a.64.64 0 0 1-.47.06.66.66 0 0 1-.37-.29l-1.75-3a.65.65 0 0 1-.06-.47.63.63 0 0 1 .29-.37L86 183a.32.32 0 0 0 .15-.36 8.62 8.62 0 0 1-.2-1.13 8.77 8.77 0 0 1-.07-1.15 8.66 8.66 0 0 1 .07-1.15 8.07 8.07 0 0 1 .2-1.13.31.31 0 0 0-.17-.37l-2.46-1.43a.63.63 0 0 1-.29-.37.65.65 0 0 1 .06-.47l1.75-3a.64.64 0 0 1 .37-.28.59.59 0 0 1 .47.06l2.48 1.43a.33.33 0 0 0 .4-.05 9.16 9.16 0 0 1 1.83-1.38 9.65 9.65 0 0 1 2.11-.9.32.32 0 0 0 .23-.31v-2.86a.6.6 0 0 1 .19-.44.6.6 0 0 1 .43-.18h3.51a.6.6 0 0 1 .43.18.6.6 0 0 1 .19.44V171a.33.33 0 0 0 .24.29zM3.65 301.07a.92.92 0 0 1 1.83 0v2.16h2.16a.92.92 0 0 1 0 1.83H5.48v2.15a.92.92 0 1 1-1.83 0v-2.15H1.5a.92.92 0 1 1 0-1.83h2.15zM132.63 153.15a.92.92 0 1 1 1.83 0v2.15h2.16a.92.92 0 0 1 0 1.83h-2.16v2.16a.92.92 0 0 1-1.83 0v-2.16h-2.15a.92.92 0 1 1 0-1.83h2.15zM191 58.25a.92.92 0 0 1 1.83 0v2.16H195a.92.92 0 1 1 0 1.83h-2.2v2.15a.92.92 0 1 1-1.83 0v-2.15h-2.16a.92.92 0 0 1 0-1.83H191zM318.53 54.37a.92.92 0 1 1 1.83 0v2.15h2.15a.92.92 0 1 1 0 1.83h-2.15v2.16a.92.92 0 0 1-1.83 0v-2.16h-2.15a.92.92 0 1 1 0-1.83h2.15zM19.85 379.49a.92.92 0 0 1 1.83 0v2.16h2.15a.92.92 0 1 1 0 1.83h-2.15v2.15a.92.92 0 1 1-1.83 0v-2.15h-2.16a.92.92 0 0 1 0-1.83h2.16zM454.65 121.26a.92.92 0 1 1 1.83 0v2.15h2.15a.92.92 0 1 1 0 1.83h-2.15v2.16a.92.92 0 0 1-1.83 0v-2.16h-2.16a.92.92 0 0 1 0-1.83h2.16z"></path><path class="cls-3" d="M471 58.25a.92.92 0 0 1 1.83 0v2.16H475a.92.92 0 0 1 0 1.83h-2.16v2.15a.92.92 0 1 1-1.83 0v-2.15h-2.15a.92.92 0 1 1 0-1.83H471zM550.32 101.31a.92.92 0 0 1 1.83 0v2.15h2.16a.92.92 0 0 1 0 1.84h-2.16v2.15a.92.92 0 1 1-1.83 0v-2.15h-2.15a.92.92 0 1 1 0-1.84h2.15zM563.54 356.44a.92.92 0 1 1 1.83 0v2.15h2.16a.92.92 0 0 1 0 1.83h-2.16v2.16a.92.92 0 0 1-1.83 0v-2.16h-2.15a.92.92 0 1 1 0-1.83h2.15zM565.1 247.54a.92.92 0 0 1 1.83 0v2.15h2.15a.92.92 0 1 1 0 1.84h-2.15v2.15a.92.92 0 1 1-1.83 0v-2.15H563a.92.92 0 1 1 0-1.84h2.15z"></path><g class="cls-4"><path class="cls-5" d="M229.53 346.75a56.6 56.6 0 0 1 2.37-33c.15-.39-.47-.55-.62-.17a57.23 57.23 0 0 0-2.37 33.33c.09.4.71.23.62-.17z"></path><path class="cls-5" d="M231.91 314.1a36.15 36.15 0 0 1 12-23.21c1.84-1.62 4-3.25 6.54-3.49 1.73-.16 3.62.46 4 2.35a5.76 5.76 0 0 1-.8 3.79c-2.17 4-6.61 6.83-10 9.72-4.14 3.49-8.25 7-12.29 10.61-.31.27.14.73.45.45 4.4-3.91 8.88-7.74 13.39-11.52 3.54-3 9.07-6.36 9.91-11.34s-4.39-5.45-7.75-3.77c-4.38 2.19-8 6.51-10.57 10.57a36.93 36.93 0 0 0-5.53 15.84c0 .41.6.4.64 0z"></path><path class="cls-5" d="M231.41 314.1a63.1 63.1 0 0 0-4.68-17.65c-2.44-5.66-6.15-10.62-8.65-16.23-1.27-2.85-3-7.06-1.38-10.07 2.21-4.21 6.68-1.08 8.44 1.75a26.24 26.24 0 0 1 2.8 7.84c.81 3.42 1.59 6.85 2.23 10.3 1.46 7.94 2 16 .61 24-.07.4.55.58.62.17a66.21 66.21 0 0 0-.3-22.51c-.65-3.86-1.5-7.68-2.4-11.48-.69-2.95-1.39-6-3-8.62-1.21-1.94-3.3-4.13-5.76-4.18s-4.08 2.18-4.39 4.41c-.43 3 .86 6.29 2.09 9 1.43 3.12 3.29 6 5 9a63.27 63.27 0 0 1 8.13 24.32c0 .4.69.41.64 0z"></path><path class="cls-5" d="M229.11 321.3c-8.31-5.51-15.35-15.43-16.31-25.5a23 23 0 0 1 .58-7.89c.41-1.59 1.21-3.94 3.25-2.73a9.24 9.24 0 0 1 3 3.35 32.39 32.39 0 0 1 2.88 7.39c.8 2.62 1.47 5.27 2.09 7.93 1.37 5.93 2.48 11.92 4 17.81a.32.32 0 0 0 .61-.17c-1.64-6.28-2.79-12.68-4.3-19-.76-3.16-1.61-6.29-2.65-9.37a20.6 20.6 0 0 0-3.68-7.09c-1.12-1.28-3.05-2.83-4.59-1.21s-1.72 4.61-1.89 6.66a28.65 28.65 0 0 0 3.9 16.26 41.34 41.34 0 0 0 12.74 14.1c.35.23.67-.33.33-.55zM240.16 346.68a158.51 158.51 0 0 0 1.84-48.55c-.05-.41-.69-.41-.64 0a158 158 0 0 1-1.85 48.38c-.08.4.54.57.62.17z"></path><path class="cls-5" d="M243.15 309.76a50.17 50.17 0 0 1-12.6-32.51 46.38 46.38 0 0 1 .72-9 6.69 6.69 0 0 1 1.55-3.74c2.11-2 3.78 1.11 4.36 2.8 2.12 6.24 2.69 13.23 3.37 19.74.8 7.62 1.29 15.27 2.06 22.89 0 .41.68.41.64 0-.8-7.92-1.3-15.87-2.16-23.78-.4-3.77-.89-7.53-1.54-11.26-.56-3.19-.91-7.15-2.71-9.94-1.08-1.66-3.11-2.36-4.6-.76-1.74 1.87-1.85 5.07-2.09 7.47a50.59 50.59 0 0 0 12.55 38.5c.28.31.73-.14.45-.45zM243.06 317.92c3.21-5.38 4.4-11.58 4.78-17.77.46-7.42-.46-15.08.82-22.44.31-1.75 1-3.63 3-4 2.17-.42 4 1.17 5 3 1.55 2.85 2.19 6.54 2.77 9.71a34.32 34.32 0 0 1-2.21 19.25c-1.2 2.92-2.69 6.66-5.22 8.69a16.07 16.07 0 0 1-9.13 3.12c-.41 0-.41.66 0 .64a18 18 0 0 0 8.1-2.29c2.55-1.46 4-3.91 5.26-6.48 3.15-6.22 5-13.17 4.24-20.16a49.61 49.61 0 0 0-2.44-10.89c-.87-2.49-2.57-5.11-5.49-5.25s-4.11 2.53-4.48 5a89.37 89.37 0 0 0-.58 12.67c0 9.16 0 18.79-4.88 26.9a.32.32 0 0 0 .55.33z"></path><path class="cls-5" d="M242.66 306c5.38-15.19-.56-31.05 0-46.57.1-2.85.26-12.22 5.48-8.89 3.24 2.07 4.67 6.93 5.46 10.45a64.35 64.35 0 0 1 .48 23.56c-.63 4.1-1.37 8.81-3.34 12.5s-5.28 6.24-8.55 8.59c-.33.24 0 .79.32.55a31.87 31.87 0 0 0 7.76-7.16c2.32-3.29 3.15-7.53 3.92-11.41a68 68 0 0 0 .34-25.2c-.67-3.72-1.81-7.58-4.17-10.61-1.56-2-4.68-3.9-6.66-1.3a8.09 8.09 0 0 0-1.25 3.88 49.93 49.93 0 0 0-.47 6.91 120.73 120.73 0 0 0 1.07 14.33c1.18 10 2.45 20.45-1 30.2-.13.39.48.56.62.17z"></path></g><g class="cls-4"><path class="cls-5" d="M138.73 348.49c1.53-15.22-8-28.67-13.35-42.23a162.68 162.68 0 0 1-10.94-48.8c-.46-7.12-.37-15.62 4.73-21.24 2.91-3.2 7.25-3.89 10.27-.42 2.68 3.09 2.6 7.45 2.51 11.3-.38 16.79-.9 33.6 3.44 50 2.4 9.09 5.08 18 6.4 27.35 1.14 8.05 1.42 17-3.65 23.89-.25.33.31.65.55.32 4.31-5.82 4.82-13.27 4.2-20.26a137.89 137.89 0 0 0-5.18-25.4 129 129 0 0 1-5-26.79c-.61-9.09-.35-18.21-.12-27.31.09-3.72.44-7.76-1.15-11.24-1.13-2.49-3.44-4.72-6.27-4.95-7-.58-10.35 8.78-11.12 14.2-1.1 7.75.07 15.95 1.2 23.63a163.77 163.77 0 0 0 6 25.68c2.79 8.81 6.6 17.06 10.45 25.43s7.43 17.36 6.48 26.8c0 .41.6.41.64 0z"></path><path class="cls-5" d="M139.12 348c1.86-6 1.56-12.32.56-18.41a115.4 115.4 0 0 0-5.22-19.41c-2.37-6.73-5.09-13.34-7.12-20.18a106.52 106.52 0 0 1-4-21.25 108.5 108.5 0 0 1 .71-24.56c.06-.41-.56-.58-.62-.17a109 109 0 0 0 2 41.26c3.33 13.58 9.68 26.17 12.75 39.84 1.65 7.39 2.66 15.34.35 22.71-.12.39.5.56.62.17z"></path><path class="cls-5" d="M139.09 347.15c7.79-13.68 9.6-29.16 7.89-44.63a196.49 196.49 0 0 0-4.33-23.32c-1.92-8.19-3.21-16.26-1-24.54 1.81-6.72 6.54-15.82 15-14.4 3.57.6 5.85 3.52 6.63 6.89s.13 6.94-.93 10.27c-1.14 3.56-2.66 7-3.24 10.72a46.86 46.86 0 0 0 0 11.29 178.53 178.53 0 0 1 .19 24.91c-.47 8.74-1.43 17.61-5 25.68-3.14 7-8.22 13.65-15.5 16.66-.38.15-.21.77.17.61 13.49-5.57 18.86-21.32 20.36-34.67a169 169 0 0 0 1-26.42c-.19-4.29-.82-8.56-.85-12.85a36.48 36.48 0 0 1 2.45-12.51c2-5.69 4.28-12.89 0-18.21-4.11-5.13-11.57-3.25-15.47 1.07-4.91 5.44-6.71 13.86-6.64 21 .09 8.44 2.9 16.68 4.54 24.89 1.94 9.74 3.2 19.72 2.51 29.66a64.7 64.7 0 0 1-8.26 27.59c-.21.36.35.69.55.33z"></path><path class="cls-5" d="M139.46 347c7.12-8.88 12.5-20.16 13.7-31.55.74-7 0-14.24-.26-21.27-.29-7.2-.62-14.4-.86-21.6-.24-6.81-.13-14.16 4.16-19.84.25-.32-.3-.64-.55-.32-3.38 4.47-4.23 10.08-4.32 15.55-.1 6.82.43 13.68.7 20.49.29 7.19.79 14.4.75 21.59a52.25 52.25 0 0 1-3.44 18.21A67.18 67.18 0 0 1 139 346.59c-.26.31.19.77.45.45zM135.17 349.43c-.46-4.92-3.16-9.18-6.09-13-3.17-4.15-6.73-7.9-10.23-11.76a73.12 73.12 0 0 1-9.95-14.1c-2.7-4.93-5.65-9.92-6.55-15.54a46.69 46.69 0 0 1-.39-9c.11-2.92.06-6.26 1.62-8.85s4.89-4 7.44-1.78c2.35 2 2.68 5.2 2.89 8.08.79 10.78 4.9 20.61 9.78 30.14 5.57 10.87 13.4 22.94 10.85 35.74-.08.41.54.58.62.18 2.27-11.41-3.64-22.4-8.79-32.15-5.72-10.85-10.89-21.81-11.84-34.2-.3-3.84-1.67-9.94-6.77-9.56s-6.11 6.37-6.34 10.37c-.34 5.86-.25 11.85 2 17.35a99 99 0 0 0 8.44 15.55c3.63 5.55 8.41 10.09 12.72 15.08s9.26 10.73 9.9 17.49c0 .41.68.41.64 0z"></path><path class="cls-5" d="M135.17 349a64.06 64.06 0 0 0-9.06-25.92c-5-8.11-12.15-14.93-15.31-24.12a37.33 37.33 0 0 1-1.65-17.07c.06-.4-.56-.58-.61-.17a38.65 38.65 0 0 0 6.12 26.41c2.55 3.94 5.55 7.55 8.27 11.36a65 65 0 0 1 7.31 13.08 63.48 63.48 0 0 1 4.29 16.43c.05.41.69.41.64 0z"></path></g><g class="cls-4"><path class="cls-5" d="M442.5 354.48a73.64 73.64 0 0 1 2.83-46.31c.13-.33-.39-.47-.52-.14a74.09 74.09 0 0 0-2.81 46.59.27.27 0 0 0 .53-.14z"></path><path class="cls-5" d="M442.07 317.51a37.58 37.58 0 0 1-4.07-11.33 7 7 0 0 1-.24-1.75c.14-1.12.78-1.36 1.61-1.58a11.89 11.89 0 0 0 2-.49c.66-.31 1.46-.95 1.3-1.79-.19-1-1.59-1.78-2.35-2.26-1.72-1.1-2.94-2.34-2.84-4.54a10.16 10.16 0 0 1 2.33-5.27 3 3 0 0 1 1.62-1.43 3.67 3.67 0 0 1 2-.09l3.47.46a.29.29 0 0 0 .26-.2c.83-2.53-2.75-3.73-3.7-5.58-.66-1.28.45-2.25 1.29-3.09l3-3.07c1.73-1.74 3.44-3.5 5.24-5.17 3.42-3.16 7.79-6.62 12.64-6.94 7-.47 4.79 7.78 3.55 11.77-.87 2.8-1.94 5.52-3.06 8.22l-1.08 2.56c-.34.79-.57 1.91-1.61 2.06a8.94 8.94 0 0 1-2.27-.32l-2.52-.37c-.13 0-.31 0-.33.19-.18 1.32.7 2.25 1.56 3.14.55.56 1.41 1.25 1.5 2.08.13 1.07-1.92 2.22-2.58 3-1.4 1.74-2.05 3.91-3.16 5.82-1.55 2.68-4.26.73-6.5 1.94a.27.27 0 0 0 0 .47c1.38.64 3.19 1.9 3.64 3.45.36 1.22-2.51 2.94-3.38 3.64-2.63 2.09-5.35 4.06-7.79 6.39-.25.24.14.62.39.38 3.63-3.46 7.89-6.16 11.53-9.61a.29.29 0 0 0 .07-.27 8.07 8.07 0 0 0-4.18-4.45v.52c1.95-1.05 4.47.6 6.12-1.3s2.13-4.85 3.9-6.85c1-1.1 3.09-1.89 2.34-3.7-.65-1.58-3.19-2.58-2.94-4.49l-.33.19 3.52.52a3.89 3.89 0 0 0 2.19.07c.69-.35.91-1.32 1.19-2 .49-1.13 1-2.26 1.44-3.4 1.79-4.32 3.8-9 4.27-13.72.34-3.36-1.14-6.44-4.87-6.5-3.91-.06-7.78 2.32-10.74 4.64a110.7 110.7 0 0 0-10.22 9.75c-1 1-2.79 2.22-2.62 3.82a4.58 4.58 0 0 0 1.85 2.64 18.54 18.54 0 0 1 1.38 1.27 3.57 3.57 0 0 1 .65.89 1.45 1.45 0 0 1 .15.5c0 .59 0 .37-.37.48a5.86 5.86 0 0 1-1.87-.24c-.62-.08-1.24-.18-1.86-.25a2.58 2.58 0 0 0-2.31.61 12.68 12.68 0 0 0-3.11 5.2 5.7 5.7 0 0 0 .43 4.57 5.93 5.93 0 0 0 1.8 1.69c.4.26.81.49 1.2.76a6.28 6.28 0 0 1 .77.59c.53.5.66.6.33 1.33-.58 1.31-2.05 1-3.21 1.45a2.07 2.07 0 0 0-1.16 1c-.43.9-.06 2.11.11 3a37.34 37.34 0 0 0 1 4 39.33 39.33 0 0 0 3.11 7.21c.17.3.64 0 .47-.28zM429.1 350.12a54.72 54.72 0 0 0-2.1-34.4c-.1-.24.29-.35.39-.11a55.06 55.06 0 0 1 2.1 34.62.2.2 0 0 1-.39-.11z"></path><path class="cls-5" d="M429.42 322.66a28.07 28.07 0 0 0 3.05-8.42 5.29 5.29 0 0 0 .18-1.3c-.1-.83-.58-1-1.19-1.17a8.87 8.87 0 0 1-1.52-.37c-.49-.23-1.08-.7-1-1.33s1.17-1.32 1.74-1.68c1.28-.81 2.18-1.74 2.11-3.37a7.53 7.53 0 0 0-1.73-3.92 2.23 2.23 0 0 0-1.2-1.06 2.79 2.79 0 0 0-1.49-.06l-2.58.33c-.09 0-.17-.07-.19-.14-.62-1.88 2-2.77 2.75-4.15.48-.95-.34-1.67-1-2.3l-2.26-2.27c-1.29-1.3-2.55-2.61-3.89-3.84-2.54-2.35-5.79-4.92-9.39-5.16-5.2-.35-3.56 5.78-2.64 8.74.64 2.08 1.44 4.11 2.27 6.11l.81 1.9c.25.59.42 1.43 1.19 1.54a6.65 6.65 0 0 0 1.69-.25l1.87-.27a.2.2 0 0 1 .25.14 2.85 2.85 0 0 1-1.17 2.33c-.4.42-1 .93-1.11 1.55-.09.79 1.43 1.65 1.92 2.25a33.38 33.38 0 0 1 2.35 4.32c1.15 2 3.16.55 4.82 1.45a.2.2 0 0 1 0 .35 5 5 0 0 0-2.7 2.56c-.27.91 1.87 2.18 2.51 2.7 1.95 1.55 4 3 5.79 4.75.19.18-.1.46-.29.28-2.69-2.57-5.86-4.58-8.57-7.14a.22.22 0 0 1-.05-.19 5.94 5.94 0 0 1 3.11-3.31v.35c-1.45-.79-3.32.44-4.55-1s-1.58-3.6-2.9-5.09c-.72-.81-2.29-1.4-1.74-2.75.49-1.17 2.38-1.91 2.19-3.33l.24.14-2.61.38a2.92 2.92 0 0 1-1.63.05c-.51-.26-.68-1-.89-1.46-.36-.84-.71-1.68-1.06-2.52-1.33-3.22-2.83-6.7-3.18-10.19-.25-2.5.85-4.79 3.62-4.84s5.78 1.73 8 3.45a83.75 83.75 0 0 1 7.59 7.25c.73.73 2.07 1.64 1.94 2.83a3.42 3.42 0 0 1-1.37 2 13 13 0 0 0-1 .94 2.43 2.43 0 0 0-.48.66.94.94 0 0 0-.11.37c0 .44 0 .27.27.36a4.5 4.5 0 0 0 1.39-.18c.46-.06.92-.14 1.39-.18a1.92 1.92 0 0 1 1.71.44 9.45 9.45 0 0 1 2.31 3.87 4.18 4.18 0 0 1-.32 3.39 4.25 4.25 0 0 1-1.34 1.26c-.29.19-.6.36-.89.57a4.73 4.73 0 0 0-.57.43c-.39.38-.49.45-.24 1 .43 1 1.52.71 2.38 1.08a1.52 1.52 0 0 1 .86.75 3.84 3.84 0 0 1-.08 2.25c-.2 1-.45 2-.75 3a28.81 28.81 0 0 1-2.31 5.35.2.2 0 0 1-.35-.2z"></path></g><ellipse class="cls-6" cx="276.36" cy="356.03" rx="191.02" ry="10.08"></ellipse><path class="cls-7" d="M318.39 143.29l-.83-.62 23.79-31.81 21 20.96 26.64-40.08 22.28 28.08 28.68-29.39h44.71v1.03h-44.27l-29.2 29.93-22.13-27.89-26.55 39.95-21.05-21.01-23.07 30.85z"></path><path stroke="#91b3e1" fill="none" stroke-miterlimit="10" opacity=".24" d="M191.34 80.96h107.22v61.87H191.34z"></path><path class="cls-6" d="M193.34 87.78h6.73v55.04h-6.73zM204.02 97.35h6.73v45.48h-6.73zM214.69 111.89h6.73v30.94h-6.73zM225.36 102.46h6.73v40.37h-6.73zM236.04 121.95h6.73v20.88h-6.73zM246.71 132.39h6.73v10.44h-6.73zM257.38 111.89h6.73v30.94h-6.73zM268.05 96.73h6.73v46.09h-6.73zM278.73 87.78h6.73v55.04h-6.73zM289.4 105.7h6.73v37.12h-6.73z"></path><path class="cls-7" d="M352.51 75.83l-2-1.94-1.91 1A11.3 11.3 0 0 0 347 74l-.17-2.14-2.68-.68-1.15 1.75h-1.89l-1.21-1.77-2.67.75-.11 2.15a11 11 0 0 0-1.61 1l-1.93-.92-1.94 2 1 1.91a12.48 12.48 0 0 0-.91 1.63l-2.14.17-.68 2.68 1.79 1.17v.94c0 .31 0 .63.05.94l-1.77 1.22.75 2.66 2.14.12a13 13 0 0 0 .95 1.6l-.92 1.94 2 1.93 1.92-1a10.43 10.43 0 0 0 1.62.91l.18 2.14 2.68.69 1.17-1.8h1.88l1.2 1.77 2.67-.74.11-2.14a13.15 13.15 0 0 0 1.61-1l1.93.92 1.94-2-1-1.92a11.75 11.75 0 0 0 .91-1.62l2.14-.17.68-2.68-1.79-1.18v-.94-.93l1.77-1.22-.75-2.66-2.15-.12a10.61 10.61 0 0 0-.95-1.61zm-4.21 14.6a8.57 8.57 0 1 1-.15-12.12 8.57 8.57 0 0 1 .15 12.12z"></path><path class="cls-7" d="M352.55 75.79l-2-1.94h-.07l-1.16.58a2.43 2.43 0 0 1-.64.33c-.25 0-.61-.3-.85-.44s-.7-.26-.81-.49a2.84 2.84 0 0 1-.06-.72c0-.43-.06-.87-.1-1.3l-2.68-.68a.06.06 0 0 0-.07 0l-1.17 1.8a.08.08 0 0 0 0 .08 2.39 2.39 0 0 0-1.82 0s.06-.05 0-.09l-1.21-1.76h-.07l-2.66.75v.05l-.08 1.3a2.94 2.94 0 0 1 0 .73c-.1.22-.56.37-.8.51s-.59.48-.84.46a2.46 2.46 0 0 1-.65-.32l-1.18-.55a.06.06 0 0 0-.07 0l-1.93 2a.06.06 0 0 0 0 .07c.2.38.39.77.59 1.16a2.43 2.43 0 0 1 .33.64c0 .25-.3.61-.44.85s-.27.71-.49.81a2.18 2.18 0 0 1-.72.06l-1.3.1h-.05l-.69 2.69v.06l1.35.89c.32.2.34.19.4.54s-.17 1.1.15 1.53h-.08l-1.77 1.22a.07.07 0 0 0 0 .06l.75 2.67a.07.07 0 0 0 .06 0l1.3.07a2.45 2.45 0 0 1 .72 0c.23.1.37.55.52.79s.47.6.45.84a2.63 2.63 0 0 1-.31.66c-.18.39-.37.78-.56 1.17a.06.06 0 0 0 0 .07l2 1.93a.06.06 0 0 0 .07 0l1.16-.59a3 3 0 0 1 .65-.32c.25 0 .61.3.85.43s.7.27.81.49a2.54 2.54 0 0 1 .05.73c0 .43.07.86.11 1.29a.07.07 0 0 0 0 .06l2.68.68a.06.06 0 0 0 .07 0c.23-.37.47-.73.71-1.09a2.54 2.54 0 0 1 .39-.61c.2-.14.68 0 1 0s.75-.11.95 0a2.45 2.45 0 0 1 .41.6l.73 1.07h.07l2.66-.75s.05 0 .05-.05c0-.44 0-.87.07-1.3a2.54 2.54 0 0 1 0-.73c.1-.22.55-.37.79-.51s.59-.48.84-.46a2.77 2.77 0 0 1 .65.31l1.17.56h.07l1.94-2a.06.06 0 0 0 0-.07l-.59-1.16a2.49 2.49 0 0 1-.33-.65c0-.25.3-.6.44-.85s.27-.7.49-.81a2.45 2.45 0 0 1 .72 0l1.3-.1s.05 0 .06-.05c.22-.89.45-1.79.68-2.68v-.06l-1.79-1.18a.06.06 0 0 0-.08 0 3.2 3.2 0 0 0 .11-1.38c0-.5 0-.44.38-.71l1.33-.92a.06.06 0 0 0 0-.07c-.24-.88-.49-1.77-.74-2.66a.06.06 0 0 0-.06 0l-1.3-.07a2.54 2.54 0 0 1-.73 0c-.22-.1-.36-.56-.51-.8s-.48-.59-.45-.83A2.34 2.34 0 0 1 352 77l.56-1.17c0-.07-.07-.13-.1-.06a8 8 0 0 0-.85 1.77c-.09.61.58 1.25.87 1.83.45 0 1.85-.12 2.1.1s.19.68.25.87a10.11 10.11 0 0 1 .4 1.43c0 .4.14.17-.16.46a8.53 8.53 0 0 1-1.14.79c-.7.5-.31 1.33-.36 2.17 0 0 .09.08.11 0-.08.18 1.62 1 1.66 1.27A5.14 5.14 0 0 1 355 88a6.35 6.35 0 0 1-.26 1.08c-.47.37-1.61-.13-2.14.18a8.17 8.17 0 0 0-.94 1.65 1.56 1.56 0 0 0 .25.52c.16.33.68 1 .68 1.34 0 .18-.38.49-.59.7a6.1 6.1 0 0 1-1.09 1.12c-.34.19-.3.11-.79-.13-.3-.14-.91-.59-1.25-.59s-.75.43-1 .59-.56.23-.68.44a4.55 4.55 0 0 0-.09 1.48c0 .59.08.51-.41.69s-1.16.33-1.74.49-.46.14-.79-.35l-.85-1.26h-.05c-.44 0-1.56-.17-1.91 0s-.42.63-.55.82-.5.93-.64 1c-.36.08-1.14-.3-1.5-.39a5.35 5.35 0 0 1-1.08-.26c-.19-.24-.09-1.18-.12-1.48a1.67 1.67 0 0 0-.07-.67 6.21 6.21 0 0 0-1.67-.92c-.61 0-1.43 1-1.93.91a8.41 8.41 0 0 1-1.89-1.82c-.09-.61.94-1.33.91-2a6.89 6.89 0 0 0-1-1.64 3.28 3.28 0 0 0-1.09-.06c-.46 0-.88.06-1.07-.21a6.62 6.62 0 0 1-.5-1.78c-.17-.61-.29-.58.21-.92a8.41 8.41 0 0 0 1.26-.93h.11c0-.46.16-1.53 0-1.91-.07-.13-.43-.29-.54-.36s-1.15-.55-1.25-.81a6.6 6.6 0 0 1 .23-.86 6.33 6.33 0 0 1 .41-1.58c.16-.24.19-.17.62-.2a4.83 4.83 0 0 0 1.43-.11c.25-.14.31-.42.46-.71s.59-.76.58-1-.44-.87-.59-1.16-.35-.61-.32-.75c.07-.31.84-.86 1.06-1.09s.58-.75.79-.81a6.14 6.14 0 0 1 1.12.56c.2.09.56.36.78.36s1.28-.77 1.65-1a7 7 0 0 1 .11-1.89c.15-.4.77-.43 1.3-.58s1.09-.46 1.41-.19.89 1.57 1.1 1.48c-.06 0-.06.12 0 .11A13.26 13.26 0 0 1 343 73a.06.06 0 0 0 0-.11c.15.08.84-1.32 1.05-1.51s.89 0 1.41.16 1.17.14 1.32.54-.12 1.38.15 1.89a6.42 6.42 0 0 0 1.69 1c.43 0 1.08-.55 1.47-.74.6-.3.56-.08 1.08.42l1.3 1.27s.13-.08.08-.13z"></path><path class="cls-7" d="M348.26 90.39a8.51 8.51 0 1 1 .91-10.79 8.64 8.64 0 0 1-.91 10.79c-.05 0 0 .13.08.08a8.63 8.63 0 1 0-10.89 1.19 8.74 8.74 0 0 0 10.89-1.19.06.06 0 1 0-.08-.08z"></path><g opacity=".43"><path class="cls-7" d="M423.74 68.59l-1.27-1.24-1.23.62a7.23 7.23 0 0 0-1.05-.59l-.1-1.37-1.72-.44-.76 1.16h-1.21l-.78-1.13-1.71.48-.07 1.37a8.2 8.2 0 0 0-1 .61l-1.25-.59-1.24 1.27L411 70a7.8 7.8 0 0 0-.59 1l-1.37.11-.44 1.72 1.15.75v1.21l-1.14.78.48 1.71 1.38.08a7.74 7.74 0 0 0 .61 1l-.59 1.24 1.27 1.24 1.23-.62a7.17 7.17 0 0 0 1 .58l.11 1.38 1.73.44.75-1.16h1.2l.78 1.13 1.71-.48.07-1.37a7.22 7.22 0 0 0 1-.62l1.24.6 1.25-1.28-.63-1.23a7.13 7.13 0 0 0 .59-1l1.37-.11.44-1.72-1.15-.75v-.6a5.88 5.88 0 0 0 0-.6l1.14-.78-.48-1.71-1.38-.08a7.74 7.74 0 0 0-.61-1zM421 78a5.5 5.5 0 1 1-.09-7.78A5.51 5.51 0 0 1 421 78z"></path><path class="cls-7" d="M423.77 68.56l-1.28-1.24-.75.38a1.45 1.45 0 0 1-.41.21c-.16 0-.39-.19-.55-.28s-.45-.17-.51-.31a1.47 1.47 0 0 1 0-.47l-.07-.83-1.72-.43h-.05l-.75 1.16v.05a1.53 1.53 0 0 0-1.17 0v-.06l-.79-1.13-1.71.48c0 .28 0 .55-.05.83a1.8 1.8 0 0 1 0 .47c-.06.14-.35.23-.5.32s-.38.31-.54.3a1.62 1.62 0 0 1-.42-.2l-.76-.36c-.42.42-.83.84-1.24 1.27l.38.75c.05.11.2.29.21.41s-.19.39-.28.55-.17.45-.32.52a1.75 1.75 0 0 1-.46 0l-.83.06c-.15.57-.29 1.15-.44 1.72l.87.57c.2.13.22.12.25.35s-.11.71.1 1h-.05l-1.14.78.48 1.71h.84a1.75 1.75 0 0 1 .46 0c.15.06.24.35.33.51s.31.38.3.54a1.83 1.83 0 0 1-.21.42c-.11.25-.23.5-.35.75v.05l1.27 1.24h.05l.74-.37a1.88 1.88 0 0 1 .42-.22c.16 0 .39.2.55.29s.44.17.51.31a1.75 1.75 0 0 1 0 .46l.07.84 1.73.44.45-.7c.07-.1.16-.32.26-.39s.43 0 .61 0 .48-.07.61 0 .2.28.27.38l.46.69 1.71-.48v-.83a1.86 1.86 0 0 1 0-.47c.06-.14.35-.24.51-.33s.37-.31.53-.29a1.62 1.62 0 0 1 .42.2l.76.36c.42-.42.83-.85 1.24-1.27v-.05c-.13-.24-.25-.49-.38-.74a1.38 1.38 0 0 1-.21-.42c0-.16.19-.38.28-.54s.17-.45.32-.52a1.75 1.75 0 0 1 .46 0l.83-.06c.14-.57.29-1.15.44-1.72l-1.15-.76a2.17 2.17 0 0 0 .07-.88c0-.33 0-.29.24-.46l.86-.59-.48-1.71-.84-.05a1.49 1.49 0 0 1-.47 0c-.14-.07-.23-.36-.32-.51s-.31-.38-.3-.54a1.79 1.79 0 0 1 .2-.42l.36-.75h-.06a5 5 0 0 0-.54 1.14c-.06.39.37.8.56 1.17.29 0 1.18-.08 1.34.06s.13.44.16.56a6 6 0 0 1 .26.92c0 .26.09.11-.1.3a6.27 6.27 0 0 1-.73.5c-.45.32-.2.85-.23 1.39h.07c0 .11 1 .64 1.06.81a3 3 0 0 1-.23.91 3.48 3.48 0 0 1-.17.69c-.3.24-1-.08-1.37.12a5.26 5.26 0 0 0-.6 1.06.82.82 0 0 0 .15.33c.11.21.44.64.44.86s-.24.32-.38.45a3.69 3.69 0 0 1-.7.72c-.21.12-.19.07-.5-.08s-.59-.38-.8-.38-.49.28-.67.38-.35.14-.44.28a3 3 0 0 0-.05 1c0 .38.05.33-.26.44s-.75.21-1.12.32-.29.09-.51-.23-.36-.54-.55-.8c-.28 0-1-.11-1.22 0s-.27.4-.35.53a2.92 2.92 0 0 1-.41.61 3.16 3.16 0 0 1-1-.25 3.71 3.71 0 0 1-.69-.16c-.12-.16-.06-.76-.08-1s0-.33 0-.42a4 4 0 0 0-1.08-.6c-.39 0-.92.66-1.24.59a5.62 5.62 0 0 1-1.21-1.17c-.06-.39.6-.86.58-1.26a4 4 0 0 0-.63-1c-.13-.09-.54 0-.7 0s-.57 0-.69-.14a4.28 4.28 0 0 1-.32-1.14c-.11-.39-.18-.37.14-.59a5.71 5.71 0 0 0 .81-.59h.07c0-.3.1-1 0-1.23 0-.08-.28-.19-.35-.23s-.73-.35-.8-.52a3.85 3.85 0 0 1 .15-.55 3.92 3.92 0 0 1 .26-1c.1-.15.13-.11.4-.13a3.1 3.1 0 0 0 .92-.07c.16-.09.2-.27.29-.45s.38-.49.38-.66-.29-.55-.38-.74-.23-.39-.21-.48.54-.56.68-.7.37-.49.51-.52a4.25 4.25 0 0 1 .72.35c.13.06.36.24.5.24s.82-.5 1.06-.61a4.41 4.41 0 0 1 .07-1.21c.1-.25.49-.27.84-.37s.7-.29.9-.12.58 1 .71.95v.07a8.13 8.13 0 0 1 1.21 0s.05-.06 0-.07.54-.86.67-1 .57 0 .91.1.75.09.84.34-.07.89.1 1.22a4 4 0 0 0 1.09.61c.27 0 .69-.35.94-.47s.36 0 .69.27l.84.81s.13-.12.1-.15z"></path><path class="cls-7" d="M421 77.93a5.46 5.46 0 1 1 .6-6.93 5.55 5.55 0 0 1-.58 6.92s0 .09.05 0a5.54 5.54 0 1 0-7 .77 5.6 5.6 0 0 0 7-.77s-.02-.02-.07.01z"></path></g><g opacity=".23"><path class="cls-7" d="M465.22 137.17l-1.41-1.37-1.36.68a8.63 8.63 0 0 0-1.15-.64l-.12-1.52-1.91-.49-.83 1.28h-1.35l-.86-1.26-1.89.53-.09 1.53a8.28 8.28 0 0 0-1.14.67l-1.37-.65-1.38 1.41.69 1.35a9.5 9.5 0 0 0-.65 1.16l-1.51.12-.49 1.91 1.28.83v1.33l-1.25.86.53 1.89 1.52.09a9.52 9.52 0 0 0 .68 1.14l-.66 1.37 1.41 1.37 1.36-.68a7.73 7.73 0 0 0 1.16.64l.12 1.52 1.9.49.83-1.28h1.34l.86 1.26 1.89-.53.08-1.52a8.79 8.79 0 0 0 1.14-.68l1.38.65 1.37-1.4-.69-1.36a8.33 8.33 0 0 0 .65-1.16l1.52-.12.48-1.91-1.27-.83a5 5 0 0 0 0-.67v-.66l1.26-.87-.54-1.89-1.52-.08a7.3 7.3 0 0 0-.68-1.14zm-3 10.37a6.09 6.09 0 1 1-.1-8.61 6.07 6.07 0 0 1 .11 8.61z"></path><path class="cls-7" d="M465.25 137.14l-1.41-1.37-.82.42a1.8 1.8 0 0 1-.46.23c-.18 0-.43-.21-.61-.31s-.49-.19-.57-.35a1.71 1.71 0 0 1 0-.51c0-.31-.05-.61-.07-.92l-1.91-.49-.84 1.28v.06a1.72 1.72 0 0 0-1.3 0v-.06l-.87-1.26-1.9.53-.05.93a1.73 1.73 0 0 1 0 .51c-.07.16-.4.26-.57.36s-.42.35-.59.33a1.82 1.82 0 0 1-.47-.22l-.83-.4-1.38 1.41.42.82a2 2 0 0 1 .23.46c0 .17-.21.43-.31.6s-.19.5-.35.58a1.73 1.73 0 0 1-.51 0l-.93.07c-.17.64-.33 1.27-.49 1.91l1 .63c.23.15.24.14.28.39s-.12.78.11 1.09h-.06l-1.25.86v.05c.17.63.35 1.26.53 1.89l.92.05a2.24 2.24 0 0 1 .52 0c.16.07.26.39.36.57s.34.42.33.59a2.27 2.27 0 0 1-.23.47l-.39.83v.05l1.41 1.37.83-.42a1.65 1.65 0 0 1 .46-.23c.17 0 .43.21.6.31s.5.19.57.35a1.73 1.73 0 0 1 0 .51c0 .31.05.62.08.92l1.9.49.5-.77c.08-.12.17-.36.28-.44s.48 0 .68 0 .54-.08.68 0a1.8 1.8 0 0 1 .29.43l.52.76 1.89-.53c0-.31 0-.62.05-.92a1.8 1.8 0 0 1 0-.52c.07-.16.39-.26.56-.36s.42-.34.6-.33a1.76 1.76 0 0 1 .46.22l.84.4c.45-.47.91-.94 1.37-1.4l-.42-.83a2 2 0 0 1-.24-.46c0-.17.22-.43.31-.6s.19-.5.35-.58a2.24 2.24 0 0 1 .52 0l.92-.07.48-1.9-1.27-.83h-.06a2.12 2.12 0 0 0 .08-1c0-.36 0-.32.27-.51l.95-.65-.54-1.89h-.92a2.24 2.24 0 0 1-.52 0c-.16-.07-.26-.39-.36-.56s-.34-.42-.32-.6a1.62 1.62 0 0 1 .22-.46c.13-.28.26-.56.4-.84 0-.05-.05-.09-.07 0a5.38 5.38 0 0 0-.6 1.26c-.07.43.41.89.61 1.3.32 0 1.31-.09 1.49.07s.14.48.17.62a7.25 7.25 0 0 1 .29 1c0 .29.1.13-.11.33a7.75 7.75 0 0 1-.81.56c-.5.36-.22.94-.26 1.54h.08c0 .12 1.15.7 1.18.9a3.42 3.42 0 0 1-.26 1 4.48 4.48 0 0 1-.18.76c-.34.26-1.14-.09-1.52.12a6.28 6.28 0 0 0-.67 1.18 1.37 1.37 0 0 0 .17.37c.12.23.49.7.49.95s-.27.35-.42.5a4.17 4.17 0 0 1-.78.79c-.24.14-.21.08-.55-.09s-.65-.42-.89-.42-.53.31-.73.42-.4.16-.49.31 0 .82-.06 1.06c0 .41.06.36-.29.48s-.83.24-1.24.35-.32.1-.56-.25l-.61-.89c-.31 0-1.11-.11-1.36 0s-.29.44-.38.58-.36.66-.46.68-.81-.21-1.07-.27a4 4 0 0 1-.76-.19c-.14-.17-.07-.84-.09-1.05a1.29 1.29 0 0 0 0-.48 4.32 4.32 0 0 0-1.19-.65c-.43 0-1 .72-1.37.65a6.38 6.38 0 0 1-1.34-1.3c-.06-.43.67-.95.65-1.39a4.91 4.91 0 0 0-.7-1.16c-.15-.1-.6 0-.78-.05s-.63 0-.76-.15a4.81 4.81 0 0 1-.36-1.26c-.12-.44-.2-.41.16-.66.12-.08.93-.6.89-.66s.08 0 .08 0a5.49 5.49 0 0 0 0-1.35c-.05-.1-.31-.21-.39-.26s-.81-.39-.88-.58a5 5 0 0 1 .16-.6 4.17 4.17 0 0 1 .29-1.13c.11-.17.14-.12.44-.14a3.44 3.44 0 0 0 1-.08c.18-.1.22-.3.33-.5s.42-.54.41-.73-.32-.61-.42-.82-.25-.44-.23-.53.6-.62.75-.78.41-.53.56-.57a4.16 4.16 0 0 1 .8.39 1.84 1.84 0 0 0 .55.26c.26 0 .92-.55 1.17-.68a5 5 0 0 1 .08-1.35c.11-.28.54-.3.92-.4s.78-.33 1-.14.63 1.11.77 1.05v.08a8.55 8.55 0 0 1 1.34 0s.05-.06 0-.08.59-.94.74-1.07.63 0 1 .11.84.09.94.38-.09 1 .11 1.34a4.44 4.44 0 0 0 1.2.68c.3 0 .77-.38 1-.52.43-.22.4-.06.77.3l.92.9.18-.18z"></path><path class="cls-7" d="M462.2 147.51a6 6 0 1 1 .65-7.66 6.11 6.11 0 0 1-.65 7.66s0 .1.06.06a6.13 6.13 0 1 0-7.74.85 6.22 6.22 0 0 0 7.74-.85l-.06-.06z"></path></g><g class="cls-11"><path class="cls-7" d="M387.05 169.37l-2.69-5.55v-22.61a1.18 1.18 0 0 0-1.18-1.18H351a1.18 1.18 0 0 0-1.18 1.18V164a1.18 1.18 0 0 0 1.18 1.18h29.46z"></path><path class="cls-12" d="M352.36 146.39h16.06a.27.27 0 0 0 0-.54h-16.06a.27.27 0 0 0 0 .54zM352.36 149.38h16.06a.27.27 0 0 0 0-.54h-16.06a.27.27 0 0 0 0 .54zM352.36 152.36h16.06a.27.27 0 0 0 0-.54h-16.06a.27.27 0 0 0 0 .54zM364.83 157.07h16.06a.27.27 0 0 0 0-.54h-16.06a.27.27 0 0 0 0 .54zM364.83 159h16.06a.27.27 0 0 0 0-.54h-16.06a.27.27 0 0 0 0 .54zM364.83 160.87h16.06a.27.27 0 0 0 0-.54h-16.06a.27.27 0 0 0 0 .54z"></path></g><g class="cls-11"><path class="cls-7" d="M227.05 204.52l4.21-8.69v-35.44a1.86 1.86 0 0 1 1.86-1.86h50.48a1.85 1.85 0 0 1 1.85 1.86v35.73a1.86 1.86 0 0 1-1.85 1.88h-46.19z"></path><path class="cls-12" d="M281.44 168.51h-25.19a.43.43 0 0 1 0-.85h25.19a.43.43 0 0 1 0 .85zM281.44 173.19h-25.19a.43.43 0 0 1 0-.85h25.19a.43.43 0 0 1 0 .85zM281.44 177.87h-25.19a.43.43 0 0 1 0-.85h25.19a.43.43 0 0 1 0 .85zM261.89 185.24H236.7a.42.42 0 0 1 0-.84h25.19a.42.42 0 0 1 0 .84zM261.89 188.22H236.7a.42.42 0 0 1 0-.84h25.19a.42.42 0 0 1 0 .84zM261.89 191.2H236.7a.42.42 0 0 1 0-.84h25.19a.42.42 0 0 1 0 .84z"></path></g><path class="cls-13" d="M156.63 335.31a59 59 0 0 1-.65 13.34 1.59 1.59 0 0 0 0 .81 1.57 1.57 0 0 0 .89.74 40.1 40.1 0 0 0 17.65 3.63 10.65 10.65 0 0 0-2-1.49 18 18 0 0 1-7.89-17"></path><path class="cls-14" d="M161.78 350.76a8.39 8.39 0 0 0 4.31 1.28 3.24 3.24 0 0 0 3.15-2.71c2.37.07 4.2 2 6.33 3.07 3.25 1.6 7.14 1 10.64 2a3.81 3.81 0 0 1 2.18 1.27 1.63 1.63 0 0 1-.28 2.28 2.41 2.41 0 0 1-.79.24 54.77 54.77 0 0 1-22.94-.73 4.76 4.76 0 0 0-2.3-.21c-.53.12-1 .43-1.53.57a4.84 4.84 0 0 1-2-.09l-3.73-.68a1.74 1.74 0 0 1-1-.42 1.63 1.63 0 0 1-.3-.8c-.31-1.7.58-3.1.76-4.82a7.21 7.21 0 0 1 1.19-2.87c1-1.09 1.33-.33 2.65.3a25.24 25.24 0 0 1 3.65 2.35"></path><path class="cls-13" d="M184.3 333.57a58.44 58.44 0 0 1-4.67 12.52 1.5 1.5 0 0 0-.23.76 1.48 1.48 0 0 0 .62 1 40 40 0 0 0 15.72 8.82 10.88 10.88 0 0 0-1.48-2 18.1 18.1 0 0 1-2.35-18.67"></path><path class="cls-14" d="M183.77 349.83a8.23 8.23 0 0 0 4 1.85 3.19 3.19 0 0 0 3.44-2.2c2.3.41 3.81 2.56 5.74 3.88 2.94 2 6.8 2 10.08 3.4a3.76 3.76 0 0 1 1.97 1.54 1.59 1.59 0 0 1-.6 2.18 2.4 2.4 0 0 1-.8.13 54 54 0 0 1-22.23-3.92 4.83 4.83 0 0 0-2.21-.53c-.54 0-1 .28-1.57.34a4.76 4.76 0 0 1-1.93-.36l-3.54-1.14a1.64 1.64 0 0 1-.9-.55 1.53 1.53 0 0 1-.19-.82c-.06-1.7 1-2.93 1.42-4.58a7 7 0 0 1 1.56-2.63c1.1-.92 1.34-.14 2.53.66a24.13 24.13 0 0 1 3.23 2.8"></path><path class="cls-15" d="M157 219.91c-3.47 16.41-.93 33.42-1.22 50.19-.14 7.46-.83 14.89-1.23 22.34a279.4 279.4 0 0 0 1.3 45.64 47.81 47.81 0 0 0 11 .38l3.15-32.62a175.68 175.68 0 0 1 2.51-18.72c.92-4.43 2.18-8.77 3.17-13.18a208.79 208.79 0 0 0 3.3-22l16.37 35.32a12.82 12.82 0 0 1 .71 12q-6.28 20.31-14.42 40l8.81 3.85a2.34 2.34 0 0 0 1.52.28c.65-.19 1-.88 1.26-1.5q8.49-20 17-39.93c1.82-4.29 3.69-8.84 3.09-13.47a70.66 70.66 0 0 0-1.74-10.49c-1-4-3.06-9.22-4.06-13.2-4-16.13-9.39-30.22-13.41-46.35a5.61 5.61 0 0 0-1.31-2.83 5.37 5.37 0 0 0-2.51-1.12 124.62 124.62 0 0 0-27.46-3.73c-1.44 0-3 0-4.13.93"></path><path class="cls-16" d="M180 133.1a26.24 26.24 0 0 1 .11 6.2 8 8 0 0 1-.75 3c-1.07 2-3.42 3-5.58 3.82 1.58 1.26 2.72 3 4.25 4.31 4.35 3.77 11.29 3.43 16 .18a6.32 6.32 0 0 1-1.58-9"></path><path class="cls-13" d="M199.31 123.74a29.29 29.29 0 0 1-5.25 18.49 5.87 5.87 0 0 1-3.4 2.72 5 5 0 0 1-3.1-.61c-4.51-2.22-7-7.19-8.09-12.1-1.24-5.66-.64-12.32 3.72-16.13"></path><path class="cls-13" d="M179.6 132.26a6 6 0 0 1-3.1-5.75 1.39 1.39 0 0 1 .32-.87 1.06 1.06 0 0 1 1.24-.09 3.12 3.12 0 0 1 .94.94"></path><path class="cls-15" d="M177.58 125.83c-.7-3.75-.74-7.67 1-11.06a11.43 11.43 0 0 1 7.81-5.7 14.74 14.74 0 0 1 9.67 1.55c1.8.95 3.45 2.24 5.41 2.8s4.37.41 5.93 1.8a5.69 5.69 0 0 1 1.59 4 11.56 11.56 0 0 1-8.82 11.47c-.4.09-.9.11-1.12-.24a1 1 0 0 1-.07-.65c.21-1.48.71-3.29-.44-4.24-3.74 1.68-8.22.64-11.69-1.54-1.43-.9-3.26-2-4.63-1-1.09.76-1.1 2.31-1.25 3.63s-1 2.89-2.26 2.75l-1.15-3.56"></path><path class="cls-17" d="M190.14 129.5a3.83 3.83 0 0 1-3.75-.87c-.28-.3-.73.15-.45.45a4.49 4.49 0 0 0 4.37 1c.4-.09.23-.7-.17-.62z"></path><path class="cls-18" d="M185.76 126.12a4 4 0 0 1 2.67.06 20.69 20.69 0 0 1 2.19 1.26.27.27 0 0 0 .27-.46 13.07 13.07 0 0 0-2.64-1.45 4.8 4.8 0 0 0-2.63.07.27.27 0 0 0 .14.52zM200.13 126.9a4.8 4.8 0 0 0-2.52-.76 13.5 13.5 0 0 0-2.92.7.27.27 0 0 0 .14.52c1.87-.52 3.21-1 5 0a.27.27 0 0 0 .27-.47z"></path><path class="cls-17" d="M193.82 130.44a2.36 2.36 0 0 0 2 .64 5.31 5.31 0 0 0 2.48-1 .33.33 0 0 0-.33-.56 7.43 7.43 0 0 1-1.53.8c-.42.14-1.7.26-2-.21s-.8 0-.56.32z"></path><path class="cls-16" d="M192.7 129.54c-.2 2 .26 3.53.41 5.53 0 .3 0 .67-.26.79a.83.83 0 0 1-.31 0h-2.26a.2.2 0 0 1-.11 0c-.08 0-.08-.16-.07-.25a17.09 17.09 0 0 1 1.11-3.76c.24-.64 1.53-4.5 1.49-2.31M192.21 138.5a11.26 11.26 0 0 1-2.17-.15 1.78 1.78 0 0 0-1.19.07s-.09.06-.09.11.06.12.12.16l1.16.68a2.28 2.28 0 0 0 .73.33 2.53 2.53 0 0 0 1.42-.27 1.07 1.07 0 0 0 .54-.38c.11-.19 0-.5-.2-.52"></path><path class="cls-12" d="M175.48 145.43a12.56 12.56 0 0 0 12.9 6.31c1.75-.26 3.45-.79 4.37-2.31a5.93 5.93 0 0 0 2.24 1.41 6 6 0 0 1 1.45.74c1 .86.86 2.41.66 3.71-2 12.52-2.85 25.18-3.73 37.82l-.72 10.4c-.31 4.61-.63 9.26.12 13.82a2.38 2.38 0 0 1 0 1.35 2.18 2.18 0 0 1-1.6 1 32.42 32.42 0 0 1-19.17-1.24 4.38 4.38 0 0 1-2.74-2.11 4.75 4.75 0 0 1 0-2.51c1.92-11.72.94-23.72 2.06-35.55.23-2.47.56-4.94.74-7.42a63.85 63.85 0 0 0-1.45-18.85 6.82 6.82 0 0 1-.24-3.16c.59-2.27 3-2.83 5.11-3.41"></path><path class="cls-19" d="M192.9 149.53c-3.13 9.16-2.51 18.22-3.08 27.89-.22 3.73-.64 7.46-.77 11.2-.12 3.44 0 6.87.13 10.31l1.17 31.12a2.26 2.26 0 0 0 .29 1.26 2.15 2.15 0 0 0 1.18.71 22.2 22.2 0 0 0 9.08 1q-.66-13.76-2.22-27.45a58 58 0 0 1-.49-6.18 54.12 54.12 0 0 1 .67-7.29 229.53 229.53 0 0 1 4.29-24.32c1-3.86 2.12-8.09.37-11.67-1.44-2.93-4.19-3.47-7.05-5-1.06-.57-2.51-1-3.57-1.55"></path><path class="cls-19" d="M202.35 154.44c-1.68 1.46-1.26 4.41-1.37 6.83-.22 5.14-.4 10.26-.15 15.39l.76 15.7c.06 1.14.19 2.43 1.1 3.12s2.3.44 3.45.13a2.67 2.67 0 0 0 1.52-.81 2.61 2.61 0 0 0 .36-1.07c1.6-9.09.89-18.43-.2-27.6a31.61 31.61 0 0 0-.89-5c-.64-2.22-2.5-6.1-4.58-6.67"></path><path class="cls-20" d="M169.2 188.41c1.12.36 2.22-.55 3-1.43 2.86-3.22 5-7.23 8.73-9.42 1.07-.63 2.49-1.06 3.48-.32s1 1.95.88 3.06c-.41 4.55-2.77 8.75-5.84 12.14a63.24 63.24 0 0 1-10.53 8.75M169.16 206.17q6-6.19 12.22-12.24c.9-.89 2-1.83 3.23-1.72a2.83 2.83 0 0 1 2.28 2 5.67 5.67 0 0 1-.06 3.16c-1.42 5.41-6.42 9-11.08 12.08l-11.26 7.48"></path><path class="cls-19" d="M173.81 145.87l.44 11.75c.1 2.57.19 5.15.54 7.7.43 3.15 1.23 6.24 1.57 9.39a57 57 0 0 1 0 9.42c-1 15.34-3.31 30.62-3.08 46a1.69 1.69 0 0 1-.26 1.15 1.61 1.61 0 0 1-1.15.39c-3.86.17-7.81-1.22-11.53-.18-1.69.47-3.27 1.43-5 1.43a1.52 1.52 0 0 1-1.34-.55 1.81 1.81 0 0 1-.06-1.32c1.63-8.08.86-16.42 1.41-24.64.74-11 3.84-21.72 3.86-32.7 0-3.51-.3-7-.61-10.51l-.94-10.68a106.15 106.15 0 0 1 16.18-6.64"></path><path class="cls-21" d="M187.09 215.28l4.53-38.43h25l-3.15 38.43h-26.38z"></path><path class="cls-13" d="M155.24 195.52a96.54 96.54 0 0 0 27.53 3.48c1.55 0 3.27-.17 4.36-1.28.93-1 1.31-2.54 2.58-3 .31.94-.38 2.11.23 2.88s1.5.48 2.28.24a48.68 48.68 0 0 0 6.73-2.64c.4-.19 1-.28 1.13.15a.72.72 0 0 1 0 .29 9.28 9.28 0 0 1-5.34 6.06 27.31 27.31 0 0 1-8.1 2 138.94 138.94 0 0 1-19.82 1.81 46.66 46.66 0 0 1-19.4-3.84"></path><path class="cls-19" d="M157.63 152.51c3.78 5.52 4.43 12.84 3 19.39s-4.07 12.76-5.46 19.31c-.32 1.51-.51 3.27.53 4.4-2.9 2.78-2.36 4.29-4.08 7.92-.16.33 0 .42-.43 1-.28.37-2.36-1-2.74-1.23-2.87-2.05-4.47-2.51-4.67-6-.3-5.15 1.05-10.23 2.47-15.18q3.57-12.49 7.85-24.76c.71-2 1.56-3.91 3.49-4.87"></path><path class="cls-13" d="M364 332.7c-1.68 2.76-.58 6.54 1.67 8.87s5.37 3.56 8.4 4.72l13 5c.76.29 1.69 1 1.26 1.72a1.27 1.27 0 0 1-.62.44c-3.56 1.55-7.65.42-11.46-.36a59.29 59.29 0 0 0-21.25-.46c-1.8.28-4.32.2-4.65-1.6a3.79 3.79 0 0 1 .06-1.16l3.43-21.4"></path><path class="cls-18" d="M368.9 343.88c-.62.22-1.25 1.23-1.77 2-.78 1.2-1.59.92-3 .83a12.71 12.71 0 0 1-4.13-1.21c-2.36-1-4.75-2-7.15-2.87a1.72 1.72 0 0 0-1.23-.14c-.49.2-.67.79-.8 1.31l-1.3 5.52a3 3 0 0 0-.08 1.64 2.37 2.37 0 0 0 .74 1c2.3 2 5.76 1.68 8.82 1.41a72.66 72.66 0 0 1 18.63.75c3.78.64 8.06 1.47 11.1-.85.55-.42 1.07-1.12.77-1.74a1.74 1.74 0 0 0-.77-.67 37.69 37.69 0 0 0-6.11-2.37l-7.47-2.42c-2.16-.7-5.06-2-6.27-2.2"></path><path class="cls-15" d="M351.09 250.38c11.4.74 17 3.48 18.8 7.31s1.48 10.28 1.5 14.51c.11 20.78-3.34 41.4-6.78 61.9a1.5 1.5 0 0 1-2.18 1.34l-8.66-1.11a2.23 2.23 0 0 1-1.36-.49 2.29 2.29 0 0 1-.47-1.58c-.57-15.64-2-24.79-1.75-43.42.12-9.27 3.28-20.42-3.71-20.9-6.56-.45 3.54-11.56 8.16-15.06"></path><path class="cls-18" d="M311.21 270c-14.67 23.87-19.85 51.61-24.67 78.82-.28 1.59 2.16 2.28 2.45.67 4.78-27 9.85-54.52 24.41-78.21.85-1.4-1.34-2.67-2.19-1.28zM333.56 270c14.67 23.87 19.85 51.61 24.66 78.82.29 1.59-2.16 2.28-2.44.67-4.78-27-9.86-54.52-24.41-78.21-.86-1.4 1.34-2.67 2.19-1.28z"></path><path class="cls-7" d="M293.88 263.71h54.16v6.59h-54.16z"></path><path class="cls-16" d="M333.28 166.51a26.05 26.05 0 0 0-2 8.1 14 14 0 0 0 .87 7.14 6.81 6.81 0 0 0 5.53 4.16 27 27 0 0 1-2.87 3.44 13.59 13.59 0 0 1-21.3-3.18c2.84-.44 5-3 5.59-5.87a13.82 13.82 0 0 0-1.36-8.37"></path><path class="cls-7" d="M317.59 183.73c4.33 3.05 9.86 3.91 14 .64a3 3 0 0 1 1.19-.7 2.68 2.68 0 0 1 1.25.13l12.65 3.41a2 2 0 0 1 1 .54 1.94 1.94 0 0 1 .28 1.22c0 16.3-3.37 32.58-1.95 48.83a3.08 3.08 0 0 1-.31 2.08 3 3 0 0 1-2.21.89 74.47 74.47 0 0 1-8.7.58c-7.65-.09-15.29-2.53-22.86-1.35a39.15 39.15 0 0 1-6.61.95 1.42 1.42 0 0 1-1.14-.4 1.48 1.48 0 0 1-.19-1 232.67 232.67 0 0 0-1.46-32.43c-.63-5.42-1.45-10.9-.8-16.32a3.41 3.41 0 0 1 .76-2.07 3.6 3.6 0 0 1 1.51-.76l13.5-4.29"></path><path class="cls-22" d="M347.3 187.41a36.12 36.12 0 0 0-2.1 23.38 68.21 68.21 0 0 0 3.48 9.31l3.71 8.61a1.2 1.2 0 0 1 .14.66c-.08.41-.53.6-.93.72-5.25 1.59-10.7 2.42-16.07 3.58a1.25 1.25 0 0 0-.75.35 1.27 1.27 0 0 0-.11 1c.27 1.68.63 3.53 2 4.55a6.18 6.18 0 0 0 2.26.93c7.76 1.92 16 1 23.77-.71 1.21-.28 2.57-.7 3.08-1.83a4.11 4.11 0 0 0 .06-2.36c-1.43-8.53-2.87-17.09-5.53-25.31s-6.61-16.16-12.5-22.48c-.15-.15-.23-.35-.49-.36M303.17 188.45a36.19 36.19 0 0 1 2.11 23.38 69.61 69.61 0 0 1-3.49 9.31l-3.71 8.61a1.2 1.2 0 0 0-.14.66c.08.41.54.6.93.72 5.26 1.59 10.71 2.42 16.08 3.58a1.23 1.23 0 0 1 .74.35 1.26 1.26 0 0 1 .11 1c-.26 1.68-.62 3.52-2 4.55a6 6 0 0 1-2.25.92c-7.77 1.93-16 1.06-23.78-.71-1.21-.27-2.57-.69-3.07-1.82a4.11 4.11 0 0 1-.07-2.36c1.43-8.53 2.88-17.09 5.54-25.31s6.6-16.17 12.5-22.49c.14-.14.23-.35.48-.35"></path><path class="cls-15" d="M279.92 255.61c3.61-2.65 3-3.89 11.7-5.63 12.86-2.57 6.76-8 10.48-9.64 4.88-2.12 10.27 1.07 15.39-.34a20.69 20.69 0 0 1 5.27-.53l12.49-.16a13.09 13.09 0 0 1 9 2.42l9.8 5.83c3.63 2.17 7.49 4.59 9.12 8.49a6 6 0 0 1 .19 4.75c-1 2.22-3.64 3.12-6 3.71-6.92 1.74-14.14 2.86-21.18 1.72-5.37-.86-9.84-1.44-15.24-.85-3.5.39-9 1.1-13.38 1.62-9.69 1.15-17.25 2-26.11-2.06"></path><path class="cls-13" d="M280.68 332.7c1.68 2.76.58 6.54-1.67 8.87s-5.37 3.56-8.4 4.72l-13 5c-.77.29-1.7 1-1.27 1.72a1.27 1.27 0 0 0 .62.44c3.57 1.55 7.65.42 11.46-.36a59.29 59.29 0 0 1 21.25-.46c1.8.28 4.32.2 4.65-1.6a3.5 3.5 0 0 0-.06-1.16l-3.43-21.4"></path><path class="cls-18" d="M275.8 343.88c.62.22 1.25 1.23 1.77 2 .78 1.2 1.59.92 3 .83a12.71 12.71 0 0 0 4.09-1.23c2.36-1 4.75-2 7.15-2.87a1.72 1.72 0 0 1 1.23-.14c.49.2.67.79.8 1.31l1.3 5.52a3 3 0 0 1 .08 1.64 2.44 2.44 0 0 1-.73 1c-2.31 2-5.77 1.68-8.83 1.41a72.66 72.66 0 0 0-18.63.75c-3.77.64-8.06 1.47-11.1-.85-.55-.42-1.06-1.12-.77-1.74a1.71 1.71 0 0 1 .78-.67 37.58 37.58 0 0 1 6.1-2.37l7.48-2.42c2.15-.7 5-2 6.26-2.2"></path><path class="cls-15" d="M293.61 250.38c-11.4.74-17 3.48-18.8 7.31s-1.48 10.28-1.5 14.51c-.11 20.78 3.34 41.4 6.79 61.9a1.88 1.88 0 0 0 .34 1 2 2 0 0 0 1.83.38l8.66-1.11a2.23 2.23 0 0 0 1.36-.49 2.29 2.29 0 0 0 .47-1.58c.57-15.64 2-24.79 1.75-43.42-.12-9.27-3.28-20.42 3.71-20.9 6.56-.45-3.54-11.56-8.16-15.06"></path><rect class="cls-21" x="291.65" y="211.58" width="55.12" height="33.03" rx="3.79"></rect><circle cx="317.79" cy="227.71" r="2.9" fill="#c3c7d1"></circle><path class="cls-13" d="M315.88 145.11a12 12 0 0 0-1.87 5c-.23 1.85 0 3.72-.16 5.57-.1 1.46-.08 3.42-.14 4.88-.2 4.3 1.25 7.9 3 11.85a14.13 14.13 0 0 0 2.46 4.22 4.43 4.43 0 0 0 4.44.88 19.85 19.85 0 0 0 4-2.14c4.89-3.82 6.24-8.1 6.78-14.27a43.29 43.29 0 0 0 0-5.58 19.74 19.74 0 0 0-.7-5.47 6.73 6.73 0 0 0-3.37-4.19"></path><path class="cls-15" d="M334.85 161.68c-.29.86-1.13 1.88-1.91 1.41a1.66 1.66 0 0 1-.59-1.16 16.24 16.24 0 0 0-1.19-4.12 5.18 5.18 0 0 0-3.08-2.8c-2.54-.71-5 1.23-7.56 1.79a11.39 11.39 0 0 1-7.3-1.38c-1.6-.79-3.24-1.92-3.66-3.66s.45-3.38 1.39-4.83a20.81 20.81 0 0 1 6.05-6.44 11.16 11.16 0 0 1 8.49-1.73c2 .46 3.72 1.58 5.64 2.2a26.07 26.07 0 0 1 3.07 1 8.32 8.32 0 0 1 4.27 5.76 22.55 22.55 0 0 1 .17 7.38 32.56 32.56 0 0 1-2.19 10.37c-1.05 2.36-2.35 4.72-4.83 5.46"></path><path class="cls-16" d="M319.34 170.59a23.77 23.77 0 0 0 6.08-.15 6.8 6.8 0 0 1-1.69 1.52 3.07 3.07 0 0 1-2.23.47 2.65 2.65 0 0 1-1.16-.58 6.47 6.47 0 0 1-1-1.26M321.79 161.38l-1.79 6.09c-.06.18-.09.4.05.52a.52.52 0 0 0 .3.08h1.87a.56.56 0 0 0 .49-.14.58.58 0 0 0 .06-.43c-.27-2-.74-4.21-1-6.16"></path><path class="cls-18" d="M323.6 157.44a12.76 12.76 0 0 1 6 .39c.33.1.47-.42.14-.52a13.58 13.58 0 0 0-6.27-.4c-.34.06-.19.58.15.53zM318.82 157.16a13.21 13.21 0 0 0-4.65-.16c-.34 0-.2.56.14.52a12.35 12.35 0 0 1 4.37.16c.34.07.48-.45.14-.52z"></path><path class="cls-17" d="M324.38 161a4.32 4.32 0 0 0 4.68-.24c.33-.24 0-.79-.33-.55a3.71 3.71 0 0 1-4 .24.32.32 0 0 0-.32.55zM318.55 160.34a2.77 2.77 0 0 1-3.1-.43c-.3-.28-.75.17-.45.45a3.42 3.42 0 0 0 3.87.53c.37-.18 0-.73-.32-.55z"></path><circle class="cls-24" cx="316.96" cy="161.01" r="3.02"></circle><circle class="cls-24" cx="326.59" cy="161.01" r="3.02"></circle><path class="cls-24" d="M320.11 160.45a3.72 3.72 0 0 1 3.36 0"></path><path class="cls-13" d="M333.81 163.05a4.42 4.42 0 0 1 1.18-2 .66.66 0 0 1 .48-.24c.21 0 .35.22.44.42a5 5 0 0 1-.28 3.44 5.3 5.3 0 0 1-1 2 1.82 1.82 0 0 1-2 .55"></path><path class="cls-24" d="M329.6 160.6l3.76-.15"></path><path class="cls-18" d="M315.94 215.51l14.26 28.54a.82.82 0 0 0 .72.41h34.49a.84.84 0 0 0 0-1.67h-28.85c-1.54 0-3.65-.38-5.15 0-.83.22-.09-.24.17.31-.22-.47-.46-.93-.69-1.39l-7.27-14.55-6.24-12.49c-.48-1-1.92-.12-1.44.84z"></path><path class="cls-25" d="M364 325.5c1.58 5 3.64 9.93 5 15s2.1 10.53.9 15.68a42 42 0 0 1-1.54 4.89c0 1.81 2.24-.32 3-1.16a18.4 18.4 0 0 0 4.29-7.27c1.65-5.28.9-11.25 3.49-16.14a19.35 19.35 0 0 0 1.85-3.66 3.34 3.34 0 0 0-1-3.7 5.87 5.87 0 0 0-1.48-.56 13.61 13.61 0 0 1-9.48-11.45"></path><path d="M342.58 260.86c-.71 5.44-2 12.45-.15 17.63 6.21 17.55 14.48 33.92 22.58 50.69.08.15-.17 0 0 0s-.15 0 0 0c3-.76 5.67-2.68 7.59-3.95-3.61-14.64-4.77-30.34-12.66-43.19-1.45-2.37-3.15-4.65-3.94-7.32s-.49-5.89 1.59-7.73c2.76-2.44 7.78-1.86 9.53-5.1" fill="#d35543"></path><path d="M404.42 176.72c1.83 2.49 2.16 5.75 2.13 8.84a10.09 10.09 0 0 1-.24 2.51 12.4 12.4 0 0 1-.87 2.1q-2.47 5-5 9.93c1.62.31 3.19-.62 4.58-1.51l5.82-3.75a70.56 70.56 0 0 0 9.13-6.59 12.84 12.84 0 0 1-3.31-4.61 19.33 19.33 0 0 1-1.12-9.06c.23-3.06.84-6.09 1.1-9.15" fill="#c69585"></path><path class="cls-25" d="M339.51 330.42c-.34 5.27-.17 10.58-.7 15.84S337 356.83 334 361.21a44.06 44.06 0 0 1-3.2 4c-.64 1.69 2.2.5 3.26 0a18.43 18.43 0 0 0 6.64-5.21c3.43-4.34 4.88-10.18 9.05-13.82a18.91 18.91 0 0 0 3-2.75 3.33 3.33 0 0 0 .37-3.82 5.65 5.65 0 0 0-1.18-1.05 13.61 13.61 0 0 1-4.74-14.09"></path><path class="cls-5" d="M430.72 239.64a55.13 55.13 0 0 1 2.71 11.71 18.62 18.62 0 0 1-2.43 11.58c-4.17 6.46-12.7 8.29-20.37 8.93-18.5 1.54-37.1-.52-55.67-.69-2.52 0-5.69.47-6.35 2.89-.37 1.35.26 2.75.78 4.05 3.31 8.25 2.46 17.54.9 26.29s-3.77 17.54-3 26.39a4.15 4.15 0 0 1-.52 3.1 3.84 3.84 0 0 1-1.83 1l-5.54 1.79q-3-33.18-4.09-66.5a29.17 29.17 0 0 1 .54-8.35 10 10 0 0 1 4.85-6.54 38.22 38.22 0 0 1 7.4-2c23.14-3.86 37.31-4.9 53.16-7.45 5.43-.88 11.54-2.76 13.8-7.77"></path><path class="cls-13" d="M394.23 238.31c-3.33-.29-7.21-.89-10.54-1.18-6.14-.54-11.57-.29-17.73-.51-1.68-.06-4.22.09-5.91.21-4.38.29-7.84 1.61-12 2.91a5.23 5.23 0 0 0-2.48 1.7c-.55.75-.59 1.84-1.3 2.45.41.26 1 0 1.26-.42a5.56 5.56 0 0 1 .88-1.15 11.66 11.66 0 0 1 2.73-.9c2.17-.29 2.88-.07 5-.35a6.23 6.23 0 0 1 2 0c1.56.29 2.67.81 4.43.47a5.33 5.33 0 0 0 1.87-.79c1.63-1.19 3.51-.07 5.42.59a43.69 43.69 0 0 0 5.07 1.27l9.23 1.91a79.17 79.17 0 0 0 14.09 2.06"></path><path class="cls-28" d="M418.4 185.73a21.76 21.76 0 0 1-14.4 10.2 4.08 4.08 0 0 0-1.82.63 3.71 3.71 0 0 0-.95 1.38l-2.9 5.93a20.28 20.28 0 0 0-2.36 6.72c-.44 4.36 1.92 8.43 3.41 12.56a32.46 32.46 0 0 1 .73 19.57 1.6 1.6 0 0 0 .07 1.45 1.34 1.34 0 0 0 .49.32c4 1.91 8.4 2.74 12.75 3.56a39.14 39.14 0 0 0 10.43 1 19.44 19.44 0 0 0 6.44-1.66 10.15 10.15 0 0 0-2.06-3.65c-4.73-6.66-5.14-15.7-2.65-23.49.94-2.95 2.26-5.8 2.8-8.85.81-4.66-.31-9.49-2.3-13.78a70.16 70.16 0 0 0-7.64-11.92"></path><path class="cls-29" d="M397.15 237.08c-1.64.43-3.2-1.21-4.89-1a.55.55 0 0 0-.3.11.62.62 0 0 0-.13.49 45.53 45.53 0 0 1-.79 9.61.41.41 0 0 0 0 .29.45.45 0 0 0 .35.18 33.56 33.56 0 0 0 5.1.45"></path><path class="cls-28" d="M393.38 237.24a.78.78 0 1 1-.05 0"></path><path d="M416.65 191.52a11.25 11.25 0 0 0-6.09 6.5 25.56 25.56 0 0 0-1.49 9c-.09 3.91.13 7.82 0 11.73a22.09 22.09 0 0 1-1.6 8.3 13.47 13.47 0 0 1-7.72 7 7.67 7.67 0 0 0-2.48 1.13c-1.59 1.38-1.2 3.88-1.14 6a14.35 14.35 0 0 1-1 5.69 2.74 2.74 0 0 0-.32 1.69 2.39 2.39 0 0 0 .72 1.06 25.62 25.62 0 0 0 18.11 7.38 19.33 19.33 0 0 0 10.86-3.18 19.94 19.94 0 0 0 7.43-11.28 45.26 45.26 0 0 0 1.07-13.68 123.19 123.19 0 0 0-3.3-23.72 24.94 24.94 0 0 0-3-7.93 14 14 0 0 0-6.66-5.4 5 5 0 0 0-3.69-.24" fill="#e19e45"></path><path class="cls-29" d="M399.4 243.91a28.37 28.37 0 0 0 7.92-.3c4.92-1.13 8.95-4.93 11.24-9.44s3-9.67 3-14.73c0-1.11 0-2.23.07-3.34.82.07 1.24 1 1.46 1.79a54.83 54.83 0 0 1 2.07 17.42 24.77 24.77 0 0 1-.86 5.94 9.8 9.8 0 0 1-2.54 4.47 10.75 10.75 0 0 1-2.8 1.81 15.88 15.88 0 0 1-7.05 1.76c-4.54-.06-8.57-2.72-12.32-5.27"></path><path class="cls-29" d="M404.17 236.6a14.4 14.4 0 0 0 7.21-7.52 42.53 42.53 0 0 0 2.79-10.27 2.07 2.07 0 0 1 .49 1.28 31.87 31.87 0 0 1 .44 6.61 10.9 10.9 0 0 1-2.21 6.14 11.14 11.14 0 0 1-8.72 3.76"></path><path class="cls-13" d="M402.13 153a22.19 22.19 0 0 0-4.44 4.1 7.47 7.47 0 0 0-1.59 5.67 9.54 9.54 0 0 1 .45 2.51 5.85 5.85 0 0 1-2.2 3.6c-.38.37-.69.89-.38 1.32s.84.52 1.16.8a1.75 1.75 0 0 1 .43 1l1.18 6.7a2.89 2.89 0 0 0 .39 1.19c.72 1.05 2.31.77 3.51.37l4.46-1.47a31.54 31.54 0 0 0 6-2.45 10.57 10.57 0 0 0 4.45-4.6 13.35 13.35 0 0 0 .82-2.72 17.69 17.69 0 0 0 .05-8.31 8.79 8.79 0 0 0-5.34-6.06"></path><path d="M396.22 174.79a2.84 2.84 0 0 0 1.7-.68 2 2 0 0 0 .61-.83 4.06 4.06 0 0 1-1.46.27h-1.24l.22 1.26z" fill="#d05544"></path><path class="cls-17" d="M397.25 165.13c1.68.4 3.61 0 4.41-1.66.18-.37-.37-.69-.55-.32-.68 1.43-2.27 1.7-3.69 1.36-.4-.09-.57.52-.17.62zM397.1 162.12c1.33-1 3.15-2 4.85-1.42.39.13.56-.49.17-.62-1.87-.62-3.88.38-5.35 1.48-.32.25 0 .8.33.56z"></path><circle cx="403.1" cy="169.48" r="1.99" opacity=".42" fill="#d05544"></circle><path class="cls-15" d="M415.06 152.5a17.45 17.45 0 0 1 3.58-10.31 15.88 15.88 0 0 1 9.2-5.8 9.87 9.87 0 0 1 4.83.1c3.38 1.06 5.56 4.69 5.54 8.23a13 13 0 0 1-4.53 9.27 28 28 0 0 1-9.19 5.19M408.27 165.35a3.85 3.85 0 0 1 2.71 2.32 8.11 8.11 0 0 1 .51 3.66 57 57 0 0 1-1.1 7.45 21 21 0 0 0-.25 7.5 9 9 0 0 0 4 6.16 10.22 10.22 0 0 1-2.29-5.77 14.74 14.74 0 0 1 .91-6.2c.31-.88.68-1.72 1-2.59 1.2-3.1 1.89-6.53 1.07-9.75a5.94 5.94 0 0 0-1.14-2.42 6.24 6.24 0 0 0-3.79-1.85"></path><path class="cls-15" d="M398.76 155.89a13.64 13.64 0 0 0 7.72 10.46 3.3 3.3 0 0 0 1.49.36 11.65 11.65 0 0 0 1.3-.3c1.78-.35 3.49 1.18 4.06 2.91a13.53 13.53 0 0 1 .13 5.42 18.23 18.23 0 0 0 .8 8.5c2.08 5.23 7.81 8.32 9.89 13.55.9 2.27 1 4.77 1.79 7.09a15 15 0 0 0 12.95 9.92 16.81 16.81 0 0 0 14.77-7.39 25.73 25.73 0 0 0 2.83-6 21.43 21.43 0 0 0 1.35-6.55c.12-6.43-4.37-12.28-10-15.38-4.59-2.53-10.15-3.72-13.59-7.68-4.7-5.41-3.77-14.1-8.37-19.59-4.21-5-11.93-5.75-18.14-3.66-4 1.36-8.05 4.14-9 8.31"></path><path class="cls-15" d="M444.32 209.34c-.41-3.21-5.14-3.45-5.19 0-.22 16.49-5.65 33.58-16.61 46.19-11.71 13.46-28.73 15.66-45.65 14.39a2.23 2.23 0 0 0-2.48 2.35 2.11 2.11 0 0 0 1.79 2.75c19.46 3.07 44.83 6.58 58.49-11.31 11.23-14.71 11.91-36.71 9.65-54.37z"></path><path class="cls-15" d="M396.69 274.4c-15 24.41-20.29 52.77-25.22 80.58-.28 1.63 2.21 2.33 2.51.69 4.88-27.59 10.07-55.74 24.95-80 .88-1.43-1.37-2.73-2.24-1.31zM419.54 274.4c15 24.41 20.29 52.77 25.22 80.58.29 1.63-2.21 2.33-2.5.69-4.89-27.59-10.08-55.74-25-80-.87-1.43 1.37-2.73 2.24-1.31z"></path><path class="cls-33" d="M376.73 360.05l-31.33-99.92-4.56-14.52a1.31 1.31 0 1 0-2.5.77l31.33 99.91 4.56 14.53a1.31 1.31 0 1 0 2.5-.77zM192.87 360.82l31.33-99.92 4.55-14.52a1.31 1.31 0 1 0-2.5-.77l-31.33 99.91-4.55 14.53a1.31 1.31 0 1 0 2.5.77z"></path><rect class="cls-33" x="191.62" y="244.46" width="182.6" height="2.78" rx="1.39"></rect></g></svg> 