<?xml version="1.0" encoding="UTF-8"?> <svg xmlns="http://www.w3.org/2000/svg" xmlns:xlink="http://www.w3.org/1999/xlink" viewBox="0 0 570 440"><defs><style>.cls-4,.cls-5,.cls-6,.cls-7{fill-rule:evenodd}.cls-4{fill:#8490b4}.cls-5{fill:#9eafd4}.cls-6{fill:#bfcbe5}.cls-7{fill:#fff}.cls-8{fill:#a7adb7}.cls-9{fill:#d4dae8}.cls-12{fill:#eac1ad}.cls-44{fill:#f4f5f5;stroke:#cfcfcf;stroke-width:.5px;stroke-miterlimit:10}</style><linearGradient id="linear-gradient" x1="260.56" y1="273.63" x2="290.54" y2="273.63" gradientTransform="rotate(-180 275.55 273.635)" gradientUnits="userSpaceOnUse"><stop offset="0" stop-color="#d67859"></stop><stop offset="1" stop-color="#c74d44"></stop></linearGradient><linearGradient id="linear-gradient-2" x1="268.54" y1="273.63" x2="302.79" y2="273.63" gradientTransform="rotate(-180 285.665 273.635)" xlink:href="#linear-gradient"></linearGradient><linearGradient id="linear-gradient-3" x1="302.78" y1="365.3" x2="303.85" y2="365.36" gradientTransform="matrix(1.09 0 0 1.19 -152.75 -212.83)" gradientUnits="userSpaceOnUse"><stop offset="0" stop-color="#2e2e3a"></stop><stop offset="1" stop-color="#3e485f"></stop></linearGradient><linearGradient id="linear-gradient-4" x1="214.04" y1="291.53" x2="235.59" y2="292.59" gradientTransform="rotate(21.09 410.19 195.574)" gradientUnits="userSpaceOnUse"><stop offset="0" stop-color="#6fb6e5"></stop><stop offset="1" stop-color="#4b79b7"></stop></linearGradient><linearGradient id="linear-gradient-5" x1="142.18" y1="233.01" x2="151.87" y2="233.01" gradientUnits="userSpaceOnUse"><stop offset="0" stop-color="#c7cde9"></stop><stop offset="1" stop-color="#999dbc"></stop></linearGradient><linearGradient id="linear-gradient-6" x1="146.83" y1="193.03" x2="198.71" y2="193.03" gradientTransform="rotate(58.23 139.322 211.361)" xlink:href="#linear-gradient-5"></linearGradient><linearGradient id="linear-gradient-7" x1="228.05" y1="236.42" x2="228.05" y2="252.88" gradientTransform="rotate(11.5 402.373 170.917)" xlink:href="#linear-gradient-3"></linearGradient><linearGradient id="linear-gradient-8" x1="244.59" y1="197.68" x2="244.59" y2="246.78" xlink:href="#linear-gradient-4"></linearGradient><linearGradient id="linear-gradient-9" x1="178.12" y1="186.51" x2="226.51" y2="186.51" gradientTransform="rotate(-9.9 424.028 183.82)" xlink:href="#linear-gradient-4"></linearGradient><linearGradient id="linear-gradient-10" x1="262.74" y1="292.94" x2="280.32" y2="319.31" xlink:href="#linear-gradient-3"></linearGradient><linearGradient id="linear-gradient-11" x1="244.53" y1="354.52" x2="261.41" y2="354.52" xlink:href="#linear-gradient-3"></linearGradient><linearGradient id="linear-gradient-12" x1="252.72" y1="238.22" x2="252.72" y2="349.04" xlink:href="#linear-gradient-3"></linearGradient><linearGradient id="linear-gradient-13" x1="219.97" y1="354.52" x2="238.98" y2="354.52" xlink:href="#linear-gradient-3"></linearGradient><linearGradient id="linear-gradient-14" x1="83.07" y1="257.9" x2="83.07" y2="306.69" xlink:href="#linear-gradient-3"></linearGradient><linearGradient id="linear-gradient-15" x1="82.38" y1="234.58" x2="82.38" y2="211.68" gradientUnits="userSpaceOnUse"><stop offset="0" stop-color="#c95b45"></stop><stop offset="1" stop-color="#de9b46"></stop></linearGradient><linearGradient id="linear-gradient-16" x1="48.18" y1="282.51" x2="78.16" y2="282.51" gradientTransform="rotate(-180 63.17 282.505)" xlink:href="#linear-gradient"></linearGradient><linearGradient id="linear-gradient-17" x1="56.16" y1="282.51" x2="90.41" y2="282.51" gradientTransform="rotate(-180 73.285 282.505)" xlink:href="#linear-gradient"></linearGradient><linearGradient id="linear-gradient-18" x1="90.44" y1="269.38" x2="90.44" y2="344" xlink:href="#linear-gradient-3"></linearGradient><linearGradient id="linear-gradient-19" x1="65.93" y1="269.11" x2="65.93" y2="206.7" xlink:href="#linear-gradient-15"></linearGradient><linearGradient id="linear-gradient-20" x1="71.38" y1="326.43" x2="71.38" y2="332.79" xlink:href="#linear-gradient-3"></linearGradient><linearGradient id="linear-gradient-21" x1="100.97" y1="343.72" x2="100.97" y2="352.22" xlink:href="#linear-gradient-3"></linearGradient><linearGradient id="linear-gradient-22" x1="55.71" y1="158.34" x2="64.79" y2="135.86" gradientTransform="rotate(-21.98 256.009 198.668)" xlink:href="#linear-gradient-15"></linearGradient><linearGradient id="linear-gradient-23" x1="70.49" y1="261.4" x2="70.49" y2="328.72" xlink:href="#linear-gradient-3"></linearGradient><linearGradient id="linear-gradient-24" x1="745.39" y1="299.14" x2="778.58" y2="298.79" gradientTransform="matrix(-.92 -.32 -.45 .93 943.24 189.83)" gradientUnits="userSpaceOnUse"><stop offset="0" stop-color="#eff3fb"></stop><stop offset=".27" stop-color="#e6edf7"></stop><stop offset="1" stop-color="#d2deef"></stop></linearGradient><linearGradient id="linear-gradient-25" x1="150.47" y1="242.34" x2="150.47" y2="247.39" xlink:href="#linear-gradient-5"></linearGradient><linearGradient id="linear-gradient-26" x1="198.93" y1="242.34" x2="198.93" y2="247.39" xlink:href="#linear-gradient-5"></linearGradient><linearGradient id="linear-gradient-27" x1="189.04" y1="247.39" x2="189.04" y2="360" gradientUnits="userSpaceOnUse"><stop offset="0" stop-color="#999dbc"></stop><stop offset="1" stop-color="#c7cde9"></stop></linearGradient><linearGradient id="linear-gradient-28" x1="105.74" y1="247.39" x2="105.74" xlink:href="#linear-gradient-27"></linearGradient><linearGradient id="linear-gradient-29" x1="204.29" y1="247.39" x2="204.29" xlink:href="#linear-gradient-27"></linearGradient><linearGradient id="linear-gradient-30" x1="120.99" y1="247.39" x2="120.99" xlink:href="#linear-gradient-27"></linearGradient><linearGradient id="linear-gradient-31" x1="116.95" y1="131.35" x2="116.95" y2="150.31" gradientUnits="userSpaceOnUse"><stop offset="0" stop-color="#edd149"></stop><stop offset="1" stop-color="#e3af46"></stop></linearGradient><linearGradient id="linear-gradient-32" x1="380.38" y1="-177.01" x2="380.38" y2="-154.85" gradientTransform="rotate(-90 407.63 124.75)" gradientUnits="userSpaceOnUse"><stop offset="0" stop-color="#7ec6ea"></stop><stop offset="1" stop-color="#4b79b7"></stop></linearGradient><linearGradient id="linear-gradient-33" x1="163.18" y1="128.22" x2="163.18" y2="147.18" xlink:href="#linear-gradient-31"></linearGradient><linearGradient id="linear-gradient-34" x1="168.9" y1="140.83" x2="168.9" y2="164.16" xlink:href="#linear-gradient-32"></linearGradient><linearGradient id="linear-gradient-35" x1="213.28" y1="128.22" x2="213.28" y2="147.18" xlink:href="#linear-gradient-31"></linearGradient><linearGradient id="linear-gradient-36" x1="222.77" y1="145.61" x2="222.77" y2="164.58" xlink:href="#linear-gradient-32"></linearGradient><linearGradient id="linear-gradient-37" x1="388.2" y1="-80.68" x2="388.2" y2="-58.51" gradientTransform="rotate(-90 407.63 124.75)" xlink:href="#linear-gradient"></linearGradient><linearGradient id="linear-gradient-38" x1="126.49" y1="155.1" x2="126.49" y2="166.09" xlink:href="#linear-gradient"></linearGradient><linearGradient id="linear-gradient-39" y1="359.49" x2="320.38" y2="359.49" xlink:href="#linear-gradient-27"></linearGradient></defs><g style="isolation:isolate"><g id="Слой_4" data-name="Слой 4"><path d="M409.49 154.91h105a46.54 46.54 0 0 0 46.4-46.4 46.54 46.54 0 0 0-46.4-46.4h-434a75.35 75.35 0 0 0-75.14 75.14 75.35 75.35 0 0 0 75.13 75.13 31.87 31.87 0 0 1 31.77 31.77 31.87 31.87 0 0 1-31.77 31.77H42.25a33.12 33.12 0 0 0-33 33 33.12 33.12 0 0 0 33 33h48.34a12.9 12.9 0 0 1 12.86 12.86 12.9 12.9 0 0 1-12.86 12.86h-8.52a8.89 8.89 0 0 0-8.87 8.87 8.9 8.9 0 0 0 8.87 8.88H138c11.77 0 13.08-13.92 42.83-13.92h85.72A11.61 11.61 0 0 0 278.13 360a11.62 11.62 0 0 0-11.58-11.59h-11.12a16.83 16.83 0 0 1-16.78-16.77 16.83 16.83 0 0 1 16.78-16.78h16.74c45.19 0 51.58-11.81 59.49-35.3s49-25.39 49-25.39h31.71a25.36 25.36 0 0 0 25.28-25.28 25.36 25.36 0 0 0-25.28-25.29h-2.9a24.39 24.39 0 0 1-24.32-24.32 24.4 24.4 0 0 1 24.32-24.32zM57.17 367.69a8.88 8.88 0 1 1-8.88 8.87 8.87 8.87 0 0 1 8.88-8.87z" fill-rule="evenodd" fill="#e1e7f4"></path><path d="M17.12 144.4h29.25a2.77 2.77 0 0 1 1.75.63.89.89 0 0 1 .34.27.94.94 0 0 1 .12.22 2.7 2.7 0 0 1 .55 1.64v17.19a2.75 2.75 0 0 1-.81 2 2.76 2.76 0 0 1-2 .82h-29.2a2.78 2.78 0 0 1-2.76-2.77v-17.24a2.71 2.71 0 0 1 .55-1.65.5.5 0 0 1 .12-.21.89.89 0 0 1 .34-.27 2.73 2.73 0 0 1 1.75-.63zm29.62 21l-11.59-8.86-2.89 2.21-.07.05h-.87l-.08-.05-2.89-2.21-11.59 8.86a1.22 1.22 0 0 0 .38.07h29.23a1.11 1.11 0 0 0 .37-.07zm-10.55-9.65l11.26 8.61v-17.24l-11.26 8.6zM16 164.33l11.27-8.61-11.27-8.6v17.21zM31.74 157l14.32-10.93H17.43z" fill="#b1bede" fill-rule="evenodd"></path><path class="cls-4" d="M343.13 136.51h-36.67A6.47 6.47 0 0 0 300 143v31.93a1.38 1.38 0 0 0 .85 1.29 1.38 1.38 0 0 0 1.51-.3l9.52-9.52h31.24a6.49 6.49 0 0 0 6.47-6.47V143a6.49 6.49 0 0 0-6.47-6.47zM306.46 138h36.67a5 5 0 0 1 5 5v16.93a5 5 0 0 1-5 5h-31.87l-9.76 9.76V143a5 5 0 0 1 5-5z"></path><path class="cls-4" d="M343.43 142.82a.41.41 0 1 0 0-.82h-37.27a.41.41 0 1 0 0 .82zM343.43 146.85a.41.41 0 1 0 0-.82h-3.94a.41.41 0 1 0 0 .82zm-9.2 0a.41.41 0 0 0 0-.82h-28.07a.41.41 0 1 0 0 .82zM343.43 150.88a.42.42 0 1 0 0-.83h-37.27a.42.42 0 1 0 0 .83zM333.07 156.34a.41.41 0 0 0 .41-.41.41.41 0 0 0-.41-.42h-26.91a.42.42 0 0 0-.42.42.41.41 0 0 0 .42.41zM321.05 160.71a.42.42 0 0 0 0-.83h-14.89a.42.42 0 1 0 0 .83zM329.59 160.71a.42.42 0 0 0 0-.83h-5.33a.42.42 0 0 0 0 .83z"></path><path class="cls-5" d="M217 78.17a2.75 2.75 0 0 1 2.75 2.76 2.7 2.7 0 0 1-.8 1.94 2.75 2.75 0 0 1-4.7-1.94 2.79 2.79 0 0 1 .8-2 2.75 2.75 0 0 1 1.95-.81zm5.19-8.17H194a3.14 3.14 0 0 0-2.23.92 3.19 3.19 0 0 0-.93 2.23v25.92L197 93a.55.55 0 0 1 .4-.16h24.82a3.18 3.18 0 0 0 3.16-3.16V73.19a3.19 3.19 0 0 0-.93-2.23 3.14 3.14 0 0 0-2.23-.92zM194 68.92a4.3 4.3 0 0 0-3 1.25 4.22 4.22 0 0 0-1.26 3v26.25a1 1 0 0 0 .17.54.93.93 0 0 0 .44.36 1 1 0 0 0 .56.05.93.93 0 0 0 .5-.26l6.17-6.18h24.59a4.27 4.27 0 0 0 4.27-4.27V73.19a4.26 4.26 0 0 0-1.25-3 4.3 4.3 0 0 0-3-1.25zm5.19 9.25a2.71 2.71 0 0 1 1.94.81 2.75 2.75 0 0 1 .81 2 2.77 2.77 0 0 1-2.75 2.75 2.75 2.75 0 0 1-1.95-.81 2.71 2.71 0 0 1-.81-1.94 2.77 2.77 0 0 1 2.76-2.76zm1.15 1.6a1.63 1.63 0 0 1 .48 1.16 1.64 1.64 0 0 1-1.63 1.63 1.64 1.64 0 0 1-1.64-1.63 1.64 1.64 0 0 1 1.64-1.64 1.63 1.63 0 0 1 1.15.48zm7.73-1.6a2.77 2.77 0 0 1 2.76 2.76 2.71 2.71 0 0 1-.81 1.94 2.74 2.74 0 0 1-3.89 0 2.71 2.71 0 0 1-.81-1.94 2.77 2.77 0 0 1 2.75-2.76zm1.16 1.6a1.63 1.63 0 0 1 .48 1.16 1.59 1.59 0 0 1-.48 1.15 1.63 1.63 0 0 1-2.31 0 1.59 1.59 0 0 1-.48-1.15 1.63 1.63 0 0 1 .48-1.16 1.63 1.63 0 0 1 2.31 0zm8.89 0a1.68 1.68 0 0 0-1.16-.48 1.64 1.64 0 0 0-1.63 1.64 1.64 1.64 0 0 0 1.67 1.63 1.64 1.64 0 0 0 1.64-1.63 1.68 1.68 0 0 0-.48-1.16z"></path><path class="cls-6" d="M524.38 189.22a12.89 12.89 0 0 1 9.14-3.79 12.89 12.89 0 0 1 9.14 3.79 12.91 12.91 0 0 1 0 18.28 12.94 12.94 0 0 1-22.07-9.14 13 13 0 0 1 1-5 12.84 12.84 0 0 1 2.8-4.19zm4.65-1.71a11.82 11.82 0 0 0-6.35 6.36A11.74 11.74 0 0 0 538 209.2a11.8 11.8 0 0 0 6.36-6.36 11.87 11.87 0 0 0 0-9 11.8 11.8 0 0 0-6.36-6.36 11.89 11.89 0 0 0-9 0zm-1.42-9.51a20.59 20.59 0 0 0-2.39.85 22 22 0 0 0-2.28 1.14 20.7 20.7 0 0 0-2.16 1.43 22.66 22.66 0 0 0-2 1.68 1.36 1.36 0 0 1-1.62.2c-1.89-1.1-3.89-2.18-5.75-3.32a.71.71 0 0 0-.28-.09 1.15 1.15 0 0 0-.32 0 1.11 1.11 0 0 0-.29.14 1.21 1.21 0 0 0-.21.24c-1.38 2.1-2.77 4.8-4 7a.71.71 0 0 0-.1.3.74.74 0 0 0 0 .33 1.11 1.11 0 0 0 .14.29 1.21 1.21 0 0 0 .24.21c1.71 1.13 3.91 2.26 5.72 3.3a1.35 1.35 0 0 1 .57.64 1.4 1.4 0 0 1 .09.29h.11l-.13.54c-.1.42-.19.84-.27 1.25s-.14.84-.19 1.28-.09.86-.12 1.29 0 .84 0 1.3v1.29c0 .41.07.86.12 1.29s.12.87.19 1.28.17.83.27 1.25a1.37 1.37 0 0 1-.08.9 1.35 1.35 0 0 1-.62.63l-5.06 2.93-.6.34a1.21 1.21 0 0 0-.24.21 1.11 1.11 0 0 0-.14.29.74.74 0 0 0 0 .33.71.71 0 0 0 .1.3l3.75 6.5.3.53a1.21 1.21 0 0 0 .21.24 1.11 1.11 0 0 0 .29.14.74.74 0 0 0 .33 0 .63.63 0 0 0 .29-.1c1.82-1.14 3.87-2.23 5.74-3.31a1.37 1.37 0 0 1 .83-.17 1.36 1.36 0 0 1 .78.37 21 21 0 0 0 2 1.68 20.7 20.7 0 0 0 2.16 1.43 19.73 19.73 0 0 0 2.3 1.15 21.67 21.67 0 0 0 2.42.86 1.32 1.32 0 0 1 1 1.3v6.61a.78.78 0 0 0 .06.31.83.83 0 0 0 .45.45.78.78 0 0 0 .31.06h8.11a.81.81 0 0 0 .31-.06 1 1 0 0 0 .27-.18 1 1 0 0 0 .17-.27.78.78 0 0 0 .07-.31V220a1.35 1.35 0 0 1 1-1.32 21.4 21.4 0 0 0 4.67-2 20.7 20.7 0 0 0 2.16-1.43 19.71 19.71 0 0 0 2-1.68 1.4 1.4 0 0 1 .82-.37 1.36 1.36 0 0 1 .87.22l5.66 3.26a.63.63 0 0 0 .3.1.7.7 0 0 0 .32 0 .87.87 0 0 0 .29-.14.79.79 0 0 0 .21-.24l4.06-7a.88.88 0 0 0 .1-.3 1.22 1.22 0 0 0 0-.33.89.89 0 0 0-.15-.29.93.93 0 0 0-.23-.21l-5.72-3.3a1.31 1.31 0 0 1-.57-.64.83.83 0 0 1-.08-.22h-.15l.15-.61c.11-.41.2-.83.27-1.25s.15-.83.2-1.28.09-.86.12-1.28 0-.85 0-1.3v-1.3c0-.41-.07-.86-.12-1.29s-.12-.87-.2-1.28-.16-.83-.27-1.25a1.38 1.38 0 0 1 .09-.9 1.43 1.43 0 0 1 .61-.63l5.67-3.27a.77.77 0 0 0 .23-.21.73.73 0 0 0 .15-.29 1.22 1.22 0 0 0 0-.33.88.88 0 0 0-.1-.3c-1.39-2.05-2.77-4.8-4.06-7a.79.79 0 0 0-.21-.24.87.87 0 0 0-.29-.14.88.88 0 0 0-.32 0 .82.82 0 0 0-.3.1l-5.73 3.31a1.38 1.38 0 0 1-.86.17 1.34 1.34 0 0 1-.77-.38 22.28 22.28 0 0 0-2-1.68 22.83 22.83 0 0 0-2.15-1.42 23.49 23.49 0 0 0-2.3-1.15 19.36 19.36 0 0 0-2.43-.85 1.35 1.35 0 0 1-1-1.31v-6.61a.82.82 0 0 0-.07-.31.88.88 0 0 0-.44-.44.82.82 0 0 0-.31-.07h-8.11a.78.78 0 0 0-.31.07 1 1 0 0 0-.27.17.83.83 0 0 0-.24.58v6.61a1.35 1.35 0 0 1-1 1.32zm-2.86-.25a22.6 22.6 0 0 0-2.41 1.21 20.93 20.93 0 0 0-2.28 1.51 21.85 21.85 0 0 0-2.08 1.77.1.1 0 0 1-.09 0 .12.12 0 0 1-.1 0c-1.92-1.11-3.85-2.21-5.77-3.33a1.94 1.94 0 0 0-.73-.23 2.05 2.05 0 0 0-1.46.41 1.86 1.86 0 0 0-.52.59c-1.4 2.25-2.72 4.7-4.06 7a2.29 2.29 0 0 0-.25.75 2.09 2.09 0 0 0 .06.79 1.78 1.78 0 0 0 .35.7 1.81 1.81 0 0 0 .58.52c1.84 1.14 3.84 2.22 5.73 3.31a.11.11 0 0 1 .06.07.12.12 0 0 1 0 .1l-.13.54c-.06.26-.11.52-.16.79q-.13.69-.21 1.35c-.05.44-.09.89-.12 1.36s0 .92 0 1.37v1.36c0 .46.07.92.12 1.36s.12.89.21 1.35.18.9.28 1.33a.11.11 0 0 1 0 .1s0 .07-.07.08c-2.1 1.12-4.24 2.44-6.32 3.65l.08.09-.07.08a1.87 1.87 0 0 0-.34.71 2 2 0 0 0-.06.78 2.1 2.1 0 0 0 .26.75l4.35 7.54h.08l.14.12a1.87 1.87 0 0 0 .71.34 1.95 1.95 0 0 0 1.5-.18c1.91-1 3.87-2.24 5.75-3.32a.18.18 0 0 1 .1 0 .19.19 0 0 1 .09 0 22 22 0 0 0 2.08 1.78 20.86 20.86 0 0 0 2.28 1.5 21.21 21.21 0 0 0 2.43 1.22 22.35 22.35 0 0 0 2.57.91l.08.05a.19.19 0 0 1 0 .1v6.61a2 2 0 0 0 .16.77 2.07 2.07 0 0 0 1.09 1.09 2 2 0 0 0 .77.16h8.11a2 2 0 0 0 1.42-.6 1.83 1.83 0 0 0 .44-.65 2 2 0 0 0 .15-.77V220a.18.18 0 0 1 0-.1.19.19 0 0 1 .09-.05 23.31 23.31 0 0 0 2.55-.91 21.85 21.85 0 0 0 2.42-1.21 23 23 0 0 0 2.28-1.5 23.39 23.39 0 0 0 2.07-1.78.21.21 0 0 1 .1 0 .12.12 0 0 1 .1 0l5.72 3.31a2.29 2.29 0 0 0 .75.25 2 2 0 0 0 .78-.06 1.94 1.94 0 0 0 .71-.34 2.2 2.2 0 0 0 .51-.58c1.5-2.41 2.92-5.06 4.35-7.54l-.07-.05v-.19a1.91 1.91 0 0 0 0-.79 2.09 2.09 0 0 0-.35-.7 1.86 1.86 0 0 0-.59-.52l-5.72-3.3a.27.27 0 0 1-.07-.08.17.17 0 0 1 0-.1l.14-.61c.05-.23.09-.47.14-.72.08-.45.15-.91.21-1.35s.09-.89.12-1.36 0-.92 0-1.36v-1.37c0-.46-.07-.92-.12-1.36s-.13-.89-.21-1.35-.18-.9-.29-1.33a.18.18 0 0 1 0-.1.18.18 0 0 1 .07-.08l5.72-3.3a2.09 2.09 0 0 0 .93-1.22 1.9 1.9 0 0 0 0-.79 2 2 0 0 0-.24-.73c-1.36-2.52-2.92-5.06-4.37-7.56l-.08.05-.13-.11a2 2 0 0 0-.71-.35 1.86 1.86 0 0 0-.78 0 2.06 2.06 0 0 0-.75.24l-.42.25-5.31 3.06a.12.12 0 0 1-.1 0 .15.15 0 0 1-.09 0 22.07 22.07 0 0 0-2.08-1.77 21.07 21.07 0 0 0-2.26-1.5 23.13 23.13 0 0 0-2.44-1.22 25.08 25.08 0 0 0-2.56-.91s-.06 0-.08-.05a.14.14 0 0 1 0-.1v-6.61a2 2 0 0 0-.15-.77 1.92 1.92 0 0 0-.44-.65 2 2 0 0 0-.65-.44 2 2 0 0 0-.77-.15h-8.11a2 2 0 0 0-.77.15 2 2 0 0 0-.66.44 2 2 0 0 0-.59 1.42v6.61a.17.17 0 0 1 0 .1.15.15 0 0 1-.09.06 21.35 21.35 0 0 0-2.51.83zM464.49 229.78zm2.85-10.86a5.48 5.48 0 0 1 9.36 3.88 5.49 5.49 0 0 1-11 0 5.43 5.43 0 0 1 1.61-3.88zm1.18-5.44a10 10 0 0 0-2.15.91 9.72 9.72 0 0 0-1.88 1.43.35.35 0 0 1-.41 0l-2.55-1.47a.62.62 0 0 0-.46 0 .63.63 0 0 0-.39.29l-1.79 3.11a.58.58 0 0 0-.06.48.61.61 0 0 0 .29.38l2.52 1.46a.32.32 0 0 1 .16.37 11.27 11.27 0 0 0-.21 1.16 10.07 10.07 0 0 0 0 2.37 11.27 11.27 0 0 0 .21 1.16.34.34 0 0 1-.17.38L459.1 227a.64.64 0 0 0-.29.38.58.58 0 0 0 .06.48l1.8 3.13a.63.63 0 0 0 .39.29.6.6 0 0 0 .47-.06l2.54-1.46a.33.33 0 0 1 .4.05 10.09 10.09 0 0 0 1.88 1.42 9.7 9.7 0 0 0 2.17.92.33.33 0 0 1 .24.32v2.94a.62.62 0 0 0 .19.45.63.63 0 0 0 .44.18H473a.62.62 0 0 0 .63-.63v-2.94a.34.34 0 0 1 .26-.33 9.52 9.52 0 0 0 2.15-.91 10.16 10.16 0 0 0 1.89-1.42.33.33 0 0 1 .42 0l2.53 1.46a.62.62 0 0 0 .48.06.59.59 0 0 0 .38-.29l1.79-3.11a.67.67 0 0 0 .06-.48.64.64 0 0 0-.29-.38l-2.55-1.47a.35.35 0 0 1-.16-.37 7.63 7.63 0 0 0 .21-1.16 8.82 8.82 0 0 0 0-2.37 7.63 7.63 0 0 0-.21-1.16.34.34 0 0 1 .18-.38l2.53-1.46a.59.59 0 0 0 .29-.38.67.67 0 0 0-.06-.48l-1.8-3.11a.59.59 0 0 0-.38-.29.67.67 0 0 0-.48.06l-2.55 1.47a.33.33 0 0 1-.41-.05 9.38 9.38 0 0 0-1.88-1.42 9.62 9.62 0 0 0-2.16-.92.33.33 0 0 1-.25-.32v-2.94a.62.62 0 0 0-.63-.63h-3.61a.63.63 0 0 0-.44.18.62.62 0 0 0-.19.45v2.94a.34.34 0 0 1-.23.22z"></path><path class="cls-5" d="M506.52 127.3V89.73a1.64 1.64 0 0 1 2.75-1.19l20 18.79a1.61 1.61 0 0 1 0 2.37l-20 18.78a1.58 1.58 0 0 1-1.76.31 1.6 1.6 0 0 1-.99-1.49z"></path><path class="cls-5" d="M514 141.64a33.12 33.12 0 1 0-23.42-9.7 33 33 0 0 0 23.42 9.7zm25.56-7.57a36.15 36.15 0 1 1 10.58-25.56 36 36 0 0 1-10.55 25.56z"></path><path class="cls-6" d="M454.84 173.25a.94.94 0 1 0-1.88 0v2.21h-2.21a.94.94 0 0 0 0 1.88H453v2.21a.94.94 0 0 0 1.88 0v-2.21h2.21a.94.94 0 1 0 0-1.88h-2.21zM411.27 92.89a.94.94 0 1 0-1.88 0v2.21h-2.22a.95.95 0 0 0 0 1.89h2.22v2.21a.94.94 0 1 0 1.88 0V97h2.21a.95.95 0 1 0 0-1.89h-2.21zM566.84 153.63a.94.94 0 1 0-1.88 0v2.21h-2.21a.94.94 0 1 0 0 1.88H565v2.22a.94.94 0 1 0 1.88 0v-2.22h2.22a.94.94 0 0 0 0-1.88h-2.22zM340.94 346.5a.94.94 0 0 0-1.88 0v2.21h-2.21a.95.95 0 0 0 0 1.89h2.21v2.21a.94.94 0 0 0 1.88 0v-2.21h2.22a.95.95 0 0 0 0-1.89h-2.22zM415.53 390.19a.94.94 0 0 0-1.88 0v2.21h-2.21a.94.94 0 0 0 0 1.88h2.21v2.22a.94.94 0 1 0 1.88 0v-2.22h2.21a.94.94 0 1 0 0-1.88h-2.21zM148.07 334.78a.94.94 0 0 0-1.88 0V337H144a.94.94 0 1 0 0 1.88h2.21v2.22a.94.94 0 0 0 1.88 0v-2.22h2.22a.94.94 0 1 0 0-1.88h-2.22zM126.76 80.11a.94.94 0 1 0-1.88 0v2.21h-2.21a.94.94 0 1 0 0 1.88h2.21v2.21a.94.94 0 0 0 1.88 0V84.2H129a.94.94 0 1 0 0-1.88h-2.21zM295.12 81.17a.94.94 0 1 0-1.88 0v2.21H291a.95.95 0 0 0 0 1.89h2.21v2.21a.94.94 0 1 0 1.88 0v-2.21h2.22a.95.95 0 0 0 0-1.89h-2.22zM349.47 198.38a.95.95 0 0 0-1.89 0v2.22h-2.21a.94.94 0 0 0 0 1.88h2.21v2.21a.95.95 0 0 0 1.89 0v-2.21h2.21a.94.94 0 0 0 0-1.88h-2.21zM468.56 43.5a.94.94 0 0 0-1.88 0v2.22h-2.21a.94.94 0 1 0 0 1.88h2.21v2.21a.94.94 0 0 0 1.88 0V47.6h2.22a.94.94 0 0 0 0-1.88h-2.22z"></path><path class="cls-7" d="M25.28 116.5a.94.94 0 0 0-1.88 0v2.21h-2.21a.95.95 0 0 0 0 1.89h2.21v2.21a.94.94 0 0 0 1.88 0v-2.21h2.22a.95.95 0 0 0 0-1.89h-2.22zM21 219.86a.94.94 0 0 0-1.88 0v2.22h-2.19a.94.94 0 1 0 0 1.88h2.21v2.21a.94.94 0 0 0 1.88 0V224h2.21a.94.94 0 1 0 0-1.88H21zM160.61 304a.94.94 0 1 0-1.88 0v2.22h-2.21a.94.94 0 1 0 0 1.88h2.21v2.21a.94.94 0 0 0 1.88 0v-2.21h2.21a.94.94 0 0 0 0-1.88h-2.21zM5 349.86a.95.95 0 0 0-1.89 0v2.22H.94a.94.94 0 0 0 0 1.88h2.21v2.21a.95.95 0 0 0 1.89 0V354h2.21a.94.94 0 0 0 0-1.88H5zM375.86 101.58a.94.94 0 1 0-1.88 0v2.22h-2.22a.94.94 0 1 0 0 1.88H374v2.21a.94.94 0 1 0 1.88 0v-2.21h2.21a.94.94 0 0 0 0-1.88h-2.21zM375.86 215.6a.94.94 0 1 0-1.88 0v2.21h-2.22a.95.95 0 0 0 0 1.89H374v2.21a.94.94 0 1 0 1.88 0v-2.21h2.21a.95.95 0 0 0 0-1.89h-2.21zM245.86 81.34a.95.95 0 0 0-1.89 0v2.21h-2.21a.94.94 0 1 0 0 1.88H244v2.22a.95.95 0 0 0 1.89 0v-2.22h2.21a.94.94 0 1 0 0-1.88h-2.21zM163.47 136.23a2.63 2.63 0 0 1-5.25-.17.44.44 0 0 1 .46-.43l4.33.13a.46.46 0 0 1 .44.47z"></path><path class="cls-8" transform="rotate(180 281.69 319.735)" d="M280.03 289.67h3.32v60.13h-3.32z"></path><path class="cls-9" transform="rotate(180 281.69 287.33)" d="M279.02 284.99h5.34v4.69h-5.34z"></path><path class="cls-9" transform="rotate(180 281.69 338.705)" d="M279.67 329.95h4.03v17.51h-4.03z"></path><path class="cls-9" transform="rotate(180 281.69 349.8)" d="M279.02 347.46h5.34v4.69h-5.34z"></path><path class="cls-8" transform="rotate(180 281.69 280.55)" d="M275.22 276.11h12.95v8.87h-12.95z"></path><rect class="cls-8" x="268.54" y="273.46" width="26.52" height="6.64" rx=".69" transform="rotate(180 281.805 276.78)"></rect><path class="cls-8" d="M268.82 356.62l10.2-5.06v-3.52l-11.53 7.73 1.33.85z"></path><path class="cls-8" d="M265.1 357.61a2.39 2.39 0 1 0 2.39-2.39 2.39 2.39 0 0 0-2.39 2.39zM279.3 357.61a2.39 2.39 0 1 0 2.39-2.39 2.39 2.39 0 0 0-2.39 2.39zM294.56 356.62l-10.2-5.06v-3.52l11.53 7.73-1.33.85z"></path><path class="cls-8" d="M298.28 357.61a2.39 2.39 0 1 1-2.39-2.39 2.39 2.39 0 0 1 2.39 2.39z"></path><path class="cls-8" transform="rotate(180 281.69 353.69)" d="M281.04 349.8h1.29v7.78h-1.29z"></path><path d="M260.56 270.11h27.73a2.25 2.25 0 0 1 2.25 2.25v2.55a2.25 2.25 0 0 1-2.25 2.25h-27.73v-7.05z" transform="rotate(180 275.55 273.635)" fill="url(#linear-gradient)"></path><path d="M270.8 270.11h32v5a2.09 2.09 0 0 1-2.09 2.09H270.8a2.25 2.25 0 0 1-2.25-2.25v-2.55a2.25 2.25 0 0 1 2.25-2.29z" transform="rotate(180 285.665 273.635)" fill="url(#linear-gradient-2)"></path><path class="cls-12" d="M174.66 226.22c-1.24-2.67-2.55-2.43-3.46-2.9s-3.1.66-3.71 2-.93 1.34-1 2.45 3 1.51 4.34 1.68a42.05 42.05 0 0 1 5.49 1.74l4.82-3.83z"></path><path transform="rotate(57.33 176.929 221.963)" fill="url(#linear-gradient-3)" d="M176.27 211.51h1.33v20.92h-1.33z"></path><path class="cls-12" d="M176.55 225.86c-.81-2.33-1.94-1.65-3.51-1.35a26.44 26.44 0 0 0-3.85 1.21s-.56 1.27.37 1.77 3.89-.22 4.13 1.59 7.5-1.69 7.5-1.69z"></path><path d="M224.37 204.43c-4.24-1.26-7.48.77-11.69 11.37a54.91 54.91 0 0 1-8.36 14.2l-26.7-4.13-2.63 5s25.59 9.6 31.36 9.81c8 .29 14.32-12.33 19.94-22.05 3.97-6.85 3.86-12.48-1.92-14.2z" fill="url(#linear-gradient-4)"></path><path fill="url(#linear-gradient-5)" d="M144.28 243.65h-2.1l7.58-21.27h2.11l-7.59 21.27z"></path><path transform="rotate(-68.33 172.498 230.147)" fill="url(#linear-gradient-6)" d="M170.82 200.68h3.37v58.93h-3.37z"></path><path class="cls-12" d="M190.37 197.14a47.52 47.52 0 0 0 4.63 4.76c1.41 1 1.84 4 2 5.32s2.69.07 2.69.07a23.28 23.28 0 0 1 5.11 2.58c1.32.86 3-1.51 4.36-2.6s1.29-3.19 2.14-6.45-.29-7.68-.29-7.68l-5.66-7.83-10.5 3z"></path><path d="M191.58 198.44c-2.75 1.77-10-2.36-3.74-7.39 2.84-2.29 7.72-9.88 11.63-9.67s5.23 2.62 5.23 2.62 1.66-1.38 5 1.76 3.92 12.22 5.13 14.28l-6.06-2s1.15-3.55-.76-5.48-5.49-.53-4.35 1.81 0 3.31 0 3.31-2.85-1.19-3-2.91c-.31-3.2-6.23-4.17-6.56-1.93s-.1 4.05-2.52 5.6z" fill="#3a2727"></path><path class="cls-12" d="M218.94 199.88a4.15 4.15 0 0 1-.94 0c-1.28-.33-9.26-2.92-9.26-2.92l-1.51 9s10.81 7.86 14.64 9.78c-1.18-5.23-2.19-10.51-2.93-15.86z"></path><path fill="url(#linear-gradient-7)" d="M214.8 198.34l-.67 13.45 3.55 2.37 1.32-16.55-4.2.73z"></path><path d="M217.06 198.06s7.41-.32 10.93-.38c5.83-.09 17.26 4.61 23.88 9.69 10.59 8.12 21.72 29.72 21.72 29.72a35 35 0 0 1-11 6.54 62.75 62.75 0 0 1-13.75 3.15S238 230.19 229.41 228.3a27.55 27.55 0 0 1-13.83-8.1z" fill="url(#linear-gradient-8)"></path><path class="cls-12" d="M185.36 237.18s-7.35-1.4-9-1-6.19 3.25-6.19 3.25l.68.4 1.44.16-1 .61 1 .82 1.16-.34 1.55-.06-2 .9 1 .59 1.85-.69-.06 1.3.79.09 1.32-1.63 2.88.25 3.39-1.39 3.94.77z"></path><path d="M222.94 201.15c-4.2-1.4-7.94-.43-7.79 11 .13 9.86-.64 20.51-.64 20.51l-29.15 4.54-.64 5.64s29.09.16 34.83.81 7-17.12 7.94-25 1.18-15.65-4.55-17.5z" fill="url(#linear-gradient-9)"></path><path d="M273.59 237.09c3 7.86 2.39 17.79 0 24.91-1.93 5.72-5.73 28.08-7.82 39.84-1.23 6.89-1.13 31.06-4.35 47.2h-9.36s-3.51-33.33-3.51-43.19.26-59.07.26-59.07z" fill="url(#linear-gradient-10)"></path><path fill="url(#linear-gradient-11)" d="M261.41 349.04v10.74l-16.88.22 6.31-6.92 1.21-4.04h9.36z"></path><path d="M272.85 238.22c3 7.86 2 17.68 0 24.91s-20.77 38.4-21.84 44.16C248.8 319.11 239 349 239 349h-8.29s5-33.33 5-43.19 12.35-57.94 12.35-57.94z" fill="url(#linear-gradient-12)"></path><path fill="url(#linear-gradient-13)" d="M238.98 349.04v10.74l-19.01.22 8.44-6.92 2.28-4.04h8.29z"></path><path d="M87.15 257.9s8.44 9.5 15.16 17.49l-3.62 31.3s-.54-13.6-10.54-20.66-24.31-26.93-24.31-26.93z" fill="url(#linear-gradient-14)"></path><path class="cls-12" d="M85.59 230.49s7.86 4.36 9.45 4.84 3.47 1.1 5.57 0 6.76-6 7.65-9l-4.45-2.38-7 6-8.2-4z"></path><path d="M72.26 215.26l9-3.58s2.67 1.39 4.93 5.61a51.58 51.58 0 0 0 6.31 8.65l-7.4 8.64s-5.17-5.27-7.67-9.73-5.17-9.59-5.17-9.59z" fill="url(#linear-gradient-15)"></path><path class="cls-8" transform="rotate(180 69.31 324.17)" d="M67.65 298.54h3.32v51.25h-3.32z"></path><path class="cls-9" transform="rotate(180 69.31 296.2)" d="M66.64 293.86h5.34v4.69h-5.34z"></path><path class="cls-9" transform="rotate(180 69.31 338.705)" d="M67.29 329.95h4.03v17.51h-4.03z"></path><path class="cls-9" transform="rotate(180 69.31 349.8)" d="M66.64 347.46h5.34v4.69h-5.34z"></path><path class="cls-8" transform="rotate(180 69.31 289.42)" d="M62.84 284.99h12.95v8.87H62.84z"></path><rect class="cls-8" x="56.16" y="282.33" width="26.52" height="6.64" rx=".69" transform="rotate(180 69.42 285.655)"></rect><path class="cls-8" d="M56.44 356.62l10.2-5.06v-3.52l-11.54 7.73 1.34.85z"></path><path class="cls-8" d="M52.71 357.61a2.39 2.39 0 1 0 2.39-2.39 2.39 2.39 0 0 0-2.39 2.39zM66.92 357.61a2.39 2.39 0 1 0 2.39-2.39 2.39 2.39 0 0 0-2.39 2.39zM82.17 356.62l-10.19-5.06v-3.52l11.53 7.73-1.34.85z"></path><path class="cls-8" d="M85.9 357.61a2.39 2.39 0 1 1-2.39-2.39 2.39 2.39 0 0 1 2.39 2.39z"></path><path class="cls-8" transform="rotate(180 69.31 353.69)" d="M68.66 349.8h1.29v7.78h-1.29z"></path><path d="M48.18 279h27.73a2.25 2.25 0 0 1 2.25 2.25v2.55a2.25 2.25 0 0 1-2.25 2.2H48.18v-7z" transform="rotate(180 63.17 282.505)" fill="url(#linear-gradient-16)"></path><path d="M58.41 279h32v5a2.09 2.09 0 0 1-2.09 2H58.41a2.25 2.25 0 0 1-2.25-2.25v-2.55a2.25 2.25 0 0 1 2.25-2.2z" transform="rotate(180 73.285 282.505)" fill="url(#linear-gradient-17)"></path><path class="cls-12" d="M82.25 189.83A45.23 45.23 0 0 1 80.18 200c-1.18 3-3.26 5.31-5.68 6.09s-6-2.19-7.53-4.5-1.17-5.27-1.16-8.06a17.25 17.25 0 0 1 1.19-5.64s-.18-4.64 2.43-6c9.95-5.03 12.92 5.49 12.82 7.94z"></path><path d="M82.93 188.41c-2.09.76-4.94 1-9.46-1.49a7.78 7.78 0 0 0-3.89-1c-.48 1.74.55 2 .36 3.54s-2.36 2.49-2.36 2.49-.63 2.27-1.35 2.84-2.44 5.39-2.44 5.39-1.55-4.64-1.64-5.37-2.17-2.37-3-4.81.68-12 6.63-11.44c0 0 6.42-4.37 14 1.8 2.94 2.35 3.15 8.05 3.15 8.05z" fill="#563733"></path><path class="cls-12" d="M67.46 192.5c.14-1.13.74-3.93-1.77-4.37s-2.36 3.45-1.6 4.42a18.83 18.83 0 0 1 1.65 3 5.68 5.68 0 0 0 1.72-3.05z"></path><path class="cls-12" d="M64.43 194.22s-.57 4.46-1.05 6.72a6.1 6.1 0 0 1-1.81 3.6c-.55.55-6.78 4.77-6.78 4.77s13.59 25.33 17.51 12.13c1.24-4.16 6.3-11 6.3-11s-4.74-3.71-5.44-5.59-1.1-7.31-1.1-7.31z"></path><path d="M95 269.42c2.77-.6 8.22 5.57 11 13.09 2 5.38 1.16 12.83.28 23.14-.59 7-2.68 38.35-2.68 38.35h-8.17s-1.51-17.87-2.09-30.95c-.85-19.19-1.08-22.31-1.08-22.31l-18.61-21.32s17.05.92 21.35 0z" fill="url(#linear-gradient-18)"></path><path d="M70.25 261.52c6.82-.27 17.53-3 16.9-3.62-1.42-1.42-3.17-17.13-3.22-21.2a171.51 171.51 0 0 0-2.68-25l-6.55-4.8a5.52 5.52 0 0 1-5.39 5c-11.16.9-10.73-5.17-10.73-5.17s-8.88 3-11.67 5.3c-3.78 3.1-2 6.81.16 21.85.92 6.21.78 13.74 1.47 19.44.56 4.61-.36 16.09 3 15.82 5.71-2.27 12.4-7.83 18.71-7.62z" fill="url(#linear-gradient-19)"></path><path d="M72.42 326.51a9.3 9.3 0 0 0-5.67 1.22 5.82 5.82 0 0 1-2.91.92v4.14h15.08z" fill="url(#linear-gradient-20)"></path><path fill="url(#linear-gradient-21)" d="M103.41 343.91l-7.47-.19-.51 4.68 11.08 3.82-3.1-8.31z"></path><path class="cls-12" d="M49.52 227.31s7.84 6.41 11.06 8.4c4.63 2.87 5.26 3.86 7.37 3.27s24.4-19 24.4-19l-1.11-4.2s-9.33 6.2-15.74 9.61c-3.69 2-8.41 4.52-8.41 4.52l-8.28-7.08z"></path><path d="M66 227.38s-11.38-11.14-12.83-12.5c-7.52-7-10.95-.22-7.21 8.85 1.18 2.85 6.19 9.54 11.46 12.51 3.25-1.13 6.81-6.66 8.58-8.86z" fill="url(#linear-gradient-22)"></path><path d="M87.05 274.39c-2.2-4.56-6.83-6.53-12.55-13 0 0-4 .13-10.66.9a69.75 69.75 0 0 0-12.52 3.09c-.71 3.43-.43 7.84 3.77 12.81 2.76 3.25 6.46 1.49 13.86 4.43a32.22 32.22 0 0 1 2.47 2.27s.13 5-2.71 17.53a252.61 252.61 0 0 0-4.24 26.29l7.61-1.29S79 314 81.67 308.35c6.89-14.49 7.41-20.18 8.14-24.29.65-3.73-.81-7.06-2.76-9.67z" fill="url(#linear-gradient-23)"></path><path d="M84.37 234.32L97.09 238a3 3 0 0 0 3.39-1.5l12.39-26.5a2 2 0 0 0-1.31-2.83L99 203.47c-2.3-.23-3.44.22-4 1.44l-12.49 26.27c-.59 1.23-.37 2.09 1.86 3.14z" fill="#99a0c5"></path><path d="M85.09 234.58l12.78 3.7a3 3 0 0 0 3.41-1.5l12.44-26.59a2 2 0 0 0-1.33-2.84l-12.67-3.73a3.07 3.07 0 0 0-3.54 1.5l-12.52 26.51a2.07 2.07 0 0 0 1.43 2.95z" fill="url(#linear-gradient-24)"></path><path class="cls-12" d="M106.7 226.59l.68-1.56c-.85-.36-2-1-2.67-1.31a8.68 8.68 0 0 0-2.49-.74l-.36 1.31a11.21 11.21 0 0 1 2.49.94c.71.38 1.65.97 2.35 1.36zM107.46 224.85c.26-.58.49-1.12.69-1.58a38.4 38.4 0 0 0-3.83-2l-.77 1.07s1.86 1 2.56 1.53c.35.29.89.67 1.35.98zM106 228.29l.67-1.52a26.8 26.8 0 0 1-3-1.1c-.84-.43-1.28-.6-1.28-.6l-.46 1.2a10.37 10.37 0 0 0 2.68 1.46c.56.27 1 .41 1.39.56zM105.86 228.52a10 10 0 0 1-2.31-.64 3 3 0 0 0-1-.43l-.21 1s1.36.72 2.93 1.51c.16-.44.37-.96.59-1.44z"></path><path class="cls-12" d="M104.08 229.35l1.16.59 2.14-1.24 1.7-4.8-1.23-2.6-3.77 8.05z"></path><path class="cls-8" d="M63.84 332.79h11.95v2.65H63.84z"></path><path fill="url(#linear-gradient-25)" d="M77.44 242.34h146.05v5.05H77.44z"></path><path fill="url(#linear-gradient-26)" d="M172.05 242.34h53.76v5.05h-53.76z"></path><path fill="url(#linear-gradient-27)" d="M197.78 360h-1.91L180.3 247.39h3.94L197.78 360z"></path><path fill="url(#linear-gradient-28)" d="M97 360h1.91l15.57-112.61h-3.95L97 360z"></path><path fill="url(#linear-gradient-29)" d="M213.04 360h-1.91l-15.58-112.61h3.95L213.04 360z"></path><path fill="url(#linear-gradient-30)" d="M112.25 360h1.91l15.57-112.61h-3.94L112.25 360z"></path><path class="cls-44" d="M96.9 120h40.57v54.09H96.9z"></path><circle cx="116.95" cy="140.83" r="9.48" fill="url(#linear-gradient-31)"></circle><path style="mix-blend-mode:multiply" fill="url(#linear-gradient-32)" d="M105.87 161.29h22.16l-11.08-18.59-11.08 18.59z"></path><path class="cls-44" d="M146.26 120h40.57v54.09h-40.57z"></path><circle cx="163.18" cy="137.7" r="9.48" fill="url(#linear-gradient-33)"></circle><path style="mix-blend-mode:multiply" fill="url(#linear-gradient-34)" d="M159.73 140.83h18.33v23.33h-18.33z"></path><path class="cls-44" d="M196.36 120h40.57v54.09h-40.57z"></path><circle cx="213.28" cy="137.7" r="9.48" fill="url(#linear-gradient-35)"></circle><circle cx="222.77" cy="155.1" r="9.48" style="mix-blend-mode:multiply" fill="url(#linear-gradient-36)"></circle><path style="mix-blend-mode:multiply" fill="url(#linear-gradient-37)" d="M202.2 153.47h22.17l-11.09-18.59-11.08 18.59z"></path><path style="mix-blend-mode:multiply" fill="url(#linear-gradient-38)" d="M120.99 155.1h10.99v10.99h-10.99z"></path><path fill="none" stroke="url(#linear-gradient-39)" stroke-miterlimit="10" d="M0 359.49h320.38"></path><path d="M196.86 305.6c6.52-3.47 8.17 4.07 5.64 10.31s-15.5 27.21-16.21 35.54c-.26 3.22-.86 2.87-1.38.61-2.57-11.28 2.99-41.7 11.95-46.46z" fill="#304b3f" fill-rule="evenodd"></path><path d="M183.07 277c-7.47-6.73-12.14 2.68-10.85 11.76s11.55 41.11 9.7 52.33c-.71 4.35.2 4.08 1.63 1.26 7.11-14.04 9.8-56.08-.48-65.35z" fill="#4e8b70" fill-rule="evenodd"></path><path d="M181.77 344.23c.16.42.51.21 1-.48 7.78-25.94-4.34-64.68-4.38-64.81a.4.4 0 0 0-.51-.26.39.39 0 0 0-.26.5c.02.13 12.32 39.4 4.15 65.05z" fill="#416d5a" fill-rule="evenodd"></path><path d="M166.76 298.56c-7.24-3.15-8.38 5-5.16 11.47s18.84 27.74 20.26 36.56c.54 3.42 1.16 3 1.52.54 1.8-12.25-6.66-44.23-16.62-48.57z" fill="#a0c16b" fill-rule="evenodd"></path><path d="M182.52 349c.22.27.43 0 .61-.6-.65-21.26-19.33-47.1-19.39-47.18a.31.31 0 0 0-.44-.08.33.33 0 0 0-.08.45c.06.03 19 26.22 19.3 47.41z" fill="#5d915c" fill-rule="evenodd"></path><path class="cls-7" d="M176.95 344.25h13.9l3.63 3.27-2.96 11.43h-15.24l-2.96-11.43 3.63-3.27z"></path><rect x="172.17" y="339.99" width="23.47" height="7.53" rx="1.15" fill="#fff"></rect><path fill="#c8c3d0" fill-rule="evenodd" d="M194.48 347.52l-.61 2.35h-19.94l-.61-2.35h21.16z"></path></g></g></svg> 