<?xml version="1.0" encoding="UTF-8"?> <svg xmlns="http://www.w3.org/2000/svg" viewBox="0 0 570 440"><defs><style>.cls-10,.cls-11,.cls-12,.cls-13,.cls-14,.cls-16,.cls-17,.cls-2,.cls-22,.cls-3,.cls-30,.cls-32,.cls-36,.cls-37,.cls-39,.cls-4,.cls-44,.cls-45,.cls-5,.cls-6,.cls-7,.cls-8{fill-rule:evenodd}.cls-2{fill:#bfcbe5}.cls-26,.cls-3{fill:#fff}.cls-23,.cls-4{fill:#0a0c0d}.cls-5{fill:#1b2b32}.cls-6{fill:#416d5a}.cls-7{fill:#a0c16b}.cls-8{fill:#5d915c}.cls-10{fill:#121417}.cls-11{fill:#e18e44}.cls-12{fill:#e29076}.cls-13{fill:#f1be44}.cls-14,.cls-24{fill:#20242f}.cls-16{fill:#d96d62}.cls-17{fill:#e9ab89}.cls-35{fill:#5eb1b4}.cls-22,.cls-29{fill:#b5c5e2}.cls-28,.cls-30{fill:#c8c3d0}.cls-32{fill:#d25383}.cls-36{fill:#acabba}.cls-37{fill:#d7588e}.cls-39{fill:#78788c}.cls-44{fill:#cb504b}.cls-45{fill:#19181a}</style></defs><g id="Слой_5" data-name="Слой 5"><path d="M115.79 296.65h-42a42.76 42.76 0 0 0-42.63 42.62 42.76 42.76 0 0 0 42.62 42.63H488a69.23 69.23 0 0 0 69-69 69.23 69.23 0 0 0-69-69 29.26 29.26 0 0 1-29.18-29.18A29.27 29.27 0 0 1 488 185.48h35.13a30.43 30.43 0 0 0 30.34-30.34 30.43 30.43 0 0 0-30.34-30.34h-44.42A11.85 11.85 0 0 1 466.9 113a11.85 11.85 0 0 1 11.81-11.81h7.83A8.18 8.18 0 0 0 494.7 93a8.17 8.17 0 0 0-8.16-8.15h-51.37c-10.82 0-12 12.78-39.36 12.78h-78.75a10.67 10.67 0 0 0-10.64 10.64 10.67 10.67 0 0 0 10.64 10.64h10.22a15.45 15.45 0 0 1 15.41 15.41 15.45 15.45 0 0 1-15.41 15.41H311.9c-41.51 0-47.38 10.85-54.65 32.43s-45 23.32-45 23.32H110a23.3 23.3 0 0 0-23.23 23.23A23.29 23.29 0 0 0 110 252h5.77a22.41 22.41 0 0 1 22.34 22.34 22.42 22.42 0 0 1-22.34 22.35zm393.63-195.48a8.15 8.15 0 1 1 8.15-8.17 8.15 8.15 0 0 1-8.15 8.17z" fill-rule="evenodd" fill="#e1e7f4"></path><path class="cls-2" d="M36.7 188.42a12.65 12.65 0 0 0-4.09-2.73 12.53 12.53 0 0 0-9.62 0 12.58 12.58 0 0 0 0 23.25 12.53 12.53 0 0 0 9.62 0 12.58 12.58 0 0 0 4.09-20.52zm-4.53-1.66a11.52 11.52 0 0 1 3.7 2.48 11.41 11.41 0 0 1 0 16.15 11.39 11.39 0 0 1-16.14 0 11.41 11.41 0 0 1 0-16.15 11.46 11.46 0 0 1 12.44-2.48zm1.39-9.26a22.14 22.14 0 0 1 2.32.83 21.88 21.88 0 0 1 2.22 1.11 21.2 21.2 0 0 1 2.1 1.39 23.07 23.07 0 0 1 1.92 1.64 1.3 1.3 0 0 0 1.57.19c1.85-1.07 3.79-2.12 5.6-3.23a.72.72 0 0 1 .27-.09.8.8 0 0 1 .31 0 .72.72 0 0 1 .28.13.83.83 0 0 1 .21.24c1.35 2 2.7 4.67 3.94 6.83a.63.63 0 0 1 .1.29.7.7 0 0 1 0 .32.82.82 0 0 1-.14.28.74.74 0 0 1-.23.2c-1.66 1.1-3.8 2.2-5.57 3.22a1.37 1.37 0 0 0-.55.62.9.9 0 0 0-.08.28h-.12l.13.52c.1.41.19.82.26 1.23s.14.81.19 1.24.09.84.12 1.25 0 .83 0 1.26v1.27c0 .4-.07.83-.12 1.25s-.11.85-.19 1.24-.16.82-.26 1.23a1.26 1.26 0 0 0 .08.86 1.25 1.25 0 0 0 .6.62l4.93 2.85.55.43a.79.79 0 0 1 .37.48.7.7 0 0 1 0 .32.63.63 0 0 1-.1.29l-3.64 6.33-.29.51a.83.83 0 0 1-.21.24.72.72 0 0 1-.28.13.85.85 0 0 1-.32 0 .79.79 0 0 1-.28-.1c-1.77-1.11-3.76-2.17-5.58-3.22a1.3 1.3 0 0 0-1.57.19 23.07 23.07 0 0 1-1.92 1.64 21.2 21.2 0 0 1-2.1 1.39 22.28 22.28 0 0 1-2.24 1.12 20.57 20.57 0 0 1-2.36.83 1.26 1.26 0 0 0-.69.48 1.3 1.3 0 0 0-.27.79v6.43a.73.73 0 0 1-.06.3.78.78 0 0 1-.17.26.87.87 0 0 1-.26.18.81.81 0 0 1-.31.06h-7.87a.73.73 0 0 1-.3-.06.78.78 0 0 1-.26-.17.65.65 0 0 1-.17-.27.73.73 0 0 1-.06-.3v-6.43a1.32 1.32 0 0 0-.29-.82 1.26 1.26 0 0 0-.73-.46 21.36 21.36 0 0 1-2.32-.83 22 22 0 0 1-2.23-1.11 22.29 22.29 0 0 1-2.09-1.39 20.22 20.22 0 0 1-1.92-1.64 1.34 1.34 0 0 0-.79-.36 1.28 1.28 0 0 0-.85.21l-5.51 3.18a.77.77 0 0 1-.29.1.89.89 0 0 1-.32 0 .79.79 0 0 1-.28-.13.68.68 0 0 1-.2-.24c-1.31-2.28-2.64-4.55-3.95-6.83a1 1 0 0 1-.1-.29.89.89 0 0 1 0-.32.72.72 0 0 1 .13-.28.74.74 0 0 1 .23-.2l5.57-3.22a1.34 1.34 0 0 0 .56-.62 1.72 1.72 0 0 0 .07-.21h.14l-.14-.59q-.15-.62-.27-1.23c-.07-.39-.13-.81-.18-1.24s-.09-.84-.12-1.25 0-.83 0-1.27v-1.26c0-.4.06-.83.11-1.25s.12-.85.19-1.25.17-.81.27-1.22a1.36 1.36 0 0 0-.09-.87 1.29 1.29 0 0 0-.59-.61l-5.52-3.19a.87.87 0 0 1-.23-.2.72.72 0 0 1-.13-.28.89.89 0 0 1 0-.32 1 1 0 0 1 .1-.29c1.35-2 2.7-4.68 4-6.83a.68.68 0 0 1 .2-.24.79.79 0 0 1 .28-.13.89.89 0 0 1 .32 0 .77.77 0 0 1 .29.1l5.58 3.22a1.29 1.29 0 0 0 .83.16 1.27 1.27 0 0 0 .76-.37 20.84 20.84 0 0 1 1.9-1.62 21.05 21.05 0 0 1 2.09-1.39 21.43 21.43 0 0 1 2.25-1.12 19.92 19.92 0 0 1 2.36-.83 1.32 1.32 0 0 0 .95-1.27v-6.43a.94.94 0 0 1 .05-.3.88.88 0 0 1 .44-.44.73.73 0 0 1 .3-.06h7.89a.81.81 0 0 1 .31.06.87.87 0 0 1 .26.18.79.79 0 0 1 .23.56v6.43a1.37 1.37 0 0 0 .28.82 1.32 1.32 0 0 0 .74.46zm2.77-.24a21.49 21.49 0 0 1 2.35 1.18 19.77 19.77 0 0 1 2.22 1.46 22.2 22.2 0 0 1 2 1.73.18.18 0 0 0 .09 0 .12.12 0 0 0 .1 0l5.62-3.24a1.79 1.79 0 0 1 .7-.22 2 2 0 0 1 .74.05 2 2 0 0 1 .69.34 1.84 1.84 0 0 1 .5.57c1.36 2.2 2.65 4.59 4 6.83a2.18 2.18 0 0 1 .25.73 2 2 0 0 1-.06.77 2 2 0 0 1-.33.68 2 2 0 0 1-.58.51c-1.79 1.11-3.73 2.16-5.57 3.21a.16.16 0 0 0-.05.14.16.16 0 0 0 0 .1l.13.51a20.8 20.8 0 0 1 .36 2.08c.05.43.09.87.12 1.32s0 .9 0 1.33v1.34c0 .46-.07.89-.12 1.32a20.8 20.8 0 0 1-.48 2.6.14.14 0 0 0 0 .11.12.12 0 0 0 .07.07c2 1.09 4.12 2.38 6.15 3.55l-.08.09.07.08a2 2 0 0 1 .33.68 2 2 0 0 1 .06.77 2.06 2.06 0 0 1-.25.72L51.07 216l-.08-.05-.13.11a2 2 0 0 1-.69.34 2.14 2.14 0 0 1-.76.05 2 2 0 0 1-.71-.23c-1.85-1-3.76-2.18-5.6-3.23h-.09a.18.18 0 0 0-.09 0 22.2 22.2 0 0 1-2 1.73 20.59 20.59 0 0 1-2.21 1.46 23.85 23.85 0 0 1-2.37 1.19 21.78 21.78 0 0 1-2.5.88.16.16 0 0 0-.08.06v6.52a2 2 0 0 1-.15.75 2 2 0 0 1-.43.64 2 2 0 0 1-.64.42 1.86 1.86 0 0 1-.75.15h-7.94a1.93 1.93 0 0 1-.75-.15 2 2 0 0 1-.63-.42 2 2 0 0 1-.43-.64 1.86 1.86 0 0 1-.15-.75v-6.43a.17.17 0 0 0 0-.1.19.19 0 0 0-.09-.05 21.35 21.35 0 0 1-2.48-.88 22.58 22.58 0 0 1-2.36-1.18 20.59 20.59 0 0 1-2.21-1.46 22.33 22.33 0 0 1-2-1.73.11.11 0 0 0-.09 0 .12.12 0 0 0-.1 0l-5.65 3.2a1.92 1.92 0 0 1-.72.24 2.21 2.21 0 0 1-.77-.05 2 2 0 0 1-.68-.34 1.8 1.8 0 0 1-.5-.56c-1.46-2.35-2.84-4.93-4.24-7.34l.07-.05v-.18a2.21 2.21 0 0 1 0-.77 2 2 0 0 1 .34-.68A2 2 0 0 1 1 206l5.58-3.22a.14.14 0 0 0 .06-.07.16.16 0 0 0 0-.1L6.5 202c0-.23-.1-.46-.14-.7-.08-.44-.15-.88-.2-1.31s-.09-.87-.12-1.32 0-.9 0-1.34V196c0-.46.07-.89.12-1.32s.12-.87.2-1.31.18-.88.28-1.29a.21.21 0 0 0 0-.11l-.07-.07L1 188.67a2 2 0 0 1-.57-.51 2.07 2.07 0 0 1-.34-.68 2.21 2.21 0 0 1 0-.77 1.93 1.93 0 0 1 .19-.71c1.32-2.45 2.84-4.93 4.25-7.36l.07.05.14-.11a2 2 0 0 1 .68-.34 2.21 2.21 0 0 1 .77-.05 1.86 1.86 0 0 1 .72.24l.41.24 5.17 3a.12.12 0 0 0 .1 0 .18.18 0 0 0 .09 0 20.83 20.83 0 0 1 2-1.72 21.5 21.5 0 0 1 2.2-1.46 20.91 20.91 0 0 1 4.87-2.07.16.16 0 0 0 .08-.06.16.16 0 0 0 0-.09v-6.43A1.9 1.9 0 0 1 22 169a2 2 0 0 1 .43-.64 2 2 0 0 1 .63-.42 1.93 1.93 0 0 1 .75-.15h7.89a1.86 1.86 0 0 1 .75.15 1.95 1.95 0 0 1 1.22 1.81v6.43a.17.17 0 0 0 0 .1l.08.05a21.35 21.35 0 0 1 2.58.93zM101.85 186.88zm-2.78-10.57a5.34 5.34 0 1 0 1.57 3.78 5.35 5.35 0 0 0-1.57-3.78zM97.92 171a10 10 0 0 1 2.09.89 9.27 9.27 0 0 1 1.84 1.39.33.33 0 0 0 .39 0l2.48-1.43a.67.67 0 0 1 .46-.05.62.62 0 0 1 .37.29l1.75 3a.64.64 0 0 1 .06.47.66.66 0 0 1-.29.37l-2.46 1.42a.31.31 0 0 0-.15.36 8.34 8.34 0 0 1 .2 1.13 9.48 9.48 0 0 1 0 2.3 8.34 8.34 0 0 1-.2 1.13.32.32 0 0 0 .17.37l2.46 1.42a.65.65 0 0 1 .29.38.62.62 0 0 1-.06.46l-1.76 3a.62.62 0 0 1-.37.29.64.64 0 0 1-.47-.06l-2.46-1.42a.33.33 0 0 0-.39 0 9.27 9.27 0 0 1-1.84 1.39 9 9 0 0 1-2.11.89.33.33 0 0 0-.23.32v2.86a.65.65 0 0 1-.62.62h-3.53a.65.65 0 0 1-.62-.62v-2.86a.31.31 0 0 0-.25-.32 9 9 0 0 1-2.09-.89 9.27 9.27 0 0 1-1.84-1.39.32.32 0 0 0-.4 0l-2.47 1.42a.64.64 0 0 1-.47.06.62.62 0 0 1-.4-.19l-1.75-3a.62.62 0 0 1-.06-.46.65.65 0 0 1 .29-.38l2.52-1.43a.31.31 0 0 0 .15-.36 8.34 8.34 0 0 1-.2-1.13 9.48 9.48 0 0 1 0-2.3 8.34 8.34 0 0 1 .2-1.13.32.32 0 0 0-.17-.37L83.5 176a.66.66 0 0 1-.29-.37.64.64 0 0 1 .06-.47l1.75-3a.62.62 0 0 1 .37-.29.64.64 0 0 1 .47.06l2.48 1.43a.33.33 0 0 0 .4-.05 9.55 9.55 0 0 1 1.83-1.38 9.16 9.16 0 0 1 2.11-.89.33.33 0 0 0 .23-.32v-2.86a.57.57 0 0 1 .19-.43.57.57 0 0 1 .43-.18h3.51a.57.57 0 0 1 .43.18.57.57 0 0 1 .19.43v2.86a.31.31 0 0 0 .26.28zM3.65 300.81a.92.92 0 1 1 1.83 0V303h2.16a.92.92 0 0 1 0 1.83H5.48V307a.92.92 0 0 1-1.83 0v-2.16H1.5a.92.92 0 1 1 0-1.83h2.15zM132.63 152.88a.92.92 0 0 1 1.83 0V155h2.16a.92.92 0 0 1 0 1.83h-2.16V159a.92.92 0 1 1-1.83 0v-2.15h-2.15a.92.92 0 1 1 0-1.83h2.15zM191 58a.92.92 0 1 1 1.83 0v2.15H195a.92.92 0 1 1 0 1.85h-2.2v2.16a.92.92 0 0 1-1.83 0V62h-2.16a.92.92 0 0 1 0-1.83H191zM318.53 54.1a.92.92 0 1 1 1.83 0v2.15h2.15a.92.92 0 1 1 0 1.83h-2.15v2.16a.92.92 0 0 1-1.83 0v-2.16h-2.15a.92.92 0 1 1 0-1.83h2.15zM19.85 379.23a.92.92 0 1 1 1.83 0v2.15h2.15a.92.92 0 0 1 0 1.84h-2.15v2.15a.92.92 0 0 1-1.83 0v-2.15h-2.16a.92.92 0 0 1 0-1.84h2.16zM454.65 121a.92.92 0 0 1 1.83 0v2.16h2.15a.92.92 0 1 1 0 1.83h-2.15v2.15a.92.92 0 1 1-1.83 0V125h-2.16a.92.92 0 0 1 0-1.83h2.16z"></path><path class="cls-3" d="M471 58a.92.92 0 1 1 1.83 0v2.15H475a.92.92 0 0 1 0 1.85h-2.16v2.16a.92.92 0 0 1-1.83 0V62h-2.15a.92.92 0 1 1 0-1.83H471zM550.32 101a.92.92 0 0 1 1.83 0v2.16h2.16a.92.92 0 0 1 0 1.83h-2.16v2.15a.92.92 0 1 1-1.83 0V105h-2.15a.92.92 0 1 1 0-1.83h2.15zM563.54 356.17a.92.92 0 1 1 1.83 0v2.15h2.16a.92.92 0 0 1 0 1.84h-2.16v2.15a.92.92 0 1 1-1.83 0v-2.15h-2.15a.92.92 0 0 1 0-1.84h2.15zM565.1 247.28a.92.92 0 1 1 1.83 0v2.15h2.15a.92.92 0 1 1 0 1.83h-2.15v2.16a.92.92 0 0 1-1.83 0v-2.16H563a.92.92 0 1 1 0-1.83h2.15z"></path><path class="cls-4" d="M560.31 386.82H63.09a3.78 3.78 0 0 1-3.76-3.77 3.77 3.77 0 0 1 3.76-3.76h497.22a3.78 3.78 0 0 1 3.77 3.76 3.79 3.79 0 0 1-3.77 3.77z"></path><path class="cls-5" d="M184.3 263.1a117.59 117.59 0 0 1-49.25-20.1c-25.33-18.05 27.95-11.9 71.34 2.67l-16.77 14.9z"></path><path class="cls-6" d="M140.45 228.57c8.57 8.19 31 24.52 52.74 41.91l23.81 9.34 4.69-14.59c-16.67-26.88-38.93-54.41-58.36-68.46-34.05-24.64-52.97 3.06-22.88 31.8z"></path><path class="cls-5" d="M217.26 279.1c-27.38-43.87-79.18-79.42-79.37-79.55a.74.74 0 0 0-1.08.24.89.89 0 0 0 .25 1.17c.19.13 51.16 35.11 78.41 78.25l1.56.61z"></path><path class="cls-7" d="M194.59 172.7c4.11 11.7 10.12 39.18 17.32 67.61A52.83 52.83 0 0 1 191 268.16c-16.93-27-31.67-57.88-36.79-82.12-10.05-47.45 24.73-57.91 40.38-13.34z"></path><path class="cls-8" d="M201.33 259.05c-23.69-45.39-33.94-100.1-34-100.33a1 1 0 0 1 .68-1.12.88.88 0 0 1 1 .73c0 .23 10.18 54.31 33.49 99.27-.34.49-.75.98-1.17 1.45z"></path><path class="cls-6" d="M192.32 173.08c.06 11.86 3.87 39.34 6.44 67.06l9.83 23.65 13.76-6.79c7.77-30.65 12.14-65.78 8.77-89.52-5.92-41.62-39-36-38.8 5.6z"></path><path class="cls-5" d="M209.27 263.45c12.57-50.16 2.2-112.12 2.17-112.35a.75.75 0 0 0-.93-.61.9.9 0 0 0-.67 1c0 .22 10.24 61.19-1.89 110.76l.64 1.54z"></path><path class="cls-6" d="M66.24 351.76c10.48 5.83 36.44 16.06 62.14 27.53h26.71l.69-12.22c-23.32-22.23-52.33-43.67-75.09-52.54-39.93-15.53-51.48 16.6-14.45 37.23z"></path><path class="cls-5" d="M152.12 379.29c-38.31-34.68-95.62-55.41-95.83-55.49a.76.76 0 0 0-1 .51.9.9 0 0 0 .55 1.09c.21.08 55.93 20.24 93.9 53.89zM77.87 379.29c4.88-6.61 26.49-9.34 57.76 0z"></path><path d="M142.23 379.29c-8.3-7-16.83-16-22.54-26.81-14.74-27.93-19.32-36.73-26.5-39.08-6.2-2 47.44-25.14 98.16 29.09-1.77 12.44-8.59 25.78-25.81 36.8z" fill="#4e8b70" fill-rule="evenodd"></path><path class="cls-6" d="M100.28 309c29.17 10.68 58.3 33 82.12 55.05-.41.55-.85 1.11-1.3 1.66-24.41-22.63-54.4-45.49-84.18-55.59.97-.38 2.08-.76 3.36-1.12z"></path><path class="cls-7" d="M141.3 253.58c8.57 8.6 23.94 27.87 41.53 49.36 0 0 17.9 28.69 3.25 55.39-32-20.33-63.65-45.95-81.61-69.35-35.47-46.19-3.22-75.54 36.83-35.4z"></path><path class="cls-8" d="M191.4 342.11c-48.26-36.82-86.67-89.32-86.84-89.54a1.15 1.15 0 0 1 .16-1.57 1.06 1.06 0 0 1 1.5.26c.16.22 38 51.87 85.45 88.38-.07.82-.15 1.64-.27 2.47z"></path><path class="cls-7" d="M167.87 377.73a122.74 122.74 0 0 0-23.61-22c-23.16-16.07-46.17-7.05-48.37 1.64-.9 3.55-.1 11.92 4 21.93h65.66q1.2-.79 2.32-1.57z"></path><path class="cls-8" d="M150.85 379.29c-2.06-5.16-5.77-14-8.8-18.78-.26-.41-.68-.56-.93-.34a1 1 0 0 0 0 1.15c2.85 4.51 6.38 12.86 8.43 18zm-2.84 0h-5.32c-1.73-1-3.49-2.05-5.29-3-.76.61-2 1.64-3.5 3h-2.5c1.76-1.72 3.28-3.05 4.34-3.93a153.37 153.37 0 0 0-19.88-8.93 27 27 0 0 0-8.46 7.5c-.2.29-.61.23-.91-.13a1.06 1.06 0 0 1-.17-1.19 27.23 27.23 0 0 1 7.4-6.94 134.33 134.33 0 0 0-13.94-4 2.26 2.26 0 0 1-1.46-2c-.09-.92.43-1.53 1.15-1.37a141.55 141.55 0 0 1 27.67 9.5 111.62 111.62 0 0 0-9.85-16.74 1 1 0 0 1-.11-1.18c.23-.27.64-.17.92.21a115.88 115.88 0 0 1 10.75 18.5 172.44 172.44 0 0 1 19.15 10.7z"></path><path class="cls-3" d="M395.82 112.5l2.44 2s5.29 14.21 5.52 14.91-.12 5.34-1.39 7-4.65 1.28-5-.23-7.78-18.47-7.78-18.47z"></path><path class="cls-10" d="M349.43 125.3s-3.42.58-5.8-1.28-9.3-9.23-23.46-3.31q-2.52 1-4.75 2c12-5 18.77 2.72 22.54 5.06s5.23 1.16 5.23 1.16l4 1.57s.68-.1 1.78-.29z"></path><path class="cls-11" d="M385.2 103l2.08-1.69s4.25.59 8.14 7c0 0 2.65 4.56 2.91 4.88a1.6 1.6 0 0 1 .2 1s-3.8 5.17-8 5S385.2 103 385.2 103z"></path><path class="cls-12" d="M292.93 86.85l.23-1.16v-6.44a3.36 3.36 0 0 1 .35-1c.43-1 1.14-2.31 1.22-2.67a10.47 10.47 0 0 0-.93-3.31c-.29-.58-11.09-7.49-11.73-7.66s-.87 1.33-.29 2.43 4.94 7.73 5.28 8.31a9.51 9.51 0 0 1 1 4.06v7.55z"></path><path class="cls-13" d="M294.44 77.94s-.93.81-2.58-.14-.86-3.23-2.62-3.8a4.57 4.57 0 0 0-3 0 1.29 1.29 0 0 1-1.24-.3 56.05 56.05 0 0 1-4-7.23c-.11-.52-.13-2.16.77-2.51s14.41 9.12 14.41 9.12a6.76 6.76 0 0 1-1.74 4.86z"></path><path class="cls-3" d="M295.47 73.64a.82.82 0 0 0 1.14-.23.83.83 0 0 0-.23-1.14L282.5 63.1a.82.82 0 0 0-1.14.23.81.81 0 0 0 .23 1.13z"></path><path class="cls-12" d="M306.67 91.11l.43-1s1.06-5.41 1.18-6a3.4 3.4 0 0 1 .51-.91c.59-.85 1.49-1.94 1.63-2.26a10.2 10.2 0 0 0-.26-3.25c-.17-.59-9-9-9.52-9.27s-1.05 1.08-.71 2.21 3.18 8.09 3.4 8.69a9 9 0 0 1 .17 4c-.3 1.56-1.37 7-1.37 7z"></path><path class="cls-13" d="M309.7 83.1s-1 .58-2.37-.61-.22-3.16-1.74-4a4.34 4.34 0 0 0-2.79-.49 1.23 1.23 0 0 1-1.14-.53 52.56 52.56 0 0 1-2.43-7.47c0-.51.27-2 1.17-2.19s11.73 11.11 11.73 11.11a6.37 6.37 0 0 1-2.43 4.18z"></path><path class="cls-3" d="M311.45 79.29a.78.78 0 0 0 1.09-1.11L301.3 67.11a.78.78 0 1 0-1.09 1.11z"></path><path class="cls-10" d="M300.94 131.22C302 123 308.4 93.7 309 90a1.15 1.15 0 0 0-.84-1.55l-5.7-1.21a2.12 2.12 0 0 0-1.91 1.38c-.47 1.36-9.73 30.68-13.17 42.49z"></path><path class="cls-14" d="M315.48 120.92c-11.08 4.77-17 7.81-18.83 8.32-2.09.59-1.74-36-2.09-41.92 0 0 .17-1.63-1.4-1.63h-5.6s-1.66 0-1.92 2.12-3.92 52.12-3.92 52.12-.64 3.86 5.17 3.86h60.68l1.43-15.37c-1.1.19-1.78.29-1.78.29l-4-1.57s-1.4 1.22-5.23-1.16-10.47-10.08-22.51-5.06z"></path><path class="cls-13" d="M389.82 102.74a12.72 12.72 0 0 1 2.29 5.16c.76 3.37-.81 14.17-.81 15.62s-2.79 5.11-3.6 6.1-15.39 10.92-18.41 12.31-4.41 1.86-6.27 1.86h-18s-2.47-.26-2.47-2v-13.36c0-2.26 3.95-1.8 10.34-7.72s10.11-20.08 23.69-20.08c.03 0 10.34-1.09 13.24 2.11z"></path><path d="M386.89 130.31c-3.25 2.5-14.93 10.39-17.6 11.62-3 1.4-4.41 1.86-6.27 1.86h-18s-2.47-.26-2.47-2v-3.07a15.5 15.5 0 0 0 7-1.71l4.68 3.72 2.34-14.8 1.81-12.38 7.41 5s.34 1.45 1 4.75a9.43 9.43 0 0 0 8.74 7.09z" fill="#e8a644" fill-rule="evenodd"></path><path class="cls-16" d="M378.4 98.47v5.06a4.51 4.51 0 0 0 4.6 4.77h.75a4.51 4.51 0 0 0 4.56-4.77v-5.06a12.25 12.25 0 0 0-4.94-2.71 12.39 12.39 0 0 0-4.97 2.71z"></path><path class="cls-17" d="M358.08 117.27l-4 2.8s-5.81 13.05-6.45 14.56-1.63 9.16 4.18 9.16h40.47s-1-4.69-5.45-4.69H361.1c-1.91 0-2.73.23-3.13-1.22s8-14 8-14z"></path><path class="cls-12" d="M358.08 117.27l-4 2.8s-5.81 13.05-6.45 14.56-1.63 9.16 4.18 9.16h40.47a7.49 7.49 0 0 0-1.3-2.66c-7.17.2-35.12.9-38.78 0-4.2-1.09-.15-11.35 2.8-15.24 2.69-3.54 5.12-2.57 8.94 1.15 1.17-1.81 2-3.1 2-3.1z"></path><path class="cls-11" d="M372.53 101.1s-5.68.33-11.77 7.24a107.29 107.29 0 0 0-6.51 9.7 4.06 4.06 0 0 0-.17 2s7.21-.69 10.35 6.17a2.65 2.65 0 0 0 1.05.05c.28-.11 8.34-10 9.39-11.42s5.46-10.53-2.34-13.74z"></path><path class="cls-14" d="M388.29 143.79h-17.62a1.65 1.65 0 0 1-1.65-1.65 1.65 1.65 0 0 1 1.65-1.65h17.62a1.65 1.65 0 0 1 1.65 1.65 1.65 1.65 0 0 1-1.65 1.65z"></path><path class="cls-14" d="M423.56 143.79h-38.62a1.5 1.5 0 0 1-1.48-2l6.51-25a2.77 2.77 0 0 1 2.52-2h38.62a1.5 1.5 0 0 1 1.48 2l-6.5 25a2.8 2.8 0 0 1-2.53 2z"></path><path class="cls-4" d="M424.59 143.79h-37.47a1.5 1.5 0 0 1-1.49-2l6.51-25a2.77 2.77 0 0 1 2.52-2h37.48a1.5 1.5 0 0 1 1.48 2l-6.5 25a2.8 2.8 0 0 1-2.53 2zM369.37 87.11s2.78 6.14-.71 11.19-4.91 10-1.36 16.23 2.66 10.33 2.62 11 1.49.87 2.24-.94c3.17 7.35 15.77 7.43 12.65-4.67v-.08c0-.01.07 0 .11.05 3.08 1.45 4-2.4-.91-7-5.93-5.53-2-10.58.25-14.32 2.74-4.49 1.99-16.07-14.89-11.46zM392.33 80.24l6.7 6.82s-1.54 4.65-.15 8.12-3.87 6.56-7.29 7.5.74-22.44.74-22.44z"></path><path class="cls-16" d="M373.76 91.23h-.22a3 3 0 1 0 3.66 3 3 3 0 0 0-1.13-2.41c.08.89-.06 2-1.2 2.11v-1.75a1 1 0 0 0-1.11-.95zM394.75 91.23h.22a3 3 0 1 1-2.53.61c-.08.89.06 2 1.21 2.11V92.2a1 1 0 0 1 1.1-.97z"></path><rect x="374.33" y="76.06" width="20.79" height="30.24" rx="10.39" fill="#e9ab89"></rect><path class="cls-12" d="M375.34 82a10.28 10.28 0 0 0-1 4.47v9.45a10.43 10.43 0 0 0 10.39 10.4 9.74 9.74 0 0 0 1.72-.15c-5 .41-9.28-7.22-9.28-11.42s3.31-6.2 4.4-6.2h4.16l2.44-1.1s-1.41-4.29-2.11-5.76-4-.35-6.69-.64a7.71 7.71 0 0 0-4.03.95z"></path><path d="M394.66 91.54v1.34c0 .65 0 1.2.46 1.2v-1.47a1.45 1.45 0 0 1 1.54-1.08c4.09-4.7 3.55-12.17-.82-16s-13.74-4.12-15.38-3.57-3.33 3.32-3.33 3.32-1.39-1.24-2.68-.59-5.61 8.78-5.61 10.82 3.94 6.06 3.94 6.06a1.46 1.46 0 0 1 1.55 1.08v1.47c.49 0 1.09-.72 1.09-1.37v-1.38c4.11-1.82 5.41-7.29 5.41-7.29s7.17 8.44 13.83 7.46z" fill="#131518" fill-rule="evenodd"></path><path class="cls-4" d="M384.21 99.73a2.58 2.58 0 0 0 5.15.11.44.44 0 0 0-.43-.45l-4.25-.1a.45.45 0 0 0-.45.44z"></path><path d="M385.13 101.75a2.56 2.56 0 0 0 3 .25 1.73 1.73 0 0 0-3-.25z" fill="#cb4c49" fill-rule="evenodd"></path><path class="cls-3" d="M389 99.39l-4-.08a.89.89 0 0 0 .42 1 11.32 11.32 0 0 0 3.46-.11 1.6 1.6 0 0 0 .12-.81z"></path><path d="M210.28 96.19c0 .33.21.6.57.6A9.55 9.55 0 0 0 213 96a10.34 10.34 0 0 1 4.3-1 7.07 7.07 0 0 1 0 14.14 10.33 10.33 0 0 1-4.3-1 9.11 9.11 0 0 0-2.18-.83c-.36 0-.53.27-.57.6v15.21a1 1 0 0 0 1 1h15.21c.33 0 .59-.21.59-.57a9 9 0 0 0-.83-2.19 10.49 10.49 0 0 1-1-4.3 7.07 7.07 0 1 1 14.14 0 10.49 10.49 0 0 1-1 4.3 9 9 0 0 0-.83 2.19c0 .36.27.52.59.57h15.21a1 1 0 0 0 1-1v-15.3a.28.28 0 0 1 0-.09 2.49 2.49 0 0 1 2.47-2.35 8.13 8.13 0 0 1 2.94 1 8.67 8.67 0 0 0 3.54.83 5.17 5.17 0 1 0 0-10.33 8.51 8.51 0 0 0-3.54.83 8.13 8.13 0 0 1-2.94 1 2.49 2.49 0 0 1-2.47-2.35.28.28 0 0 1 0-.09V81a1 1 0 0 0-1-1H238a2.49 2.49 0 0 1-2.36-2.47 8.37 8.37 0 0 1 1-3 8.52 8.52 0 0 0 .86-3.53 5.17 5.17 0 1 0-10.34 0 8.52 8.52 0 0 0 .84 3.54 8.37 8.37 0 0 1 1 3 2.49 2.49 0 0 1-2.37 2.46h-15.35a1 1 0 0 0-1 1z" fill="#5eb1b4" fill-rule="evenodd"></path><path class="cls-22" d="M52.84 287.5c.33-.05.6-.21.6-.57a9.06 9.06 0 0 0-.84-2.19 10.45 10.45 0 0 1-1-4.3 7.07 7.07 0 0 1 14.14 0 10.45 10.45 0 0 1-1 4.3 9 9 0 0 0-.83 2.19c0 .36.27.52.59.57h15.23a1 1 0 0 0 1-1v-15.21c0-.33-.21-.6-.57-.6a9.55 9.55 0 0 0-2.18.83 10.34 10.34 0 0 1-4.3 1 7.07 7.07 0 0 1 0-14.14 10.33 10.33 0 0 1 4.3 1 9.11 9.11 0 0 0 2.18.83c.37 0 .53-.27.57-.6v-15.22a1 1 0 0 0-1-1H64.38a2.49 2.49 0 0 1-2.38-2.47 8.19 8.19 0 0 1 1-2.92 8.67 8.67 0 0 0 .83-3.54 5.17 5.17 0 0 0-10.33 0 8.51 8.51 0 0 0 .83 3.54 8.37 8.37 0 0 1 1 2.95 2.49 2.49 0 0 1-2.33 2.44H37.63a1 1 0 0 0-1 1v15.36a2.5 2.5 0 0 1-2.48 2.35 8.13 8.13 0 0 1-2.94-1 8.67 8.67 0 0 0-3.54-.83 5.17 5.17 0 1 0 0 10.33 8.67 8.67 0 0 0 3.54-.83 8.13 8.13 0 0 1 2.94-1 2.5 2.5 0 0 1 2.48 2.35v15.38a1 1 0 0 0 1 1z"></path><path class="cls-23" d="M327.1 354.63h95.28v17.7H327.1z"></path><rect class="cls-23" x="212.46" y="143.79" width="339.3" height="219" rx="4.83"></rect><rect class="cls-24" x="205.1" y="143.79" width="339.3" height="219" rx="4.83"></rect><path d="M215.19 148.52H534.3a3.16 3.16 0 0 1 3.14 3.15v185.67a2 2 0 0 1-2 2H214a2 2 0 0 1-2-2V151.67a3.16 3.16 0 0 1 3.19-3.15z" fill="#41455d" fill-rule="evenodd"></path><path class="cls-26" d="M218.93 156.28h311.62v175.25H218.93z"></path><path class="cls-4" d="M492.4 373.55a7.2 7.2 0 0 0-7.18-7.18h-221a7.2 7.2 0 0 0-7.18 7.18v3.16a2.59 2.59 0 0 0 2.58 2.58h230.2a2.59 2.59 0 0 0 2.58-2.58z"></path><path class="cls-14" d="M478.79 374.73a5.16 5.16 0 0 0-5.14-5.15H275.84a5.16 5.16 0 0 0-5.14 5.15V377a1.85 1.85 0 0 0 1.84 1.85H477a1.85 1.85 0 0 0 1.84-1.85z"></path><path class="cls-3" d="M195.51 359a.92.92 0 0 0-1.84 0v2.15h-2.15a.92.92 0 0 0 0 1.84h2.15v2.15a.92.92 0 0 0 1.84 0V363h2.15a.92.92 0 1 0 0-1.84h-2.15z"></path><rect x="231.33" y="210.35" width="73.86" height="23.26" rx="4.57" fill="#e1e0e7"></rect><rect class="cls-28" x="231.33" y="241.58" width="132.47" height="14.78" rx="2.9"></rect><rect class="cls-29" x="231.33" y="263.55" width="106.73" height="14.78" rx="2.9"></rect><path class="cls-30" d="M238.68 290h92.13a1.18 1.18 0 0 1 1 1.27V295a1.16 1.16 0 0 1-1 1.27h-92.12a1.15 1.15 0 0 1-1-1.27v-3.65a1.16 1.16 0 0 1 .99-1.35z"></path><path class="cls-22" d="M238.7 302h67.2a1.14 1.14 0 0 1 1 1.25V307a1.14 1.14 0 0 1-1 1.25h-67.19a1.14 1.14 0 0 1-1-1.25v-3.67a1.13 1.13 0 0 1 .99-1.33zM238.72 314h54.25a1.15 1.15 0 0 1 1 1.27V319a1.13 1.13 0 0 1-1 1.26h-54.25a1.16 1.16 0 0 1-1-1.27v-3.63a1.15 1.15 0 0 1 1-1.36z"></path><rect class="cls-29" x="312.9" y="196.63" width="63.21" height="36.98" rx="7.27"></rect><rect class="cls-28" x="312.9" y="162.82" width="88.94" height="14.84" rx="2.92"></rect><path class="cls-22" d="M416.38 174.73a4.49 4.49 0 1 0-4.23-4.48 4.37 4.37 0 0 0 4.23 4.48zM432.73 174.73a4.49 4.49 0 1 0-4.24-4.48 4.37 4.37 0 0 0 4.24 4.48zM449.07 174.73a4.49 4.49 0 1 0-4.23-4.48 4.37 4.37 0 0 0 4.23 4.48z"></path><path d="M388.71 192.15h56.86c2.88 0 5.27 1.7 5.27 3.76 0 8.9-.06 17.78-.08 26.63 0 2.05-2.36 3.73-5.23 3.73h-56.84c-2.88 0-5.23-1.69-5.23-3.73v-26.63c.01-2.08 2.37-3.76 5.25-3.76z" fill="#e1e0e7" fill-rule="evenodd"></path><path class="cls-32" d="M487.92 165.51c-.33.05-.59.21-.59.57a9 9 0 0 0 .83 2.19 10.45 10.45 0 0 1 1 4.3 7.07 7.07 0 0 1-14.14 0 10.45 10.45 0 0 1 1-4.3 9 9 0 0 0 .83-2.19c0-.36-.27-.52-.59-.57H461a1 1 0 0 0-1 1v15.21c0 .33.21.6.57.6a9 9 0 0 0 2.18-.83 10.33 10.33 0 0 1 4.3-1 7.07 7.07 0 0 1 0 14.14 10.34 10.34 0 0 1-4.3-1 9.38 9.38 0 0 0-2.18-.83c-.36 0-.53.27-.57.6v15.21a1 1 0 0 0 1 1h15.35a2.49 2.49 0 0 1 2.36 2.47 8.37 8.37 0 0 1-1 2.95 8.52 8.52 0 0 0-.84 3.54 5.17 5.17 0 0 0 10.34 0 8.52 8.52 0 0 0-.84-3.54 8.37 8.37 0 0 1-1-2.95 2.49 2.49 0 0 1 2.36-2.47h15.35a1 1 0 0 0 1-1v-15.26a.28.28 0 0 1 0-.09 2.49 2.49 0 0 1 2.47-2.35 8.13 8.13 0 0 1 2.94 1 8.67 8.67 0 0 0 3.54.83 5.17 5.17 0 1 0 0-10.33 8.67 8.67 0 0 0-3.54.83 8.13 8.13 0 0 1-2.94 1 2.49 2.49 0 0 1-2.47-2.35.28.28 0 0 1 0-.09v-15.29a1 1 0 0 0-1-1z"></path><path d="M394.61 296.58c0-.33-.21-.6-.57-.6a9.55 9.55 0 0 0-2.18.83 10.34 10.34 0 0 1-4.3 1 7.07 7.07 0 1 1 0-14.14 10.33 10.33 0 0 1 4.3 1 9.11 9.11 0 0 0 2.18.83c.36 0 .53-.27.57-.6v-15.22a1 1 0 0 0-1-1H378.4c-.33.05-.59.21-.59.58a9.11 9.11 0 0 0 .83 2.18 10.45 10.45 0 0 1 1 4.3 7.07 7.07 0 0 1-14.14 0 10.45 10.45 0 0 1 1-4.3 9.11 9.11 0 0 0 .83-2.18c0-.37-.27-.53-.59-.58h-15.23a1 1 0 0 0-1 1V285a.28.28 0 0 1 0 .09 2.49 2.49 0 0 1-2.47 2.35 8.13 8.13 0 0 1-2.94-1 8.67 8.67 0 0 0-3.54-.83 5.17 5.17 0 1 0 0 10.33 8.67 8.67 0 0 0 3.54-.83 8.13 8.13 0 0 1 2.94-1 2.49 2.49 0 0 1 2.47 2.35.28.28 0 0 1 0 .09v15.27a1 1 0 0 0 1 1h15.35a2.49 2.49 0 0 1 2.36 2.47 8.37 8.37 0 0 1-1 2.95 8.52 8.52 0 0 0-.84 3.54 5.17 5.17 0 0 0 10.34 0 8.52 8.52 0 0 0-.84-3.54 8.37 8.37 0 0 1-1-2.95 2.49 2.49 0 0 1 2.36-2.47h15.35a1 1 0 0 0 1-1z" fill="#4c77a8" fill-rule="evenodd"></path><path class="cls-3" d="M442.16 272a3.76 3.76 0 1 0-3.76-3.76 3.76 3.76 0 0 0 3.76 3.76zM427.12 272a3.76 3.76 0 1 0-3.76-3.76 3.77 3.77 0 0 0 3.76 3.76zM412.08 272a3.76 3.76 0 1 0-3.76-3.76 3.77 3.77 0 0 0 3.76 3.76z"></path><rect class="cls-28" x="407.34" y="237.75" width="116.61" height="87.62" rx="6.64"></rect><rect class="cls-26" x="404.92" y="235.8" width="116.61" height="87.62" rx="6.64"></rect><path d="M514.89 235.8H411.55a6.65 6.65 0 0 0-6.63 6.64v16.68h116.61v-16.68a6.66 6.66 0 0 0-6.64-6.64z" fill="#4c8483" fill-rule="evenodd"></path><path class="cls-3" d="M509.62 249.49a2 2 0 1 0-2-2 2 2 0 0 0 2 2zM501.52 249.49a2 2 0 1 0-2-2 2 2 0 0 0 2 2zM493.43 249.49a2 2 0 1 0-2-2 2 2 0 0 0 2 2z"></path><path class="cls-30" d="M476.42 280.63a.61.61 0 0 0 0-1.22h-62.35a.61.61 0 1 0 0 1.22zM476.42 288.24a.61.61 0 1 0 0-1.22h-62.35a.61.61 0 1 0 0 1.22zM476.42 295.85a.61.61 0 1 0 0-1.22h-62.35a.61.61 0 1 0 0 1.22zM476.42 303.46a.61.61 0 0 0 .61-.61.61.61 0 0 0-.61-.61h-41.87a.62.62 0 0 0-.61.61.61.61 0 0 0 .61.61zM476.42 273a.62.62 0 0 0 0-1.23h-62.35a.62.62 0 1 0 0 1.23z"></path><rect class="cls-35" x="482.5" y="267.74" width="30.77" height="23.85" rx="2.51"></rect><rect class="cls-35" x="482.5" y="296.13" width="30.77" height="10.85" rx="2.11"></rect><rect class="cls-23" x="149.27" y="216.18" width="90.51" height="163.1" rx="11.31"></rect><rect class="cls-23" x="142.62" y="216.18" width="90.51" height="163.1" rx="11.31"></rect><path class="cls-24" d="M153.93 218h67.88a9.52 9.52 0 0 1 9.52 9.52V368a9.52 9.52 0 0 1-9.52 9.52h-67.88a9.51 9.51 0 0 1-9.51-9.51V227.5a9.51 9.51 0 0 1 9.51-9.5z"></path><path class="cls-3" d="M148.78 356.56V234.37a2.3 2.3 0 0 1 2.3-2.3h73.59a2.3 2.3 0 0 1 2.3 2.3v122.19a2.31 2.31 0 0 1-2.3 2.31h-73.59a2.31 2.31 0 0 1-2.3-2.31z"></path><path class="cls-30" d="M172 226.58a1.33 1.33 0 0 1 1.33-1.33h29.11a1.34 1.34 0 0 1 1.33 1.33 1.33 1.33 0 0 1-1.33 1.33h-29.12a1.32 1.32 0 0 1-1.32-1.33zM152.11 226.58a1.34 1.34 0 0 1 1.33-1.33h.12a1.34 1.34 0 0 1 1.34 1.33 1.33 1.33 0 0 1-1.34 1.33h-.12a1.33 1.33 0 0 1-1.33-1.33zM181.55 368.09a6 6 0 0 1 6-6h.57a6.05 6.05 0 0 1 6 6 6.06 6.06 0 0 1-6 6h-.57a6.05 6.05 0 0 1-6-6z"></path><path class="cls-36" d="M220.87 349.13h-5a.88.88 0 0 0-.62.26.91.91 0 0 0-.25.62v5.11c0 .14 0 .23.18.28s.27 0 .36-.14a3 3 0 0 1 .81-.94 1.42 1.42 0 0 1 .84-.31h.39v.33a.72.72 0 0 0 .21.51.77.77 0 0 0 .52.22H221a1 1 0 0 1 .58.21 2.49 2.49 0 0 1 .58.66c.08.16.15.23.37.14s.18-.14.17-.28V352a.72.72 0 0 0-.21-.51.76.76 0 0 0-.52-.21h-.27V350a.88.88 0 0 0-.26-.62.85.85 0 0 0-.62-.27zm-4.3 3.17h-.3a.17.17 0 0 1-.17-.17.18.18 0 0 1 .17-.17h.3a.18.18 0 0 1 .17.17.17.17 0 0 1-.17.17zm.64-.34H220a.18.18 0 0 1 .18.17.17.17 0 0 1-.18.17h-2.76a.17.17 0 0 1-.17-.17.18.18 0 0 1 .17-.17zm2.95-1.31h.3a.17.17 0 0 1 0 .34h-.3a.17.17 0 1 1 0-.34zm-.64.34h-3.25a.17.17 0 1 1 0-.34h3.25a.17.17 0 0 1 0 .34zm-1.37 3h2.72a.89.89 0 0 0 .88-.88v-1.26h.25a.17.17 0 0 1 .12.05.15.15 0 0 1 0 .11v3a1.5 1.5 0 0 0-.23-.2 1.57 1.57 0 0 0-.91-.32h-2.73a.14.14 0 0 1-.11-.05.16.16 0 0 1 0-.11V354zm-2.28-4.3h5a.36.36 0 0 1 .22.09.32.32 0 0 1 .09.23v3.1a.31.31 0 0 1-.31.31h-3.68a2 2 0 0 0-1.17.42 3.25 3.25 0 0 0-.47.43V350a.31.31 0 0 1 .32-.32zM197.84 346.62a2.07 2.07 0 0 0-2.05 2.06 2.08 2.08 0 0 0 .6 1.46 2.05 2.05 0 0 0 2.89 0 2.06 2.06 0 0 0-1.46-3.51zm-2.29 7.38v-.18a2.33 2.33 0 0 1 .66-1.61 2.28 2.28 0 0 1 1.61-.67 2.3 2.3 0 0 1 1.62.67 2.27 2.27 0 0 1 .67 1.62v1.63a.11.11 0 0 1 0 .08.12.12 0 0 1-.09 0h-4.34a.11.11 0 0 1-.08 0 .12.12 0 0 1 0-.08V354zm-.56 0v1.46a.67.67 0 0 0 .2.48.7.7 0 0 0 .48.2H200a.72.72 0 0 0 .49-.2.72.72 0 0 0 .2-.48v-1.64a2.85 2.85 0 0 0-4.87-2 2.82 2.82 0 0 0-.82 2v.18zm1.8-6.36a1.49 1.49 0 0 1 2.54 1.05 1.5 1.5 0 0 1-.43 1.06 1.48 1.48 0 0 1-1.06.43 1.5 1.5 0 0 1-1-.42 1.51 1.51 0 0 1-.44-1.06 1.48 1.48 0 0 1 .39-1.07zM175.84 349.43a2.94 2.94 0 0 0-.51.23 3.83 3.83 0 0 0-.46.33l-.58-.34a.4.4 0 0 0-.3 0 .45.45 0 0 0-.27.2l-.53.93a.4.4 0 0 0 0 .32.39.39 0 0 0 .2.27l.58.33V352.83l-.58.34a.39.39 0 0 0-.2.26.42.42 0 0 0 0 .33l.53.93a.45.45 0 0 0 .27.2.4.4 0 0 0 .33-.05l.58-.33a3.83 3.83 0 0 0 .46.33 2.94 2.94 0 0 0 .51.23v.68a.43.43 0 0 0 .13.3.44.44 0 0 0 .31.13h1.06a.44.44 0 0 0 .31-.13.48.48 0 0 0 .1-.28V355a2.94 2.94 0 0 0 .51-.23 4 4 0 0 0 .47-.33l.58.33a.48.48 0 0 0 .31 0 .46.46 0 0 0 .26-.2l.53-.93a.39.39 0 0 0 0-.33.46.46 0 0 0-.2-.26l-.59-.34v-.17a2.55 2.55 0 0 0 0-.78v-.17l.59-.34a.45.45 0 0 0 .2-.27.37.37 0 0 0 0-.32l-.53-.93a.46.46 0 0 0-.26-.2.42.42 0 0 0-.33 0l-.58.34a4 4 0 0 0-.47-.33 2.94 2.94 0 0 0-.51-.23v-.68a.42.42 0 0 0-.13-.3.44.44 0 0 0-.31-.13h-1.06a.44.44 0 0 0-.31.13.43.43 0 0 0-.11.28v.68zm-.23.72a2.87 2.87 0 0 1 .57-.24.28.28 0 0 0 .23-.27v-.75h.8v.75a.3.3 0 0 0 .21.27 2.36 2.36 0 0 1 .59.24 3.14 3.14 0 0 1 .5.38.27.27 0 0 0 .35.05l.65-.37.4.69-.63.37a.28.28 0 0 0-.15.33 1.7 1.7 0 0 1 .06.31v.64a1.88 1.88 0 0 1-.06.31.3.3 0 0 0 .13.32l.65.37-.4.7-.65-.38a.29.29 0 0 0-.34.05 2.46 2.46 0 0 1-.51.39 2.87 2.87 0 0 1-.57.24.28.28 0 0 0-.23.27v.75h-.8v-.75a.28.28 0 0 0-.21-.27 2.36 2.36 0 0 1-.59-.24 3.14 3.14 0 0 1-.5-.38.27.27 0 0 0-.34-.06l-.66.38-.4-.7.63-.36a.3.3 0 0 0 .16-.33c0-.11-.05-.21-.07-.31s0-.21 0-.32v-.32c0-.1 0-.21.07-.31a.27.27 0 0 0-.13-.32l-.65-.37.4-.7.66.37a.27.27 0 0 0 .34 0 2.69 2.69 0 0 1 .5-.39zm1.2.57a1.51 1.51 0 0 1 1.05.42 1.47 1.47 0 0 1 .44 1.07 1.49 1.49 0 0 1-.44 1.07 1.51 1.51 0 0 1-1.07.44 1.5 1.5 0 0 1-1.51-1.51 1.51 1.51 0 0 1 .44-1.07 1.53 1.53 0 0 1 1.07-.44zm-.67.84a1 1 0 0 1 .67-.28.92.92 0 0 1 .66.27.94.94 0 0 1 0 1.34.95.95 0 0 1-1.34-1.34zM153.71 351.28a2.51 2.51 0 0 0 0 3.54 2.5 2.5 0 0 0 1.76.72 2.54 2.54 0 0 0 1.56-.55l1 1.05a.28.28 0 1 0 .4-.4l-1.05-1.05a2.53 2.53 0 0 0 .54-1.56 2.5 2.5 0 0 0-4.27-1.77zm3.15 3.13a1.93 1.93 0 0 1-1.36.56 2 2 0 0 1-1.36-.55 1.94 1.94 0 0 1 2.75-2.74 1.92 1.92 0 0 1 0 2.73z"></path><path class="cls-37" d="M215.18 350.77a1.49 1.49 0 1 0-1.49-1.49 1.49 1.49 0 0 0 1.49 1.49z"></path><path class="cls-3" d="M215.35 350h-.29v-1.1a1 1 0 0 1-.38.22v-.26a.91.91 0 0 0 .25-.14.58.58 0 0 0 .19-.25h.23z"></path><path class="cls-13" d="M177.27 313.71h25.14a2.23 2.23 0 0 1 .37 0c2.05-.56 2.13-2.49 2.25-5.33a38.58 38.58 0 0 1 .4-4.67c.7-4.3 5.28-12 7.5-15.54v-.05c.64-1 1.08-1.68 1.16-1.81a28.19 28.19 0 1 0-48.56 0c.08.13.52.79 1.16 1.81v.05c2.22 3.55 6.8 11.24 7.5 15.54a38.58 38.58 0 0 1 .4 4.67c.12 2.84.2 4.77 2.25 5.33a2.23 2.23 0 0 1 .43 0z"></path><path class="cls-3" d="M186.12 314.1a.61.61 0 0 1-.62.61.61.61 0 0 1-.61-.61v-18.46-.69c-.4-.09-.79-.2-1.16-.32a9.9 9.9 0 0 1-3.52-1.83 3.51 3.51 0 0 1-1.39-2.58 2.46 2.46 0 0 1 .12-.76 2.43 2.43 0 0 1 1.57-1.57 3 3 0 0 1 1.72 0 4 4 0 0 1 1.72 1 7.94 7.94 0 0 1 2.1 5.06 22.16 22.16 0 0 0 7.62 0 7.94 7.94 0 0 1 2.1-5.06 4 4 0 0 1 1.72-1 3 3 0 0 1 1.72 0 2.41 2.41 0 0 1 1.57 1.57 2.46 2.46 0 0 1 .12.76 3.51 3.51 0 0 1-1.39 2.58 9.9 9.9 0 0 1-3.52 1.83c-.37.12-.76.23-1.16.32V314.1a.61.61 0 0 1-.61.61.61.61 0 0 1-.62-.61v-18.46-.44a24.13 24.13 0 0 1-7.46 0V314.1zm10.48-24.35a6.57 6.57 0 0 0-1.68 3.9l.68-.19a8.66 8.66 0 0 0 3.08-1.59 2.32 2.32 0 0 0 1-1.65 1.07 1.07 0 0 0-.07-.39 1.16 1.16 0 0 0-.77-.77 1.76 1.76 0 0 0-1 0 2.75 2.75 0 0 0-1.19.7zm-11.84 3.9a6.57 6.57 0 0 0-1.68-3.9 2.75 2.75 0 0 0-1.19-.7 1.76 1.76 0 0 0-1 0 1.16 1.16 0 0 0-.77.77 1.32 1.32 0 0 0-.06.39 2.3 2.3 0 0 0 1 1.65 8.66 8.66 0 0 0 3.08 1.59z"></path><path class="cls-14" d="M195.73 328.78c0 2.7-2.64 4.89-5.89 4.89s-5.89-2.19-5.89-4.89 3.1-2.87 3.1-2.87z"></path><path class="cls-14" d="M177.35 313.48h25a3.07 3.07 0 0 1 3.07 3.06 3.09 3.09 0 0 1-.9 2.17 3.06 3.06 0 0 1-1.48.82 3.06 3.06 0 0 1-2.39 5h-.4a3.06 3.06 0 0 1-2.45 4.89h-15.9a3.06 3.06 0 0 1-2.45-4.89h-.4a3.06 3.06 0 0 1-2.39-5 3.06 3.06 0 0 1-1.48-.82 3.05 3.05 0 0 1 0-4.33 3 3 0 0 1 2.17-.9z"></path><path class="cls-26" d="M187.1 165.42h104.66a4.55 4.55 0 0 1 4.55 4.55v29.16a4.54 4.54 0 0 1-4.54 4.54H187.1a4.55 4.55 0 0 1-4.55-4.55V170a4.55 4.55 0 0 1 4.55-4.58z"></path><path d="M185.88 164.09h104.67a4.54 4.54 0 0 1 4.54 4.54v29.17a4.54 4.54 0 0 1-4.54 4.54H185.88a4.55 4.55 0 0 1-4.55-4.55v-29.15a4.54 4.54 0 0 1 4.55-4.55z" fill="#d25383"></path><path class="cls-3" d="M264.21 180.81a.42.42 0 1 0 0-.84h-74.78a.42.42 0 0 0 0 .84zM264.21 186a.42.42 0 1 0 0-.84h-74.78a.42.42 0 0 0 0 .84zM264.21 191.23a.42.42 0 0 0 0-.84h-74.78a.42.42 0 0 0 0 .84zM264.21 196.44a.42.42 0 0 0 0-.84H214a.42.42 0 0 0 0 .84z"></path><path class="cls-13" d="M290.54 163.76H185.88a4.55 4.55 0 0 0-4.54 4.55v7.09h113.75v-7.09a4.56 4.56 0 0 0-4.55-4.55z"></path><path class="cls-3" d="M286.94 170.74a1.39 1.39 0 1 0-1.38-1.38 1.39 1.39 0 0 0 1.38 1.38zM281.4 170.74a1.39 1.39 0 1 0-1.39-1.38 1.38 1.38 0 0 0 1.39 1.38zM275.85 170.74a1.39 1.39 0 1 0-1.38-1.38 1.38 1.38 0 0 0 1.38 1.38z"></path><rect class="cls-26" x="268.04" y="180.39" width="21.07" height="10.64" rx="1.12"></rect><rect class="cls-26" x="268.04" y="193.06" width="21.07" height="3.64" rx=".71"></rect><path class="cls-39" d="M257.87 355.56l2-1.14s36.27 1.28 47.63 2.91 13.13 4 24.59 5.57 33.51 5.51 36.25 5.76 2.16 5.27 1 6.59-39.54-2.07-45.26-3.18a70.74 70.74 0 0 0-19-.45c-5.3.6-34.59 4.74-42.23 3.77s-4.98-19.83-4.98-19.83z"></path><path d="M370.3 372.43a5.58 5.58 0 0 1-.1.73l-3.06.1c-12.92.4-29.52-2.31-39.93-4-4.63-.75-8-1.31-9.29-1.3-4.18 0-41.79.25-41.9.25a.37.37 0 0 1-.37-.36.38.38 0 0 1 .37-.37c.11 0 37.71-.21 41.9-.25a92.42 92.42 0 0 1 9.41 1.31c10.38 1.69 26.94 4.39 39.79 4z" fill="#494c66" fill-rule="evenodd"></path><path d="M289.17 304.32l1.29-.42a8.47 8.47 0 0 1 1.54-2.56c.84-.77 2.31-2 2.42-3.76s-6.42-2.68-6.42-2.32-2.75 3-2.5 4.14a17.68 17.68 0 0 0 1.15 2.91z" fill="#dd7c69" fill-rule="evenodd"></path><path d="M266.57 304.19s8.22 19 9.83 21 8.69-19.07 10.23-22.86c0 0 3 .15 3.93 1.09 0 0-4.78 25.3-7 30.38s-7.1 5.77-11.54 3.89-15.86-22-18.25-25.66 3.89-16.58 12.8-7.84z" fill="#af5574" fill-rule="evenodd"></path><path class="cls-4" d="M298.86 276.39s1.06.28 1.09 1-2.41 17.72-2.72 18.39-.6 1.75-7.72 1c0 0-1.24-.24-1.51-.88s1.44-15.83 1.53-17.6a2.08 2.08 0 0 1 2.21-2.2c1.02-.1 7.12.29 7.12.29z"></path><path d="M312.26 368.42a4 4 0 0 1 .27 2 20.63 20.63 0 0 0-.07 2.81 4.47 4.47 0 0 0 .23 1.09c.4 1 1.74 2.45 6.34 3.4a49.1 49.1 0 0 0 12.52.55c2.72-.2 1.2-1.6 0-2.22s-9.5-3.85-11.66-6.26-1.9-2.74-2.08-3.13-4.81-.28-5.55 1.76z" fill="#f0cbce" fill-rule="evenodd"></path><path class="cls-36" d="M257.73 378.8a1.25 1.25 0 0 0 .54.26l1.45.15c28.23 2.21 30.61-36 38.74-41.48 1.4-.94 10.75 30.75 11.49 31.67s7.91 0 8.71-1.18-7.8-39.52-13.11-48.22c0 0-4.21-5.53-13.53-.25s-24.89 29.73-26.84 31.39-4.36 4.37-7.74 3.3a1.11 1.11 0 0 0-.36 0l-16.58 1.19c-.5 16.95 12.18 21.88 17.23 23.17z"></path><path class="cls-39" d="M313.67 369.66l.75-.09c-2.44-6.91-12.48-35.2-14-36.68l-.24-.2a2.63 2.63 0 0 0-2.75.17 13 13 0 0 0-3.05 2.4 24 24 0 0 0-2.49 3c-.46.66-1.24 2-2.25 3.67-4.39 7.38-13.28 22.33-19.62 24.06l-.54.13a13.2 13.2 0 0 1-10.19-1.53c-.24-.15-.48-.31-.71-.48.19-.78.71-3.24 0-4.48a28.4 28.4 0 0 1-1.44-5.3h-.08l-.66.05A28.88 28.88 0 0 0 258 360c.51.9.21 2.72 0 3.63a16 16 0 0 1-5.09-8.31c0-.2-.11-.42-.17-.67l-.73.06c.06.24.12.49.2.75a16.45 16.45 0 0 0 5.77 9c.31.23.62.45.94.65a13.93 13.93 0 0 0 10.75 1.63l.56-.15c6.63-1.8 15.62-16.92 20.06-24.38 1-1.69 1.77-3 2.22-3.63a22.76 22.76 0 0 1 2.41-2.93 12.24 12.24 0 0 1 2.87-2.27c.81-.42 1.52-.54 2-.21l.14.11c1.38 1.49 11.23 29.25 13.74 36.38z"></path><path class="cls-44" d="M321.36 368.25c1.25 1.43 6.61 4.91 10.48 4.94s2.52 3.21 2.52 3.21.79 1.42-.09 2.06-8.86 1.94-12.8 1.3-8.48-1.57-11.76-.95-2.81-3.54-2-4.49c0 0-.48-4.27.11-5.47s2.34-1 3.4 0 4.14.88 5.25.14c-.11-2.52 3.23-2.63 4.89-.74z"></path><path class="cls-3" d="M307.56 372.84c0-.64-.07-1.41-.06-2.12a12.73 12.73 0 0 1 7.89.95c5.9 2.6 7.28 1.73 7.28 1.73l2.55 1.89s-3.65 1.25-9.63-1.28c-4.05-1.72-6.34-1.77-8.03-1.17z"></path><path class="cls-3" d="M334.36 376.4s.79 1.42-.09 2.06-8.86 1.94-12.8 1.3-8.48-1.57-11.76-.95-2.81-3.54-2-4.49c6.68.07 8.09 2.8 16.3 3.34s10.35-1.26 10.35-1.26z"></path><path class="cls-37" d="M265.18 351.1S261 356.64 250 357c0 0-8-.15-9.46 1.74 0 0-1.1-.37-1.36-1.15s-8.38-57.91 11.25-75.15l11.41 5.24s3.49 2.5 4.38 4.86 2.14 17.95 2.21 19.8-3.62 28.08-2.88 30.14 2.05 5.52 2.05 5.52z"></path><path class="cls-17" d="M265.35 279.6l.64 2.48c-4.56-1.89-4.37 3.11-4.59 5.6-.1 1.12-9.61-2-11-5.23 1.59-2.09 1.1-2.38 3.73-8.09.81-1.75 2.64-3.08 3.1-4.72 0 0-1.14-6.56-.15-7.91s4.54-.41 4.72 1.29 3.55 16.58 3.55 16.58z"></path><path class="cls-45" d="M276.45 246.75a.13.13 0 0 0-.18 0 .13.13 0 0 0 0 .19s3.73 5.51.29 9.55a.14.14 0 0 0 0 .19.13.13 0 0 0 .19 0c3.55-4.26-.29-9.91-.3-9.93zM254.38 256.16a.13.13 0 0 0 .18 0 .14.14 0 0 0 0-.19 8.11 8.11 0 0 1-.26-7.09.15.15 0 0 0-.08-.18.13.13 0 0 0-.17.08 8.37 8.37 0 0 0 .33 7.38zM268.57 260a.14.14 0 0 0-.16.22s4.69 3.43 10 1.13a.14.14 0 0 0 .07-.18.13.13 0 0 0-.17-.07c-5.17 2.23-9.73-1.1-9.74-1.1z"></path><path class="cls-17" d="M258.22 267.06c.33 3.17 1.58 3.72 1.58 3.72s.45.16.24 1-.05 2 2.37 5.6l.47.68a34.32 34.32 0 0 0 3.09 4v.06c-4.44-1.85-4.38 2.87-4.57 5.41v.19c-.1 1.12-9.61-2-11-5.23q.23-.29.39-.54a17.87 17.87 0 0 0 1.79-4c.34-.84.8-1.92 1.45-3.34a3.33 3.33 0 0 0 2.63-1.42 9.54 9.54 0 0 0 1.19-4s-.59-2.85.05-4.5a1.41 1.41 0 0 1 1.22-1s-1.23.19-.9 3.37z"></path><path class="cls-32" d="M262.21 295.69s4.49 23.15 5.81 25.73 14.32-19.09 17-22.93c0 0 3.26.9 4.09 2.18 0 0-11.49 27-15.19 32.06s-9.31 4.68-13.78 1.51-12.27-28.28-14-33 8.3-17.45 16.07-5.55z"></path><path class="cls-17" d="M288.77 301.53a17.83 17.83 0 0 1 3.46-2.3c2.41-1.3 4.45-2.41 4.78-3.27a1.72 1.72 0 0 0-.37-2c-.46-.28-1.66.07-2.17-.1s.8-.9 1.65-1.07a12 12 0 0 0 2.22-.38.7.7 0 0 0 .23-.84c-.08-.15-.78-.18-1.7-.25a5 5 0 0 0-2.31.15 6.09 6.09 0 0 1-1.84.38 1.26 1.26 0 0 1 0-1.28 9.18 9.18 0 0 1 1.93-1.87c.41-.29 1.76-.17 2.39-.39s.59-1-.17-1.13a13.13 13.13 0 0 0-2.7 0c-1.09 0-1.54.7-2.94 1.61s-4 2.6-4.69 4.39-.93 4.14-1.55 5.34.73 2.61 3.78 3.01z"></path><path class="cls-44" d="M365.83 364.11c1.4-1.23 4.82-6.48 4.85-10.28s3.14-2.46 3.14-2.46 1.39-.77 2 .08 1.9 8.69 1.27 12.55-1.53 8.31-.93 11.52-3.46 2.76-4.4 2c0 0-4.17.47-5.35-.1s-.94-2.29 0-3.34.87-4.05.14-5.14c-2.46.06-2.55-3.21-.72-4.83z"></path><path class="cls-3" d="M370.34 377.63c-.63 0-1.39.07-2.08.06a12.53 12.53 0 0 1 .93-7.74c2.55-5.77 1.69-7.13 1.69-7.13l1.86-2.5s1.22 3.58-1.26 9.44c-1.69 3.97-1.73 6.24-1.14 7.87z"></path><path class="cls-3" d="M373.82 351.37s1.39-.77 2 .08 1.9 8.69 1.27 12.55-1.53 8.31-.93 11.52-3.46 2.76-4.4 2c.08-6.54 2.75-7.93 3.28-16s-1.22-10.15-1.22-10.15z"></path><path class="cls-17" d="M254.59 272.58a11.46 11.46 0 0 1 .1 1.23l2.84.8a17.85 17.85 0 0 1-.37 1.85 4.38 4.38 0 0 1 2.74.25s5.31 4.66 5.1 5.54h.1c5.75 2 7-.58 7.25-1.19s1.15-3.75 1.34-3.92 1.57.29 1.83-.49a65.53 65.53 0 0 0 1.15-11.75c.17-6.21-4.53-10.44-4.53-10.44-10.32-1.51-9.77 12.58-11.53 11.21s-3.86-.35-3.79 2.29c.01.41-2.37 4.3-2.23 4.62z"></path><path class="cls-4" d="M273.69 277.18s-2.76-.79-4.79-1.26-3.51-.68-4.35-2.09a5.85 5.85 0 0 1-1-4.77 6.83 6.83 0 0 1 2.7-4.26c.76-.44 1-1.35.67-2.67s-.15-8 6.32-6.49c0 0 .31-.54-.23-2.28s-10.29-4.24-16.2.84-5.2 10.58-4.21 14.41a12 12 0 0 1 .24 1.19s.39 1.45.62 2.63 1.22 2.29 2.27 1.72a4.84 4.84 0 0 0 2.53-3.73s-1.19-4.38 1-4.92c0 0 1.59-.92 2.42 2.16a9.56 9.56 0 0 1-.37 2.82 17.45 17.45 0 0 0-1.21 9.18c.65 4.88 5.63 5.25 7.27 5.81s3.8.49 4.38-1.19 1.88-5.48 2.08-6 .03-1.05-.14-1.1z"></path><path class="cls-4" d="M264.46 266.67s4.11-.34 3.78-6.61c0 0 5.53 2.39 8.17 2s5.73-8.35 3.83-11.8-2.23.94-2.23.94-9.95-6.57-14.38-7.36-9.19 5.94-9.79 8.73c0 0-.44-2.22-1.89-2.44s.05 3.1.05 3.1-2.69.89-3.46 2.74 4 12.24 4.94 16.74l2-1.3s.39-8 .47-8.34 7.24 1.63 7.24 1.63z"></path></g></svg> 