<?xml version="1.0" encoding="UTF-8"?> <svg xmlns="http://www.w3.org/2000/svg" viewBox="0 0 570 440"><defs><style>.cls-10,.cls-12,.cls-13,.cls-14,.cls-15,.cls-16,.cls-17,.cls-18,.cls-22,.cls-25,.cls-27,.cls-29,.cls-30,.cls-34,.cls-35,.cls-36,.cls-38,.cls-39,.cls-4,.cls-48,.cls-49,.cls-53,.cls-54{fill-rule:evenodd}.cls-21,.cls-4{fill:#fff}.cls-10,.cls-24{fill:#0a0c0d}.cls-12{fill:#d96d62}.cls-13,.cls-63{fill:#121417}.cls-14{fill:#e9ab89}.cls-15{fill:#e08976}.cls-16{fill:#1f232e}.cls-17{fill:#3d4154}.cls-18{fill:#53596b}.cls-19,.cls-22{fill:#e1e0e7}.cls-49{fill:#bfcbe5}.cls-23,.cls-35{fill:#41455d}.cls-25{fill:#20242f}.cls-27{fill:#e29076}.cls-29{fill:#5eb1b4}.cls-30{fill:#d7588e}.cls-34{fill:#0d0f11}.cls-36{fill:#9eafd4}.cls-37,.cls-38{fill:#b5c5e2}.cls-39{fill:#e49997}.cls-48{fill:#8490b4}.cls-53{fill:#f1be44}.cls-54{fill:#d25383}</style></defs><g id="Слой_6" data-name="Слой 6"><path d="M409.49 154.91h105a46.54 46.54 0 0 0 46.4-46.4 46.54 46.54 0 0 0-46.4-46.4h-434a75.35 75.35 0 0 0-75.14 75.14 75.35 75.35 0 0 0 75.13 75.13 31.87 31.87 0 0 1 31.77 31.77 31.87 31.87 0 0 1-31.77 31.77H42.25a33.12 33.12 0 0 0-33 33 33.12 33.12 0 0 0 33 33h48.34a12.9 12.9 0 0 1 12.86 12.86 12.9 12.9 0 0 1-12.86 12.86h-8.52a8.89 8.89 0 0 0-8.87 8.87 8.9 8.9 0 0 0 8.87 8.88H138c11.77 0 13.08-13.92 42.83-13.92h85.72A11.61 11.61 0 0 0 278.13 360a11.62 11.62 0 0 0-11.58-11.59h-11.12a16.83 16.83 0 0 1-16.78-16.77 16.83 16.83 0 0 1 16.78-16.78h16.74c45.19 0 51.58-11.81 59.49-35.3s49-25.39 49-25.39h31.71a25.36 25.36 0 0 0 25.28-25.28 25.36 25.36 0 0 0-25.28-25.29h-2.9a24.39 24.39 0 0 1-24.32-24.32 24.4 24.4 0 0 1 24.32-24.32zM57.17 367.69a8.88 8.88 0 1 1-8.88 8.87 8.87 8.87 0 0 1 8.88-8.87z" fill-rule="evenodd" fill="#e1e7f4"></path><path d="M61.28 107.05a2.24 2.24 0 0 0-2.23 2.23v70.59a2.25 2.25 0 0 0 2.23 2.24h46.19a2.25 2.25 0 0 0 2.24-2.24v-70.59a2.24 2.24 0 0 0-2.24-2.23z" fill="#f8e2d6" fill-rule="evenodd"></path><path d="M59.07 109v.15h8.1V114h-8.12v.15h16.68v4.93H59.05v.15h8.11v4.93h-8.11v.15h16.68v4.93H59.05v.15h8.11v4.92h-8.11v.15h16.68v4.93H59.05v.15h8.11v4.93h-8.11v.15h16.68v4.93H59.05v.15h8.11v4.93h-8.11v.15h16.68v4.93H59.05v.15h8.11v4.92h-8.11v.22h16.68v4.93H59.05v.07h8.11v5h-8.11v.15h16.68v4.93H59.06v.15h8.09v1.91h.15v-1.94h17v1.91h.15v-1.91h17v1.91h.15v-1.91h8.09v-.15H93v-4.93h16.69V175h-8.12v-5h8.12v-.15H93V165h16.69v-.15h-8.12v-4.92h8.12v-.15H93v-4.93h16.69v-.15h-8.12v-4.93h8.12v-.15H93v-4.93h16.69v-.15h-8.12v-4.93h8.12v-.15H93v-4.93h16.69v-.15h-8.12v-4.92h8.12v-.15H93v-4.93h16.69v-.15h-8.12v-4.93h8.12v-.15H93v-4.93h16.69V114h-8.12v-4.9h8.11v-.15H93v-1.9h-.15V109h-17v-1.9h-.15v1.9H59.07zm33.8 66.17v4.93h-17v-4.93h17zm8.57-5.08V175h-17v-5h17zM84.3 170v5h-17v-5h17zm8.57-5v4.93h-17V165h17zm8.57-5.07v4.92h-17v-4.92h17zm-17.14 0v4.92h-17v-4.92h17zm8.57-5.08v4.93h-17v-4.93h17zm8.57-5.08v4.93h-17v-4.93h17zm-17.14 0v4.93h-17v-4.93h17zm8.57-5.08v4.93h-17v-4.93h17zm8.57-5.08v4.93h-17v-4.93h17zm-17.14 0v4.93h-17v-4.93h17zm8.57-5.08v4.93h-17v-4.93h17zm8.57-5.07v4.92h-17v-4.92h17zm-17.14 0v4.92h-17v-4.92h17zm8.57-5.08v4.93h-17v-4.93h17zm8.57-5.08v4.93h-17v-4.93h17zm-17.14 0v4.93h-17v-4.93h17zm8.57-5.08v4.93h-17v-4.93h17zm8.57-5.08V114h-17v-4.9h17zm-17.14 0V114h-17v-4.9h17z" fill="#cbaaa1" fill-rule="evenodd"></path><path class="cls-4" d="M211.65 245.21l.14.14a4.09 4.09 0 0 0 2.91 1.22h94.83a4.1 4.1 0 0 0 2.83-1.14 4.12 4.12 0 0 0 1.22-2.92V111.17a4.1 4.1 0 0 0-1.21-2.9 4.09 4.09 0 0 0-2.91-1.21H214.7a4.09 4.09 0 0 0-2.9 1.2 4.1 4.1 0 0 0-1.21 2.9v131.28a4.11 4.11 0 0 0 1.06 2.77zM199.53 245.84l.11-.12a2.86 2.86 0 0 0 .85-2v-49.59a2.87 2.87 0 0 0-2.87-2.87H61.92A2.8 2.8 0 0 0 60 192a2.85 2.85 0 0 0-.84 2v49.7a2.86 2.86 0 0 0 .85 2 2.81 2.81 0 0 0 2 .84h135.7a2.86 2.86 0 0 0 1.82-.7zM120.63 107.05a2.24 2.24 0 0 0-2.23 2.23v70.59a2.25 2.25 0 0 0 2.23 2.24h77.63a2.24 2.24 0 0 0 1.58-.66 2.22 2.22 0 0 0 .65-1.58v-70.59a2.22 2.22 0 0 0-2.23-2.23z"></path><path d="M200.29 108.36v72.43a2.27 2.27 0 0 1-.45.66 2.24 2.24 0 0 1-1.58.66h-77.63a2.25 2.25 0 0 1-2.23-2.24v-70.59a2.24 2.24 0 0 1 2.23-2.23h77.63a2.23 2.23 0 0 1 1.58.65 2.42 2.42 0 0 1 .45.66z" fill="#ecc5c5" fill-rule="evenodd"></path><path d="M186.69 107.05v1.89h13.6v.15h-5V114h5v.14h-13.6v4.93h13.6v.15h-5v4.93h5v.15h-13.6v4.93h13.6v.15h-5v4.93h5v.15h-13.6v4.93h13.6v.15h-5v4.92h5v.16h-13.6v4.92h13.6v.15h-5v4.93h5v.15h-13.6v4.93h13.6v.15h-5v4.93h5v.22h-13.6v4.93h13.6v.07h-5v5h5v.15h-13.6V180h13.6v.15h-5v1.93h-.15v-1.93h-17v1.93H178v-1.93h-17v1.93h-.15v-1.93h-17v1.93h-.15v-1.93h-17v1.93h-.15v-1.93h-8.13V180h16.71v-4.92H118.4V175h8.15v-5h-8.15v-.15h16.72V165H118.4v-.15h8.15v-4.93h-8.15v-.15h16.72v-4.93H118.4v-.15h8.15v-4.93h-8.15v-.15h16.72v-4.92H118.4v-.16h8.15v-4.92h-8.15v-.15h16.72v-4.93H118.4v-.15h8.15v-4.98h-8.15v-.15h16.72v-4.93H118.4v-.15h8.15v-4.93h-8.15v-.15h16.72v-4.93H118.4V114h8.15v-4.93h-8.14a.77.77 0 0 1 0-.15h16.69v-1.89h.15v1.89h17v-1.89h.15v1.89h17v-1.89h.15v1.89h17v-1.89zm-.15 68.06h-17V180h17v-4.92zm-17.14 0h-17V180h17v-4.92zm-17.14 0h-17V180h17v-4.92zm42.85-5.11h-17v5h17v-5zM178 170h-17v5h17v-5zm-17.14 0h-17v5h17v-5zm-17.14 0h-17v5h17v-5zm42.82-5h-17v4.93h17V165zm-17.14 0h-17v4.93h17V165zm-17.14 0h-17v4.93h17V165zm42.85-5.08h-17v4.93h17v-4.93zm-17.14 0H161v4.93h17v-4.93zm-17.14 0h-17v4.93h17v-4.93zm-17.14 0h-17v4.93h17v-4.93zm42.85-5.08h-17v4.93h17v-4.93zm-17.14 0h-17v4.93h17v-4.93zm-17.14 0h-17v4.93h17v-4.93zm42.85-5.08h-17v4.93h17v-4.93zm-17.14 0H161v4.93h17v-4.93zm-17.14 0h-17v4.93h17v-4.93zm-17.14 0h-17v4.93h17v-4.93zm42.85-5.07h-17v4.92h17v-4.92zm-17.14 0h-17v4.92h17v-4.92zm-17.14 0h-17v4.92h17v-4.92zm42.85-5.08h-17v4.92h17v-4.92zm-17.14 0H161v4.92h17v-4.92zm-17.14 0h-17v4.92h17v-4.92zm-17.14 0h-17v4.92h17v-4.92zm42.85-5.08h-17v4.93h17v-4.93zm-17.14 0h-17v4.93h17v-4.93zm-17.14 0h-17v4.93h17v-4.93zm42.85-5.08h-17v4.93h17v-4.98zm-17.14 0H161v4.93h17v-4.98zm-17.14 0h-17v4.93h17v-4.98zm-17.14 0h-17v4.93h17v-4.98zm42.85-5.08h-17v4.93h17v-4.93zm-17.14 0h-17v4.93h17v-4.93zm-17.14 0h-17v4.93h17v-4.93zm42.85-5.08h-17v4.93h17v-4.93zm-17.14 0H161v4.93h17v-4.93zm-17.14 0h-17v4.93h17v-4.93zm-17.14 0h-17v4.93h17v-4.93zm42.85-5.08h-17v4.93h17v-4.93zm-17.14 0h-17v4.93h17v-4.93zm-17.14 0h-17v4.93h17v-4.93zm42.85-5.07h-17V114h17v-4.93zm-17.14 0H161V114h17v-4.93zm-17.14 0h-17V114h17v-4.93zm-17.14 0h-17V114h17z" fill="#df9a97" fill-rule="evenodd"></path><path d="M200.29 108.36v72.43a2.27 2.27 0 0 1-.45.66 2.24 2.24 0 0 1-1.58.66h-77.63a2.25 2.25 0 0 1-2.23-2.24v-70.59a2.24 2.24 0 0 1 2.23-2.23h77.63a2.23 2.23 0 0 1 1.58.65 2.42 2.42 0 0 1 .45.66z" fill="#e6e8f4" fill-rule="evenodd"></path><path d="M192.05 182.11l8.24-7.62v6.3a2.27 2.27 0 0 1-.45.66 2.24 2.24 0 0 1-1.58.66zm-23.45 0h16.54l15.15-14v-15.28l-31.69 29.28zm29.69-75.06h-6.9l-71.15 65.72v6.37l78.05-72.09zm-12.65 0l-65.4 60.4v-12.73l51.61-47.67z" fill="#f3f5fb" fill-rule="evenodd"></path><path d="M120.24 182.07v-75a2.56 2.56 0 0 1 .39 0h2.8v8.59h24.13v-8.59h3.2v8.59h24.12v-8.59h3.2v8.59h22.21v2.6h-22.21v24.84h22.21v2.61h-22.21v24.86h22.21v2.6h-22.21v8.94h-3.2v-8.94h-24.12v8.94h-3.2v-8.94h-24.13v8.94h-2.8a2.58 2.58 0 0 1-.39 0zm54.64-11.5v-24.86h-24.12v24.86zm-27.32 0v-24.86h-24.13v24.86zm27.32-27.47v-24.86h-24.12v24.86zm-27.32 0v-24.86h-24.13v24.86z" fill="#c6c6e1" fill-rule="evenodd"></path><path class="cls-4" d="M119.29 181.65V107.5a2.21 2.21 0 0 1 1.34-.45h1.85v7.87h24.13v-7.87h3.2v7.87h24.12v-7.87h3.2v7.87h23.16v2.61h-23.16v24.86h23.16V145h-23.16v24.86h23.16v2.61h-23.16v9.65h-3.2v-9.65h-24.12v9.65h-3.2v-9.65h-24.13v9.65h-1.85a2.15 2.15 0 0 1-1.34-.46zm54.64-11.8V145h-24.12v24.86zm-27.32 0V145h-24.13v24.86zm27.32-27.46v-24.86h-24.12v24.86zm-27.32 0v-24.86h-24.13v24.86z"></path><path class="cls-10" d="M94.6 146.21a7 7 0 0 1 2.61 2.49c.62 1 7.77 19.88 8.22 21.11a7.16 7.16 0 0 1-.3 4.37 61.07 61.07 0 0 1-4.3 7.93h-3c1-3.76 2.3-8.81 2.5-9.33a2 2 0 0 0 0-1.95c-.45-.94-6.55-10.78-6.55-10.78s-2.56-10.7.82-13.84z"></path><path d="M90 144.72s4 .91 4.68 1.57 2.48 12.09 2.74 13.42-.26 5.65-.2 6.78c0 .72.37 9.34.62 15.62h-21c.24-3.93.47-8.09.44-9.57-.07-3.06-3.82-20.66-3.79-22.27a5 5 0 0 1 .66-2.55l7.07-2.63z" fill="#cec9d0" fill-rule="evenodd"></path><path class="cls-4" d="M90 144.72l1.11.27a4 4 0 0 1-2.55 4.31c-3.16 1.17-7.35-1.3-8.49-3.78l1.15-.43z"></path><path class="cls-12" d="M93.62 129.81c-1.39.12-3.29 1.43-3.17 2.81a2.52 2.52 0 0 0 2.74 2.29c3.14-.28 2.88-5.32.43-5.1z"></path><path class="cls-13" d="M93.16 131.32s2.17-1.78 2.22-2.88-1.5-.77-1.5-.77 2.45-2.18 2.59-4.22-2-1.42-2-1.42a3.38 3.38 0 0 0-.36-3.9 2.53 2.53 0 0 0 .47-2.24.16.16 0 0 0-.21-.12c-.19 0-.31 1.07-1.48 1 0 0-.28-3.6-3.22-2.09 0 0-1.65-3.72-4.88-1.26 0 0-6-2.6-8.42 2.79a3 3 0 0 0-3.84 3.19s-2 .79-.86 4c0 0-1.21-1.25-1.74-1s.45 2.65 1.68 3.67c0 0-1.3-.66-1.51.07s1.07 2.13 1.9 2.38a1.12 1.12 0 0 0-.44 1.09c.07.79 1.85 2.56 4.38 3s10.66 2.13 17.22-1.29z"></path><path class="cls-10" d="M92.76 133c1.89-1.55 3.55-7.22 3.71-9.55a1.25 1.25 0 0 0-.53-1.33s.62 1.13-1 1.85-6.94-.58-8.94-2.27a3.26 3.26 0 0 1-3.08 2.15 4.81 4.81 0 0 1-3.92-2.36 4.25 4.25 0 0 1-4.37 1.9 3.75 3.75 0 0 1-3-3.2 3.75 3.75 0 0 0 0 3.21s-1.21-1.25-1.74-1 .45 2.65 1.68 3.67c0 0-1.3-.66-1.51.07s1.07 2.13 1.9 2.38a1.12 1.12 0 0 0-.44 1.09c.07.79 1.85 2.56 4.38 3s10.3 3.81 16.86.39z"></path><path class="cls-12" d="M82.33 136.41l.09 2.19v5.18c0 .5-.64.9-1.19 1.31 3.58 4.56 9.27 3.56 8.78-.37h-.07a2.3 2.3 0 0 1-1-.58c-.75-.81-.72-4.46 0-5.41s-6.61-2.32-6.61-2.32zM75.52 131.43a2.52 2.52 0 1 0 2.74 2.28 2.52 2.52 0 0 0-2.74-2.28z"></path><path class="cls-14" d="M83.57 117.9a8.66 8.66 0 0 0-7.84 9.37l.7 7.83a8.66 8.66 0 0 0 9.38 7.83 8.67 8.67 0 0 0 7.84-9.37l-.7-7.83a8.67 8.67 0 0 0-9.38-7.83z"></path><path class="cls-15" d="M80.12 119a8.67 8.67 0 0 0-4.37 8.29l.7 7.83a8.66 8.66 0 0 0 9.38 7.83 8.39 8.39 0 0 0 3-.85c-8.42.82-9.86-4.82-10.29-9.61-.63-7.07 7.32-5.22 13.64-5.79.28 0 .56-.05.82-.09l-.07-.86a8.39 8.39 0 0 0-.5-2.2c-3.59-1.84-8.55-4.19-10.81-4.44l-1.45-.17s.03.06-.05.06z"></path><path class="cls-10" d="M76.64 126.58a10.19 10.19 0 0 1 1 2.81 48.23 48.23 0 0 1-1.42 5.85s-.15-3.76-1-3.78l-.61-6.83a3.5 3.5 0 0 0 2 1.36 2.84 2.84 0 0 0 .03.59z"></path><path class="cls-13" d="M80.65 124.94s3.44 1.78 5.59-.21c.83 1.54 4.19 3.13 3.07.29 1.86.94 1.56-.17 1-.46a5.8 5.8 0 0 0 2.67.68c4.27-.81-2.2-7.07-3.44-8.09 0 0-9-.38-9.37.13-.13.19-.48.55-.89 1a12.87 12.87 0 0 0-2 .46c-.25.16-3.17 2.83-3.66 3.36s-1.94 7.29 2.29 7.3 4.74-4.46 4.74-4.46z"></path><path class="cls-10" d="M80.65 124.94s3.44 1.78 5.59-.21c.83 1.54 4.19 3.13 3.07.29 1.86.94 1.56-.17 1-.46a5.8 5.8 0 0 0 2.67.68c.89-.17 1.31-.57 1.41-1.12-2 .34-6.56-.88-8.4-2.42a3.26 3.26 0 0 1-3.08 2.15 4.81 4.81 0 0 1-3.91-2.36 4.25 4.25 0 0 1-4.37 1.9 3.94 3.94 0 0 1-1.33-.54c-.52 1.9-.91 6.53 2.59 6.54 4.26.01 4.76-4.45 4.76-4.45z"></path><path class="cls-16" d="M80.66 145.31s4.5 10.82 5.1 14.41c.32 1.88-.06 12.55-.5 22.39H74.92c.54-4.1 1.06-7.79 1.13-9 .2-3.06-3-22.21-3-22.71a6 6 0 0 1 1.16-2.66z"></path><path class="cls-17" d="M83 151.17a59.61 59.61 0 0 1 2.78 8.55 3.7 3.7 0 0 1 .06.58s-6.55-6.51-6.51-6.77.93-3.26.93-3.26a8 8 0 0 1 2.74.9z"></path><path class="cls-16" d="M90.57 144.85s1.74 14 1.94 15.09c.11.57.88 11.77 1.61 22.17h5.06c-.35-3.83-.65-7-.72-7.87-.2-2.33-.5-14.3-.6-15.19s-2.67-12-2.73-12.18a1.1 1.1 0 0 0-.53-.66 14.67 14.67 0 0 0-4.03-1.36z"></path><path class="cls-17" d="M91.13 149.39c.53 4.2 1.25 9.89 1.38 10.55 0 .1 0 .47.1 1.07s1.74-10.07 1.64-10.5a27.6 27.6 0 0 0-1.46-2.73s-.74.7-1.66 1.61z"></path><path class="cls-16" d="M75.12 116.11c4.47 4.21 12.93 2.84 16.35-1.74 1.26.43 1.41 2.38 1.41 2.38 1.17.09 1.29-.93 1.48-1a.16.16 0 0 1 .21.12 3.29 3.29 0 0 1 .08.66c-5.75 5.07-15.59 4.89-20.41-.25a3.24 3.24 0 0 1 .88-.17z"></path><path class="cls-18" d="M77.41 146.51a2.63 2.63 0 0 1 .25-.35s2.36-1 2.49-1a2.72 2.72 0 0 1 .51.15l3.11 8a61.36 61.36 0 0 1-5.7-2.44c-.1-.26-.37-4.42-.37-4.42zM90.32 144.79s.13-.18.18-.19 2.15.64 2.15.64 1.06 1.81 1.14 2a32.37 32.37 0 0 1-2.49 3.49l-.73-5.89z"></path><path class="cls-10" d="M74.16 147.72a7 7 0 0 0-2.61 2.49c-.63 1-7.77 19.87-8.23 21.1a7.2 7.2 0 0 0 1.18 5.92c.58.71 2.3 2.73 4.13 4.88H74c-2.11-3-5.31-7.48-5.52-7.82a1.73 1.73 0 0 1-.06-1.95c.45-.94 6.56-10.79 6.56-10.79s2.56-10.7-.82-13.83z"></path><path class="cls-14" d="M73.8 182.11a1.73 1.73 0 0 1 1.91-.64 1.7 1.7 0 0 1 1 .64z"></path><path class="cls-15" d="M76.34 182.11a1 1 0 0 0-.2-.48 1.52 1.52 0 0 1 .57.48z"></path><path class="cls-14" d="M100.94 182.11c.16-1.57-.57-3.12-2.18-2.91s-1.68 1.75-1 2.91z"></path><path class="cls-15" d="M98.92 182.11c-.79-.78-1.28-2.15-.61-2.81-1.22.41-1.17 1.76-.59 2.81z"></path><path class="cls-19" d="M257.88 114.17h38.7v36.41h-38.7z"></path><path fill="#bfcbe5" d="M256.64 112.65h38.7v36.41h-38.7z"></path><path class="cls-21" d="M261.97 118.47h28.04v24.76h-28.04z"></path><path class="cls-22" d="M262 125.09h.16a.15.15 0 0 1 .16.14v.36h1.9v-.53a.17.17 0 0 1 .17-.15h2a.16.16 0 0 1 .16.15v1.25h.82v-.57a.16.16 0 0 1 .05-.11.15.15 0 0 1 .11 0h.73a.16.16 0 0 1 .16.15v5.05h.74a.15.15 0 0 1 .17.15V132h.59v-.27a.17.17 0 0 1 .17-.15h.35a.15.15 0 0 1 .16.12v-5a.16.16 0 0 1 .11-.14h.18a.71.71 0 0 0 0-.14v-.46a.15.15 0 0 1 .16-.14h.27v-2.89a.14.14 0 0 1 .15-.14h.28v-1.11a.16.16 0 0 1 .16-.15h.14a2.07 2.07 0 0 0 0-.25v-.9a.15.15 0 0 1 0-.11.19.19 0 0 1 .12 0h2.42a.15.15 0 0 1 .16.15v1.15a.34.34 0 0 1 .21.08.16.16 0 0 1 .08.12v1.07h.29a.16.16 0 0 1 .16.15v2.88h.29a.15.15 0 0 1 .16.14v.61h.15a.15.15 0 0 1 .16.14v11.21h1.21v-8.77-.19a.25.25 0 0 1 .08-.18.3.3 0 0 1 .16-.05v-.59a.16.16 0 0 1 .3-.19h.27a1.34 1.34 0 0 0 0-.28v-.91a1.08 1.08 0 0 1 0-.31.21.21 0 0 1 .12-.18 1 1 0 0 0 0-.25 2.26 2.26 0 0 1 0-.26.17.17 0 0 1 .17-.13h1.2a.17.17 0 0 1 .14.07v-.62a.16.16 0 0 1 .16-.14h1.29a.17.17 0 0 1 .17.15v1.18a.47.47 0 0 1 .2.1.13.13 0 0 1 .06.11v1.5h.26a.15.15 0 0 1 .14.13l.08.6h.08a.24.24 0 0 1 .11.2v7.65h1v-1.15a.14.14 0 0 1 .05-.11.16.16 0 0 1 .12 0h.41a.16.16 0 0 1 .16.15v1.15h.81a.15.15 0 0 1 .16.14v.35h.07v-.82a.15.15 0 0 1 .16-.14h1.14a.16.16 0 0 1 .17.14v.37a.12.12 0 0 1 .09 0h1.1a.16.16 0 0 1 .17.14v.17a.47.47 0 0 0 .06-.15.92.92 0 0 0 0-.33v-.47a.16.16 0 0 1 .16-.14h.89v-17.44h.83v24.77h-28z"></path><path class="cls-19" d="M210.58 150.41h31.51v7.99h-31.51zM210.58 160.66h31.51v7.99h-31.51zM210.58 170.92h31.51v7.99h-31.51zM210.58 181.17h31.51v7.99h-31.51z"></path><path class="cls-22" d="M239.56 136.39l3.56.97-5.85 5.84h-26.69v-6.51l28.98-.3z"></path><path class="cls-10" d="M243.58 135h-33v2.4h33a.51.51 0 0 0 .51-.51v-1.38a.51.51 0 0 0-.51-.51z"></path><rect class="cls-23" x="221.67" y="139.41" width="3.65" height="5.75" rx=".38"></rect><rect class="cls-24" x="221.18" y="136.34" width="4.62" height="4.25" rx=".44"></rect><path class="cls-25" d="M254.08 171.28c-.49.57-1.42 1.26-1.89 1.89-4.13 5.61-10.19 22.34-13.68 29.57a35 35 0 0 1-2.2 4.1l8.82 6.79a134.09 134.09 0 0 0 9.81-18.17c3.89-8.44 4.3-15.63 5.45-21.2l.06-.3V173.3a9.72 9.72 0 0 0 .21-2.85l-1.33 2.51zM290.11 174.38s-1.06-4.13 1.66-1.45 17.09 42.89 16.86 47c-.16 2.79-6.62 15.61-12.28 24.74h-7.82c2.65-5.66 8.56-20.1 9.74-24.3 1.44-5.15-11.11-23.61-12.5-27.09s-3.24-13.49 4.34-18.9z"></path><path class="cls-12" d="M276.29 151.68l-.16 3.68c0 4.65-1.44 8.29 2 10.92a5.25 5.25 0 0 1-2.74 8.49c-2.39.37-14-2.42-14.73-3.08-.55-.47 2.92-4.66 2.6-6 .25-.07 0 0 .22-.08a4 4 0 0 0 1.68-1c1.26-1.37 1.2-7.51-.06-9.12s11.19-3.81 11.19-3.81z"></path><path class="cls-25" d="M243.42 201.42l-6.64 5.07a3.77 3.77 0 0 0-.47.35c-1 2.13-1.53 5.74-.68 10.49.93 5.2 9.06 27.39 9.06 27.39h8.12l-7.72-25.12s-1-4 0-6l-.51-6.62z"></path><path class="cls-10" d="M289.82 242.21a7.14 7.14 0 0 1-1 2.51h-38.51a27.93 27.93 0 0 1 .53-3.78c7.2-42.51-12.24-62.75 12.06-73.79-1 6.73 7.32 9.16 15.23-.87 3.68.69 9.47 3.82 9.47 3.82 2.92 1.49 4.77 2.5 5.26 5.81 1.78 12.21-5.6 26.8-5.74 39.25-.12 11.6 4.82 16.49 2.7 27.05z"></path><path class="cls-25" d="M280 166.75a52.73 52.73 0 0 1 7.64 3.35c2 1 3.48 1.77 4.38 3.21 4 6.42 3 20.85-2.45 26.93 0-.08.07-.17 0-.24-4.35-8.38.5-24.23-12.12-30.07l.89-1.78a10.16 10.16 0 0 1 1.66-1.4zM249.48 192.9c-2.87-6.28-.73-23.79 12.18-25.87l.38 1.7c-9.43 1.16-11.12 15.38-12.56 24.17z"></path><path class="cls-4" d="M260.89 167.16a5.92 5.92 0 0 1 2.59-1.56c.24 9.35 9.1 7.71 14.65.68a20.82 20.82 0 0 1 3.33 1l-.52.66c-2.26 2.87-5.28 5.64-8.87 6.68a8.51 8.51 0 0 1-8.16-1.56c-2.04-1.8-3.18-3.25-3.02-5.9z"></path><path d="M274 170.31a20.3 20.3 0 0 0 4.11-4 20.82 20.82 0 0 1 3.33 1l-.52.66a22.84 22.84 0 0 1-4.88 4.73 16.92 16.92 0 0 0-2.04-2.39z" fill="#fcf3ee" fill-rule="evenodd"></path><path class="cls-12" d="M256.21 143a4.15 4.15 0 1 1-4.27 4 4.15 4.15 0 0 1 4.27-4zM284.58 143.91a4.14 4.14 0 1 1-4.27 4 4.13 4.13 0 0 1 4.27-4z"></path><path class="cls-14" d="M270.09 122.5a14.24 14.24 0 0 1 13.75 14.62l-.4 12.89a14.23 14.23 0 0 1-14.61 13.75 14.23 14.23 0 0 1-13.74-14.62l.39-12.89a14.24 14.24 0 0 1 14.61-13.75z"></path><path class="cls-27" d="M283.58 134a14.17 14.17 0 0 1 .26 3.14l-.4 12.89a14.23 14.23 0 0 1-14.62 13.75c15.26-2.53 11-21.88 6.36-23.7S260.67 137.55 258 138a2.81 2.81 0 0 0-2.62 2.62l.13-4.34a14.12 14.12 0 0 1 .91-4.56c2.85-.32 10.35.36 17.19.57a36.34 36.34 0 0 1 10 1.72zm-14.76 29.78"></path><path class="cls-4" d="M271.81 153.53a4.51 4.51 0 1 1-9-.27.78.78 0 0 1 .8-.76l7.45.23a.79.79 0 0 1 .76.8z"></path><path class="cls-10" d="M253.66 133l2.45 2.65s1.39-4.71 11.61-2.87-9.12-9.89-11.4-8.77-4.32 4.56-2.66 8.99z"></path><path d="M282.21 143.27a4.65 4.65 0 0 1-.28-3.71c.73-2-2.85-.66-1.6-5.39 0 0-10.15.74-15.17-2.71s-9.33-5.14-10.71-3.4 3.93 9.69.65 17.78c.2-11.16-8.93-14.24-1-24.66 3.63-4.79 6.29-6.13 9.15-3.8a10 10 0 0 0 5.16 2.17c4.86.63 17.52-2.25 17.18 8.78 0 0 6.5 2.45-.1 15.7a1.74 1.74 0 0 0-1.88 1.87l-.05 1.77c-2.15-1.02-1.71-3.3-1.35-4.4z" fill="#15161b" fill-rule="evenodd"></path><path class="cls-10" d="M280.33 134.17s-7.32.54-12.6-1.42c19.65 3.42 15.19-11 15.16-11.08 1.69 1.28 2.76 3.34 2.66 6.66 0 0 6.5 2.45-.1 15.7a1.74 1.74 0 0 0-1.88 1.87L283 152c-.87-.42-1.37-9-3.16-13-.84-2 .49-4.81.49-4.83z"></path><path class="cls-14" d="M282 244.72a4.75 4.75 0 0 1 4.74-4.74h4.54a4.75 4.75 0 0 1 4.73 4.74z"></path><path class="cls-29" d="M45.61 103.08a1 1 0 0 1-2 0v-6.63a4.79 4.79 0 0 1 1.41-3.39 4.82 4.82 0 0 1 3.39-1.4h6.64a1 1 0 1 1 0 2h-6.6a2.85 2.85 0 0 0-2.84 2.84z"></path><path class="cls-30" d="M49 101.54a.76.76 0 0 1-1.51 0v-3.26a2.65 2.65 0 0 1 2.63-2.63h3.28a.76.76 0 0 1 .75.76.75.75 0 0 1-.75.75h-3.26a1.12 1.12 0 0 0-.79.33 1.16 1.16 0 0 0-.33.79z"></path><path class="cls-29" d="M329.06 103.08a1 1 0 0 1-2 0v-6.63a2.87 2.87 0 0 0-.83-2 2.83 2.83 0 0 0-2-.83h-6.63a1 1 0 0 1 0-2h6.63a4.82 4.82 0 0 1 3.39 1.4 4.79 4.79 0 0 1 1.41 3.39z"></path><path class="cls-30" d="M325.19 101.54a.74.74 0 0 1-.75.75.75.75 0 0 1-.76-.75v-3.26a1.15 1.15 0 0 0-.32-.79 1.16 1.16 0 0 0-.8-.33h-3.25a.75.75 0 0 1-.76-.75.76.76 0 0 1 .76-.76h3.25a2.65 2.65 0 0 1 2.63 2.63z"></path><path class="cls-29" d="M43.65 250.53a1 1 0 0 1 2 0v6.64a2.87 2.87 0 0 0 2.8 2.83h6.64a1 1 0 0 1 0 2h-6.64a4.79 4.79 0 0 1-3.39-1.41 4.79 4.79 0 0 1-1.41-3.39z"></path><path class="cls-30" d="M47.51 252.08a.76.76 0 1 1 1.51 0v3.25a1.12 1.12 0 0 0 .33.79 1.08 1.08 0 0 0 .79.33h3.26a.76.76 0 0 1 0 1.51h-3.26a2.63 2.63 0 0 1-2.63-2.63z"></path><path class="cls-29" d="M327.09 250.53a1 1 0 0 1 2 0v6.64a4.79 4.79 0 0 1-1.41 3.39 4.79 4.79 0 0 1-3.39 1.41h-6.63a1 1 0 0 1 0-2h6.63a2.85 2.85 0 0 0 2.84-2.84z"></path><path class="cls-30" d="M323.68 252.08a.76.76 0 0 1 .76-.76.75.75 0 0 1 .75.76v3.25a2.63 2.63 0 0 1-2.63 2.63h-3.25a.76.76 0 1 1 0-1.51h3.25a1.11 1.11 0 0 0 1.12-1.12z"></path><path class="cls-25" d="M170.26 143.75a15.44 15.44 0 0 1 3.62 1.27c1.71.82 5.71 5.15 7.84 6.5 1.91 1.22 2.2 1.82 2.87-.56 1.26-4.47 3-15.86 3-15.86l2.6.21s-.25 19.95-2 22.36a3.11 3.11 0 0 1-2.8 1.28c-3 .16-8.49-1.64-17.85-6.73 0 0-1.24-5.19 1.71-9.2zM151.52 143.75a15.44 15.44 0 0 0-3.62 1.25c-1.7.82-5.7 5.15-7.83 6.5-1.91 1.22-2.2 1.82-2.88-.56-1.26-4.47-3-15.86-3-15.86l-2.61.21s.25 19.95 2 22.36a3.11 3.11 0 0 0 2.8 1.28c3.06.16 8.5-1.64 17.85-6.73 0 0 1.25-5.19-1.71-9.2z"></path><path class="cls-30" d="M166.66 142.59s5.6 1.49 6.2 2v11.61s-3 10-3.31 11.53 0 11 0 11.68-2.36 1.93-8.65 1.93-8.64-1.24-8.64-1.93.32-10.15 0-11.68-3.32-11.53-3.32-11.53v-11.61c.61-.51 6.2-2 6.2-2l5.76 1.89z"></path><path d="M166.66 142.59s5.6 1.49 6.2 2v8.9l-.25 3.58c-.74 2.46-2.8 9.4-3.06 10.66-.33 1.53 0 11 0 11.68a.64.64 0 0 1-.23.41l-1.7.8a21.42 21.42 0 0 1-5.21.69 9.84 9.84 0 0 0 .3-1.23c0-.42-.59-12.19-.59-12.19l1.9-6.6a6.06 6.06 0 0 0-.92-1.18c-.21-.07-4.06-.14-4.49-.09a6.75 6.75 0 0 0-1.59.88l-1.41-4.27s8.73-.11 8.87-.64 1-6.46 1-7.1-1.62-3.39-1.62-3.39a5.56 5.56 0 0 1 0-2z" fill="#af5574" fill-rule="evenodd"></path><path class="cls-24" transform="rotate(-11.88 160.407 137.644)" d="M153.15 132.05h14.67v11.24h-14.67z"></path><path d="M165 141.22a12.36 12.36 0 0 0-8.2 0l.42 1.35 3.68.22 3.68-.22z" fill="#f2cdbe" fill-rule="evenodd"></path><rect x="157.91" y="135.94" width="6.04" height="9.5" rx="2.99" fill="#d96d62"></rect><path class="cls-12" d="M153.35 130.23a2.12 2.12 0 1 1-2 2.19 2.12 2.12 0 0 1 2-2.19z"></path><path class="cls-14" d="M160 119.89a7.16 7.16 0 0 1 7.22 7l.24 6.59a7.13 7.13 0 0 1-6.68 7.51 7.16 7.16 0 0 1-7.22-7l-.24-6.59a7.13 7.13 0 0 1 6.68-7.51z"></path><path class="cls-15" d="M160 119.89a7.16 7.16 0 0 1 7.22 7l.24 6.59a7.13 7.13 0 0 1-6.68 7.51h-.35c3.13-.88 4.64-2.46 5.16-4.19 1.9-6.45-4.78-7.23-7.4-9.37a5.13 5.13 0 0 1-1.23-1.37 10.26 10.26 0 0 1-3.5 4.79l-.14-3.46a7.15 7.15 0 0 1 6.68-7.5z"></path><path class="cls-16" d="M156.43 124s.79 3.38 11.63 5.72l-.41-7.84-5.65-3.72-5.34.92a31.14 31.14 0 0 0-3.07 2.41c-.25.42-1.73 5.57-1.73 5.57l1.14 2.44s2.43-.72 3.43-5.5z"></path><path class="cls-13" d="M156.43 124s.79 3.38 11.63 5.72l-.13-2.43c-5 .67-11.5-3.29-11.5-3.29zm-3.88 4.53a7.94 7.94 0 0 0 3.88-4.53c-1 4.82-3.4 5.54-3.4 5.54z"></path><path class="cls-25" d="M166.46 142.28s-1.16 13-1.36 14-2.59 9.43-3 10.49c-.21.53.74 8 1.74 15.36h8.4c-1.06-3-2-5.7-2.11-6.33-.32-1.56 2.67-17.68 2.67-17.68l1.1-13.12a30.26 30.26 0 0 0-7.44-2.72z"></path><path class="cls-34" d="M165.94 148c-.34 3.62-.73 7.73-.84 8.27-.2 1-2.59 9.43-3 10.49a54.68 54.68 0 0 0 .69 7.34s.42-6.58.7-7.43 6.43-11.58 6.61-12.32-1.38-6.75-1.38-6.75z"></path><path class="cls-10" d="M166.46 142.28s-.47 5.3-.87 9.39c1.45-.9 4.57-2.9 4.48-3.2s-2-5.75-2-5.76z"></path><path class="cls-4" d="M165 141.22s.54.81.81 1.18a1.06 1.06 0 0 1 .1.85c-.13.54-1.95 5.05-1.95 5.05s-.13.24-.39 0-2.22-2.9-2.22-2.9l3.22-3.83c.18-.19.43-.39.43-.35zM156.83 141.22s-.54.81-.8 1.18a1 1 0 0 0-.11.85c.13.54 2 5.05 2 5.05s.13.24.39 0 2.22-2.9 2.22-2.9l-3.22-3.83c-.2-.19-.43-.39-.48-.35z"></path><path class="cls-25" d="M155.34 142.28s1.16 13 1.36 14 2.59 9.43 3 10.49c.2.53-.75 8-1.75 15.36h-8.39c1.05-3 2-5.7 2.1-6.33.34-1.58-2.66-17.7-2.66-17.7l-.72-2.8-.38-10.3a30.5 30.5 0 0 1 7.44-2.72z"></path><path class="cls-34" d="M155.86 148c.34 3.62.73 7.73.84 8.27.21 1 2.59 9.43 3 10.49a56.66 56.66 0 0 1-.69 7.34s-.43-6.58-.71-7.43-6.43-11.58-6.61-12.32 1.38-6.75 1.38-6.75z"></path><path class="cls-10" d="M155.34 142.28s.48 5.3.87 9.39c-1.44-.9-4.56-2.9-4.48-3.2s2.06-5.75 2.06-5.76z"></path><path class="cls-16" d="M155.06 118.48s1.3-2.73 6.72-3 9.77 5.84 9.76 16-2.5 12.76-6.87 13.42a.19.19 0 0 1-.25-.17c0-.24 3-4.59 2.68-10.38 0 0-.1-2.14-.13-2.68s-.26-5.31-.26-5.31l-10.53-4.17-3.24 4.66.58 2.11s.26 5.32.34 7.08 1.11 6.85 3.81 7.76a.21.21 0 0 1 .08.27c-.06.2-4.78 1.45-6.83-2.09s-1.68-15.29-1.24-17.78 1.6-5.62 5.38-5.72z"></path><path class="cls-13" d="M171.05 125.91a30 30 0 0 1 .49 5.57c0 10.16-2.5 12.76-6.87 13.42a.19.19 0 0 1-.25-.17c0-.24 3-4.59 2.68-10.38 0 0-.1-2.14-.13-2.68l-.21-4.35a6.33 6.33 0 0 0 4.29-1.41zm-17.78 2.14l.25.91s.26 5.32.34 7.08 1.11 6.85 3.81 7.76a.21.21 0 0 1 .08.27c-.06.2-4.78 1.45-6.83-2.09-1.3-2.27-1.63-7.87-1.58-12.27a12.37 12.37 0 0 0 3.93-1.66z"></path><path class="cls-10" d="M148.3 155.42c.71-2.64 2.12-8.4 1.27-11.22l-.34.15c.83 2.75-.67 8.59-1.38 11.15.14-.07.28-.12.42-.2zM173.48 155.42c-.71-2.64-2.12-8.4-1.27-11.22l.35.15c-.83 2.75.66 8.59 1.37 11.15l-.42-.2z"></path><path class="cls-10" d="M120.63 105.35h77.63a3.93 3.93 0 0 1 3.93 3.93v70.59a3.94 3.94 0 0 1-3.93 3.94h-77.63a4 4 0 0 1-3.93-3.94v-70.59a3.94 3.94 0 0 1 3.93-3.93zm77.63 3.59h-77.63a.37.37 0 0 0-.24.1.35.35 0 0 0-.1.24v70.59a.33.33 0 0 0 .1.24.34.34 0 0 0 .24.11h77.63a.32.32 0 0 0 .24-.11.33.33 0 0 0 .1-.24v-70.59a.34.34 0 0 0-.34-.34z"></path><path class="cls-35" d="M61.92 189.56h135.7a4.58 4.58 0 0 1 4.57 4.57v49.57a4.54 4.54 0 0 1-1.34 3.22 4.59 4.59 0 0 1-3.23 1.34H61.92a4.54 4.54 0 0 1-3.22-1.34 4.54 4.54 0 0 1-1.34-3.22v-49.57a4.53 4.53 0 0 1 1.34-3.23l.13-.12a4.55 4.55 0 0 1 3.1-1.22zm135.7 3.59H61.92a.92.92 0 0 0-.63.23l-.06.06a1 1 0 0 0-.29.69v49.57a1 1 0 0 0 .28.69 1 1 0 0 0 .69.28h135.7a1 1 0 0 0 .69-.29 1 1 0 0 0 .28-.69v-49.56a1 1 0 0 0-.29-.69 1 1 0 0 0-.67-.29z"></path><path class="cls-25" d="M315.36 111.17v131.27a5.84 5.84 0 0 1-1.71 4.12l-.12.11a5.82 5.82 0 0 1-4 1.6H214.7a5.85 5.85 0 0 1-4.11-1.71 5.8 5.8 0 0 1-1.71-4.12V111.17a5.81 5.81 0 0 1 1.71-4.11 5.82 5.82 0 0 1 4.1-1.7h94.83a5.81 5.81 0 0 1 4.11 1.71 5.83 5.83 0 0 1 1.71 4.1zm-3.56 131.27V111.17a2.24 2.24 0 0 0-.66-1.6 2.23 2.23 0 0 0-1.6-.66H214.7a2.24 2.24 0 0 0-1.6.66 2.24 2.24 0 0 0-.66 1.6v131.27a2.29 2.29 0 0 0 .67 1.61 2.27 2.27 0 0 0 1.6.67h94.83a2.3 2.3 0 0 0 1.54-.6l.06-.07a2.25 2.25 0 0 0 .66-1.61z"></path><path class="cls-10" d="M61.28 105.35h46.19a3.93 3.93 0 0 1 3.93 3.93v70.59a3.94 3.94 0 0 1-3.93 3.94H61.28a4 4 0 0 1-2.78-1.16 3.91 3.91 0 0 1-1.15-2.78v-70.59a3.93 3.93 0 0 1 3.93-3.93zm46.19 3.59H61.28a.34.34 0 0 0-.34.34v70.59a.33.33 0 0 0 .1.24.32.32 0 0 0 .24.11h46.19a.38.38 0 0 0 .35-.35v-70.59a.32.32 0 0 0-.11-.24.33.33 0 0 0-.24-.1z"></path><path class="cls-36" d="M64.61 220.34v22.78h30.72v-22.78zm2.48 2.66a.66.66 0 0 1 .7-.6.65.65 0 0 1 .7.6v17.15a.65.65 0 0 1-.7.59.66.66 0 0 1-.7-.59V223zm3.48 0a.65.65 0 0 1 .7-.6.66.66 0 0 1 .7.6v17.15a.66.66 0 0 1-.7.59.65.65 0 0 1-.7-.59V223zm3.43 0a.65.65 0 0 1 .7-.6.66.66 0 0 1 .7.6v17.15a.66.66 0 0 1-.7.59.65.65 0 0 1-.7-.59V223zm3.47 0a.66.66 0 0 1 .7-.6.65.65 0 0 1 .7.6v17.15a.65.65 0 0 1-.7.59.66.66 0 0 1-.7-.59V223zm3.53 0a.66.66 0 0 1 .7-.6.65.65 0 0 1 .7.6v17.15a.65.65 0 0 1-.7.59.66.66 0 0 1-.7-.59V223zm3.48 0a.65.65 0 0 1 .7-.6.66.66 0 0 1 .7.6v17.15a.66.66 0 0 1-.7.59.65.65 0 0 1-.7-.59V223zm3.47 0a.65.65 0 0 1 .7-.6.66.66 0 0 1 .7.6v17.15a.66.66 0 0 1-.7.59.65.65 0 0 1-.7-.59V223zm3.47 0a.66.66 0 0 1 .7-.6.65.65 0 0 1 .7.6v17.15a.65.65 0 0 1-.7.59.66.66 0 0 1-.7-.59z"></path><path class="cls-37" d="M70.69 194.71h3.77v24.36h-3.77z"></path><path class="cls-38" d="M78.18 196.68v20.41a.7.7 0 0 0 .7.7.7.7 0 0 0 .7-.7v-20.41a.7.7 0 0 0-.7-.7.7.7 0 0 0-.7.7zM81.65 196.68v20.41a.7.7 0 0 0 .7.7.7.7 0 0 0 .7-.7v-20.41a.7.7 0 0 0-.7-.7.7.7 0 0 0-.7.7zM85.12 196.68v20.41a.7.7 0 0 0 .7.7.7.7 0 0 0 .7-.7v-20.41a.7.7 0 0 0-.7-.7.7.7 0 0 0-.7.7zM88.59 196.68v20.41a.7.7 0 0 0 .7.7.7.7 0 0 0 .7-.7v-20.41a.7.7 0 0 0-.7-.7.7.7 0 0 0-.7.7z"></path><rect class="cls-37" x="92.07" y="195.98" width="1.4" height="21.81" rx=".7"></rect><path class="cls-38" d="M95.54 196.68v20.41a.7.7 0 0 0 .7.7.7.7 0 0 0 .7-.7v-20.41a.7.7 0 0 0-.7-.7.7.7 0 0 0-.7.7z"></path><rect class="cls-37" x="99.01" y="195.98" width="1.4" height="21.81" rx=".7"></rect><rect class="cls-37" x="102.48" y="195.98" width="1.4" height="21.81" rx=".7"></rect><path class="cls-39" d="M128.94 240.69a.39.39 0 0 0 .42.35.38.38 0 0 0 .41-.35v-18.61a.38.38 0 0 0-.41-.35.39.39 0 0 0-.42.35v18.61zm0-21.76a.39.39 0 0 0 .42.35.38.38 0 0 0 .41-.35v-2.14a.38.38 0 0 0-.41-.35.39.39 0 0 0-.42.35v2.14zm-4.07 21.76a.42.42 0 0 0 .83 0v-12a.42.42 0 0 0-.83 0v12zm0-13.65a.42.42 0 0 0 .83 0v-10.25a.42.42 0 0 0-.83 0V227zm-4.07 13.65a.42.42 0 0 0 .83 0v-4.31a.42.42 0 0 0-.83 0v4.31zm0-7.22a.42.42 0 0 0 .83 0v-10.74a.42.42 0 0 0-.83 0v10.74zm0-12.41a.42.42 0 0 0 .83 0v-4.27a.42.42 0 0 0-.83 0v4.27zm-4.07-4.15a.42.42 0 0 0 .83 0v-12.56a.42.42 0 0 0-.83 0v12.56zm0-15.78a.42.42 0 0 0 .83 0v-5.26a.42.42 0 0 0-.83 0v5.26zm-4.07 15.78a.42.42 0 0 0 .83 0v-4.08a.42.42 0 0 0-.83 0v4.08zm0-5.14a.42.42 0 0 0 .83 0v-10.89a.42.42 0 0 0-.83 0v10.89zm0-12.93a.42.42 0 0 0 .83 0v-3a.42.42 0 0 0-.83 0v3zm-4.07 18.07a.42.42 0 0 0 .83 0v-9.28a.42.42 0 0 0-.83 0v9.28zm0-10.89a.42.42 0 0 0 .83 0v-10.15a.42.42 0 0 0-.83 0z"></path><path class="cls-38" d="M129.36 213.14v-16.81a1 1 0 0 0-1.1-.93h-4.87a1 1 0 0 0-1.1.93v16.81a1 1 0 0 0 1.1.93h4.87a1 1 0 0 0 1.1-.93zM100.86 224.59v14.3a2 2 0 0 0 2.12 1.8h12a2 2 0 0 0 2.12-1.8v-14.3a2 2 0 0 0-2.1-1.79h-12a2 2 0 0 0-2.14 1.79z"></path><path fill="#e49997" d="M134.06 194.71h5.55v24.36h-5.55z"></path><path class="cls-36" d="M143.33 196.68v20.41a.7.7 0 0 0 .7.7.7.7 0 0 0 .7-.7v-20.41a.7.7 0 0 0-.7-.7.7.7 0 0 0-.7.7zM146.8 196.68v20.41a.7.7 0 0 0 .7.7.7.7 0 0 0 .71-.7v-20.41a.7.7 0 0 0-.71-.7.7.7 0 0 0-.7.7zM150.28 196.68v20.41a.7.7 0 0 0 .7.7.7.7 0 0 0 .7-.7v-20.41a.7.7 0 0 0-.7-.7.7.7 0 0 0-.7.7z"></path><path class="cls-38" d="M153.75 196.68v20.41a.7.7 0 0 0 .7.7.7.7 0 0 0 .7-.7v-20.41a.7.7 0 0 0-.7-.7.7.7 0 0 0-.7.7zM157.22 196.68v20.41a.7.7 0 0 0 .7.7.7.7 0 0 0 .7-.7v-20.41a.7.7 0 0 0-.7-.7.7.7 0 0 0-.7.7zM160.69 196.68v20.41a.7.7 0 0 0 .7.7.7.7 0 0 0 .71-.7v-20.41a.7.7 0 0 0-.71-.7.7.7 0 0 0-.7.7z"></path><rect class="cls-37" x="164.17" y="195.98" width="1.4" height="21.81" rx=".7"></rect><rect class="cls-37" x="167.64" y="195.98" width="1.4" height="21.81" rx=".7"></rect><path class="cls-36" d="M194.1 240.69a.42.42 0 0 0 .83 0v-18.61a.42.42 0 0 0-.83 0v18.61zm0-21.76a.42.42 0 0 0 .83 0v-2.14a.42.42 0 0 0-.83 0v2.14zm-4.1 21.76a.38.38 0 0 0 .41.35.39.39 0 0 0 .42-.35v-12a.39.39 0 0 0-.42-.35.38.38 0 0 0-.41.35v12zm0-13.69a.38.38 0 0 0 .41.35.39.39 0 0 0 .42-.35v-10.21a.39.39 0 0 0-.42-.35.38.38 0 0 0-.41.35V227zm-4 13.69a.38.38 0 0 0 .41.35.39.39 0 0 0 .42-.35v-4.31a.39.39 0 0 0-.42-.35.38.38 0 0 0-.41.35v4.31zm0-7.22a.38.38 0 0 0 .41.35.39.39 0 0 0 .42-.35v-10.74a.39.39 0 0 0-.42-.35.38.38 0 0 0-.41.35v10.74zm0-12.41a.38.38 0 0 0 .41.35.39.39 0 0 0 .42-.35v-4.27a.39.39 0 0 0-.42-.35.38.38 0 0 0-.41.35v4.27zm-4.07-4.15a.38.38 0 0 0 .41.35.39.39 0 0 0 .42-.35v-12.56a.39.39 0 0 0-.42-.35.38.38 0 0 0-.41.35v12.56zm0-15.78a.38.38 0 0 0 .41.35.39.39 0 0 0 .42-.35v-5.26a.39.39 0 0 0-.42-.36.38.38 0 0 0-.41.36v5.26zm-4.07 15.78a.38.38 0 0 0 .41.35.39.39 0 0 0 .42-.35v-4.08a.39.39 0 0 0-.42-.35.38.38 0 0 0-.41.35v4.08zm0-5.14a.38.38 0 0 0 .41.36.39.39 0 0 0 .42-.36v-10.89a.39.39 0 0 0-.42-.35.38.38 0 0 0-.41.35v10.89zm0-12.93a.38.38 0 0 0 .41.35.39.39 0 0 0 .42-.35v-3a.39.39 0 0 0-.42-.36.38.38 0 0 0-.41.36v3zm-4.07 18.07a.38.38 0 0 0 .41.35.39.39 0 0 0 .42-.35v-9.28a.39.39 0 0 0-.42-.35.38.38 0 0 0-.41.35v9.28zm0-10.89a.38.38 0 0 0 .41.35.39.39 0 0 0 .42-.35v-10.15a.39.39 0 0 0-.42-.36.38.38 0 0 0-.41.36z"></path><path class="cls-39" d="M194.51 213.14v-16.81a1 1 0 0 0-1.09-.93h-4.88a1 1 0 0 0-1.09.93v16.81a1 1 0 0 0 1.09.93h4.88a1 1 0 0 0 1.09-.93z"></path><path class="cls-36" d="M166 224.59v14.3a2 2 0 0 0 2.12 1.8h12.05a2 2 0 0 0 2.11-1.8v-14.3a2 2 0 0 0-2.11-1.79h-12.03a2 2 0 0 0-2.14 1.79z"></path><path class="cls-38" d="M135 224.59v14.3a1.29 1.29 0 0 0 .49 1 1.94 1.94 0 0 0 1.25.44h24.77a1.94 1.94 0 0 0 1.25-.44 1.29 1.29 0 0 0 .49-1v-14.3a1.3 1.3 0 0 0-.49-1 1.94 1.94 0 0 0-1.25-.44h-24.82a1.94 1.94 0 0 0-1.25.44 1.3 1.3 0 0 0-.49 1zm-.75 14.3v-14.3A2 2 0 0 1 135 223a2.66 2.66 0 0 1 1.74-.62h24.77a2.66 2.66 0 0 1 1.74.62 2 2 0 0 1 .75 1.55v14.3a2.07 2.07 0 0 1-.75 1.56 2.71 2.71 0 0 1-1.74.61h-24.82a2.71 2.71 0 0 1-1.74-.61 2.07 2.07 0 0 1-.75-1.52z"></path><path class="cls-39" d="M147.06 236.08v-8.84a.37.37 0 0 1 .23-.35.39.39 0 0 1 .42.07l4.71 4.42a.36.36 0 0 1 .12.28.38.38 0 0 1-.12.28l-4.71 4.42a.41.41 0 0 1-.42.07.38.38 0 0 1-.23-.35z"></path><path d="M253.86 219.6c6.52-3.47 8.17 4.07 5.64 10.31s-15.5 27.21-16.21 35.54c-.26 3.22-.86 2.87-1.38.61-2.57-11.28 2.99-41.7 11.95-46.46z" fill="#304b3f" fill-rule="evenodd"></path><path d="M240.07 191c-7.47-6.73-12.14 2.68-10.85 11.76s11.55 41.11 9.7 52.33c-.71 4.35.2 4.08 1.63 1.26 7.11-14.04 9.8-56.08-.48-65.35z" fill="#4e8b70" fill-rule="evenodd"></path><path d="M238.77 258.23c.16.42.51.21 1-.48 7.78-25.94-4.34-64.68-4.38-64.81a.4.4 0 0 0-.51-.26.39.39 0 0 0-.26.5c.02.13 12.32 39.4 4.15 65.05z" fill="#416d5a" fill-rule="evenodd"></path><path d="M223.76 212.56c-7.24-3.15-8.38 5-5.16 11.47s18.84 27.74 20.26 36.56c.54 3.42 1.16 3 1.52.54 1.8-12.25-6.66-44.23-16.62-48.57z" fill="#a0c16b" fill-rule="evenodd"></path><path d="M239.52 263c.22.27.43 0 .61-.6-.65-21.26-19.33-47.1-19.39-47.18a.31.31 0 0 0-.44-.08.33.33 0 0 0-.08.45c.06.03 19 26.22 19.3 47.41z" fill="#5d915c" fill-rule="evenodd"></path><path class="cls-4" d="M233.95 258.25h13.9l3.63 3.27-2.96 11.43h-15.24l-2.96-11.43 3.63-3.27z"></path><rect class="cls-21" x="229.17" y="253.99" width="23.47" height="7.53" rx="1.15"></rect><path fill="#c8c3d0" fill-rule="evenodd" d="M251.48 261.52l-.61 2.35h-19.94l-.61-2.35h21.16z"></path><path d="M17.12 144.4h29.25a2.77 2.77 0 0 1 1.75.63.89.89 0 0 1 .34.27.94.94 0 0 1 .12.22 2.7 2.7 0 0 1 .55 1.64v17.19a2.75 2.75 0 0 1-.81 2 2.76 2.76 0 0 1-2 .82h-29.2a2.78 2.78 0 0 1-2.76-2.77v-17.24a2.71 2.71 0 0 1 .55-1.65.5.5 0 0 1 .12-.21.89.89 0 0 1 .34-.27 2.73 2.73 0 0 1 1.75-.63zm29.62 21l-11.59-8.86-2.89 2.21-.07.05h-.87l-.08-.05-2.89-2.21-11.59 8.86a1.22 1.22 0 0 0 .38.07h29.23a1.11 1.11 0 0 0 .37-.07zm-10.55-9.65l11.26 8.61v-17.24l-11.26 8.6zM16 164.33l11.27-8.61-11.27-8.6v17.21zM31.74 157l14.32-10.93H17.43z" fill="#b1bede" fill-rule="evenodd"></path><path class="cls-48" d="M343.13 136.51h-36.67A6.47 6.47 0 0 0 300 143v31.93a1.38 1.38 0 0 0 .85 1.29 1.38 1.38 0 0 0 1.51-.3l9.52-9.52h31.24a6.49 6.49 0 0 0 6.47-6.47V143a6.49 6.49 0 0 0-6.47-6.47zM306.46 138h36.67a5 5 0 0 1 5 5v16.93a5 5 0 0 1-5 5h-31.87l-9.76 9.76V143a5 5 0 0 1 5-5z"></path><path class="cls-48" d="M343.43 142.82a.41.41 0 1 0 0-.82h-37.27a.41.41 0 1 0 0 .82zM343.43 146.85a.41.41 0 1 0 0-.82h-3.94a.41.41 0 1 0 0 .82zm-9.2 0a.41.41 0 0 0 0-.82h-28.07a.41.41 0 1 0 0 .82zM343.43 150.88a.42.42 0 1 0 0-.83h-37.27a.42.42 0 1 0 0 .83zM333.07 156.34a.41.41 0 0 0 .41-.41.41.41 0 0 0-.41-.42h-26.91a.42.42 0 0 0-.42.42.41.41 0 0 0 .42.41zM321.05 160.71a.42.42 0 0 0 0-.83h-14.89a.42.42 0 1 0 0 .83zM329.59 160.71a.42.42 0 0 0 0-.83h-5.33a.42.42 0 0 0 0 .83z"></path><path class="cls-36" d="M217 78.17a2.75 2.75 0 0 1 2.75 2.76 2.7 2.7 0 0 1-.8 1.94 2.75 2.75 0 0 1-4.7-1.94 2.79 2.79 0 0 1 .8-2 2.75 2.75 0 0 1 1.95-.81zm5.19-8.17H194a3.14 3.14 0 0 0-2.23.92 3.19 3.19 0 0 0-.93 2.23v25.92L197 93a.55.55 0 0 1 .4-.16h24.82a3.18 3.18 0 0 0 3.16-3.16V73.19a3.19 3.19 0 0 0-.93-2.23 3.14 3.14 0 0 0-2.23-.92zM194 68.92a4.3 4.3 0 0 0-3 1.25 4.22 4.22 0 0 0-1.26 3v26.25a1 1 0 0 0 .17.54.93.93 0 0 0 .44.36 1 1 0 0 0 .56.05.93.93 0 0 0 .5-.26l6.17-6.18h24.59a4.27 4.27 0 0 0 4.27-4.27V73.19a4.26 4.26 0 0 0-1.25-3 4.3 4.3 0 0 0-3-1.25zm5.19 9.25a2.71 2.71 0 0 1 1.94.81 2.75 2.75 0 0 1 .81 2 2.77 2.77 0 0 1-2.75 2.75 2.75 2.75 0 0 1-1.95-.81 2.71 2.71 0 0 1-.81-1.94 2.77 2.77 0 0 1 2.76-2.76zm1.15 1.6a1.63 1.63 0 0 1 .48 1.16 1.64 1.64 0 0 1-1.63 1.63 1.64 1.64 0 0 1-1.64-1.63 1.64 1.64 0 0 1 1.64-1.64 1.63 1.63 0 0 1 1.15.48zm7.73-1.6a2.77 2.77 0 0 1 2.76 2.76 2.71 2.71 0 0 1-.81 1.94 2.74 2.74 0 0 1-3.89 0 2.71 2.71 0 0 1-.81-1.94 2.77 2.77 0 0 1 2.75-2.76zm1.16 1.6a1.63 1.63 0 0 1 .48 1.16 1.59 1.59 0 0 1-.48 1.15 1.63 1.63 0 0 1-2.31 0 1.59 1.59 0 0 1-.48-1.15 1.63 1.63 0 0 1 .48-1.16 1.63 1.63 0 0 1 2.31 0zm8.89 0a1.68 1.68 0 0 0-1.16-.48 1.64 1.64 0 0 0-1.63 1.64 1.64 1.64 0 0 0 1.67 1.63 1.64 1.64 0 0 0 1.64-1.63 1.68 1.68 0 0 0-.48-1.16z"></path><path class="cls-49" d="M524.38 189.22a12.89 12.89 0 0 1 9.14-3.79 12.89 12.89 0 0 1 9.14 3.79 12.91 12.91 0 0 1 0 18.28 12.94 12.94 0 0 1-22.07-9.14 13 13 0 0 1 1-5 12.84 12.84 0 0 1 2.8-4.19zm4.65-1.71a11.82 11.82 0 0 0-6.35 6.36A11.74 11.74 0 0 0 538 209.2a11.8 11.8 0 0 0 6.36-6.36 11.87 11.87 0 0 0 0-9 11.8 11.8 0 0 0-6.36-6.36 11.89 11.89 0 0 0-9 0zm-1.42-9.51a20.59 20.59 0 0 0-2.39.85 22 22 0 0 0-2.28 1.14 20.7 20.7 0 0 0-2.16 1.43 22.66 22.66 0 0 0-2 1.68 1.36 1.36 0 0 1-1.62.2c-1.89-1.1-3.89-2.18-5.75-3.32a.71.71 0 0 0-.28-.09 1.15 1.15 0 0 0-.32 0 1.11 1.11 0 0 0-.29.14 1.21 1.21 0 0 0-.21.24c-1.38 2.1-2.77 4.8-4 7a.71.71 0 0 0-.1.3.74.74 0 0 0 0 .33 1.11 1.11 0 0 0 .14.29 1.21 1.21 0 0 0 .24.21c1.71 1.13 3.91 2.26 5.72 3.3a1.35 1.35 0 0 1 .57.64 1.4 1.4 0 0 1 .09.29h.11l-.13.54c-.1.42-.19.84-.27 1.25s-.14.84-.19 1.28-.09.86-.12 1.29 0 .84 0 1.3v1.29c0 .41.07.86.12 1.29s.12.87.19 1.28.17.83.27 1.25a1.37 1.37 0 0 1-.08.9 1.35 1.35 0 0 1-.62.63l-5.06 2.93-.6.34a1.21 1.21 0 0 0-.24.21 1.11 1.11 0 0 0-.14.29.74.74 0 0 0 0 .33.71.71 0 0 0 .1.3l3.75 6.5.3.53a1.21 1.21 0 0 0 .21.24 1.11 1.11 0 0 0 .29.14.74.74 0 0 0 .33 0 .63.63 0 0 0 .29-.1c1.82-1.14 3.87-2.23 5.74-3.31a1.37 1.37 0 0 1 .83-.17 1.36 1.36 0 0 1 .78.37 21 21 0 0 0 2 1.68 20.7 20.7 0 0 0 2.16 1.43 19.73 19.73 0 0 0 2.3 1.15 21.67 21.67 0 0 0 2.42.86 1.32 1.32 0 0 1 1 1.3v6.61a.78.78 0 0 0 .06.31.83.83 0 0 0 .45.45.78.78 0 0 0 .31.06h8.11a.81.81 0 0 0 .31-.06 1 1 0 0 0 .27-.18 1 1 0 0 0 .17-.27.78.78 0 0 0 .07-.31V220a1.35 1.35 0 0 1 1-1.32 21.4 21.4 0 0 0 4.67-2 20.7 20.7 0 0 0 2.16-1.43 19.71 19.71 0 0 0 2-1.68 1.4 1.4 0 0 1 .82-.37 1.36 1.36 0 0 1 .87.22l5.66 3.26a.63.63 0 0 0 .3.1.7.7 0 0 0 .32 0 .87.87 0 0 0 .29-.14.79.79 0 0 0 .21-.24l4.06-7a.88.88 0 0 0 .1-.3 1.22 1.22 0 0 0 0-.33.89.89 0 0 0-.15-.29.93.93 0 0 0-.23-.21l-5.72-3.3a1.31 1.31 0 0 1-.57-.64.83.83 0 0 1-.08-.22h-.15l.15-.61c.11-.41.2-.83.27-1.25s.15-.83.2-1.28.09-.86.12-1.28 0-.85 0-1.3v-1.3c0-.41-.07-.86-.12-1.29s-.12-.87-.2-1.28-.16-.83-.27-1.25a1.38 1.38 0 0 1 .09-.9 1.43 1.43 0 0 1 .61-.63l5.67-3.27a.77.77 0 0 0 .23-.21.73.73 0 0 0 .15-.29 1.22 1.22 0 0 0 0-.33.88.88 0 0 0-.1-.3c-1.39-2.05-2.77-4.8-4.06-7a.79.79 0 0 0-.21-.24.87.87 0 0 0-.29-.14.88.88 0 0 0-.32 0 .82.82 0 0 0-.3.1l-5.73 3.31a1.38 1.38 0 0 1-.86.17 1.34 1.34 0 0 1-.77-.38 22.28 22.28 0 0 0-2-1.68 22.83 22.83 0 0 0-2.15-1.42 23.49 23.49 0 0 0-2.3-1.15 19.36 19.36 0 0 0-2.43-.85 1.35 1.35 0 0 1-1-1.31v-6.61a.82.82 0 0 0-.07-.31.88.88 0 0 0-.44-.44.82.82 0 0 0-.31-.07h-8.11a.78.78 0 0 0-.31.07 1 1 0 0 0-.27.17.83.83 0 0 0-.24.58v6.61a1.35 1.35 0 0 1-1 1.32zm-2.86-.25a22.6 22.6 0 0 0-2.41 1.21 20.93 20.93 0 0 0-2.28 1.51 21.85 21.85 0 0 0-2.08 1.77.1.1 0 0 1-.09 0 .12.12 0 0 1-.1 0c-1.92-1.11-3.85-2.21-5.77-3.33a1.94 1.94 0 0 0-.73-.23 2.05 2.05 0 0 0-1.46.41 1.86 1.86 0 0 0-.52.59c-1.4 2.25-2.72 4.7-4.06 7a2.29 2.29 0 0 0-.25.75 2.09 2.09 0 0 0 .06.79 1.78 1.78 0 0 0 .35.7 1.81 1.81 0 0 0 .58.52c1.84 1.14 3.84 2.22 5.73 3.31a.11.11 0 0 1 .06.07.12.12 0 0 1 0 .1l-.13.54c-.06.26-.11.52-.16.79q-.13.69-.21 1.35c-.05.44-.09.89-.12 1.36s0 .92 0 1.37v1.36c0 .46.07.92.12 1.36s.12.89.21 1.35.18.9.28 1.33a.11.11 0 0 1 0 .1s0 .07-.07.08c-2.1 1.12-4.24 2.44-6.32 3.65l.08.09-.07.08a1.87 1.87 0 0 0-.34.71 2 2 0 0 0-.06.78 2.1 2.1 0 0 0 .26.75l4.35 7.54h.08l.14.12a1.87 1.87 0 0 0 .71.34 1.95 1.95 0 0 0 1.5-.18c1.91-1 3.87-2.24 5.75-3.32a.18.18 0 0 1 .1 0 .19.19 0 0 1 .09 0 22 22 0 0 0 2.08 1.78 20.86 20.86 0 0 0 2.28 1.5 21.21 21.21 0 0 0 2.43 1.22 22.35 22.35 0 0 0 2.57.91l.08.05a.19.19 0 0 1 0 .1v6.61a2 2 0 0 0 .16.77 2.07 2.07 0 0 0 1.09 1.09 2 2 0 0 0 .77.16h8.11a2 2 0 0 0 1.42-.6 1.83 1.83 0 0 0 .44-.65 2 2 0 0 0 .15-.77V220a.18.18 0 0 1 0-.1.19.19 0 0 1 .09-.05 23.31 23.31 0 0 0 2.55-.91 21.85 21.85 0 0 0 2.42-1.21 23 23 0 0 0 2.28-1.5 23.39 23.39 0 0 0 2.07-1.78.21.21 0 0 1 .1 0 .12.12 0 0 1 .1 0l5.72 3.31a2.29 2.29 0 0 0 .75.25 2 2 0 0 0 .78-.06 1.94 1.94 0 0 0 .71-.34 2.2 2.2 0 0 0 .51-.58c1.5-2.41 2.92-5.06 4.35-7.54l-.07-.05v-.19a1.91 1.91 0 0 0 0-.79 2.09 2.09 0 0 0-.35-.7 1.86 1.86 0 0 0-.59-.52l-5.72-3.3a.27.27 0 0 1-.07-.08.17.17 0 0 1 0-.1l.14-.61c.05-.23.09-.47.14-.72.08-.45.15-.91.21-1.35s.09-.89.12-1.36 0-.92 0-1.36v-1.37c0-.46-.07-.92-.12-1.36s-.13-.89-.21-1.35-.18-.9-.29-1.33a.18.18 0 0 1 0-.1.18.18 0 0 1 .07-.08l5.72-3.3a2.09 2.09 0 0 0 .93-1.22 1.9 1.9 0 0 0 0-.79 2 2 0 0 0-.24-.73c-1.36-2.52-2.92-5.06-4.37-7.56l-.08.05-.13-.11a2 2 0 0 0-.71-.35 1.86 1.86 0 0 0-.78 0 2.06 2.06 0 0 0-.75.24l-.42.25-5.31 3.06a.12.12 0 0 1-.1 0 .15.15 0 0 1-.09 0 22.07 22.07 0 0 0-2.08-1.77 21.07 21.07 0 0 0-2.26-1.5 23.13 23.13 0 0 0-2.44-1.22 25.08 25.08 0 0 0-2.56-.91s-.06 0-.08-.05a.14.14 0 0 1 0-.1v-6.61a2 2 0 0 0-.15-.77 1.92 1.92 0 0 0-.44-.65 2 2 0 0 0-.65-.44 2 2 0 0 0-.77-.15h-8.11a2 2 0 0 0-.77.15 2 2 0 0 0-.66.44 2 2 0 0 0-.59 1.42v6.61a.17.17 0 0 1 0 .1.15.15 0 0 1-.09.06 21.35 21.35 0 0 0-2.51.83zM464.49 229.78zm2.85-10.86a5.48 5.48 0 0 1 9.36 3.88 5.49 5.49 0 0 1-11 0 5.43 5.43 0 0 1 1.61-3.88zm1.18-5.44a10 10 0 0 0-2.15.91 9.72 9.72 0 0 0-1.88 1.43.35.35 0 0 1-.41 0l-2.55-1.47a.62.62 0 0 0-.46 0 .63.63 0 0 0-.39.29l-1.79 3.11a.58.58 0 0 0-.06.48.61.61 0 0 0 .29.38l2.52 1.46a.32.32 0 0 1 .16.37 11.27 11.27 0 0 0-.21 1.16 10.07 10.07 0 0 0 0 2.37 11.27 11.27 0 0 0 .21 1.16.34.34 0 0 1-.17.38L459.1 227a.64.64 0 0 0-.29.38.58.58 0 0 0 .06.48l1.8 3.13a.63.63 0 0 0 .39.29.6.6 0 0 0 .47-.06l2.54-1.46a.33.33 0 0 1 .4.05 10.09 10.09 0 0 0 1.88 1.42 9.7 9.7 0 0 0 2.17.92.33.33 0 0 1 .24.32v2.94a.62.62 0 0 0 .19.45.63.63 0 0 0 .44.18H473a.62.62 0 0 0 .63-.63v-2.94a.34.34 0 0 1 .26-.33 9.52 9.52 0 0 0 2.15-.91 10.16 10.16 0 0 0 1.89-1.42.33.33 0 0 1 .42 0l2.53 1.46a.62.62 0 0 0 .48.06.59.59 0 0 0 .38-.29l1.79-3.11a.67.67 0 0 0 .06-.48.64.64 0 0 0-.29-.38l-2.55-1.47a.35.35 0 0 1-.16-.37 7.63 7.63 0 0 0 .21-1.16 8.82 8.82 0 0 0 0-2.37 7.63 7.63 0 0 0-.21-1.16.34.34 0 0 1 .18-.38l2.53-1.46a.59.59 0 0 0 .29-.38.67.67 0 0 0-.06-.48l-1.8-3.11a.59.59 0 0 0-.38-.29.67.67 0 0 0-.48.06l-2.55 1.47a.33.33 0 0 1-.41-.05 9.38 9.38 0 0 0-1.88-1.42 9.62 9.62 0 0 0-2.16-.92.33.33 0 0 1-.25-.32v-2.94a.62.62 0 0 0-.63-.63h-3.61a.63.63 0 0 0-.44.18.62.62 0 0 0-.19.45v2.94a.34.34 0 0 1-.23.22z"></path><path class="cls-36" d="M506.52 127.3V89.73a1.64 1.64 0 0 1 2.75-1.19l20 18.79a1.61 1.61 0 0 1 0 2.37l-20 18.78a1.58 1.58 0 0 1-1.76.31 1.6 1.6 0 0 1-.99-1.49z"></path><path class="cls-36" d="M514 141.64a33.12 33.12 0 1 0-23.42-9.7 33 33 0 0 0 23.42 9.7zm25.56-7.57a36.15 36.15 0 1 1 10.58-25.56 36 36 0 0 1-10.55 25.56z"></path><path class="cls-49" d="M454.84 173.25a.94.94 0 1 0-1.88 0v2.21h-2.21a.94.94 0 0 0 0 1.88H453v2.21a.94.94 0 0 0 1.88 0v-2.21h2.21a.94.94 0 1 0 0-1.88h-2.21zM411.27 92.89a.94.94 0 1 0-1.88 0v2.21h-2.22a.95.95 0 0 0 0 1.89h2.22v2.21a.94.94 0 1 0 1.88 0V97h2.21a.95.95 0 1 0 0-1.89h-2.21zM566.84 153.63a.94.94 0 1 0-1.88 0v2.21h-2.21a.94.94 0 1 0 0 1.88H565v2.22a.94.94 0 1 0 1.88 0v-2.22h2.22a.94.94 0 0 0 0-1.88h-2.22zM340.94 346.5a.94.94 0 0 0-1.88 0v2.21h-2.21a.95.95 0 0 0 0 1.89h2.21v2.21a.94.94 0 0 0 1.88 0v-2.21h2.22a.95.95 0 0 0 0-1.89h-2.22zM415.53 390.19a.94.94 0 0 0-1.88 0v2.21h-2.21a.94.94 0 0 0 0 1.88h2.21v2.22a.94.94 0 1 0 1.88 0v-2.22h2.21a.94.94 0 1 0 0-1.88h-2.21zM148.07 334.78a.94.94 0 0 0-1.88 0V337H144a.94.94 0 1 0 0 1.88h2.21v2.22a.94.94 0 0 0 1.88 0v-2.22h2.22a.94.94 0 1 0 0-1.88h-2.22zM126.76 80.11a.94.94 0 1 0-1.88 0v2.21h-2.21a.94.94 0 1 0 0 1.88h2.21v2.21a.94.94 0 0 0 1.88 0V84.2H129a.94.94 0 1 0 0-1.88h-2.21zM295.12 81.17a.94.94 0 1 0-1.88 0v2.21H291a.95.95 0 0 0 0 1.89h2.21v2.21a.94.94 0 1 0 1.88 0v-2.21h2.22a.95.95 0 0 0 0-1.89h-2.22zM349.47 198.38a.95.95 0 0 0-1.89 0v2.22h-2.21a.94.94 0 0 0 0 1.88h2.21v2.21a.95.95 0 0 0 1.89 0v-2.21h2.21a.94.94 0 0 0 0-1.88h-2.21zM468.56 43.5a.94.94 0 0 0-1.88 0v2.22h-2.21a.94.94 0 1 0 0 1.88h2.21v2.21a.94.94 0 0 0 1.88 0V47.6h2.22a.94.94 0 0 0 0-1.88h-2.22z"></path><path class="cls-4" d="M25.28 116.5a.94.94 0 0 0-1.88 0v2.21h-2.21a.95.95 0 0 0 0 1.89h2.21v2.21a.94.94 0 0 0 1.88 0v-2.21h2.22a.95.95 0 0 0 0-1.89h-2.22zM21 219.86a.94.94 0 0 0-1.88 0v2.22h-2.19a.94.94 0 1 0 0 1.88h2.21v2.21a.94.94 0 0 0 1.88 0V224h2.21a.94.94 0 1 0 0-1.88H21zM160.61 304a.94.94 0 1 0-1.88 0v2.22h-2.21a.94.94 0 1 0 0 1.88h2.21v2.21a.94.94 0 0 0 1.88 0v-2.21h2.21a.94.94 0 0 0 0-1.88h-2.21zM5 349.86a.95.95 0 0 0-1.89 0v2.22H.94a.94.94 0 0 0 0 1.88h2.21v2.21a.95.95 0 0 0 1.89 0V354h2.21a.94.94 0 0 0 0-1.88H5zM375.86 101.58a.94.94 0 1 0-1.88 0v2.22h-2.22a.94.94 0 1 0 0 1.88H374v2.21a.94.94 0 1 0 1.88 0v-2.21h2.21a.94.94 0 0 0 0-1.88h-2.21zM375.86 215.6a.94.94 0 1 0-1.88 0v2.21h-2.22a.95.95 0 0 0 0 1.89H374v2.21a.94.94 0 1 0 1.88 0v-2.21h2.21a.95.95 0 0 0 0-1.89h-2.21zM245.86 81.34a.95.95 0 0 0-1.89 0v2.21h-2.21a.94.94 0 1 0 0 1.88H244v2.22a.95.95 0 0 0 1.89 0v-2.22h2.21a.94.94 0 1 0 0-1.88h-2.21z"></path><path class="cls-14" d="M185.67 133.93a14 14 0 0 0-2.13-2.91c-.36-.22.89-1.5 1.79-.23 0 0 .94.75 1.17.53s-.2-4-.27-4.45.53-.66.71-.57.19.71.37 1.55a6 6 0 0 0 .38 1.43c.26.18.46-3.14.76-3.44s1-.06 1.05.37-.38 3.22-.32 3.6.22.11.33-.13.94-3.12 1.12-3.29.92 0 .88.49-.8 3.33-.73 3.54.2.14.58-.31 1.11-1.36 1.4-1.37.53.42.23.94-1 1.87-1.08 2.08a30.23 30.23 0 0 1-.92 3.06 2.23 2.23 0 0 1-.7.77c-1.81 1.27-3.74.18-4.62-1.66z"></path><path class="cls-27" d="M191.09 134.62l-.1.2a2.23 2.23 0 0 1-.63.71l-.07.06a2.71 2.71 0 0 1-3.39-.09 4.4 4.4 0 0 1-1.23-1.57v-.06a4 4 0 0 0 5.42.75z"></path><path class="cls-14" d="M136.25 134.73a14 14 0 0 1 2.13-2.91c.35-.22-.9-1.5-1.79-.23 0 0-.94.75-1.17.53s.2-4 .27-4.45-.53-.66-.71-.57-.19.71-.38 1.55a5.7 5.7 0 0 1-.37 1.43c-.27.18-.46-3.15-.76-3.44s-1-.07-1.05.37.38 3.22.32 3.59-.22.12-.33-.12-.95-3.12-1.12-3.3-.92 0-.88.5.79 3.33.73 3.54-.21.14-.58-.31-1.12-1.36-1.4-1.37-.53.41-.23.94 1 1.87 1.08 2.08a30.23 30.23 0 0 0 .92 3.06 2.12 2.12 0 0 0 .7.76c1.81 1.28 3.74.19 4.62-1.65z"></path><path class="cls-27" d="M130.83 135.42a1.24 1.24 0 0 0 .1.2 2.23 2.23 0 0 0 .63.71.18.18 0 0 0 .07 0 2.71 2.71 0 0 0 3.39-.08 4.4 4.4 0 0 0 1.23-1.57v-.06a4 4 0 0 1-5.42.8z"></path><path class="cls-15" d="M124.31 265.83c5.92 1.76 7 .16 8.95 3.51l1.92 3.36-12.78-2.08z"></path><rect x="188.68" y="314.01" width="70.57" height="72.21" rx="2.4" fill="#575d7d"></rect><rect class="cls-21" x="175.08" y="314.01" width="28.6" height="72.21" rx="2.4"></rect><rect class="cls-23" x="220.09" y="321.35" width="33.13" height="33.32" rx="8.59"></rect><rect x="221.21" y="322.47" width="30.9" height="31.08" rx="8.01" fill="#757990"></rect><path class="cls-35" d="M249.55 351.4a8 8 0 0 1-5.45 2.15h-14.89a8 8 0 0 1-8-8v-11.9h6.89v-8.45h16.41v17.9h5zM213.37 360.64h1a.89.89 0 0 1-1.59 0 4.08 4.08 0 0 1 .61 0zm1.7 0h1.61a.89.89 0 0 1-.8.51.9.9 0 0 1-.81-.51zm2.34 0H219a.88.88 0 0 1-1.6 0zm2.33 0h1.61a.9.9 0 0 1-.81.51.89.89 0 0 1-.8-.51zm2.33 0h1a4.17 4.17 0 0 1 .61 0 .89.89 0 0 1-1.59 0zm2.48.22a5.66 5.66 0 0 1 .72.28h-.07a.88.88 0 0 1-.65-.29zm2.19 1.32a5.17 5.17 0 0 1 .93 1.29h-.14a.89.89 0 0 1-.89-.89.8.8 0 0 1 .1-.41zm1.22 1.95a5 5 0 0 1 .28 1.33.89.89 0 1 1-.71-1.44.86.86 0 0 1 .43.11zm.29 2.59v1a.9.9 0 1 1 0-1zm0 2.33v1.05a.86.86 0 0 1-.72.37.89.89 0 1 1 0-1.78.88.88 0 0 1 .72.36zm0 2.33v1.05a.86.86 0 0 1-.72.37.89.89 0 0 1 0-1.78.88.88 0 0 1 .72.36zm0 2.33v1.06a.88.88 0 0 1-.72.36.89.89 0 0 1 0-1.78.88.88 0 0 1 .72.36zm0 2.31a4.84 4.84 0 0 1-.28 1.33.86.86 0 0 1-.43.11.89.89 0 1 1 .71-1.44zm-.57 2a5.12 5.12 0 0 1-.93 1.28.77.77 0 0 1-.1-.4.89.89 0 0 1 .89-.89zm-2.4 2.32a4.48 4.48 0 0 1-.72.28.91.91 0 0 1 .65-.28zm-1.61.47H222.06a.89.89 0 0 1 1.59 0zm-2.31 0h-1.61a.89.89 0 0 1 .8-.51.9.9 0 0 1 .81.51zm-2.34 0h-1.6a.88.88 0 0 1 1.6 0zm-2.33 0h-1.61a.9.9 0 0 1 .81-.51.89.89 0 0 1 .8.51zm-2.33 0h-1a6 6 0 0 1-.61 0 .89.89 0 0 1 1.59 0zm-2.48-.23a4.48 4.48 0 0 1-.72-.28h.07a.91.91 0 0 1 .65.28zm-2.19-1.32a5 5 0 0 1-.93-1.28h.14a.89.89 0 0 1 .89.89.88.88 0 0 1-.1.4zm-1.22-1.95a4.84 4.84 0 0 1-.28-1.33.89.89 0 1 1 .71 1.44.86.86 0 0 1-.43-.11zm-.3-2.58v-1.06a.91.91 0 0 1 .73-.36.89.89 0 1 1 0 1.78.91.91 0 0 1-.73-.36zm0-2.34v-1.05a.91.91 0 0 1 .73-.36.89.89 0 1 1-.73 1.41zm0-2.33v-1.05a.91.91 0 0 1 .73-.36.89.89 0 1 1 0 1.78.9.9 0 0 1-.73-.37zm0-2.33v-1a.92.92 0 0 1 .73-.37.9.9 0 0 1 0 1.79.92.92 0 0 1-.73-.37zm0-2.31a5 5 0 0 1 .28-1.33.86.86 0 0 1 .43-.11.9.9 0 1 1-.71 1.44zm.57-2a5.17 5.17 0 0 1 .93-1.29.92.92 0 0 1 .1.41.89.89 0 0 1-.89.89zm2.4-2.33a5.66 5.66 0 0 1 .72-.28.88.88 0 0 1-.65.29zm14 18.65a.89.89 0 1 0-.89-.89.89.89 0 0 0 .89.89zm-2.33 0a.89.89 0 1 0-.89-.89.89.89 0 0 0 .89.89zm-2.33 0a.89.89 0 1 0-.89-.89.89.89 0 0 0 .89.89zm-2.33 0a.89.89 0 1 0-.89-.89.89.89 0 0 0 .89.89zm-2.33 0a.89.89 0 1 0-.89-.89.89.89 0 0 0 .89.89zm-2.33 0a.89.89 0 1 0-.89-.89.89.89 0 0 0 .89.89zm-2.33 0a.89.89 0 1 0-.9-.89.89.89 0 0 0 .9.89zm14-4.11a.89.89 0 1 1-.89.89.89.89 0 0 1 .89-.89zm-2.33 0a.89.89 0 1 1-.89.89.89.89 0 0 1 .89-.89zm-2.33 0a.89.89 0 1 1-.89.89.89.89 0 0 1 .89-.89zm-2.33 0a.89.89 0 1 1-.89.89.89.89 0 0 1 .89-.89zm-2.33 0a.89.89 0 1 1-.89.89.89.89 0 0 1 .89-.89zm-2.33 0a.89.89 0 1 1-.89.89.89.89 0 0 1 .89-.89zm-2.33 0a.89.89 0 1 1-.9.89.89.89 0 0 1 .9-.89zm14-.55a.89.89 0 1 0-.89-.89.89.89 0 0 0 .89.89zm-2.33 0a.89.89 0 1 0-.89-.89.89.89 0 0 0 .89.89zm-2.33 0a.89.89 0 1 0-.89-.89.89.89 0 0 0 .89.89zm-2.33 0a.89.89 0 1 0-.89-.89.89.89 0 0 0 .89.89zm-2.33 0a.89.89 0 1 0-.89-.89.89.89 0 0 0 .89.89zm-2.33 0a.89.89 0 1 0-.89-.89.89.89 0 0 0 .89.89zm-2.33 0a.89.89 0 1 0-.9-.89.89.89 0 0 0 .9.89zm14-4.11a.89.89 0 1 1-.89.89.89.89 0 0 1 .89-.89zm-2.33 0a.89.89 0 1 1-.89.89.89.89 0 0 1 .89-.89zm-2.33 0a.89.89 0 1 1-.89.89.89.89 0 0 1 .89-.89zm-2.33 0a.89.89 0 1 1-.89.89.89.89 0 0 1 .89-.89zm-2.33 0a.89.89 0 1 1-.89.89.89.89 0 0 1 .89-.89zm-2.33 0a.89.89 0 1 1-.89.89.89.89 0 0 1 .89-.89zm-2.33 0a.89.89 0 1 1-.9.89.89.89 0 0 1 .9-.89zm14-.55a.89.89 0 1 0-.89-.89.89.89 0 0 0 .89.89zm-2.33 0a.89.89 0 1 0-.89-.89.89.89 0 0 0 .89.89zm-2.33 0a.89.89 0 1 0-.89-.89.89.89 0 0 0 .89.89zm-2.33 0a.89.89 0 1 0-.89-.89.89.89 0 0 0 .89.89zm-2.33 0a.89.89 0 1 0-.89-.89.89.89 0 0 0 .89.89zm-2.33 0a.89.89 0 1 0-.89-.89.89.89 0 0 0 .89.89zm-2.33 0a.89.89 0 1 0-.9-.89.89.89 0 0 0 .9.89zm14-4.12a.9.9 0 1 1-.89.9.9.9 0 0 1 .89-.9zm-2.33 0a.9.9 0 1 1-.89.9.89.89 0 0 1 .89-.9zm-2.33 0a.9.9 0 1 1-.89.9.89.89 0 0 1 .89-.9zm-2.33 0a.9.9 0 1 1-.89.9.89.89 0 0 1 .89-.9zm-2.33 0a.9.9 0 1 1-.89.9.89.89 0 0 1 .89-.9zm-2.33 0a.9.9 0 1 1-.89.9.89.89 0 0 1 .89-.9zm-2.33 0a.9.9 0 1 1-.9.9.89.89 0 0 1 .9-.9zm14-.54a.9.9 0 1 0-.89-.89.89.89 0 0 0 .89.89zm-2.33 0a.9.9 0 1 0-.89-.89.89.89 0 0 0 .89.89zm-2.33 0a.9.9 0 1 0-.89-.89.89.89 0 0 0 .89.89zm-2.33 0a.9.9 0 1 0-.89-.89.89.89 0 0 0 .89.89zm-2.33 0a.9.9 0 1 0-.89-.89.89.89 0 0 0 .89.89zm-2.33 0a.9.9 0 1 0-.89-.89.89.89 0 0 0 .89.89zm-2.33 0a.9.9 0 1 0-.9-.89.89.89 0 0 0 .9.89zm14-4.12a.9.9 0 1 1-.89.9.9.9 0 0 1 .89-.9zm-2.33 0a.9.9 0 1 1-.89.9.89.89 0 0 1 .89-.9zm-2.33 0a.9.9 0 1 1-.89.9.89.89 0 0 1 .89-.9zm-2.33 0a.9.9 0 1 1-.89.9.89.89 0 0 1 .89-.9zm-2.33 0a.9.9 0 1 1-.89.9.89.89 0 0 1 .89-.9zm-2.33 0a.9.9 0 1 1-.89.9.89.89 0 0 1 .89-.9zm-2.33 0a.9.9 0 1 1-.9.9.89.89 0 0 1 .82-.85zM233.53 379.56H255a.64.64 0 0 1 .64.64.65.65 0 0 1-.64.65h-21.47a.65.65 0 0 1-.64-.65.64.64 0 0 1 .64-.64zM233.53 376.86H255a.64.64 0 0 1 .64.64.64.64 0 0 1-.64.64h-21.47a.64.64 0 0 1-.64-.64.64.64 0 0 1 .64-.64zM233.53 374.15H255a.65.65 0 0 1 .64.65.64.64 0 0 1-.64.64h-21.47a.64.64 0 0 1-.64-.64.65.65 0 0 1 .64-.65zM233.53 371.45h17.82a.65.65 0 0 1 .65.64.65.65 0 0 1-.65.65h-17.82a.65.65 0 0 1-.64-.65.64.64 0 0 1 .64-.64zM233.53 368.75H255a.64.64 0 0 1 .64.64.65.65 0 0 1-.64.65h-21.47a.65.65 0 0 1-.64-.65.64.64 0 0 1 .64-.64zM233.53 366.05H255a.64.64 0 0 1 .64.64.64.64 0 0 1-.64.64h-21.47a.64.64 0 0 1-.64-.64.64.64 0 0 1 .64-.64zM237.52 363.34H255a.65.65 0 0 1 .64.65.64.64 0 0 1-.64.64h-17.48a.65.65 0 0 1-.65-.64.65.65 0 0 1 .65-.65zM233.53 360.64H255a.64.64 0 0 1 .64.64.65.65 0 0 1-.64.65h-21.47a.65.65 0 0 1-.64-.65.64.64 0 0 1 .64-.64zM254.05 371.45h.95a.64.64 0 0 1 .64.64.65.65 0 0 1-.64.65h-.94a.65.65 0 0 1-.65-.65.65.65 0 0 1 .64-.64zM233.53 363.34h1.53a.65.65 0 0 1 .64.65.64.64 0 0 1-.64.64h-1.53a.64.64 0 0 1-.64-.64.65.65 0 0 1 .64-.65z"></path><path d="M241.28 322.47h2.82a8 8 0 0 1 6 2.71l-26.27 26.27a8 8 0 0 1-2.61-5.91v-3l20.07-20.08zm10.25 5l-25.43 25.45a7.89 7.89 0 0 0 3.11.63h.85l22.05-22v-1a8 8 0 0 0-.58-3.06z" fill="#adb3c3" fill-rule="evenodd"></path><path class="cls-35" d="M182.45 322.11h13.86a2.07 2.07 0 0 1 2.06 2.07 2.07 2.07 0 0 1-2.06 2.06h-13.86a2.07 2.07 0 0 1-2.06-2.06 2.07 2.07 0 0 1 2.06-2.07z"></path><path class="cls-53" d="M183.08 322.78h.44a1.4 1.4 0 0 1 1.4 1.4 1.4 1.4 0 0 1-1.4 1.4h-.44a1.4 1.4 0 0 1-1.39-1.4 1.4 1.4 0 0 1 1.39-1.4z"></path><path class="cls-54" d="M188.46 322.78h.43a1.4 1.4 0 0 1 1.4 1.4 1.4 1.4 0 0 1-1.4 1.4h-.43a1.4 1.4 0 0 1-1.4-1.4 1.4 1.4 0 0 1 1.4-1.4z"></path><path class="cls-29" d="M194.15 322.78h.44a1.4 1.4 0 0 1 1.39 1.4 1.4 1.4 0 0 1-1.39 1.4h-.44a1.4 1.4 0 0 1-1.4-1.4 1.4 1.4 0 0 1 1.4-1.4z"></path><rect class="cls-19" x="179.15" y="351.55" width="20.45" height="31.83" rx="3.33"></rect><path class="cls-22" d="M181.19 329.84h16.38a.8.8 0 0 1 .8.8.8.8 0 0 1-.8.8h-16.38a.8.8 0 0 1-.8-.8.8.8 0 0 1 .8-.8zM181.19 333.83h16.38a.8.8 0 0 1 .8.8.8.8 0 0 1-.8.8h-16.38a.8.8 0 0 1-.8-.8.8.8 0 0 1 .8-.8zM181.19 337.83h16.38a.8.8 0 0 1 .8.8.8.8 0 0 1-.8.8h-16.38a.8.8 0 0 1-.8-.8.8.8 0 0 1 .8-.8z"></path><path class="cls-53" d="M183.08 346.49h.44a1.4 1.4 0 0 1 1.4 1.4 1.4 1.4 0 0 1-1.4 1.39h-.44a1.39 1.39 0 0 1-1.39-1.39 1.4 1.4 0 0 1 1.39-1.4z"></path><path class="cls-54" d="M188.46 346.49h.43a1.4 1.4 0 0 1 1.4 1.4 1.4 1.4 0 0 1-1.4 1.39h-.43a1.4 1.4 0 0 1-1.4-1.39 1.4 1.4 0 0 1 1.4-1.4z"></path><path class="cls-29" d="M194.15 346.49h.44a1.4 1.4 0 0 1 1.39 1.4 1.39 1.39 0 0 1-1.39 1.39h-.44a1.4 1.4 0 0 1-1.4-1.39 1.4 1.4 0 0 1 1.4-1.4z"></path><path class="cls-53" d="M183.08 341.29h.44a1.4 1.4 0 0 1 1.4 1.4 1.4 1.4 0 0 1-1.4 1.4h-.44a1.4 1.4 0 0 1-1.39-1.4 1.4 1.4 0 0 1 1.39-1.4z"></path><path class="cls-54" d="M188.46 341.29h.43a1.4 1.4 0 0 1 1.4 1.4 1.4 1.4 0 0 1-1.4 1.4h-.43a1.4 1.4 0 0 1-1.4-1.4 1.4 1.4 0 0 1 1.4-1.4z"></path><path class="cls-29" d="M194.15 341.29h.44a1.4 1.4 0 0 1 1.39 1.4 1.4 1.4 0 0 1-1.39 1.4h-.44a1.4 1.4 0 0 1-1.4-1.4 1.4 1.4 0 0 1 1.4-1.4z"></path><path class="cls-10" d="M323 394h-11a3.88 3.88 0 0 1-3.87-3.87 3.88 3.88 0 0 1 3.87-3.86h11a3.88 3.88 0 0 1 3.87 3.86A3.89 3.89 0 0 1 323 394z"></path><path class="cls-36" d="M95.38 282.96l7.69 105.38h-3.41L89.33 287.92H31.46L21.13 388.34h-3.41l7.69-105.38h69.97z"></path><path fill="#9eafd4" d="M26.37 293.56H93.6v4.59H26.37z"></path><path class="cls-4" d="M286.63 282.96l7.69 105.38h-3.41l-10.33-100.42h-57.87l-10.32 100.42h-3.42l7.69-105.38h69.97z"></path><path class="cls-21" d="M217.62 293.56h67.23v4.59h-67.23z"></path><path class="cls-25" d="M202.77 234.92L177 205.52a.47.47 0 0 0-.65-.05l-1.54 1.35a.47.47 0 0 0 0 .66l25.79 29.4a.47.47 0 0 0 .66 0l1.54-1.35a.46.46 0 0 0 0-.65zm-26.19-28.44l25.18 28.7-.83.73-25.18-28.69z"></path><path class="cls-10" d="M176.86 204.69a2.6 2.6 0 1 0 2.25 2.9 2.59 2.59 0 0 0-2.25-2.9z"></path><path class="cls-25" d="M202.79 235.06l-18.14 34.65a.47.47 0 0 1-.63.19l-1.81-.94a.47.47 0 0 1-.2-.63l18.14-34.65a.47.47 0 0 1 .63-.2l1.81 1a.46.46 0 0 1 .2.63zM184 268.86L201.75 235l-1-.52-17.7 33.83z"></path><path class="cls-10" d="M184.73 270.54a2.6 2.6 0 1 1 1.5-3.35 2.59 2.59 0 0 1-1.5 3.35zM201.31 232.55a2.6 2.6 0 1 0 2.25 2.91 2.6 2.6 0 0 0-2.25-2.91z"></path><path class="cls-25" d="M185.38 277.78H152a4.85 4.85 0 0 1-4.84-4.83 4.86 4.86 0 0 1 4.84-4.84h33.35a4.86 4.86 0 0 1 4.84 4.84 4.85 4.85 0 0 1-4.81 4.83z"></path><path class="cls-10" d="M207.56 277.78H174.2a4.85 4.85 0 0 1-4.83-4.83 4.85 4.85 0 0 1 4.83-4.84h33.36a4.85 4.85 0 0 1 4.83 4.84 4.84 4.84 0 0 1-4.83 4.83zM153.57 207.07l13.81 21.29a.66.66 0 0 0 .64.31.65.65 0 0 0 .56-.43l8-20.29a.68.68 0 0 0-.6-.93l-21.78-1a.67.67 0 0 0-.62.35.66.66 0 0 0-.01.7z"></path><path class="cls-4" d="M168.95 227.3l1.17-2.97-11.74-18.11-3.19-.15 13.76 21.23z"></path><path class="cls-10" d="M174.32 204.7l-5.68 3.69a3.4 3.4 0 0 0-1 4.68 3.39 3.39 0 0 0 4.69 1l5.68-3.68a3.41 3.41 0 0 0 1-4.69 3.41 3.41 0 0 0-4.69-1z"></path><path class="cls-10" d="M177 207a1.08 1.08 0 0 0 1.18 1.82A1.08 1.08 0 1 0 177 207z"></path><path class="cls-13" d="M60.85 309.42s25-.23 28.07 0S95 313 94.47 318 87 362.14 87 362.14a2.91 2.91 0 0 1-1 .46c-.54.11-5 .85-5 .85l-.31-3.63 2.62-38.06-23-4.21z"></path><path d="M45.38 293.91s66.77 7.71 70.42 8.5 6.72 5.13 5.34 11.06S104.79 367 104.79 367a3.63 3.63 0 0 1-1.29.39c-.66.05-6.12.25-6.12.25l-2.15-2.2 12-42.47-48.83-2.49c-13.68-2.21-15.54-18.87-13.02-26.57z" fill="#272a37" fill-rule="evenodd"></path><path class="cls-25" d="M158.35 270.2h-58a2.75 2.75 0 0 0-2.73 2.8 2.74 2.74 0 0 0 2.74 2.74h58a2.74 2.74 0 0 0 2.74-2.74 2.75 2.75 0 0 0-2.75-2.8z"></path><path class="cls-13" d="M168.42 270.2h-29.67A2.75 2.75 0 0 0 136 273a2.74 2.74 0 0 0 2.74 2.74h29.67a2.75 2.75 0 0 0 2.75-2.74 2.76 2.76 0 0 0-2.74-2.8z"></path><path class="cls-10" d="M286.16 274h-260c-2.08 0-3.79 1.35-3.79 3v5.51c0 1.65 1.71 3 3.79 3h260c2.09 0 3.79-1.34 3.79-3V277c.05-1.61-1.7-3-3.79-3z"></path><rect x="18.43" y="272.95" width="202.98" height="6.81" rx="1.02" fill="#ce8552"></rect><path d="M121.39 273H19.45a1 1 0 0 0-1 1v4.77a1 1 0 0 0 1 1h95.31a38.1 38.1 0 0 1 6.63-6.77z" fill="#ae6947" fill-rule="evenodd"></path><path d="M55.53 241.67s-3.74 5.93-4.1 9 10.83 13.47 13.54 17-.73 4.69-1.76 4.47-19.54-14.8-20.71-16.92-.3-9.37 3.73-16.11 9.3 2.56 9.3 2.56z" fill="#8b6955" fill-rule="evenodd"></path><path d="M55.34 248.86s5 14.54 5.42 16.83-5.49 26.8-6.34 32a.69.69 0 0 0 .43.74 108.61 108.61 0 0 1 17.85-.65c9.36.49 14.38 4.06 21.34.87 0 0 .59-.16.33-1.47s-5.32-24.61-5.17-31.15c.06-2.64 0-7-.13-11.39-.16-6.44 3.85-14.89 3.89-16.06.06-2-4.65-11.12-17.59-17.67s-22.69 11.65-20.03 27.95z" fill="#4c8483" fill-rule="evenodd"></path><path class="cls-14" d="M86.79 188.25l1.7 5s-2.15 13.75-3.95 16.29-3.46 3.61-6.7 2.94-3.08-5.8-3.31-7.3 2.03-15.27 12.26-16.93z"></path><path class="cls-15" d="M87.91 191.58l.58 1.71s-.29 1.85-.75 4.31c-2.39.78-9.45 4.94-9.95 8.62a9.57 9.57 0 0 0 1.06 6.42c-.32 0-.66-.09-1-.16-3.24-.68-3.08-5.8-3.31-7.3a19 19 0 0 1 1.34-6.33 4.08 4.08 0 0 1 1.15-.38c3.73-.6 7.33-6.1 7.43-6.89s.67-.52.67-.52a4.15 4.15 0 0 0 2.78.52z"></path><path class="cls-29" d="M72.83 227.33c7 12.07 21 33.71 24 36.34a16.52 16.52 0 0 0 3.84 2.69 44.4 44.4 0 0 0 6.34 2.3c5.43 1.68 16.9 3.14 18.26 2.94s1.75-4.58 1.24-5.37-17.09-9-21-11.1-11.62-18.16-14.68-24c-7.83-14.82-25.06-15.86-18-3.8z"></path><path d="M85.75 194.81c7.83.23 7.09-14.08 2.19-17.66-3.09-2.26-12.31 1.33-16.75 1.41s-17.19.92-16.28 21.24-9.48 25.88-12.34 38.06 28.89 23.33 34.91-1.35c0 0 .45-8.43 6.17-11.59s2.37-6-.9-10.08-5.87-6.09-5.12-11.66 6.17-2.67 8.24-9.05z" fill="#131518" fill-rule="evenodd"></path><path class="cls-10" d="M85.75 194.81c4.36.13 6.06-4.26 5.87-8.79-1.36 1.58-3.82 3.59-6.66 2 0 0-.57-.29-.67.51s-3.7 6.29-7.43 6.89-7.82 7.49-4.65 16.49-2.54 21.34-12.13 22c-6.38.44-11.58-.77-14.23-4.33a33.52 33.52 0 0 0-3.28 8.26c-2.86 12.19 28.89 23.33 34.91-1.35 0 0 .45-8.43 6.17-11.59s2.37-6-.9-10.08-5.87-6.09-5.12-11.66 6.17-2.67 8.24-9.05z"></path><rect x="219.6" y="272.95" width="74.07" height="6.81" rx="1.02" fill="#ae6947"></rect><path class="cls-54" d="M80.63 359.82a1.22 1.22 0 0 0-.75.81 39.11 39.11 0 0 0-.66 5.61c0 .62 1.58 1.81 4.22 2.93s12.67 4.05 12.67 4.05l.11-.36a1.35 1.35 0 0 0 .67-.82 3.81 3.81 0 0 0-.42-2.77c-.55-.78-3.8-3-4.39-3.48s-3.52-4.56-3.76-4.83a3.14 3.14 0 0 0-3.62-.24c-1.84 1.03-3.91.66-4.07-.9z"></path><path class="cls-4" d="M96.22 372.86s-10-3.67-12.2-4.45a20.19 20.19 0 0 1-4.78-2.85.85.85 0 0 0-.43.45c-.08.29-.13 1.32-.16 1.53a1.75 1.75 0 0 0 1.15 1.66c1.09.47 15.08 5.39 15.72 5.6s.9-1.48.9-1.48.04-.32-.2-.46zM68.51 304.06a2.24 2.24 0 1 1 0-4.48h19.75a9.85 9.85 0 0 0 9.58-7.69 38.37 38.37 0 0 1 4.11 2 14.33 14.33 0 0 1-13.69 10.18z"></path><path class="cls-63" d="M62.72 321.81h5.67v46.69h-5.67z"></path><path class="cls-24" d="M70.39 306.12h5.53v12.64h-5.53zM32.17 306.12h5.53v12.64h-5.53z"></path><path class="cls-23" d="M62.72 320.7h5.67a3.29 3.29 0 0 1 3.29 3.3v6.07a3.29 3.29 0 0 1-3.29 3.29h-5.67a3.29 3.29 0 0 1-3.29-3.29V324a3.28 3.28 0 0 1 3.29-3.3z"></path><rect class="cls-63" x="57.26" y="319.72" width="16.59" height="9.52" rx=".94"></rect><rect x="59.92" y="316.1" width="52.34" height="9.88" rx="3.16" fill="#e18e44"></rect><rect x="26.45" y="316.1" width="52.34" height="9.88" rx="3.16" fill="#f1be44"></rect><rect class="cls-23" x="59.43" y="365.45" width="12.24" height="12.64" rx="3.29"></rect><rect class="cls-63" x="57.26" y="371.47" width="16.59" height="13.74" rx="1.36"></rect><path d="M50.49 381.85a4.09 4.09 0 0 0 4.08 4.07h22a4.08 4.08 0 0 0 4.07-4.07 4.09 4.09 0 0 0-4.07-4.08h-22a4.1 4.1 0 0 0-4.08 4.08z" fill="#717083" fill-rule="evenodd"></path><path class="cls-25" d="M29.11 385.92a4.09 4.09 0 0 0 4.08 4.08H89a4.09 4.09 0 0 0 4.08-4.07 4.09 4.09 0 0 0-4.08-4.08H33.19a4.09 4.09 0 0 0-4.08 4.07z"></path><path class="cls-10" d="M64.07 385.92a4.09 4.09 0 0 0 4.08 4.08h29.77a4.08 4.08 0 0 0 4.07-4.07 4.08 4.08 0 0 0-4.07-4.07H68.15a4.09 4.09 0 0 0-4.08 4.06z"></path><path class="cls-4" d="M76.81 289.05a2.24 2.24 0 0 0 0 4.48h19.75a9.85 9.85 0 0 1 9.81 9.81v17.8a2.24 2.24 0 0 0 4.48 0v-17.8a14.34 14.34 0 0 0-14.29-14.29z"></path><path d="M33 265.19a24.61 24.61 0 0 1 24.54-24.54h3.26a24.61 24.61 0 0 1 24.54 24.54v36.5A6.33 6.33 0 0 1 79 308H39.27a6.33 6.33 0 0 1-6.3-6.31z" fill="#e18e44" fill-rule="evenodd"></path><path class="cls-53" d="M26.45 265.19A24.61 24.61 0 0 1 51 240.65h3.26a24.61 24.61 0 0 1 24.54 24.54v36.5a6.33 6.33 0 0 1-6.32 6.31H32.76a6.33 6.33 0 0 1-6.31-6.31z"></path><path class="cls-30" d="M95.76 363.72a1.93 1.93 0 0 0-1.4.72 38.2 38.2 0 0 0-2.57 6.4c-.1.74 2 2.61 5.78 4.74s18.64 8.64 18.64 8.64l.27-.4a2 2 0 0 0 1.26-.76 3.61 3.61 0 0 0 .1-3.39c-.64-1.08-5.09-4.69-5.88-5.43s-4.24-6.44-4.54-6.84a6.23 6.23 0 0 0-5.58-1.38c-3.14.64-6.27-.42-6.08-2.3z"></path><path class="cls-4" d="M116.48 383.82s-14.59-7.38-17.8-9A33.69 33.69 0 0 1 92 370s-.6.08-.8.4a17.82 17.82 0 0 0-.66 1.75c-.1.25-.25 1.41 1.33 2.3s22 11 23 11.4 1.8-1.47 1.8-1.47.14-.38-.19-.56z"></path><path class="cls-10" d="M13.26 394h283a3.88 3.88 0 0 0 3.87-3.87 3.88 3.88 0 0 0-3.87-3.86h-283a3.88 3.88 0 0 0-3.87 3.86 3.88 3.88 0 0 0 3.87 3.87z"></path><path class="cls-4" d="M163.47 136.23a2.63 2.63 0 0 1-5.25-.17.44.44 0 0 1 .46-.43l4.33.13a.46.46 0 0 1 .44.47z"></path></g></svg> 