<?xml version="1.0" encoding="UTF-8"?> <svg xmlns="http://www.w3.org/2000/svg" viewBox="0 0 570 440"><defs><style>.cls-3,.cls-4{fill-rule:evenodd}.cls-3{fill:#bfcbe5}.cls-4,.cls-6{fill:#fff}.cls-5{fill:#6bb0d6}.cls-7{fill:#ecf4f5}.cls-8{fill:#dbe2e3}.cls-11,.cls-23,.cls-25,.cls-31,.cls-32,.cls-37,.cls-44,.cls-9{fill:none}.cls-9{stroke:#36475d;stroke-width:2px}.cls-31,.cls-44,.cls-9{stroke-miterlimit:10}.cls-10{fill:#6a90cb}.cls-11,.cls-23{stroke:#777e80}.cls-11,.cls-23,.cls-25,.cls-32,.cls-37{stroke-linecap:round;stroke-linejoin:round}.cls-16{fill:#ebcd5e}.cls-17{fill:#f2dcd5}.cls-18{fill:#6b5f6c;opacity:.2}.cls-18,.cls-33,.cls-52{mix-blend-mode:multiply}.cls-19{fill:#dd9457}.cls-20{fill:#d26351}.cls-23{stroke-dasharray:3 2.5}.cls-24{fill:#547cbd}.cls-25,.cls-32{stroke:#8ccae0}.cls-30{fill:#dce1e6}.cls-31,.cls-37,.cls-44{stroke:#fff}.cls-32,.cls-37{stroke-width:.5px}.cls-33{opacity:.55}.cls-34{fill:#f4deb2}.cls-34,.cls-59,.cls-62{mix-blend-mode:screen}.cls-35{fill:#777e80}.cls-44{stroke-width:.25px}.cls-43{fill:#d99c87}.cls-45{fill:#36475d}.cls-46{fill:#2c3846}.cls-47{fill:#364759}.cls-49{opacity:.5}.cls-50{fill:#3c3c3b}.cls-53{fill:#f6e4c5}.cls-57{fill:#d9724a}.cls-60{fill:#b7d0d8}.cls-61{fill:#cce2eb}.cls-62{fill:#e6af82}.cls-63{fill:#c28470}.cls-64{fill:#d49a82}</style></defs><g style="isolation:isolate"><g id="Слой_7" data-name="Слой 7"><path d="M115.79 297.65h-42a42.76 42.76 0 0 0-42.63 42.62 42.76 42.76 0 0 0 42.62 42.63H488a69.23 69.23 0 0 0 69-69 69.23 69.23 0 0 0-69-69 29.26 29.26 0 0 1-29.18-29.18A29.27 29.27 0 0 1 488 186.48h35.13a30.43 30.43 0 0 0 30.34-30.34 30.43 30.43 0 0 0-30.34-30.34h-44.42A11.85 11.85 0 0 1 466.9 114a11.85 11.85 0 0 1 11.81-11.81h7.83A8.18 8.18 0 0 0 494.7 94a8.17 8.17 0 0 0-8.16-8.15h-51.37c-10.82 0-12 12.78-39.36 12.78h-78.75a10.67 10.67 0 0 0-10.64 10.64 10.67 10.67 0 0 0 10.64 10.64h10.22a15.45 15.45 0 0 1 15.41 15.41 15.45 15.45 0 0 1-15.41 15.41H311.9c-41.51 0-47.38 10.85-54.65 32.43s-45 23.32-45 23.32H110a23.3 23.3 0 0 0-23.23 23.23A23.29 23.29 0 0 0 110 253h5.77a22.41 22.41 0 0 1 22.34 22.34 22.42 22.42 0 0 1-22.34 22.35zm393.63-195.48a8.15 8.15 0 1 1 8.15-8.17 8.15 8.15 0 0 1-8.15 8.17z" fill-rule="evenodd" fill="#e1e7f4"></path><path class="cls-3" d="M36.7 189.42a12.65 12.65 0 0 0-4.09-2.73 12.53 12.53 0 0 0-9.62 0 12.58 12.58 0 0 0 0 23.25 12.53 12.53 0 0 0 9.62 0 12.58 12.58 0 0 0 4.09-20.52zm-4.53-1.66a11.52 11.52 0 0 1 3.7 2.48 11.41 11.41 0 0 1 0 16.15 11.39 11.39 0 0 1-16.14 0 11.41 11.41 0 0 1 0-16.15 11.46 11.46 0 0 1 12.44-2.48zm1.39-9.26a22.14 22.14 0 0 1 2.32.83 21.88 21.88 0 0 1 2.22 1.11 21.2 21.2 0 0 1 2.1 1.39 23.07 23.07 0 0 1 1.92 1.64 1.3 1.3 0 0 0 1.57.19c1.85-1.07 3.79-2.12 5.6-3.23a.72.72 0 0 1 .27-.09.8.8 0 0 1 .31 0 .72.72 0 0 1 .28.13.83.83 0 0 1 .21.24c1.35 2 2.7 4.67 3.94 6.83a.63.63 0 0 1 .1.29.7.7 0 0 1 0 .32.82.82 0 0 1-.14.28.74.74 0 0 1-.23.2c-1.66 1.1-3.8 2.2-5.57 3.22a1.37 1.37 0 0 0-.55.62.9.9 0 0 0-.08.28h-.12l.13.52c.1.41.19.82.26 1.23s.14.81.19 1.24.09.84.12 1.25 0 .83 0 1.26v1.27c0 .4-.07.83-.12 1.25s-.11.85-.19 1.24-.16.82-.26 1.23a1.26 1.26 0 0 0 .08.86 1.25 1.25 0 0 0 .6.62l4.93 2.85.55.43a.79.79 0 0 1 .37.48.7.7 0 0 1 0 .32.63.63 0 0 1-.1.29l-3.64 6.33-.29.51a.83.83 0 0 1-.21.24.72.72 0 0 1-.28.13.85.85 0 0 1-.32 0 .79.79 0 0 1-.28-.1c-1.77-1.11-3.76-2.17-5.58-3.22a1.3 1.3 0 0 0-1.57.19 23.07 23.07 0 0 1-1.92 1.64 21.2 21.2 0 0 1-2.1 1.39 22.28 22.28 0 0 1-2.24 1.12 20.57 20.57 0 0 1-2.36.83 1.26 1.26 0 0 0-.69.48 1.3 1.3 0 0 0-.27.79v6.43a.73.73 0 0 1-.06.3.78.78 0 0 1-.17.26.87.87 0 0 1-.26.18.81.81 0 0 1-.31.06h-7.87a.73.73 0 0 1-.3-.06.78.78 0 0 1-.26-.17.65.65 0 0 1-.17-.27.73.73 0 0 1-.06-.3v-6.43a1.32 1.32 0 0 0-.29-.82 1.26 1.26 0 0 0-.73-.46 21.36 21.36 0 0 1-2.32-.83 22 22 0 0 1-2.23-1.11 22.29 22.29 0 0 1-2.09-1.39 20.22 20.22 0 0 1-1.92-1.64 1.34 1.34 0 0 0-.79-.36 1.28 1.28 0 0 0-.85.21l-5.51 3.18a.77.77 0 0 1-.29.1.89.89 0 0 1-.32 0 .79.79 0 0 1-.28-.13.68.68 0 0 1-.2-.24c-1.31-2.28-2.64-4.55-3.95-6.83a1 1 0 0 1-.1-.29.89.89 0 0 1 0-.32.72.72 0 0 1 .13-.28.74.74 0 0 1 .23-.2l5.57-3.22a1.34 1.34 0 0 0 .56-.62 1.72 1.72 0 0 0 .07-.21h.14l-.14-.59q-.15-.62-.27-1.23c-.07-.39-.13-.81-.18-1.24s-.09-.84-.12-1.25 0-.83 0-1.27v-1.26c0-.4.06-.83.11-1.25s.12-.85.19-1.25.17-.81.27-1.22a1.36 1.36 0 0 0-.09-.87 1.29 1.29 0 0 0-.59-.61l-5.52-3.19a.87.87 0 0 1-.23-.2.72.72 0 0 1-.13-.28.89.89 0 0 1 0-.32 1 1 0 0 1 .1-.29c1.35-2 2.7-4.68 4-6.83a.68.68 0 0 1 .2-.24.79.79 0 0 1 .28-.13.89.89 0 0 1 .32 0 .77.77 0 0 1 .29.1l5.58 3.22a1.29 1.29 0 0 0 .83.16 1.27 1.27 0 0 0 .76-.37 20.84 20.84 0 0 1 1.9-1.62 21.05 21.05 0 0 1 2.09-1.39 21.43 21.43 0 0 1 2.25-1.12 19.92 19.92 0 0 1 2.36-.83 1.32 1.32 0 0 0 .95-1.27v-6.43a.94.94 0 0 1 .05-.3.88.88 0 0 1 .44-.44.73.73 0 0 1 .3-.06h7.89a.81.81 0 0 1 .31.06.87.87 0 0 1 .26.18.79.79 0 0 1 .23.56v6.43a1.37 1.37 0 0 0 .28.82 1.32 1.32 0 0 0 .74.46zm2.77-.24a21.49 21.49 0 0 1 2.35 1.18 19.77 19.77 0 0 1 2.22 1.46 22.2 22.2 0 0 1 2 1.73.18.18 0 0 0 .09 0 .12.12 0 0 0 .1 0l5.62-3.24a1.79 1.79 0 0 1 .7-.22 2 2 0 0 1 .74.05 2 2 0 0 1 .69.34 1.84 1.84 0 0 1 .5.57c1.36 2.2 2.65 4.59 4 6.83a2.18 2.18 0 0 1 .25.73 2 2 0 0 1-.06.77 2 2 0 0 1-.33.68 2 2 0 0 1-.58.51c-1.79 1.11-3.73 2.16-5.57 3.21a.16.16 0 0 0-.05.14.16.16 0 0 0 0 .1l.13.51a20.8 20.8 0 0 1 .36 2.08c.05.43.09.87.12 1.32s0 .9 0 1.33v1.34c0 .46-.07.89-.12 1.32a20.8 20.8 0 0 1-.48 2.6.14.14 0 0 0 0 .11.12.12 0 0 0 .07.07c2 1.09 4.12 2.38 6.15 3.55l-.08.09.07.08a2 2 0 0 1 .33.68 2 2 0 0 1 .06.77 2.06 2.06 0 0 1-.25.72L51.07 217l-.08-.05-.13.11a2 2 0 0 1-.69.34 2.14 2.14 0 0 1-.76.05 2 2 0 0 1-.71-.23c-1.85-1-3.76-2.18-5.6-3.23h-.09a.18.18 0 0 0-.09 0 22.2 22.2 0 0 1-2 1.73 20.59 20.59 0 0 1-2.21 1.46 23.85 23.85 0 0 1-2.37 1.19 21.78 21.78 0 0 1-2.5.88.16.16 0 0 0-.08.06v6.52a2 2 0 0 1-.15.75 2 2 0 0 1-.43.64 2 2 0 0 1-.64.42 1.86 1.86 0 0 1-.75.15h-7.94a1.93 1.93 0 0 1-.75-.15 2 2 0 0 1-.63-.42 2 2 0 0 1-.43-.64 1.86 1.86 0 0 1-.15-.75v-6.43a.17.17 0 0 0 0-.1.19.19 0 0 0-.09-.05 21.35 21.35 0 0 1-2.48-.88 22.58 22.58 0 0 1-2.36-1.18 20.59 20.59 0 0 1-2.21-1.46 22.33 22.33 0 0 1-2-1.73.11.11 0 0 0-.09 0 .12.12 0 0 0-.1 0l-5.65 3.2a1.92 1.92 0 0 1-.72.24 2.21 2.21 0 0 1-.77-.05 2 2 0 0 1-.68-.34 1.8 1.8 0 0 1-.5-.56c-1.46-2.35-2.84-4.93-4.24-7.34l.07-.05v-.18a2.21 2.21 0 0 1 0-.77 2 2 0 0 1 .34-.68A2 2 0 0 1 1 207l5.58-3.22a.14.14 0 0 0 .06-.07.16.16 0 0 0 0-.1L6.5 203c0-.23-.1-.46-.14-.7-.08-.44-.15-.88-.2-1.31s-.09-.87-.12-1.32 0-.9 0-1.34V197c0-.46.07-.89.12-1.32s.12-.87.2-1.31.18-.88.28-1.29a.21.21 0 0 0 0-.11l-.07-.07L1 189.67a2 2 0 0 1-.57-.51 2.07 2.07 0 0 1-.34-.68 2.21 2.21 0 0 1 0-.77 1.93 1.93 0 0 1 .19-.71c1.32-2.45 2.84-4.93 4.25-7.36l.07.05.14-.11a2 2 0 0 1 .68-.34 2.21 2.21 0 0 1 .77-.05 1.86 1.86 0 0 1 .72.24l.41.24 5.17 3a.12.12 0 0 0 .1 0 .18.18 0 0 0 .09 0 20.83 20.83 0 0 1 2-1.72 21.5 21.5 0 0 1 2.2-1.46 20.91 20.91 0 0 1 4.87-2.07.16.16 0 0 0 .08-.06.16.16 0 0 0 0-.09v-6.43A1.9 1.9 0 0 1 22 170a2 2 0 0 1 .43-.64 2 2 0 0 1 .63-.42 1.93 1.93 0 0 1 .75-.15h7.89a1.86 1.86 0 0 1 .75.15 1.95 1.95 0 0 1 1.22 1.81v6.43a.17.17 0 0 0 0 .1l.08.05a21.35 21.35 0 0 1 2.58.93zM101.85 187.88zm-2.78-10.57a5.34 5.34 0 1 0 1.57 3.78 5.35 5.35 0 0 0-1.57-3.78zM97.92 172a10 10 0 0 1 2.09.89 9.27 9.27 0 0 1 1.84 1.39.33.33 0 0 0 .39 0l2.48-1.43a.67.67 0 0 1 .46-.05.62.62 0 0 1 .37.29l1.75 3a.64.64 0 0 1 .06.47.66.66 0 0 1-.29.37l-2.46 1.42a.31.31 0 0 0-.15.36 8.34 8.34 0 0 1 .2 1.13 9.48 9.48 0 0 1 0 2.3 8.34 8.34 0 0 1-.2 1.13.32.32 0 0 0 .17.37l2.46 1.42a.65.65 0 0 1 .29.38.62.62 0 0 1-.06.46l-1.76 3a.62.62 0 0 1-.37.29.64.64 0 0 1-.47-.06l-2.46-1.42a.33.33 0 0 0-.39 0 9.27 9.27 0 0 1-1.84 1.39 9 9 0 0 1-2.11.89.33.33 0 0 0-.23.32v2.86a.65.65 0 0 1-.62.62h-3.53a.65.65 0 0 1-.62-.62v-2.86a.31.31 0 0 0-.25-.32 9 9 0 0 1-2.09-.89 9.27 9.27 0 0 1-1.84-1.39.32.32 0 0 0-.4 0l-2.47 1.42a.64.64 0 0 1-.47.06.62.62 0 0 1-.4-.19l-1.75-3a.62.62 0 0 1-.06-.46.65.65 0 0 1 .29-.38l2.52-1.43a.31.31 0 0 0 .15-.36 8.34 8.34 0 0 1-.2-1.13 9.48 9.48 0 0 1 0-2.3 8.34 8.34 0 0 1 .2-1.13.32.32 0 0 0-.17-.37L83.5 177a.66.66 0 0 1-.29-.37.64.64 0 0 1 .06-.47l1.75-3a.62.62 0 0 1 .37-.29.64.64 0 0 1 .47.06l2.48 1.43a.33.33 0 0 0 .4-.05 9.55 9.55 0 0 1 1.83-1.38 9.16 9.16 0 0 1 2.11-.89.33.33 0 0 0 .23-.32v-2.86a.57.57 0 0 1 .19-.43.57.57 0 0 1 .43-.18h3.51a.57.57 0 0 1 .43.18.57.57 0 0 1 .19.43v2.86a.31.31 0 0 0 .26.28zM3.65 301.81a.92.92 0 1 1 1.83 0V304h2.16a.92.92 0 0 1 0 1.83H5.48V308a.92.92 0 0 1-1.83 0v-2.16H1.5a.92.92 0 1 1 0-1.83h2.15zM132.63 153.88a.92.92 0 0 1 1.83 0V156h2.16a.92.92 0 0 1 0 1.83h-2.16V160a.92.92 0 1 1-1.83 0v-2.15h-2.15a.92.92 0 1 1 0-1.83h2.15zM191 59a.92.92 0 1 1 1.83 0v2.15H195a.92.92 0 1 1 0 1.85h-2.2v2.16a.92.92 0 0 1-1.83 0V63h-2.16a.92.92 0 0 1 0-1.83H191zM318.53 55.1a.92.92 0 1 1 1.83 0v2.15h2.15a.92.92 0 1 1 0 1.83h-2.15v2.16a.92.92 0 0 1-1.83 0v-2.16h-2.15a.92.92 0 1 1 0-1.83h2.15zM19.85 380.23a.92.92 0 1 1 1.83 0v2.15h2.15a.92.92 0 0 1 0 1.84h-2.15v2.15a.92.92 0 0 1-1.83 0v-2.15h-2.16a.92.92 0 0 1 0-1.84h2.16zM454.65 122a.92.92 0 0 1 1.83 0v2.16h2.15a.92.92 0 1 1 0 1.83h-2.15v2.15a.92.92 0 1 1-1.83 0V126h-2.16a.92.92 0 0 1 0-1.83h2.16z"></path><path class="cls-4" d="M471 59a.92.92 0 1 1 1.83 0v2.15H475a.92.92 0 0 1 0 1.85h-2.16v2.16a.92.92 0 0 1-1.83 0V63h-2.15a.92.92 0 1 1 0-1.83H471zM550.32 102a.92.92 0 0 1 1.83 0v2.16h2.16a.92.92 0 0 1 0 1.83h-2.16v2.15a.92.92 0 1 1-1.83 0V106h-2.15a.92.92 0 1 1 0-1.83h2.15zM563.54 357.17a.92.92 0 1 1 1.83 0v2.15h2.16a.92.92 0 0 1 0 1.84h-2.16v2.15a.92.92 0 1 1-1.83 0v-2.15h-2.15a.92.92 0 0 1 0-1.84h2.15zM565.1 248.28a.92.92 0 1 1 1.83 0v2.15h2.15a.92.92 0 1 1 0 1.83h-2.15v2.16a.92.92 0 0 1-1.83 0v-2.16H563a.92.92 0 1 1 0-1.83h2.15z"></path><rect class="cls-5" x="403.76" y="228.61" width="21.65" height="21.65" rx="4.57" transform="rotate(-50.99 414.627 239.432)"></rect><path class="cls-6" d="M412.46 230.48a16.91 16.91 0 0 1 4.21 3.39 3.33 3.33 0 0 1 .3 4 3.57 3.57 0 0 1-3.88 1.73 5.84 5.84 0 0 1-2.61-1.38l-.6-.49-2.53 3.13-2-1.61c2.37-2.92 4.72-5.81 7.11-8.77zm-1.28 5.65a3.64 3.64 0 0 0 1.71 1.15 1.74 1.74 0 0 0 1.93-.83 1.49 1.49 0 0 0-.23-1.9 13.37 13.37 0 0 0-1.27-1.05zM421.4 242l-1.4 1c-.34-.44-.64-.87-1-1.27a1.27 1.27 0 0 0-.59-.41.82.82 0 0 0-.66.1.72.72 0 0 0-.14.64 6.82 6.82 0 0 0 .48 1 8.14 8.14 0 0 1 .56 1.2 2.4 2.4 0 0 1-2.61 3.1 4.53 4.53 0 0 1-2.7-1.45c-.5-.5-.91-1.09-1.4-1.69l1.49-1.13c.53.63 1 1.24 1.54 1.83a.87.87 0 0 0 .51.28.82.82 0 0 0 .61-.14.8.8 0 0 0 .16-.65 3.26 3.26 0 0 0-.37-.78 10 10 0 0 1-.65-1.36 2.31 2.31 0 0 1 2.39-3.08 4.91 4.91 0 0 1 3.78 2.81z"></path><path class="cls-7" d="M431.64 174h-86.91c-13.11 0-13.27-16.26-1.64-19.53a22.8 22.8 0 0 1 20.46 4.33s3.16-40 33.08-35.27c23.59 3.7 22.22 29.39 22.22 29.39s4.85-10.57 17.57-6.57c13.28 4.19 11.84 27.65-4.78 27.65z"></path><ellipse class="cls-8" cx="276.77" cy="297.67" rx="112.3" ry="14.44"></ellipse><ellipse class="cls-8" cx="388.96" cy="305.86" rx="82.41" ry="17.97"></ellipse><path class="cls-7" d="M174.42 236.94H98.28c-11.49 0-11.63-13.05-1.44-15.68a21.25 21.25 0 0 1 17.93 3.48s2.76-32.09 29-28.33c20.66 3 19.46 23.6 19.46 23.6s4.25-8.49 15.4-5.27c11.61 3.35 10.37 22.2-4.21 22.2zM191.6 102.87h61.3c9.24 0 9.36-10.51 1.15-12.62a17.08 17.08 0 0 0-14.43 2.8s-2.22-25.84-23.32-22.8c-16.64 2.39-15.67 19-15.67 19s-3.42-6.83-12.4-4.24c-9.36 2.68-8.34 17.86 3.37 17.86z"></path><path class="cls-8" d="M202.56 292.51c0 2.85-16.41 5.16-36.66 5.16s-36.65-2.31-36.65-5.16 16.41-5.15 36.65-5.15 36.66 2.31 36.66 5.15z"></path><path class="cls-9" d="M143.12 292.89l11.55-120.78M189.15 292.89L177.6 172.11M153.75 181.74h24.77M152.36 196.24h27.55M150.98 210.73h30.31M149.59 225.23h33.09M148.2 239.73h35.81M146.82 254.22h38.59M145.43 268.72h41.39M144.05 283.21h43.71"></path><path class="cls-10" d="M179.1 172.84h-25.93a1.5 1.5 0 0 1-1.5-1.5 1.5 1.5 0 0 1 1.5-1.5h25.93a1.5 1.5 0 0 1 1.5 1.5 1.5 1.5 0 0 1-1.5 1.5z"></path><path class="cls-11" d="M267.03 291.42v1.5"></path><path d="M267 295.35v3.47a13.29 13.29 0 0 1-13.3 13.29H231a7.94 7.94 0 0 1-7.94-7.94v-8.69" stroke-dasharray="2.91 2.43" stroke-linecap="round" stroke-linejoin="round" stroke="#777e80" fill="none"></path><path class="cls-11" d="M223.09 294.27v-1.5M187.68 294.24v1.5"></path><path d="M187.68 298.27v10.8a15.49 15.49 0 0 0 15.49 15.49h49.09a23 23 0 0 0 23-23v-17.82" stroke-dasharray="3.04 2.53" stroke-linecap="round" stroke-linejoin="round" stroke="#777e80" fill="none"></path><path class="cls-11" d="M275.27 282.47v-1.5M199.7 294.24v1.5"></path><path d="M199.7 298.18v10.89a15.49 15.49 0 0 0 15.49 15.49h17.29" stroke-dasharray="2.93 2.44" stroke-linecap="round" stroke-linejoin="round" stroke="#777e80" fill="none"></path><path class="cls-11" d="M233.7 324.56h1.5M211.29 294.24v1.5"></path><path d="M211.29 298.25v10.82a15.49 15.49 0 0 0 15.49 15.49h18.79" stroke-dasharray="3.01 2.51" stroke-linecap="round" stroke-linejoin="round" stroke="#777e80" fill="none"></path><path class="cls-11" d="M246.83 324.56h1.5"></path><path class="cls-16" d="M191.91 247.45v52.61l-8.46.01-.18-52.6 8.64-.02z"></path><path class="cls-17" d="M187.49 236.03l.86 1.22 3.56 10.2-8.64.02 3.39-10.26.83-1.18z"></path><path class="cls-16" d="M187.49 236.03l.86 1.22-.46.28-.4-.32-.44.44-.39-.44.83-1.18z"></path><path class="cls-17" d="M183.27 247.47l1.24.93.88-.94-2.12.01z"></path><path class="cls-17" d="M185.39 247.46l1.24.93.87-.93h-2.11zM187.5 247.46l1.24.93.88-.93h-2.12zM189.62 247.46l1.23.93 1.06-.94-2.29.01z"></path><path class="cls-18" d="M187.49 236.02l.86 1.23 3.56 10.2v52.6l-2.74.01-.18-52.61-2.73-9.02.4-1.22.83-1.19z"></path><path class="cls-16" d="M183.45 299.49h8.47v1.56h-8.47z"></path><path class="cls-19" d="M203.77 247.45v52.61l-8.46.01-.18-52.6 8.64-.02z"></path><path class="cls-17" d="M199.35 236.03l.86 1.22 3.56 10.2-8.63.02 3.38-10.26.83-1.18z"></path><path class="cls-19" d="M199.35 236.03l.86 1.22-.45.28-.41-.32-.44.44-.39-.44.83-1.18z"></path><path class="cls-17" d="M195.14 247.47l1.24.93.87-.94-2.11.01zM197.25 247.46l1.24.93.88-.93h-2.12z"></path><path class="cls-17" d="M199.37 247.46l1.23.93.88-.93h-2.11zM201.48 247.46l1.24.93 1.05-.94-2.29.01z"></path><path class="cls-18" d="M199.35 236.02l.86 1.23 3.56 10.2v52.6l-2.74.01-.18-52.61-2.73-9.02.4-1.22.83-1.19z"></path><path class="cls-19" d="M195.31 299.49h8.47v1.56h-8.47z"></path><path class="cls-20" d="M215.63 247.45v52.61l-8.46.01-.18-52.6 8.64-.02z"></path><path class="cls-17" d="M211.21 236.03l.86 1.22 3.56 10.2-8.63.02 3.38-10.26.83-1.18z"></path><path class="cls-20" d="M211.21 236.03l.86 1.22-.45.28-.41-.32-.43.44-.4-.44.83-1.18z"></path><path class="cls-17" d="M207 247.47l1.24.93.87-.94-2.11.01zM209.11 247.46l1.24.93.88-.93h-2.12z"></path><path class="cls-17" d="M211.23 247.46l1.24.93.87-.93h-2.11zM213.34 247.46l1.24.93 1.05-.94-2.29.01z"></path><path class="cls-18" d="M211.21 236.02l.86 1.23 3.56 10.2.01 52.6-2.75.01-.18-52.61-2.73-9.02.4-1.22.83-1.19z"></path><path class="cls-20" d="M207.17 299.49h8.47v1.56h-8.47z"></path><path class="cls-10" d="M227.5 247.45v52.61l-8.47.01-.17-52.6 8.64-.02z"></path><path class="cls-17" d="M223.07 236.03l.87 1.22 3.56 10.2-8.64.02 3.39-10.26.82-1.18z"></path><path fill="#5281ac" d="M223.07 236.03l.87 1.22-.46.28-.4-.32-.44.44-.39-.44.82-1.18z"></path><path class="cls-17" d="M218.86 247.47l1.24.93.88-.94-2.12.01z"></path><path class="cls-17" d="M220.98 247.46l1.23.93.88-.93h-2.11zM223.09 247.46l1.24.93.88-.93h-2.12zM225.21 247.46l1.23.93 1.06-.94-2.29.01z"></path><path class="cls-18" d="M223.07 236.02l.87 1.23 3.56 10.2v52.6l-2.74.01-.18-52.61-2.73-9.02.4-1.22.82-1.19z"></path><path fill="#4a7b7b" d="M219.03 299.49h8.47v1.56h-8.47z"></path><path class="cls-23" d="M422.18 317.77h53.52a4.88 4.88 0 0 1 4.88 4.88 4.87 4.87 0 0 1-4.88 4.88H307.21a16 16 0 0 1-16-16v-19M281 294.92v32.35a16.2 16.2 0 0 1-16.21 16.2H259"></path><path class="cls-23" d="M302 285.48v13.38a9.72 9.72 0 0 0 9.72 9.72h58.6"></path><path class="cls-16" d="M345.75 114.8c-13.9-17.21-34.56-29.41-57.11-29.8-13.05-.22-26.79 1.5-38.44 7.72a86.72 86.72 0 0 0-26.37 22.09c-12.46 15.41-19.63 35.52-17.48 55.22 1.8 16.45 9.93 31.53 20.67 43.88 10.48 12 25.75 22 28.36 39 .75 4.85-1 11.57 2.66 15.45 4.41 4.63 11.57 3 17.22 3l20.14-.13c4.81 0 12.5 1.31 16.13-2.84 3.71-3.88 1.92-10.6 2.67-15.45 2-12.82 12-23.2 21.16-31.55 10.55-9.58 18.92-20.59 23.63-34.19 8.73-25.2 3.39-51.82-13.24-72.4z"></path><path class="cls-6" d="M280.67 286c0-8.5-.49-17-.78-25.51-.49-13.9-1.16-27.83-2.44-41.69-.77-8.35-2-16.71-5.19-24.53-2-4.84-5.3-10.93-11-12a8.09 8.09 0 0 0-9.45 6.6c-.94 6.45 5.32 12.27 10.93 14.09 6.45 2.1 15.3.79 20.76-3.25 5.82-4.32 9-11.51 9.95-18.55.69-5.37.46-11.2-5.27-13.51-5.08-2-9.23 2-9.77 6.94-.56 5.18.88 10.82 2.88 15.56s5.27 9.87 10.51 11.25c7.32 1.93 15.81-2.27 20.91-7.29 3.89-3.82 10.19-11.9 5.75-17.41-2.05-2.55-5.76-3.1-8.73-2-3.81 1.38-6.51 4.9-8.67 8.16-5 7.5-7.34 16.4-8.19 25.28-1 10.36-1.07 20.89-1.42 31.28-.33 10-.57 20-.81 30-.14 5.41-.15 10.82-.2 16.23a.78.78 0 0 0 1.55 0c.92-17.05 1.28-34.11 1.9-51.17.32-8.62.44-17.32 1.23-25.92.74-8.07 2.8-16.15 7-23.12 2-3.36 4.89-7.66 8.93-8.75 4.46-1.21 7.26 2.45 6.15 6.55-1.71 6.28-7.91 11.89-13.67 14.43s-12.38 2.92-16.69-2.3c-3.21-3.88-5-9-5.84-13.92-.64-3.58-1.51-10.46 3.11-12 2.18-.7 4.7.66 6.06 2.34 1.68 2.08 1.4 5.24 1.2 7.74-.51 6.49-3.2 13.3-8.22 17.61s-13.11 5.57-19.3 3.88c-5-1.37-12.84-8.11-9.2-14 2.42-3.89 7.2-3.23 10.17-.5 5.24 4.8 7.22 12.88 8.67 19.55a133.11 133.11 0 0 1 2.2 17.7c1.65 20.26 2.27 40.58 3.77 60.84 0 .46.07.92.1 1.37a.52.52 0 0 0 1 0z"></path><path class="cls-24" d="M261.59 271.06h45.5v4.49h-45.5z"></path><path class="cls-5" d="M309.71 291.08a2.65 2.65 0 0 1 .09-3.38l.28-.3a2.64 2.64 0 0 0 .11-3.33l-.46-.58a2.64 2.64 0 0 1 .21-3.43 2.64 2.64 0 0 0 .25-3.38l-1.19-1.62a2.32 2.32 0 0 0-1.88-.94h-45.25a2.33 2.33 0 0 0-1.88.94l-1.22 1.62a2.64 2.64 0 0 0 .25 3.38 2.64 2.64 0 0 1 .21 3.43l-.46.58a2.64 2.64 0 0 0 .11 3.33l.29.3a2.67 2.67 0 0 1 .08 3.38l-.36.43a2.62 2.62 0 0 0 .13 3.42l.18.19a4.88 4.88 0 0 0 3.45 1.5h43.66a4.88 4.88 0 0 0 3.45-1.5l.18-.19a2.62 2.62 0 0 0 .13-3.42z"></path><path class="cls-25" d="M286.36 280.2h21.07M265.29 280.2h11.68M262.23 285.37h30.54M298.5 285.37h9.01M265.29 290.53h16.34M292.31 290.53h6.57M279.9 280.2h2.36"></path><path d="M345.75 114.8c-13.9-17.21-34.56-29.41-57.11-29.8-2.57 0-5.17 0-7.77.12 36.1 2.21 67.38 33.59 66.19 71.35-1 31.74-16.49 54.37-48.54 68.25-6.71 2.91-11.52 7.34-12.59 15-1 7.1 1.26 14.3-.22 21.38a6 6 0 0 1-1.31 3 6.56 6.56 0 0 1-2.63 1.47 47.34 47.34 0 0 1-24.66 1.56 7.44 7.44 0 0 0 .93 1.24c4.41 4.63 11.57 3 17.22 3l20.14-.13c4.81 0 12.5 1.31 16.13-2.84 3.71-3.88 1.92-10.6 2.67-15.45 2-12.82 12-23.2 21.16-31.55 10.55-9.58 18.92-20.59 23.63-34.19 8.73-25.21 3.39-51.83-13.24-72.41z" fill="#e6b550" opacity=".2"></path><path d="M471.37 301s-7-5-12.67-5.77c-11.13-1.59-17.5 2.81-23.51-.56-2.49-1.4 3.69-2.35 4.34-3.91a19.72 19.72 0 0 0 0-2.39 3.92 3.92 0 0 1-2.94.11c-11.27-4.07-20.85-3.68-37.22-3.68-36.61 0-66.83 6.59-71.28 15.11h-.56v2.27c.22 9.5 32.3 17.19 71.84 17.19 38.18 0 71.57-7.33 72-16.23zm-47.27 1c-5.18 0-9.38-1.51-9.38-3.37s4.2-3.38 9.38-3.38 9.38 1.51 9.38 3.38-4.2 3.37-9.38 3.37z" fill="#e4ab46"></path><path class="cls-16" d="M471.26 300.05c-.95-3.79-6.89-6.05-12.56-6.86-11.13-1.58-17.5 2.82-23.51-.55-3.51-2 10.15-3.05 1.44-6.2-11.27-4.06-20.85-3.67-37.22-3.67-39.68 0-71.84 7.74-71.84 17.28s32.16 17.28 71.84 17.28 74.2-7.91 71.85-17.28zm-47.16 0c-5.18 0-9.38-1.51-9.38-3.37s4.2-3.38 9.38-3.38 9.38 1.51 9.38 3.38-4.2 3.32-9.38 3.32z"></path><path class="cls-19" d="M367.21 301.92a4.19 4.19 0 0 0-1.19-1.29 12.6 12.6 0 0 0-3.62-2 .66.66 0 0 0 .24-.88 1.41 1.41 0 0 0-.76-.62 9.92 9.92 0 0 0-4.44-.44 67.48 67.48 0 0 0-9 .91c-1.38.27-2.92.77-3.52 2.13a2.74 2.74 0 0 0-.15 1.72 4 4 0 0 1-1.1.33c-.37.11-.74.48-.63.87a.89.89 0 0 0 .26.38c2.76 2.81 6.8 3.46 10.46 3.47a38.64 38.64 0 0 0 11.88-1.7 2.57 2.57 0 0 0 1.64-1.12 2 2 0 0 0-.07-1.76z"></path><path class="cls-20" d="M394.83 292.44a4.19 4.19 0 0 0-1.19-1.29 12.68 12.68 0 0 0-3.61-2 .65.65 0 0 0 .23-.88 1.41 1.41 0 0 0-.76-.62 9.92 9.92 0 0 0-4.44-.44 67.48 67.48 0 0 0-9 .91c-1.38.27-2.92.77-3.52 2.13a2.74 2.74 0 0 0-.15 1.72 4 4 0 0 1-1.1.33c-.37.11-.74.48-.63.87a.89.89 0 0 0 .26.38c2.76 2.81 6.81 3.46 10.46 3.48a39 39 0 0 0 11.88-1.71 2.57 2.57 0 0 0 1.64-1.12 2 2 0 0 0-.07-1.76z"></path><path d="M444.78 306.47a3.7 3.7 0 0 0-1-1.11 11.07 11.07 0 0 0-3.1-1.71.56.56 0 0 0 .2-.75 1.18 1.18 0 0 0-.65-.53 8.26 8.26 0 0 0-3.8-.37 54.91 54.91 0 0 0-7.68.78c-1.18.22-2.5.65-3 1.82a2.31 2.31 0 0 0-.13 1.47 3.37 3.37 0 0 1-1 .28c-.31.1-.63.41-.53.75a.64.64 0 0 0 .22.32c2.36 2.4 5.82 3 9 3a33.06 33.06 0 0 0 10.16-1.47 2.17 2.17 0 0 0 1.41-.95 1.68 1.68 0 0 0-.1-1.53z" fill="#8ccae0"></path><path class="cls-6" d="M406.4 307.7a4.23 4.23 0 0 0-1.19-1.3 12.93 12.93 0 0 0-3.61-2 .65.65 0 0 0 .23-.88 1.41 1.41 0 0 0-.76-.62 9.75 9.75 0 0 0-4.43-.43 65.84 65.84 0 0 0-9 .91c-1.37.26-2.92.77-3.52 2.12a2.85 2.85 0 0 0-.15 1.73 4.38 4.38 0 0 1-1.1.32c-.37.12-.74.48-.63.88a.89.89 0 0 0 .26.38c2.77 2.8 6.81 3.45 10.47 3.47a38.54 38.54 0 0 0 11.87-1.71 2.61 2.61 0 0 0 1.65-1.12 2 2 0 0 0-.09-1.75z"></path><path class="cls-8" d="M187.54 348.46c0 1.9-13.09 3.43-29.23 3.43s-29.23-1.53-29.23-3.43 13.09-3.46 29.23-3.46 29.23 1.56 29.23 3.46z"></path><path class="cls-30" d="M126.88 336.24c-2.89-5.69-3.67-12.56-1.11-18.55a22.83 22.83 0 0 1 6.56-9.21 25 25 0 0 1 8.93-4.33 22 22 0 0 1 16.59 1.91 23.55 23.55 0 0 1 9.15 10.61c1.93 4.18 2.75 9.37 6.92 12.06 1.19.77 3.17 1.09 3.75 2.52.7 1.71-.57 3.41-1.25 4.89l-2.4 5.28c-.58 1.27-1.13 3.45-2.65 3.92s-3-.75-4.39-1.13c-3.6-1-7.51.42-10.79 1.86a24 24 0 0 1-11.79 2.19 21.6 21.6 0 0 1-17.52-12.02z"></path><path class="cls-31" d="M176.72 337.83s-11.62-5.74-17.17-8.87a25.34 25.34 0 0 1-5-3.46c-1.3-1.16-3.94-3.9-2.25-5.71 2-2.13 4.35 1.35 4.34 3.29a7.42 7.42 0 0 1-2.72 4.9c-2.33 1.65-5.92 1.23-8.14-.14a1.85 1.85 0 0 1 1.14-3.42c1.8.12 6.87 3.91 5.71 7a6.93 6.93 0 0 1-3.46 3.63c-2.78 1.36-6.39-2.17-2.48-3.42 2.77-.89 6.32.07 8.92 1.08 7.13 2.76 12.64 5.13 19.72 8"></path><path class="cls-24" transform="rotate(114.12 175.842 338.778)" d="M169.29 338.11h13.12v1.3h-13.12z"></path><path class="cls-5" d="M177.54 347.54a.77.77 0 0 0-.9-.38h-.11a.78.78 0 0 1-.9-.36l-.09-.19a.76.76 0 0 0-.93-.35.77.77 0 0 1-.92-.34l-.28-.51a.64.64 0 0 1 0-.6l5.33-11.91a.7.7 0 0 1 .47-.38l.57-.13a.76.76 0 0 1 .86.46.77.77 0 0 0 .88.46l.21-.05a.75.75 0 0 1 .86.42l.05.11a.75.75 0 0 0 .88.42h.15a.76.76 0 0 1 .89.43v.08a1.39 1.39 0 0 1 0 1.08l-5.14 11.49a1.41 1.41 0 0 1-.8.73h-.08a.75.75 0 0 1-.91-.37z"></path><path class="cls-32" d="M177.43 340.11l-2.49 5.54M179.91 334.56l-1.38 3.07M181.63 334.36l-3.6 8.04M177.35 343.91l-1.06 2.37M182.63 335.78l-1.93 4.3M179.44 342.89l-.77 1.73M178.19 338.4l-.28.63"></path><g class="cls-33"><path class="cls-30" d="M126.88 336.24c-2.89-5.69-3.67-12.56-1.11-18.55.29-.68.61-1.36 1-2-3.68 9.77.9 21.7 11 25.84 8.48 3.48 16.26 2.07 23.7-4.73a5.38 5.38 0 0 1 5.43-1.55c2 .58 3.62 2 5.66 2.47a1.83 1.83 0 0 0 .93 0 1.89 1.89 0 0 0 .7-.52 13.71 13.71 0 0 0 3.32-6.31 2.42 2.42 0 0 1 .21.39c.7 1.71-.57 3.41-1.25 4.89l-2.4 5.28c-.58 1.27-1.13 3.45-2.65 3.92s-3-.75-4.39-1.13c-3.6-1-7.51.42-10.79 1.86a24 24 0 0 1-11.79 2.19 21.6 21.6 0 0 1-17.57-12.05z"></path></g><path class="cls-8" d="M403.8 341.63c0 1.49-10.27 2.7-22.95 2.7s-23-1.21-23-2.7 10.27-2.7 23-2.7 22.95 1.21 22.95 2.7z"></path><path class="cls-30" d="M404.29 333.65a16.36 16.36 0 0 0 1.11-13.74 16.93 16.93 0 0 0-4.72-6.93 18.48 18.48 0 0 0-6.56-3.35 16.29 16.29 0 0 0-12.33 1.16 17.54 17.54 0 0 0-6.93 7.73c-1.49 3.07-2.18 6.91-5.31 8.84-.9.55-2.37.76-2.82 1.82-.55 1.25.37 2.53.85 3.64.57 1.31 1.13 2.63 1.7 3.95.41 1 .79 2.58 1.91 3s2.25-.51 3.26-.77c2.69-.68 5.57.42 8 1.54a17.63 17.63 0 0 0 8.71 1.8 16 16 0 0 0 13.13-8.69z"></path><path class="cls-31" d="M367.31 334.07s8.71-4.08 12.87-6.32a18.78 18.78 0 0 0 3.8-2.51c2.53-2.17 2.33-3.84 1.28-4.47-1.33-.79-2.79.7-2.81 2.67a5.51 5.51 0 0 0 1.94 3.67 5.85 5.85 0 0 0 6 0c.84-.5 1.12-2.64-.79-2.56-1.34.07-5.16 2.8-4.34 5.08a5.1 5.1 0 0 0 2.52 2.75 5.38 5.38 0 0 0 3.44.43c1.95-.59-.14-2.55-1.19-2.84a11.5 11.5 0 0 0-7 .57c-5.33 1.94-9.46 3.61-14.75 5.66"></path><path class="cls-24" transform="rotate(67.05 367.948 334.785)" d="M363.07 334.29h9.74v.96h-9.74z"></path><path class="cls-5" d="M366.56 341.25a.56.56 0 0 1 .67-.26h.08a.57.57 0 0 0 .67-.26l.07-.14a.57.57 0 0 1 .7-.24.56.56 0 0 0 .68-.23l.22-.38a.51.51 0 0 0 0-.45l-3.77-8.91a.52.52 0 0 0-.35-.29l-.42-.1a.54.54 0 0 0-.64.33.56.56 0 0 1-.66.32h-.15a.57.57 0 0 0-.65.3v.08a.55.55 0 0 1-.65.3h-.12a.57.57 0 0 0-.66.32v.05a1 1 0 0 0 0 .8l3.64 8.61a1.08 1.08 0 0 0 .58.55h.06a.56.56 0 0 0 .68-.26z"></path><path class="cls-32" d="M366.75 335.74l1.76 4.16M364.99 331.59l.98 2.3M363.72 331.42l2.55 6.02M366.75 338.57l.75 1.77M362.96 332.45l1.36 3.22M365.21 337.78l.55 1.29M366.21 334.47l.2.47"></path><g class="cls-33"><path class="cls-30" d="M404.29 333.65a16.36 16.36 0 0 0 1.11-13.74c-.2-.51-.43-1-.67-1.52 2.58 7.3-1 16.08-8.53 19-6.34 2.45-12.09 1.29-17.5-3.87a4 4 0 0 0-4-1.23c-1.48.4-2.71 1.44-4.23 1.74a1.24 1.24 0 0 1-.69 0 1.23 1.23 0 0 1-.51-.39 10.11 10.11 0 0 1-2.37-4.73 1.35 1.35 0 0 0-.16.29c-.55 1.25.37 2.53.85 3.64.57 1.31 1.13 2.63 1.7 3.95.41 1 .79 2.58 1.91 3s2.25-.51 3.26-.77c2.69-.68 5.57.42 8 1.54a17.63 17.63 0 0 0 8.71 1.8 16 16 0 0 0 13.12-8.71z"></path></g><path class="cls-34" d="M219.84 173.81a4.56 4.56 0 0 1-4.56-4.52c-.17-21.42 6.45-33.27 13.63-42.88a4.56 4.56 0 1 1 7.31 5.46c-5.8 7.76-12 17.69-11.82 37.35a4.56 4.56 0 0 1-4.52 4.59zM247.32 118.17a4.57 4.57 0 0 1-3.57-7.41 18.06 18.06 0 0 1 4.59-4.19 4.56 4.56 0 0 1 4.66 7.83 10.28 10.28 0 0 0-2.14 2 4.54 4.54 0 0 1-3.54 1.77z"></path><path class="cls-8" d="M265.82 364.46c0 3.06-13.63 5.54-30.45 5.54s-30.44-2.48-30.44-5.54 13.63-5.55 30.44-5.55 30.45 2.49 30.45 5.55z"></path><path class="cls-35" d="M255.47 351.68h-26.59l13.26-4.33h27l-.1.29-12.81 3.93a2.51 2.51 0 0 1-.76.11z"></path><path class="cls-30" d="M255.11 351.23h-26l13-3.88h26.39l-12.67 3.76a2.18 2.18 0 0 1-.72.12z"></path><path d="M253 350.58h-17.25l8.64-2.57h17.49l-8.41 2.49a1.51 1.51 0 0 1-.47.08z" style="mix-blend-mode:multiply" fill="#777e80" opacity=".55"></path><path class="cls-35" d="M269.1 347.35h-27l3.4-14.9a1.27 1.27 0 0 1 1.23-.83h24.31a1.17 1.17 0 0 1 1.21 1.47z"></path><path class="cls-35" d="M268.5 347.35h-26.36l3.4-14.9a1.27 1.27 0 0 1 1.23-.83h23.7a1.17 1.17 0 0 1 1.22 1.47z"></path><path class="cls-30" d="M267.33 346.43h-23.77l3.05-13.87h23.79z"></path><path class="cls-37" d="M264.84 343.63l-.21.98h-1"></path><path stroke-dasharray="1.94 2.43" stroke-width=".5" stroke="#fff" stroke-linecap="round" stroke-linejoin="round" fill="none" d="M261.19 344.61h-11.91"></path><path class="cls-37" d="M248.07 344.61h-1l.21-.98"></path><path stroke-dasharray="2.08 2.61" stroke-width=".5" stroke="#fff" stroke-linecap="round" stroke-linejoin="round" fill="none" d="M247.84 341.09l1.48-6.72.01-.01h15.25"></path><path class="cls-37" d="M265.88 334.36h1l-.21.98"></path><path stroke-dasharray="2.43 3.03" stroke-width=".5" stroke="#fff" stroke-linecap="round" stroke-linejoin="round" fill="none" d="M266.02 338.3l-.85 3.85"></path><path stroke="#dce1e6" stroke-width=".5" stroke-miterlimit="10" fill="none" d="M235.75 349.87h21.63"></path><path stroke-width=".25" stroke="#dce1e6" stroke-miterlimit="10" fill="none" d="M239.74 348.76h21.63"></path><path class="cls-43" d="M233.51 348.49a7.78 7.78 0 0 1 3.65-1.08 18.82 18.82 0 0 1 3.52-.05c.68 0 .51.81-.08.91a6.77 6.77 0 0 1-2 0 3.27 3.27 0 0 1-1.77 1.18 7.08 7.08 0 0 1-2.15.2c-.2 0-.46-.05-.5-.25"></path><path class="cls-44" d="M261.91 339.55l-4.95-4.95"></path><path class="cls-6" d="M261.86 339.5a.24.24 0 1 1 0 .34.25.25 0 0 1 0-.34zM260 341.19a.24.24 0 0 1 .34.34.24.24 0 1 1-.34-.34zM254.87 336.05a.24.24 0 0 1 .34.34.24.24 0 1 1-.34-.34zM256.79 334.43a.25.25 0 0 1 .34 0 .24.24 0 1 1-.34.34.25.25 0 0 1 0-.34z"></path><path class="cls-44" d="M255 336.22a3.88 3.88 0 0 1 5.13 5.14"></path><path class="cls-6" d="M256.18 337.5l3.19-.49-2.46 2.65a.72.72 0 1 0 0 1 .72.72 0 0 0 0-1l2.58-2.53s-.37 2.21-.5 3.3a40.22 40.22 0 0 0-3.87 2.37c-.13.09-1.46-1.3-1.41-1.37.84-1.06 2.47-3.93 2.47-3.93z"></path><path class="cls-6" d="M252.73 341.31l.53-.54a.25.25 0 0 1 .36 0l2.16 2.16a.26.26 0 0 1 0 .35l-.54.54a.25.25 0 0 1-.36 0l-2.15-2.16a.25.25 0 0 1 0-.35z"></path><path class="cls-45" d="M213.74 350.38c-.53 1.86-.41 3.37-.77 5.28-.52 2.84-.73 6.12 1.18 8.29a5.62 5.62 0 0 0 4.7 2.19c1.77 0 3.52-.29 5.29-.33 1.18 0 4.81.29 6 .33 5.28.21 8.27-.95 13.5-1.6a126.07 126.07 0 0 0 13.74-2.76c13.53-3.7 8.63-9.16 5.64-10-.65-.19-3.6-1.17-3.6-1.17l-4 1.1h-13.8a67.39 67.39 0 0 1-8.25-.85"></path><path class="cls-43" d="M253.22 342.91a6.7 6.7 0 0 1 .83.56 10.06 10.06 0 0 0 1.89.93l1.89.77a1.1 1.1 0 0 1 .37.2 1.12 1.12 0 0 1 .23.56 13.84 13.84 0 0 1 .26 6.15 7.83 7.83 0 0 1-1.11-2.22 2.39 2.39 0 0 0-.53-1.08 3.09 3.09 0 0 0-.6-.39 6.51 6.51 0 0 1-1.68-1.59 1.06 1.06 0 0 1-.27-.5.65.65 0 0 0 0-.2.35.35 0 0 0-.14-.13l-2.36-1.51"></path><path class="cls-10" d="M216 350.38c-1.09-.81-2.27-1.71-3.4-2.65-2.57-2.16-4.86-4.5-5.15-6.21-.62-3.82-.13-15.18.17-20.54v-.92c.3-5.06 3-7.31 4.39-8.13.7 6.59 2.26 21.46 2.39 22.22.25.98 1.6 16.23 1.6 16.23z"></path><path class="cls-24" d="M216 350.38c-1.08-.81-2.27-1.71-3.4-2.65-.09-4.19-1.62-3.28-3.37-10.6a48.72 48.72 0 0 1-.5-17.69l4.19.63c.69 6.52 1.45 13.56 1.54 14.08.19.98 1.54 16.23 1.54 16.23z"></path><path class="cls-43" d="M218.64 309a14 14 0 0 0 .5-5.28c-.39-2.24-1.73-6.28-1.23-9.31s4.32-5.54 8.35-5.15 5.21 4.26 5.89 6.5a23.14 23.14 0 0 1 .39 7.51 5.21 5.21 0 0 1-1.85 3.7c-.67.39-3.2-.13-3.65.36s-.78 3.34-.78 3.34"></path><path class="cls-10" d="M216.73 311.38a5.16 5.16 0 0 1 .9-2.4c.67-.63 5.16-.63 6.5-.46a20.53 20.53 0 0 1 5.1 2c.44.33-.42 2-.42 2z"></path><path class="cls-45" d="M218.81 305.16s5.6.47 6.67 0a4.26 4.26 0 0 0 2.74-3.42c.14-1.91-.25-2.5.48-3.56s1.37-.7 1.49.31.15 2.83.42 3 .78-1.1.64-3.05a12.17 12.17 0 0 0-.81-4.12c-.51-1.12-.78-1.06-1.24-1.26a3.41 3.41 0 0 0 2-1.78c1.13-1.75.51-4.48-2.46-4.47-5.19 0-10.71 1-10.82 4.88 0 0-1.82-.28-1.88 3.22s2.19 7.74 2.36 8.83-.15 1.16.41 1.42z"></path><path class="cls-10" d="M234.39 346.34c.2 1.75 1.74 4.47.69 4.85a19.6 19.6 0 0 1-4.23-.13h-.16c-1.86-.15-4-.36-5.77-.5-7.13-.3-10.77 1.12-11.48.72-.35-.21-.36-.83-.25-1.46a16.66 16.66 0 0 0 .12-4.73c-.18-1.32-.42-2.9-.77-4.7-1.17-6.25-3.48-15.79-3.82-21.52-.55-9 9.08-8.14 9.08-8.14 12.25-.76 18 2.77 18.67 8 .05.37.08.77.11 1.2.32 5.43-1.34 14.19-2.13 20.74a33.36 33.36 0 0 0-.06 5.67z"></path><path class="cls-24" d="M234.39 346.34c.2 1.75 1.74 4.47.69 4.85a19.6 19.6 0 0 1-4.23-.13c1.89.14 2.24-1.31 1.82-2.28a14 14 0 0 1-1.22-5.81c.09-2.6 1.07-8.49 1.65-14a45.12 45.12 0 0 0 0-9.75c.3.59 1.14 1.41 3.51 2 0 5.46-1.44 13.46-2.17 19.55a33.36 33.36 0 0 0-.05 5.57z"></path><path class="cls-10" d="M228.36 311.93s5.62-.45 8.09 1.62c2 1.66 5.76 22.62 5.76 22.62l-5.21 2.17s-5.72-14.33-7.21-14.1"></path><path class="cls-10" d="M236.76 337.82c1.78 5.64 16.33 7.77 16.33 7.77l.81-2.59s-8.89-6.61-12.09-7.51"></path><path class="cls-46" d="M255.54 351.88c1.29.08 2.6.28 3.88.29.14 0 .18-.22 0-.24a34.29 34.29 0 0 0-3.92-.29c-.16 0-.15.23 0 .24zM252.14 362.78c-4.82-.24-9.59.91-14.36 1.61s-9.84.92-14.25-1.05a2.56 2.56 0 0 0-1.16-.32 2.46 2.46 0 0 0-1.22.6 7.11 7.11 0 0 1-2.61 1.26c-1.34.28-1.73-.05-3.08-.28a.6.6 0 0 0-.4 0 .24.24 0 0 0-.06.08 5.6 5.6 0 0 0 3.85 1.43c1.77 0 3.52-.29 5.29-.33 1.18 0 4.81.29 6 .33 5.28.21 8.27-.95 13.5-1.6 2.17-.27 5.4-.86 8.41-1.5a.73.73 0 0 0 .09-.23z"></path><path class="cls-10" d="M388.21 170.66a7.76 7.76 0 0 0-2.33-1.09c-1.21-.34-.6-1.24-1.86-1-2.39.4-7.91 1.51-11.26 2.43h-.09c-1.68.41-2.25 0-2.25 0l-.71.8.09.28a2.73 2.73 0 0 0-1 1.94c0 .17-.19.85-.26 1.52s-.08 1.22.19 1.46h.1a8.83 8.83 0 0 0 3.1.43 76.18 76.18 0 0 0 9.74-.94c2.38-.32 4.64-.63 6.09-.78a2.56 2.56 0 0 0 1.48-.67 2.25 2.25 0 0 0 .72-1.25c.26-1.29-.62-2.35-1.75-3.13z"></path><path class="cls-10" d="M372.38 175.54a2.84 2.84 0 0 1-.37.67 2.57 2.57 0 0 1-.21.24c-2.48 2.48-5.61 0-7.41-1.45-2.59-2.08-5.64-5.72-8-8-.08-.07-1-.83-.86-1l2.2-2.89s5.94 5.38 9.43 6.59a22.69 22.69 0 0 1 4.06 1.66 3.57 3.57 0 0 1 .38.25 4.21 4.21 0 0 1 .78 3.93z"></path><path class="cls-24" d="M381.65 176.52a76.18 76.18 0 0 1-9.74.94 8.83 8.83 0 0 1-3.1-.43h-.1c-2.3-1-3.71-3.13-.19-1.46a11.93 11.93 0 0 0 2 .8 7.51 7.51 0 0 0 1.31.12h.17c3.23-.05 12.7-7.15 9.65.03z"></path><path class="cls-10" d="M397.15 190.25a10 10 0 0 0-.45 5.77c.85 3.83-.11 4.09-.11 4.09a49.15 49.15 0 0 1-9.5 4.63c-3.1 1-5.73.8-5.66-2.61v-.6c.15-7.67-1.45-8.06-1.85-16.65-.41-8.81-.32-14 2.5-15.45 3.08-1.55 7.31-2.62 13.31-1.2 4.51 1.06 6 2.26 6 5.59a27.71 27.71 0 0 1-.49 4.11 73.27 73.27 0 0 1-3.75 12.32z"></path><path class="cls-24" d="M397.15 190.25a10 10 0 0 0-.45 5.77c.85 3.83-.11 4.09-.11 4.09a49.15 49.15 0 0 1-9.5 4.63l-4-.38-1.61-1.27v-1-.6a29.31 29.31 0 0 0 6.09-.16 25.23 25.23 0 0 0 6-1.49 2.33 2.33 0 0 0 1.46-2.59 33.74 33.74 0 0 1-.56-5.35 28.88 28.88 0 0 1 1.44-6.6 13.44 13.44 0 0 0 .54-4.88 44.09 44.09 0 0 1 0-5.57l3.2-1.73 1.78.66a27.71 27.71 0 0 1-.49 4.11 73.27 73.27 0 0 1-3.79 12.36z"></path><path class="cls-45" d="M383.5 155.21a7.53 7.53 0 0 1-1.71-5.37c.17-1.85.74-3.65 3.51-4.32 1.52-.37 3.68.77 5.23 2.5 4.82.4 6.39 3.72 6.59 7.49l-5.67-1.26z"></path><path class="cls-43" d="M396.09 157.63c-.11 4.32-3.83 6.82-3.83 6.82l.25 3.94L390 170l-1.72 1.12-1-2.07-.14-2.53a1.31 1.31 0 0 0-1-1.21 4.65 4.65 0 0 1-2.45-1.48 1.46 1.46 0 0 1-.16-.19c-1.63-2.23-2.25-10.75 3.34-13.17 5.74-2.47 9.34 2.84 9.22 7.16z"></path><path class="cls-47" d="M386.27 171.37s-2.47 15.33-1.53 22.63l1.72 3.13 1.88-3.41s-1.8-12.81-.81-22.13z"></path><path d="M385.94 170.07v.2a3.82 3.82 0 0 0 .3 1.1l1.26.26 1.11-.82-1.27-1.47h-.19a2.85 2.85 0 0 0-1.22.66z" fill="#2f3d4a"></path><path class="cls-24" d="M392.48 166.55a4.12 4.12 0 0 1 1.21 1.25 15.71 15.71 0 0 0-1.55.81c-.66.4-3.84 2.65-3.84 2.65l-.93-1.92a25.81 25.81 0 0 1 5.11-2.79zM387.37 169.34a2.65 2.65 0 0 0-1.45 1.21 3.92 3.92 0 0 1 .16-3 5.21 5.21 0 0 1 1.08-.78z"></path><g class="cls-49"><path class="cls-8" d="M369.4 275.32c0 1.81 11.08 3.28 24.75 3.28s24.75-1.47 24.75-3.28-11.08-3.32-24.75-3.32-24.75 1.5-24.75 3.32z"></path></g><path class="cls-43" d="M382.43 271a5.47 5.47 0 0 0-.38 1.87c.05.74 2.41.79 2.69.41a21.29 21.29 0 0 0 .41-3.79"></path><path class="cls-50" d="M385.36 273.93a15.91 15.91 0 0 1-.21 2h-2.72l-.14-.45a4.29 4.29 0 0 1-1.57.45h-2.3c-1.68 0-2.63-.21-2.68-.51-.17-1.23 1.83-1.18 2.36-1.18 1.5 0 3.12-.7 3.48-1.46.25-.55.14-.69.45-.59a.79.79 0 0 1 .47.4 1.38 1.38 0 0 0 1.42.78 1.67 1.67 0 0 0 .92-.45 1 1 0 0 1 .52 1.01z"></path><path class="cls-43" d="M408.9 268.44a22.32 22.32 0 0 0 .82 2.65c.33.67 2.54-.15 2.66-.61a21 21 0 0 0-1-3.67"></path><path class="cls-50" d="M413.2 270.86c.28.71.71 2.11.71 2.11l-2.06 1.23-.41-.31a3.9 3.9 0 0 1-1.08 1.13 8.64 8.64 0 0 1-2 .85c-1.89.43-3.34.22-3.49 0-.63-1.08 1.87-1.68 2.36-1.87a3.38 3.38 0 0 0 2.08-2.75c0-.6-.13-.69.2-.71a.76.76 0 0 1 .58.2 1.38 1.38 0 0 0 1.61.19 1.67 1.67 0 0 0 .69-.75 1 1 0 0 1 .81.68z"></path><path class="cls-45" d="M399.34 215.38s3.69-8.85-2.75-15.27c0 0-5.5 2.46-9.91 2.75a21.61 21.61 0 0 1-5.23-.12 112.29 112.29 0 0 0-.35 16.54zM385.47 271.85h-.32a18.39 18.39 0 0 1-3.6-.24V271c.12-10.13-1.1-26.69-1.34-31.92a5.37 5.37 0 0 1 0-1c.4-3.84 4.36-3.33 6 .19a14.05 14.05 0 0 1 .94 2.7 24.35 24.35 0 0 1 .61 3.83c.83 8.69-1.61 20.52-2.29 27.05z"></path><path class="cls-45" d="M392.34 219.47l-.06.32c-.88 4.61-3.72 17.08-5.08 21.13a2.44 2.44 0 0 1-1.74 1.28c-2 .54-5-.2-5.22-4.17a10 10 0 0 1 0-1.44c.26-3.22 1-21.05 1.11-22.77s.45-4.23 1.35-4.55c4.56-1.57 10.83 3.73 9.64 10.2z"></path><path class="cls-46" d="M388.11 237.82c1.45-5.4 3.45-14.29 4.17-18l-1-4.28-4.6-5.54-2.59-.35s.42 8.4 3.45 15.07c0 0 0 9.48-1.28 13.55l-1.11 3.12s.12.3.31.86a28.55 28.55 0 0 1 1.18 12.15c-.93 7.17-1.49 17.51-1.49 17.51h.32c.66-6.31 2.94-17.55 2.4-26.19a3.33 3.33 0 0 0-.06-.91 22.23 22.23 0 0 1 .3-6.93z"></path><path class="cls-45" d="M401.37 238c-3.07-2.89-7.34-1.52-5.35 3 2.14 4.79 8.73 18.08 12.3 27.56l.25.62a19.5 19.5 0 0 0 3.74-1.21c-1.7-6.16-2.94-16.76-6.47-24.15a20 20 0 0 0-4.47-5.82z"></path><path class="cls-45" d="M384.08 209.6c-.59-7.13 8.29-2.39 12.55 0 1.79 1 2.45 3 2.69 4.84s2.54 21.06 3 24.57c1.05 7.89-5.85 3.58-6.5 1.39-1.65-5.57-11.41-26.92-11.74-30.8z"></path><path class="cls-45" d="M401.71 234.07a19.08 19.08 0 0 0 3.46 8.44s-5.2-2.4-5.45-2.75a19.59 19.59 0 0 1-1.06-4.4c.1-.36 3.05-1.29 3.05-1.29z"></path><path class="cls-6" d="M341 146.4c4-2.43 5.13-4.77 5.13-4.77a8.28 8.28 0 0 0 .09-1.5c0-1.87-.6-5-3.87-6.21-4.82-1.77-7.93 1.49-11.25-4.28a.62.62 0 0 0 0 .09c.83 5.39-.01 16.7 9.9 16.67z"></path><path d="M341 146.4c4-2.43 5.13-4.77 5.13-4.77a8.28 8.28 0 0 0 .09-1.5c-11.11 10.47-14.84-8.93-15.11-10.4.82 5.39-.02 16.7 9.89 16.67z" style="mix-blend-mode:multiply" fill="#f6e4c5"></path><g class="cls-52"><path class="cls-53" d="M331.08 129.73a10.42 10.42 0 0 0 3.15 4.17 7.58 7.58 0 0 0 2.23 1.29 12 12 0 0 0 2.55.52 11 11 0 0 1 2.67.57 5.29 5.29 0 0 1 2.21 1.67 5.2 5.2 0 0 1 .58 5.2 5.36 5.36 0 0 0-1-4.9 4.84 4.84 0 0 0-2-1.46 14.65 14.65 0 0 0-2.54-.52 12.4 12.4 0 0 1-2.65-.61 8.21 8.21 0 0 1-2.3-1.47 9.52 9.52 0 0 1-2.9-4.46z"></path></g><g class="cls-52"><path class="cls-53" d="M331.08 129.73a16.65 16.65 0 0 0 2 4.53 11.31 11.31 0 0 0 3.36 3.49 17.12 17.12 0 0 0 2.18 1.11 11.83 11.83 0 0 1 2.18 1.32 6.15 6.15 0 0 1 1.64 2 4.93 4.93 0 0 1 .46 2.47 5.38 5.38 0 0 0-2.4-4 11.31 11.31 0 0 0-2.11-1.21 11.74 11.74 0 0 1-2.26-1.15 10.71 10.71 0 0 1-3.41-3.74 13.31 13.31 0 0 1-1.64-4.82z"></path></g><path class="cls-24" d="M405.29 217.62a2.41 2.41 0 0 1-.75-.17c-2.86-1.11-3.61-7.56-3.69-8.29l-.08-.83.79.25c.71.23 6.92 2.31 7.5 5.23a2.72 2.72 0 0 1-1.15 2.66 3.71 3.71 0 0 1-2.62 1.15zm-3.24-7.71c.34 2.16 1.24 5.89 2.89 6.53.63.24 1.39 0 2.25-.79.65-.56.91-1.09.8-1.63-.34-1.69-3.87-3.33-5.94-4.11z"></path><path transform="rotate(-41.53 373.39 177.76)" fill="#e9be68" d="M369.86 135.03h7v85.46h-7z"></path><path transform="rotate(-41.53 344.263 144.831)" fill="#e3a647" d="M340.75 143.62h7v2.44h-7z"></path><path class="cls-19" transform="rotate(-41.53 373.39 177.76)" d="M369.86 135.03h7v85.46h-7z"></path><path transform="rotate(-41.53 344.263 144.831)" fill="#262839" d="M340.75 143.62h7v2.44h-7z"></path><path class="cls-18" d="M401.02 210.32l-1.99 1.76-56.59-64.02-1.62-1.82 1.98-1.77 1.62 1.82 56.6 64.03z"></path><path class="cls-24" transform="rotate(-41.53 401.246 209.272)" d="M397.71 208.58h7v1.37h-7z"></path><path class="cls-43" d="M394.12 202.57l-1.84-1.57s-.7.9-1 1c-.1 0-.29-.05-.39-.05a3.41 3.41 0 0 0-1.49.46c-.43.2-1 .38-1 .56s.27.44.58.42h.15a.45.45 0 0 0 0 .18c.13.39 1.93 2.91 3.73.17a5.27 5.27 0 0 1 1.26-1.17z"></path><path class="cls-10" d="M395.78 178.25c.82 2.52 1.69 6.5 3.33 9.87a2 2 0 0 0 .11.21 2.25 2.25 0 0 0 .12.37 3 3 0 0 0 2.94 2h.62a10.09 10.09 0 0 0 1.23 0c.51 0 1-.13 1.11-.39s0-.14.06-.25a.68.68 0 0 0 0-.14.8.8 0 0 0 0-.15v-.64a15.73 15.73 0 0 0-.16-2.06c-.27-2.83-3.07-11.71-4-15.4a2.58 2.58 0 0 0-.87-1.37 2.27 2.27 0 0 0-1.33-.53h-.23a3.31 3.31 0 0 0-2.67 2.19 7.87 7.87 0 0 0-.73 2.45 8.78 8.78 0 0 0 .47 3.84z"></path><path class="cls-10" d="M391.51 201.51l1.55 1.4.41.36s3.14-2.73 5.59-5a27.8 27.8 0 0 0 6-7.41c.07-.14.14-.29.21-.42s0-.14.06-.25a.68.68 0 0 0 0-.14.8.8 0 0 0 0-.15v-.64a2.53 2.53 0 0 0-.57-1.65l-.11-.13a2.48 2.48 0 0 0-.62-.45 3.05 3.05 0 0 0-.46-.2 4.36 4.36 0 0 0-3.5.48c-.1.1-.2.2-.3.32s-.43.48-.65.75a12.54 12.54 0 0 0-1.69 2.83 102 102 0 0 1-5.92 10.3z"></path><path class="cls-45" d="M382.81 152.37a11.18 11.18 0 0 1 6.56.79 5.23 5.23 0 0 0 4.72.15l1.07-.5s-1.06-1.23-1.22-1.33a9.21 9.21 0 0 0-1.62-1.38c-.56-.23-2.88-1-3.17-1a6.68 6.68 0 0 0-1.87 0 4.71 4.71 0 0 0-1.45.49c-.38.18-1.45.86-1.45.86z"></path><path class="cls-43" d="M356 165.33s-2.67-2.33-2.81-4c-.15-1.8 1.12-2.67 1.95-1.67a6.41 6.41 0 0 1 1.08 4.12l.49.58z"></path><path class="cls-24" d="M393.06 202.91l.41.36s3.14-2.73 5.59-5a27.8 27.8 0 0 0 6-7.41c.07-.14.14-.29.21-.42s0-.14.06-.25a.68.68 0 0 0 0-.14.8.8 0 0 0 0-.15v-.64a15.73 15.73 0 0 0-.16-2.06c-.27-2.83-3.07-11.71-4-15.4a2.58 2.58 0 0 0-.87-1.37 2.27 2.27 0 0 0-1.33-.53h-.23a24.42 24.42 0 0 1 2.37 6.72c1.25 5.14 2.13 8.23 2.48 10.22a6.87 6.87 0 0 1 .16 2.14 6.41 6.41 0 0 1-.9 1.87c-2.07 3.52-7.55 10.53-9.79 12.06z"></path><path class="cls-45" d="M392.26 164.45a14 14 0 0 1-.4-3.2s1.83-1.29 1.83-2.61c0-1.84-2.05 0-2.05 0a13.58 13.58 0 0 1-.52-2.59c-.16-2.06 3.3-3.58 3.3-3.58l1.82 1.33.88 1.71s.07 7.19-4.86 8.94z"></path><path class="cls-57" d="M327.92 214.65l-22.38 12.9a.62.62 0 0 1-.85-.24l-1.78-3.08a.62.62 0 0 1 .23-.85l22.38-12.89a.62.62 0 0 1 .85.23l1.77 3.08a.62.62 0 0 1-.22.85z"></path><g opacity=".55"><g class="cls-59"><path class="cls-60" d="M325 212a.11.11 0 0 1-.15 0l-.49-.86.18-.1.49.86a.1.1 0 0 1-.03.1zM324.34 211.72a.07.07 0 0 1-.07 0l-.21-.37.09-.05.22.37a.06.06 0 0 1-.03.05z"></path></g><g class="cls-59"><path class="cls-60" d="M324.24 212.49a.1.1 0 0 1-.14 0l-.5-.86.19-.1.49.86a.1.1 0 0 1-.04.1zM323.56 212.17h-.07l-.22-.37.09-.05.22.37a.06.06 0 0 1-.02.05z"></path></g><g class="cls-59"><path class="cls-60" d="M323.46 212.94a.11.11 0 0 1-.15 0l-.5-.86.19-.11.5.86a.11.11 0 0 1-.04.11zM322.77 212.62h-.07l-.21-.37.09-.06.21.37-.02.06z"></path></g><g class="cls-59"><path class="cls-60" d="M322.67 213.4a.1.1 0 0 1-.14 0l-.5-.86.18-.1.5.85a.11.11 0 0 1-.04.11zM322 213.08a.06.06 0 0 1-.07 0l-.22-.37.1-.05.21.37a.07.07 0 0 1-.02.05z"></path></g><g class="cls-59"><path class="cls-60" d="M321.89 213.85a.11.11 0 0 1-.15 0l-.49-.86.18-.1.49.86a.1.1 0 0 1-.03.1zM321.2 213.53a.07.07 0 0 1-.07 0l-.21-.37h.09l.22.37a.06.06 0 0 1-.03 0z"></path></g><g class="cls-59"><path class="cls-60" d="M321.1 214.3a.1.1 0 0 1-.14 0l-.5-.86.19-.1.49.86a.1.1 0 0 1-.04.1zM320.42 214h-.07l-.22-.37.09-.05.22.37a.06.06 0 0 1-.02.05z"></path></g><g class="cls-59"><path class="cls-60" d="M320.32 214.75a.11.11 0 0 1-.15 0l-.5-.86.19-.11.5.86a.11.11 0 0 1-.04.11zM319.63 214.43h-.07l-.21-.37.09-.06.21.37-.02.06z"></path></g><g class="cls-59"><path class="cls-60" d="M319.53 215.21a.11.11 0 0 1-.15 0l-.49-.86.18-.11.5.86a.11.11 0 0 1-.04.11zM318.85 214.89a.06.06 0 0 1-.07 0l-.22-.37.1-.06.21.37a.08.08 0 0 1-.02.06z"></path></g><g class="cls-59"><path class="cls-60" d="M318.75 215.66a.11.11 0 0 1-.15 0l-.49-.86.18-.1.49.85a.11.11 0 0 1-.03.11zM318.06 215.34a.07.07 0 0 1-.07 0l-.21-.37h.09l.21.37s.01-.02-.02 0z"></path></g><g class="cls-59"><path class="cls-60" d="M318 216.11a.1.1 0 0 1-.14 0l-.5-.86.18-.1.5.86a.1.1 0 0 1-.04.1zM317.28 215.79h-.07l-.22-.37.09-.05.22.37a.06.06 0 0 1-.02.05z"></path></g><g class="cls-59"><path class="cls-60" d="M317.18 216.56a.11.11 0 0 1-.15 0l-.5-.86.19-.11.5.86a.12.12 0 0 1-.04.11zM316.49 216.24h-.07l-.21-.37h.09l.21.37h-.02z"></path></g><g class="cls-59"><path class="cls-60" d="M316.39 217a.11.11 0 0 1-.15 0l-.49-.86.18-.11.5.86a.11.11 0 0 1-.04.11zM315.71 216.7a.06.06 0 0 1-.07 0l-.22-.37.1-.06.21.37a.08.08 0 0 1-.02.06z"></path></g><g class="cls-59"><path class="cls-60" d="M315.6 217.47a.1.1 0 0 1-.14 0l-.49-.86.18-.1.49.85a.1.1 0 0 1-.04.11zM314.92 217.15a.07.07 0 0 1-.07 0l-.21-.37h.09l.21.37s.06-.02-.02 0z"></path></g><g class="cls-59"><path class="cls-60" d="M314.82 217.92a.1.1 0 0 1-.14 0l-.5-.86.18-.1.5.86a.1.1 0 0 1-.04.1zM314.14 217.6a.06.06 0 0 1-.08 0l-.21-.37.09-.05.22.37a.06.06 0 0 1-.02.05z"></path></g><g class="cls-59"><path class="cls-60" d="M314 218.37a.11.11 0 0 1-.15 0l-.5-.86.19-.11.5.86a.12.12 0 0 1-.04.11zM313.35 218.05h-.07l-.21-.37h.09l.21.37h-.02z"></path></g><g class="cls-59"><path class="cls-60" d="M313.25 218.83a.11.11 0 0 1-.15 0l-.49-.86.18-.11.5.86a.11.11 0 0 1-.04.11zM312.57 218.5h-.07l-.22-.37.09-.06.22.37a.06.06 0 0 1-.02.06z"></path></g><g class="cls-59"><path class="cls-60" d="M312.46 219.28a.1.1 0 0 1-.14 0l-.49-.86.18-.11.49.86a.1.1 0 0 1-.04.11zM311.78 219a.07.07 0 0 1-.07 0l-.21-.37.09-.06.21.37a.05.05 0 0 1-.02.06z"></path></g><g class="cls-59"><path class="cls-60" d="M311.68 219.73a.1.1 0 0 1-.14 0l-.5-.86.18-.1.5.85a.11.11 0 0 1-.04.11zM311 219.41a.06.06 0 0 1-.08 0l-.21-.37.09-.05.22.37a.07.07 0 0 1-.02.05z"></path></g><g class="cls-59"><path class="cls-60" d="M310.9 220.18a.1.1 0 0 1-.15 0l-.5-.85.19-.11.49.86a.11.11 0 0 1-.03.1zM310.21 219.86h-.07l-.21-.37.09-.05.21.37-.02.05z"></path></g><g class="cls-59"><path class="cls-60" d="M310.11 220.64a.12.12 0 0 1-.15 0l-.49-.86.18-.11.5.86a.11.11 0 0 1-.04.11zM309.43 220.31h-.07l-.22-.37h.09l.22.37a.06.06 0 0 1-.02 0z"></path></g><g class="cls-59"><path class="cls-60" d="M309.32 221.09a.1.1 0 0 1-.14 0l-.5-.86.19-.11.49.86a.11.11 0 0 1-.04.11zM308.64 220.77a.07.07 0 0 1-.07 0l-.21-.37.09-.06.21.37a.05.05 0 0 1-.02.06z"></path></g><g class="cls-59"><path class="cls-60" d="M308.54 221.54a.1.1 0 0 1-.14 0l-.5-.86.18-.1.5.85a.11.11 0 0 1-.04.11zM307.86 221.22a.08.08 0 0 1-.08 0l-.21-.37.09-.05.22.37a.07.07 0 0 1-.02.05z"></path></g><g class="cls-59"><path class="cls-60" d="M307.76 222a.11.11 0 0 1-.15 0l-.5-.86.19-.1.49.86a.11.11 0 0 1-.03.1zM307.07 221.67H307l-.21-.37.09-.05.21.37-.02.05z"></path></g><g class="cls-59"><path class="cls-60" d="M307 222.44a.11.11 0 0 1-.15 0l-.49-.86.18-.11.5.86a.1.1 0 0 1-.04.11zM306.29 222.12h-.07l-.22-.37h.09l.22.37a.06.06 0 0 1-.02 0z"></path></g><g class="cls-59"><path class="cls-60" d="M306.18 222.9a.1.1 0 0 1-.14 0l-.5-.86.19-.11.49.86a.11.11 0 0 1-.04.11zM305.5 222.57h-.07l-.21-.37.09-.06.21.37-.02.06z"></path></g><g class="cls-59"><path class="cls-60" d="M305.4 223.35a.11.11 0 0 1-.15 0l-.49-.86.18-.11.5.86a.11.11 0 0 1-.04.11zM304.72 223a.08.08 0 0 1-.08 0l-.21-.37h.09l.22.37a.07.07 0 0 1-.02 0z"></path></g></g><path class="cls-8" d="M366.41 348.24c0 1.82-9.8 3.29-21.89 3.29s-21.88-1.47-21.88-3.29 9.8-3.3 21.88-3.3 21.89 1.48 21.89 3.3z"></path><path class="cls-43" d="M350.18 341.25s.07 3 .13 3.78 2.5.82 2.79.43a22 22 0 0 0 .42-3.93"></path><path class="cls-50" d="M353.74 346.13a16.67 16.67 0 0 1-.22 2.11h-2.82l-.14-.47a4.4 4.4 0 0 1-1.63.47h-2.38c-1.74 0-2.72-.22-2.77-.53-.18-1.28 1.9-1.22 2.44-1.22 1.55 0 3.24-.73 3.6-1.52.27-.57.15-.72.47-.61a.81.81 0 0 1 .49.42 1.44 1.44 0 0 0 1.47.8 1.7 1.7 0 0 0 .95-.46 1 1 0 0 1 .54 1.01z"></path><path class="cls-43" d="M340.29 340.44a22.45 22.45 0 0 0 .86 2.75c.34.7 2.63-.16 2.75-.63a22 22 0 0 0-1.06-3.8"></path><path class="cls-50" d="M344.75 343c.29.74.73 2.18.73 2.18l-2.13 1.28-.42-.32a4.13 4.13 0 0 1-1.13 1.17 8.88 8.88 0 0 1-2.11.88c-1.95.44-3.46.23-3.61 0-.65-1.12 1.94-1.74 2.44-1.94a3.47 3.47 0 0 0 2.16-2.84c0-.63-.13-.72.21-.74a.79.79 0 0 1 .6.21 1.44 1.44 0 0 0 1.66.2 1.75 1.75 0 0 0 .72-.78 1 1 0 0 1 .88.7z"></path><path class="cls-61" d="M355.34 272c1-.75 2.11-1.59 3.16-2.47 2.39-2 4.53-4.18 4.79-5.77.58-3.56.13-14.13-.16-19.11v-.85c-.28-4.72-2.82-6.81-4.09-7.57-.64 6.13-2.1 20-2.22 20.67-.2.94-1.48 15.1-1.48 15.1z"></path><path class="cls-60" d="M355.33 272c1-.75 2.12-1.59 3.17-2.47.09-3.89 1.25-9.34 2.88-16.15 1.94-8.59.72-10.17.72-10.17l-3.89.6c-.65 6.06-1.35 12.61-1.44 13.09-.15.94-1.44 15.1-1.44 15.1z"></path><path class="cls-45" d="M346 304.29a95.9 95.9 0 0 0 1.21 12c.52 2.66 8.88 3.15 7.8 1.1-1.55-3 1.16-12.3 2.48-28.2.2-2.4 1.28-2.68 2-7.63a15.16 15.16 0 0 0-2-9.25l-11.59-1.08-.15 14.44-.05 4.88s-.08 6.68.3 13.74z"></path><path class="cls-45" d="M354 315.51s2.27 2.78 2 7.88-2.09 20.3-2.09 20.3a11 11 0 0 1-4-.11s-2.87-28.21-2.88-31.41 6.97 3.34 6.97 3.34z"></path><path class="cls-46" d="M346 304.29a92 92 0 0 1 3.37-9.37 18.1 18.1 0 0 1 3.29-5.09c5.88-6.17 1.84-14.15 1.84-14.15s-4.79 4-5.13 4.38-2.23 3.75-3.64 5.59l-.05 4.88s-.06 6.7.32 13.76z"></path><path class="cls-45" d="M332.23 302.39S329.6 311 330 313.75s10 28.08 10 28.08a9.59 9.59 0 0 0 3.85-.95s-.2-11.17-2.09-18.16-4.07-11.26-5.95-11.89-3.06-6.99-3.58-8.44z"></path><path class="cls-47" d="M340.73 307.53s-2.85 4.54-1.1 8.61-2.94 3.4-2.94 3.4-2.34-6.83-1.82-7.72 2.45-3.86 3.07-4a26.43 26.43 0 0 1 2.79-.29z"></path><path class="cls-45" d="M337.85 271.44s-6.1 28.23-6.89 35.84c-.34 3.23 3.05 8.56 6.18 5.64 3.73-3.48 9.78-19.42 11.66-22.24s8.9-5.4 4.1-19.68"></path><path class="cls-43" d="M352.91 233.51a13.26 13.26 0 0 1-.47-4.91c.37-2.08 1.62-5.84 1.15-8.65s-4-5.17-7.77-4.8-4.85 4-5.48 6a21.52 21.52 0 0 0-.36 7 4.81 4.81 0 0 0 1.72 3.45c.62.36 3-.12 3.39.33s.73 3.11.73 3.11"></path><path class="cls-61" d="M354.68 235.75a4.84 4.84 0 0 0-.83-2.24c-.63-.58-4.8-.58-6.05-.42a18.82 18.82 0 0 0-4.75 1.9c-.4.3.4 1.88.4 1.88z"></path><path class="cls-43" d="M311.09 219.38c0-.29.41-.15.51.09v.21c0-.49-.06-.88 0-1 0-.28.38-.18.5 0v-.41c0-.36.41-.21.51.09a3.39 3.39 0 0 1 .09.49 2.34 2.34 0 0 1 0-.27c0-.29.37-.22.47 0a3.9 3.9 0 0 1 .1.58c.05.29.14.61.18.91a6.27 6.27 0 0 0 .19.84 3.71 3.71 0 0 0 1.37 1.06l.81-.44a11.05 11.05 0 0 1 .2 1.89c-.06.44-.37 1-.34 1.25a6.8 6.8 0 0 0 .34 1l-2.24.93a5.8 5.8 0 0 0-.61-1.65 17.91 17.91 0 0 1-1.53-1.84 11.33 11.33 0 0 1-.34-1.11l-.15-.84-.08-.81s.01-.87.02-.97z"></path><path class="cls-61" d="M313.38 226.14s.76 4.39 1.51 7.9a33.83 33.83 0 0 0 2.62 8.09.15.15 0 0 1 0 .06c.74 1.61 2.12 3.57 3.06 3.77a28.41 28.41 0 0 0 4.23 0c2 .12 7.18-.55 11.55-1.14h.2c2-.28 3.89-.52 5.17-.66a2.73 2.73 0 0 0 1.58-.7 2.44 2.44 0 0 0 .76-1.33c.29-1.42-.64-2.55-1.84-3.38l-.17-.11c1.48-1.48 3-3.09 3-3.09s-4.2.2-6.54.36c-1.6.11-12.49 3-13.79 3.42l-.29.11a2.66 2.66 0 0 0-.41.07l-.25.08a13.55 13.55 0 0 0-1.59-3c-2.33-3.29-6.13-11.24-6.13-11.24L314 226z"></path><path class="cls-45" d="M352.75 230s-5.21.44-6.2 0a4 4 0 0 1-2.56-3.18c-.13-1.78.24-2.32-.44-3.31s-1.28-.66-1.38.28-.15 2.64-.39 2.76-.73-1-.6-2.84a11.16 11.16 0 0 1 .75-3.83c.47-1 .73-1 1.15-1.17a3.22 3.22 0 0 1-1.85-1.66c-1-1.63-.47-4.17 2.29-4.16 4.83 0 10 1 10.07 4.54 0 0 1.69-.26 1.74 3s-2 7.2-2.19 8.21.13 1.08-.39 1.36z"></path><path class="cls-61" d="M338.26 268.27c-.19 1.63-1.62 4.16-.65 4.51a18.46 18.46 0 0 0 3.94-.11h.15c1.73-.15 3.71-.34 5.37-.47 6.63-.28 10 1 10.68.67.32-.19.33-.77.23-1.36a15.45 15.45 0 0 1-.11-4.4c.16-1.23.39-2.7.71-4.38 1.1-5.81 3.24-14.68 3.56-20 .51-8.37-8.45-7.57-8.45-7.57-11.4-.72-16.75 2.57-17.37 7.46-.05.35-.07.73-.1 1.12-.29 5.05 1.25 13.2 2 19.3a30.73 30.73 0 0 1 .04 5.23z"></path><path class="cls-60" d="M338.26 268.27c-.19 1.63-1.62 4.16-.65 4.51a18.46 18.46 0 0 0 3.94-.11c-1.76.12-2.09-1.23-1.69-2.13a13 13 0 0 0 1.13-5.4c-.08-2.43-1-7.9-1.53-13.07a41 41 0 0 1 0-9.06c-.28.54-1.06 1.31-3.27 1.82 0 5.08 1.34 12.52 2 18.19a30.73 30.73 0 0 1 .07 5.25z"></path><path class="cls-57" d="M198.05 163l12.71-30.34-9.45 1.91h-.14l-18.9 3.82-.32.06-19 3.85-.32.06-9.28 1.88zm3.17-22.6l-6 14.39-21.4-9z"></path><g class="cls-49"><path class="cls-62" d="M158.49 143.23h.21l.28 1.38a.13.13 0 0 1-.08.13.12.12 0 0 1-.13-.09zM159 143.13h.15l.14.68a.08.08 0 0 1-.06.09.09.09 0 0 1-.09-.06z"></path></g><g class="cls-49"><path class="cls-62" d="M159.46 143h.21l.27 1.38a.1.1 0 0 1-.08.13.11.11 0 0 1-.12-.09zM160 142.93h.15l.14.68a.09.09 0 0 1-.06.09.08.08 0 0 1-.09-.06z"></path></g><g class="cls-49"><path class="cls-62" d="M160.43 142.84h.2l.28 1.37a.11.11 0 0 1-.08.13.1.1 0 0 1-.12-.08zM160.93 142.74h.15l.13.68a.06.06 0 0 1-.06.08s-.08 0-.08-.05z"></path></g><g class="cls-49"><path class="cls-62" d="M161.39 142.64h.21l.28 1.38a.11.11 0 0 1-.08.13.11.11 0 0 1-.13-.09zM161.9 142.54h.14l.14.68a.08.08 0 0 1-.06.09s-.07 0-.08-.06z"></path></g><g class="cls-49"><path class="cls-62" d="M162.36 142.45h.21l.28 1.37a.11.11 0 0 1-.09.13.11.11 0 0 1-.12-.09zM162.87 142.35h.14l.14.67a.08.08 0 0 1-.15 0z"></path></g><g class="cls-49"><path class="cls-62" d="M163.33 142.26h.21l.28 1.37a.13.13 0 0 1-.09.13.1.1 0 0 1-.12-.09zM163.84 142.16h.14l.13.67a.07.07 0 0 1-.05.09.09.09 0 0 1-.09-.06z"></path></g><g class="cls-49"><path class="cls-62" d="M164.3 142.06h.21l.27 1.37a.1.1 0 0 1-.08.13.12.12 0 0 1-.13-.09zM164.8 142h.15l.13.67a.07.07 0 0 1-.05.09.08.08 0 0 1-.09-.06z"></path></g><g class="cls-49"><path class="cls-62" d="M165.26 141.87l.21-.05.28 1.37a.11.11 0 0 1-.21.05zM165.77 141.76h.15l.13.68a.06.06 0 0 1-.05.08s-.09 0-.09-.05z"></path></g><g class="cls-49"><path class="cls-62" d="M166.24 141.67h.2l.28 1.37a.11.11 0 0 1-.08.13.12.12 0 0 1-.13-.09zM166.74 141.57h.15l.13.67a.08.08 0 1 1-.15 0z"></path></g><g class="cls-49"><path class="cls-62" d="M167.2 141.47h.21l.28 1.37a.11.11 0 0 1-.08.13.11.11 0 0 1-.13-.09zM167.7 141.37h.15l.14.67a.08.08 0 1 1-.15 0z"></path></g><g class="cls-49"><path class="cls-62" d="M168.17 141.28h.21l.27 1.37a.12.12 0 0 1-.08.13.11.11 0 0 1-.12-.09zM168.67 141.18h.15l.14.67a.09.09 0 0 1-.06.09.08.08 0 0 1-.09-.06z"></path></g><g class="cls-49"><path class="cls-62" d="M169.14 141.08h.2l.28 1.37a.11.11 0 0 1-.08.13.1.1 0 0 1-.12-.09zM169.64 141h.15l.13.67a.08.08 0 1 1-.15 0z"></path></g><g class="cls-49"><path class="cls-62" d="M170.1 140.89h.21l.28 1.37a.11.11 0 0 1-.08.12.11.11 0 0 1-.13-.08zM170.61 140.78h.14l.14.67a.08.08 0 0 1-.06.09.08.08 0 0 1-.08-.06z"></path></g><g class="cls-49"><path class="cls-62" d="M171.07 140.69h.21l.28 1.37a.11.11 0 0 1-.09.13.11.11 0 0 1-.12-.09zM171.58 140.59h.14l.14.67a.09.09 0 0 1-.06.09.08.08 0 0 1-.09-.06z"></path></g><g class="cls-49"><path class="cls-62" d="M172 140.5l.21-.05.28 1.37a.11.11 0 0 1-.09.13.1.1 0 0 1-.12-.08zM172.55 140.39h.14l.13.68a.07.07 0 0 1 0 .08.08.08 0 0 1-.09-.06z"></path></g><g class="cls-49"><path class="cls-62" d="M173 140.3h.21l.27 1.37a.11.11 0 0 1-.08.13.11.11 0 0 1-.13-.09zM173.51 140.2h.14l.14.67a.07.07 0 0 1 0 .09.08.08 0 0 1-.09-.06z"></path></g><g class="cls-49"><path class="cls-62" d="M174 140.1h.21l.28 1.37a.11.11 0 0 1-.08.13.11.11 0 0 1-.13-.09zM174.48 140h.15l.13.67a.08.08 0 0 1-.06.09.06.06 0 0 1-.08-.06z"></path></g><g class="cls-49"><path class="cls-62" d="M175 139.91h.2l.28 1.37a.11.11 0 0 1-.08.12.11.11 0 0 1-.13-.08zM175.45 139.81h.14l.14.67a.08.08 0 0 1-.06.09.09.09 0 0 1-.09-.06z"></path></g><g class="cls-49"><path class="cls-62" d="M175.91 139.71h.21l.28 1.37a.11.11 0 0 1-.09.13.11.11 0 0 1-.12-.09zM176.41 139.61h.15l.14.67a.08.08 0 0 1-.15 0z"></path></g><g class="cls-49"><path class="cls-62" d="M176.88 139.52l.2-.05.28 1.37a.11.11 0 0 1-.08.13.1.1 0 0 1-.12-.08zM177.38 139.41h.15l.13.68v.08h-.09z"></path></g><g class="cls-49"><path class="cls-62" d="M177.85 139.32h.2l.28 1.37a.11.11 0 0 1-.08.13.12.12 0 0 1-.13-.09zM178.35 139.22h.15l.13.67a.08.08 0 1 1-.15 0z"></path></g><g class="cls-49"><path class="cls-62" d="M178.81 139.12h.21l.28 1.37a.11.11 0 0 1-.08.13.11.11 0 0 1-.13-.09zM179.32 139h.14l.14.67a.08.08 0 0 1-.06.09.06.06 0 0 1-.08-.06z"></path></g><g class="cls-49"><path class="cls-62" d="M179.78 138.93h.21l.28 1.37a.13.13 0 0 1-.09.13.11.11 0 0 1-.12-.09zM180.29 138.83h.14l.14.67a.08.08 0 1 1-.15 0z"></path></g><g class="cls-49"><path class="cls-62" d="M180.75 138.73h.21l.28 1.37a.11.11 0 0 1-.09.13.1.1 0 0 1-.12-.09zM181.25 138.63h.15l.13.67a.07.07 0 0 1-.05.09.08.08 0 0 1-.09-.06z"></path></g><g class="cls-49"><path class="cls-62" d="M181.72 138.54h.21l.27 1.37a.11.11 0 0 1-.21 0zM182.22 138.43h.14l.14.67s0 .08-.05.08a.08.08 0 0 1-.09 0z"></path></g><g class="cls-49"><path class="cls-62" d="M182.68 138.35h.21l.28 1.37a.11.11 0 0 1-.08.13.11.11 0 0 1-.13-.09zM183.19 138.24h.15l.13.67a.08.08 0 1 1-.15 0z"></path></g><g class="cls-49"><path class="cls-62" d="M183.66 138.15h.2l.28 1.36a.11.11 0 0 1-.08.13.11.11 0 0 1-.13-.09zM184.16 138.05h.14l.14.66a.08.08 0 1 1-.15 0z"></path></g><g class="cls-49"><path class="cls-62" d="M184.62 138h.21l.27 1.37a.1.1 0 1 1-.2 0zM185.12 137.85h.15l.14.67a.08.08 0 0 1-.15 0z"></path></g><g class="cls-49"><path class="cls-62" d="M185.59 137.76h.2l.28 1.36a.11.11 0 0 1-.08.13.1.1 0 0 1-.12-.09zM186.09 137.66h.15l.13.66a.08.08 0 0 1-.06.09.06.06 0 0 1-.08-.06z"></path></g><g class="cls-49"><path class="cls-62" d="M186.56 137.56h.2l.28 1.37a.11.11 0 0 1-.08.12.11.11 0 0 1-.13-.08zM187.06 137.46h.15l.13.67a.08.08 0 0 1-.06.09.09.09 0 0 1-.09-.06z"></path></g><g class="cls-49"><path class="cls-62" d="M187.52 137.37l.21-.05.28 1.37a.11.11 0 0 1-.09.13.11.11 0 0 1-.12-.09zM188 137.26h.14l.14.66a.08.08 0 0 1-.06.09.06.06 0 0 1-.08-.06z"></path></g><g class="cls-49"><path class="cls-62" d="M188.49 137.17h.21l.28 1.36a.11.11 0 0 1-.09.13.1.1 0 0 1-.12-.08zM189 137.07h.14l.13.66s0 .09-.05.09a.08.08 0 0 1-.09-.06z"></path></g><g class="cls-49"><path class="cls-62" d="M189.46 137h.21l.28 1.37a.11.11 0 1 1-.22 0zM190 136.87h.15l.13.67a.07.07 0 0 1-.05.09.09.09 0 0 1-.09-.06z"></path></g><g class="cls-49"><path class="cls-62" d="M190.43 136.78h.21l.27 1.36a.11.11 0 0 1-.08.13.11.11 0 0 1-.13-.09zM190.93 136.68h.14l.14.66a.07.07 0 0 1-.05.09.07.07 0 0 1-.09-.06z"></path></g><g class="cls-49"><path class="cls-62" d="M191.39 136.58h.21l.28 1.37a.1.1 0 0 1-.08.12.1.1 0 0 1-.13-.08zM191.9 136.48h.15l.13.67a.08.08 0 0 1-.06.09.09.09 0 0 1-.09-.06z"></path></g><g class="cls-49"><path class="cls-62" d="M192.37 136.39h.2l.28 1.37a.11.11 0 0 1-.08.13.11.11 0 0 1-.13-.09zM192.87 136.29h.14l.14.66a.08.08 0 0 1-.15 0z"></path></g><g class="cls-49"><path class="cls-62" d="M193.33 136.19h.21l.27 1.36a.11.11 0 0 1-.08.13.11.11 0 0 1-.12-.08zM193.83 136.09h.15l.14.66s0 .09-.06.09a.08.08 0 0 1-.09-.06z"></path></g><g class="cls-49"><path class="cls-62" d="M194.3 136l.2-.05.28 1.37a.11.11 0 0 1-.08.13.1.1 0 0 1-.12-.09zM194.8 135.89h.15l.13.67a.08.08 0 1 1-.15 0z"></path></g><g class="cls-49"><path class="cls-62" d="M195.27 135.8h.2l.28 1.36a.11.11 0 0 1-.08.13.11.11 0 0 1-.13-.09zM195.77 135.7h.14l.14.66a.08.08 0 0 1-.15 0z"></path></g><g class="cls-49"><path class="cls-62" d="M196.23 135.6h.21l.27 1.37a.1.1 0 1 1-.2 0zM196.74 135.5h.14l.14.67a.08.08 0 1 1-.15 0z"></path></g><g class="cls-49"><path class="cls-62" d="M197.2 135.41h.21l.28 1.36a.11.11 0 0 1-.09.13.1.1 0 0 1-.12-.09zM197.71 135.31h.14l.13.66a.08.08 0 0 1-.06.09s-.07 0-.08-.06z"></path></g><g class="cls-49"><path class="cls-62" d="M198.17 135.21h.21l.27 1.36a.11.11 0 0 1-.08.13.11.11 0 0 1-.13-.08zM198.67 135.11h.15l.13.67v.08a.08.08 0 0 1-.09-.06z"></path></g><g class="cls-49"><path class="cls-62" d="M199.13 135l.21-.05.28 1.37a.11.11 0 0 1-.08.13.11.11 0 0 1-.13-.09zM199.64 134.91h.14l.14.67a.08.08 0 0 1-.06.09.06.06 0 0 1-.08-.06z"></path></g><g class="cls-49"><path class="cls-62" d="M200.1 134.82h.21l.28 1.36a.11.11 0 0 1-.21.05zM200.61 134.72h.15l.13.66a.08.08 0 0 1-.15 0z"></path></g><g class="cls-49"><path class="cls-62" d="M201.07 134.62h.21l.28 1.37a.13.13 0 0 1-.09.13.11.11 0 0 1-.12-.09zM201.57 134.52h.15l.14.66a.08.08 0 0 1-.06.09.09.09 0 0 1-.09-.06z"></path></g><g class="cls-49"><path class="cls-62" d="M202 134.43h.21l.27 1.36a.11.11 0 0 1-.08.13.1.1 0 0 1-.12-.09zM202.54 134.33h.15l.13.66a.07.07 0 0 1 0 .09.07.07 0 0 1-.09-.06z"></path></g><g class="cls-49"><path class="cls-62" d="M203 134.24h.2l.28 1.36a.1.1 0 0 1-.08.12.11.11 0 0 1-.13-.08zM203.51 134.14h.15l.13.66a.08.08 0 0 1-.06.09.09.09 0 0 1-.09-.06z"></path></g><g class="cls-49"><path class="cls-62" d="M204 134h.2l.28 1.36a.11.11 0 0 1-.08.13.11.11 0 0 1-.13-.09zM204.48 133.94h.14l.14.66a.08.08 0 0 1-.15 0z"></path></g><g class="cls-49"><path class="cls-62" d="M204.94 133.85h.21l.27 1.36a.11.11 0 0 1-.08.13.11.11 0 0 1-.12-.08zM205.45 133.74h.14l.14.66s0 .09-.06.09a.08.08 0 0 1-.09-.06z"></path></g><path class="cls-63" d="M157.56 141.73c-1 7.39 2.07 14.84 5.14 12.79 4.81-3.23 11.94-13.81 12.64-13.84.4 0 .76.22 1.93.24a10.66 10.66 0 0 0 2.09-.31c.12 0 .26-.09.26-.21a.23.23 0 0 0-.12-.18 1.46 1.46 0 0 0-.85-.22c-.24 0-.55 0-.62-.27a.37.37 0 0 1 .16-.38 1 1 0 0 1 .39-.16c.76-.19 1.71-.37 2.47-.56-.47-.15-1.12-.29-1.59-.41a6.46 6.46 0 0 0-1.07-.18 13.9 13.9 0 0 0-2.24.09 6.87 6.87 0 0 0-2.38.89 10.2 10.2 0 0 0-1.6 1.08c-1.3 1-6.23 6.79-7.3 7.59M186.58 166.56a34 34 0 0 0-2.26 7.94c-.52 3.6 1.49 9.36 1.26 13.55a13.8 13.8 0 0 1-.49 3.36c-.39.72-1.25 1.52-1.34 2.48a1.51 1.51 0 0 0 1 1.44c.67.31 1.11-.05 1.36 0 1.4.12 1.66 1.13 4.06 1.44a3.89 3.89 0 0 0 2.52-.69.51.51 0 0 0 .09-.71c-.15-.21-1.93-.74-2.73-1.2a5 5 0 0 1-1.75-2.15 20.72 20.72 0 0 1 .36-3.8c1-6.76 2.32-16.27 3-20.21"></path><path class="cls-45" d="M192.84 196.19c.17-.29.2-.72 0-.82a15.76 15.76 0 0 0-1.51-.82c-.46-.19-1.21-.34-.94-.22s-.21.64-.65.63c-1.5 0-2.63-1-3.48-1.14a2.31 2.31 0 0 1-1.6-1.83 5.79 5.79 0 0 0-1.1 1.61 2.67 2.67 0 0 0-.17 1.24 2.85 2.85 0 0 1 .16 1.18 2.36 2.36 0 0 0 .89.28 3.53 3.53 0 0 0 1 0l.09-.74a3.44 3.44 0 0 1 .77 0 2.64 2.64 0 0 1 1.17.59c.18.18.36.47.59.56a5.21 5.21 0 0 0 1.94.4c1.61.06 2.54-.42 2.84-.92z"></path><path class="cls-63" d="M166.07 157.58l-10.89 6.23a6.88 6.88 0 0 0 5.62 5.19c2.86.61 7.36-.21 8.54-.15s20 .74 20 .74 1.87.41 2.2-1.06c.53-2.3 0-3-1.54-4.05-2.63-1.77-12.61-5.05-23.93-6.9z"></path><path class="cls-64" d="M186.37 168a33.52 33.52 0 0 0 0 8.25c.49 3.61 4.21 9.64 5.15 13.73a13.5 13.5 0 0 1 .45 3.37c-.17.8-.78 1.8-.6 2.75a1.48 1.48 0 0 0 1.32 1.12c.73.11 1.06-.35 1.3-.4 1.37-.27 1.91.63 4.3.26a3.87 3.87 0 0 0 2.23-1.36.52.52 0 0 0-.11-.71c-.2-.16-2.05-.17-3-.4a4.91 4.91 0 0 1-2.27-1.58 21 21 0 0 1-.7-3.75c-.87-6.78-2.58-18.2-3-22.18"></path><path class="cls-45" d="M200.76 195.85c.09-.33 0-.76-.18-.81a15.36 15.36 0 0 0-1.68-.37c-.5 0-1.25 0-1 .05s0 .68-.44.78c-1.46.38-2.79-.2-3.67-.13a2.32 2.32 0 0 1-2-1.32 5.73 5.73 0 0 0-.61 1.86 2.57 2.57 0 0 0 .18 1.23 2.73 2.73 0 0 1 .47 1.09 2.33 2.33 0 0 0 .94 0 3.74 3.74 0 0 0 .91-.28l-.11-.74a3.21 3.21 0 0 1 .75-.16 2.51 2.51 0 0 1 1.29.24 2.19 2.19 0 0 0 .73.37 5.06 5.06 0 0 0 2-.15c1.51-.39 2.28-1.1 2.42-1.66z"></path><path class="cls-64" d="M166.3 158.35l-10.9 6.23s.44 4 5.37 5c2.86.61 7.61-.08 8.8 0s20 .74 20 .74 1.84.4 1.93-1.11c.12-2 .27-3-1.27-4-2.64-1.73-12.61-5.01-23.93-6.86z"></path><path class="cls-45" d="M157.51 154.89s-3.41 6.64-2.54 9.47 2.54 5.5 7.22 5.54 16.41 0 16.41 0a17.28 17.28 0 0 1 1.44-5 14.43 14.43 0 0 1 2.69-3.4s-11.9-3.67-12.72-4.45a10.37 10.37 0 0 1-1.63-2.54"></path><path class="cls-61" d="M159.5 133.41a23.35 23.35 0 0 0-2.48 9.4 29.42 29.42 0 0 0 4.71.67"></path><path class="cls-61" d="M168.58 130.91c.63.21.39 1.7 1 1.91.45.15 1.34 0 1.75.18 2.2 1.24 1.64 3.72 1.9 6.79.94 2.36 1.18 4.49.44 5.81-.92 1.63-1.9 2.09-3 3.45-.84 1-1.12 3.09-1.29 5.33 0 .38.29 1.06.19 1.43-.18.72-1.27.94-2.49 1-2.8.05-7-1-8.29-.92s-2.29-.53-2.17-1.23c.08-.48.56-.68.75-1.62.43-2.06.75-7.23 1.08-9 .84-4.48 1.46-7.82 3.3-11.95"></path><path class="cls-60" d="M174.94 141.67a20.37 20.37 0 0 0-2.54-3.33l-2.4 1.07c1.12 2.16 1.33 4.7 1.85 7.06a5.35 5.35 0 0 0 1.38-.13c.23-.38.14-.19.45-.74a9.57 9.57 0 0 0 1.26-3.93z"></path><path class="cls-64" d="M176.58 124.86a12 12 0 0 0 .4-3.1c-.07-1.78-.29-4.35-3.25-5.41s-6.21-.43-7.18 1.71-.75 5.36-.89 7.08a10.61 10.61 0 0 1-1.4 3.79l6.36 2.74a12 12 0 0 1 1.47-2.53c.43-.27.58.81 2 .69.6-.05 1.24-1.13 1.73-2.46v-.14a6.35 6.35 0 0 0 .76-.06c.44-.13.4-.33.31-.6a6.84 6.84 0 0 1-.31-1.71zM186.92 159.8a3.41 3.41 0 0 0 2.08 1.84 1.22 1.22 0 0 0 .73-.14c.37.09 1.47 0 1-.53a3.16 3.16 0 0 0 2.42.12c.29-.06.23-.4-.44-.47a3.26 3.26 0 0 1-2.27-1.36c.12-.12.26.05.63.05s.59-.22.58-.39-.52-.21-.64-.27l-1.32-.59a2.33 2.33 0 0 0-1.34-.26c-.09 0-.94.2-.68.48"></path><path class="cls-64" d="M172 142.89s3.34 9 3.92 9.74c2.29 2.9 11.29 7.46 11.29 7.46a1.76 1.76 0 0 0 1.12-2c-2.77-1.22-7.88-6.83-9-7.51-.72-.44-3.92-11.45-3.92-11.45"></path><path class="cls-61" d="M173.41 132.88c-2.42-.93-4.73-.93-6.58-2.79-1.88 1.45 2.27 9.81 3.29 10s2.42 4.84 2.67 5.47c3.35-.09 4.58-1.92 4.58-1.92-1.37-4.16-1.61-9.87-3.96-10.76z"></path><path class="cls-45" d="M171.47 133.1c-.17-.63-.64-1.13-.75-1.77a2.9 2.9 0 0 1 .36-1.91 3.63 3.63 0 0 1 .83-.78c1.33-1 1.79-1.91 1.34-3.48a4.51 4.51 0 0 1-.22-1.58c.05-.48.14-1 .66-1 .36 0 .59 0 .72.35s-.09 1.73.42.87a3.56 3.56 0 0 0 .89-2.79c0-.23-.08-1.15.06-1.28a3.61 3.61 0 0 1 1.24 2.56c.67-.28.85-1.24.85-1.61a4 4 0 0 0-.35-1.9 5.6 5.6 0 0 0-3.41-3.38 7.8 7.8 0 0 0-3.14-.83c-1.09 0-2.44.36-2.75 1.17-1.51-.39-2.38.93-2.73 1.41a7.49 7.49 0 0 0-1.17 2.24c-.38 1.19-.47 2.46-.78 3.68a5.37 5.37 0 0 1-1.43 2.7c-.74.67-1.77.73-2.57 1.34a4 4 0 0 0-1.53 3.34c.06 1.28.71 2.65-.06 3.83-.25.38-.6.68-.85 1.06a2.94 2.94 0 0 0 .06 3 5.41 5.41 0 0 0 2.6 2.23 7.73 7.73 0 0 0 2.82.38c1.83-.1 3.37 0 5.31-1.65 1.1-.94.4-1.48 1.45-2.47.59-.56 1.43-.86 1.87-1.58a2.87 2.87 0 0 0 .28-2s-.01-.12-.02-.15z"></path><rect class="cls-5" x="120.63" y="253.59" width="24.78" height="24.78" rx="5.23" transform="rotate(-40.95 132.997 265.955)"></rect><path class="cls-6" d="M127 262.51c.42-.36.85-.72 1.25-1.09a.44.44 0 0 1 .59-.08l2 1.27 2 1.25c.49.3 1 .62 1.45.92l1.43.88 1.49.93 1.36.85c.63.39 1.27.76 1.89 1.15a.35.35 0 0 1 0 .32c-.34.33-.71.64-1.07.95l-1 .89a.34.34 0 0 1-.47 0c-.72-.47-1.47-.92-2.2-1.37a1.2 1.2 0 0 1-.21-.17.45.45 0 0 0-.68 0c-.81.72-1.63 1.43-2.45 2.13-.16.14-.18.24-.08.45.39.79.75 1.59 1.1 2.4.27.65.25.65-.29 1.13s-1 .88-1.54 1.34c-.21.19-.36.17-.47-.09l-.69-1.57c-.24-.55-.49-1.09-.74-1.63l-.66-1.51-1-2.3c-.33-.73-.65-1.47-1-2.2s-.67-1.51-1-2.27c-.13-.28-.26-.55-.38-.84a.53.53 0 0 1 .19-.72c.42-.32.81-.68 1.2-1zm1.54 1.92v.14c.24.51.49 1 .74 1.51.32.65.64 1.3 1 1.95.18.37.38.73.56 1.09.11.2.24.21.4.07l1.78-1.55c.15-.13.16-.24-.05-.34s-.59-.34-.88-.53l-2.81-1.92zM140.75 262.19l3 3.4c.21.23.22.38 0 .59-.6.49-1.18 1-1.75 1.52-.24.21-.39.19-.6-.05-2-2.27-3.92-4.53-5.88-6.79-.37-.42-.36-.44.05-.79s1.08-.91 1.6-1.4c.26-.24.42-.23.65.05 1 1.16 2 2.31 3 3.47zM133.45 256.16a1.55 1.55 0 0 1 2.29.12 1.48 1.48 0 0 1-.25 2.24 1.53 1.53 0 0 1-2.29-.11 1.55 1.55 0 0 1 .25-2.25z"></path></g></g></svg> 