<?xml version="1.0" encoding="UTF-8"?> <svg xmlns="http://www.w3.org/2000/svg" width="61" height="60" viewBox="0 0 61 60" fill="none"><path d="M26.0957 14.5889C19.7259 14.5889 14.5889 19.7259 14.5889 26.0957C14.5889 32.4656 19.7259 37.6026 26.0957 37.6026C32.4656 37.6026 37.6026 32.4656 37.6026 26.0957C37.6026 19.7259 32.4656 14.5889 26.0957 14.5889ZM26.0957 16.4382C31.4382 16.4382 35.5478 20.7533 35.7532 25.8902L29.7943 28.5615C29.1779 27.1231 27.7395 26.0957 26.0957 26.0957C24.4519 26.0957 23.0135 27.1231 22.3971 28.5615L16.4382 25.6848C16.6437 20.5478 20.9587 16.4382 26.0957 16.4382ZM27.945 29.9998C27.945 31.0272 27.1231 31.8491 26.0957 31.8491C25.0683 31.8491 24.2464 31.0272 24.2464 29.9998C24.2464 28.9724 25.0683 28.1505 26.0957 28.1505C27.1231 28.1505 27.945 28.9724 27.945 29.9998ZM26.0957 35.7532C21.3697 35.7532 17.4656 32.4656 16.6437 27.945L22.3971 30.6163C22.808 32.4656 24.2464 33.9039 26.3012 33.9039C28.1505 33.9039 29.7943 32.4656 30.2053 30.6163L35.9587 28.1505C34.7258 32.4656 30.8217 35.7532 26.0957 35.7532Z" fill="#009AB5"></path><path d="M43.1507 35.137C42.7397 34.726 42.1233 34.726 41.7123 35.137L40.4795 36.3699L39.0411 34.726C40.6849 32.2603 41.7123 29.3836 41.7123 26.0959C41.7123 25.8904 41.7123 25.6849 41.7123 25.4795L48.2877 22.6027C48.9041 23.0137 49.726 23.4247 50.5479 23.4247C52.6027 23.4247 54.452 21.7808 54.452 19.5205C54.452 18.0822 53.8356 17.0548 52.8082 16.2329L56.0959 7.80822H56.3014C58.3562 7.80822 60.2055 6.16438 60.2055 3.90411C60.2055 1.64384 58.1507 0 56.0959 0C54.0411 0 52.1918 1.64384 52.1918 3.90411C52.1918 5.34247 52.8082 6.36986 53.8356 7.19178L50.5479 15.6164H50.3425C49.726 15.6164 49.1096 15.8219 48.4931 16.2329L42.9452 10.0685C43.3562 9.45205 43.5616 8.83562 43.5616 8.0137C43.5616 5.9589 41.9178 4.10959 39.6575 4.10959C38.2192 4.10959 36.9863 4.93151 36.3699 5.9589L21.3699 4.10959C21.3699 4.10959 21.3699 4.10959 21.3699 3.90411C21.3699 1.84932 19.726 0 17.4658 0C15.2055 0 13.5616 1.64384 13.5616 3.90411C13.5616 4.93151 13.9726 5.75342 14.589 6.36986L5.75342 17.8767C5.34246 17.6712 5.13699 17.6712 4.93151 17.4658V7.60274C6.57534 7.19178 7.80822 5.75342 7.80822 3.90411C7.80822 1.84932 6.16438 0 3.90411 0C1.64384 0 0 1.64384 0 3.90411C0 5.75342 1.23288 7.19178 2.87671 7.60274V17.4658C1.23288 17.8767 0 19.5205 0 21.3699C0 23.4247 1.64384 25.274 3.90411 25.274C5.13699 25.274 6.36986 24.6575 7.19178 23.6301L10.8904 25.274C10.8904 25.6849 10.8904 25.8904 10.8904 26.3014C10.8904 34.9315 17.8767 41.7123 26.3014 41.7123C29.3836 41.7123 32.4658 40.6849 34.9315 39.0411L36.5753 40.6849L35.3425 41.9178C35.137 42.1233 35.137 42.3288 35.137 42.5342C35.137 42.7397 35.137 42.9452 35.3425 43.1507L50.3425 58.1507C51.3699 59.1781 52.8082 59.7945 54.452 59.7945C57.5342 59.7945 60.2055 57.1233 60.2055 54.0411C60.2055 52.6027 59.589 50.9589 58.5616 49.9315L43.1507 35.137ZM56.0959 1.84932C57.1233 1.84932 57.9452 2.67123 57.9452 3.69863C57.9452 4.72603 57.1233 5.54795 56.0959 5.54795C55.0685 5.54795 54.2466 4.72603 54.2466 3.69863C54.2466 2.67123 55.0685 1.84932 56.0959 1.84932ZM53.8356 48.2877L48.4931 53.6301L40.274 45.411L45.6164 40.0685L53.8356 48.2877ZM52.1918 19.3151C52.1918 20.3425 51.3699 21.1644 50.3425 21.1644C49.3151 21.1644 48.4931 20.3425 48.4931 19.3151C48.4931 18.2877 49.3151 17.4658 50.3425 17.4658C51.3699 17.4658 52.1918 18.2877 52.1918 19.3151ZM39.6575 5.75342C40.6849 5.75342 41.5068 6.57534 41.5068 7.60274C41.5068 8.63014 40.6849 9.45205 39.6575 9.45205C38.6301 9.45205 37.8082 8.63014 37.8082 7.60274C37.8082 6.57534 38.6301 5.75342 39.6575 5.75342ZM17.4658 1.84932C18.4931 1.84932 19.3151 2.67123 19.3151 3.69863C19.3151 4.72603 18.4931 5.75342 17.4658 5.75342C16.4384 5.75342 15.411 4.93151 15.411 3.90411C15.411 2.87671 16.4384 1.84932 17.4658 1.84932ZM1.84931 3.90411C1.84931 2.87671 2.67123 2.05479 3.69863 2.05479C4.72603 2.05479 5.54794 2.87671 5.54794 3.90411C5.54794 4.93151 4.93151 5.75342 3.90411 5.75342C2.87671 5.75342 1.84931 4.93151 1.84931 3.90411ZM3.90411 23.2192C2.87671 23.2192 2.05479 22.3973 2.05479 21.3699C2.05479 20.3425 2.87671 19.5205 3.90411 19.5205C4.93151 19.5205 5.75342 20.3425 5.75342 21.3699C5.75342 22.3973 4.93151 23.2192 3.90411 23.2192ZM7.60274 21.5753C7.60274 21.3699 7.60274 21.3699 7.60274 21.1644C7.60274 20.3425 7.39726 19.726 6.9863 19.1096L16.0274 7.39726C16.4384 7.60274 17.0548 7.80822 17.4658 7.80822C18.9041 7.80822 20.137 6.9863 20.7534 5.9589L35.7534 7.80822C35.7534 7.80822 35.7534 7.80822 35.7534 8.0137C35.7534 10.0685 37.3973 11.9178 39.6575 11.9178C40.274 11.9178 40.8904 11.7123 41.5068 11.3014L47.0548 17.4658C46.6438 18.0822 46.4384 18.6986 46.4384 19.5205C46.4384 20.137 46.6438 20.5479 46.8493 21.1644L41.5068 23.6301C40.274 16.4384 33.9041 10.8904 26.3014 10.8904C18.6986 10.8904 12.5342 16.2329 11.0959 23.4247L7.60274 21.5753ZM12.5342 26.0959C12.5342 18.6986 18.6986 12.5342 26.0959 12.5342C33.4931 12.5342 39.6575 18.6986 39.6575 26.0959C39.6575 33.4931 33.4931 39.6575 26.0959 39.6575C18.6986 39.6575 12.5342 33.4931 12.5342 26.0959ZM36.1644 37.8082C36.7808 37.3973 37.1918 36.7808 37.6027 36.3699L39.0411 37.8082L37.6027 39.2466L36.1644 37.8082ZM38.4247 41.3014L42.5342 37.1918L43.9726 38.6301L38.6301 43.9726L37.1918 42.5342L38.4247 41.3014ZM54.2466 57.9452C53.2192 57.9452 52.1918 57.5342 51.5753 56.9178L49.726 55.0685L55.0685 49.726L56.9178 51.5753C57.7397 52.3973 57.9452 53.2192 57.9452 54.2466C57.9452 56.3014 56.3014 57.9452 54.2466 57.9452Z" fill="#211D51"></path><path d="M53.2192 53.2188H55.0686V55.0681H53.2192V53.2188Z" fill="#211D51"></path></svg> 