<?xml version="1.0" encoding="UTF-8"?> <svg xmlns="http://www.w3.org/2000/svg" width="60" height="65" viewBox="0 0 60 65" fill="none"><path d="M28.9719 0H31.028V6.16822H28.9719V0Z" fill="#211D51"></path><path d="M8.03735 9.53244L9.53268 8.03711L14.0187 12.3362L12.5233 13.8315L8.03735 9.53244Z" fill="#211D51"></path><path d="M0 28.9717H6.16822V31.0278H0V28.9717Z" fill="#211D51"></path><path d="M53.8318 28.9717H60V31.0278H53.8318V28.9717Z" fill="#211D51"></path><path d="M46.1682 12.5231L50.4673 8.03711L51.9626 9.53244L47.6635 13.8315L46.1682 12.5231Z" fill="#211D51"></path><path d="M44.299 46.3554C48.9719 42.2433 51.7756 36.262 51.7756 29.9068C51.7756 23.9255 49.3457 18.318 45.0467 14.2059C40.7476 10.0937 34.9532 8.03767 28.9719 8.22459C17.7569 8.78533 8.59806 18.1311 8.41114 29.533C8.22422 35.8881 11.028 42.0564 15.7009 46.3554C16.2616 46.7293 16.6354 47.29 17.0093 47.8508C15.7009 48.2246 14.5794 49.3461 14.5794 50.8414C14.5794 51.5891 14.9532 52.3367 15.327 52.8975C14.7663 53.4582 14.5794 54.2059 14.5794 54.9536C14.5794 56.6358 15.8878 58.1311 17.7569 58.1311H19.9999C21.8691 61.8694 25.7943 64.2994 30.0934 64.2994C34.3925 64.2994 38.3177 61.8694 40.1868 58.1311H42.4298C44.1121 58.1311 45.6074 56.8227 45.6074 54.9536C45.6074 54.2059 45.2336 53.4582 44.8597 52.8975C45.4205 52.3367 45.6074 51.5891 45.6074 50.8414C45.6074 49.3461 44.4859 48.0377 43.1775 47.8508C43.5513 47.29 43.9252 46.7293 44.299 46.3554ZM10.2803 29.533C10.4672 19.2526 18.6915 10.8414 28.9719 10.2807C34.3924 9.90683 39.6261 11.9629 43.5513 15.7012C47.4766 19.4395 49.7196 24.4863 49.7196 29.9068C49.7196 35.5143 47.2896 40.9349 42.9906 44.6732C42.056 45.4208 41.3083 46.3554 40.7476 47.4769H19.2523C18.6915 46.3554 17.9439 45.4208 17.0093 44.6732C12.7102 40.9349 10.2803 35.3274 10.2803 29.533ZM30.0934 62.0564C26.9158 62.0564 24.1121 60.561 22.4298 57.9442H37.9438C36.0747 60.561 33.084 62.0564 30.0934 62.0564ZM42.4298 55.8881H17.57C17.0093 55.8881 16.4485 55.5143 16.4485 54.7666C16.4485 54.019 16.8224 53.6451 17.57 53.6451H42.4298C42.9906 53.6451 43.5513 54.019 43.5513 54.7666C43.5513 55.5143 42.9906 55.8881 42.4298 55.8881ZM43.5513 50.6545C43.5513 51.2152 43.1775 51.776 42.4298 51.776H17.57C17.0093 51.776 16.4485 51.4022 16.4485 50.6545C16.4485 49.9068 16.8224 49.533 17.57 49.533H42.4298C42.9906 49.7199 43.5513 50.0937 43.5513 50.6545Z" fill="#211D51"></path><path d="M17.57 34.2055C17.57 35.8878 18.8784 37.3831 20.7475 37.3831H23.9251V35.5139C23.9251 34.9532 24.2989 34.3924 24.8597 34.3924C25.2335 34.3924 25.4204 34.3924 25.7943 34.5794C25.9812 34.7663 26.1681 35.1401 26.1681 35.327V37.3831H43.7382C45.4204 37.3831 46.9158 36.0747 46.9158 34.2055V31.0279H43.7382C43.3643 31.0279 43.1774 30.841 42.9905 30.6541C42.8036 30.4672 42.6167 30.0934 42.8036 29.7195C42.8036 29.1588 43.3643 28.785 43.9251 28.785H46.9158V25.6074C46.9158 23.9251 45.6073 22.4298 43.7382 22.4298H41.6821V21.4952C41.6821 19.9999 40.5606 18.5046 39.0653 18.3177C38.1307 18.1307 37.1961 18.5046 36.4485 19.0653C35.7008 19.6261 35.327 20.5607 35.327 21.4952V22.6167H25.9812V24.4859C25.9812 25.0466 25.6073 25.6074 25.0466 25.6074C24.6728 25.6074 24.4858 25.6074 24.112 25.4205C23.9251 25.2336 23.7382 24.8597 23.7382 24.6728V22.6167H20.5606C18.8784 22.6167 17.383 23.9251 17.383 25.7943V26.9158H16.6354C15.14 26.9158 13.6447 28.0373 13.4578 29.5326C13.2709 30.4672 13.6447 31.4018 14.2055 32.1494C14.7662 32.8971 15.7008 33.2709 16.6354 33.2709H17.7569V34.2055H17.57ZM32.1494 24.8597H37.383V21.6822C37.383 21.3083 37.57 21.1214 37.7569 20.9345C37.9438 20.7476 38.3176 20.5607 38.6915 20.7476C39.2522 20.7476 39.626 21.3083 39.626 21.8691V24.8597H43.7382C44.2989 24.8597 44.8597 25.2336 44.8597 25.9812V27.1027H43.9251C42.4298 27.1027 40.9344 28.2242 40.7475 29.7195C40.5606 30.6541 40.9344 31.5887 41.4952 32.3364C42.0559 33.084 42.9905 33.4579 43.9251 33.4579H45.0466V34.5794C45.0466 35.1401 44.6728 35.7008 43.9251 35.7008H32.5232V33.6448H33.6447C34.5793 33.6448 35.327 33.2709 36.0746 32.5233C36.6354 31.7756 37.0092 30.841 36.8223 29.9065C36.6354 28.4111 35.14 27.2896 33.6447 27.2896H32.7101V24.8597H32.1494ZM16.6354 31.0279C16.2615 31.0279 16.0746 30.841 15.8877 30.6541C15.7008 30.4672 15.5139 30.0934 15.7008 29.7195C15.7008 29.1588 16.2615 28.785 16.8223 28.785H19.8129V25.6074C19.8129 25.0466 20.1868 24.4859 20.9344 24.4859H22.0559C22.0559 25.4205 22.4298 26.1681 23.1774 26.9158C23.9251 27.4765 24.8597 27.8504 25.7943 27.6635C27.2896 27.4765 28.4111 26.1681 28.4111 24.6728H30.4671V28.785H33.4578C34.0186 28.785 34.5793 29.1588 34.5793 29.7195C34.5793 30.0934 34.5793 30.2803 34.3924 30.6541C34.2055 30.841 33.8316 31.0279 33.6447 31.0279H30.4671V35.1401H28.0372C28.0372 34.2055 27.6634 33.4579 26.9157 32.7102C26.1681 32.1494 25.2335 31.7756 24.2989 31.9625C22.8036 32.1494 21.6821 33.4579 21.6821 34.9532H20.5606C19.9999 34.9532 19.4391 34.5794 19.4391 33.8317V30.6541H16.6354V31.0279Z" fill="#009AB5"></path></svg> 