<?xml version="1.0" encoding="UTF-8"?> <svg xmlns="http://www.w3.org/2000/svg" width="60" height="60" viewBox="0 0 60 60" fill="none"><path d="M57.1812 6.04027H48.9262C49.9329 5.43624 50.3356 4.42953 50.3356 3.42282C50.3356 1.4094 48.9262 0 47.1141 0C45.302 0 43.6913 1.4094 43.6913 3.42282C43.6913 4.02685 43.8926 4.42953 44.094 5.03356L42.8859 6.04027H26.7785C26.1745 4.83221 25.1678 4.02685 23.7584 4.02685C22.349 4.02685 21.1409 4.83221 20.7383 6.04027H2.61745C1.20805 6.04027 0 7.04698 0 8.65772V15.1007C0 15.5034 0.402685 15.906 0.805369 15.906C1.20805 15.906 1.61074 15.5034 1.61074 15.1007V8.65772C1.61074 8.25503 2.01342 7.85235 2.41611 7.85235H20.3356C20.3356 8.25503 20.5369 8.45638 20.5369 8.85906L13.2886 15.302C12.8859 15.1007 12.2819 14.8993 11.4765 14.8993C9.66443 14.8993 8.25503 16.3087 8.25503 18.1208C8.25503 19.9329 9.66443 21.5436 11.6779 21.5436C13.6913 21.5436 14.8993 19.9329 14.8993 18.1208C14.8993 17.5168 14.698 17.1141 14.4966 16.7114L21.9463 10.0671C22.5503 10.4698 23.1544 10.6711 23.7584 10.6711C24.7651 10.6711 25.5705 10.2685 26.1745 9.66443L32.2148 13.2886C32.2148 13.4899 32.2148 13.6913 32.2148 13.8926C32.2148 15.7047 33.6242 17.3154 35.6376 17.3154C37.4497 17.3154 39.0604 15.906 39.0604 13.8926C39.0604 13.4899 38.8591 12.8859 38.8591 12.4832L44.094 7.85235H57.7852C58.1879 7.85235 58.5906 8.25503 58.5906 8.65772V30.2013C58.5906 30.604 58.9933 31.0067 59.396 31.0067C59.7987 31.0067 60.2013 30.604 60.2013 30.2013V8.65772C60 7.04698 58.792 6.04027 57.1812 6.04027ZM11.4765 19.7315C10.6711 19.7315 9.86577 19.1275 9.86577 18.1208C9.86577 17.3154 10.6711 16.5101 11.4765 16.5101C12.2819 16.5101 13.0872 17.3154 13.0872 18.1208C13.0872 19.1275 12.4832 19.7315 11.4765 19.7315ZM23.7584 8.85906C22.953 8.85906 22.1477 8.05369 22.1477 7.24832C22.1477 6.44295 22.953 5.63758 23.7584 5.63758C24.5638 5.63758 25.3691 6.44295 25.3691 7.24832C25.3691 8.05369 24.5638 8.85906 23.7584 8.85906ZM35.4362 15.302C34.6309 15.302 33.8255 14.4966 33.8255 13.6913C33.8255 12.8859 34.6309 12.0805 35.4362 12.0805C36.2416 12.0805 37.047 12.8859 37.047 13.6913C37.047 14.698 36.2416 15.302 35.4362 15.302ZM37.2483 11.0738C36.6443 10.6711 36.0403 10.4698 35.2349 10.4698C34.2282 10.4698 33.4228 10.8725 32.8188 11.4765L26.9799 8.05369C26.9799 7.85235 26.9799 7.85235 26.9799 7.65101H40.8725L37.2483 11.0738ZM47.1141 4.83222C46.3087 4.83222 45.5034 4.02685 45.5034 3.22148C45.5034 2.41611 46.3087 1.61074 47.1141 1.61074C47.9195 1.61074 48.7248 2.41611 48.7248 3.22148C48.5235 4.22819 47.9195 4.83222 47.1141 4.83222Z" fill="#009AB5"></path><path d="M60 33.8254C60 33.4227 59.5973 33.02 59.1946 33.02C58.792 33.02 58.3893 33.4227 58.3893 33.8254V40.4697H51.9463V19.5301V16.1073V12.4831C51.9463 12.0804 51.5436 11.6777 51.1409 11.6777H44.2953C43.8926 11.6777 43.4899 12.0804 43.4899 12.4831V16.1073V19.7314V40.4697H40.2685V36.0401V32.416V28.7918C40.2685 28.3891 39.8658 27.9865 39.4631 27.9865H32.8188C32.4161 27.9865 32.0134 28.3891 32.0134 28.7918V32.416V36.0401V40.4697H28.7919V24.765V21.1408V17.3153C28.7919 16.9126 28.3893 16.5099 27.9866 16.5099H21.3423C20.9396 16.5099 20.5369 16.9126 20.5369 17.3153V20.9395V24.5636V29.3959C20.5369 29.7985 20.9396 30.2012 21.3423 30.2012C21.745 30.2012 22.1477 29.7985 22.1477 29.3959V25.369H26.9799V40.2683H22.1477V32.8187C22.1477 32.416 21.745 32.0133 21.3423 32.0133C20.9396 32.0133 20.1342 32.6173 20.1342 33.02V40.4697H16.7114V36.0401V32.416V28.7918C16.7114 28.3891 16.3087 27.9865 15.906 27.9865H9.26175C8.85906 27.9865 8.45638 28.3891 8.45638 28.7918V32.416V36.0401V40.4697H1.81208V18.5234C1.81208 18.1207 1.4094 17.718 1.00671 17.718C0.402685 17.718 0 18.1207 0 18.5234V47.5167C0 49.1274 1.20805 50.3355 2.61745 50.3355H21.745L21.3423 54.765H17.1141C16.7114 54.765 16.3087 55.1677 16.3087 55.5703V58.5905C16.3087 58.9932 16.7114 59.3959 17.1141 59.3959H42.6846C43.0873 59.3959 43.4899 58.9932 43.4899 58.5905V55.5703C43.4899 55.1677 43.0873 54.765 42.6846 54.765H38.4564L38.0537 50.3355H57.1812C58.5906 50.3355 59.7987 49.1274 59.7987 47.718C59.7987 47.718 59.7987 41.4764 59.7987 41.275L60 33.8254ZM45.1007 13.2885H49.9329V15.1006H45.1007V13.2885ZM45.1007 16.9126H49.9329V18.7247H45.1007V16.9126ZM45.1007 20.5368H49.9329V40.4697H45.1007V20.5368ZM33.4228 29.5972H38.255V31.4093H33.4228V29.5972ZM33.4228 33.2214H38.255V35.0334H33.4228V33.2214ZM33.4228 36.8455H38.255V40.4697H33.4228V36.8455ZM21.745 20.1341V18.322H26.5772V20.1341H21.745ZM21.745 23.7583V21.9462H26.5772V23.7583H21.745ZM10.0671 29.5972H14.8993V31.4093H10.0671V29.5972ZM10.0671 33.2214H14.8993V35.0334H10.0671V33.2214ZM10.0671 36.8455H14.8993V40.4697H10.0671V36.8455ZM41.8792 56.3757V57.7851H18.1208V56.3757H41.8792ZM23.1544 54.5636L23.557 50.1341H36.2416L36.6443 54.5636H23.1544ZM57.1812 48.5234H2.61745C2.21477 48.5234 1.81208 48.1207 1.81208 47.718V42.2818H58.1879V47.718C58.1879 48.1207 57.7852 48.5234 57.1812 48.5234Z" fill="#211D51"></path></svg> 