<?xml version="1.0" encoding="UTF-8"?> <svg xmlns="http://www.w3.org/2000/svg" width="61" height="61" viewBox="0 0 61 61" fill="none"><path d="M56.9595 0H3.04054C1.41892 0 0 1.41892 0 3.04054V57.1622C0 58.7838 1.41892 60.2027 3.04054 60.2027H57.1622C58.7838 60.2027 60.2027 58.7838 60.2027 57.1622V3.04054C60 1.41892 58.5811 0 56.9595 0ZM57.973 56.9595C57.973 57.5676 57.5676 57.973 56.9595 57.973H3.04054C2.43243 57.973 2.02703 57.5676 2.02703 56.9595V9.93243H57.973V56.9595ZM57.973 7.90541H2.02703V3.04054C2.02703 2.43243 2.43243 2.02703 3.04054 2.02703H57.1622C57.7703 2.02703 58.1757 2.43243 58.1757 3.04054L57.973 7.90541Z" fill="#211D51"></path><path d="M4.25669 4.25669C3.85129 4.6621 3.85129 5.2702 4.25669 5.67561C4.6621 6.08101 5.2702 6.08101 5.67561 5.67561C6.08101 5.2702 6.08101 4.6621 5.67561 4.25669C5.2702 3.85129 4.6621 3.85129 4.25669 4.25669Z" fill="#211D51"></path><path d="M9.52698 4.25641C9.52698 4.05371 9.52698 4.05371 9.52698 4.25641C9.32428 4.05371 9.32428 4.05371 9.12158 4.05371C8.91888 4.05371 8.71617 4.05371 8.71617 4.05371C8.51347 4.05371 8.31077 4.25641 8.31077 4.25641C7.90536 4.66182 7.90536 5.26993 8.31077 5.67533C8.31077 5.67533 8.51347 5.87804 8.71617 5.87804C8.91888 5.87804 8.91888 5.87804 9.12158 5.87804H9.32428H9.52698H9.72969C9.72969 5.87804 9.72969 5.87804 9.93239 5.67533C9.93239 5.67533 9.93239 5.67533 10.1351 5.47263V5.26993V5.06722V4.86452C9.93239 4.66182 9.93239 4.45912 9.52698 4.25641C9.72969 4.25641 9.52698 4.25641 9.52698 4.25641Z" fill="#211D51"></path><path d="M13.9865 4.6618C13.9865 4.45909 13.7838 4.45909 13.9865 4.6618C13.7838 4.45909 13.7838 4.25639 13.7838 4.25639C13.3784 4.05369 12.973 3.85099 12.5676 4.05369C12.1622 4.25639 11.9595 4.6618 11.9595 5.0672C11.9595 5.47261 12.1622 5.87801 12.5676 6.08072C12.973 6.08072 13.3784 6.08072 13.7838 5.67531C13.7838 5.67531 13.7838 5.67531 13.9865 5.47261V5.2699V5.0672V4.8645C13.9865 4.8645 13.9865 4.8645 13.9865 4.6618Z" fill="#211D51"></path><path d="M37.0946 4.05371H23.1081C22.5 4.05371 22.0946 4.45912 22.0946 5.06722C22.0946 5.67533 22.5 6.08074 23.1081 6.08074H37.0946C37.7027 6.08074 38.1081 5.67533 38.1081 5.06722C38.1081 4.45912 37.5 4.05371 37.0946 4.05371Z" fill="#211D51"></path><path d="M54.9324 4.05371H53.9189C53.3108 4.05371 52.9054 4.45912 52.9054 5.06722C52.9054 5.67533 53.5135 6.08074 54.1216 6.08074H55.1351C55.7432 6.08074 56.1486 5.67533 56.1486 5.06722C56.1486 4.45912 55.5405 4.05371 54.9324 4.05371Z" fill="#211D51"></path><path d="M50.0676 4.05371H49.054C48.4459 4.05371 48.0405 4.45912 48.0405 5.06722C48.0405 5.67533 48.4459 6.08074 49.054 6.08074H50.0676C50.6757 6.08074 51.0811 5.67533 51.0811 5.06722C51.0811 4.45912 50.473 4.05371 50.0676 4.05371Z" fill="#211D51"></path><path d="M8.91889 23.1082C11.3513 23.1082 13.3784 21.4866 13.7838 19.0542H17.4324L16.2162 20.2704C16.0135 20.4731 15.8108 20.8785 16.0135 21.2839C16.0135 21.6893 16.4189 21.892 16.8243 22.0947C17.2297 22.0947 17.6351 22.0947 17.8378 21.892L20.4729 19.2569H24.1216V21.2839C24.1216 22.2974 24.9324 23.3109 26.1486 23.3109H42.1621C43.1756 23.3109 44.1892 22.5001 44.1892 21.2839V19.2569H54.1216V31.2163H35.4729L36.6892 30.0001C36.8919 29.7974 37.0946 29.392 36.8919 28.9866C36.8919 28.5812 36.4865 28.3785 36.0811 28.1758C35.6756 28.1758 35.2702 28.1758 35.0675 28.3785L32.4324 31.0136H29.7973V28.9866C29.7973 27.9731 28.9865 26.9596 27.7702 26.9596H11.9594C10.9459 26.9596 9.93241 27.7704 9.93241 28.9866V35.0677C9.93241 36.0812 10.7432 37.0947 11.9594 37.0947H19.054V40.5407L17.8378 39.3244C17.4324 38.919 16.8243 38.919 16.4189 39.3244C16.0135 39.7298 16.0135 40.338 16.4189 40.7434L19.054 43.3785V45.0001H15C14.5946 45.0001 14.1892 45.2028 14.1892 45.6082L10.1351 53.5136C9.93241 53.919 9.93241 54.1217 10.1351 54.5271C10.3378 54.7298 10.5405 54.9325 10.9459 54.9325H24.9324C25.3378 54.9325 25.7432 54.7298 25.7432 54.3244L27.5675 50.8785H41.554L40.3378 52.0947C40.1351 52.2974 39.9324 52.7028 40.1351 53.1082C40.1351 53.5136 40.5405 53.7163 40.9459 53.919C41.3513 54.1217 41.7567 53.919 41.9594 53.7163L44.5946 51.0812H46.2162C46.8243 53.5136 49.054 55.338 51.6892 55.1353C54.3243 54.9325 56.1486 52.7028 56.1486 50.0677C56.1486 47.4325 54.1216 45.4055 51.6892 45.0001C49.054 44.7974 46.8243 46.419 46.2162 49.0542H44.5946L41.9594 46.419C41.554 46.0136 40.9459 46.0136 40.5405 46.419C40.1351 46.8244 40.1351 47.4325 40.5405 47.838L41.7567 49.0542H28.7838L30 46.419C30.2027 46.0136 30.2027 45.8109 30 45.4055C29.7973 45.2028 29.5946 45.0001 29.1892 45.0001H21.2838V43.3785L23.9189 40.7434C24.3243 40.338 24.3243 39.7298 23.9189 39.3244C23.5135 38.919 22.9054 38.919 22.5 39.3244L21.0811 40.5407V36.892H28.1756C29.1892 36.892 30.2027 36.0812 30.2027 34.865V32.838H32.8378L35.4729 35.4731C35.8783 35.8785 36.4865 35.8785 36.8919 35.4731C37.2973 35.0677 37.2973 34.4596 36.8919 34.0542L35.6756 32.838H55.3378C55.5405 32.838 55.9459 32.6353 55.9459 32.6353C56.1486 32.4325 56.1486 32.2298 56.1486 32.0271V18.0407C56.1486 17.838 55.9459 17.4325 55.9459 17.4325C55.7432 17.2298 55.5405 17.2298 55.3378 17.2298H44.3919V15.2028C44.3919 14.1893 43.5811 13.1758 42.3648 13.1758H26.3513C25.3378 13.1758 24.3243 13.9866 24.3243 15.2028V17.2298H20.6756L17.6351 14.392C17.2297 13.9866 16.6216 13.9866 16.2162 14.392C16.0135 14.5947 16.0135 15.4055 16.2162 15.8109L17.4324 17.0271H13.9865C13.3784 14.392 10.9459 12.7704 8.51349 12.9731C5.67565 13.3785 3.85133 15.8109 4.05403 18.2434C4.25673 20.6758 6.28376 23.1082 8.91889 23.1082ZM51.0811 47.0271C52.7027 47.0271 54.1216 48.4461 54.1216 50.0677C54.1216 51.6893 52.7027 53.1082 51.0811 53.1082C49.4594 53.1082 48.0405 51.6893 48.0405 50.0677C48.0405 48.4461 49.4594 47.0271 51.0811 47.0271ZM27.3648 47.0271L24.3243 53.1082H12.5675L15.6081 47.0271H27.3648ZM11.9594 35.0677V28.9866H27.9729V32.0271V35.0677H11.9594ZM25.9459 15.0001H41.9594V18.0407V21.0812H25.9459V15.0001ZM8.91889 15.0001C10.5405 15.0001 11.9594 16.419 11.9594 18.0407C11.9594 19.6623 10.5405 21.0812 8.91889 21.0812C7.29727 21.0812 6.08105 19.6623 6.08105 18.0407C6.08105 16.419 7.29727 15.0001 8.91889 15.0001Z" fill="#009AB5"></path></svg> 