<?xml version="1.0" encoding="UTF-8"?> <svg xmlns="http://www.w3.org/2000/svg" width="60" height="60" viewBox="0 0 60 60" fill="none"><path d="M54.0411 3.49315H50.9589C50.7534 1.64384 49.3151 0 47.2603 0H32.2603C30.2055 0 28.5616 1.64384 28.5616 3.49315H25.4795C22.1918 3.49315 19.5205 6.16438 19.5205 9.45205V21.5753H8.63014C8.21918 21.5753 7.80822 21.9863 7.80822 22.3973C7.80822 22.8082 8.21918 23.2192 8.63014 23.2192H25.274C26.7123 23.2192 27.9452 24.4521 27.9452 25.8904V32.4658H1.84932V25.8904C1.84932 24.4521 3.08219 23.2192 4.52055 23.2192H5.13699C5.54795 23.2192 5.9589 22.8082 5.9589 22.3973C5.9589 21.9863 5.54795 21.5753 5.13699 21.5753H4.52055C2.05479 21.5753 0 23.6301 0 26.0959V55.4795C0 57.9452 2.05479 60 4.52055 60H25.274C27.7397 60 29.589 58.1507 29.7945 55.8904H54.0411C57.3288 55.8904 60 53.2192 60 49.9315V9.45205C60 6.16438 57.3288 3.49315 54.0411 3.49315ZM43.5616 9.24658H35.9589C35.5479 7.80822 34.1096 6.57534 32.4658 6.57534H32.2603C31.4384 6.57534 30.8219 5.9589 30.411 5.34247H48.9041C48.6986 6.16438 48.0822 6.57534 47.2603 6.57534H47.0548C45.411 6.57534 43.9726 7.60274 43.5616 9.24658ZM43.1507 10.8904C42.9452 11.5069 42.1233 12.1233 41.5069 12.1233H38.0137C37.1918 12.1233 36.5753 11.7123 36.3699 10.8904H43.1507ZM32.2603 1.84932H47.2603C48.2877 1.84932 49.1096 2.67123 49.1096 3.69863H30.411C30.411 2.46575 31.2329 1.84932 32.2603 1.84932ZM21.3699 9.45205C21.3699 7.19178 23.2192 5.34247 25.4795 5.34247H28.7671C28.9726 6.9863 30.6164 8.42466 32.4658 8.42466H32.6712C33.2877 8.42466 33.9041 8.83562 34.3151 9.24658H25.6849C25.0685 9.24658 24.4521 9.86301 24.4521 10.4795V21.5753H21.5753V9.45205H21.3699ZM27.9452 41.0959H20.5479V34.3151H28.1507V41.0959H27.9452ZM18.6986 58.1507H11.0959V51.3699H18.6986V58.1507ZM18.6986 49.5205H11.0959V42.7397H18.6986V49.5205ZM1.84932 42.7397H9.45205V49.5205H1.84932V42.7397ZM11.0959 41.0959V34.3151H18.6986V41.0959H11.0959ZM9.24658 34.3151V41.0959H1.84932V34.3151H9.24658ZM1.84932 55.274V51.3699H9.45205V58.1507H4.52055C3.08219 58.1507 1.84932 56.9178 1.84932 55.274ZM25.274 58.1507H20.5479V42.9452H28.1507V55.4795C27.9452 56.9178 26.7123 58.1507 25.274 58.1507ZM58.1507 49.9315C58.1507 52.1918 56.3014 54.0411 54.0411 54.0411H29.7945V51.1644H54.0411C54.6575 51.1644 55.274 50.5479 55.274 49.9315V44.3836C55.274 43.9726 54.863 43.5616 54.4521 43.5616C54.0411 43.5616 53.6301 43.9726 53.6301 44.3836V49.3151H29.7945V26.0959C29.7945 23.8356 28.1507 21.9863 26.0959 21.5753V10.8904H34.5205C34.9315 12.5342 36.3699 13.7671 38.0137 13.7671H41.5069C43.3562 13.7671 44.7945 12.5342 45 10.8904H53.4247V40.4795C53.4247 40.8904 53.8356 41.3014 54.2466 41.3014C54.6575 41.3014 55.0685 40.8904 55.0685 40.4795V10.274C55.0685 9.65753 54.4521 9.0411 53.8356 9.0411H45.2055C45.6164 8.63014 46.0274 8.21918 46.8493 8.21918H47.2603C49.1096 8.21918 50.5479 6.9863 50.9589 5.13699H54.2466C56.5069 5.13699 58.3562 6.9863 58.3562 9.24658V49.9315H58.1507Z" fill="#211D51"></path><path d="M20.5479 25.0684C19.726 25.0684 19.3151 25.4793 19.3151 26.3012V27.5341C19.3151 28.356 19.726 28.767 20.5479 28.767C21.3699 28.767 21.7808 28.356 21.7808 27.5341V26.3012C21.7808 25.4793 21.3699 25.0684 20.5479 25.0684ZM20.5479 25.8903C20.7534 25.8903 20.9589 26.0958 20.9589 26.3012V27.5341C20.9589 27.7396 20.7534 27.9451 20.5479 27.9451C20.3425 27.9451 20.137 27.7396 20.137 27.5341V26.3012C20.137 25.8903 20.137 25.8903 20.5479 25.8903Z" fill="#211D51"></path><path d="M23.6302 24.6572C23.4247 24.6572 23.2192 24.6572 23.2192 24.8627L20.548 30.8216V31.0271C20.548 31.2326 20.7535 31.438 20.9589 31.438C21.1644 31.438 21.3699 31.438 21.3699 31.2326L24.2466 25.4791V25.2737C24.2466 24.8627 24.0411 24.6572 23.6302 24.6572Z" fill="#211D51"></path><path d="M22.8082 28.7671V29.9999C22.8082 30.8219 23.2192 31.2328 24.0411 31.2328C24.863 31.2328 25.274 30.8219 25.274 29.9999V28.7671C25.274 27.9451 24.863 27.5342 24.0411 27.5342C23.2192 27.5342 22.8082 28.1506 22.8082 28.7671ZM23.8356 28.7671C23.8356 28.5616 24.0411 28.3561 24.2466 28.3561C24.4521 28.3561 24.6575 28.5616 24.6575 28.7671V29.9999C24.6575 30.2054 24.4521 30.4109 24.2466 30.4109C24.0411 30.4109 23.8356 30.2054 23.8356 29.9999V28.7671Z" fill="#211D51"></path><path d="M13.1507 25.0684C12.3288 25.0684 11.9178 25.4793 11.9178 26.3012V27.5341C11.9178 28.356 12.3288 28.767 13.1507 28.767C13.9726 28.767 14.3836 28.356 14.3836 27.5341V26.3012C14.3836 25.4793 13.7672 25.0684 13.1507 25.0684ZM13.1507 25.8903C13.3562 25.8903 13.5617 26.0958 13.5617 26.3012V27.5341C13.5617 27.7396 13.3562 27.9451 13.1507 27.9451C12.9452 27.9451 12.7398 27.7396 12.7398 27.5341V26.3012C12.7398 25.8903 12.7398 25.8903 13.1507 25.8903Z" fill="#211D51"></path><path d="M16.2329 24.6572C16.0275 24.6572 15.822 24.6572 15.822 24.8627L13.1508 30.8216V31.0271C13.1508 31.2326 13.3562 31.438 13.5617 31.438C13.7672 31.438 13.9727 31.438 13.9727 31.2326L16.8494 25.4791V25.2737C16.8494 24.8627 16.4384 24.6572 16.2329 24.6572Z" fill="#211D51"></path><path d="M15.411 28.7671V29.9999C15.411 30.8219 15.822 31.2328 16.6439 31.2328C17.4658 31.2328 17.8768 30.8219 17.8768 29.9999V28.7671C17.8768 27.9451 17.4658 27.5342 16.6439 27.5342C16.0275 27.7397 15.411 28.1506 15.411 28.7671ZM16.4384 28.7671C16.4384 28.5616 16.6439 28.3561 16.8494 28.3561C17.0548 28.3561 17.2603 28.5616 17.2603 28.7671V29.9999C17.2603 30.2054 17.0548 30.4109 16.8494 30.4109C16.4384 30.2054 16.4384 30.2054 16.4384 29.9999V28.7671Z" fill="#211D51"></path><path d="M4.31506 26.3012V27.5341C4.31506 28.356 4.72602 28.767 5.54794 28.767C6.36986 28.767 6.78082 28.356 6.78082 27.5341V26.3012C6.78082 25.4793 6.36986 25.0684 5.54794 25.0684C4.72602 25.0684 4.31506 25.4793 4.31506 26.3012ZM5.54794 25.8903C5.75342 25.8903 5.9589 26.0958 5.9589 26.3012V27.5341C5.9589 27.7396 5.75342 27.9451 5.54794 27.9451C5.34246 27.9451 5.13698 27.7396 5.13698 27.5341V26.3012C5.34246 25.8903 5.34246 25.8903 5.54794 25.8903Z" fill="#211D51"></path><path d="M8.83561 24.6572C8.63013 24.6572 8.42465 24.6572 8.42465 24.8627L5.75342 30.8216V31.0271C5.75342 31.2326 5.9589 31.438 6.16438 31.438C6.36986 31.438 6.57534 31.438 6.57534 31.2326L9.45205 25.4791V25.2737C9.45205 24.8627 9.04109 24.6572 8.83561 24.6572Z" fill="#211D51"></path><path d="M8.01367 28.7671V29.9999C8.01367 30.8219 8.42463 31.2328 9.24655 31.2328C10.0685 31.2328 10.4794 30.8219 10.4794 29.9999V28.7671C10.4794 27.9451 10.0685 27.5342 9.24655 27.5342C8.63011 27.7397 8.01367 28.1506 8.01367 28.7671ZM9.04107 28.7671C9.04107 28.5616 9.24655 28.3561 9.45203 28.3561C9.65751 28.3561 9.86299 28.5616 9.86299 28.7671V29.9999C9.86299 30.2054 9.65751 30.4109 9.45203 30.4109C9.24655 30.4109 9.04107 30.2054 9.04107 29.9999V28.7671Z" fill="#211D51"></path><path d="M49.5205 16.6437C48.6986 16.2327 47.8767 16.2327 47.0548 16.6437C46.2329 16.8491 45.6164 17.4656 45.2055 18.2875L38.2192 33.9039L36.1644 30.8218C35.137 29.3834 33.2876 28.9724 31.8493 29.9998C30.4109 31.0272 30 32.8765 31.0274 34.3149L36.1644 42.1231C36.7808 42.945 37.8082 43.5615 38.8356 43.5615H39.0411C40.2739 43.5615 41.3013 42.7396 41.7123 41.7122L50.9589 20.9587C51.3698 20.1368 51.3698 19.3149 51.1644 18.493C50.7534 17.6711 50.137 17.0546 49.5205 16.6437ZM49.5205 20.1368L40.274 40.8902C40.0685 41.3012 39.6575 41.7122 39.0411 41.7122C38.6301 41.7122 38.0137 41.5067 37.8082 41.0957L32.6712 33.2875C32.2603 32.6711 32.4657 31.8491 33.0822 31.4382C33.2877 31.2327 33.4931 31.2327 33.9041 31.2327C34.315 31.2327 34.726 31.4382 35.137 31.8491L38.0137 36.1642C38.2192 36.3697 38.4246 36.5752 38.8356 36.5752C39.2466 36.5752 39.452 36.3697 39.6575 35.9587L47.2603 18.9039C47.0548 18.6985 47.2603 18.493 47.6712 18.2875C48.0822 18.082 48.4931 18.082 48.6986 18.2875C49.1096 18.493 49.315 18.6985 49.5205 19.1094C49.5205 19.3149 49.5205 19.7259 49.5205 20.1368Z" fill="#009AB5"></path><path d="M22.8082 38.8357H25.8904C26.3014 38.8357 26.7124 38.4248 26.7124 38.0138C26.7124 37.6029 26.3014 37.1919 25.8904 37.1919H22.8082C22.3973 37.1919 21.9863 37.6029 21.9863 38.0138C21.9863 38.4248 22.3973 38.8357 22.8082 38.8357Z" fill="#211D51"></path><path d="M25.8904 49.3153H25.274V48.6989C25.274 48.2879 24.863 47.877 24.452 47.877C24.0411 47.877 23.6301 48.2879 23.6301 48.6989V49.3153H23.0137C22.6027 49.3153 22.1918 49.7263 22.1918 50.1372C22.1918 50.5482 22.6027 50.9591 23.0137 50.9591H23.6301V51.5756C23.6301 51.9865 24.0411 52.3975 24.452 52.3975C24.863 52.3975 25.274 51.9865 25.274 51.5756V50.9591H25.8904C26.3014 50.9591 26.7123 50.5482 26.7123 50.1372C26.9178 49.5208 26.5068 49.3153 25.8904 49.3153Z" fill="#211D51"></path></svg> 