<?xml version="1.0" encoding="UTF-8"?> <svg xmlns="http://www.w3.org/2000/svg" width="60" height="61" viewBox="0 0 60 61" fill="none"><path d="M59.0507 0H42.152C41.5824 0 41.2026 0.379747 41.2026 0.949367V6.64557H43.1014V1.89873H58.1014V16.8987H56.2026V18.7975H59.0507C59.6204 18.7975 60.0001 18.4177 60.0001 17.8481V0.949367C60.0001 0.379747 59.6204 0 59.0507 0Z" fill="#211D51"></path><path d="M43.1014 16.8987V12.1519H41.2026V17.8481C41.2026 18.4177 41.5824 18.7974 42.152 18.7974H45.0001V16.8987H43.1014Z" fill="#009AB5"></path><path d="M45.9494 10.2532V8.35449H33.7975C32.8481 8.35449 31.8987 9.30386 32.0886 10.2532V14.0507H25.443V13.1013C25.443 12.5317 25.0633 12.152 24.4937 12.152H20.6962C20.1266 12.152 19.7468 12.5317 19.7468 13.1013V16.8988C19.7468 17.4684 20.1266 17.8482 20.6962 17.8482H24.4937C25.0633 17.8482 25.443 17.4684 25.443 16.8988V15.9494H32.0886V22.595V30.9494H31.1392C30.5696 30.9494 30.1899 31.3292 30.1899 31.8988V35.6963C30.1899 36.2659 30.5696 36.6456 31.1392 36.6456H34.9367C35.5063 36.6456 35.8861 36.2659 35.8861 35.6963V31.8988C35.8861 31.3292 35.5063 30.9494 34.9367 30.9494H33.9873V24.3039H39.6835V25.2532C39.6835 25.8228 40.0633 26.2026 40.6329 26.2026H44.4304C45 26.2026 45.3797 25.8228 45.3797 25.2532V21.4558C45.3797 20.8861 45 20.5064 44.4304 20.5064H40.6329C40.0633 20.5064 39.6835 20.8861 39.6835 21.4558V22.4051H33.9873V10.2532H45.9494ZM23.5443 15.9494H21.6456V14.0507H23.5443V15.9494ZM33.7975 34.7469H31.8987V32.8482H33.7975V34.7469ZM41.2025 22.595H43.1013V24.4937H41.2025V22.595Z" fill="#009AB5"></path><path d="M54.3038 15.1897L51.4557 8.54414C51.4557 8.35427 51.2658 8.1644 50.8861 7.97452C50.3165 7.78465 49.9367 7.97452 49.7469 8.54414L47.0886 15.1897C47.0886 15.3796 47.0886 15.3796 47.0886 15.5695V59.2403C47.0886 59.81 47.4684 60.1897 48.038 60.1897H53.7342C54.3038 60.1897 54.6836 59.81 54.6836 59.2403V15.5695C54.4937 15.3796 54.4937 15.1897 54.3038 15.1897ZM50.6962 11.3922L52.2152 15.1897H48.9874L50.6962 11.3922ZM48.7975 16.8986H49.7469V51.6454H48.7975V16.8986ZM52.595 58.1011H48.7975V53.3543H52.595V58.1011ZM52.595 51.6454H51.6456V16.8986H52.595V51.6454Z" fill="#211D51"></path><path d="M24.4937 58.1011V47.8479V44.0504H22.5949V46.8985H15C7.59494 46.8985 7.40506 37.9745 7.40506 37.5947H10.2532V35.696H6.4557H2.65823C2.27848 35.696 1.89873 35.3163 1.70886 34.9365L7.21519 22.9745C7.21519 22.7846 7.21519 22.7846 7.21519 22.5947C7.21519 16.7087 9.68355 11.2023 13.8608 7.40486C18.2278 3.41752 23.9241 1.51879 29.6203 2.08841L29.8101 0.189675C23.5443 -0.379945 17.2785 1.70866 12.5316 6.07575C8.35443 10.0631 5.6962 16.139 5.6962 22.4049L0 34.3669C0 34.5568 0 34.5568 0 34.7466V34.9365C0 36.4555 1.32911 37.5947 2.8481 37.5947H5.6962C5.6962 41.5821 7.59494 48.7973 15 48.7973H22.5949V59.0504C22.5949 59.6201 22.9747 59.9998 23.5443 59.9998H44.2405V58.1011H24.4937Z" fill="#211D51"></path></svg> 