<?xml version="1.0" encoding="UTF-8"?> <svg xmlns="http://www.w3.org/2000/svg" width="547" height="444" viewBox="0 0 547 444" fill="none"><path d="M312.809 443.919c117.515 0 212.78-5.51 212.78-12.306 0-6.796-95.265-12.306-212.78-12.306-117.516 0-212.781 5.51-212.781 12.306 0 6.796 95.265 12.306 212.781 12.306z" fill="#C8CADB"></path><path d="M290.301 296.495h-5.043v-11.936h5.043c2.46 0 4.428 1.969 4.428 4.43v3.076c0 2.462-1.968 4.43-4.428 4.43zm-3.321-1.722h3.321c1.476 0 2.706-1.231 2.706-2.708v-3.076c0-1.477-1.23-2.707-2.706-2.707h-3.321v8.491z" fill="#51A0A3"></path><path d="M284.274 224.876c-2.46.738-4.182 2.092-5.412 3.814-1.229 1.6-1.967 3.569-2.213 5.415-.615 3.815.492 7.999 1.721 12.429.369 1.107.738 2.215 1.107 3.445.369 1.231.738 2.339.984 3.692.615 2.461 1.107 5.169 1.107 7.999s-.615 5.661-1.845 8.245c-1.23 2.461-3.32 4.799-5.903 5.784l-.492-.616c1.353-2.092 1.845-4.307 2.091-6.399.123-2.215 0-4.307-.492-6.399-.984-4.184-2.952-8.368-4.428-13.413-.369-1.231-.738-2.584-.984-3.815-.246-1.354-.492-2.707-.492-4.061-.123-2.83.123-5.784 1.23-8.614 1.107-2.953 3.198-5.291 5.781-6.891 1.23-.738 2.705-1.354 4.181-1.6s2.952-.123 4.305.369l-.246.616z" fill="#DADEFE"></path><path d="M281.445 280.99h-13.406v15.382c0 1.477.615 2.831 1.722 3.815.861.739 1.968 1.231 3.321 1.231h8.117c2.706 0 5.043-2.215 5.043-5.046V280.99h-4.797z" fill="#62C1C5"></path><path d="M281.445 280.99v14.152c0 2.707-2.213 5.045-5.042 5.045h-6.642c.861.739 1.968 1.231 3.321 1.231h8.117c2.706 0 5.043-2.215 5.043-5.046V280.99h-4.797z" fill="#51A0A3"></path><path d="M377.504 347.564h-4.92v76.419h4.92v-76.419z" fill="#346669"></path><path d="M380.578 349.902l-53.502-.738-4.551-76.788c-.492-9.845 7.257-18.09 17.096-17.967l31.856-.369c14.021 0 21.401 12.921 19.433 26.704l-10.332 69.158z" fill="#62C1C5"></path><path d="M380.701 349.902h-67.4v-3.199c0-9.722 7.871-17.474 17.465-17.474h32.347c9.717 0 17.465 7.875 17.465 17.474v3.199h.123z" fill="#428285"></path><path d="M321.418 347.564h-4.919v76.419h4.919v-76.419z" fill="#346669"></path><path d="M366.312 213.924c4.919-.37 9.962 2.707 11.93 7.26 3.813 8.737-3.567 19.074-.738 28.303 1.107 3.815 3.936 6.892 6.273 10.091 2.337 3.2 4.428 7.014 3.936 10.952-.492 4.184-4.059 7.753-8.241 8.737-4.182.985-8.61-.123-12.177-2.461-3.566-2.338-6.272-5.784-8.486-9.475-7.626-12.675-11.193-33.226-2.583-46.27 2.337-3.815 5.289-6.891 10.086-7.137z" fill="#414460"></path><path d="M359.424 225.86c4.797-.246 9.593 2.461 11.438 6.522 3.69 7.876-3.444 17.228-.738 25.35 1.107 3.446 3.69 6.153 6.027 9.106 2.214 2.831 4.305 6.276 3.813 9.845-.492 3.815-3.936 6.891-7.995 7.876-3.936.984-8.363-.123-11.684-2.215-3.444-2.092-6.027-5.169-8.241-8.491-7.38-11.322-10.7-29.903-2.583-41.717 2.46-3.323 5.412-6.03 9.963-6.276z" fill="#34364D"></path><path d="M372.83 316.677h-40.342c-.246 0-.492-.246-.492-.492v-42.701c0-9.722 7.871-17.721 17.711-17.721h6.027c9.716 0 17.711 7.876 17.711 17.721v42.701c0 .246-.246.492-.615.492z" fill="#00666B"></path><path d="M378.857 271.884s15.005 17.474 11.807 28.426c0 0 0 5.661-23.369-.246l-19.679-3.199-.861-5.538c4.797-.123 9.963-.123 15.62.246 6.519.369 12.546 1.231 17.835 2.215-1.476-1.6-2.829-3.446-4.305-5.414-2.337-3.2-4.92-7.138-6.027-10.583l8.979-5.907z" fill="#F4B979"></path><path d="M361.022 257.24s14.514-1.723 26.321 27.319l-13.037 5.168s-8.364-11.321-9.594-21.289c-1.107-9.845-3.69-11.198-3.69-11.198z" fill="#00666B"></path><path d="M323.878 271.638s-16.727 16.736-18.449 27.442c0 0 .246 3.199 24.23 1.476h20.663l1.599-4.184c-4.674-.984-9.84-1.969-15.375-2.584-6.518-.738-12.545-.984-17.957-.984 1.722-1.354 3.444-2.831 5.166-4.553 2.829-2.708 6.027-6.153 7.749-9.353l-7.626-7.26z" fill="#F4B979"></path><path d="M344.91 256.871s-15.006-.739-31.733 25.719l11.931 7.383s10.208-9.721 13.16-19.197c2.952-9.598 6.642-13.905 6.642-13.905z" fill="#00666B"></path><path d="M369.633 296.741h-52.027v4.677h52.027v-4.677z" fill="#9FB4B8"></path><path d="M489.551 414.139c-3.075 3.076-20.663 7.506-21.77 9.229-.369.615-.492 1.354-.123 2.092.861 1.846 4.059.985 5.535.861 1.845-.123 21.893-1.107 21.893-.984l.246 1.108 6.642-.37-.492-12.305c0 .123-5.043.246-11.931.369z" fill="#34364D"></path><path d="M465.199 408.355c-2.706 3.322-19.68 9.968-20.54 11.69-.369.616-.369 1.477.123 2.092 1.106 1.723 4.181.493 5.657.246 1.845-.369 21.647-3.691 21.647-3.568l.369 1.107 6.642-1.107-1.968-12.183c-.123 0-5.166.861-11.93 1.723z" fill="#222433"></path><path d="M429.53 259.947s-2.214 33.718-2.214 33.841c-.246 3.446-5.658 3.076-8.117 3.446-3.69.615-8.487 1.969-11.439 4.676.984.615 3.075.369 4.305.369 1.599.123 3.075.123 4.674.246 3.197.123 6.395.123 9.593.369 0 0 8.61-.492 8.364-5.66-.246-5.169 6.272-36.056 6.272-36.056l-11.438-1.231z" fill="#DBA66D"></path><path d="M423.626 267.7l19.065 2.83 3.197-26.211c.738-5.661.984-14.767-4.673-15.875-.123 0-1.23-.369-1.353-.369-6.396-1.107-15.252 7.999-15.375 14.275l-.861 25.35z" fill="#BD9C35"></path><path d="M470.364 286.897l-22.139 52.177c-1.722 3.937-1.968 8.368-.861 12.551l15.989 58.453 13.899-1.354c-.861-9.106.369-38.271-4.674-47.5-2.706-5.045-2.706-11.075.246-15.998l6.273-9.967 3.567-47.993-12.3-.369z" fill="#34364D"></path><path d="M492.749 276.929l-3.321-8.983s17.588 15.874 15.006 30.518c-2.214 12.675-5.904 41.348-6.888 48.977-.123 1.231 0 2.461.369 3.692l4.059 12.798c.984 3.076 1.353 6.153 1.353 9.352l-1.353 40.979h-14.145l-11.93-64.483c-.123-.738-.246-1.476-.246-2.215l-1.107-61.283 18.203-9.352z" fill="#414460"></path><path d="M443.798 224.753c10.454 2.338 34.192 14.151 52.641 50.946 2.46 4.922-4.305 10.706-8.117 12.675-2.952 1.599-6.396 2.461-9.717 2.83-1.968.246-3.813.369-5.781.246-.861 0-5.781.123-6.15-.492-1.229-2.461-2.951-5.784-5.411-9.476-2.214-3.199-4.92-6.645-8.118-10.952-7.749-10.091-15.866-17.351-22.262-22.273-.984-1.231-3.075-4.184-3.321-8.614-.123-3.2.861-7.015 4.182-11.199 2.706-3.322 7.626-4.676 12.054-3.691z" fill="#EBC342"></path><path d="M432.482 242.719l-19.433 19.689c-1.107 1.108-2.583 2.092-4.059 2.584l-30.995 11.568c-2.09.738-4.304.738-6.272 0l-3.813-1.354c-1.476-.492-3.075-.615-4.551-.369l-15.497 2.83.246 1.723 12.791.123 1.968 3.569c1.476 2.584 4.551 3.815 7.38 3.076l44.155-11.198c2.214-.492 4.182-1.6 5.903-2.953l21.648-17.844-9.471-11.444zM407.145 217c.246-.492.123-1.108-.246-1.6-1.353-1.969-4.181-7.876 3.813-13.659 0 0 14.268-8.984 20.663 5.168 1.845 4.061 1.353 7.63-.246 10.337-.615 1.231 7.257 6.891 8.241 7.26 1.107.37 3.198 5.169-9.84 11.322-.492-.862-.738-.985-1.599-2.215-2.828-3.938-6.395-5.784-9.47-4.553-1.476.615-4.059 2.461-5.535 1.599-.861-.369-2.583-4.307-3.075-4.676l-.246-.246c-.492-.369-.738-.984-.738-1.6v-.984l-1.968-.862c-.738-.369-1.107-1.107-.861-1.846l1.107-3.445z" fill="#F4B979"></path><path d="M423.135 216.385c.491-.124 1.106-.124 1.598-.247-.369-.738-.738-1.476-.615-2.338.123-.861.861-1.599 1.722-1.476 1.107.246 1.23 1.599 1.476 2.584.615 3.199 4.182 5.537 7.503 5.045.246-3.938.492-7.876-.369-11.69-.738-3.815-2.583-7.63-5.904-9.968-2.952-2.092-6.887-2.83-10.577-2.707-3.936.123-7.872.984-11.439 2.584-1.599.738-3.321 1.723-4.427 3.076-1.107 1.354-1.845 3.2-1.353 4.923.615 2.215 2.951 3.691 5.288 4.061 2.337.369 4.674-.123 7.011-.616 1.845-.369 5.289-1.599 6.765-.123.615.862 2.706 7.015 3.321 6.892z" fill="#414460"></path><path d="M420.183 251.702l12.791 13.045 16.604-15.752c3.936-3.815 4.305-9.968.615-14.028-.123-.123-.123-.123-.246-.247-4.182-4.43-11.684-4.06-15.62.616l-14.144 16.366z" fill="#FDD247"></path><path d="M359.793 301.418h-42.679l-11.439-24.612c-.246-.492.123-1.107.738-1.107h38.497c1.722 0 3.321.984 4.059 2.584l10.824 23.135z" fill="#CCE8EC"></path><path d="M439.985 306.586H199.9l1.968-5.291h236.149l1.968 5.291z" fill="#BD9C35"></path><path d="M339.375 236.32s.861 18.582 6.518 19.32c7.011.985 11.931-2.584 13.038-8.86.492-2.461-.123-9.844-.738-14.398-.369-2.953-3.813-5.66-6.642-6.153-1.599-.246-3.69-.246-5.904.493-7.502 2.584-6.272 9.598-6.272 9.598z" fill="#F4B979"></path><path d="M347.862 252.072s-.246 4.676 0 6.645c0 0 2.091 3.938 6.641 3.076 4.551-.984 3.813-3.938 3.813-3.938l-.738-13.29-9.716 7.507z" fill="#F4B979"></path><path d="M367.172 233.613c-.984-6.399-6.519-11.691-12.915-12.552-4.796-.738-9.716.984-13.283 4.184-4.059 3.569-5.781 8.368-4.797 13.782 3.813 1.108 18.941 1.108 21.77.862.123 3.076 1.107 5.661 1.23 8.737 6.15-2.215 8.979-8.614 7.995-15.013z" fill="#414460"></path><path d="M361.391 244.442c-.369 1.6-1.476 2.707-2.46 2.461s-1.599-1.723-1.23-3.322c.369-1.6 1.476-2.708 2.46-2.462 1.107.247 1.599 1.723 1.23 3.323z" fill="#F4B979"></path><path d="M359.054 241.489l-.738-.862-3.936 3.2c-.492-1.231-1.968-2.215-3.69-2.215-1.476 0-2.829.738-3.444 1.722-.861-.369-2.213-.492-2.951 0 0 0-.123 0-.123.124-.615-1.108-1.968-1.846-3.567-1.846-2.214 0-3.936 1.476-3.936 3.199 0 1.723 1.722 3.2 3.936 3.2s3.936-1.477 3.936-3.2c0-.246.123-.369.246-.492.492-.246 1.352-.123 2.09.123v.369c0 1.723 1.722 3.2 3.936 3.2 2.091 0 3.69-1.354 3.936-2.954l4.305-3.568zm-15.62 3.445c0 1.108-1.23 2.092-2.829 2.092-1.599 0-2.829-.984-2.829-2.092 0-1.107 1.23-2.092 2.829-2.092 1.353 0 2.46.739 2.829 1.6h.123c-.123.123-.123.246-.123.492zm7.256 2.092c-1.599 0-2.829-.984-2.829-2.092 0-1.107 1.23-2.092 2.829-2.092 1.599 0 2.829.985 2.829 2.092.123 1.108-1.23 2.092-2.829 2.092z" fill="#414460"></path><path d="M347.492 255.517l.369 3.2s3.69 5.168 7.626-4.307c3.936-9.476.492-2.461.492-2.461s-3.69 4.43-8.487 3.568z" fill="#C99864"></path><path d="M364.958 227.952c.369-.738.615-1.6.615-2.461 0-3.076-2.706-5.661-5.904-5.661-1.599 0-2.952.616-3.936 1.477 3.69.984 7.134 3.446 9.225 6.645z" fill="#FDD247"></path><path d="M407.023 306.463h-5.781v120.105h5.781V306.463z" fill="#69571D"></path><path d="M195.595 390.02l-3.443 12.306-7.38-2.215 3.813-12.552 7.01 2.461z" fill="#F4B979"></path><path d="M159.681 333.782l37.267 7.014c1.107.369 1.476 1.6.861 2.585-3.074 3.814-9.347 15.382-12.791 47.623l10.209 2.584 23.245-57.345 1.845-13.782-60.636 11.321z" fill="#34364D"></path><path d="M248.729 365.285c2.583 1.6 5.78 3.938 9.101 7.138 2.583 2.584 4.674 5.168 6.15 7.383 1.968 1.969 2.091 5.045.492 7.014-1.845 2.338-5.412 2.585-7.503.493-2.583-1.723-5.535-3.938-8.486-6.892-2.214-2.215-4.059-4.307-5.412-6.276-.246-.246-.738-.738-.861-1.476-.123-.616-.123-1.108 0-1.723l1.353-5.046 5.166-.615z" fill="#222433"></path><path d="M246.638 361.47l3.812 5.661c.492.738.738 1.723.492 2.707-.492 1.846-2.459 2.954-4.304 2.338l-.738-.246c-.861-.246-1.476-.861-1.845-1.6l-3.321-6.645 5.904-2.215z" fill="#F4B979"></path><path d="M151.317 306.709s-9.962 16.49-2.213 28.55c7.748 12.06 59.775-7.753 59.775-7.753s25.214 36.548 31.24 39.01c0 0 7.503 0 8.979-3.815 0 0-20.294-48.608-36.283-51.069l-38.99 1.23-22.508-6.153z" fill="#414460"></path><path d="M149.226 426.076h-8.24l9.716-82.818h8.241l-9.717 82.818zM195.719 426.076h8.117l-9.593-82.818h-8.241l9.717 82.818z" fill="#438487"></path><path d="M175.424 342.642h-7.994v83.188h7.994v-83.188z" fill="#346669"></path><path d="M199.162 347.934h-51.288c-2.829 0-5.043-2.584-5.043-5.661 0-3.076 2.337-5.66 5.043-5.66h51.288c2.829 0 5.043 2.584 5.043 5.66 0 3.077-2.214 5.661-5.043 5.661z" fill="#62C1C5"></path><path d="M204.574 410.078l-7.872-9.352c-.246-.862-.492-1.6-.861-2.462-.246-.615-.615-1.353-1.23-1.353-.615-.123-1.107.369-1.353.861s-.246.985-.246 1.477c-4.181-.123-7.994-3.938-7.994-3.938-2.214 2.092-3.321 4.922-3.813 6.645-.246.739.123 1.6.738 1.969l22.508 14.029.861-1.354c1.107-2.092.738-4.799-.738-6.522z" fill="#222433"></path><path d="M253.525 268.93l6.15.985-11.684 31.257-6.519-.123 12.053-32.119z" fill="#CCE8EC"></path><path d="M240.611 300.803c-4.182-10.214-13.776-8.245-19.064-6.153-1.23.492-2.46.615-3.69.615-1.968-.123-3.813-.123-5.781-.123-2.829 0-5.658 0-8.609.123-2.829.123-5.658.123-8.487.369-1.353.123-2.583.123-3.936.246-.738-1.353-1.353-2.584-2.091-3.938-1.23-2.461-2.337-4.799-3.444-7.26-.984-2.461-1.967-4.922-2.951-7.506-.861-2.585-1.722-5.046-2.46-7.63v-.123c-1.107-3.569-4.92-5.784-8.733-4.553-3.321.984-5.412 4.553-4.797 7.998.492 2.954 1.353 6.03 2.214 8.861.984 2.953 2.091 5.906 3.321 8.737 1.23 2.83 2.706 5.66 4.305 8.368 1.599 2.707 3.321 5.291 5.289 7.752l.369.493c1.353 1.845 3.689 2.83 6.026 2.461 2.829-.492 5.535-1.108 8.364-1.6 2.829-.615 5.535-1.231 8.364-1.846 2.828-.615 5.534-1.354 8.363-2.092 1.968-.615 3.936-1.107 5.904-1.723l21.524-1.476z" fill="#C99864"></path><path d="M181.574 265.977l4.551 10.829c2.091 4.799.861 10.46-2.829 14.029l-5.781 5.537-3.321 16.613s-13.283 3.077-26.32-4.553c0 0 6.887-14.521 6.518-26.457-.369-11.937 4.674-26.089 18.449-22.151l8.733 6.153z" fill="#FDD247"></path><path d="M171.98 259.947s3.075 7.261 7.749 8.368l.492-9.475c.123-2.708 2.706-4.43 5.289-3.692l1.23.369c2.337.738 4.796-.492 5.903-2.707l1.23-2.708c.615-1.353 1.845-2.215 3.321-2.338.984-.123 1.722-.984 1.476-1.969l-.738-3.076 2.706-6.03c.861-1.846.861-3.938.123-5.784-1.599-4.184-5.535-10.952-14.513-10.706-12.792.37-15.744 5.784-18.449 21.659l4.181 18.089z" fill="#F4B979"></path><path d="M191.29 216.754c-5.78-1.846-12.422-.739-17.342 2.83-6.888 5.045-10.331 14.521-18.326 17.351-5.658 2.092-13.652-1.353-16.973 5.415-1.107 2.092-1.353 4.553-1.599 7.014-.246 2.338-.615 4.799-1.722 7.014-1.599 2.831-4.428 4.677-6.027 7.384-1.722 3.076-2.091 7.506-1.722 10.952 1.23 11.567 13.284 21.289 24.476 14.521 5.043-2.954 1.23-10.46 2.583-15.259.861-3.077 1.722-5.907 3.444-8.491 1.722-2.708 4.182-5.046 7.379-5.538 3.075-.492 6.642.861 9.348-.738 2.952-1.846 3.075-6.03 2.706-9.476-.492-3.445-.861-7.506 1.599-9.967 1.599-1.477 3.813-1.969 6.027-1.969 2.213 0 4.304.369 6.518.123 3.198-.37 7.626-1.846 9.471-4.43.369-.493 1.23-1.723 1.599-2.585 1.353-3.322-.738-7.137-3.321-9.598-2.214-2.092-5.289-3.692-8.118-4.553z" fill="url(#paint0_linear)"></path><path d="M247.13 296.126h-29.765v5.046h29.765v-5.046z" fill="#9FB4B8"></path><path d="M233.846 301.541c-4.181-10.214-13.775-8.245-19.064-6.153-1.23.492-2.46.615-3.689.615-1.968-.123-3.813-.123-5.781-.123-2.829 0-5.658 0-8.61.123-2.829.123-5.658.123-8.486.369-1.353.123-2.583.123-3.936.246-.738-1.353-1.353-2.584-2.091-3.937-1.23-2.462-2.337-4.8-3.444-7.261-.984-2.461-1.968-4.922-2.952-7.506-.861-2.585-1.722-5.046-2.46-7.63v-.123c-1.107-3.569-4.92-5.784-8.732-4.553-3.321.984-5.412 4.553-4.797 7.999.492 2.953 1.353 6.029 2.214 8.86.984 2.953 2.091 5.906 3.321 8.737 1.23 2.83 2.706 5.66 4.304 8.368 1.599 2.707 3.321 5.291 5.289 7.752l.369.493c1.353 1.846 3.69 2.83 6.027 2.461 2.829-.492 5.535-1.108 8.363-1.6 2.829-.615 5.535-1.231 8.364-1.846 2.829-.615 5.535-1.353 8.364-2.092 1.968-.615 3.936-1.107 5.903-1.723l21.524-1.476zM279.354 407.371l-4.919 7.875 6.395 4.307 5.166-7.752-6.642-4.43z" fill="#F4B979"></path><path d="M275.911 415.246s-7.134-6.153-18.818-4.676c-1.23.123-1.599 1.846-.492 2.461l21.647 13.537s4.919-6.153 3.074-8.614c0 .123-3.935 1.23-5.411-2.708z" fill="#222433"></path><path d="M320.558 330.09l-44.77 79.742c2.828 2.707 5.903 5.045 9.101 7.26l27.182-40.855c5.043-3.323 10.331-6.645 10.331-6.645 10.455-6.892 31.979-29.288 31.979-29.288l-33.823-10.214z" fill="#34364D"></path><path d="M321.542 409.34l2.336 11.567h7.626l-2.337-12.306-7.625.739z" fill="#F4B979"></path><path d="M372.092 315.692l-62.604.246c-8.979 0-15.62 8.491-13.283 17.229l22.754 78.141h11.93l-4.305-38.271c-.123-.738 0-1.599.123-2.338 3.69-17.843-7.625-28.18-7.625-28.18 6.395 2.707 16.85 4.061 26.689 4.553 14.145.739 26.198-10.337 26.567-24.611l-.246-6.769z" fill="#414460"></path><path d="M324.985 419.307s-10.085-1.107-19.433 7.63c-.738.738-.246 2.092.861 1.969l27.305-1.108s.615-8.244-2.46-9.229c.123 0-2.583 3.2-6.273.738z" fill="#222433"></path><path d="M220.194 306.463h-5.78v120.105h5.78V306.463z" fill="#69571D"></path><path d="M243.955 157.926h-5.166v-5.168c0-1.477-1.23-2.707-2.706-2.707s-2.706 1.23-2.706 2.707v5.168h-5.165c-1.476 0-2.706 1.231-2.706 2.708 0 1.476 1.23 2.707 2.706 2.707h5.165v5.168c0 1.477 1.23 2.708 2.706 2.708s2.706-1.231 2.706-2.708v-5.168h5.166c1.476 0 2.706-1.231 2.706-2.707 0-1.477-1.23-2.708-2.706-2.708z" fill="#EBC342"></path><path d="M507.207 159.214l6.642.738 2.829-5.784-4.674-4.799.369-5.045 5.289-4.184-2.091-6.03-6.642-.123-3.321-3.815.738-6.645-5.781-2.83-4.796 4.676-5.043-.369-4.182-5.292-6.027 2.092-.123 6.645-3.813 3.323-6.641-.739-2.829 5.784 4.674 4.799-.369 5.046-5.289 4.184 2.091 6.03 6.642.123 3.32 3.815-.738 6.645 5.781 2.83 4.797-4.676 5.043.369 4.182 5.291 6.026-2.092.123-6.645 3.813-3.322zm-6.15-3.2c-5.78 5.046-14.39 4.43-19.433-1.23-5.043-5.784-4.428-14.398 1.23-19.443 5.781-5.046 14.391-4.431 19.433 1.23 5.166 5.661 4.551 14.398-1.23 19.443z" fill="url(#paint1_linear)"></path><path d="M452.967 141.001l6.641.738 2.829-5.783-4.674-4.8.369-5.045 5.289-4.184-2.091-6.03-6.641-.123-3.321-3.815.738-6.645-5.781-2.83-4.797 4.676-5.043-.369-4.181-5.291-6.027 2.091-.123 6.646-3.813 3.322-6.642-.738-2.829 5.784 4.674 4.799-.369 5.045-5.289 4.184 2.091 6.03 6.642.123 3.321 3.815-.738 6.645 5.781 2.83 4.796-4.676 5.043.369 4.182 5.292 6.027-2.092.123-6.645 3.813-3.323zm-6.15-3.199c-5.781 5.045-14.39 4.43-19.433-1.231-5.043-5.784-4.428-14.398 1.23-19.443 5.78-5.046 14.39-4.43 19.433 1.23 5.043 5.784 4.428 14.398-1.23 19.444z" fill="#62C1C5"></path><path d="M533.897 60.2751l-25.583 32.8565 18.08.6153-7.38 22.0271 27.059-34.8251-18.818.2461 6.642-20.9199zM349.829 40.6188c0-22.7657-18.695-41.1013-41.572-40.6091-21.401.4922-38.989 17.9664-39.604 39.5016-.246 10.0908 3.075 19.3201 8.979 26.5805 6.887 8.6141 10.946 19.1971 10.946 30.2723v.7383h41.449v-.7383c0-10.8291 3.69-21.4121 10.578-29.78 5.781-7.1374 9.224-16.1206 9.224-25.9653z" fill="#EBC342"></path><path d="M343.311 45.9103c.246-1.7228.492-3.4456.492-5.2915 0-18.9509-15.498-34.4562-34.439-34.4562h-.861c-18.326.4922-33.085 15.1361-33.577 33.4718 0 2.092.123 4.1839.369 6.2759h68.016z" fill="url(#paint2_linear)"></path><path d="M307.519 96.9795h-2.337V53.7861c0-3.0764-2.46-5.5376-5.534-5.5376-3.075 0-5.535 2.4612-5.535 5.5376 0 3.0765 2.46 5.5376 5.535 5.5376h2.705v2.3381h-2.705c-4.305 0-7.872-3.5687-7.872-7.8757s3.567-7.8757 7.872-7.8757c4.304 0 7.871 3.5687 7.871 7.8757v43.1934zM313.546 96.9795h-2.337V53.7861c0-4.307 3.567-7.8757 7.872-7.8757s7.871 3.5687 7.871 7.8757-3.566 7.8757-7.871 7.8757h-2.706v-2.3381h2.706c3.075 0 5.535-2.4611 5.535-5.5376 0-3.0764-2.46-5.5376-5.535-5.5376s-5.535 2.4612-5.535 5.5376v43.1934z" fill="#fff"></path><path d="M320.065 124.667h-21.524c-5.412 0-9.84-4.43-9.84-9.844V96.8562h41.08v18.0898c.123 5.291-4.305 9.721-9.716 9.721z" fill="url(#paint3_linear)"></path><path d="M316.867 132.912h-15.252c-2.337 0-4.304-1.969-4.304-4.307v-4.43h23.86v4.43c0 2.338-1.844 4.307-4.304 4.307z" fill="#202442"></path><path d="M180.772 117.752H65.6492c-5.2888 0-9.7166-4.307-9.7166-9.722V61.1454c0-6.7682 5.5348-12.3058 12.2994-12.3058h109.834c6.765 0 12.299 5.5376 12.299 12.3058V108.03c0 5.415-4.304 9.722-9.593 9.722z" fill="#DADEFE"></path><path d="M190.365 66.0677v-4.9223c0-6.7682-5.534-12.3058-12.299-12.3058H68.232c-6.7646 0-12.2994 5.5376-12.2994 12.3058v4.9223H190.365z" fill="#62C1C5"></path><path d="M66.6331 57.9459c0-1.8459 1.4759-3.3226 3.3208-3.3226 1.8449 0 3.3208 1.4767 3.3208 3.3226 0 1.8458-1.4759 3.3225-3.3208 3.3225-1.8449-.123-3.3208-1.4767-3.3208-3.3225zM78.9324 57.9456c0-1.8459 1.4759-3.3226 3.3208-3.3226 1.8449 0 3.3209 1.4767 3.3209 3.3226s-1.476 3.3226-3.3209 3.3226c-1.8449-.1231-3.3208-1.4767-3.3208-3.3226zM91.2319 57.9456c0-1.8459 1.476-3.3226 3.3209-3.3226s3.3208 1.4767 3.3208 3.3226-1.4759 3.3226-3.3208 3.3226c-1.8449-.1231-3.3209-1.4767-3.3209-3.3226zM180.157 75.9121H71.553v5.5376h108.604v-5.5376zM180.157 86.9875H71.553v5.5377h108.604v-5.5377zM180.157 98.0627H71.553V103.6h108.604v-5.5373z" fill="#fff"></path><path d="M134.556 213.779H23.3691c-3.8128 0-7.0107-3.077-7.0107-7.015V195.32c0-3.815 3.0749-7.014 7.0107-7.014H134.433c3.813 0 7.011 3.076 7.011 7.014v11.444c0 3.938-3.075 7.015-6.888 7.015z" fill="#E8EAFE"></path><path d="M22.754 223.992c12.5666 0 22.7539-10.192 22.7539-22.765s-10.1873-22.766-22.7539-22.766C10.1873 178.461 0 188.654 0 201.227c0 12.573 10.1873 22.765 22.754 22.765z" fill="#62C1C5"></path><path d="M22.7539 217.84c9.1703 0 16.6042-7.438 16.6042-16.613s-7.4339-16.613-16.6042-16.613c-9.1703 0-16.6042 7.438-16.6042 16.613s7.4339 16.613 16.6042 16.613z" fill="#EBC342"></path><path d="M30.3796 202.211l-11.5614 7.015c-.738.492-1.599-.124-1.599-.985v-13.905c0-.862.984-1.354 1.599-.985l11.5614 7.014c.738.37.738 1.477 0 1.846z" fill="#fff"></path><path d="M131.604 198.642H50.0586v5.538h81.5454v-5.538z" fill="#BDBECF"></path><path d="M108.481 198.642H50.0586v5.538h58.4224v-5.538z" fill="#EBC342"></path><defs><linearGradient id="paint0_linear" x1="127.537" y1="253.602" x2="202.996" y2="253.602" gradientUnits="userSpaceOnUse"><stop stop-color="#282C52"></stop><stop offset="1" stop-color="#383C60"></stop></linearGradient><linearGradient id="paint1_linear" x1="466.43" y1="145.588" x2="517.613" y2="145.588" gradientUnits="userSpaceOnUse"><stop stop-color="#383C60"></stop><stop offset="1" stop-color="#282C52"></stop></linearGradient><linearGradient id="paint2_linear" x1="309.292" y1="-27.5386" x2="309.292" y2="79.7323" gradientUnits="userSpaceOnUse"><stop offset=".0238" stop-color="#fff"></stop><stop offset=".514" stop-color="#fff" stop-opacity="0"></stop></linearGradient><linearGradient id="paint3_linear" x1="309.292" y1="119.105" x2="309.292" y2="92.0048" gradientUnits="userSpaceOnUse"><stop stop-color="#282C52"></stop><stop offset="1" stop-color="#383C60"></stop></linearGradient></defs></svg> 