<svg width="679" height="638" viewBox="0 0 679 638" fill="none" xmlns="http://www.w3.org/2000/svg"><g opacity=".1"><path opacity=".1" d="M534.93 569.045c-129.411-5.019-193.578.179-323.167 2.868-6.811.179-69.545 5.019-101.987-30.831-21.15-23.66-40.1492-49.113-48.7527-81.378-8.6034-32.264-8.2449-59.151 1.0755-90.878 8.2449-28.321 33.1591-50.906 76.1762-27.425 15.952 8.783 39.074-1.075 49.291-18.104 11.292-19-2.151-63.274-1.255-86.038 1.613-41.765 39.612-72.416 76.714-72.595 37.102-.179 68.111 28.142 75.28 69.189 3.764 21.689.896 44.453 4.481 66.142 3.585 21.689 31.546 43.737 51.083 44.095 16.131.359 29.574-14.519 37.998-30.113 8.425-15.595 14.34-33.52 26.169-46.067 17.207-18.462 44.989-21.689 66.318-9.679 21.151 12.009 46.782 28.859 49.829 55.387 3.047 26.529 4.122 49.831-9.321 71.699-4.481 7.17-9.858 15.953-6.811 24.019 2.151 6.094 8.424 9.142 14.16 9.5 21.15 1.613 16.669-8.245 34.055-21.689 20.971-16.132 54.31-16.67 67.573 7.887 10.396 19.359 3.585 44.991-7.169 63.991-31.546 55.567-76.894 102.171-131.74 100.02z" fill="#3315E8"/><g opacity=".1" fill="#fff"><path opacity=".1" d="M105.475 400.553c1.792 0 3.047 1.434 3.047 3.047 0 1.792-1.434 3.047-3.047 3.047-1.793 0-3.048-1.434-3.048-3.047 0-1.613 1.255-3.047 3.048-3.047z"/><path opacity=".1" d="M122.681 400.552l-4.301-.896c-.179-.896-.538-1.792-1.076-2.509l2.51-3.585c.179-.359.179-.897-.18-1.076l-3.047-3.047c-.358-.358-.717-.359-1.075-.179l-3.585 2.509c-.896-.358-1.613-.717-2.509-1.075l-.717-4.302c0-.359-.538-.717-.896-.717h-4.302c-.359 0-.717.358-.896.717l-.896 4.302c-.897.179-1.614.537-2.5098 1.075l-3.5847-2.509c-.3585-.18-.8962-.179-1.0755.179l-3.047 3.047c-.3585.359-.3585.717-.1793 1.076l2.5094 3.585c-.3585.717-.717 1.613-1.0754 2.509l-4.3018.896c-.3584 0-.7169.538-.7169.897v4.301c0 .359.3585.717.7169.897l4.3018.896c.1792.896.5377 1.792 1.0754 2.509l-2.5094 3.585c-.1792.359-.1792.897.1793 1.076l3.047 3.047c.3585.358.717.358 1.0755.179l3.5847-2.509c.717.358 1.6128.717 2.5098 1.075l.896 4.302c0 .359.537.717.896.717h4.302c.358 0 .717-.358.896-.717l.896-4.302c.896-.179 1.792-.537 2.509-1.075l3.585 2.509c.359.179.896.179 1.076-.179l3.047-3.047c.358-.359.358-.717.179-1.076l-2.509-3.585c.358-.717.717-1.613 1.075-2.509l4.302-.896c.358 0 .717-.538.717-.897v-4.301c-.18-.359-.538-.897-.897-.897zm-15.773 10.397c-5.197 1.075-9.8576-3.585-8.7822-8.783.5377-2.868 2.8682-5.378 5.9152-5.916 5.198-1.075 9.858 3.585 8.782 8.783-.537 3.048-3.047 5.378-5.915 5.916z"/></g><g opacity=".1" fill="#fff"><path opacity=".1" d="M140.605 475.657c.538 1.254 0 2.688-1.075 3.226-1.255.538-2.689 0-3.227-1.075-.537-1.255 0-2.689 1.076-3.227 1.255-.538 2.688 0 3.226 1.076z"/><path opacity=".1" d="M146.52 488.025l-.896-3.405c.538-.538 1.075-1.076 1.434-1.614l3.405.538c.359 0 .717-.179.717-.538l1.076-3.226c.179-.359 0-.717-.359-.896l-3.047-1.793c0-.717 0-1.434-.179-2.151l2.868-1.972c.179-.179.358-.537.179-.896l-1.434-3.047c-.179-.358-.538-.538-.896-.358l-3.406.896c-.537-.538-1.075-1.076-1.613-1.434l.538-3.406c0-.358-.179-.717-.538-.717l-3.226-1.075c-.359-.18-.717 0-.896.358l-1.793 3.047c-.717 0-1.434 0-2.151.18l-1.971-2.868c-.179-.18-.538-.359-.896-.18l-3.047 1.434c-.359.18-.538.538-.359.897l.896 3.405c-.537.538-1.075 1.076-1.434 1.614l-3.405-.538c-.359 0-.717.179-.717.538l-1.076 3.226c-.179.358 0 .717.359.896l3.047 1.793c0 .717 0 1.434.179 2.151l-2.868 1.971c-.179.18-.358.538-.179.897l1.434 3.047c.179.358.538.538.896.358l3.406-.896c.537.538 1.075 1.076 1.613 1.434l-.538 3.406c0 .358.179.717.538.717l3.226 1.075c.359.179.717 0 .896-.358l1.793-3.048c.717 0 1.434 0 2.151-.179l1.971 2.868c.18.179.538.359.896.179l3.048-1.434c.179-.179.358-.537.358-.896zm-12.726-7.707c-2.509-3.406-.717-8.246 3.226-9.321 2.33-.538 4.84.358 6.274 2.151 2.509 3.405.717 8.245-3.227 9.321-2.509.717-5.018-.18-6.273-2.151z"/></g><g opacity=".1" fill="#fff"><path opacity=".1" d="M632.193 417.86c.191-1.173-.605-2.278-1.777-2.469-1.173-.191-2.278.605-2.469 1.777-.191 1.173.605 2.278 1.777 2.469 1.172.191 2.278-.605 2.469-1.777z"/><path opacity=".1" d="M641.756 415.43l-2.868-.538c-.179-.538-.359-1.075-.717-1.613l1.613-2.51c.179-.179.179-.537 0-.716l-2.151-2.151c-.179-.18-.537-.18-.717 0l-2.509 1.613c-.538-.359-1.076-.538-1.792-.717l-.538-2.868c0-.359-.359-.538-.538-.538h-3.047c-.358 0-.538.179-.538.538l-.537 2.868c-.538.179-1.076.358-1.614.717l-2.509-1.613c-.179-.18-.538-.18-.717 0l-2.151 2.151c-.179.179-.179.537 0 .716l1.613 2.51c-.358.538-.537 1.075-.716 1.613l-2.868.538c-.359 0-.538.358-.538.538v3.047c0 .358.179.538.538.538l2.868.537c.179.538.358 1.255.716 1.793l-1.613 2.509c-.179.18-.179.538 0 .717l2.151 2.151c.179.179.538.179.717 0l2.509-1.613c.538.358 1.076.538 1.614.717l.537 2.868c0 .358.359.538.538.538h3.047c.359 0 .538-.18.538-.538l.538-2.868c.537-.179 1.254-.359 1.792-.717l2.509 1.613c.18.179.538.179.717 0l2.151-2.151c.179-.179.179-.537 0-.717l-1.613-2.509c.358-.538.538-1.076.717-1.793l2.868-.537c.358 0 .537-.359.537-.538v-2.868c0-.359-.358-.538-.537-.717zm-10.755 7.17c-3.584.717-6.631-2.33-5.914-5.915.358-1.972 1.971-3.585 3.943-3.944 3.585-.717 6.632 2.33 5.915 5.915-.359 1.972-1.972 3.585-3.944 3.944z"/></g><g opacity=".1" fill="#fff"><path opacity=".1" d="M598.738 469.203c1.255 1.434 1.076 3.585-.358 4.84-1.434 1.255-3.585 1.076-4.84-.358-1.254-1.434-1.075-3.585.359-4.84s3.584-1.076 4.839.358z"/><path opacity=".1" d="M611.285 483.543l-2.509-4.302c.537-.896 1.075-1.792 1.434-2.688l4.839-.538c.538 0 .896-.538.896-.896l.359-4.84c0-.538-.359-.896-.717-1.076l-4.66-1.254c-.18-1.076-.538-1.972-.897-2.868l3.047-3.764c.359-.359.359-.897 0-1.255l-3.226-3.585c-.358-.359-.896-.359-1.255-.179l-4.301 2.509c-.896-.538-1.793-.896-2.689-1.255l-.538-4.839c0-.538-.537-.897-.896-.897l-4.839-.358c-.538 0-.896.359-1.076.717l-1.254 4.66c-.896.18-1.972.538-2.868.897l-3.764-3.048c-.359-.358-.896-.358-1.255 0l-3.585 3.227c-.358.358-.358.896-.179 1.255l2.51 4.302c-.538.896-1.076 1.792-1.434 2.688l-4.84.538c-.538 0-.896.538-.896.896l-.359 4.84c0 .538.359.896.717 1.075l4.661 1.255c.179.896.537 1.972.896 2.868l-3.047 3.764c-.359.359-.359.896 0 1.255l3.226 3.585c.359.358.896.358 1.255.179l4.122-2.509c.896.537 1.793 1.075 2.689 1.434l.538 4.839c0 .538.537.897.896.897l4.839.358c.538 0 .896-.358 1.076-.717l1.254-4.66c1.076-.18 1.972-.538 2.868-.897l3.764 3.048c.359.358.896.358 1.255 0l3.585-3.227c.358-.358.537-.896.358-1.434zm-20.254-5.556c-4.66-3.765-4.122-10.755 1.076-13.802 2.867-1.614 6.631-1.434 9.141.717 4.66 3.764 4.122 10.754-1.076 13.802-2.868 1.613-6.452 1.254-9.141-.717z"/></g><g opacity=".1" fill="#fff"><path opacity=".1" d="M282.383 220.23c3.047 1.972 3.764 6.095 1.792 9.142-1.972 3.047-6.094 3.764-9.141 1.792-3.047-1.971-3.764-6.094-1.793-9.141 1.972-2.868 6.095-3.765 9.142-1.793z"/><path opacity=".1" d="M312.674 240.485l-6.632-6.453c.538-1.792.896-3.764 1.076-5.556l8.603-3.585c.717-.359 1.255-1.255 1.076-2.151l-1.793-9.142c-.179-.896-1.075-1.613-1.971-1.434l-9.321.18c-.896-1.793-1.972-3.406-3.405-4.84l3.584-8.604c.359-.717 0-1.792-.717-2.33l-7.707-5.019c-.717-.538-1.792-.359-2.33.179l-6.453 6.632c-1.792-.537-3.764-.896-5.556-1.075l-3.405-8.604c-.359-.717-1.255-1.255-2.151-1.076l-9.141 1.793c-.897.179-1.614 1.075-1.434 1.972l.179 9.321c-1.613.896-3.226 1.971-4.66 3.226l-8.604-3.585c-.717-.358-1.792 0-2.33.717l-5.019 7.708c-.537.717-.358 1.792.18 2.33l6.631 6.453c-.537 1.792-.896 3.764-1.075 5.736l-8.603 3.405c-.717.359-1.255 1.255-1.076 2.151l1.793 9.142c.179.896 1.075 1.613 1.792 1.434l9.141-.179c.896 1.613 1.972 3.226 3.047 4.66l-3.585 8.604c-.358.717 0 1.792.717 2.33l7.708 5.019c.717.538 1.792.358 2.33-.179l6.452-6.632c1.793.537 3.764.896 5.736 1.075l3.585 8.604c.358.717 1.254 1.255 2.151 1.075l9.141-1.792c.896-.179 1.613-1.076 1.434-1.793l-.18-9.32c1.793-.897 3.406-1.972 4.84-3.227l8.603 3.585c.717.359 1.793 0 2.33-.717l5.019-7.707c.717-.717.538-1.793 0-2.331zm-39.97 0c-10.396-4.481-13.264-17.745-5.198-25.811 4.481-4.481 11.471-5.915 17.207-3.585 10.575 4.481 13.263 17.745 5.198 25.811-4.481 4.482-11.292 5.916-17.207 3.585z"/></g></g><path opacity=".1" d="M536.543 204.994c-2.151 0-5.198.179-11.651-1.255-5.556-1.255-6.811-4.84-6.273-6.632.537-1.793 3.047-4.84 5.198-5.557 5.018-1.613 7.886-1.613 13.98-.537-3.943-.897-5.018-1.793-7.349-3.944-1.433-1.434-1.254-4.84.18-5.915 5.018-3.764 9.858-1.972 16.848.896-3.764-1.792-3.764-2.151-5.377-3.406-1.075-1.075-1.972-2.509-1.613-3.943.358-2.151 5.019-3.943 7.528-4.123 5.735-.537 10.037.538 15.235 2.51 5.198 1.792 9.679 5.736 10.217 10.396.179-3.047 4.122-5.377 7.886-5.019 3.585.359 6.632 2.868 7.349 5.915.717 2.868-.359 6.095-2.689 8.425 3.406-.896 6.095-2.151 9.5-1.434 3.406.717 7.349 3.406 6.094 7.708-.358 1.254-2.509 5.198-8.245 5.915-9.32 1.075-11.83 1.255-22.225.896l-34.593-.896zM99.3804 249.985c-1.9717 0-4.8395.179-10.7543-1.434-5.0187-1.434-6.2734-5.377-5.7357-7.349.5377-1.972 2.6886-5.377 4.8395-6.094 4.6602-1.793 7.1695-1.793 12.7261-.717-3.585-1.076-4.4812-1.972-6.632-4.302-1.2547-1.613-1.0755-5.378.1792-6.453 4.6602-4.123 8.9618-2.151 15.4148.896-3.406-1.972-3.585-2.33-4.84-3.943-1.075-1.076-1.792-2.868-1.613-4.481.359-2.331 4.66-4.302 6.99-4.482 5.198-.537 9.142.717 13.981 2.689 4.839 2.151 8.783 6.453 9.32 11.651.18-3.406 3.764-5.915 7.17-5.557 3.405.359 6.094 3.227 6.811 6.633.717 3.226-.358 6.811-2.33 9.5 3.047-.897 5.556-2.51 8.603-1.614 3.047.717 6.632 3.765 5.557 8.604-.359 1.434-2.33 5.736-7.528 6.453-8.604 1.255-10.755 1.255-20.254.896l-31.9046-.896z" fill="#3315E8"/><path d="M658.632 283.941c-1.254 1.076-3.047.717-3.047-1.613v-5.378c0-1.613-1.254-2.867-2.867-2.867h-3.764c.358.896.716 1.792.716 2.688 0 3.227-2.509 5.736-6.094 5.915h-.358c-3.585-.179-6.094-2.688-6.094-5.915 0-.896.179-1.971.717-2.688h-3.943c-1.614 0-2.868 1.254-2.868 2.867v5.378c0 2.151-1.793 2.689-3.047 1.613-2.151-1.792-5.378-.896-5.378 2.51.18 3.405 3.406 4.301 5.378 2.509 1.254-1.075 3.047-.717 3.047 1.613v5.198c0 1.614 1.254 2.868 2.868 2.868h5.377c2.151 0 2.688 1.793 1.613 3.048-1.793 2.151-.896 5.377 2.509 5.556 3.406-.179 4.302-3.405 2.509-5.556-1.075-1.255-.716-3.227 1.614-3.227h5.377c1.613 0 2.868-1.255 2.868-2.868v-5.198c0-2.151 1.792-2.689 3.047-1.613 2.151 1.792 5.377.896 5.377-2.51-.359-3.226-3.585-4.122-5.557-2.33zM191.217 142.151h-5.735c-2.331 0-2.868-1.972-1.614-3.227 1.972-2.151.897-5.556-2.688-5.736-3.585.18-4.66 3.585-2.689 5.736 1.255 1.255.717 3.227-1.613 3.227h-5.377c-1.613 0-3.047 1.255-3.047 3.047v5.557c0 2.33-1.972 2.868-3.226 1.613-2.151-1.972-5.557-.896-5.736 2.689.179 3.585 3.585 4.66 5.736 2.688 1.254-1.254 3.226-.717 3.226 1.614v5.556c0 1.613 1.255 3.047 3.047 3.047h5.556c2.33 0 2.868 1.972 1.613 3.227-1.971 2.151-.896 5.556 2.689 5.736 3.585-.18 4.66-3.585 2.689-5.736-1.255-1.255-.717-3.227 1.613-3.227h5.556c1.613 0 3.047-1.434 3.047-3.047v-3.943c-.896.358-1.971.717-2.868.717-3.405 0-6.094-2.689-6.273-6.453v-.359c.179-3.764 2.689-6.453 6.273-6.453 1.076 0 1.972.18 2.868.717v-4.122c0-1.613-1.254-2.868-3.047-2.868z" fill="#8781F5"/><path d="M554.226 144.154l1.972-1.972-1.972-1.972c-.896-.896-.896-2.33 0-3.047.897-.896 2.33-.896 3.047 0l1.972 1.972 1.972-1.972c.896-.896 2.33-.896 3.047 0 .896.896.896 2.33 0 3.047l-1.972 1.972 1.972 1.972c.896.896.896 2.33 0 3.047-.896.896-2.33.896-3.047 0l-1.972-1.972-1.972 1.972c-.896.896-2.33.896-3.047 0-.717-.717-.717-2.151 0-3.047z" fill="#C2C0F5"/><path d="M90.8179 286.148l1.9716-1.972-1.9716-1.971c-.8962-.897-.8962-2.33 0-3.047.8962-.897 2.3301-.897 3.047 0l1.9717 1.971 1.9716-1.971c.8962-.897 2.3298-.897 3.0468 0 .896.896.896 2.33 0 3.047l-1.9714 1.971 1.9714 1.972c.896.896.896 2.33 0 3.047-.896.897-2.3299.897-3.0468 0l-1.9716-1.971-1.9717 1.971c-.8962.897-2.3301.897-3.047 0-.717-.717-.717-2.151 0-3.047zM653.4 458.091l1.972-1.972-1.972-1.971c-.896-.897-.896-2.331 0-3.048.897-.896 2.331-.896 3.048 0l1.971 1.972 1.972-1.972c.896-.896 2.33-.896 3.047 0 .896.897.896 2.331 0 3.048l-1.972 1.971 1.972 1.972c.896.896.896 2.33 0 3.047-.896.896-2.33.896-3.047 0l-1.972-1.971-1.971 1.971c-.897.896-2.331.896-3.048 0-.896-.717-.896-2.151 0-3.047z" fill="#3315E8"/><path d="M1.6585 449.057l1.9716-1.972-1.9716-1.972c-.8962-.896-.8962-2.33 0-3.047.8962-.896 2.33-.896 3.047 0l1.9717 1.972 1.9716-1.972c.8962-.896 2.3301-.896 3.047 0 .8962.896.8962 2.33 0 3.047l-1.9716 1.972 1.9716 1.972c.8962.896.8962 2.33 0 3.047-.8962.896-2.33.896-3.047 0l-1.9716-1.972-1.9717 1.972c-.8962.896-2.33.896-3.047 0-.8962-.717-.8962-2.151 0-3.047zM269.137 7.6628l1.971-1.9717-1.971-1.9717c-.897-.8963-.897-2.3302 0-3.0472.896-.8963 2.33-.8963 3.047 0l1.971 1.9717 1.972-1.9717c.896-.8963 2.33-.8963 3.047 0 .717.8962.896 2.3302 0 3.0472l-1.793 1.9717 1.972 1.9717c.896.8962.896 2.3302 0 3.0472-.896.8962-2.33.8962-3.047 0l-1.972-1.9717-1.971 1.9717c-.896.8962-2.33.8962-3.047 0-1.076-.8962-1.076-2.3302-.179-3.0472zM277.902 273.644c-10.038-8.603-18.462-20.434-24.018-32.443-2.689-5.736-4.66-11.651-6.094-17.746-.717-3.405-1.434-6.99-1.793-10.396-.358-3.047 0-6.274-.896-9.142-.179-.358-.717-.358-.717 0-.717 2.868 0 6.274.359 9.142.358 3.226.896 6.453 1.613 9.679 1.613 6.812 3.943 13.444 6.811 19.897 2.868 5.915 6.094 11.471 10.037 16.67 4.481 5.556 9.321 9.858 14.698 14.339z" fill="#C2C0F5"/><path d="M268.581 264.683c.359-.18-1.971.717-3.943 0-4.66-1.793-4.839-2.151-10.037-3.227-.538-.179-1.972-.179-2.33.179-.538.359-.538 1.076-.359 1.614.179.537.717.896 1.076 1.254 4.66 3.227 9.858 1.614 15.593.717v-.537zM262.308 256.079c.538-.18-1.972.717-4.302.358-3.405-.896-4.481-2.689-9.858-4.302-.538-.179-1.971-.358-2.688 0-.538.359-.897 1.255-.717 1.972.179.717.537 1.075.896 1.434 4.302 4.123 13.443 2.509 16.49 1.255l.179-.717zM257.648 248.55c.538-.179-1.793.717-3.764-.717-4.66-3.585-4.481-4.123-10.037-6.991-.538-.358-2.151-.896-2.868-.537-.717.358-.896 1.075-.896 1.792 0 .717.537 1.255.896 1.793 4.301 5.198 11.471 5.556 17.027 5.377l-.358-.717zM252.988 239.946c.537 0-3.047-1.434-4.84-3.226-5.377-4.84-4.481-6.095-9.679-9.859-.537-.358-1.971-1.255-2.688-.896-.717.179-1.076 1.075-1.076 1.792 0 .717.359 1.434.717 1.972 3.406 5.736 10.755 8.245 17.566 10.217zM248.507 226.862c.537-.18-2.51-.359-4.123-2.151-4.122-3.048-3.764-5.557-8.245-8.963-.538-.358-1.792-1.075-2.33-.717-.717.18-1.075 1.076-1.075 1.793 0 .717.179 1.254.537 1.792 2.868 5.557 12.368 9.321 15.236 8.246zM245.997 217.003c.538 0-1.434-1.076-2.509-2.51-2.509-3.405-3.047-4.839-6.632-7.886-.358-.359-1.434-.897-2.151-.717-.717.179-1.254.896-1.434 1.434-.179.537 0 1.075 0 1.613 1.793 4.66 7.349 6.453 12.726 8.066zM245.28 209.295c.359.18-1.254-1.075-1.792-2.688-1.792-3.585-.717-5.019-2.688-8.604-.18-.359-.897-1.255-1.434-1.255-.538 0-1.255.179-1.434.538-.359.358-.359.896-.359 1.255 0 4.122 3.943 7.707 7.707 10.754zM270.732 266.833c-.358.18 1.434-1.254 1.613-3.226.359-4.302.18-4.66 1.434-9.321.18-.538.717-1.613 1.255-1.792.538-.18 1.255 0 1.613.358.359.359.538.896.538 1.434.896 4.84-3.047 8.425-6.273 12.727l-.18-.18zM264.459 259.126c-.538.179 1.613-1.255 2.688-3.227 1.076-3.226.18-5.019 1.614-10.217.179-.538.717-1.792 1.434-1.972.716-.179 1.433 0 1.971.359.538.358.717 1.075.717 1.613 1.076 5.557-5.198 12.189-7.886 13.802l-.538-.358zM258.903 251.239c-.538.358 1.792-.717 1.971-3.048.359-5.198-.179-5.377 1.255-10.754.179-.538.717-1.972 1.434-2.151.717-.18 1.434 0 1.971.358.538.359.717 1.076.717 1.613 1.255 5.736-3.226 10.934-6.99 14.519l-.358-.537zM253.167 241.022c-.538.179 1.971-2.33 2.509-4.481 2.33-5.736.717-6.453 3.406-11.472.358-.538 1.075-1.793 1.792-1.793.717-.179 1.434.359 1.793.897.358.537.358 1.075.358 1.792 0 5.915-5.019 10.755-9.858 15.057zM249.223 230.626c-.537.179 1.972-1.434 2.51-3.406 1.971-4.123.538-5.915 2.868-10.396.179-.538 1.075-1.614 1.792-1.614.717 0 1.434.359 1.792.897.359.537.538 1.075.538 1.613 0 5.557-6.452 12.547-9.5 12.906zM246.356 219.692c-.538.179.896-1.434 1.255-3.227 1.075-4.122 1.075-5.735 3.226-9.858.179-.538.896-1.434 1.613-1.434s1.434.358 1.792.717c.359.538.538 1.075.538 1.434.359 5.198-4.122 8.962-8.424 12.368z" fill="#C2C0F5"/><path d="M245.28 210.191c-.358.179 1.076-1.076 1.434-2.51 1.255-3.226-.179-4.302 1.255-7.707.179-.359.717-1.255 1.255-1.434.537-.18 1.254 0 1.613.179.358.179.538.717.538 1.075.716 3.585-2.689 7.17-6.095 10.397z" fill="#C2C0F5"/><path d="M270.911 310.391c4.481-5.199-2.33-10.755-9.32-9.68-5.915.897-13.264 4.302-15.952.359-.179-5.378 4.481-10.038 7.707-14.878 3.406-4.839 4.84-11.651-1.434-14.519-6.99-3.047-15.235 1.076-22.405 3.048-3.226.896-7.707 1.075-10.216-1.076-4.84-4.481 5.018-11.83-2.151-14.519-3.406-.538-6.632.359-8.066 2.151-1.792 2.151-2.688 5.736-6.452 4.66-4.302-1.434-1.255-5.735-4.302-8.424-1.972-1.613-5.736-1.613-7.528-.538-1.792 1.076-2.151 2.868-2.33 4.481-5.019-1.434-3.047-5.198-12.188-7.17-5.915-1.254-6.095 4.84-.897 7.35 4.302 2.15 11.292 3.047 11.472 6.094.179 2.151-4.123 2.33-3.944 4.302.18 2.689 5.736 4.123 9.142 4.123 3.584 0 8.961 1.254 9.141 3.943-5.557.358-11.113.717-13.802 3.764-2.509 2.868 0 9.5 5.019 11.651 3.406 1.613 6.632.179 9.679-.717 3.047-.896 7.707-1.075 10.217 1.972-2.51 3.226-4.661 7.887-1.255 11.472 4.481 5.198 13.801-.538 17.924 4.66-2.868 2.33-5.736 4.661-7.17 7.887-1.434 3.226-1.255 7.887 1.076 10.396 4.481 5.198 15.593-1.434 17.565 5.557.717 2.868-1.255 6.811-.896 9.859.358 4.301 4.839 5.018 9.141 3.584 6.632-2.33 18.999-10.934 19.537-19.179 0-4.302-5.915-5.557-5.915-9.679-.717-5.736 5.019-6.632 8.603-10.934z" fill="#B8A7F3"/><path d="M200.112 269.343c8.245 3.047 14.698 8.604 20.613 13.443 6.452 5.915 12.188 12.01 17.207 18.283 4.66 6.453 8.782 13.265 12.008 20.076 2.689 6.991 5.915 14.34 6.095 22.227 0 .358-.538.717-.717.358-2.33-6.094-3.406-13.623-5.736-19.896-3.047-6.632-6.632-13.264-10.934-19.538-4.839-6.274-10.216-12.368-16.31-18.463-6.632-5.915-13.981-11.113-22.226-16.49-.179.179-.179 0 0 0zM232.554 293.003c-.538-5.019 1.793-10.575 5.198-14.698.359-.538 1.434 0 1.076.359-3.585 4.66-4.84 9.141-5.915 14.339 0 .18-.359.18-.359 0zM212.659 274.541s0 .179 0 0c.179.179.179.179 0 0 .179.179.179.179.179.359 0 0-.179.179-.179 0-1.255-.538-1.076-2.689-1.076-3.406-.179-1.613-.358-3.406.717-4.66.18-.18.538 0 .538.179.179 1.255-.358 2.509-.358 3.764-.18 1.255 0 2.689.179 3.764z" fill="#AD97F0"/><path d="M219.829 285.475c-2.868-.358-5.915-.358-8.425.18-1.434.358-2.867 1.434-4.301 1.254-.18 0-.359-.179-.18-.179.538-1.075 3.047-1.613 4.481-1.972 2.689-.537 5.736-.358 8.604 0 .358.18.358.717-.179.717zM244.205 319.532c-4.66-.896-8.424-.359-12.547 1.972-.358.179-.896-.359-.358-.717 3.585-2.689 9.141-3.585 13.084-1.793.359.179.179.538-.179.538zM251.016 321.683c1.255-4.302 4.481-10.037 9.32-12.188.538-.18.896.358.359.717-5.019 3.226-6.632 7.169-9.5 11.471.179.18-.179.18-.179 0zM235.781 302.862c-5.736-1.613-11.651-3.943-16.849-.896-.537.359-.896-.538-.537-.717 5.018-2.868 12.188-1.255 17.386 1.613.179-.179 0 0 0 0z" fill="#AD97F0"/><path d="M284.534 350.542c-12.906-3.048-22.764 13.622-32.801-3.406-1.613-2.51-2.509-5.557-2.689-8.783-.896-10.576-12.726-21.689-24.555-16.491-6.094 2.689-10.934 9.142-17.207 8.783-2.33-.179-4.302-1.255-6.274-2.33-8.245-4.302-17.206-8.604-27.423-8.066-11.113.538-21.15 6.811-24.018 14.698-2.689 7.887 1.613 17.387 9.858 22.944 6.99 5.019 16.311 7.17 21.867 13.264 5.736 6.632 6.274 16.491 12.726 22.406 10.754 10.934 30.291-.359 39.612 11.651 3.405 4.66 3.764 11.651 6.811 16.67 3.226 5.736 9.141 7.887 14.518 7.707 5.557-.358 11.113-2.688 16.669-4.301 6.991-1.793 13.622-5.736 20.434-6.991 3.943-.717 7.707-5.736 8.244-11.113 2.689-33.52 1.793-51.982-15.772-56.642z" fill="#8781F5"/><path d="M173.047 344.985c7.528.717 14.698 1.793 21.867 3.406-2.867-3.585-5.735-8.245-5.377-12.726 0-.18.359-.359.538-.18.896 1.972 1.075 4.123 1.972 6.274.896 2.33 2.15 4.481 3.584 6.632 3.047.717 6.094 1.434 9.142 2.33 10.933 3.585 21.15 8.425 29.753 12.727 1.792 1.075 3.585 2.151 5.377 3.226-1.971-3.405-3.943-7.17-5.556-10.754-1.434-.897-2.868-2.151-4.123-3.227-1.971-1.434-3.943-2.868-6.094-4.123-.537-.358.359-1.075.896-.717 1.972 1.434 3.944 2.868 5.736 4.302.896.717 1.972 1.614 3.047 2.331-1.792-4.302-3.047-8.604-3.764-13.085-.179-.538.896-.897 1.076-.359 2.688 8.783 5.197 17.208 9.678 25.453.18.179 0 .359-.358.538 13.264 7.887 24.556 15.774 34.593 24.019-.359-4.302-.717-8.962-.538-13.444-.896-1.434-1.613-3.226-2.33-4.839-1.075-2.151-2.33-4.302-3.405-6.453-.359-.538.717-1.076 1.075-.538 1.075 2.151 2.151 4.302 3.226 6.632.538 1.255 1.076 2.33 1.613 3.764.18-5.018.717-10.217 1.972-15.415.179-.717 1.255-.717 1.076 0-1.255 10.217-2.331 20.255-1.793 30.293 0 .179-.179.358-.358.358 1.613 1.434 3.226 2.689 4.839 4.123 0 0 .179 0 .179-.179.359-.359.717.179.359.538 6.452 5.556 12.188 11.292 17.386 17.387 7.169 9.679 13.264 20.434 18.462 31.905.179.359-.001.897-.359 1.076h-.358c-.359 0-.717-.179-.717-.538-5.019-11.292-11.113-22.047-18.103-31.547-5.198-5.915-10.934-11.651-17.207-17.208-8.066 8.066-19.179 11.113-28.32 14.698-.179 0-.179-.179 0-.358 4.66-1.972 9.32-4.123 14.16-6.274 4.839-2.33 9.141-5.377 13.622-8.783-8.604-7.528-18.462-14.698-29.574-22.047-.717.717-1.614 1.254-3.047 1.971-3.585 2.151-7.17 4.123-10.755 6.095-4.839 2.868-10.216 7.17-15.773 7.528-.358 0-.358-.538 0-.538 5.557-1.254 10.396-4.839 15.594-7.528 4.122-2.33 9.679-4.66 13.622-7.708-4.839-3.047-9.858-6.094-15.056-9.32-5.915-3.048-12.547-6.274-19.895-9.142-5.378.896-10.396 1.972-14.877 4.66-4.481 2.868-7.887 6.633-11.83 9.501 0 0-.179 0 0 0 3.585-3.944 7.887-8.246 13.085-11.114 3.764-1.971 8.065-3.047 12.367-3.764-2.689-1.075-5.377-1.972-8.245-2.868-9.858-2.868-20.433-4.84-31.367-5.736-.537 0-.896-.538-.717-.896-.896-.179-.537-.538 0-.359z" fill="#9898F8"/><path d="M195.094 338.712c-.717 1.254-1.255 2.688-2.51 3.585h-.179c.179-1.255 1.255-2.689 1.972-3.765.896-1.433 1.613-2.867 2.509-4.301.358-.359 1.075-.18.896.179-.896 1.613-1.792 3.047-2.688 4.302zM198.32 359.325c.179 0 0 .179 0 .359-2.689.358-5.377 0-8.066.179-3.047.179-6.094.717-9.141 1.434 0 0-.179 0 0-.179 4.84-1.614 12.009-3.227 17.207-1.793zM235.96 380.476c.358 0 .179.538-.179.538-7.17-.538-14.339.358-21.509.179-.179 0-.179-.358 0-.358 6.811-1.614 14.877-1.076 21.688-.359zM260.695 408.438c-.538 2.331-2.151 4.84-3.406 6.812-1.254 1.972-2.688 4.481-4.481 5.557-.179 0-.179 0-.179-.18.896-1.971 2.689-3.585 3.943-5.377 1.434-2.151 2.51-4.661 4.123-6.812z" fill="#9898F8"/><path d="M336.692 560.798c-2.689-4.661-5.736-9.142-9.141-13.264.358-.538.537-1.076.717-1.434.358-.897.358-2.51.717-3.406.716-2.151 1.613-4.481 1.613-6.811 0-2.331-.896-4.84-2.689-6.274-.358-.179-.717-.538-1.255-.538-.537 0-.896.359-1.254.896-.896 1.255-1.434 2.689-1.793 4.302-.717 3.585.359 7.349 1.434 10.755-4.301-4.66-8.962-8.783-14.16-12.547.18-.359.359-.896.538-1.255.179-.896.359-2.509.538-3.585.717-2.33 1.255-4.66 1.075-6.99-.179-2.331-1.075-4.84-3.047-6.095-.358-.179-.717-.358-1.254-.358-.538 0-.897.537-1.255.896-.896 1.255-1.255 2.868-1.434 4.302-.538 3.764.896 7.707 2.33 11.292-4.122-2.868-8.424-5.198-12.726-7.349.359-.537.717-1.254.717-1.792.179-.896.359-2.51.538-3.585.717-2.33 1.255-4.661 1.075-6.991-.179-2.33-1.075-4.839-3.047-6.094-.358-.179-.717-.359-1.254-.359-.538 0-.897.538-1.255.897-.896 1.254-1.255 2.868-1.434 4.302-.538 3.943.896 8.066 2.509 11.651.18.179.18.717.359 1.075-2.51-1.255-5.019-2.151-7.707-3.226-3.047-1.076-6.095-2.151-9.142-2.868-.896-.18-1.792-.538-2.867-.717 0-.18.179-.359.179-.538.179-1.076.179-2.51.358-3.585.538-2.33.897-4.66.717-6.991-.358-2.33-1.434-4.66-3.405-5.915-.359-.179-.717-.358-1.255-.358-.538.179-.896.537-1.075.896-.897 1.255-1.076 2.868-1.255 4.481-.358 3.764 1.434 7.708 3.047 11.113-4.302-1.075-8.603-1.792-12.726-3.047-3.405-.896-6.811-1.971-9.858-3.226.538-.538.896-1.076 1.255-1.434.537-.896 1.075-2.33 1.613-3.227 1.254-1.971 2.509-3.943 3.047-6.273.538-2.33.358-4.84-1.255-6.632-.358-.359-.538-.717-1.075-.717-.538-.18-1.076.179-1.434.537-1.255.897-2.151 2.331-2.689 3.765-1.613 3.584-1.434 8.066-.896 12.009v1.793c-1.972-.897-3.764-1.793-5.556-2.868-2.51-1.614-4.84-3.585-6.811-5.916-.897-1.075-1.614-2.15-2.33-3.405.716-.179 1.613-.538 2.15-.896.897-.538 1.972-1.614 2.868-2.151 1.972-1.076 4.123-2.331 5.736-4.123 1.613-1.793 2.509-4.123 1.971-6.453-.179-.358-.179-.896-.537-1.075-.359-.359-.896-.359-1.434-.18-1.434.18-2.868 1.076-4.123 1.972-3.226 2.33-5.018 6.453-6.273 10.217-.179.359-.538.896-.896 1.434-.538-1.075-1.076-1.972-1.255-3.226-1.434-4.123-1.792-8.604-1.792-13.085h.358c.717 0 1.972-.359 2.51-.717.896-.359 2.15-1.434 3.047-1.793 2.151-.896 4.301-1.972 6.094-3.585 1.792-1.613 3.047-3.943 2.688-6.273 0-.359-.179-.897-.537-1.255-.359-.359-.897-.359-1.434-.359-1.613.18-3.047.717-4.302 1.614-3.406 2.151-5.556 5.915-7.349 9.32-.179.359-.717.897-1.075 1.434 0-1.254.179-2.688.179-3.943.179-4.123.538-8.245.717-12.368.717 0 1.972-.359 2.509-.717.897-.359 2.151-1.434 3.047-1.793 2.151-.896 4.302-1.971 6.094-3.585 1.793-1.613 3.048-3.943 2.689-6.273 0-.359-.179-.896-.538-1.255-.358-.358-.896-.358-1.434-.358-1.613.179-3.047.717-4.301 1.613-3.406 2.151-5.557 5.915-7.349 9.321-.179.358-.538.717-.717 1.075v-4.839l-.179-2.331-.18-1.254-.179-1.255c-.179-.717-.358-1.613-.537-2.33l-.717-2.331c-.18-.537-.359-.896-.538-1.254.717-.538 1.792-1.614 2.151-1.972l2.151-2.151c1.792-1.613 3.405-3.226 4.481-5.377 1.075-2.151 1.433-4.661.537-6.812-.179-.358-.358-.717-.896-.896-.538-.179-1.075 0-1.434.179-1.434.538-2.509 1.793-3.585 2.868-2.509 3.047-3.584 6.632-4.122 10.576 0 .358-.179.896-.538 1.613-.179-.359-.358-.717-.538-1.255-.896-1.434-1.792-2.688-2.867-3.943-1.793-2.151-4.123-4.123-6.632-5.736.179-.717.358-1.793.538-2.33.358-.897.717-1.972.896-2.868.717-2.151 1.613-4.481 1.613-6.812 0-2.33-.896-4.839-2.689-6.273-.358-.179-.717-.538-1.254-.538-.538 0-.897.359-1.255.896-.896 1.255-1.434 2.689-1.792 4.302-.717 3.944-.359 8.066.896 11.651 0 0 0 .179.179.359-2.151-1.255-4.302-2.151-6.453-3.047-1.971-.897-4.122-1.614-6.094-2.331.18-.537.18-1.254.359-1.613.358-.896.717-1.972.896-2.868.717-2.151 1.613-4.481 1.613-6.811s-.896-4.84-2.688-6.274c-.359-.179-.717-.538-1.255-.538-.538 0-.896.359-1.255.897-.896 1.254-1.434 2.688-1.792 4.302-.717 3.943-.359 8.066.896 11.651 0 0 0 .179.179.179-2.868-.896-5.735-1.972-8.603-3.047-1.613-.717-3.406-1.255-5.019-2.151.179-.538.538-1.076.717-1.434.538-.897 1.076-1.614 1.613-2.51 1.255-1.971 2.689-3.943 3.227-6.273.537-2.331.358-4.84-1.076-6.812-.179-.358-.538-.717-1.075-.717-.538-.179-1.076.179-1.434.538-1.255.896-2.151 2.33-2.868 3.585-1.792 3.585-2.509 7.528-1.972 11.472v.717c-2.867-1.614-5.735-3.406-8.065-5.736-1.255-1.255-2.33-2.689-3.406-4.123.538-.358 1.255-1.075 1.613-1.434.717-.538 1.434-.896 2.151-1.434 1.793-1.075 3.406-2.151 4.66-3.764 1.255-1.613 1.972-3.764 1.434-5.557-.179-.358-.179-.717-.537-.896-.359-.179-.897-.179-1.255-.179-1.255.358-2.509 1.075-3.406 1.972-2.509 2.151-4.481 5.198-5.556 8.424 0 .179-.179.717-.359 1.076-.179-.359-.537-.717-.717-1.255-1.433-2.689-2.33-5.557-3.047-8.604 0-.358-.179-.717-.179-1.075.359-.359.896-.717 1.076-.897.537-.358 1.075-.717 1.613-1.075 1.254-.896 2.688-1.613 3.585-2.868.896-1.255 1.433-2.868 1.075-4.302 0-.359-.179-.538-.359-.717-.358-.179-.716-.179-.896-.179-.896.179-1.792.717-2.688 1.434-1.793 1.434-3.047 3.405-3.944 5.556-.716-4.839-1.075-9.679-1.254-14.698h-.359c-.179 3.047-.358 6.274-.179 9.5 0 2.151.179 4.302.359 6.453h-.18c-.537-.179-1.254-.538-1.792-.896-1.434-.717-2.868-1.434-4.302-1.613-1.434-.18-3.226.179-4.301 1.254-.18.18-.359.359-.359.717 0 .359.179.717.359.897.716.717 1.613 1.254 2.509 1.434 2.509.896 5.198.896 7.707.358.179 0 .359 0 .538-.179 0 .358.179.717.179 1.075.538 3.227 1.434 6.274 2.689 9.321.179.359.358.717.537 1.076-.179 0-.537-.18-.717-.18-.896-.358-1.613-.537-2.509-.896-1.972-.717-3.764-1.434-5.915-1.434-1.971 0-4.122.538-5.377 2.151-.179.359-.358.717-.358 1.076 0 .358.358.896.717 1.075 1.075.896 2.33 1.255 3.584 1.613 3.227.717 6.811.538 10.038-.537.358-.18 1.075-.359 1.613-.717 1.075 1.792 2.33 3.405 3.764 4.839 1.792 1.972 3.764 3.406 5.915 4.84-.18 0-.359 0-.359-.179-1.971-.538-3.943-.897-5.915-.717-1.971.179-4.122 1.075-5.018 2.868-.18.358-.359.717-.359 1.075 0 .359.359.717.717 1.076 1.076.717 2.509 1.075 3.764 1.075 3.406.359 6.811-.358 9.858-1.792.359-.18 1.076-.538 1.613-.897 1.972 1.076 4.123 1.972 6.094 2.689 1.972.717 3.944 1.434 5.915 2.151-1.971.179-3.943.538-5.735 1.434-1.793.896-3.406 2.509-3.764 4.481 0 .359-.18.717.179 1.076.179.358.717.537 1.075.717 1.255.358 2.689.179 3.944-.18 3.226-.896 6.273-2.688 8.603-5.198.179-.179.359-.358.538-.537 2.33.716 4.839 1.613 7.169 2.509 2.151.896 4.481 1.792 6.453 2.689-.896.179-1.792.179-2.509.358-1.972.179-4.123.538-5.915 1.434-1.793.896-3.406 2.51-3.764 4.481 0 .359-.18.717.179 1.076.179.358.717.538 1.075.717 1.255.358 2.689.179 3.944-.179 3.226-.897 6.273-2.689 8.603-5.199l1.075-1.075c2.331 1.434 4.661 3.047 6.453 5.198 1.075 1.076 1.972 2.33 2.868 3.585.358.538.538 1.075.896 1.792h-1.613c-.896-.179-1.613-.179-2.509-.358-1.972-.359-3.944-.717-6.095-.359-1.971.359-3.943 1.434-4.839 3.227-.179.358-.358.717-.179 1.075.179.359.538.717.896.897 1.075.717 2.509.896 3.764.896 3.406.179 6.811-.717 9.679-2.51.358-.179 1.075-.717 1.613-1.075 0 .179.179.358.179.717l.717 2.151c.179.717.359 1.434.538 2.33l.179 1.076.179 1.075.359 2.33c.179 1.793.179 3.585 0 5.378-.538-.359-1.613-.538-1.972-.717-.717-.359-1.434-.897-2.33-1.255-1.792-.896-3.585-1.972-5.556-2.33-1.972-.359-4.123 0-5.736 1.434-.179.179-.538.537-.538.896 0 .358.18.896.538 1.255.896 1.075 2.151 1.613 3.406 2.151 3.226 1.254 6.631 1.434 10.037.896.538-.179 1.434-.359 2.151-.538-.179 3.944-.538 7.708-.896 11.651-.18 1.255-.18 2.33-.18 3.585-.537-.358-1.254-.538-1.613-.896-.717-.538-1.434-1.076-2.151-1.434-1.613-1.255-3.226-2.33-5.197-3.047-1.972-.538-4.123-.538-5.736.717-.359.179-.538.537-.717.896-.179.358.179.896.358 1.255.717 1.075 1.793 1.971 3.047 2.509 3.048 1.613 6.453 2.33 9.859 2.151.537 0 1.433 0 2.15-.358v4.122c.18 3.227.359 6.453 1.434 9.5.18.538.359 1.255.538 1.793-.179 0-.179-.179-.358-.179-.717-.538-1.255-1.076-1.972-1.614-1.613-1.254-3.226-2.509-5.019-3.226-1.971-.717-4.122-.717-5.735.358-.359.18-.538.538-.717.897-.18.358 0 .896.358 1.254.717 1.076 1.793 1.972 2.868 2.689 2.868 1.793 6.273 2.689 9.679 2.689.538 0 1.434 0 2.151-.179 0 .179 0 .179.179.358.717 1.434 1.613 2.868 2.509 4.123 1.972 2.688 4.481 4.839 7.17 6.632.717.538 1.434.896 2.33 1.434-1.792-.179-3.764-.359-5.556 0-1.972.358-3.944 1.613-4.661 3.406-.179.358-.179.716-.179 1.075.179.358.538.717.896.896 1.255.538 2.51.717 3.944.717 3.405 0 6.811-1.075 9.678-3.047.18-.179.538-.358.897-.717 3.405 1.434 6.811 2.509 10.395 3.585 3.764 1.075 7.708 1.972 11.472 2.868-.538 0-.896.179-1.434.179-1.972.359-3.943.717-5.736 1.613-1.792.897-3.405 2.51-3.585 4.482 0 .358 0 .717.18 1.075.179.359.717.538 1.075.717 1.255.179 2.689 0 3.943-.358 3.227-.897 6.274-2.868 8.425-5.378.179-.358.716-.717 1.075-1.255 1.075.18 1.972.538 3.047.897 3.047.717 5.915 1.792 8.783 2.868 1.613.537 3.047 1.254 4.66 1.971h-.896c-1.972.18-4.123.359-5.915 1.255-1.793.896-3.406 2.33-3.943 4.302 0 .358-.18.717 0 1.075.179.359.717.538 1.075.717 1.255.359 2.689.18 3.943-.179 3.227-.717 6.453-2.509 8.783-4.84.179-.179.358-.358.717-.716 4.481 2.15 8.783 4.481 12.905 7.169h-2.33c-1.972 0-4.123.18-5.915.897-1.972.717-3.585 2.151-4.122 4.122-.18.359-.18.717 0 1.076.179.358.537.538 1.075.717 1.255.358 2.689.358 3.943.179 3.406-.538 6.453-2.151 9.141-4.302.18-.179.717-.538 1.076-.896.179.179.358.179.538.358 5.018 3.585 9.858 7.529 14.159 12.01.18.179.359.538.717.717-.358 0-.717.179-.896.179h-2.509c-1.972 0-4.123-.179-5.915.538-1.972.538-3.764 1.972-4.481 3.764-.179.359-.179.717 0 1.076.179.358.538.717.896.896 1.255.538 2.51.538 3.943.358 3.406-.358 6.632-1.613 9.321-3.764.358-.179.896-.717 1.254-1.255 3.406 3.765 6.632 7.887 9.321 12.189 1.434 2.689 3.047 5.378 4.302 8.245l1.075 2.151.896 2.151c.538 1.434 1.076 2.868 1.613 4.482l.359-.18c-1.613-6.99-3.764-12.905-6.811-18.462zM459.47 285.476c10.217-8.425 18.82-20.255 24.556-32.085 2.688-5.557 4.839-11.472 6.273-17.567.896-3.405 1.434-6.99 1.972-10.396.358-3.047.179-6.274 1.075-9.142.18-.358.717-.358.717 0 .717 2.868 0 6.274-.358 9.142-.359 3.226-1.076 6.453-1.793 9.679-1.613 6.812-4.122 13.444-7.169 19.718-2.868 5.735-6.274 11.292-10.396 16.49-4.481 5.557-9.32 9.859-14.877 14.161 0 .179 0 0 0 0z" fill="#C2C0F5"/><path d="M468.97 276.692c-.359-.179 1.971.717 3.943 0 4.66-1.792 5.019-2.15 10.217-3.047.537-.179 1.971-.179 2.33.359.358.358.537 1.075.179 1.613-.179.538-.717.896-1.255 1.255-4.66 3.226-9.858 1.434-15.593.537l.179-.717zM475.422 268.267c-.537-.179 1.972.717 4.123.538 3.585-.896 4.481-2.689 9.858-4.123.538-.179 1.972-.358 2.509.179.538.538.717 1.255.717 1.972-.179.717-.537 1.076-1.075 1.434-4.302 3.944-13.622 2.33-16.49.896l.358-.896zM480.083 260.918c-.538-.179 1.792.897 3.764-.717 4.66-3.585 4.481-4.122 10.216-6.99.717-.359 2.151-.897 2.868-.538.717.358.896 1.255.896 1.792-.179.717-.538 1.255-.896 1.793-4.302 5.198-11.471 5.557-17.028 5.019l.18-.359zM484.922 252.136c-.538 0 3.047-1.434 5.019-3.226 5.556-4.661 4.481-6.095 9.858-9.68.537-.358 1.971-1.075 2.688-.896.717.179 1.076 1.075 1.076 1.792 0 .717-.359 1.434-.717 1.972-3.764 5.915-11.113 8.245-17.924 10.038zM489.582 239.23c-.537-.18 2.51-.359 4.123-1.972 4.122-3.047 3.764-5.377 8.424-8.783.538-.359 1.792-1.076 2.33-.717.717.179 1.076 1.075 1.076 1.792 0 .717-.18 1.255-.538 1.793-2.868 5.377-12.547 8.962-15.415 7.887zM492.271 229.371c-.538 0 1.434-1.075 2.509-2.509 2.51-3.406 3.226-4.84 6.811-7.887.359-.359 1.434-.896 2.151-.717.717.179 1.255.896 1.434 1.434.179.537 0 1.075-.179 1.613-1.793 4.84-7.349 6.632-12.726 8.066zM492.988 221.663c-.359.18 1.254-1.075 1.792-2.688 1.793-3.585.717-5.019 2.868-8.604.179-.359.896-1.255 1.434-1.255.538 0 1.255.179 1.434.538.358.358.358.896.358 1.255 0 4.302-3.943 7.707-7.886 10.754zM466.64 278.844c.358.179-1.434-1.255-1.614-3.227-.358-4.302-.179-4.66-1.433-9.321-.18-.537-.717-1.613-1.255-1.792-.538-.179-1.255 0-1.613.358-.359.359-.538.897-.538 1.434-.896 4.84 2.868 8.604 6.094 12.906l.359-.358zM473.092 271.315c.538.179-1.613-1.255-2.509-3.226-1.076-3.227 0-5.019-1.613-10.217-.179-.538-.717-1.793-1.434-2.151-.717-.18-1.434 0-1.972.358-.537.359-.717 1.076-.717 1.613-1.075 5.557 5.019 12.189 7.708 13.982l.537-.359zM478.828 263.429c.538.358-1.792-.717-1.972-3.048-.179-5.198.359-5.377-1.075-10.754-.179-.538-.717-1.972-1.434-2.151-.717-.359-1.434 0-1.972.358-.537.359-.717 1.076-.717 1.613-1.254 5.736 3.048 10.934 6.812 14.519l.358-.537zM484.743 253.39c.538.179-1.972-2.33-2.509-4.481-2.151-5.915-.717-6.453-3.227-11.472-.358-.538-1.075-1.792-1.792-1.792-.717-.18-1.434.358-1.793.896-.358.538-.358 1.075-.358 1.792-.179 5.736 4.839 10.576 9.679 15.057zM488.865 242.994c.538.179-1.971-1.434-2.509-3.406-1.972-4.122-.358-5.915-2.689-10.575-.179-.538-.896-1.614-1.613-1.614s-1.434.359-1.792.897c-.359.537-.538 1.075-.538 1.613-.358 5.557 5.915 12.547 9.141 13.085zM491.733 232.06c.538.179-.896-1.434-1.255-3.226-.896-4.123-.896-5.736-3.047-9.859-.179-.538-.896-1.434-1.613-1.434s-1.434.359-1.792.717c-.359.538-.538 1.075-.538 1.434-.358 5.019 4.123 8.783 8.245 12.368z" fill="#C2C0F5"/><path d="M492.988 222.56c.358.179-1.076-1.076-1.255-2.51-1.255-3.226.358-4.302-1.075-7.707-.18-.359-.717-1.255-1.255-1.434-.538-.18-1.255 0-1.613.179-.359.179-.538.538-.538.896-.896 3.764 2.509 7.349 5.736 10.576z" fill="#C2C0F5"/><path d="M471.837 300.353c-3.764-6.274 4.661-10.755 11.651-8.245 5.915 2.151 13.084 6.99 16.669 3.405 1.255-5.556-2.688-11.472-5.198-17.207-2.688-5.736-2.868-13.265 4.302-14.878 7.886-1.792 15.773 4.123 22.763 7.528 3.226 1.614 7.887 2.689 10.754.717 6.095-3.585-2.867-13.264 5.198-14.877 3.585.179 6.991 1.792 8.066 3.764 1.434 2.51 1.793 6.632 5.736 6.094 4.66-.537 2.33-5.915 6.273-7.886 2.509-1.255 6.273-.538 7.887.896 1.613 1.434 1.613 3.406 1.613 5.198 5.556-.358 4.122-4.84 14.16-5.198 6.452-.179 5.556 6.273-.538 7.887-4.84 1.434-12.368 1.075-13.085 4.122-.537 2.151 3.764 3.227 3.227 5.378-.717 2.689-6.811 3.226-10.396 2.509-3.585-.717-9.679-.537-10.217 2.33 5.736 1.434 11.472 3.048 13.622 6.633 1.972 3.585-1.792 9.858-7.528 11.292-3.943.896-6.99-1.075-9.858-2.509-3.047-1.614-7.886-2.51-10.933 0 1.971 3.764 3.226 9.141-.896 12.188-5.557 4.482-14.16-3.226-19.537 1.434 2.509 2.868 5.018 5.916 5.914 9.68.717 3.764-.358 8.604-3.226 10.755-5.556 4.66-15.952-4.661-19.537 2.33-1.254 2.868 0 7.349-.896 10.396-1.255 4.481-6.094 4.302-10.217 1.972-6.452-3.764-17.744-15.236-16.669-23.84.896-4.481 7.17-4.66 8.066-8.962 1.434-5.736-4.302-7.708-7.17-12.906z" fill="#B8A7F3"/><path d="M553.749 271.315c-9.141 1.613-17.207 6.094-24.197 10.037-7.886 5.019-15.056 10.217-21.688 15.774-6.273 5.915-11.65 12.189-16.49 18.642-4.301 6.811-9.141 13.802-10.754 22.047 0 .359.359.896.538.538 3.585-5.915 6.094-13.444 9.858-19.717 4.481-6.453 9.679-12.548 15.235-18.283 6.274-5.557 13.085-10.935 20.613-16.133 8.603-5.019 17.206-8.962 26.885-12.905.18 0 .18-.18 0 0zM515.213 289.598c1.613-5.199.179-11.293-2.688-16.312-.359-.538-1.434-.358-1.076.179 2.689 5.557 3.226 10.397 3.406 16.133 0 .179.358.179.358 0zM539.589 274.183c-.179 0-.179 0-.179.179v.179s.179.18.359.18c1.434-.18 1.613-2.51 1.792-3.406.538-1.613 1.075-3.585.179-5.019-.179-.179-.537-.179-.537 0-.538 1.255-.18 2.689-.359 3.943-.358 1.255-.717 2.868-1.255 3.944.18 0 .18 0 0 0z" fill="#AD97F0"/><path d="M529.911 284.22c3.047.18 6.094.717 8.782 1.793 1.434.538 2.689 2.151 4.302 2.151.179 0 .359-.179.359-.179-.18-1.255-2.868-2.331-4.302-2.868-2.689-1.076-5.915-1.434-9.141-1.614-.359 0-.538.538 0 .717zM497.827 315.051c5.019 0 8.783 1.255 12.726 4.481.358.359.896-.358.538-.717-3.227-3.584-8.783-5.556-13.264-4.301-.359.179-.359.537 0 .537zM490.299 315.948c-.538-4.84-2.689-11.293-7.349-14.519-.538-.359-1.075.179-.538.717 4.481 4.301 5.557 8.783 7.708 13.802-.18.179.179.179.179 0zM510.015 299.277c6.274-.537 13.085-1.792 17.745 2.33.358.359 1.075-.358.717-.717-4.66-3.943-12.547-3.584-18.462-1.613-.179-.179-.179 0 0 0z" fill="#AD97F0"/><path d="M452.659 351.617c13.264-.717 19.895 17.387 32.801 2.51 2.15-2.151 3.405-5.019 4.122-8.245 2.868-10.397 16.311-19.18 27.065-12.01 5.556 3.764 9.141 10.934 15.415 11.651 2.33.179 4.48-.538 6.452-1.075 8.783-2.689 18.462-5.378 28.32-3.227 10.754 2.33 19.716 10.396 21.15 18.821 1.255 8.245-4.66 16.849-13.801 20.793-7.708 3.764-17.207 4.122-23.839 9.141-6.811 5.557-9.141 15.236-16.311 19.897-12.547 8.962-29.753-5.557-41.045 4.481-4.123 4.123-5.736 10.934-9.5 15.236-4.123 5.198-10.396 6.273-15.594 5.019-5.377-1.255-10.396-4.661-15.773-7.17-6.632-3.047-12.546-7.887-18.82-10.396-3.764-1.434-6.452-6.991-6.094-12.368 3.406-33.52 7.528-51.624 25.452-53.058z" fill="#8781F5"/><path d="M563.607 365.419c-7.528-.717-14.876-.717-22.046-.538 3.406-3.047 6.99-7.17 7.528-11.472 0-.179-.358-.358-.538-.179-1.254 1.793-1.792 3.943-3.047 5.736-1.254 2.151-2.867 4.123-4.66 5.915-3.226.179-6.273.359-9.5.717-11.471 1.613-22.404 4.481-31.545 7.349-1.972.717-3.944 1.434-5.915 2.151 2.688-3.047 5.198-6.273 7.348-9.679 1.614-.717 3.227-1.613 4.661-2.33 2.151-1.076 4.481-2.151 6.631-3.048.538-.179-.179-1.254-.716-.896-2.151 1.076-4.302 2.151-6.453 3.227-1.075.537-2.33 1.254-3.406 1.792 2.51-3.943 4.481-7.887 5.915-12.189.18-.537-.717-1.075-1.075-.537-4.123 8.245-8.066 16.132-13.981 23.481-.179.179 0 .538.179.538-14.339 5.556-26.885 11.292-38.177 17.566 1.254-4.302 2.151-8.604 2.868-13.085 1.075-1.255 2.15-2.868 3.047-4.302 1.433-1.972 3.047-3.944 4.481-5.736.358-.538-.538-1.255-.897-.717l-4.301 5.915c-.717 1.076-1.434 2.151-2.151 3.406.717-5.019 1.075-10.217.717-15.415 0-.717-1.076-.897-1.076-.18-.537 10.397-1.254 20.435-3.584 30.114 0 .179 0 .358.179.538-1.793 1.075-3.764 2.151-5.557 3.226l-.179-.179c-.358-.359-.717 0-.358.358-7.349 4.481-13.981 9.142-20.254 13.982-8.783 8.424-16.669 17.924-23.66 28.321-.179.358-.179.896.179 1.254.18 0 .18.18.359.18.358 0 .717 0 .896-.359 6.99-10.396 14.877-19.717 23.48-27.962 6.094-4.84 12.726-9.501 20.075-13.802 6.632 9.32 16.849 14.339 25.273 19.358.179.179.358-.179.179-.358-4.123-2.868-8.604-5.557-12.905-8.604-4.481-3.047-8.066-6.812-11.83-10.934 9.858-5.915 20.612-11.293 32.98-16.491.717.896 1.434 1.434 2.688 2.51 3.227 2.688 6.274 5.377 9.5 7.886 4.302 3.585 8.783 8.783 14.339 10.217.359 0 .538-.358.179-.537-5.197-2.331-9.499-6.453-13.98-10.217-3.764-3.048-8.604-6.274-12.188-10.038 5.198-2.151 10.754-4.302 16.49-6.453 6.273-1.972 13.442-3.944 21.15-5.557 5.198 1.793 9.858 3.764 13.98 7.17 3.943 3.585 6.632 7.887 10.038 11.472 0 0 .179 0 0 0-2.868-4.481-6.274-9.5-10.934-13.264-3.226-2.689-7.349-4.302-11.471-5.736 2.868-.538 5.735-1.076 8.603-1.434 10.217-1.076 20.971-1.255 31.905-.359.537 0 .896-.358.896-.717.358-.537 0-.896-.359-1.075z" fill="#9898F8"/><path d="M542.816 355.56c.537 1.255.896 2.868 1.792 4.123 0 .179.179 0 .179 0 0-1.255-.717-2.868-1.254-4.123-.538-1.613-1.076-3.047-1.793-4.66-.179-.538-1.075-.359-.896.179.717 1.434 1.255 3.047 1.972 4.481zM536.184 375.277c-.179 0-.179.179 0 .359 2.509.717 5.198.896 7.886 1.613 3.048.717 5.915 1.792 8.604 2.868 0 0 .179 0 0-.179-4.481-2.331-11.292-5.199-16.49-4.661zM495.318 389.617c-.359 0-.359.538 0 .538 7.169.717 14.16 2.868 21.15 3.943.179 0 .358-.179.179-.358-6.273-2.868-14.518-3.585-21.329-4.123zM466.102 412.739c0 2.51 1.255 5.019 2.151 7.349.896 2.151 1.792 4.84 3.584 6.274.18 0 .18 0 .18-.179-.538-2.151-1.972-4.123-3.047-6.095-1.076-2.33-1.614-5.019-2.868-7.349z" fill="#9898F8"/><path d="M568.088 422.419c-1.075-1.434-2.867-1.971-4.66-1.971-1.792 0-3.405.537-5.198 1.075-.717.179-1.434.538-2.15.717-.18 0-.359 0-.538.179.179-.358.358-.717.538-.896 1.254-2.509 1.971-5.198 2.509-8.066 0-.358.179-.538.179-.896.179 0 .359.179.538.179 2.151.538 4.481.538 6.632-.179.896-.179 1.613-.538 2.33-1.255.179-.179.358-.538.358-.717 0-.179-.179-.538-.358-.717-.896-1.075-2.33-1.255-3.585-1.255-1.255.18-2.509.717-3.764 1.255-.538.179-1.075.538-1.613.717h-.179c.179-1.792.358-3.764.537-5.557.18-2.688.18-5.556 0-8.245h-.358c-.359 4.302-.717 8.604-1.434 12.727-.717-1.972-1.792-3.585-3.226-5.019-.717-.538-1.434-1.076-2.33-1.255-.359 0-.538-.179-.897 0-.179.179-.358.359-.358.538-.359 1.254 0 2.688.896 3.764.717 1.075 1.972 1.792 3.047 2.509.538.359.896.538 1.434.897.179.179.538.537.896.896 0 .358-.179.538-.179.896-.717 2.689-1.434 5.198-2.689 7.528-.179.359-.358.717-.537 1.076 0-.359-.18-.717-.18-.896-.896-2.868-2.509-5.378-4.66-7.349-.896-.717-1.792-1.434-2.868-1.793-.358-.179-.717-.179-1.075 0-.179.179-.358.538-.538.717-.537 1.613.179 3.585 1.076 5.019 1.075 1.434 2.509 2.509 3.943 3.406.538.358 1.255.896 1.792 1.254.359.18.897.897 1.434 1.255-.896 1.255-1.971 2.51-3.047 3.585-2.151 1.972-4.481 3.406-6.99 4.84v-.538c.358-3.406-.179-6.991-1.613-10.038-.538-1.255-1.255-2.33-2.33-3.226-.359-.359-.717-.538-1.255-.359-.359 0-.717.359-.896.538-1.255 1.613-1.613 3.764-1.076 5.915.538 1.972 1.614 3.764 2.689 5.557.538.717.896 1.434 1.434 2.151.179.179.358.717.538 1.254-1.434.538-2.868 1.255-4.302 1.614-2.51.896-5.019 1.613-7.528 2.33 0 0 0-.179.179-.179 1.255-3.227 1.613-6.812 1.075-10.217-.179-1.255-.537-2.689-1.433-3.765-.359-.358-.717-.717-1.076-.717-.358 0-.717.18-1.075.359-1.613 1.255-2.51 3.226-2.51 5.377s.538 4.123 1.255 5.915c.359.897.538 1.614.717 2.51 0 .358.179.896.179 1.434-1.792.538-3.584 1.255-5.377 1.792-1.972.717-3.943 1.614-5.736 2.51 0 0 0-.179.18-.179 1.254-3.227 1.613-6.812 1.075-10.217-.179-1.255-.538-2.689-1.434-3.765-.358-.358-.717-.717-1.075-.717-.359 0-.717.18-1.076.359-1.613 1.255-2.509 3.226-2.509 5.377 0 1.972.538 4.123 1.255 5.915.358.897.537 1.614.717 2.51.179.538.179 1.434.358 2.151-2.151 1.255-4.122 2.868-5.915 4.839-.896 1.076-1.792 2.151-2.509 3.406-.179.359-.359.717-.538 1.076-.179-.538-.358-1.076-.358-1.434-.359-3.406-1.255-6.632-3.227-9.321-.896-1.076-1.792-1.972-3.047-2.689-.358-.179-.896-.358-1.254-.179-.359.179-.538.538-.717.896-.896 1.793-.717 4.123.358 5.915.896 1.793 2.33 3.406 3.764 4.661.538.537 1.255 1.254 1.793 1.792.358.359 1.254 1.255 1.971 1.793-.179.358-.358.717-.358 1.075l-.717 1.972c-.179.717-.359 1.434-.538 1.972l-.179 1.075-.179 1.076-.18 1.971c-.179 1.434-.179 2.868-.179 4.123-.179-.359-.538-.717-.717-.896-1.434-3.048-3.405-6.453-6.273-8.425-1.076-.717-2.33-1.255-3.764-1.434-.359 0-.896 0-1.255.359-.358.179-.358.717-.358 1.075-.18 1.972.717 4.123 2.151 5.557 1.433 1.434 3.405 2.33 5.198 3.226.716.359 1.792 1.255 2.688 1.613.538.359 1.613.538 2.151.717 0 3.585.179 7.17.358 10.755v3.406c-.358-.359-.717-.896-.896-1.255-1.434-3.047-3.405-6.453-6.273-8.424-1.076-.717-2.33-1.255-3.764-1.434-.359 0-.896 0-1.255.358-.358.179-.358.717-.358 1.076-.18 1.971.717 4.122 2.151 5.556 1.433 1.434 3.405 2.33 5.198 3.227.716.358 1.792 1.254 2.688 1.613.538.358 1.613.538 2.151.717h.179c0 3.943-.538 7.707-1.792 11.292-.359.897-.717 1.793-1.255 2.689-.179-.358-.538-.896-.717-1.255-1.075-3.226-2.688-6.811-5.377-8.962-1.075-.896-2.151-1.613-3.585-1.792-.358 0-.896-.18-1.254.179-.359.179-.359.538-.538.896-.538 1.972.358 4.123 1.613 5.736 1.255 1.613 3.047 2.689 4.839 3.764.717.538 1.793 1.434 2.51 1.972.358.358 1.254.538 1.792.717-.717 1.075-1.254 1.972-2.151 2.868-1.792 1.971-3.764 3.585-6.094 5.019-2.688 1.613-5.556 2.688-8.603 3.585v-.897c.537-3.405.717-7.169-.538-10.396-.538-1.255-1.255-2.509-2.33-3.226-.359-.359-.717-.538-1.255-.538-.358 0-.717.358-.896.538-1.255 1.613-1.613 3.764-1.075 5.736.358 1.971 1.434 3.764 2.509 5.556.538.717.896 1.972 1.255 2.868.179.179.358.538.537.717-1.613.359-3.047.896-4.66 1.255-3.943.896-7.886 1.613-11.83 2.509 2.331-2.688 4.481-5.736 5.019-9.141.179-1.255.179-2.689-.179-3.944-.179-.358-.359-.896-.717-1.075-.359-.179-.717 0-1.076 0-1.971.538-3.405 2.33-4.122 4.302-.717 1.971-.717 3.943-.717 6.094 0 .896-.358 2.151-.358 3.047v1.255c-.717.179-1.434.359-2.151.538-2.689.538-5.377 1.434-8.066 2.33-2.33.896-4.481 1.613-6.632 2.689 0-.359.179-.717.179-.897 1.434-3.047 2.868-6.632 2.51-10.037-.179-1.255-.538-2.689-1.255-3.765-.179-.358-.538-.717-1.075-.717-.359 0-.717.18-1.076.359-1.792 1.075-2.688 3.226-2.868 5.198-.179 1.972.359 4.123.897 6.095.179.896.179 2.15.358 3.047.179.358.359 1.075.538 1.613-3.943 1.792-7.707 3.764-11.292 6.094 1.434-3.047 2.688-6.453 2.33-9.679-.179-1.255-.538-2.689-1.255-3.764-.179-.359-.538-.717-1.075-.717-.359 0-.717.179-1.076.358-1.792 1.076-2.688 3.227-2.867 5.198-.18 1.972.358 4.123.896 6.095.179.896.179 2.151.358 3.047 0 .359.179.717.359 1.076-4.481 3.047-8.783 6.632-12.547 10.575 1.075-3.047 2.151-6.274 1.613-9.321-.179-1.254-.538-2.688-1.434-3.764-.358-.358-.717-.717-1.075-.717-.359 0-.717.179-1.076.359-1.613 1.254-2.509 3.405-2.509 5.377s.538 4.123 1.255 5.915c.358.896.358 2.151.537 3.047.18.359.359.897.538 1.255-3.047 3.585-5.915 7.349-8.245 11.472-2.688 4.84-4.839 10.038-6.273 15.236h.358c.359-1.255 1.076-2.51 1.434-3.764l.717-1.972.896-1.792c1.076-2.51 2.689-4.661 3.944-6.991 2.509-3.764 5.197-7.17 8.245-10.396l1.075 1.075c2.33 1.792 5.019 3.047 8.066 3.406 1.075.179 2.33.179 3.405-.18.359-.179.717-.358.896-.716.18-.359 0-.717 0-.897-.537-1.613-2.15-2.868-3.764-3.405-1.613-.538-3.405-.538-5.197-.538h-2.331c-.179 0-.537 0-.896-.179.179-.18.359-.359.538-.538 3.764-3.764 8.066-7.17 12.547-10.038.179-.179.358-.179.358-.358.359.358.717.716.896.896 2.151 1.971 4.84 3.405 7.887 3.943 1.075.179 2.33.359 3.405 0 .359-.179.717-.358.896-.717.18-.358.18-.717 0-.896-.358-1.613-1.971-3.047-3.584-3.585-1.613-.717-3.406-.717-5.198-.896-.717 0-1.434 0-2.151-.179 3.585-2.331 7.528-4.302 11.471-5.916.179.18.359.538.538.538 1.972 2.151 4.66 3.764 7.528 4.481 1.075.359 2.33.359 3.405.18.359 0 .717-.18.897-.538.179-.359.179-.538 0-.896-.359-1.793-1.793-3.048-3.227-3.765-1.613-.717-3.405-.896-5.018-1.254h-.717c1.254-.538 2.688-1.076 3.943-1.614 2.509-.717 5.019-1.613 7.707-2.33 1.613-.358 3.047-.717 4.66-1.075.359.538.717 1.075 1.076 1.434 1.971 2.33 4.481 3.943 7.169 4.839 1.076.359 2.33.538 3.406.359.358 0 .717-.179 1.075-.538.18-.358.18-.538.18-.896-.18-1.793-1.434-3.227-3.047-4.123-1.614-.896-3.227-1.255-5.019-1.434-.717-.179-1.255-.179-1.972-.358 2.868-.538 5.736-1.255 8.604-1.972 1.792-.358 3.584-.896 5.198-1.434.179.179.358.538.537.538 1.972 2.151 4.661 3.764 7.528 4.481 1.076.358 2.33.538 3.406.179.358 0 .717-.179.896-.538.179-.358.179-.537 0-.896-.358-1.792-1.792-3.047-3.226-3.943-1.613-.717-3.406-1.076-5.019-1.255h-.358c2.15-.896 4.301-1.972 6.452-3.226 2.33-1.434 4.66-3.406 6.274-5.557.896-1.075 1.613-2.33 2.33-3.585 0 0 0-.179.179-.179.538.179 1.434.179 1.792.179 2.868.179 5.915-.717 8.424-2.151 1.076-.538 1.972-1.255 2.51-2.33.179-.359.358-.717.358-1.076 0-.358-.358-.537-.537-.717-1.434-1.075-3.406-1.075-5.019-.358-1.613.538-3.047 1.613-4.481 2.689-.538.537-1.255.896-1.792 1.434l-.18.179c.18-.538.359-1.076.538-1.434.896-2.689 1.255-5.557 1.434-8.245v-3.585c.538.179 1.434.179 1.792.358 2.868.179 5.915-.358 8.604-1.613 1.075-.538 1.971-1.255 2.688-2.151.18-.359.359-.717.359-1.076 0-.358-.359-.537-.538-.717-1.434-1.075-3.405-1.254-5.019-.717-1.613.538-3.226 1.434-4.66 2.51-.537.358-1.254.896-1.792 1.255-.359.179-.896.358-1.434.717 0-1.076 0-2.151-.179-3.048-.18-3.405-.538-6.811-.538-10.217.538.359 1.434.538 1.792.538 2.868.538 5.915.359 8.783-.538 1.075-.358 2.151-.896 2.868-1.792.179-.359.538-.717.538-1.076 0-.358-.18-.537-.538-.896-1.255-1.255-3.226-1.613-4.84-1.434-1.792.179-3.405 1.076-4.839 1.793-.717.358-1.255.717-1.972 1.075-.358.179-1.254.359-1.792.538 0-1.613 0-3.227.179-4.661l.359-1.971.179-1.076.179-.896c.179-.717.359-1.255.538-1.972l.717-1.792c0-.179.179-.359.179-.538.359.359 1.076.717 1.434 1.076 2.509 1.613 5.377 2.33 8.424 2.33 1.076 0 2.33-.179 3.406-.717.358-.179.717-.359.717-.717 0-.359 0-.717-.18-.896-.717-1.614-2.509-2.51-4.122-2.868-1.792-.359-3.585-.18-5.198.179-.717.179-1.434.179-2.151.358h-1.434c.359-.537.538-1.075.896-1.434.717-1.075 1.614-2.151 2.51-3.047 1.613-1.792 3.585-3.047 5.735-4.302.359.359.717.717.897 1.076 1.971 2.151 4.66 3.764 7.348 4.66 1.076.359 2.33.538 3.406.359.358 0 .717-.18.896-.538.179-.359.179-.538.179-.896-.358-1.793-1.613-3.227-3.226-3.944-1.613-.717-3.405-1.075-5.019-1.254-.717-.18-1.434-.18-2.15-.359 1.792-.896 3.764-1.613 5.735-2.33 1.972-.717 4.123-1.255 6.273-1.972.18.179.359.359.538.538 1.972 2.151 4.66 3.764 7.349 4.66 1.075.359 2.33.538 3.406.359.358 0 .716-.179.896-.538.179-.358.179-.538.179-.896-.359-1.793-1.613-3.227-3.226-3.944-1.434-.717-3.227-1.075-5.019-1.254 1.792-.538 3.405-1.076 5.198-1.614 1.792-.717 3.585-1.434 5.377-2.151.538.359 1.075.717 1.434.897 2.688 1.434 5.556 1.971 8.603 1.792 1.076 0 2.33-.358 3.227-.896.358-.179.717-.538.717-.896 0-.359 0-.717-.18-.897-.896-1.613-2.688-2.33-4.301-2.688-1.793-.18-3.585.179-5.198.537h-.359c1.972-1.075 3.764-2.509 5.377-4.122 1.255-1.255 2.331-2.689 3.406-4.123.538.359 1.075.538 1.434.538 2.688 1.075 5.735 1.255 8.783.717 1.075-.179 2.33-.538 3.226-1.255.358-.179.538-.538.538-.896 1.075-1.255.896-1.434.716-1.793z" fill="#C2C0F5"/><path opacity=".1" d="M106.432 597.761c21.778 0 39.433-3.29 39.433-7.349s-17.655-7.349-39.433-7.349c-21.7775 0-39.432 3.29-39.432 7.349s17.6545 7.349 39.432 7.349z" fill="#3315E8"/><path d="M144.969 541.835c-13.443 3.764-21.867 18.462-24.198 31.547 0 .359.359.538.538.18 1.613-6.632 3.943-13.085 8.066-18.821 1.972-2.689 4.122-4.84 6.632-6.812.717 1.076 2.33.897 3.405.897.18 0 .18 0 .18-.18 0-.717-.359-1.434-1.076-1.613-.358-.179-.717-.179-1.075 0 2.509-1.792 5.018-3.226 7.886-4.66.179-.18 0-.538-.358-.538zm-5.915 6.632c-1.076.179-1.972 0-3.047-.538.537-.179 1.075-.537 1.613-.537.717-.18 1.434.358 1.434 1.075zM149.45 540.222c-.359-.896-1.613-1.075-2.33-.538-.896.717-.538 1.972.358 2.331.179 0 .359.179.538.179.358.179.896 0 1.075-.359.359-.358.538-1.075.359-1.613zm-1.972.717c0-.358.179-.358.538-.358-.179.358 0 .537 0 .717-.179 0-.179 0-.359-.18l-.179-.179zM145.686 539.504c-.359-.179-.538-.179-.897-.179-.179 0-.179.179 0 .359.359.179.538.179.897.179.179 0 .179-.359 0-.359zM147.478 538.609c0-.359 0-.538-.179-.897h-.179c-.18.359 0 .538 0 .897 0 .179.358.179.358 0zM150.167 538.251c0-.18 0-.18 0 0-.538 0-.717.179-.717.537.358-.179.537-.358.717-.537zM151.6 540.401c-.358-.179-.537-.179-.896-.179-.179 0-.179.179 0 .359.359.179.538.358.896.179.18 0 .18-.179 0-.359zM149.987 542.552s-.179.179 0 0c0 .359.18.717.359.896h.179c.179-.358-.179-.717-.538-.896zM147.837 544.165c.358 0 .537-.179.358-.538-.179.18-.358.359-.358.538zM145.865 542.911c-.179.179 0 .358.179.358.359-.179.179-.179.538-.358v-.18c-.359.18-.359 0-.717.18zM144.79 541.118c-.18 0-.18.179-.18.359.359.358.538.358.897 0 .179-.18 0-.359-.18-.359h-.537z" fill="#B8A7F3"/><path d="M128.479 553.845c.179 0 .179 0 0 0 .179-.18 0-.18 0 0 0-.18.179-.18.179-.18.717-.537.717-1.792.538-2.688 0-.359-.359-1.793-.896-1.613-.538.179-.538 1.434-.538 1.792 0 .896.179 1.972.717 2.689zm-.359-3.764c0-.18.18-.18.359.179 0 .179.179.358.179.538v1.075c0 .538-.179 1.075-.358 1.434-.18-.359-.359-.896-.359-1.255.179-.358-.179-1.792.179-1.971zM121.668 543.448c.179-.179 0-.358-.179-.358-10.038 6.453-13.443 20.076-12.368 31.368 0 .179.359.359.359 0-.538-9.321 1.254-17.208 6.094-24.198.896.537 1.971.179 2.868-.18l.179-.179c-.179-.538-.717-1.075-1.255-1.075-.179 0-.358 0-.717.179 1.434-1.972 3.047-3.764 5.019-5.557zm-5.019 5.915c.359-.179 1.793-.179 1.434.538 0 .179-.896.359-1.075.359h-1.255c.179-.18.179-.359.358-.359 0-.179.18-.358.538-.538zM123.46 542.91s.179 0 0 0h.538c.179 0 .179 0 .179-.179.179 0 .179-.179.359-.179v-.179c.358-.538.358-1.076 0-1.434-.538-.717-1.614-.359-2.151.179-.359.717.179 1.613 1.075 1.792zm0-.896s-.179 0 0 0c-.179-.358 0-.538.179-.538v.18c0 .358 0 .537.18.537-.18 0-.18 0-.359-.179zM121.489 541.477c.179 0 .179-.359 0-.359h-.717c-.18 0-.18.179 0 .179.179.18.358.18.717.18zM122.564 539.863c0-.358-.179-.537-.358-.717h-.18c0 .359 0 .359.18.717.179.359.537.18.358 0zM124.356 539.684c.18-.179.18-.359.359-.538 0 0 0-.179-.179-.179-.18.179-.359.358-.18.717zM126.507 540.759c.18 0 .18-.179 0-.359-.358-.179-.537 0-.896.18v.179c.359.358.538.179.896 0zM126.149 543.269c.179 0 .179 0 0 0 .179-.537-.18-.717-.538-.717 0 0-.179 0 0 .18.179.358.358.537.538.537zM124.356 543.806c0 .179-.179.359-.179.538.359 0 .359-.179.179-.538zM122.385 543.986c-.179.179 0 .358.179.179s.179-.179.359-.358c0 0 0-.18 0 0-.359 0-.359-.18-.538.179zM121.13 542.911c.359.179.538.179.717-.179.179-.18 0-.18-.179-.18s-.359 0-.538.18c-.179 0-.179.179 0 .179z" fill="#B8A7F3"/><path d="M109.48 553.308c-.538.179-.18 1.254 0 1.613.179.717.717 1.613 1.433 1.971v-.179h.18c.358-.717.179-1.613-.18-2.151-.358-.537-.896-1.613-1.433-1.254zm1.254 3.226c-.179-.359-.537-.717-.717-1.075 0-.18-.717-1.614-.358-1.614.717-.537.896 2.151 1.075 2.689zM96.9329 552.948c-.1792-3.764.5377-7.528 1.6132-11.113.5377-1.613 1.2546-3.227 1.9719-4.84.179-.358 3.584-6.273 4.301-4.66 0 .179.18 0 .18 0v-.538s0-.179-.18-.179c-2.15-1.076-3.584 2.688-4.301 4.122-2.1512 3.944-3.5851 8.425-4.1228 12.906-1.0754 9.5 2.1509 19 8.2448 26.17.179.359.538-.179.359-.358-4.84-6.274-7.8868-13.623-8.0661-21.51zM110.376 528.391c.179-.896-.538-1.792-1.434-1.971-2.151-.359-2.509 3.226-.538 3.764 1.076.179 1.972-.717 1.972-1.793zm-1.434.359c.179 0 .179 0 0 0 .538-.179.717-.538.717-.896.179.358-.179.896-.717.896.179 0 0 0 0 0zM106.791 525.702c.179 0 .358-.179.179-.358 0 0 0-.179-.179-.179-.359-.359-.896.537-.179.537h.179zM109.121 525.344c.358-.358.538-.537.358-1.075 0-.359-.537-.359-.537 0-.18.179-.18.538-.359.717.179.358.359.538.538.358zM111.272 526.778h.538c.179 0 .179-.358.179-.358-.179-.179-.358-.179-.717-.179-.358 0-.358.537 0 .537zM110.376 533.052c.179-.358.179-.717 0-1.075h-.18c-.179.358-.179.717 0 1.075 0 .179 0 .179.18 0zM107.329 531.259c0-.179-.179-.179-.359 0-.179.18-.358.359-.537.538-.18.179 0 .359.179.359.358 0 .538-.18.717-.538.179 0 .179-.179 0-.359.179 0 .179 0 0 0zM105.536 528.212c-.358-.179-.358 0-.717 0-.179 0-.179.359 0 .359.359.179.359.179.717.179.18-.179.359-.538 0-.538z" fill="#B8A7F3"/><path d="M91.5557 549.901c-.1792 0-.3584.18-.3584.359.3584 2.509 1.9716 4.66 4.4809 5.377-1.9716-1.075-3.4055-2.868-3.9432-5.019.8962.359 1.7924.897 2.5093 1.614.3585.537.717 1.075.8962 1.613.1793.358.1793.896.3585 1.255.1792.179.3585.179.3585 0 .3584-.897-.5377-2.331-1.2547-3.048-.5377-1.254-1.7924-1.792-3.0471-2.151zM98.5461 545.599c-.5378.179-.3585.896.1792.896 1.7927-.358 3.4057-2.151 3.2267-4.122 0-.359-.359-.359-.538-.359-.896.359-1.7925.896-2.5095 1.613-.3584.359-1.2546 1.255-1.0754 1.972.5377-.179.8962-1.075 1.2547-1.613.5377-.538 1.0752-.896 1.7922-1.255 0 1.434-.896 2.51-2.3299 2.868zM111.989 530.363c.179.18.358.359.717.538.179.179.358-.179.358-.358-.179-.359-.358-.359-.537-.538-.359-.538-.897 0-.538.358zM84.924 590.411c13.6221.18 27.244-.717 40.866.18.717 0 1.613.179 2.151-.18.538-.179 1.076-.717 1.613-1.075 3.227-2.868 6.811-5.557 9.5-8.962 2.509-3.406 2.868-4.302 3.047-6.274.179-2.51-1.255-3.047-1.792-3.227-.538-.179-2.151-.179-2.689.18-3.405 1.613-5.198 4.122-7.886 9.141 2.33-4.122 2.15-9.5-.717-13.264-.717-1.075-1.972-1.972-3.406-1.792-1.075.179-1.792 1.075-2.33 1.971-1.972 3.227-3.047 7.17-3.047 10.934.538-3.585.179-7.17-.717-10.754-.538-2.151-1.434-4.302-3.226-5.916-1.613-1.434-4.123-2.33-6.274-1.434-2.151.897-3.226 3.406-3.405 5.557-.179 2.33.179 4.66.179 6.811-.538-3.047-1.792-5.915-3.943-8.245-.717-.717-1.434-1.613-2.33-1.972-.8965-.358-2.1512-.358-2.8681.359-.717.538-1.0754 1.613-1.2547 2.509-.5377 3.047 0 6.274 1.6132 8.963-1.6132-2.689-3.4056-5.378-5.7357-7.529-2.3301-2.151-5.5564-3.405-8.7826-2.868-.8962.18-1.7924.538-2.3301 1.255-.5378.717-.5378 1.434-.5378 2.33 0 2.51 1.2547 5.019 2.8679 7.17 1.6131 1.972 3.764 3.585 5.7356 5.198-1.6132-1.613-3.764-2.509-5.9149-3.047-3.4055-1.075-7.528-1.613-10.0373.717-1.0755 1.076-1.7924 2.689-1.2547 4.123.1792.717.7169 1.075 1.2547 1.613 1.6131 1.613 3.4055 2.689 5.5564 3.585-.717-.179-1.434-.359-1.9717-.179-.7169.179-1.4339.537-1.4339 1.254-.1792.897.717 1.793 1.6132 2.151 1.9716.897 6.6318.717 7.8865.717z" fill="#B8A7F3"/><path d="M459.412 168.412c3.585 0 6.094 2.51 6.094 6.095v13.802c0 3.226-2.509 6.273-6.094 6.273h-10.575c-.896 0-2.33.538-3.047 1.255l-6.811 6.991c-.717.716-1.434.537-1.613-.538l-1.076-5.915c-.179-.897-1.075-1.793-1.792-1.793h-1.434c-3.764 0-6.094-2.689-6.094-6.273v-13.802c0-3.765 2.509-6.095 6.094-6.095h26.348z" fill="#3315E8"/><path d="M435.215 177.195l1.075 2.151.179.18 2.331.358c.179 0 .358.359.179.538l-1.613 1.613s-.18.179 0 .179l.358 2.331c0 .179-.179.358-.358.358l-2.151-1.075h-.179l-2.151 1.075c-.18.179-.359 0-.359-.358l.359-2.331v-.179l-1.613-1.613c-.18-.179 0-.359.179-.538l2.33-.358s.179 0 .179-.18l1.076-2.151c-.18-.179.179-.179.179 0zM446.686 177.195l1.075 2.151.18.18 2.33.358c.179 0 .358.359.179.538l-1.613 1.613s-.179.179 0 .179l.358 2.331c0 .179-.179.358-.358.358l-2.151-1.075h-.179l-2.151 1.075c-.179.179-.359 0-.359-.358l.359-2.331v-.179l-1.613-1.613c-.18-.179 0-.359.179-.538l2.33-.358s.179 0 .179-.18l1.076-2.151c-.18-.179 0-.179.179 0zM458.157 177.195l1.076 2.151.179.18 2.33.358c.179 0 .359.359.179.538l-1.613 1.613s-.179.179 0 .179l.359 2.331c0 .179-.18.358-.359.358l-2.151-1.075h-.179l-2.151 1.075c-.179.179-.358 0-.358-.358l.358-2.331v-.179l-1.613-1.613c-.179-.179 0-.359.179-.538l2.33-.358s.18 0 .18-.18l1.075-2.151c-.358-.179 0-.179.179 0z" fill="#fff"/><path opacity=".1" d="M368.776 616.723c55.038 0 99.656-10.031 99.656-22.406 0-12.374-44.618-22.405-99.656-22.405-55.039 0-99.657 10.031-99.657 22.405 0 12.375 44.618 22.406 99.657 22.406z" fill="#3315E8"/><path d="M462.517 427.618c23.48-24.019 35.848-55.028 35.848-87.114-.179-71.161-60.403-128.161-132.995-128.161-71.158 0-122.599 53.057-130.844 110.057-5.019 38.001 7.17 75.105 32.801 103.067 22.404 24.019 34.772 56.105 34.772 89.086v3.047h127.797v-3.047c0-33.878 11.113-65.067 32.621-86.935z" fill="#EDB94E"/><path d="M300.665 496.091s24.735 7.887 65.243 7.887c40.508 0 65.063-7.887 65.063-7.887s-3.764 77.972-3.943 83.708c-.358 7.349-36.923 16.491-56.818 16.491-29.933 0-65.243-8.604-66.139-15.236-1.255-6.632-3.406-84.963-3.406-84.963z" fill="#2F2661"/><path d="M394.944 480.676s-.179 0 0 0c-1.613-.18-2.868-1.434-2.688-2.868l3.943-64.35c0-.179 0-.538.179-.717 1.255-3.585 6.453-19.717 12.905-37.283h-.896c-12.188 0-23.301-4.302-28.32-10.755-4.122-5.378-5.735-11.113-6.99-15.595-1.792-6.094-2.509-8.066-5.735-8.424h-2.689c-3.047.358-3.943 2.33-5.736 8.424-1.254 4.482-2.867 10.217-6.99 15.595-5.019 6.453-16.131 10.755-28.32 10.755h-.896c6.274 17.745 11.651 33.698 12.905 37.283 0 .179.18.358.18.717l3.943 64.35c.179 1.434-1.076 2.688-2.509 2.868-1.434.179-2.689-1.076-2.868-2.51l-3.944-63.991c-3.764-11.651-8.603-25.632-13.442-39.076-12.368-1.613-23.481-7.707-31.009-17.387-12.009-15.415-9.858-29.038-2.688-35.311 5.198-4.482 12.009-4.302 16.49.537 4.839 4.84 13.443 26.35 20.971 47.142h2.867c10.217 0 20.075-3.585 24.018-8.604 3.585-4.66 5.019-9.5 6.094-13.802 1.614-5.736 3.406-11.651 10.576-12.368h3.405c7.17.717 8.783 6.632 10.575 12.368 1.255 4.302 2.689 9.142 6.094 13.802 3.943 5.019 13.802 8.604 24.018 8.604h2.868c7.528-20.792 16.131-42.123 20.971-47.142 4.66-4.839 11.471-5.019 16.49-.537 7.169 6.273 9.32 19.896-2.689 35.311-9.499 12.189-21.867 16.132-31.008 17.387-4.839 13.444-9.679 27.425-13.443 39.076l-3.943 63.991c-.179 1.255-1.255 2.51-2.689 2.51zm45.527-156.124c-1.434 0-3.047.537-4.481 2.15-3.585 3.765-11.113 21.869-18.82 42.661 7.707-1.434 17.207-5.377 24.555-14.877 9.859-12.548 8.604-23.302 3.406-27.963-1.255-1.254-2.868-1.971-4.66-1.971zm-149.306 0c-1.792 0-3.405.896-4.66 1.792-5.198 4.66-6.453 15.236 3.406 27.962 7.348 9.501 16.848 13.444 24.555 14.878-7.707-20.793-15.056-38.897-18.82-42.661-1.434-1.434-3.047-1.971-4.481-1.971z" fill="#fff"/><g opacity=".2" fill="#fff"><path opacity=".2" d="M308.014 509.176c4.66 1.613 9.32 2.688 14.16 3.585 4.66.896 9.499 1.613 14.339 2.151 9.678 1.075 19.178 1.613 28.857 1.434 9.679 0 19.358-.538 28.857-1.434 4.84-.538 9.5-1.255 14.339-2.151 4.84-.897 9.5-1.972 13.981-3.585-2.151 1.075-4.481 1.972-6.811 2.868-2.33.896-4.66 1.434-6.99 2.151-4.661 1.254-9.5 2.151-14.339 2.868-9.679 1.434-19.358 2.151-29.216 2.151-9.679 0-19.537-.717-29.216-2.151-9.321-1.614-18.999-3.765-27.961-7.887zM308.014 524.949c4.66 1.613 9.32 2.689 14.16 3.585 4.66.896 9.499 1.613 14.339 2.151 9.678 1.076 19.178 1.613 28.857 1.434 9.679 0 19.358-.538 28.857-1.434 4.84-.538 9.5-1.255 14.339-2.151 4.84-.896 9.5-1.972 13.981-3.585-2.151 1.076-4.481 1.972-6.811 2.868-2.33.896-4.66 1.434-6.99 2.151-4.661 1.255-9.5 2.151-14.339 2.868-9.679 1.434-19.358 2.151-29.216 2.151-9.679 0-19.537-.717-29.216-2.151-9.321-1.613-18.999-3.764-27.961-7.887zM308.014 540.724c4.66 1.613 9.32 2.688 14.16 3.585 4.66.896 9.499 1.613 14.339 2.151 9.678 1.075 19.178 1.613 28.857 1.433 9.679 0 19.358-.537 28.857-1.433 4.84-.538 9.5-1.255 14.339-2.151 4.84-.897 9.5-1.972 13.981-3.585-2.151 1.075-4.481 1.971-6.811 2.868-2.33.896-4.66 1.434-6.99 2.151-4.661 1.254-9.5 2.15-14.339 2.867-9.679 1.434-19.358 2.151-29.216 2.151-9.679 0-19.537-.717-29.216-2.151-9.321-1.613-18.999-3.764-27.961-7.886zM308.014 556.496c4.66 1.613 9.32 2.689 14.16 3.585 4.66.896 9.499 1.613 14.339 2.151 9.678 1.075 19.178 1.613 28.857 1.434 9.679 0 19.358-.538 28.857-1.434 4.84-.538 9.5-1.255 14.339-2.151 4.84-.896 9.5-1.972 13.981-3.585-2.151 1.076-4.481 1.972-6.811 2.868-2.33.896-4.66 1.434-6.99 2.151-4.661 1.255-9.5 2.151-14.339 2.868-9.679 1.434-19.358 2.151-29.216 2.151-9.679 0-19.537-.717-29.216-2.151-9.321-1.613-18.999-3.764-27.961-7.887zM308.014 572.27c4.66 1.613 9.32 2.689 14.16 3.585 4.66.896 9.499 1.613 14.339 2.151 9.678 1.075 19.178 1.613 28.857 1.434 9.679 0 19.358-.538 28.857-1.434 4.84-.538 9.5-1.255 14.339-2.151 4.84-.896 9.5-1.972 13.981-3.585-2.151 1.076-4.481 1.972-6.811 2.868-2.33.896-4.66 1.434-6.99 2.151-4.661 1.255-9.5 2.151-14.339 2.868-9.679 1.434-19.358 2.151-29.216 2.151-9.679 0-19.537-.717-29.216-2.151-9.321-1.434-18.999-3.585-27.961-7.887z"/></g><path opacity=".2" d="M406.416 418.477c40.487 0 73.308-34.027 73.308-76.001 0-41.974-32.821-76-73.308-76-40.487 0-73.309 34.026-73.309 76s32.822 76.001 73.309 76.001z" fill="#fff"/><path d="M447.461 598.082c-10.396-.179-20.971-1.075-31.367-.537-.537 0-1.254 0-1.792-.18-.538-.179-.896-.537-1.255-.896-2.509-2.151-5.198-4.302-7.169-6.991-1.972-2.688-2.151-3.405-2.151-5.018-.179-1.793 1.075-2.331 1.434-2.51.358-.179 1.792 0 2.151.179 2.509 1.255 3.943 3.227 5.915 7.17-1.793-3.226-1.434-7.349.896-10.217.717-.717 1.613-1.613 2.509-1.255.717.18 1.255.897 1.792 1.614 1.434 2.509 2.151 5.556 2.151 8.424-.358-2.688 0-5.556.717-8.245.538-1.613 1.255-3.227 2.51-4.481 1.254-1.076 3.226-1.614 4.839-.897 1.613.717 2.33 2.689 2.509 4.302.18 1.793-.179 3.585-.179 5.199.359-2.331 1.613-4.482 3.047-6.274.538-.538 1.076-1.076 1.793-1.434.717-.359 1.613-.179 2.33.358.537.538.717 1.255.896 1.972.358 2.33-.179 4.84-1.434 6.991 1.255-1.972 2.689-4.123 4.481-5.736 1.792-1.613 4.302-2.51 6.811-2.151.717.179 1.434.358 1.792 1.075.359.538.359 1.076.359 1.793 0 1.972-.896 3.943-2.33 5.377-1.434 1.434-2.868 2.689-4.481 3.944 1.254-1.255 2.868-1.793 4.481-2.33 2.688-.717 5.735-1.076 7.707.716.896.717 1.255 1.972.896 3.048-.179.537-.538.896-.896 1.254-1.255 1.076-2.689 2.151-4.302 2.689.538-.179 1.076-.179 1.613-.179.538 0 1.076.538 1.076.896.179.717-.538 1.434-1.255 1.613-1.613.897-5.019.717-6.094.717zM294.212 601.308c10.575-.179 21.15-1.076 31.726-.538.537 0 1.254 0 1.792-.179s.896-.538 1.255-.896c2.509-2.151 5.197-4.482 7.169-7.17 1.972-2.689 2.151-3.406 2.33-5.019.179-1.972-1.075-2.33-1.434-2.51-.358-.179-1.792 0-2.151.18-2.509 1.434-3.943 3.226-5.914 7.349 1.792-3.227 1.433-7.349-.897-10.217-.717-.897-1.613-1.614-2.688-1.255-.717.179-1.255.896-1.793 1.613-1.434 2.51-2.15 5.557-2.15 8.604.358-2.689 0-5.557-.717-8.245-.538-1.614-1.255-3.406-2.51-4.481-1.254-1.076-3.226-1.614-4.839-.897-1.613.717-2.33 2.689-2.51 4.481-.179 1.793.18 3.585.18 5.378-.359-2.33-1.613-4.661-3.047-6.274-.538-.538-1.076-1.075-1.972-1.434-.717-.358-1.613-.179-2.33.359-.538.537-.717 1.254-.896 1.971-.359 2.331.179 4.84 1.434 6.991-1.255-2.151-2.689-4.123-4.481-5.736-1.793-1.613-4.302-2.509-6.811-2.151-.717.179-1.434.359-1.793 1.076-.358.537-.358 1.254-.358 1.792 0 1.972 1.075 3.944 2.33 5.557 1.255 1.613 2.868 2.688 4.481 3.943-1.255-1.255-2.868-1.792-4.66-2.33-2.689-.717-5.915-1.075-7.887.717-.896.717-1.255 2.151-.896 3.226.179.538.538.897.896 1.255 1.255 1.255 2.689 2.151 4.302 2.689-.538-.179-1.076-.179-1.613-.179-.538.179-1.076.537-1.076.896-.179.717.538 1.434 1.255 1.613 1.792.179 5.198 0 6.273-.179z" fill="#B8A7F3"/><path opacity=".1" d="M364.653 263.248c24.55 0 44.451-11.395 44.451-25.453 0-14.057-19.901-25.453-44.451-25.453-24.549 0-44.451 11.396-44.451 25.453 0 14.058 19.902 25.453 44.451 25.453z" fill="#3315E8"/><path d="M453.376 288.88c.896-.358 2.33-.537 3.227-1.075 1.075-.538 2.509-1.972 2.33-3.047-.359-.717-.717-.717-1.434-.359-.896.538-1.613.717-2.33 1.076-.897.358-2.33.717-3.585.537-1.076 0-1.972-.179-2.868-.896-.896-.717-1.434-2.151-2.688-2.509-.717-.179-2.689 1.971-3.048 2.509.717 1.255 2.151 1.793 3.227 2.868 1.075 1.076.896 2.51 2.868 3.227 1.792-.18 2.688-1.614 4.301-2.331z" fill="#E8A287"/><path d="M455.527 285.296c-.358.179-.896.179-1.434.358-.179.538-.537 1.076-1.075 1.434-1.792 1.434-3.943 2.151-6.094 1.972.538.896.896 1.792 2.151 2.33 1.613-.179 2.509-1.613 4.301-2.33.897-.359 2.331-.538 3.227-1.076 1.075-.537 2.509-2.15 2.509-3.226-.358-.717-.717-.717-1.434-.358-.717.358-1.434.717-2.151.896zM438.499 267.012c-3.764-6.094-7.707-12.189-12.009-18.104-2.15-2.868-5.018-6.094-8.245-7.707-1.254-.717-2.509-1.255-3.584-1.972-2.689-1.434-5.198-2.689-7.887-4.123-5.377-2.688-10.754-5.198-16.131-7.707-5.736-2.689-11.471-5.198-17.386-7.887-1.434-.717-3.047-1.255-4.661-.896-2.15.537-3.226 2.688-4.122 4.66-1.792 3.943-4.839 4.481-6.094 8.425 8.066 8.603 22.046 14.16 34.234 16.49 6.274 1.255 13.623 3.406 19.537 4.302.897 4.481 3.585 8.604 6.632 12.189 2.51 3.047 19.358 19 26.527 22.047l.717-.179c.897-.538 1.793-1.255 2.689-1.972-.538-4.122-8.603-14.877-10.217-17.566z" fill="#251D46"/><path d="M410.18 319.891c1.075-.18 2.33.179 3.226.179 1.255-.179 3.047-1.076 3.226-2.151-.179-.717-.358-.896-1.075-.896-.896.179-1.613.179-2.51.179-1.075 0-2.509-.179-3.584-.717-.897-.359-1.793-.717-2.51-1.793-.717-1.075-.537-2.509-1.613-3.226-.538-.359-3.226 1.075-3.764 1.255.179 1.434 1.434 2.509 2.151 3.764.717 1.434 0 2.689 1.613 3.943 1.793.717 3.047-.358 4.84-.537z" fill="#E8A287"/><path d="M413.406 317.201c-.359 0-.896 0-1.434-.179-.359.358-.896.717-1.434 1.075-2.151.897-4.481.717-6.453-.179.18.896.18 1.972 1.255 2.868 1.613.359 2.868-.538 4.84-.717 1.075-.179 2.33.179 3.405.179 1.255-.179 3.047-1.075 3.406-2.151-.18-.896-.359-1.075-1.255-.896-.717 0-1.434.179-2.33 0zM403.727 294.438c-1.434-6.991-3.226-14.161-5.198-21.151-.717-2.33-1.434-4.661-2.868-6.632l-.179-.18c-.179-.358-.358-.896-.538-1.254-8.782-10.755-18.64-20.972-28.498-30.831h.179c-.359-.538-1.076-1.434-.717-2.33 1.613-5.019 4.839-10.038 5.556-13.981-3.226 1.792-6.094 1.971-10.933 1.613-5.736-.179-11.472-.359-17.028-2.151-8.424 21.151 12.367 40.689 23.301 46.246 4.481 2.33 11.292 5.736 16.669 8.424-.538 4.302.538 9.142 2.151 13.265 1.255 3.585 11.83 24.556 17.565 29.755h.717c1.076-.18 2.151-.538 3.227-1.076 1.075-3.943-2.868-16.67-3.406-19.717z" fill="#2F2661"/><path d="M404.265 124.691c.896-.538 1.434-1.614 1.434-2.51-1.793 1.255-4.661 2.33-5.557 4.302-.537 1.255-.717 2.689-1.254 3.944-.897.896-2.33 2.867-3.227 4.301-2.509 3.944-7.707 8.963-11.471 18.642-.179.717-.358 1.434-.538 2.151-1.075.717-2.15 1.434-3.047 1.972-5.735 3.585-10.395 7.17-15.952 10.217-3.585 1.972-7.528 4.123-9.141 7.887 2.151 2.688 5.915 3.226 9.5 3.585 2.509.179 4.839.358 7.348.537.717 0 1.255 0 1.972-.179.538-.179.896-.717 1.255-1.075 7.886-6.632 10.037-9.859 14.876-18.642 1.614-1.255 2.689-3.406 3.944-5.377 3.047-5.916 3.943-9.859 6.094-16.85.179-.717.717-2.509.896-3.764.896-2.33 2.151-4.66 4.122-6.094 1.614-1.255 3.764-1.613 5.557-2.689 0-2.33-4.84-1.434-6.811-.358zM339.56 167.172c-6.274-.717-11.83-2.509-18.462-3.943-1.075-.18-2.33-.538-3.585-.717-.358-.717-.716-1.255-1.254-1.972-6.811-7.708-13.443-10.576-17.207-13.444-1.076-.896-2.689-1.792-3.764-2.509-1.076-1.076-2.509-2.33-3.585-3.406-1.613-1.613-4.481-1.792-6.632-2.33.359.896 1.255 1.613 2.33 1.972-2.33-.359-7.169.538-5.914 2.509 1.971.359 4.122 0 6.273.538s4.122 2.151 5.556 3.764c.18.717.538 1.255.896 1.972 3.406 6.094 8.425 10.934 13.443 15.415 1.793 1.434 3.585 3.047 5.557 3.585 7.528 6.453 10.754 8.783 20.433 12.189.538.179 1.075.538 1.613.538.717 0 1.255-.18 1.792-.538 2.151-1.076 4.481-2.151 6.632-3.227 3.047-1.434 6.453-3.405 7.528-6.632-3.226-2.688-7.707-3.226-11.65-3.764z" fill="#E8A287"/><path d="M374.153 179.72c2.509-1.613 8.424-5.915 8.424-5.915l-1.076-1.076s-2.33-3.943-3.584-7.349c-1.255-3.585-1.793-5.198-1.793-5.198s-13.084 3.764-13.98 3.764c-.359 0-2.689 1.076-5.019 2.51-4.122-.717-8.962-1.076-12.905 0-1.255-.359-2.33-.717-2.509-.717-.897 0-14.34-1.434-14.34-1.434s-.179 1.613-.896 5.377c-.717 3.764-2.33 7.887-2.33 7.887l-.717 1.255s6.811 2.33 9.5 3.405c2.33 1.076 3.585 1.793 5.556 2.689.717 3.406 1.793 6.812 2.33 9.5.18.717.359 1.434.538 2.151v.359s0 16.49-.896 19.358c-.896 3.048 5.198 6.633 17.744 7.708 12.547 1.076 15.415-6.274 15.415-6.274s-1.972-12.547-2.151-25.273c0-2.689 0-6.095-.538-9.321 1.076-1.255 1.972-2.51 3.227-3.406z" fill="#3315E8"/><path d="M364.653 152.653c0-.179 0-.179-.179-.358-.538-.897-1.076-1.614-1.434-2.51-.179-.179-.179-.538-.359-.717-.358-1.792-.717-3.585-1.254-5.198-1.255-2.868-3.406-5.377-6.274-6.453-3.226-1.075-6.811.179-9.32 2.51-2.33 2.33-3.585 5.915-3.585 9.141 0 3.585 1.434 7.349 4.123 9.5 1.075.897 2.151 1.434 3.047 2.331.896.896.896 2.33.717 3.584-.179.717-1.793 1.614-1.793 2.331 0 4.122 12.547 4.66 10.575.358-.896-1.613-1.971-2.689-1.971-4.84.179-4.122 3.226-1.613 5.198-2.867 1.075-.717 1.075-2.331 1.075-3.585 0-.717-.179-1.434-.179-2.331.538-.179.896-.358 1.255-.717.179.18.358 0 .358-.179z" fill="#E8A287"/><path d="M347.625 151.04c-.896-1.792-1.433-4.839-.537-6.811.717-1.613 2.33-2.689 3.943-3.226 1.613-.359 3.405-.18 5.019.179 1.971.358 3.943 1.075 5.915.717 1.971-.538 3.764-3.944 3.943-6.274.179-2.33-1.255-4.481-3.227-5.377-1.971-.717-4.48 0-5.556 1.972-1.075-2.151-3.943-2.689-5.736-1.255-1.075.896-1.613 2.509-2.688 3.405-1.613 1.255-3.764.897-5.557 1.972-1.433.717-2.867 3.406-3.405 4.84-2.33 6.094.538 15.057 5.377 19 1.434 1.076 3.406 1.972 5.019 1.076.896-.717.537-2.151-.359-2.868-.896-.717-1.971-.897-2.868-1.614-.896-.537-1.613-1.971-1.075-2.868.538-.896 1.792-.717 2.509-.358.717.358 1.434 1.075 2.33 1.434-.896-1.255-2.15-2.33-3.047-3.944z" fill="#251D46"/><path opacity=".1" d="M540.486 637.158c22.669 0 41.046-4.093 41.046-9.141 0-5.049-18.377-9.142-41.046-9.142s-41.046 4.093-41.046 9.142c0 5.048 18.377 9.141 41.046 9.141z" fill="#3315E8"/><path d="M459.829 508.638c-2.868-1.972-6.274-1.255-8.425 1.792-1.433 1.972-1.433 4.123-.716 5.916l-1.972-1.255c-.896-.538-2.151-.717-2.689 0L435.99 529.61c-.538.717 0 1.972.896 2.509l4.66 3.406-12.905 3.764c-.717-1.075-1.434-1.613-1.971-1.434-.897.359-.897 2.33-.18 4.302.717 1.972 2.151 3.406 2.868 3.227.717-.18.896-1.434.538-2.868l19.716-.897 5.198 3.765c.896.537 1.792.358 2.33-.359l10.934-15.774c.537-.717.358-1.792-.538-2.33l-2.868-1.792c-.717-2.331-.717-4.481-.717-6.632-.179-3.765-.358-7.17-4.122-9.859zm2.688 15.236l-8.782-5.557c-1.255-1.613-2.689-4.302-.897-6.811 1.614-2.151 3.764-2.689 5.915-1.255 3.047 2.151 3.227 5.019 3.227 8.604.179 1.434.179 3.226.537 5.019z" fill="#251D46"/><path d="M474.526 512.581c-2.689.896-5.556 1.434-8.424.358-1.972-.717-4.123-1.255-5.019.717-.538 2.151.896 1.434 2.868 2.33.538.538-2.689 1.613-2.33 3.047 2.868-.717 3.764-1.075 5.915-1.613 1.613-.358 2.868-1.254 4.481-1.613 2.33-.538 4.839.538 7.348.717 2.51.179 5.198-.358 7.349-1.792 3.585-2.151-.896-4.661-3.226-4.84-3.047-.179-6.273 1.613-8.962 2.689z" fill="#E8A287"/><path d="M516.109 489.1c-.896-2.331-1.792-4.661-2.688-6.812-1.255-3.226-2.868-6.811-6.094-8.066-3.227 2.51-4.123 6.991-5.019 10.934-1.255 6.095-3.405 11.651-5.198 18.104-.179.717-.538 1.613-.717 2.51h-.358c-10.217.896-16.49 4.302-21.15 5.736-2.151.717-5.378 1.434-5.557 1.971-.179.897.538 2.151 1.434 2.689.896.538 2.151.717 3.226.896 6.991.896 13.802 0 20.254-1.434 2.689-.538 5.378-1.255 7.17-2.868.179-.179.538-.537.717-.896 6.99-7.17 9.499-10.038 13.622-19.538.179-.538.538-.896.717-1.434 0-.538-.179-1.075-.359-1.792z" fill="#251D46"/><path d="M505.893 474.94c-1.076 1.255-.896 5.915-.896 7.528 0 4.123.537 6.812 2.509 9.5 6.811 9.321 16.669 16.491 21.329 27.067.538 1.254 1.076 2.688 2.33 3.405 1.076.717 2.33.717 3.585.717 3.226 0 6.811-.358 9.5-2.509 4.301-3.585 3.585-10.397 2.151-15.774-1.613-6.811-3.585-13.623-5.557-20.255-1.792-5.915-3.405-15.953-7.528-20.613-7.349-8.066-23.301 5.198-27.423 10.934z" fill="#2F2661"/><path d="M588.701 480.674c2.868.717 5.915 1.076 8.604-.179 1.971-.896 3.405-2.33 5.197-3.406 1.972 1.255-1.075 4.661-3.047 5.736.897-.358 1.972-.358 2.868.179-1.971.897-4.122 1.972-6.452 1.793-1.614-.179-3.047-.896-4.661-1.076-2.509-.179-4.839 1.076-7.169 1.434-2.509.538-5.198.18-7.349-.896-3.764-1.792.359-4.839 2.689-5.198 3.047-.358 6.452.896 9.32 1.613z" fill="#E8A287"/><path d="M593.899 481.751c-.179-.538-3.585-1.434-5.915-1.793-4.66-.896-11.292-3.764-21.509-3.406-1.075 0-2.33.359-3.226.717-1.434-1.075-3.405-1.971-4.839-2.688-5.915-3.227-11.472-5.378-16.669-8.783-3.406-2.151-12.189-6.095-14.698-3.765-1.255 3.227 3.585 6.633 5.019 9.68 1.075 2.151 2.151 4.481 3.047 6.632.358.538.537 1.255 1.075 1.613.359.359 1.076.359 1.613.538 9.858 3.585 13.622 3.764 24.197 3.585h.18c1.792 1.434 4.66 1.792 7.169 2.151 6.632.717 13.443.896 20.254-.717 1.076-.179 2.151-.538 3.047-1.255.896-.717 1.434-1.792 1.255-2.509z" fill="#2F2661"/><path d="M547.655 513.299c-4.301-.18-8.245 1.613-12.546 1.792-2.151.179-4.661.359-5.915 2.151-.896 1.255-.896 3.047-.896 4.661.896 17.207 4.301 51.802 4.301 51.443 0-.717 0 .359.18 1.793-.359 1.792-.18 3.585-.18 5.557.359 7.169 1.434 13.802 2.33 20.971.359 3.048 2.151 14.161 3.227 20.435v.537c-.359 1.076-1.076 1.793-1.793 2.51-.896.717-2.151 1.434-3.047 1.792-.717.359-1.434.538-2.33.717-.717.179-.896.359-.896 1.076.538.896 2.509 1.254 3.764.896 1.075-.179 2.151-.896 3.047-1.255 1.792-.358 3.226 0 4.66-.896 1.076-1.793 0-2.689.179-4.302 0-.538.18-1.075.359-1.613 3.764-6.812 6.632-29.934 6.811-33.878.179-5.556-.538-11.651-4.123-15.953 1.793-6.094 4.123-15.057 5.557-20.613 3.405-11.472 2.509-27.246-2.689-37.821z" fill="#E8A287"/><path d="M533.137 627.121c.358-.179.896-.359 1.255-.538.537.358 1.075.538 1.613.538 2.33 0 4.481-.896 5.915-2.33.179.896.537 1.792-.359 3.226-1.434.896-3.047.358-4.839.896-1.076.179-2.151 1.076-3.227 1.255-1.254.358-3.405 0-3.943-.896-.179-.897 0-1.076.896-1.255 1.255-.358 1.972-.538 2.689-.896z" fill="#3315E8"/><path d="M608.238 503.621c-1.076 0-2.151.537-3.226.717-1.793.179-3.227-.717-4.661 0-1.254 1.613-.537 2.688-.896 4.122-.179.359-.358.717-.358 1.076l-1.613 3.047c-3.944 7.17-7.17 16.491-8.425 20.613-.537 1.793-1.075 4.302-1.434 7.17-2.15-3.047-4.481-6.273-6.094-8.604-7.169-10.037-19.895-19.358-31.366-22.226-2.868 3.226-3.944 7.349-6.453 10.755-1.255 1.792-2.689 3.764-1.972 5.915.359 1.613 1.793 2.688 3.047 3.585 13.623 10.217 27.962 20.613 42.48 29.396.717.538 2.868 1.613 4.66 2.33.538.538 1.255.897 1.972 1.076 2.33 0 4.481-1.613 5.735-3.764 1.076-2.151 1.434-4.482 1.614-6.991.716-7.17 1.254-14.34 1.613-21.689.179-3.047-.18-12.368 0-20.076 0-.179.179-.358.179-.537.538-1.076 1.255-1.613 2.151-2.151 1.075-.717 2.33-1.076 3.405-1.255.717-.179 1.434-.179 2.51-.179.717 0 1.075-.179 1.075-1.076-.896-.717-2.688-1.254-3.943-1.254z" fill="#E8A287"/><path d="M608.417 506.308c-.358 0-.896.179-1.434.358-.538-.358-1.075-.717-1.613-.717-2.33-.537-4.481 0-6.273 1.255 0-1.075-.18-1.972.896-3.047 1.613-.717 3.047.179 4.839 0 1.076 0 2.33-.717 3.406-.717 1.254 0 3.226.538 3.764 1.613 0 .896-.179 1.076-1.076 1.076-.896 0-1.613 0-2.509.179z" fill="#3315E8"/><path d="M525.25 512.761s8.783-.717 13.264-4.661c4.481-3.943 6.811-6.811 6.811-6.811s3.226 4.66 8.783 6.811c6.094 2.51 12.009 5.199 19.537 10.397 5.556 3.764 10.037 8.245 10.037 8.245s-2.868 13.623-11.113 19.538c-15.235 10.934-18.64 1.972-31.545 8.604-6.991 3.585-14.34 6.094-14.34 6.094s-.717-4.66-.717-21.33c.18-16.312.717-20.434-.717-26.887z" fill="#EDB94E"/><path d="M502.129 434.071c1.075-2.509 4.66-5.018 7.169-5.556 1.614-.359 3.227-.538 4.661-.179 2.15.537 4.122 1.792 5.556 3.405 1.255 1.255 2.509 3.227 4.122 4.302 2.151 1.255 3.227 1.972 5.378 1.793 2.15 0 4.481-.359 6.631.179 2.151.538 4.302 1.792 5.019 3.943.717 1.793.179 3.944-.717 5.736-.538 1.255-1.434 2.51-.896 3.764.358 1.434 2.151 1.972 3.405 2.868 1.434 1.076 2.689 2.689 3.048 4.481.179.897.179 1.793-.18 2.51-.537 1.255-1.613 2.151-2.688 2.868-1.434.896-3.047 1.792-4.84 1.434-2.33-.359-3.943-3.047-3.764-5.378 0-1.075.359-1.971.359-3.047 0-1.075-.179-2.151-1.076-2.688-.717-.538-1.792-.717-2.688-.538-.896.179-1.793.538-2.868.717-1.792.179-3.764-.538-5.019-1.972-1.971-2.33-1.792-5.915-2.868-8.783-.179-.358-.358-.717-.717-1.075-.896-.538-1.971-.18-2.867.358-3.764 1.792-7.17 1.434-10.755-.717-2.688-1.792-4.66-5.198-3.405-8.425z" fill="#3315E8"/><path d="M520.232 465.977c-.359-.538-2.33-.359-2.868-.896-.896-.897-1.792-2.151-1.434-3.406.179-1.255.896-2.509 1.255-3.764.896-3.406-.179-7.349-2.151-10.217-1.972-2.689-4.84-4.84-8.245-5.557-3.406-.538-6.99.538-8.962 3.406-1.792 2.509-2.151 5.915-1.434 8.783.359 1.792 1.075 3.406 1.972 5.019v.717c0 .896.179 1.971.179 2.868 0 .179 0 .358.179.358 0 .179.179.179.359.179.537.18 1.075 0 1.613-.179.358.717.717 1.255 1.075 1.972.717 1.075 1.613 2.509 2.868 2.33 2.509-.179 3.585-3.943 5.915-.717 1.255 1.793.896 3.227 1.255 5.019.717 5.019 10.933-2.509 8.424-5.915z" fill="#E8A287"/><path d="M496.752 458.808c-1.255-.717-2.33-2.151-2.868-3.406-.896-2.151-.538-3.764-.359-5.198.359-3.047 1.793-5.198 4.123-7.349 2.688-2.509 6.99-3.585 10.754-3.406 1.613.18 3.585.717 5.198 1.255 2.689 1.255 5.915 4.302 6.453 6.274 1.075 4.122 1.075 6.99-.359 10.754-.538 1.614-2.151 2.868-3.585 3.765-1.613-1.076-1.613-1.255-3.226-2.51-.538-.358-1.075-.538-1.075-1.255.717-1.075 1.434-.179 1.613-2.15.179-.897-.179-2.868-.896-3.765-.717-.717-1.793-1.075-2.51-.358-1.254 1.434-.537 3.047-1.613 4.66 0-1.434-1.434-2.688-3.405-3.585-1.614-.717-3.406-1.075-5.198-.537-.359 2.688-1.434 4.839-3.047 6.811z" fill="#3315E8"/><path d="M413.227 544.487l1.792.538h.179l1.434-1.076c.18-.179.359 0 .359.179v1.793s0 .179.179.179l1.434 1.076c.179.179.179.358 0 .358l-1.793.538s-.179 0-.179.179l-.537 1.793c0 .179-.359.179-.359 0l-1.075-1.434h-1.972c-.179 0-.358-.18-.179-.359l1.075-1.434v-.179l-.537-1.793c0-.179-.001-.358.179-.358zM407.133 558.647l1.792.538h.179l1.434-1.076c.179-.179.359 0 .359.18v1.792s0 .179.179.179l1.434 1.076c.179.179.179.358 0 .358l-1.793.538s-.179 0-.179.179l-.538 1.793c0 .179-.358.179-.358 0l-1.076-1.434h-1.971c-.179 0-.359-.179-.179-.359l1.075-1.434v-.179l-.538-1.792c-.179-.18 0-.359.18-.359zM421.472 554.883l1.434-1.076v-.179l-.18-1.792c0-.18.18-.359.359-.18l1.434.897h.179l1.613-.717c.179 0 .359 0 .359.179l-.538 1.792v.179l1.255 1.434c.179.18 0 .359-.18.359l-1.792.179s-.179 0-.179.179l-.896 1.614c-.18.179-.359.179-.359 0l-.717-1.614s0-.179-.179-.179l-1.793-.358c0-.359 0-.538.18-.717zM430.613 562.77l1.434-1.076v-.179l-.179-1.792c0-.18.179-.359.358-.18l1.434.897h.179l1.613-.717c.18 0 .359 0 .359.179l-.538 1.792v.18l1.255 1.434c.179.179 0 .358-.18.358l-1.792.179s-.179 0-.179.18l-.896 1.613c-.18.179-.359.179-.359 0l-.717-1.613s0-.18-.179-.18l-1.792-.358c0-.359 0-.538.179-.717zM406.416 573.884l1.433-1.076v-.179l-.179-1.792c0-.18.179-.359.359-.18l1.434.896h.179l1.613-.716c.179 0 .358-.001.358.179l-.537 1.792v.179l1.254 1.434c.18.18 0 .359-.179.359l-1.792.179s-.179 0-.179.179l-.897 1.614c-.179.179-.358.179-.358 0l-.717-1.614s0-.179-.179-.179l-1.793-.358c0-.359 0-.538.18-.717zM419.5 565.28l1.613-.538s.179 0 .179-.179l.538-1.793c0-.179.179-.179.358 0l1.076 1.434h.179l1.793-.179c.179 0 .358.179.179.358l-1.076 1.434v.18l.717 1.613c0 .179 0 .358-.179.358l-1.792-.537h-.18l-1.433 1.075c-.18.179-.359 0-.359-.179v-1.793s0-.179-.179-.179l-1.434-.896c-.179 0-.179-.179 0-.179z" fill="#fff"/><path opacity=".1" d="M216.602 628.016c27.817 0 50.366-5.056 50.366-11.292 0-6.237-22.549-11.293-50.366-11.293-27.816 0-50.366 5.056-50.366 11.293 0 6.236 22.55 11.292 50.366 11.292z" fill="#3315E8"/><path d="M335.975 405.034c-1.075-.538-2.33 0-2.868 1.075l-5.198 11.472h-45.347l5.377-11.472c.538-1.075 0-2.33-1.075-2.868-1.076-.538-2.33 0-2.868 1.076L224.13 533.733c-.358.358-.717.896-.717 1.434l-37.64 81.02c-.538 1.075 0 2.33 1.076 2.867.358.18.537.18.896.18.896 0 1.613-.538 1.971-1.255l5.198-11.472h45.348l-5.736 12.189c-.538 1.075 0 2.33 1.075 2.868.359.179.538.179.897.179.896 0 1.613-.538 1.971-1.255l98.402-212.766c.538-.896.179-2.33-.896-2.688zm-10.217 16.67l-8.603 18.821h-45.347l8.603-18.821h45.347zm-19.357 41.943h-45.348l8.604-18.82h45.347l-8.603 18.82zm-10.575 23.123h-45.527l8.603-18.821h45.348l-8.424 18.821zm-10.755 23.123h-45.347l8.603-18.821h45.348l-8.604 18.821zm-10.754 23.123H228.97l8.603-18.821h45.347l-8.603 18.821zm-10.575 22.944h-45.527l8.604-18.821h45.347l-8.424 18.821zm-10.754 23.122H207.64l8.604-18.821h45.347l-8.603 18.821zm-56.102 23.123l8.603-18.821h45.348l-8.604 18.821h-45.347z" fill="#B2791C"/><path d="M230.583 377.968c-1.972-2.151-4.84-3.227-7.528-3.764-5.915-1.076-12.547.896-16.849 5.377-4.301 4.661-6.094 11.83-3.943 17.746.179.717.538 1.434.359 2.151 0 .537-.359.896-.717 1.433-2.51 3.048-6.632 4.123-9.5 6.812-2.689 2.509-4.302 6.274-4.302 10.038 0 3.764 1.255 7.349 3.585 10.217 1.792 2.33 4.302 4.839 3.585 7.887-.179 1.075-.896 1.971-1.793 2.868-2.33 2.509-5.197 4.122-7.707 6.273-2.509 2.33-4.481 5.736-3.585 8.963.717 2.688 2.868 4.481 5.378 5.377 4.481 1.972 9.32 1.792 14.159 1.255 6.632-.538 13.264-1.793 19.358-4.84 5.915-3.047 14.877-8.245 16.849-14.877 1.971-6.633.358-14.699-5.019-18.821-1.793-1.434-4.123-2.51-4.66-4.661-.359-1.613-.359-5.915 6.631-12.726 1.255-1.255 2.331-3.048 2.151-5.019-.358-3.585-5.198-5.198-5.018-8.783 0-1.434.896-2.51.896-3.944 0-.896-.179-1.613-.359-2.509.359-2.51-.179-4.661-1.971-6.453z" fill="#251D46"/><path d="M274.138 439.27c2.509 1.075 5.377 1.972 7.886 1.255 1.972-.538 3.585-1.614 5.377-2.331 1.793 1.076-1.792 4.123-3.764 4.84.897-.179 1.972 0 2.689.538-1.972.538-4.122 1.075-6.094.538-1.434-.359-2.689-1.434-4.123-1.793-2.15-.538-4.481.179-6.811.179s-4.839-.717-6.631-2.151c-3.047-2.33 1.075-4.302 3.405-4.302 2.509.18 5.556 2.151 8.066 3.227z" fill="#E8A287"/><path d="M273.6 438.373c-4.122-1.613-9.858-5.377-19.358-6.811-.537-.179-1.254-.179-1.792 0-1.075-1.434-2.689-2.689-3.764-3.585-4.66-4.302-8.962-7.708-13.084-12.01-2.689-2.867-5.557-5.735-9.321-6.273-1.971 2.689-1.434 6.274-.896 9.321.359 2.33.896 4.481 1.255 6.811.179.538.179 1.255.537 1.613.359.359.897.538 1.255.897 8.066 5.556 11.292 7.528 20.792 9.858 1.434 1.434 3.764 2.151 5.915 2.689 5.914 1.613 12.367 3.047 18.82 2.689 1.075 0 2.15-.18 3.047-.538.896-.359 1.613-1.255 1.613-1.972 0-.538-2.868-1.972-5.019-2.689z" fill="#DFA133"/><path d="M253.525 556.856c.897-.179 2.151.179 3.047 0 1.076-.179 2.868-1.075 3.048-1.972-.18-.717-.359-.896-1.076-.716-.896.179-1.613.179-2.33.179-.896 0-2.33-.179-3.406-.538-.896-.358-1.792-.717-2.33-1.613-.717-.896-.537-2.33-1.613-3.047-.537-.359-3.047 1.075-3.405 1.254.358 1.434 1.434 2.331 1.971 3.585.717 1.255.18 2.51 1.613 3.585 1.614.538 2.689-.538 4.481-.717z" fill="#E8A287"/><path d="M256.393 554.346h-1.254c-.359.359-.717.717-1.255.897a8.9013 8.9013 0 0 1-6.094 0c.179.896.179 1.792 1.254 2.688 1.614.359 2.689-.717 4.481-.896.897-.179 2.331.179 3.227 0 1.254-.179 2.868-1.075 3.226-2.151-.179-.717-.358-.896-1.075-.717-1.076.179-1.793.179-2.51.179z" fill="#8D8AF7"/><path d="M246.714 533.195c-1.434-6.632-3.226-13.085-5.198-19.717-1.075-3.764-2.509-7.349-3.405-11.292-1.076-4.661-2.33-9.321-3.585-13.982-2.509-9.321-5.377-18.641-8.424-27.783-.538-1.434-.179-2.868-.896-5.915-.538-1.972-5.377 1.434-7.349 2.151-3.764 1.255-7.886.896-11.471 2.509-1.076 11.114 3.226 25.095 10.037 34.595 3.226 4.481 8.245 11.472 11.651 16.311-1.793 4.84-.359 10.397 1.613 15.416 1.254 3.405 11.471 22.764 17.027 27.604h.538c1.076-.18 1.972-.538 2.868-1.076 1.075-4.123-2.689-16.132-3.406-18.821z" fill="#240EC8"/><path d="M233.988 417.94c-.537-1.434-1.971-5.557-3.226-6.453-5.556-3.585-23.839-10.217-27.603-.896-2.15 5.377-.179 14.877 0 20.613.359 6.632.897 13.085 1.614 19.717.179.897-1.793 1.614-1.614 2.331 6.094 2.868 15.236 5.736 20.792 1.792.179-.179.359-.179.538-.179.179-.179.537-.359.717-.538 1.613-9.321 6.99-17.925 9.679-27.245.896-3.227.537-5.557-.897-9.142z" fill="#EDB94E"/><path d="M161.397 442.496c-2.33 1.434-4.84 2.868-7.528 2.689-1.972-.18-3.764-1.076-5.736-1.255-1.254 1.792 2.51 3.764 4.66 3.943-.896 0-1.971.359-2.509 1.076 2.151.179 4.302.358 6.094-.538 1.255-.717 2.33-1.792 3.764-2.509 2.151-1.076 4.481-.717 6.811-1.076 2.33-.358 4.66-1.613 6.274-3.226 2.688-2.868-1.793-4.123-4.123-3.585-2.688.537-5.377 3.047-7.707 4.481z" fill="#E8A287"/><path d="M206.923 406.826c-3.764.896-6.631 4.122-8.962 7.17-3.584 4.66-7.707 8.424-11.829 13.085-1.076 1.075-2.51 2.509-3.406 3.943-1.075 0-2.151 0-3.047.358-9.141 3.048-13.98 7.708-17.924 10.038-1.792 1.076-4.66 3.048-4.481 3.585 0 .717.897 1.434 1.972 1.613.896.18 1.972.18 3.047 0 6.453-.717 12.547-3.226 18.103-5.915 1.434-.717 3.047-1.434 4.123-2.509 9.141-3.227 14.159-6.453 21.687-12.727.359-.358.897-.537 1.255-.896.359-.538.359-1.075.538-1.792.179-2.331.358-4.661.538-6.812.179-3.047.537-6.811-1.614-9.141z" fill="#EDB94E"/><path d="M154.586 468.846c-.897.358-2.151.358-3.047.717-1.076.358-2.51 1.613-2.51 2.688.359.717.538.717 1.255.538.896-.358 1.434-.538 2.151-.717.896-.179 2.33-.358 3.405-.358.897.179 1.793.358 2.689 1.075.896.717 1.075 2.151 2.33 2.51.538.179 2.689-1.614 3.047-2.151-.538-1.255-1.972-1.972-2.868-2.868-.896-1.076-.717-2.331-2.509-3.227-1.434 0-2.33 1.255-3.943 1.793z" fill="#E8A287"/><path d="M152.256 472.072c.358-.179.896-.179 1.254-.179.18-.538.538-.896 1.076-1.255 1.792-1.255 3.943-1.613 5.915-1.434-.359-.896-.717-1.613-1.972-2.33-1.613 0-2.509 1.255-4.122 1.972-.897.358-2.151.358-3.227.717-1.075.537-2.509 1.792-2.509 2.868.358.717.538.717 1.255.537.896-.537 1.613-.717 2.33-.896z" fill="#8D8AF7"/><path d="M211.225 454.147c-3.047-.717-5.915-3.406-7.707-1.792-8.783 6.811-15.952 19.717-18.283 31.009-.537 2.51-1.075 5.557-1.613 8.604-4.481-5.377-15.952-17.924-21.508-20.792h-.538c-.896.358-1.792.896-2.689 1.613 0 4.123 6.632 14.877 7.887 17.387 3.047 6.094 6.273 12.009 9.858 17.924 1.075 1.972 2.33 3.944 4.123 5.199 1.792 1.434 4.301 1.971 6.273 1.075 2.151-1.075 2.868-3.406 4.122-5.198 1.434-2.33 3.227-4.481 4.84-6.811 2.151-3.406 4.122-6.812 6.273-10.217 3.406-5.736 6.273-12.01 10.037-17.567 2.151-3.047 4.84-5.736 7.17-8.783 2.33-2.868 3.943-5.915 5.377-9.321.179-.537 1.076-1.971.717-2.688-1.075.358-1.972 1.075-3.047 1.434-1.075.358-2.33.537-3.585.358-2.688 0-5.198-.896-7.707-1.434z" fill="#3315E8"/><path d="M235.243 393.024c0-.18 0-.18-.179-.359-.538-.717-1.076-1.613-1.614-2.33-.179-.359-.537-.896-.896-1.255-.179-1.434-.537-2.868-.896-4.302-.896-3.405-1.972-6.632-5.198-8.245-3.405-1.613-7.528-.896-10.575 1.255-3.047 2.33-4.839 5.915-5.377 9.5-.538 3.943 2.868 3.585 5.019 6.094 1.613 2.151 1.613 4.661 1.075 8.245.359 1.793 0 2.689-.358 4.123-.18.717-1.434 1.434-1.614 2.33-.717 4.661 13.443 8.066 11.651 1.972-.538-1.972-1.792-3.226-1.255-5.557.896-4.481 3.764-1.254 6.274-2.33 1.433-.538 1.613-2.33 1.613-3.943 0-1.255.179-2.33.179-3.585v-.538c.717-.179 1.434-.358 1.972-.896 0 0 .179 0 .179-.179z" fill="#E8A287"/><path d="M220.725 382.628c3.047 1.434 6.273 1.972 9.679 1.613 1.254-.179 2.33-.538 3.405-1.255 1.076-.717 1.613-1.971 1.434-3.226-.179-1.255-1.255-2.151-2.151-2.868-2.868-1.972-6.094-3.226-9.5-3.226-3.405 0-6.811 1.254-9.499 3.584-2.33 2.151-4.123 5.199-4.84 8.425-.717 3.227-.537 6.632.359 9.859.717 2.509 1.792 1.971 3.405.537 1.255-1.075 2.51-2.509 3.406-3.764 1.075-1.434 1.972-2.868 2.689-4.481 0-.717 1.792-5.019 1.613-5.198z" fill="#251D46"/></svg>