<svg width="70" height="64" viewBox="0 0 70 64" fill="none" xmlns="http://www.w3.org/2000/svg"><circle cx="63.9546" cy="20.0435" r="6.0454" fill="#019AB5"/><path d="M8.9487 37.7852h3.9771v1.9885h-3.977v-1.9885zM8.9487 41.7622h3.9771v1.9885h-3.977v-1.9885zM8.9487 45.7393h3.9771v1.9885h-3.977v-1.9885zM8.9487 49.7163h3.9771v1.9885h-3.977v-1.9885zM8.9487 53.6934h3.9771v1.9885h-3.977v-1.9885zM8.9487 57.6704h3.9771v1.9885h-3.977v-1.9885zM36.7881 41.7622h3.977v1.9885h-3.977v-1.9885zM36.7881 45.7393h3.977v1.9885h-3.977v-1.9885zM36.7881 49.7163h3.977v1.9885h-3.977v-1.9885zM36.7881 53.6934h3.977v1.9885h-3.977v-1.9885zM36.7881 57.6704h3.977v1.9885h-3.977v-1.9885zM50.7078 41.7622h3.977v1.9885h-3.977v-1.9885zM50.7078 45.7393h3.977v1.9885h-3.977v-1.9885zM50.7078 33.8081h3.977v1.9885h-3.977v-1.9885zM50.7078 37.7852h3.977v1.9885h-3.977v-1.9885zM50.7078 49.7163h3.977v1.9885h-3.977v-1.9885zM50.7078 53.6934h3.977v1.9885h-3.977v-1.9885zM50.7078 57.6704h3.977v1.9885h-3.977v-1.9885zM22.8684 53.6934h3.9771v1.9885h-3.9771v-1.9885zM22.8684 57.6704h3.9771v1.9885h-3.9771v-1.9885z" fill="#282882"/><path d="M58.6617 29.8308H46.7306v31.8164H44.742V37.7849H32.8109v23.8623h-1.9885V49.7161H18.8912v11.9311h-1.9885V33.8079H4.9716v27.8393H.0002v1.9885H63.633v-1.9885h-4.9713V29.8308zM14.9142 61.6472H6.9601V35.7964h7.9541v25.8508zm13.9196 0h-7.9541v-9.9426h7.9541v9.9426zm13.9197 0h-7.9541V39.7734h7.9541v21.8738zm13.9197 0h-7.9541V31.8193h7.9541v29.8279z" fill="#282882"/><path d="M3.9774 29.8311a3.9347 3.9347 0 0 0 3.2488-1.6526 3.9339 3.9339 0 0 0 .4967-3.611l9.5159-5.7102a3.8781 3.8781 0 0 0 4.4606.5728l6.8015 10.2019c-1.069 1.4783-1.0122 3.4896.1389 4.9053 1.1506 1.4152 3.1085 1.8812 4.7732 1.136 1.6652-.7447 2.6226-2.5153 2.3342-4.3164l7.106-5.3262c6.5632 3.7203 14.8959 1.5346 18.788-4.9286 3.8921-6.4632 1.9269-14.8503-4.4314-18.9118-6.3579-4.061-14.7941-2.3182-19.0216 3.9304l-3.4799-2.0084-.4952.8622c-3.1935 5.5379-3.1935 12.3584 0 17.8967l.4971.8598 3.5018-2.022a13.9569 13.9569 0 0 0 2.8963 3.1396l-6.1219 4.5916a3.9622 3.9622 0 0 0-3.1696-1.5977 3.9153 3.9153 0 0 0-1.8138.4583l-6.8016-10.2023c1.0584-1.5574.8841-3.6426-.418-5.0029-1.302-1.3603-3.3779-1.6254-4.98-.6355-1.6021.9894-2.2944 2.9644-1.6613 4.7378l-9.5179 5.7102c-1.3175-1.1841-3.2604-1.352-4.7615-.4117-1.5011.9409-2.1978 2.7624-1.707 4.4645.4908 1.7021 2.0502 2.8731 3.8217 2.8702zm52.5299-6.1297l-1.9886-3.4493a7.9934 7.9934 0 0 0 3.0824-5.335h3.977a11.9572 11.9572 0 0 1-5.0708 8.7843zM50.7077 2.0422c5.7967.4913 10.3946 5.0898 10.8864 10.8864h-3.995c-.4588-3.5988-3.2925-6.4326-6.8914-6.8914v-3.995zM55.679 13.923c.0122 2.5186-1.5637 4.7717-3.9338 5.6242s-5.0203.119-6.6151-1.8302l6.5719-3.794-6.5719-3.7941c1.5972-1.9433 4.2445-2.6725 6.6117-1.821 2.3672.8515 3.9436 3.0993 3.9372 5.6151zM48.7192 2.0582v3.977a7.992 7.992 0 0 0-5.3354 3.0824L39.9349 7.129a11.9526 11.9526 0 0 1 8.7843-5.0709zM35.4637 21.0021a15.9376 15.9376 0 0 1 0-14.1585l12.2612 7.0793-12.2612 7.0792zm4.4742-.2854l3.4469-1.9886a7.9503 7.9503 0 0 0 6.3287 3.1489 7.9387 7.9387 0 0 0 3.0823-.6273l1.9885 3.445a12.1482 12.1482 0 0 1-11.0364-.4374 11.9738 11.9738 0 0 1-3.813-3.5406h.003zm-8.1211 9.1144c1.0981 0 1.9885.8903 1.9885 1.9885 0 1.0981-.8904 1.9885-1.9885 1.9885-1.0982 0-1.9886-.8904-1.9886-1.9885 0-1.0982.8904-1.9885 1.9886-1.9885zM19.8856 13.9229c1.0982 0 1.9885.8903 1.9885 1.9885 0 1.0981-.8903 1.9885-1.9885 1.9885-1.0982 0-1.9885-.8904-1.9885-1.9885 0-1.0982.8903-1.9885 1.9885-1.9885zM3.9774 23.8655c1.0982 0 1.9885.8904 1.9885 1.9885 0 1.0982-.8903 1.9885-1.9885 1.9885-1.0981 0-1.9885-.8903-1.9885-1.9885 0-1.0981.8903-1.9885 1.9885-1.9885z" fill="#282882"/><circle cx="4.1366" cy="25.7709" r="2.3863" stroke="#019AB5" stroke-width="3.5"/><circle cx="20.0458" cy="15.589" r="2.3863" stroke="#019AB5" stroke-width="3.5"/><circle cx="32.1366" cy="32.1344" r="2.3863" stroke="#019AB5" stroke-width="3.5"/></svg>