<svg width="568" height="455" viewBox="0 0 568 455" fill="none" xmlns="http://www.w3.org/2000/svg"><path d="M31.9077 395.801c0 6.419 81.1973 11.586 181.3293 11.586 100.132 0 181.329-5.183 181.329-11.586 0-6.403-81.181-11.586-181.329-11.586-100.148 0-181.3293 5.183-181.3293 11.586z" fill="#CDCCFF"/><path d="M142.631 410.115c0 3.996-20.62 7.253-46.0384 7.253-25.4182 0-46.0384-3.209-46.0384-7.253 0-4.044 20.6042-7.253 46.0384-7.253 25.4344 0 46.0384 3.241 46.0384 7.253z" fill="#CDCCFF"/><path d="M50.0407 316.209l-2.9687 41.529h39.6197l-2.728-41.61-33.923.081z" fill="#D7D7FF"/><path d="M57.9036 319.851c.0286-.331.1859-.637.4379-.853.2521-.216.5788-.325.91-.302a1.1747 1.1747 0 0 1 .9502.261c.1298.11.2342.247.3058.401.0716.155.1086.323.1086.493 0 .17-.037.338-.1086.493-.0716.154-.176.291-.3058.401-.1299.11-.2822.19-.4463.236a1.159 1.159 0 0 1-.5039.025 1.2644 1.2644 0 0 1-.91-.302 1.2668 1.2668 0 0 1-.4379-.853zm1.3479-.706a.8374.8374 0 0 0-.5993.169.8354.8354 0 0 0-.3154.537.8354.8354 0 0 0 .3154.537.8327.8327 0 0 0 .5993.169.8446.8446 0 0 0 .6058-.168.8503.8503 0 0 0 .3249-.538c0-.401-.4172-.706-.9307-.706zM71.3989 319.819a1.0434 1.0434 0 0 1 .321-.738c.28-.27.6542-.419 1.043-.417.3339-.027.6647.08.9203.296.2555.217.4151.525.4437.859 0 .16-.0378.317-.1103.459a.9979.9979 0 0 1-.3069.359c-.2665.22-.6015.339-.9468.337a1.2796 1.2796 0 0 1-.9161-.301 1.2845 1.2845 0 0 1-.4479-.854zm1.364-.706c-.2673-.008-.527.09-.7221.273a.6099.6099 0 0 0-.1926.433.8354.8354 0 0 0 .3154.537.8328.8328 0 0 0 .5993.169c.2438.005.4819-.074.674-.225a.6141.6141 0 0 0 .1836-.211.6265.6265 0 0 0 .0731-.27.8503.8503 0 0 0-.9307-.706z" fill="#EAE6FF"/><path d="M65.6061 328.212h.3851a7.2985 7.2985 0 0 0 3.0773-.569 7.284 7.284 0 0 0 2.5551-1.806 8.3605 8.3605 0 0 0 1.6047-6.066.4363.4363 0 0 0-.0564-.162.4226.4226 0 0 0-.1147-.127.4278.4278 0 0 0-.1551-.073.4295.4295 0 0 0-.1712-.007.4429.4429 0 0 0-.1619.056.4488.4488 0 0 0-.1273.115.432.432 0 0 0-.0799.326 7.7028 7.7028 0 0 1-1.3801 5.376 6.4254 6.4254 0 0 1-2.2668 1.586 6.4177 6.4177 0 0 1-2.7237.484 5.8979 5.8979 0 0 1-2.5989-.294 5.891 5.891 0 0 1-2.2152-1.391 8.0239 8.0239 0 0 1-1.4602-5.729.4321.4321 0 0 0-.08-.326.4461.4461 0 0 0-.1273-.115.4424.4424 0 0 0-.1618-.056.4495.4495 0 0 0-.4975.369 8.8267 8.8267 0 0 0 1.6047 6.419 6.5678 6.5678 0 0 0 2.3561 1.563 6.5808 6.5808 0 0 0 2.795.427z" fill="#EAE6FF"/><path d="M68.6711 327.842l-4.7338 30.891 43.0217-.097-4.349-30.874-33.9389.08z" fill="#BDC6F9"/><path d="M52.7685 379.995a8.731 8.731 0 0 0-4.8498 1.471 8.73 8.73 0 0 0-1.3228 13.431 8.7294 8.7294 0 0 0 9.5133 1.892 8.7215 8.7215 0 0 0 3.9176-3.215 8.7268 8.7268 0 0 0 1.4712-4.849 8.7448 8.7448 0 0 0-2.5615-6.168 8.7414 8.7414 0 0 0-6.168-2.562zm0 12.838a4.0667 4.0667 0 0 1-2.2511-.692 4.0674 4.0674 0 0 1-1.4882-1.826 4.0595 4.0595 0 0 1-.2245-2.344 4.0574 4.0574 0 0 1 3.1937-3.181 4.0605 4.0605 0 0 1 2.3435.233c.7409.308 1.374.829 1.8194 1.496.4454.667.6831 1.451.6831 2.254a4.0437 4.0437 0 0 1-2.5259 3.716c-.4922.199-1.0189.3-1.55.295v.049z" fill="#8784EF"/><path d="M51.3083 379.995a8.731 8.731 0 0 0-4.8498 1.471 8.73 8.73 0 0 0-1.3228 13.431 8.7294 8.7294 0 0 0 9.5133 1.892 8.7215 8.7215 0 0 0 3.9176-3.215 8.7287 8.7287 0 0 0-1.0856-11.022 8.73 8.73 0 0 0-6.1727-2.557zm0 12.838a4.0616 4.0616 0 0 1-2.2555-.685 4.0589 4.0589 0 0 1-1.7263-4.167 4.06 4.06 0 0 1 1.1111-2.079 4.0608 4.0608 0 0 1 4.4244-.88 4.0618 4.0618 0 0 1 1.822 1.495c.4461.668.6842 1.453.6842 2.256a4.0601 4.0601 0 0 1-4.0599 4.011v.049z" fill="#9AA3F4"/><path d="M102.049 379.995a8.7255 8.7255 0 0 0-4.8547 1.464 8.7292 8.7292 0 0 0-3.7255 8.959 8.7268 8.7268 0 0 0 2.3853 4.473 8.7246 8.7246 0 0 0 4.4699 2.394 8.7303 8.7303 0 0 0 8.966-3.709 8.7299 8.7299 0 0 0-1.079-11.018 8.728 8.728 0 0 0-6.162-2.563zm0 12.838c-.803 0-1.588-.239-2.256-.685a4.0582 4.0582 0 0 1-1.4953-1.822 4.0592 4.0592 0 0 1 2.9583-5.535 4.0601 4.0601 0 0 1 4.168 1.726c.446.668.684 1.453.684 2.256a4.0561 4.0561 0 0 1-1.206 2.839 4.0589 4.0589 0 0 1-2.853 1.172v.049z" fill="#8784EF"/><path d="M100.604 379.995c-1.7263 0-3.414.512-4.8496 1.471a8.7293 8.7293 0 0 0-3.2151 3.918 8.729 8.729 0 0 0 1.8923 9.513 8.7294 8.7294 0 0 0 9.5134 1.892 8.7282 8.7282 0 0 0 5.389-8.064 8.7495 8.7495 0 0 0-2.562-6.168 8.741 8.741 0 0 0-6.168-2.562zm0 12.838a4.0665 4.0665 0 0 1-2.2509-.692 4.0674 4.0674 0 0 1-1.4882-1.826 4.0595 4.0595 0 0 1-.2245-2.344 4.0574 4.0574 0 0 1 3.1937-3.181 4.0621 4.0621 0 0 1 2.3439.233 4.061 4.061 0 0 1 2.502 3.75 4.0418 4.0418 0 0 1-.32 1.545c-.207.489-.508.932-.887 1.305-.378.372-.827.667-1.319.866-.492.199-1.019.3-1.55.295v.049z" fill="#9AA3F4"/><path d="M167.905 282.045h-26.221c-1.358.003-2.693.35-3.88 1.01a8.0124 8.0124 0 0 0-2.908 2.761l-15.838 25.434" stroke="#9AA3F4" stroke-width="1.5781" stroke-miterlimit="10"/><path d="M48.6124 358.027h58.5866a6.4198 6.4198 0 0 0 4.108-1.532 6.4178 6.4178 0 0 0 2.167-3.812l6.065-37.886a6.4147 6.4147 0 0 0-1.462-5.11 6.4076 6.4076 0 0 0-2.161-1.649 6.4288 6.4288 0 0 0-2.651-.607H42.5467a6.4283 6.4283 0 0 0-2.6505.607c-.83.389-1.5671.951-2.1615 1.649a6.4205 6.4205 0 0 0-1.2848 2.396 6.4229 6.4229 0 0 0-.1775 2.714l6.0657 37.822a6.416 6.416 0 0 0 2.1481 3.851 6.4175 6.4175 0 0 0 4.1262 1.557zM77.8979 307.495v50.532M116.667 332.769H39.1448M101.037 307.495l-5.0062 50.532M55.9138 307.495l4.6375 50.532" stroke="#9AA3F4" stroke-width="1.5781" stroke-miterlimit="10"/><path d="M112.142 355.732l9.484 14.105c.59.871.931 1.887.987 2.937a5.776 5.776 0 0 1-.673 3.025 5.7694 5.7694 0 0 1-2.139 2.242c-.904.539-1.937.82-2.99.814H39.1448" stroke="#9AA3F4" stroke-width="1.5781" stroke-miterlimit="10"/><path d="M316.129 362.424h-80.378v21.615h80.378v-21.615z" fill="#4A41A3"/><path d="M400.616 169.027H152.115c-8.322 0-15.068 6.746-15.068 15.068v170.321c0 8.322 6.746 15.068 15.068 15.068h248.501c8.322 0 15.068-6.746 15.068-15.068V184.095c0-8.322-6.746-15.068-15.068-15.068z" fill="#5851BC"/><path d="M397.792 176.344H154.088c-5.113 0-9.259 4.146-9.259 9.259v155.398c0 5.114 4.146 9.259 9.259 9.259h243.704c5.113 0 9.259-4.145 9.259-9.259V185.603c0-5.113-4.146-9.259-9.259-9.259z" fill="#C4C3FC"/><path d="M212.948 382.193h125.968c3.115 0 6.103 1.238 8.306 3.441 2.203 2.203 3.44 5.19 3.44 8.306v1.877h-149.46v-1.877c0-3.116 1.237-6.103 3.44-8.306a11.7473 11.7473 0 0 1 8.306-3.441z" fill="#5851BC"/><path opacity=".35" d="M382.884 188.347h-167.4c-4.441 0-8.04 3.6-8.04 8.04v107.241c0 4.44 3.599 8.039 8.04 8.039h167.4c4.44 0 8.04-3.599 8.04-8.039V196.387c0-4.44-3.6-8.04-8.04-8.04z" fill="#fff"/><g style="mix-blend-mode:multiply" opacity=".25"><path d="M232.878 278.45h-7.991v20.059h7.991V278.45z" fill="#FCA70C" opacity=".25"/><path d="M250.883 260.831h-7.991v37.678h7.991v-37.678z" fill="#B1AFFD" opacity=".25"/><path d="M268.903 264.73h-7.991v33.779h7.991V264.73z" fill="#FCA70C" opacity=".25"/><path d="M286.908 245.651h-7.991v52.858h7.991v-52.858z" fill="#B1AFFD" opacity=".25"/><g style="mix-blend-mode:multiply" opacity=".15"><path d="M246.566 260.831h-3.674v37.678h3.674v-37.678z" fill="#000" opacity=".26"/></g><g style="mix-blend-mode:multiply" opacity=".15"><path d="M228.562 278.45h-3.675v20.059h3.675V278.45z" fill="#000" opacity=".26"/></g><g style="mix-blend-mode:multiply" opacity=".62"><path d="M282.591 245.651h-3.674v52.858h3.674v-52.858z" fill="#000" opacity=".26"/></g><g style="mix-blend-mode:multiply" opacity=".15"><path d="M264.587 264.73h-3.675v33.779h3.675V264.73z" fill="#000" opacity=".26"/></g><path d="M291.145 304.029h-71.537v-76.158h1.091v75.067h70.446v1.091z" fill="#D5DBDA" opacity=".25"/><path d="M226.957 269.047l-.722-.819 18.711-16.801 17.33 3.771 18.759-20.893.818.739-19.192 21.358-17.41-3.787-18.294 16.432z" fill="#D5DBDA" opacity=".25"/><path d="M283.314 238.125l-5.28-5.071 6.82-1.829-1.54 6.9z" fill="#D5DBDA" opacity=".25"/><path d="M303.404 277.022h-5.488v5.488h5.488v-5.488z" fill="#B1AFFD" opacity=".25"/><path d="M303.404 286.634h-5.488v5.488h5.488v-5.488z" fill="#FCA70C" opacity=".25"/><path d="M322.307 289.009h-17.394v3.113h17.394v-3.113zM322.307 279.397h-17.394v3.113h17.394v-3.113z" fill="#EFEFEF" opacity=".25"/><path d="M335.675 277.022h-5.488v5.488h5.488v-5.488z" fill="#B1AFFD" opacity=".25"/><path d="M335.675 286.634h-5.488v5.488h5.488v-5.488z" fill="#FCA70C" opacity=".25"/><path d="M354.578 289.009h-17.395v3.113h17.395v-3.113zM354.578 279.397h-17.395v3.113h17.395v-3.113z" fill="#EFEFEF" opacity=".25"/><path d="M364.735 277.022h-5.488v5.488h5.488v-5.488z" fill="#B1AFFD" opacity=".25"/><path d="M364.735 286.634h-5.488v5.488h5.488v-5.488z" fill="#FCA70C" opacity=".25"/><path d="M377.701 289.009H366.26v3.113h11.441v-3.113zM377.701 279.397H366.26v3.113h11.441v-3.113zM377.701 224.581h-78.758v1.428h78.758v-1.428zM377.701 207.01H219.608v3.273h158.093v-3.273zM377.701 229.026h-78.999v1.428h78.999v-1.428zM377.701 220.12h-78.999v1.428h78.999v-1.428zM377.701 233.487h-78.999v1.428h78.999v-1.428zM377.701 237.948h-78.999v1.428h78.999v-1.428zM377.701 242.393h-78.999v1.428h78.999v-1.428zM377.701 246.854h-78.999v1.428h78.999v-1.428zM377.701 251.299h-78.999v1.428h78.999v-1.428zM377.701 255.76h-78.999v1.428h78.999v-1.428zM377.701 260.205h-69.322v1.428h69.322v-1.428z" fill="#EFEFEF" opacity=".25"/><path d="M382.884 188.347h-167.4c-2.128 0-4.169.846-5.674 2.35a8.0281 8.0281 0 0 0-2.35 5.674v7.044h183.464v-7.028a8.027 8.027 0 0 0-.608-3.079 8.0136 8.0136 0 0 0-1.742-2.611 8.0136 8.0136 0 0 0-2.611-1.742 8.027 8.027 0 0 0-3.079-.608z" fill="#7A7AE5" opacity=".25"/><path d="M367.287 196.162c.003.461-.131.913-.384 1.297-.254.385-.616.686-1.041.864-.425.179-.894.227-1.346.139a2.3252 2.3252 0 0 1-1.195-.633 2.3232 2.3232 0 0 1-.512-2.537c.176-.426.474-.791.857-1.047.383-.257.833-.393 1.294-.393.614 0 1.204.242 1.64.675.436.433.683 1.021.687 1.635zM374.46 198.473c1.276 0 2.31-1.034 2.31-2.311 0-1.276-1.034-2.31-2.31-2.31-1.277 0-2.311 1.034-2.311 2.31 0 1.277 1.034 2.311 2.311 2.311zM383.911 198.473c1.276 0 2.311-1.034 2.311-2.311 0-1.276-1.035-2.31-2.311-2.31s-2.31 1.034-2.31 2.31c0 1.277 1.034 2.311 2.31 2.311z" fill="#CFCFFF" opacity=".25"/></g><path d="M334.15 215.627H166.749c-4.44 0-8.039 3.599-8.039 8.039v107.242c0 4.44 3.599 8.039 8.039 8.039H334.15c4.44 0 8.039-3.599 8.039-8.039V223.666c0-4.44-3.599-8.039-8.039-8.039z" fill="#C4C3FC" opacity=".55"/><path d="M337.873 210.829H170.472c-4.44 0-8.039 3.599-8.039 8.04V326.11c0 4.44 3.599 8.039 8.039 8.039h167.401c4.44 0 8.039-3.599 8.039-8.039V218.869c0-4.441-3.599-8.04-8.039-8.04z" fill="#fff"/><path d="M187.867 300.916h-7.992v20.059h7.992v-20.059z" fill="#FCA70C"/><path d="M205.871 283.312h-7.991v37.679h7.991v-37.679z" fill="#B1AFFD"/><path d="M223.876 287.196h-7.991v33.778h7.991v-33.778z" fill="#FCA70C"/><path d="M241.897 268.132h-7.992v52.859h7.992v-52.859z" fill="#B1AFFD"/><g style="mix-blend-mode:multiply" opacity=".15"><path d="M201.555 283.312h-3.675v37.679h3.675v-37.679z" fill="#000" opacity=".26"/></g><g style="mix-blend-mode:multiply" opacity=".15"><path d="M183.55 300.916h-3.675v20.059h3.675v-20.059z" fill="#000" opacity=".26"/></g><g style="mix-blend-mode:multiply" opacity=".62"><path d="M237.58 268.132h-3.675v52.859h3.675v-52.859z" fill="#000" opacity=".26"/></g><g style="mix-blend-mode:multiply" opacity=".15"><path d="M219.559 287.196h-3.674v33.778h3.674v-33.778z" fill="#000" opacity=".26"/></g><path d="M246.117 326.511h-71.521V257.14h1.091v68.279h70.43v1.092z" fill="#D5DBDA"/><path d="M181.946 291.529l-.738-.819 18.71-16.801 17.331 3.771 18.774-20.893.819.722-19.192 21.375-17.411-3.787-18.293 16.432z" fill="#D5DBDA"/><path d="M238.302 260.606l-5.295-5.087 6.836-1.813-1.541 6.9z" fill="#D5DBDA"/><path d="M258.377 299.504h-5.488v5.488h5.488v-5.488z" fill="#B1AFFD"/><path d="M258.377 309.116h-5.488v5.488h5.488v-5.488z" fill="#FCA70C"/><path d="M277.296 311.491h-17.395v3.113h17.395v-3.113zM277.296 301.863h-17.395v3.113h17.395v-3.113z" fill="#EFEFEF"/><path d="M290.663 299.504h-5.488v5.488h5.488v-5.488z" fill="#B1AFFD"/><path d="M290.663 309.116h-5.488v5.488h5.488v-5.488z" fill="#FCA70C"/><path d="M309.566 311.491h-17.395v3.113h17.395v-3.113zM309.566 301.863h-17.395v3.113h17.395v-3.113z" fill="#EFEFEF"/><path d="M319.724 299.504h-5.488v5.488h5.488v-5.488z" fill="#B1AFFD"/><path d="M319.724 309.116h-5.488v5.488h5.488v-5.488z" fill="#FCA70C"/><path d="M332.673 311.491h-11.441v3.113h11.441v-3.113zM332.673 301.863h-11.441v3.113h11.441v-3.113zM332.674 247.063h-78.758v1.428h78.758v-1.428zM332.69 229.475H174.596v3.274H332.69v-3.274zM332.69 251.508h-78.999v1.428h78.999v-1.428zM332.69 242.602h-78.999v1.428h78.999v-1.428zM332.69 255.969h-78.999v1.428h78.999v-1.428zM332.69 260.414h-78.999v1.428h78.999v-1.428zM332.69 264.875h-78.999v1.428h78.999v-1.428zM332.69 269.32h-78.999v1.428h78.999v-1.428zM332.69 273.781h-78.999v1.428h78.999v-1.428zM332.69 278.226h-78.999v1.428h78.999v-1.428zM332.673 282.687h-69.322v1.428h69.322v-1.428z" fill="#EFEFEF"/><path d="M337.873 210.829H170.472c-2.128 0-4.169.845-5.673 2.35a8.0233 8.0233 0 0 0-2.35 5.673v7.045h183.463v-7.045c0-1.054-.208-2.099-.612-3.074a8.044 8.044 0 0 0-1.743-2.605 8.0468 8.0468 0 0 0-2.609-1.738 8.0275 8.0275 0 0 0-3.075-.606z" fill="#A4A4F7"/><path d="M322.356 218.644c.003.461-.132.913-.386 1.298-.254.386-.618.686-1.043.864-.426.178-.895.226-1.348.137-.453-.09-.869-.312-1.196-.638a2.3238 2.3238 0 0 1-.637-1.195c-.089-.453-.042-.922.136-1.348.178-.426.479-.789.864-1.044a2.331 2.331 0 0 1 1.299-.385c.613 0 1.2.244 1.634.677.433.433.677 1.021.677 1.634zM331.759 218.644c.003.461-.131.913-.385 1.298a2.3307 2.3307 0 0 1-2.392 1.001c-.453-.09-.869-.312-1.195-.638a2.3327 2.3327 0 0 1-.638-1.195 2.3307 2.3307 0 0 1 1.001-2.392c.385-.254.837-.388 1.298-.385a2.326 2.326 0 0 1 1.63.682c.432.432.677 1.017.681 1.629zM341.211 218.644c.003.461-.131.912-.385 1.297-.253.385-.616.685-1.041.864-.424.178-.893.227-1.345.139a2.3243 2.3243 0 0 1-1.196-.633c-.327-.325-.55-.74-.641-1.191-.091-.452-.046-.921.13-1.347.175-.426.474-.79.857-1.047a2.3257 2.3257 0 0 1 2.933.283c.436.433.683 1.02.688 1.635z" fill="#CFCFFF"/><path d="M399.798 169.172h-42.974c.3 13.907.54 27.841.722 41.802a16.664 16.664 0 0 1-.786 6.306c-.562 0-.321.16-.514 1.171-1.733 2.841-5.119 4.381-8.424 5.119a.8981.8981 0 0 0 0 .466 1.0238 1.0238 0 0 0-.321 1.299c.192.466 2.664 1.092 6.017.723 1.279-.189 2.529-.534 3.723-1.027a5.83 5.83 0 0 0 1.364-.931c.435-.043.862-.145 1.268-.305l.128.128 3.852-1.604s-.418-2.439-.755-3.691a2.3004 2.3004 0 0 0-.256-.594c3.21-8.719 5.721-17.68 7.51-26.798-.69 11.233-4.815 34.308-5.071 35.094-.429.946-1.1 1.762-1.945 2.365a5.886 5.886 0 0 1-2.869 1.069c-.915 0-5.392-.176-4.911 1.878.129.481 2.439 1.605 5.809 1.765 1.294.03 2.587-.094 3.852-.369a7.287 7.287 0 0 0 2.391-1.3l.513.69 3.98-1.075v-2.327a5.0944 5.0944 0 0 0-.867-2.487v-2.327l2.263-.257s4.541-14.682 6.691-19.673a42.395 42.395 0 0 0 2.439-6.258c.549-2.572.866-5.187.947-7.815.373-4.791 1.25-9.53 2.616-14.137.068-.298.2-.577.385-.819.415-.352.948-.536 1.492-.513 5.777-.53 8.425.449 12.035-.674 4.815-1.476 5.264-3.643 5.505-3.739a14.856 14.856 0 0 0-5.809-1.155zM154.554 246.501a35.9997 35.9997 0 0 0-4.14 6.964 6.873 6.873 0 0 1-3.868 3.467c-3.065 1.412-6.418 2.744-9.499 3.995v8.136c6.418-3.867 12.227-7.462 12.324-7.494 4.91 1.862 9.018-2.214 10.334-5.151.577-1.316-.305-1.861-.337-2.487 0-.321.401-2.231.337-2.487-.385-1.717-5.007-.209-4.622-1.027a5.953 5.953 0 0 1 1.926-2.889c2.263-1.605 3.996-3.209 3.98-3.899 0-1.043-5.89 2.294-6.435 2.872z" fill="#5851BC" opacity=".35"/><path d="M160.571 344.837l-5.648 58.651h55.602l-5.375-58.748-44.579.097z" fill="#FCA70C"/><path d="M170.28 350.212c.045-.507.287-.976.674-1.306.387-.33.888-.495 1.396-.459a1.9579 1.9579 0 0 1 2.086 1.749c-.045.51-.29.981-.68 1.311-.391.331-.896.494-1.406.454a1.9413 1.9413 0 0 1-1.391-.454 1.9331 1.9331 0 0 1-.679-1.295zm2.07-1.107a1.2829 1.2829 0 0 0-1.396 1.107c.047.328.222.625.486.826.264.201.596.29.926.249.165.04.337.043.504.007.166-.036.322-.11.456-.215s.242-.239.316-.392c.075-.153.113-.321.113-.491 0-.17-.038-.338-.113-.491a1.1176 1.1176 0 0 0-.772-.607 1.114 1.114 0 0 0-.504.007h-.016zM190.996 350.099c.003-.213.049-.424.134-.619.085-.196.209-.373.364-.52.212-.206.463-.368.739-.475.275-.108.57-.159.865-.151a1.943 1.943 0 0 1 1.401.448c.39.327.636.794.685 1.301a1.5968 1.5968 0 0 1-.626 1.268c-.408.33-.919.506-1.444.498a1.9615 1.9615 0 0 1-1.417-.441 1.959 1.959 0 0 1-.701-1.309zm2.086-1.091a1.603 1.603 0 0 0-1.107.417.951.951 0 0 0-.221.306.9551.9551 0 0 0-.084.368c.052.327.227.621.49.821.263.201.594.292.922.255.366.006.722-.113 1.011-.337a.9607.9607 0 0 0 .282-.332.943.943 0 0 0 .103-.423 1.2688 1.2688 0 0 0-.486-.826c-.264-.201-.597-.29-.926-.249h.016z" fill="#5851BC"/><path d="M182.106 363.018h.642c1.616.05 3.224-.25 4.714-.879a11.222 11.222 0 0 0 3.919-2.764 12.9623 12.9623 0 0 0 2.423-9.307.6771.6771 0 0 0-.258-.445.6737.6737 0 0 0-.496-.133.675.675 0 0 0-.444.258.67.67 0 0 0-.134.496c.352 2.925-.41 5.875-2.134 8.264a9.8451 9.8451 0 0 1-3.465 2.447 9.8678 9.8678 0 0 1-4.173.763 8.9951 8.9951 0 0 1-3.986-.449 9.0014 9.0014 0 0 1-3.396-2.135c-2.969-3.306-2.246-8.729-2.23-8.794a.6705.6705 0 0 0-.144-.476.6753.6753 0 0 0-.431-.249.6785.6785 0 0 0-.485.116.6743.6743 0 0 0-.272.417c0 .257-.835 6.098 2.551 9.885a10.0225 10.0225 0 0 0 3.574 2.344c1.346.515 2.787.734 4.225.641z" fill="#5851BC"/><path d="M105.9 212.69c2.15 3.707.289 8.794 2.471 12.501.866 1.476 2.343 2.648 2.76 4.316.172.705.137 1.443-.101 2.128a3.7715 3.7715 0 0 1-1.237 1.734 3.768 3.768 0 0 1-1.98.786 3.7683 3.7683 0 0 1-2.09-.411 5.0344 5.0344 0 0 0-.834-.417c-1.075-.305-2.038.641-2.969 1.267-.553.407-1.193.68-1.869.8a4.469 4.469 0 0 1-2.0303-.11 5.7746 5.7746 0 0 1-3.2093-3.899c-1.6047-4.67-.4493-9.773.9788-14.442.7221-2.343 1.7812-4.959 4.092-5.809" fill="#5045AF"/><path d="M155.885 252.214c0 .513.835.963.305 2.054-1.171 2.423-4.814 5.777-9.162 4.236-.193 0-24.071 13.865-25.9 13.865-1.829 0-14.362-11.843-18.454-26.574-.979-3.498-.61-7.606 2.68-9.387a7.8296 7.8296 0 0 1 4.509 4.011c2.712 5.135 10.832 22.097 12.629 22.739 2.247-1.508 13.174-4.814 22.032-8.505a6.035 6.035 0 0 0 3.434-2.872c.99-2.051 2.224-3.975 3.675-5.729.465-.498 5.713-3.209 5.713-2.375 0 .53-1.605 1.942-3.547 3.209a4.8263 4.8263 0 0 0-1.701 2.375c-.337.674 3.755-.561 4.092.851.065.273-.321 1.845-.305 2.102z" fill="#FFB9B0"/><path d="M104.391 236.055c1.517.349 2.939 1.024 4.169 1.977 1.23.953 2.239 2.162 2.956 3.543.366.725.692 1.47.979 2.23 1.268 3.21 3.017 6.162 4.284 9.388a18.7579 18.7579 0 0 1-5.6 2.712c-1.669.624-3.457.866-5.231.706-.303-.015-.601-.08-.883-.193a3.0697 3.0697 0 0 1-.915-.786c-.545-.626-1.075-1.268-1.604-1.91a5.2302 5.2302 0 0 1-1.059-1.829 5.5428 5.5428 0 0 1 .24-2.84" fill="#7762EF"/><g style="mix-blend-mode:multiply"><path d="M107.52 244.88c-.107-.151-.25-.272-.417-.353a.7576.7576 0 0 0-.492.046.7478.7478 0 0 0-.358.34c-.154.307-.215.653-.177.994.009 1.313.215 2.616.61 3.868l-.417 6.836c1.663.112 3.33-.129 4.894-.706.722-.273 1.524-.562 2.327-.883-.803-3.851-3.418-7.093-5.97-10.142z" fill="#7762EF" opacity=".35"/></g><path d="M96.9456 229.267s-.0963 4.284.5616 4.557c.8919.368 1.8159.653 2.7598.851v8.841l-11.7781-1.781-8.1036-4.509s8.4245-2.792 8.5048-3.627c.0802-.834-.4654-5.568-.4654-5.568M78.8287 357.176c-3.2094 15.293-1.685 36.282-2.4071 47.788.1605 0 4.3808.577 4.3808.577s9.9651-48.509 11.7784-57.768c.1234-.598.1985-1.204.2246-1.814.4333-6.98-5.8571-7.333-9.4034-1.604a24.591 24.591 0 0 0-1.6047 3.113c-.1925.465-.3851.914-.5777 1.412a45.8994 45.8994 0 0 0-1.6047 4.814v.176c-.1444.498-.2567.995-.3851 1.493v.112c-.1765.642-.2888 1.172-.4011 1.701z" fill="#FFB9B0"/><path d="M97.6998 302.312c-.1284 1.268-.8024 7.285-1.6047 14.442-.69 5.97-1.4442 12.693-2.038 18.021-.4493 4.012-.7702 7.189-.8986 8.697-.0627.863-.1806 1.72-.353 2.568-1.6047 6.98-6.4188 7.381-9.2751 5.761a7.0737 7.0737 0 0 1-1.1072-.755 3.703 3.703 0 0 1-1.2517-2.07c-.1926-1.428-.3691-3.385-.5456-5.712v-.113c-.353-4.541-.6579-10.366-.9307-16.046-.321-6.981-.5135-13.705-.5617-17.492v-.625c0-11.634 10.6391-19.096 17.2825-15.486l.2247.113.2567.16c.7542.498 1.011 2.247 1.027 4.237-.016 1.396-.1123 2.984-.2246 4.3z" fill="#FFB9B0"/><path d="M81.4442 346.216l-.8184-3.049a48.8072 48.8072 0 0 1-1.0109 10.64v.176c-.1124.481-.2407.995-.3852 1.492v.113a8.028 8.028 0 0 0-.353 1.604c0 1.38 2.9366-4.814 3.6106-6.194l.1283-.289-.8023-3.209-.3691-1.284zM104.472 360.097c-.305 16.047 4.637 34.821 5.953 46.455.16 0 4.028-.529 4.028-.529s.738-49.023.786-58.716c.011-.616-.021-1.233-.096-1.845-.787-7.061-6.515-5.857-8.73.77a29.6056 29.6056 0 0 0-.931 3.514l-.288 1.605c-.257 1.648-.45 3.397-.578 5.247v.177c0 .53 0 1.059-.096 1.605v.128c-.022.503-.038 1.032-.048 1.589z" fill="#FFB9B0"/><path d="M107.793 353.566a4.4449 4.4449 0 0 1-1.123-.498c-.681-.381-1.2-.997-1.46-1.733-.417-1.38-.931-3.306-1.477-5.568v-.096c-1.091-4.413-2.375-10.142-3.562-15.726-1.4763-6.852-2.8082-13.496-3.4821-17.267 0-.208-.6419-2.952-.69-3.209-2.054-11.698 7.0771-19.256 13.7041-17.074l.257.08c1.331.53 1.701 5.232 1.989 8.393.289 3.161 2.568 35.993 3.21 41.93.083.886.12 1.775.112 2.664-.273 7.365-4.557 8.986-7.478 8.104z" fill="#FFB9B0"/><path d="M104.969 348.495l-1.252-2.824c.67 3.57.971 7.2.899 10.832v.176c0 .514 0 1.059-.096 1.605v.128a10.487 10.487 0 0 0 0 1.605c.224 1.38 1.829-5.456 2.198-7.061v-.305l-1.252-2.984-.497-1.172z" fill="#FFB9B0"/><path d="M84.6376 279.847s-8.569 10.912-7.7025 21.855c.3691 4.558.9468 8.586 1.4603 13.175.0802.658 1.1072 10.286.8183 10.302 0 0 17.6516 5.456 34.7573-1.701 0-1.171 1.364-23.589-7.863-44.931a148.7846 148.7846 0 0 1-21.4704 1.3z" fill="#001A4A"/><path d="M111.516 254.685c0 3.113-1.733 5.023-4.108 7.654a93.028 93.028 0 0 0-1.3 12.051c-.128 2.407.899 3.932 0 4.124-3.434 2.985-15.7898 5.408-21.4543 1.332.5937-5.038-1.6047-16.127-3.2094-21.759-.2246-.867-.4332-1.605-.6258-2.166-1.4282-4.285-3.9796-18.021-2.0861-18.615l1.6047-.481c2.9686-.899 7.3494-2.439 7.3494-2.439s2.5675 7.606 9.243 8.521c3.6425-1.493 3.3215-6.114 3.2095-8.232 1.187.337 1.717.658 5.408 1.749 1.043 1.492.144 4.621 1.813 9.259.546 1.155 4.236 5.199 4.156 9.002z" fill="#7762EF"/><path d="M105.466 211.824s.674 8.264-.738 12.597a10.2633 10.2633 0 0 1-3.578 4.341 10.2667 10.2667 0 0 1-5.3278 1.805c-9.8528 0-11.6179-13.383-11.5698-14.041.0481-.658 14.5384-6.259 14.5384-6.259l6.6752 1.557z" fill="#FFB9B0"/><path d="M124.241 411.206c-3.514.642-7.269-.353-8.793-.08-1.284.208-4.542 1.043-5.761 0-1.22-1.043-1.027-4.975.385-5.504.292.103.592.178.899.224 1.393.188 2.811.073 4.156-.337 1.828.992 3.782 1.731 5.809 2.199 1.327.251 2.623.644 3.867 1.171 1.316.594 1.412 1.974-.562 2.327zM86.3547 412.762c-3.5143-.593-5.7448-2.535-7.2692-2.808-1.2838-.224-4.4771-.85-4.8141-2.166-.2407-.963.7221-5.023 2.2145-5.039.248.192.511.364.7863.514a9.5001 9.5001 0 0 0 4.0277 1.091 21.8741 21.8741 0 0 0 4.7178 4.028 18.259 18.259 0 0 1 3.2094 2.407c1.0591 1.011-.8826 2.294-2.8724 1.973z" fill="#5045AF"/><path d="M35.1172 248.796l3.2094-3.851 19.7055 17.651s9.6281-12.837 12.2598-16.801c2.9045-4.397 5.5362-8.152 9.7886-8.89.9788.61-.337 16.384-.8505 16.769-5.9373 4.445-17.5071 18.791-21.1819 19.545-4.2363.818-22.9309-24.423-22.9309-24.423z" fill="#FFB9B0"/><path d="M81.5566 236.167s-4.0278 0-5.7608 1.476c-1.7331 1.477-9.9972 14.571-9.9972 14.571a5.8268 5.8268 0 0 0 2.1663 4.541 11.9952 11.9952 0 0 0 5.9534 2.584s4.1561-4.124 6.4187-6.002c1.4603-1.171 1.6047 1.717 1.6047 1.717l7.3174-7.141-7.7025-11.746z" fill="#7762EF"/><path d="M79.1176 236.328c-.2247-.113-.4333-.241-.6419-.37a5.4695 5.4695 0 0 1-2.6477-2.663 8.8748 8.8748 0 0 1 0-6.419 24.531 24.531 0 0 1 2.6156-3.161 9.6301 9.6301 0 0 0 1.6047-5.392 35.418 35.418 0 0 1 .3851-5.697c.674-3.209 1.6047-6.21 4.0278-8.248 3.9315-3.209 11.8105-5.231 16.0468-1.604.786.657.931 1.203 1.99 1.299 1.266.055 2.5.419 3.594 1.059 1.396.803 3.113 1.942 2.905 3.788a6.5177 6.5177 0 0 1-2.68 3.899c-.465.241-.985.357-1.508.337-1.605 0-3.049-1.043-4.686-.867-.4006.046-.7881.17-1.1406.365a3.0706 3.0706 0 0 0-.9135.775c-.5937.722-.5135 1.733-1.2035 2.423-1.1072 1.091-2.8243.995-4.124 1.701-.2265.1-.4208.261-.5617.465a1.3324 1.3324 0 0 0-.1444.706v2.07c-.6579-.289-.7221-1.203-1.2517-1.604a1.4763 1.4763 0 0 0-.9589-.282c-.3427.021-.6675.16-.9185.394a3.2074 3.2074 0 0 0-.9147 1.797 5.2936 5.2936 0 0 0 .3691 2.471c.4332 1.412 1.6047 2.68 2.5996 1.749.706 1.043 0 2.777 0 3.948 0 .931 0 2.776.8665 3.386.8665.61 2.07.128 2.1182 1.605a2.8089 2.8089 0 0 1-2.6638 2.471 10.009 10.009 0 0 1-3.8994-.674 6.0489 6.0489 0 0 0-3.8994-.193c-.6914.401-1.4229.729-2.1823.979a3.339 3.339 0 0 1-2.1824-.513z" fill="#5045AF"/><path d="M43.317 249.422s-4.6215-3.627-4.9905-4.734c-.3691-1.107-.3852-2.102-.7703-3.097a5.7468 5.7468 0 0 0-1.2753-1.934 5.762 5.762 0 0 0-1.9341-1.276c-1.1553-.481-.5937-.866-1.8293-.625-1.8775.369-2.7761 2.198-3.5143 3.642-3.2093 6.13 5.5522 7.286 5.8571 7.302.6419 0 3.8994 3.722 3.8994 3.722" fill="#FFB9B0"/><path d="M28.6985 246.469l3.2093 2.118a.865.865 0 0 0 .3276.128c.1167.02.2362.017.3515-.01a.8818.8818 0 0 0 .3196-.147.8886.8886 0 0 0 .2369-.259l6.9644-11.667-4.1401-2.326-7.4778 10.944a.8814.8814 0 0 0-.1452.652c.039.228.166.432.3538.567z" fill="#8484EF"/><path d="M17.3693 221.725l1.0912.738 4.4129-6.419-1.0912-.754a3.7045 3.7045 0 0 0-2.7766-.375 3.7055 3.7055 0 0 0-2.246 1.675 3.6574 3.6574 0 0 0-.7577 2.693 3.6609 3.6609 0 0 0 1.3674 2.442z" fill="#C4C4F7"/><path d="M13.3416 229.54l20.2992 3.081 4.6215-6.756-10.2379-17.748-14.6828 21.423z" fill="#C4C4F7"/><path d="M14.6252 229.812l19.0156 2.809 1.8453-2.696-15.9987-7.189-4.8622 7.076z" fill="#BBBBF2"/><path d="M41.9851 237.531c.5883.34 1.2871.435 1.9449.264a2.5832 2.5832 0 0 0 1.5693-1.179l.8184-1.203a2.569 2.569 0 0 0 .5244-1.875 2.5661 2.5661 0 0 0-.9416-1.704 2.5838 2.5838 0 0 0-3.5143.899l-.8344 1.203a2.568 2.568 0 0 0 .4333 3.595z" fill="#C4C4F7"/><path d="M42.3862 232.733l-.8184 1.203c-.2095.263-.365.565-.4575.889a2.548 2.548 0 0 0-.0813.995c.0388.334.1432.657.3073.951.164.294.3845.552.6488.76.5883.34 1.2871.435 1.9449.264a2.5832 2.5832 0 0 0 1.5693-1.179l.8184-1.203c.0623-.086.1161-.177.1605-.273-.1657.276-.386.515-.6475.702-.2615.188-.5586.32-.873.388a2.3468 2.3468 0 0 1-.9553.01 2.3435 2.3435 0 0 1-.8809-.369 2.3585 2.3585 0 0 1-.5267-3.395 2.9251 2.9251 0 0 0-.2086.257z" fill="#BBBBF2"/><path d="M12.6515 230.197a1.603 1.603 0 0 0 2.0861-.449l13.9607-20.379a1.4942 1.4942 0 0 0 .3091-1.105 1.4907 1.4907 0 0 0-.5658-.997 1.5088 1.5088 0 0 0-1.1358-.158 1.5075 1.5075 0 0 0-.9182.687l-13.9608 20.347c-.231.307-.3363.69-.2946 1.072.0418.382.2275.733.5193.982z" fill="#A4A4F7"/><path d="M28.6983 207.652l-11.5858 16.897c-.101.171-.2346.32-.3934.439-.1587.12-.3394.206-.5317.255-.1924.05-.3925.06-.589.032a1.4947 1.4947 0 0 1-.556-.197 1.1625 1.1625 0 0 1-.353-.385l-2.2626 3.45a1.5094 1.5094 0 0 0 .2407 2.103c.3462.184.748.235 1.1294.144.3814-.092.716-.32.9406-.642l13.9608-20.379a1.607 1.607 0 0 0 .2489-.859c0-.304-.0863-.602-.2489-.858z" fill="#8484EF"/><path d="M35.4219 236.167l1.3158.898a4.6226 4.6226 0 0 0 3.4653.481 4.6217 4.6217 0 0 0 2.809-2.085l1.2998-1.91a4.557 4.557 0 0 0 .8148-1.587 4.5604 4.5604 0 0 0 .1427-1.779 4.5595 4.5595 0 0 0-1.7117-3.053l-1.3158-.898a4.6029 4.6029 0 0 0-3.4577-.479 4.6042 4.6042 0 0 0-2.8006 2.083l-1.3158 1.91a4.5735 4.5735 0 0 0 .7542 6.419z" fill="#A4A4F7"/><path d="M34.748 229.652l-1.9578 2.856c-.1213.15-.2115.322-.2652.507-.0537.186-.0698.38-.0474.571.0224.191.0829.376.178.544.095.168.2226.315.3754.432l6.1138 4.172a1.461 1.461 0 0 0 1.9738-.513l2.0219-2.889c-.1941.33-.5108.569-.8808.665-.37.096-.763.042-1.093-.151l-6.1138-4.156a1.447 1.447 0 0 1-.3861-.419 1.4433 1.4433 0 0 1 .0812-1.619z" fill="#8484EF"/><path d="M29.3722 243.533a6.4221 6.4221 0 0 1 .0796-2.52 6.4288 6.4288 0 0 1 1.0437-2.295c.346-.436.7271-.844 1.1393-1.219.1851-.213.4231-.374.69-.465a2.245 2.245 0 0 1 1.4764.337c.5284.263.9565.691 1.2195 1.219a1.6052 1.6052 0 0 1-.8986 1.926s-.1444.096-.1605.16a.625.625 0 0 0 .1124.385c.3171.474.4797 1.035.4653 1.605a.9181.9181 0 0 1-.368.643.9143.9143 0 0 1-.3447.156.8945.8945 0 0 1-.3785.003c-.2407 0-.5456-.128-.6258 0-.0802.129 0 .129 0 .209a1.6851 1.6851 0 0 1-.3691 1.332.4458.4458 0 0 1-.2888.176.6546.6546 0 0 1-.3049 0 5.0046 5.0046 0 0 1-1.0912-.481" fill="#FFB9B0"/><path d="M38.3264 244.945a21.6278 21.6278 0 0 1-.3691-2.487 5.6802 5.6802 0 0 0-2.6798-4.654.6536.6536 0 0 0-.4332-.128.4618.4618 0 0 0-.2443.151.4654.4654 0 0 0-.1088.266c-.021.196.0066.394.0803.577.1925.578 1.027 1.605.7702 2.295a6.7436 6.7436 0 0 0-.674 2.889c0 .882.4494 2.31 1.4924 2.455" fill="#FFB9B0"/><path d="M14.8018 198.296l4.0919 9.645M6.281 206.865l8.3765 6.275M.8892 218.531l10.3983 1.027" stroke="#C4C4F7" stroke-width=".7891" stroke-linecap="round" stroke-linejoin="round"/><path d="M334.375 117.196s-3.739-2.632-3.868-3.739a26.1247 26.1247 0 0 0-3.578-6.499 20.2075 20.2075 0 0 0-6.178-2.536c-.947-.144-6.306.321-5.633 1.043.674.722 4.141.466 4.815.867l.674.401s-.674.915-.402 1.46c.273.546-1.155 1.396-.609 2.327.545.931-.225.867.256 1.845.787 1.605 2.809 2.504 3.338 2.071.401.946 1.942 2.888 3.37 2.76 1.428-.129 4.942 3.209 4.942 3.209M391.357 98.4368c.112 2.5032 0 6.8842.658 7.5262.658.642 3.049.545 3.049.545s-8.297 10.495-9.051 9.917c-.754-.577-10.543-8.569-8.344-8.986 2.198-.417 4.365-.321 4.3-1.46l-.192-3.434" fill="#FFB9B0"/><path d="M400.841 154.456s-16.192 1.83-19.914 1.91c-3.723.08-3.531-1.861-3.531-1.861-.207-5.707-.743-11.397-1.604-17.042-.707-3.065-1.027-4.188-1.605-7.093-1.396-6.419-1.332-7.702-2.808-15.678l9.628-7.766a5.1353 5.1353 0 0 0 2.049 2.314 5.142 5.142 0 0 0 3.005.719 7.3846 7.3846 0 0 0 7.029-3.771l13.19 8.761 1.236 21.294-1.605 17.539" fill="#FCA70C"/><path d="M391.566 96.1583a27.6468 27.6468 0 0 1-1.14 3.7228 4.2323 4.2323 0 0 1-1.669 2.3569c-.815.566-1.803.828-2.792.74l-4.958.112a5.727 5.727 0 0 1-3.884-.818c-1.01-.882-1.027-2.3748-1.251-3.5944-.289-1.6047-.53-3.2094-.706-4.7178a69.4683 69.4683 0 0 1-.433-9.3232 5.6203 5.6203 0 0 1 .112-1.2677.7877.7877 0 0 1 .208-.4653.9814.9814 0 0 1 .594-.2407 50.9147 50.9147 0 0 1 9.372-.5938c2.233-.1261 4.45.452 6.338 1.6528a11.8758 11.8758 0 0 1 3.354 5.6806c.112.337.208.7863 0 .9949" fill="#FFB9B0"/><path d="M355.251 212.193c.234 1.458.561 2.9.979 4.316.418 1.108 4.028.097 4.269-.625-.197-2.01-.578-3.998-1.14-5.938" fill="#ED9C80"/><path d="M361.767 216.799c.304 1.187.706 3.466.706 3.466l-3.611 1.604-.594-.561a6.7183 6.7183 0 0 1-2.005 1.604c-1.125.457-2.299.78-3.499.963-3.209.337-5.472-.257-5.648-.69-.786-1.829 3.402-2.311 4.22-2.535a5.5425 5.5425 0 0 0 2.521-1.443 5.5425 5.5425 0 0 0 1.443-2.521c.192-.963 0-1.123.481-1.091.171.004.338.043.493.115.155.071.293.174.406.302.315.351.73.596 1.19.702.459.107.94.069 1.377-.108.53-.208.979-.579 1.284-1.059.305.066.585.219.805.441.219.223.369.504.431.811z" fill="#38287C"/><path d="M371.218 170.118a61.1926 61.1926 0 0 1-18.438.433c.803 2.279 2.76 5.216 3.498 8.425 2.456 10.639 3.322 24.921 3.932 33.698 0 0-1.171 2.263-4.959.546-5.616-13.961-15.517-42.203-15.42-48.349.112-7.815 19.609-9.628 33.906-11.618" fill="#001A4A"/><path d="M396.171 154.472c4.493 3.21-24.905 15.646-24.905 15.646-3.172.618-6.396.924-9.628.915a6.88 6.88 0 0 1-.722-1.83c-.16-.85-.08-1.733-.225-2.599a5.991 5.991 0 0 0-1.087-2.303 6.0208 6.0208 0 0 0-1.945-1.645 12.8316 12.8316 0 0 0-4.815-1.604 64.3383 64.3383 0 0 0-10.911-.193c8.841-6.515 26.926-7.381 35.303-7.911 1.685 2.712 18.245 1.043 18.935 1.524z" fill="#38287C"/><path d="M364.575 219.623c-.019 1.479.051 2.958.209 4.429.224 1.155 3.963.77 4.316.112.19-2.012.19-4.038 0-6.05" fill="#ED9C80"/><path d="M370.191 225.287c.097 1.22.097 3.53.097 3.53l-3.836.931-.481-.658c-.663.548-1.426.962-2.247 1.22a14.465 14.465 0 0 1-3.61.353c-3.21-.209-5.344-1.204-5.456-1.605-.449-1.942 3.739-1.701 4.605-1.765a5.5657 5.5657 0 0 0 2.728-.986 5.5797 5.5797 0 0 0 1.862-2.223c.337-.915.144-1.124.658-.995.338.077.632.284.818.577.25.399.616.712 1.05.896.433.183.913.229 1.373.131a2.768 2.768 0 0 0 1.444-.818c.284.116.528.311.704.561.176.25.277.545.291.851z" fill="#38287C"/><path d="M405.927 153.814c-6.621.58-13.269.794-19.914.642-2.551 0-21.791 3.611-23.637 6.868-3.016 5.36 1.974 36.716 1.509 59.165 0 0 2.31 1.926 6.418.112 1.011-11.024 7.526-37.036 3.033-49.183 10.607 1.412 19.16 2.808 28.885-.385a7.7008 7.7008 0 0 0 3.136-2.012 7.6828 7.6828 0 0 0 1.822-3.252c.931-2.92.401-9.339-1.252-11.955z" fill="#001A4A"/><path d="M380.926 106.926l-2.76.16c-1.944.106-3.866.473-5.712 1.091-2.632.963-4.477 3.402-6.612 5.312-2.134 1.91-12.709 11.987-14.699 12.356-1.989.369-19.416-11.634-19.416-11.634l-4.269 4.252s18.936 17.492 24.568 17.524c2.744 0 17.86-8.024 22.69-11.041l6.21-18.02z" fill="#FCA70C"/><path d="M352.074 132.681c-3.883.224-21.711-13.383-23.781-14.972l-.835.818s18.936 17.491 24.568 17.524c2.295 0 13.158-5.505 19.513-9.147l1.605-.947-.995-5.889s-15.935 12.388-20.075 12.613z" fill="#CE4A30" opacity=".25"/><path d="M333.925 157.313h43.327l-7.767-25.322a3.3183 3.3183 0 0 0-1.216-1.704 3.3245 3.3245 0 0 0-1.993-.639h-37.919c-.339-.003-.673.075-.977.226a2.154 2.154 0 0 0-.768.644c-.202.272-.337.588-.393.922-.056.334-.033.677.068 1l7.638 24.873z" fill="#A4A4F7"/><path d="M333.38 157.313h42.668l-7.766-25.322a3.3431 3.3431 0 0 0-1.219-1.701 3.3327 3.3327 0 0 0-1.991-.642h-37.903c-.337.001-.67.08-.972.232a2.1674 2.1674 0 0 0-1.098 2.56l7.446 24.247c.052.181.162.34.313.452.15.113.333.174.522.174z" fill="#7A74D1"/><g style="mix-blend-mode:multiply"><path d="M399.99 119.137a167.943 167.943 0 0 0-3.209 24.343c-7.574 2.937-10.655 7.318-18.069 10.607 0 0-5.841-.962-6.419 1.236-.369 1.268 6.836 2.279 6.836 2.279 6.868 0 24.969-4.975 26.205-5.312 1.235-.337 4.814-23.348 4.926-35.849a7.7545 7.7545 0 0 0-1.155-5.07 6.4185 6.4185 0 0 0-2.231-1.605 31.2454 31.2454 0 0 0-13.784-3.578" fill="#CE4A30" opacity=".25"/></g><path d="M379.803 155.596a4.3255 4.3255 0 0 0-1.674-.985 4.3341 4.3341 0 0 0-1.936-.154c-.963 0-1.926.096-2.889.224-.433 0-.947.177-.979.642-.032.465 2.118 0 3.21.321-2.231.192-4.47.257-6.708.193a1.755 1.755 0 0 0-.77 0 .6215.6215 0 0 0-.309.22.6217.6217 0 0 0-.124.357c.033.204.142.387.304.514.669.519 1.469.842 2.311.931 3.406.704 6.944.392 10.174-.899" fill="#FFB9B0"/><path d="M399.509 119.025c-.177 10.43-.915 15.196-.706 25.675-5.232 1.123-12.469 7.044-19.882 10.35a3.93 3.93 0 0 0 .24 2.487c.562.209 24.985-5.728 26.927-7.526 1.942-1.797 4.06-21.133 4.204-33.698a7.7514 7.7514 0 0 0-1.155-5.071 6.4158 6.4158 0 0 0-2.231-1.604 31.2408 31.2408 0 0 0-13.816-3.45" fill="#FCA70C"/><path opacity=".45" d="M355.396 143.914c.16 2.214-2.471 4.027-5.857 4.027s-6.274-1.813-6.419-4.027c-.144-2.215 2.471-4.012 5.873-4.012s6.243 1.797 6.403 4.012z" stroke="#A4A4F7" stroke-width="1.0521" stroke-miterlimit="10"/><path d="M353.134 144.063c.047-1.231-1.658-2.297-3.81-2.381-2.152-.083-3.935.846-3.983 2.077-.048 1.231 1.657 2.297 3.809 2.381 2.152.084 3.936-.846 3.984-2.077z" fill="#A4A4F7"/><path d="M383.927 89.4986c-.08-.4011-.946-.4653-1.813-.3691-1.25.0901-2.482.3548-3.659.7863-.481.3691-.449.6259-.706.658-.257.0321-.257-.2247-.818-.4814a7.3164 7.3164 0 0 0-2.76 0c-.867.1123-1.605.3048-1.605.69-.004.4249.113.8423.337 1.2035.177.1123.177.0963.867 1.6047.052.2176.15.4218.286.5995.136.1776.308.3249.504.4322a1.6054 1.6054 0 0 0 1.296.1076c1.444-.3209 1.524-1.9417 1.604-2.6317.081-.69.209-.7702.434-.8023.224-.0321.369 0 .641.6739.273.674.466 2.0861 1.942 2.1664 1.91.1123 2.744-.5456 3.017-1.7812.353-1.6047.273-1.6047.417-1.8133.479-.0053.957.0323 1.428.1123v-.4975a11.9193 11.9193 0 0 1-1.412-.6579zm-7.012 3.3538a1.608 1.608 0 0 1-.349 1.1631 1.6047 1.6047 0 0 1-1.063.586c-.867.1123-1.284-.353-1.75-1.4923a2.9072 2.9072 0 0 1-.288-2.0219c.144-.2728.625-.2568 1.717-.337 1.091-.0803 1.46-.0803 1.604.4011a5.929 5.929 0 0 1 .129 1.701zm6.258-.9147c-.176 1.2036-.626 1.7812-1.829 1.9257-1.701.2086-2.038-.4654-2.295-1.2838a5.7557 5.7557 0 0 1-.305-1.6849c0-.4975.401-.5777 1.476-.7703 1.076-.1925 2.52-.4493 2.728-.2246a2.899 2.899 0 0 1 .273 2.0379h-.048z" fill="#483A99"/><path d="M395.513 86.835a16.4657 16.4657 0 0 0-.481-2.5675 8.1253 8.1253 0 0 0-1.441-3.0476 8.1289 8.1289 0 0 0-2.555-2.1997 12.836 12.836 0 0 0-9.05-.8986c-1.605.4653-2.279 1.3318-3.13 1.2997a9.233 9.233 0 0 1-2.326-.7542c-6.419-2.3267-5.392 4.0118-4.702 5.7448.305.7703 1.781 1.3319 1.974 1.6047.155.854.257 1.7169.305 2.5836a1.41 1.41 0 0 0 .802.9628v-2.3268a2.6458 2.6458 0 0 1 .963-1.9096 6.0778 6.0778 0 0 1 2.326-.6579c1.634.038 3.254.3026 4.815.7863 1.219 1.043 1.524 3.418 1.861 4.814.16.6579.321 1.0912.594 1.0912.192-1.9256.866-1.9737 2.006-1.3158.339.3351.601.7394.77 1.1851.169.4458.24.9228.208 1.3984.05.6218-.114 1.242-.464 1.7583-.35.5163-.865.898-1.461 1.082-.466.0963.914 2.7119 1.604 3.3699.202.2228.428.422.674.5937.252.1224.516.2192.787.2888l.914.2407c.411.1477.854.1867 1.284.1127.674-.1929 1.043-.915 1.348-1.605.498-1.0431 1.091-2.0701 1.508-3.2094a18.8505 18.8505 0 0 0 .867-8.4246z" fill="#483A99"/><path d="M542.238 142.843h-81.984l9.821-7.269v-35.463c0-1.4191.563-2.7799 1.564-3.7846a5.361 5.361 0 0 1 3.78-1.5754h66.819c1.421 0 2.784.5647 3.79 1.5698a5.3596 5.3596 0 0 1 1.569 3.7902v37.373c0 1.421-.564 2.784-1.569 3.79a5.3621 5.3621 0 0 1-3.79 1.569z" fill="#D5D2FF"/><path opacity=".45" d="M540.473 101.667h-37.47v3.578h37.47v-3.578zM540.473 107.027h-37.47v3.578h37.47v-3.578zM540.473 112.386h-37.47v3.579h37.47v-3.579zM540.473 117.602h-37.47v3.578h37.47v-3.578zM529.144 123.844h-26.141v3.578h26.141v-3.578z" fill="#fff"/><path d="M494.627 101.667h-12.661c-3.005 0-5.44 2.436-5.44 5.44v16.64c0 3.005 2.435 5.44 5.44 5.44h12.661c3.004 0 5.44-2.435 5.44-5.44v-16.64c0-3.004-2.436-5.44-5.44-5.44z" fill="#A9ADFF"/><path opacity=".45" d="M500.067 132.622h-23.541v2.952h23.541v-2.952z" fill="#fff"/><path d="M490.615 119.527h-8.537c-.234.004-.463-.072-.65-.214a1.04 1.04 0 0 1-.376-.572l-1.605-6.066a1.0654 1.0654 0 0 1-.015-.483c.032-.16.101-.311.2-.441s.226-.236.372-.309c.146-.073.306-.113.47-.115H492.3c.165-.001.327.036.475.109.147.072.276.178.376.309.099.13.167.283.198.444.03.162.023.328-.022.486l-1.604 6.066c-.064.24-.209.45-.411.594-.203.144-.449.212-.697.192z" fill="#fff"/><path d="M492.124 120.891h-10.286a.2082.2082 0 0 1-.209-.208c0-.056.022-.109.061-.148a.2088.2088 0 0 1 .148-.061h10.125l3.579-12.484a.2102.2102 0 0 1 .075-.118.2119.2119 0 0 1 .133-.043h2.231a.2082.2082 0 0 1 .208.209.1905.1905 0 0 1-.011.085.1958.1958 0 0 1-.044.073.1928.1928 0 0 1-.07.049.1846.1846 0 0 1-.083.017h-2.07l-3.595 12.485a.1935.1935 0 0 1-.071.106.1896.1896 0 0 1-.121.038zM483.41 122.576c-.004.329-.138.644-.372.875-.234.231-.55.361-.879.361a1.2556 1.2556 0 0 1-.793-.41c-.204-.23-.318-.526-.318-.834 0-.307.114-.604.318-.833.205-.23.487-.376.793-.41.332 0 .65.132.885.366.234.235.366.553.366.885zM491.209 123.828c.691 0 1.252-.56 1.252-1.252 0-.691-.561-1.251-1.252-1.251s-1.252.56-1.252 1.251c0 .692.561 1.252 1.252 1.252z" fill="#fff"/><g opacity=".45"><path d="M197.637 73.3066h104.465l-12.501-9.2429V6.9048a6.8357 6.8357 0 0 0-6.836-6.836h-85.128a6.82 6.82 0 0 0-2.614.5207 6.8323 6.8323 0 0 0-2.215 1.4825 6.8175 6.8175 0 0 0-1.991 4.8328v59.5819a6.8191 6.8191 0 0 0 6.82 6.8199z" fill="#D5D2FF"/><path opacity=".45" d="M199.899 15.2329h47.739v-4.5733h-47.739v4.5733zM199.899 22.0691h47.739v-4.5734h-47.739v4.5734zM199.899 28.8892h47.739v-4.5734h-47.739v4.5734zM199.899 35.5322h47.739v-4.5733h-47.739v4.5733zM199.899 42.1919h47.739v-4.5734h-47.739v4.5734zM199.899 54.2749h47.739v-4.5734h-47.739v4.5734zM199.883 61.4641h81.486v-4.5733h-81.486v4.5733z" fill="#fff"/></g><path d="M258.294 45.7383h16.159c3.82 0 6.916-3.0965 6.916-6.9162v-21.23c0-3.8197-3.096-6.9162-6.916-6.9162h-16.159c-3.82 0-6.916 3.0965-6.916 6.9162v21.23c0 3.8197 3.096 6.9162 6.916 6.9162z" fill="#C4C4F7"/><path opacity=".45" d="M251.378 53.874h29.991v-3.771h-29.991v3.771z" fill="#fff"/><path d="M263.413 33.4301h10.896c.297-.0011.587-.101.822-.2839.235-.1829.403-.4386.477-.727l2.102-7.7185c.055-.202.062-.4137.021-.6188a1.3701 1.3701 0 0 0-.255-.564 1.3686 1.3686 0 0 0-1.081-.5343h-15.068a1.364 1.364 0 0 0-1.081.5343 1.372 1.372 0 0 0-.256.564c-.04.2051-.033.4168.021.6188l2.102 7.7185c.074.2884.242.5441.478.727.235.1829.524.2828.822.2839z" fill="#fff"/><path d="M261.503 35.1632h13.11c.073 0 .142-.0288.193-.0799a.2737.2737 0 0 0 .08-.1929.2705.2705 0 0 0-.085-.1826.2739.2739 0 0 0-.188-.0742h-12.837l-4.573-15.9185a.2571.2571 0 0 0-.257-.1925h-2.857a.2709.2709 0 0 0-.192.0799.2692.2692 0 0 0-.08.1929c0 .0723.028.1417.08.1929.051.0511.12.0799.192.0799h2.648l4.509 15.8864c.012.0594.044.113.091.1511a.2569.2569 0 0 0 .166.0575zM272.608 37.2976a1.6032 1.6032 0 0 0 .99 1.4825c.293.1215.616.1532.927.0913.312-.0619.598-.2147.822-.4391.224-.2245.377-.5104.439-.8217s.03-.6339-.091-.9271a1.6075 1.6075 0 0 0-.591-.7202 1.604 1.604 0 0 0-2.026.1996c-.301.3009-.47.7091-.47 1.1347zM261.006 37.2976a1.6032 1.6032 0 0 0 .99 1.4825c.293.1215.616.1532.927.0913.312-.0619.598-.2147.822-.4391.224-.2245.377-.5104.439-.8217s.03-.6339-.091-.9271a1.6075 1.6075 0 0 0-.591-.7202 1.604 1.604 0 0 0-2.026.1996c-.301.3009-.47.7091-.47 1.1347z" fill="#fff"/><path d="M448.853 437.368c42.664 0 77.249-2.572 77.249-5.745s-34.585-5.745-77.249-5.745c-42.664 0-77.25 2.572-77.25 5.745s34.586 5.745 77.25 5.745z" fill="#CDCCFF"/><path d="M415.684 285.34v-49.825c-7.43 9.724-14.795 18.454-22.225 28.178-3.209 4.22-15.854 18.197-7.237 23.813 2.198 1.429 6.034 1.364 7.943 1.493 6.868.481 13.688-1.412 20.364-3.306l1.155-.353zM415.684 296.059l-4.14.321-.081-.24-3.209.256-.963-2.744a4.1358 4.1358 0 0 0-1.619-1.932 4.1386 4.1386 0 0 0-2.441-.635c-.365-.002-.725.087-1.047.258-.323.172-.598.42-.802.724-.203.303-.328.652-.364 1.015-.036.364.019.731.159 1.068.161.481.642 1.813.963 2.712l-3.386.273v.224l-6.98.546c-1.091 0-2.728 1.428-2.375 2.423v.144c-.009.086-.009.172 0 .257l6.034 17.042-.161 51.713h7.013l13.254-31.51.145-41.915zm-10.896-.529c-.482.023-.96-.103-1.368-.361a2.3485 2.3485 0 0 1-.911-1.083 1.254 1.254 0 0 1-.09-.602c.02-.206.09-.403.204-.574.115-.171.269-.312.451-.409.182-.098.385-.148.591-.148.482-.022.958.106 1.366.364.407.258.726.635.912 1.08.08.19.111.397.091.602-.02.205-.09.402-.205.573-.114.172-.269.313-.45.41a1.257 1.257 0 0 1-.591.148z" fill="#5851BC" opacity=".35"/><path d="M500.315 307.87h-86.027c-6.159 0-11.153 4.993-11.153 11.153v102.972c0 6.16 4.994 11.153 11.153 11.153h86.027c6.16 0 11.153-4.993 11.153-11.153V319.023c0-6.16-4.993-11.153-11.153-11.153z" fill="#A2A7F4"/><path d="M501.92 320.98h-85.931c-1.569 0-2.841 1.272-2.841 2.84v20.059c0 1.568 1.272 2.84 2.841 2.84h85.931c1.568 0 2.84-1.272 2.84-2.84V323.82c0-1.568-1.272-2.84-2.84-2.84zM433.865 355.834h-17.876c-1.569 0-2.841 1.272-2.841 2.84v10.655c0 1.569 1.272 2.841 2.841 2.841h17.876c1.568 0 2.84-1.272 2.84-2.841v-10.655c0-1.568-1.272-2.84-2.84-2.84zM467.901 355.834h-17.877c-1.569 0-2.84 1.272-2.84 2.84v10.655c0 1.569 1.271 2.841 2.84 2.841h17.877c1.568 0 2.84-1.272 2.84-2.841v-10.655c0-1.568-1.272-2.84-2.84-2.84zM501.936 355.834h-17.877c-1.568 0-2.84 1.272-2.84 2.84v10.655c0 1.569 1.272 2.841 2.84 2.841h17.877c1.568 0 2.84-1.272 2.84-2.841v-10.655c0-1.568-1.272-2.84-2.84-2.84zM433.865 382.086h-17.876c-1.569 0-2.841 1.272-2.841 2.841v10.655c0 1.569 1.272 2.84 2.841 2.84h17.876c1.568 0 2.84-1.271 2.84-2.84v-10.655c0-1.569-1.272-2.841-2.84-2.841zM467.901 382.086h-17.877c-1.569 0-2.84 1.272-2.84 2.841v10.655c0 1.569 1.271 2.84 2.84 2.84h17.877c1.568 0 2.84-1.271 2.84-2.84v-10.655c0-1.569-1.272-2.841-2.84-2.841zM433.865 408.355h-17.876c-1.569 0-2.841 1.272-2.841 2.841v10.655c0 1.569 1.272 2.84 2.841 2.84h17.876c1.568 0 2.84-1.271 2.84-2.84v-10.655c0-1.569-1.272-2.841-2.84-2.841zM467.901 408.355h-17.877c-1.569 0-2.84 1.272-2.84 2.841v10.655c0 1.569 1.271 2.84 2.84 2.84h17.877c1.568 0 2.84-1.271 2.84-2.84v-10.655c0-1.569-1.272-2.841-2.84-2.841zM501.936 382.086h-17.877c-1.568 0-2.84 1.272-2.84 2.841v36.907c0 1.569 1.272 2.841 2.84 2.841h17.877c1.568 0 2.84-1.272 2.84-2.841v-36.907c0-1.569-1.272-2.841-2.84-2.841z" fill="#9090F4"/><g opacity=".45" fill="#E2DEFF"><path opacity=".45" d="M411.496 322.152c0-.754.299-1.476.832-2.009a2.8407 2.8407 0 0 1 2.008-.831h85.931c.753 0 1.476.299 2.008.831.533.533.832 1.255.832 2.009v20.042c0 .754-.299 1.476-.832 2.009-.532.532-1.255.832-2.008.832h-85.931M432.212 354.165h-17.876c-1.569 0-2.84 1.272-2.84 2.84v10.655c0 1.569 1.271 2.841 2.84 2.841h17.876c1.569 0 2.84-1.272 2.84-2.841v-10.655c0-1.568-1.271-2.84-2.84-2.84zM466.232 354.165h-17.877c-1.568 0-2.84 1.272-2.84 2.84v10.655c0 1.569 1.272 2.841 2.84 2.841h17.877c1.568 0 2.84-1.272 2.84-2.841v-10.655c0-1.568-1.272-2.84-2.84-2.84zM500.267 354.165h-17.876c-1.569 0-2.841 1.272-2.841 2.84v10.655c0 1.569 1.272 2.841 2.841 2.841h17.876c1.568 0 2.84-1.272 2.84-2.841v-10.655c0-1.568-1.272-2.84-2.84-2.84zM432.212 380.418h-17.876c-1.569 0-2.84 1.271-2.84 2.84v10.655c0 1.569 1.271 2.84 2.84 2.84h17.876c1.569 0 2.84-1.271 2.84-2.84v-10.655c0-1.569-1.271-2.84-2.84-2.84zM466.232 380.418h-17.877c-1.568 0-2.84 1.271-2.84 2.84v10.655c0 1.569 1.272 2.84 2.84 2.84h17.877c1.568 0 2.84-1.271 2.84-2.84v-10.655c0-1.569-1.272-2.84-2.84-2.84zM432.212 406.687h-17.876c-1.569 0-2.84 1.271-2.84 2.84v10.655c0 1.569 1.271 2.84 2.84 2.84h17.876c1.569 0 2.84-1.271 2.84-2.84v-10.655c0-1.569-1.271-2.84-2.84-2.84zM466.232 406.687h-17.877c-1.568 0-2.84 1.271-2.84 2.84v10.655c0 1.569 1.272 2.84 2.84 2.84h17.877c1.568 0 2.84-1.271 2.84-2.84v-10.655c0-1.569-1.272-2.84-2.84-2.84z"/></g><path d="M500.267 380.418h-17.876c-1.569 0-2.841 1.272-2.841 2.84v36.908c0 1.569 1.272 2.84 2.841 2.84h17.876c1.568 0 2.84-1.271 2.84-2.84v-36.908c0-1.568-1.272-2.84-2.84-2.84z" fill="#FCA70C"/><path d="M481.219 421.835v-36.908c0-.755.299-1.479.831-2.014a2.8613 2.8613 0 0 1 2.009-.843h17.877c.335.007.666.072.979.193a2.848 2.848 0 0 0-1.033-1.345 2.8392 2.8392 0 0 0-1.615-.516h-17.876a2.8564 2.8564 0 0 0-2.841 2.856v36.908c-.003.579.173 1.146.503 1.623.33.476.799.839 1.343 1.04a2.8808 2.8808 0 0 1-.177-.994z" fill="#F9C110"/><path d="M403.135 337.412l2.905 7.622h12.147s-.85 33.025-.898 39.219c-.049 6.194 5.086 48.895 5.086 48.895h7.029l-.722-53.838 9.965-27.632s7.51 36.907 10.607 43.166c3.097 6.258 19.818 38.304 19.818 38.304h6.419l-16.577-70.815-7.109-24.6-35.848-16.753-12.838 1.268" fill="#5851BC" opacity=".35"/><path d="M449.254 454.169c25.426 0 46.039-2.17 46.039-4.846 0-2.677-20.613-4.846-46.039-4.846-25.426 0-46.038 2.169-46.038 4.846 0 2.676 20.612 4.846 46.038 4.846z" fill="#EAE6FF"/><path d="M424.558 442.439a11.6596 11.6596 0 0 1-4.814 3.643c-2.552 1.139-8.024 1.604-4.975 2.68 2.729.686 5.582.725 8.328.112 1.861-.259 3.739-.371 5.617-.337 2.76 0 2.792-.193 2.423-3.322-.53-4.301-5.344-5.215-6.579-2.776zM474.8 440.882c-.16.867 1.076 3.499-1.123 5.424-2.198 1.926-7.221 3.964-3.899 4.044 2.812.097 5.611-.423 8.2-1.525 1.685-.834.337-2.15 2.423-2.808 2.76-.866 2.198-2.904.754-4.156-1.813-4.14-5.841-3.803-6.355-.979z" fill="#9AA3F4"/><path d="M464.242 353.25s6.611-19.449-12.148-35.463c0 0-10.045 4.011-18.1 4.493-3.208.282-6.436.212-9.629-.209 0 0-.529 17.267-.545 26.574l40.422 4.605zM422.36 385.521c-.369-8.682 9.066-7.542 12.532-1.059 7.189 13.431-2.648 44.353-3.947 59.004-1.575.666-3.33.774-4.975.305a3.467 3.467 0 0 1-1.444-1.605c.209-17.956-1.781-47.338-2.166-56.645z" fill="#001A4A"/><path d="M434.571 386.837c-1.091 3.562-13.11 7.285-12.131-5.633.417-5.728 1.604-37.357 1.797-40.406.193-3.049.738-7.51 2.214-8.023 7.366-2.776 20.396 6.868 18.454 18.309-1.283 7.607-8.087 28.403-10.334 35.753zM453.506 391.779c-2.92-8.2 6.531-9.628 11.891-4.605 12.549 11.826 13.03 39.7 16.047 54.078a10.9308 10.9308 0 0 1-5.488 1.604 1.9313 1.9313 0 0 1-.832-.208c-.258-.13-.484-.317-.66-.546-5.039-17.266-17.861-41.513-20.958-50.323z" fill="#001A4A"/><path d="M465.911 389.099c.321 3.691-9.628 11.329-13.64-.995-1.749-5.472-9.243-37.806-10.19-40.727-.947-2.92-.674-8.906.481-9.981 5.777-5.344 18.84-.642 21.343 10.703 1.685 7.558 1.268 33.346 2.006 41z" fill="#001A4A"/><path d="M414.272 247.534c.337-.369.674-.722.979-1.124 2.391-3.032 2.728-5.728 4.926-9.259a30.6443 30.6443 0 0 1 1.605-3.049 12.8437 12.8437 0 0 1 3.578-2.936c1.027-.546.145 1.733.145 1.733s.866-1.268 1.717-1.187c.321 0 .385 1.973.385 2.31a16.17 16.17 0 0 1-1.797 7.671 4.1798 4.1798 0 0 0-.626 1.749 3.9471 3.9471 0 0 0 2.086-1.027 2.4668 2.4668 0 0 1 2.166-.626c-.113.311-.252.612-.417.899a9.4519 9.4519 0 0 1-3.803 4.493c-1.075.513-2.327.609-3.37 1.171-1.909 1.011-2.824 3.354-4.814 4.301" fill="#F2A181"/><path d="M431.38 234.267l-5.656-2.366c-.531-.222-1.142.028-1.364.56l-5.029 12.021c-.222.531.029 1.142.56 1.364l5.655 2.366c.532.222 1.143-.028 1.365-.56l5.028-12.021c.223-.531-.028-1.142-.559-1.364z" fill="#5E5DBB"/><path d="M431.62 235.24l-6.351-2.657-5.208 12.45 6.351 2.657 5.208-12.45z" fill="#B4B4DB"/><path d="M431.635 259.826c-3.107.216-6.183.753-9.179 1.604-6.531 1.958-8.778 4.975-11.04 6.226 4.38-5.568 9.275-17.378 9.275-17.378s-5.906-4.814-6.58-3.691c-.673 1.123-25.402 30.088-24.631 34.773.32 1.926 3.209 3.836 5.712 3.755 7.013-.24 15.165-2.792 23.701-5.584 3.755-1.235 4.911 1.412 4.911 1.412" fill="#7A74D1"/><path d="M411.415 267.608s-3.113 6.211-4.011 6.692c-.899.481 2.262-1.316 4.011-3.113a36.45 36.45 0 0 0 4.157-6.579 37.572 37.572 0 0 0-4.157 3z" fill="#6960C4"/><path d="M421.188 237.2c.135.125.242.277.317.445.074.168.114.35.116.534.35 1.374.311 2.818-.112 4.172a6.3256 6.3256 0 0 1-1.605 2.134c-.782.672-1.638 1.253-2.551 1.733" fill="#F2A181"/><path d="M431.779 226.753c-1.605.481-2.519 2.6-3.081 4.06a23.0267 23.0267 0 0 0-1.236 5.504 7.2917 7.2917 0 0 0 .273 3.851 7.531 7.531 0 0 0 1.075 1.605c.21.313.47.59.771.818.152.113.329.188.516.219s.378.016.559-.042c.513-.193.722-.803.866-1.332a35.381 35.381 0 0 1 3.948-9.981" fill="#170D54"/><path d="M429.95 237.729c0-1.107-1.204-1.829-2.199-.674a7.0655 7.0655 0 0 0-1.107 4.06c0 1.605 1.172 1.91 2.183 2.134" fill="#F2A181"/><path d="M418.909 265.522c2.038-2.342 8.521-6.194 17.17-5.921 5.954.193 22.177 1.172 23.99 5.167.931 2.038 1.926 22.899.562 30.088-1.011 5.424-3.626 18.823-3.626 22.048 0 3.226 1.733 4.622.93 5.569-1.813 2.102-14.233 2.984-20.058 2.984-5.199 0-14.025-1.38-14.442-3.048-.658-2.472 1.011-2.375 1.235-4.959.225-2.583.883-19.385 0-22.129-1.717-4.958-2.551-13.046-3.915-16.72-1.14-2.776-3.884-10.736-1.846-13.079z" fill="#7A74D1"/><path d="M456.074 282.404c.626 1.283 4.814 8.023 4.814 8.023l.176.818c-.07 1.206-.215 2.407-.433 3.595-1.011 5.424-3.626 18.823-3.626 22.048 0 3.226 1.604 4.574.93 5.568-1.428 1.942-24.84 6.307-23.701.883.112-.481 19.658-15.405 19.754-15.902.914-4.285 1.701-7.366 2.086-10.479.947-7.51-.53-15.838 0-14.554z" fill="#6960C4"/><path d="M431.362 252.139c.017 2.358-.095 4.715-.337 7.061-.509.349-1.045.655-1.605.914 0 0 .947 5.89 2.439 5.456 1.492-.433 11.233-5.359 11.233-5.359s-1.38-.578-1.38-1.124c0-.545 1.316-11.233 1.316-11.233" fill="#FFBE9D"/><path d="M438.133 227.491c-1.412.385-5.167-.401-6.194 1.156a35.7997 35.7997 0 0 0-2.343 6.418 66.2027 66.2027 0 0 0-1.829 6.419c-.738 2.76-1.942 7.831.77 10.142.557.576 1.292.949 2.086 1.059 1.284.24 2.552.497 3.836.722 2.012.544 4.126.594 6.162.144 2.631-.866 4.076-4.493 4.814-6.948l3.867-14.089-11.169-5.023z" fill="#FFBE9D"/><path d="M431.121 268.218s-.578 26.494-1.605 42.605l3.9 5.359 2.679-6.723c.532-13.733-.318-27.485-2.535-41.048l-2.439-.193z" fill="#3B2E7A"/><path d="M430.222 265.892l.097.369c.162.69.433 1.351.802 1.957l2.391.193s1.605-.867 1.829-1.781c.225-.915-2.663-2.407-2.663-2.407l-.353.144a5.013 5.013 0 0 0-2.071 1.492l-.032.033z" fill="#3B2E7A"/><path d="M441.872 257.435a10.265 10.265 0 0 1 2.728 2.776c-1.235 2.808-4.011 7.798-7.06 10.077a13.9221 13.9221 0 0 0-4.814-6.066s8.376-1.476 9.146-6.787zM432.678 264.19c-2.06.937-3.752 2.528-4.814 4.526-.312-2.814-.094-5.66.642-8.393 0 0 1.957-2.503 2.631-2.552-.039 2.236.491 4.445 1.541 6.419z" fill="#fff"/><path d="M433.079 323.355a8.7951 8.7951 0 0 0-5.729 3.209.6627.6627 0 0 0-.184.22.6716.6716 0 0 0-.073.278c0 .241.321.337.562.369 1.38.225 1.605-.658 2.888-1.188l2.536-1.075" fill="#F2A181"/><path d="M423.001 301.788l10.495 33.618a1.206 1.206 0 0 1-.097 1.143c-.11.167-.26.304-.436.399-.177.095-.374.144-.574.143l-21.888 1.926a2.0614 2.0614 0 0 1-1.142-.42 2.0634 2.0634 0 0 1-.704-.992l-11.232-33.121c-.273-.899 1.027-2.182 1.909-2.198l21.888-1.91c.406.023.796.171 1.114.424.319.253.552.598.667.988z" fill="#E9E6FF"/><path d="M422.279 302.703l10.35 33.104c.084.185.12.387.105.589-.016.201-.081.396-.192.565-.11.17-.261.309-.44.405-.178.095-.378.144-.58.142l-21.888 1.91a2.0334 2.0334 0 0 1-1.143-.417c-.33-.253-.575-.6-.702-.995l-10.334-33.105c-.08-.183-.113-.384-.096-.583a1.2043 1.2043 0 0 1 .629-.959c.177-.094.374-.144.574-.143l21.888-1.925c.413.02.809.166 1.136.418.327.253.569.6.693.994z" fill="#E0D9FF"/><path d="M404.804 301.579l.77 2.905 10.238-.899-.834-2.888-10.174.882z" fill="#fff"/><path d="M406.746 298.884l1.011 3.209 4.814-.449-1.027-3.21a3.3213 3.3213 0 0 0-1.219-1.694 3.3222 3.3222 0 0 0-1.99-.632c-.311.033-.609.139-.87.31a1.9702 1.9702 0 0 0-.892 1.559c-.015.311.044.622.173.907zm1.075 0a1.1366 1.1366 0 0 1-.11-.526c.007-.181.057-.358.147-.516.09-.158.217-.292.37-.39.153-.098.327-.157.508-.173a1.8616 1.8616 0 0 1 1.829 1.3c.079.165.116.346.109.529-.007.183-.059.361-.151.519-.091.158-.22.291-.375.388-.155.097-.331.155-.513.169a1.868 1.868 0 0 1-1.139-.374 1.8657 1.8657 0 0 1-.675-.99v.064z" fill="#fff"/><path d="M441.391 321.012c-2.295.482-8.408 2.295-9.05 2.6a27.5783 27.5783 0 0 0-3.9 2.888c-2.311 2.311-1.123 3.386-2.038 6.515-.015.166-.015.332 0 .498 0 .337.45.609.899.305.241.401.947.16 1.284-.289 0 .321.433.513 1.139.128.385-.209.321-.192 1.204-.979a8.7281 8.7281 0 0 1 2.487-1.508c.834-.316 1.643-.691 2.423-1.123.931-.61 2.6-.755 3.402-3.402.271-.561.723-1.013 1.284-1.284l3.739-2.343" fill="#FFBE9D"/><path d="M455.544 277.942c.979 3.466 5.023 27.521 5.023 27.521l-22.851 16.496 1.894 4.99s27.279-9.162 29.462-15.421c2.182-6.258 2.038-34.5-5.504-44.482a17.2271 17.2271 0 0 0-7.253-4.814" fill="#7A74D1"/><path d="M432.1 329.677l-.562.514a8.062 8.062 0 0 0-1.187 1.171c-.385.466-.754.947-1.091 1.284-.176.189-.37.361-.578.514.379-.736.842-1.426 1.38-2.054a5.159 5.159 0 0 1 1.412-1.124l.626-.305zM430.848 328.153c-.247.215-.463.463-.641.738-.201.258-.389.526-.562.803l-.305.465c-.095.155-.181.316-.257.481-.41.968-.95 1.875-1.604 2.696 0 0 .128-.385.369-.914.24-.53.561-1.236.898-1.926.343-.649.787-1.24 1.316-1.749.234-.233.498-.433.786-.594zM429.404 326.934c-.164.273-.346.536-.545.786-.208.239-.401.491-.578.754-.169.317-.319.644-.449.979-.273.69-.53 1.396-.739 1.926-.208.529-.337.882-.337.882.008-.318.04-.634.097-.947.127-.693.343-1.367.642-2.006.146-.354.329-.693.545-1.01.218-.247.448-.483.69-.707.241-.201.467-.421.674-.657z" fill="#F2A181"/><path d="M446.831 244.051c-.883-.529-1.605-1.075-2.15-.224-.321.465-.498 1.091-1.027 1.235-.27.047-.548-.014-.773-.17-.225-.156-.38-.395-.431-.664a2.9916 2.9916 0 0 1 .209-1.605c.353-1.155.706-2.31 1.075-3.466a5.18 5.18 0 0 0 .241-3.466 3.9021 3.9021 0 0 0-1.092-1.412 11.6773 11.6773 0 0 0-5.327-2.279 53.211 53.211 0 0 1-5.729-1.171 6.2214 6.2214 0 0 1-2.182-1.091 4.8065 4.8065 0 0 1-1.174-1.597 4.8168 4.8168 0 0 1-.431-1.934 7.192 7.192 0 0 1 1.123-3.771c.131.461.319.903.562 1.316a4.999 4.999 0 0 1 1.043-1.605c.562 3.098 13.64 2.071 16.689 3.434 2.118.947 3.867 1.605 3.803 5.007.089.215.233.403.417.546a9.477 9.477 0 0 1 2.177 3.164 9.499 9.499 0 0 1 .744 3.768c.288 3.803-1.926 7.927-4.092 11.072a7.562 7.562 0 0 1-1.605 1.926c-.891.597-1.971.843-3.033.69-.947-.193-2.808-.112-2.824-1.059 0-.69 1.46-1.91 1.861-2.471" fill="#3B2E7A"/><path d="M443.413 247.646c-.042.196-.043.399-.001.595.041.197.124.382.241.544.215.194.482.319.768.359.286.04.578-.007.837-.134a4.1404 4.1404 0 0 0 1.729-1.257c.456-.564.756-1.237.871-1.952.305-1.605-.578-3.29-2.086-2.857-.434.166-.805.465-1.059.854a2.201 2.201 0 0 0-.353 1.313" fill="#FFBE9D"/><path d="M431.362 252.717l4.204.77c-.567.537-1.234.955-1.965 1.23a5.869 5.869 0 0 1-2.287.375" fill="#F2A181"/><g opacity=".3"><path opacity=".3" d="M92.1125 120.827l5.6164 2.824-2.8082-6.9" fill="#3939D3"/><path opacity=".3" d="M74.6857 112.001a11.8886 11.8886 0 0 0 1.6773 6.777 11.8861 11.8861 0 0 0 5.1923 4.668 11.8933 11.8933 0 0 0 6.917.949 11.8863 11.8863 0 0 0 6.2572-3.098 11.8897 11.8897 0 0 0 2.8768-13.034 11.8871 11.8871 0 0 0-4.3721-5.444 11.8959 11.8959 0 0 0-6.6738-2.051 11.558 11.558 0 0 0-4.4465.756 11.5478 11.5478 0 0 0-3.8185 2.4 11.5497 11.5497 0 0 0-2.6086 3.679 11.5593 11.5593 0 0 0-1.0011 4.398z" fill="#3939D3"/><path opacity=".3" d="M83.6558 108.326v8.024a.836.836 0 0 0 .112.417.8367.8367 0 0 0 .7225.417.8364.8364 0 0 0 .4171-.112l6.9323-3.996a.8457.8457 0 0 0 .3035-.31.8521.8521 0 0 0 0-.84.8457.8457 0 0 0-.3035-.31l-6.9323-3.996a.8432.8432 0 0 0-.4131-.112.8453.8453 0 0 0-.4142.108.829.829 0 0 0-.3064.299.8307.8307 0 0 0-.1179.411z" fill="#FEFEFE"/></g><g opacity=".3"><path opacity=".3" d="M549.767 246.036l-5.616 2.824 2.808-6.9" fill="#3939D3"/><path opacity=".3" d="M567.194 237.21c.132 2.376-.453 4.737-1.677 6.777a11.889 11.889 0 0 1-5.193 4.668 11.892 11.892 0 0 1-6.917.949 11.889 11.889 0 0 1-6.257-3.098 11.8903 11.8903 0 0 1-2.877-13.034c.88-2.212 2.403-4.108 4.372-5.444 1.97-1.336 4.295-2.05 6.674-2.051 1.518-.043 3.029.214 4.447.756a11.5571 11.5571 0 0 1 6.427 6.079c.619 1.386.959 2.881 1.001 4.398z" fill="#3939D3"/><path opacity=".3" d="M553.201 242.586h7.59c.755 0 1.396-1.188.482-1.605.404-.122.745-.399.947-.77.04-.097.06-.2.058-.305a.7527.7527 0 0 0-.068-.303.7467.7467 0 0 0-.186-.249.7417.7417 0 0 0-.27-.154c.899.209 1.252-1.139.562-1.605.38-.277.648-.681.754-1.139.044-.23.016-.468-.082-.681-.098-.213-.26-.39-.464-.507a1.9991 1.9991 0 0 0-.93-.144h-3.21a6.724 6.724 0 0 0-.481-4.718c-.257-.417-.947-.914-1.509-.593-.561.32-.369 1.059-.337 1.604a5.329 5.329 0 0 1-.823 2.803 5.323 5.323 0 0 1-2.177 1.947s.176 4.269.144 6.419zM552.27 236.231h-3.915v6.355h3.915v-6.355z" fill="#FEFEFE"/></g><g opacity=".3"><path opacity=".3" d="M271.362 143.642l5.644-2.121-5.515-1.531" fill="#3939D3"/><path opacity=".3" d="M255.862 139.803a8.6215 8.6215 0 0 0 4.964 8.309 8.6189 8.6189 0 0 0 9.554-1.545 8.6183 8.6183 0 0 0 2.092-9.45 8.6124 8.6124 0 0 0-3.169-3.948 8.6263 8.6263 0 0 0-4.84-1.486 8.3582 8.3582 0 0 0-3.218.544c-1.026.39-1.966.98-2.765 1.734a8.3545 8.3545 0 0 0-1.89 2.66 8.366 8.366 0 0 0-.728 3.182z" fill="#3939D3"/><path opacity=".3" d="M262.811 143.703h4.974c.498 0 .931-.851.321-1.108.27-.104.493-.304.626-.561a.5836.5836 0 0 0-.004-.431.5792.5792 0 0 0-.301-.307c.594.16.818-.819.369-1.14.256-.211.426-.507.481-.834a.8015.8015 0 0 0-.353-.851c-.188-.094-.4-.133-.609-.112h-2.119a5.2805 5.2805 0 0 0-.304-3.418c-.177-.305-.626-.674-.979-.433-.353.24-.257.754-.241 1.107.033.709-.127 1.413-.464 2.037a3.9048 3.9048 0 0 1-1.446 1.509s.081 2.985.049 4.542zM262.201 139.081h-2.568v4.605h2.568v-4.605z" fill="#FEFEFE"/></g><g opacity=".3"><path opacity=".3" d="M351.144 89.3703a12.664 12.664 0 0 0 2.7-8.8291 12.6578 12.6578 0 0 0-4.013-8.3152 12.6603 12.6603 0 0 0-17.194-.0256 12.6624 12.6624 0 0 0-4.038 8.3031 12.6596 12.6596 0 0 0 2.674 8.8372 12.6618 12.6618 0 0 0 7.964 4.6716 12.6595 12.6595 0 0 0 9.018-1.9782l4.911 2.6156-2.022-5.2794z" fill="#3939D3"/><path opacity=".3" d="M335.851 77.9771a3.1138 3.1138 0 0 1 4.381 0l.802.8184.803-.8023a3.0973 3.0973 0 0 1 1.01-.6672c.377-.1539.781-.232 1.189-.2297.408.0022.811.0847 1.186.2427.376.158.717.3885 1.003.6783.287.2897.514.6331.668 1.0104.154.3774.232.7814.229 1.1889a3.099 3.099 0 0 1-.242 1.1864 3.102 3.102 0 0 1-.679 1.0031l-2.984 3.0168a3.0876 3.0876 0 0 1-1.004.6765 3.0807 3.0807 0 0 1-3.377-.6765l-2.969-3.0329a3.1117 3.1117 0 0 1-.682-1.0092 3.1182 3.1182 0 0 1-.243-1.1939c-.001-.41.078-.8163.234-1.1956.156-.3792.386-.7238.675-1.0142z" fill="#fff"/></g></svg>