<svg width="14" height="14" viewBox="0 0 14 14" fill="none" xmlns="http://www.w3.org/2000/svg">
<path d="M14 10.4999C14 10.8069 13.9137 11.0914 13.7754 11.3417L9.355 6.39595L13.7275 2.57045C13.8975 2.84037 14 3.15744 14 3.50008V10.4999ZM7.00001 7.29395L13.0841 1.9705C12.8345 1.83382 12.5533 1.75 12.25 1.75H1.74999C1.44634 1.75 1.1651 1.83382 0.916443 1.9705L7.00001 7.29395ZM8.69622 6.97189L7.28791 8.20492C7.20554 8.27667 7.10296 8.31251 7.00001 8.31251C6.89701 8.31251 6.79443 8.27667 6.71206 8.20492L5.30343 6.97184L0.827141 11.9808C1.09545 12.1491 1.40989 12.25 1.74996 12.25H12.25C12.59 12.25 12.9046 12.1491 13.1729 11.9808L8.69622 6.97189ZM0.272607 2.57042C0.102545 2.84034 0 3.15741 0 3.50008V10.5C0 10.8069 0.0859255 11.0914 0.224739 11.3417L4.64459 6.39511L0.272607 2.57042Z" fill="#999999"/>
</svg>
