<svg width="14" height="14" viewBox="0 0 14 14" fill="none" xmlns="http://www.w3.org/2000/svg">
<path d="M13.6861 11.062L11.5241 8.89965C11.0934 8.47074 10.3803 8.48377 9.93461 8.92958L8.84534 10.0186C8.77652 9.98068 8.70529 9.94106 8.6304 9.89903C7.94254 9.51789 7.00109 8.9955 6.0104 8.00409C5.01678 7.01059 4.49391 6.06769 4.11161 5.37938C4.07127 5.30646 4.03261 5.23616 3.99445 5.16939L4.7255 4.43942L5.08492 4.07956C5.53125 3.6331 5.54356 2.92014 5.11392 2.48998L2.95184 0.327413C2.52219 -0.102148 1.80871 -0.0891168 1.36238 0.357337L0.753032 0.970186L0.769684 0.986717C0.565361 1.24743 0.394623 1.54812 0.267564 1.87239C0.150441 2.18104 0.0775199 2.47558 0.0441767 2.77072C-0.241312 5.13749 0.840231 7.30054 3.7754 10.2358C7.8327 14.2928 11.1023 13.9863 11.2434 13.9713C11.5506 13.9346 11.845 13.8612 12.1442 13.745C12.4657 13.6194 12.7662 13.4489 13.0267 13.2451L13.04 13.2569L13.6573 12.6524C14.1028 12.206 14.1156 11.4928 13.6861 11.062Z" fill="#999999"/>
</svg>
