<svg width="28" height="40" viewBox="0 0 28 40" fill="none" xmlns="http://www.w3.org/2000/svg"><path fill-rule="evenodd" clip-rule="evenodd" d="M.6667 13.3269C.6667 5.9787 6.648 0 14.0001 0c7.352 0 13.3333 5.9787 13.3333 13.3269v13.347C27.3334 34.0221 21.3523 40 14.0001 40S.6667 34.0219.6667 26.6739v-13.347zm13.3334 25.1916c6.5351 0 11.8519-5.3133 11.8519-11.8446v-13.347c0-6.5315-5.3168-11.8454-11.8519-11.8454-6.5351 0-11.8519 5.314-11.8519 11.8454v13.347c0 6.5313 5.3168 11.8446 11.8519 11.8446zm-.7408-33.3333a.7406.7406 0 0 1 .7408-.7409.7407.7407 0 0 1 .7408.7409v6.7079a.7406.7406 0 0 1-.7408.7408.7406.7406 0 0 1-.7408-.7408v-6.708z" fill="#fff"/></svg>