<svg width="26" height="25" viewBox="0 0 26 25" fill="none" xmlns="http://www.w3.org/2000/svg">
<path d="M12.4923 25C10.1577 24.9985 7.87028 24.3434 5.88897 23.1087C3.90767 21.874 2.31169 20.1091 1.28189 18.014C0.252085 15.9189 -0.170418 13.5772 0.0622325 11.2543C0.294883 8.93141 1.1734 6.72006 2.59826 4.87078C4.02311 3.0215 5.93739 1.60819 8.12421 0.790949C10.311 -0.0262951 12.683 -0.214814 14.9714 0.246749C17.2599 0.708313 19.3733 1.80151 21.0724 3.40251C22.7715 5.00351 23.9883 7.04832 24.5849 9.30532C25.0138 10.8909 25.1208 12.5462 24.8999 14.1738C24.6789 15.8014 24.1344 17.3683 23.2985 18.7822C22.4767 20.2056 21.3809 21.4521 20.0744 22.4494C18.768 23.4468 17.2767 24.1752 15.6869 24.5926C14.6437 24.8638 13.5702 25.0006 12.4923 25ZM12.4923 1.26501C11.5289 1.26822 10.5702 1.39796 9.64066 1.65093C7.85691 2.12018 6.21644 3.02221 4.86463 4.27705C3.51283 5.53189 2.49142 7.10081 1.89093 8.84478C1.29044 10.5887 1.12942 12.4539 1.42211 14.275C1.7148 16.096 2.45216 17.8168 3.56888 19.2848C4.6856 20.7527 6.1472 21.9226 7.82413 22.6906C9.50106 23.4587 11.3415 23.8012 13.1825 23.6879C15.0235 23.5746 16.8081 23.0089 18.3782 22.041C19.9482 21.073 21.2553 19.7328 22.1836 18.1389C22.943 16.8606 23.4368 15.4422 23.6358 13.9687C23.8347 12.4951 23.7346 10.9966 23.3413 9.5626C22.6926 7.18149 21.2794 5.07956 19.3191 3.58029C17.3589 2.08103 14.9602 1.26754 12.4923 1.26501Z" fill="url(#paint0_linear)"/>
<defs>
<linearGradient id="paint0_linear" x1="-5.00234" y1="7.49999" x2="28.5518" y2="7.77278" gradientUnits="userSpaceOnUse">
<stop stop-color="#282882"/>
<stop offset="1" stop-color="#019AB5"/>
</linearGradient>
</defs>
</svg>
