<svg width="139" height="163" viewBox="0 0 139 163" fill="none" xmlns="http://www.w3.org/2000/svg">
<mask id="path-1-inside-1" fill="white">
<path d="M69.1942 138.076L0 69.1091L0.340565 68.7401L69.109 0L138.303 69.1091L137.934 69.4496L69.1942 138.076ZM1.53254 69.1091L69.1942 136.742L136.856 69.1091L69.1942 1.44749L1.53254 69.1091Z"/>
</mask>
<path d="M69.1942 138.076L0 69.1091L0.340565 68.7401L69.109 0L138.303 69.1091L137.934 69.4496L69.1942 138.076ZM1.53254 69.1091L69.1942 136.742L136.856 69.1091L69.1942 1.44749L1.53254 69.1091Z" fill="#CDF8F4"/>
<path d="M69.1942 138.076L67.1907 140.086L69.1959 142.085L71.1994 140.085L69.1942 138.076ZM0 69.1091L-2.08556 67.1841L-3.93806 69.1911L-2.00358 71.1192L0 69.1091ZM0.340565 68.7401L-1.6659 66.7328L-1.70628 66.7732L-1.745 66.8151L0.340565 68.7401ZM69.109 0L71.1146 -2.00811L69.1082 -4.01211L67.1025 -2.00729L69.109 0ZM138.303 69.1091L140.228 71.1946L142.4 69.1898L140.309 67.101L138.303 69.1091ZM137.934 69.4496L136.009 67.3641L135.968 67.4018L135.929 67.4411L137.934 69.4496ZM1.53254 69.1091L-0.474336 67.1022L-2.48164 69.1095L-0.473915 71.1164L1.53254 69.1091ZM69.1942 136.742L67.1878 138.75L69.1942 140.755L71.2007 138.75L69.1942 136.742ZM136.856 69.1091L138.862 71.1164L140.87 69.1095L138.863 67.1022L136.856 69.1091ZM69.1942 1.44749L71.2011 -0.559391L69.1942 -2.56627L67.1873 -0.559394L69.1942 1.44749ZM71.1978 136.066L2.00358 67.0989L-2.00358 71.1192L67.1907 140.086L71.1978 136.066ZM2.08556 71.0341L2.42613 70.6651L-1.745 66.8151L-2.08556 67.1841L2.08556 71.0341ZM2.34703 70.7474L71.1155 2.00729L67.1025 -2.00729L-1.6659 66.7328L2.34703 70.7474ZM67.1034 2.00811L136.298 71.1172L140.309 67.101L71.1146 -2.00811L67.1034 2.00811ZM136.378 67.0235L136.009 67.3641L139.859 71.5352L140.228 71.1946L136.378 67.0235ZM135.929 67.4411L67.189 136.068L71.1994 140.085L139.939 71.4582L135.929 67.4411ZM-0.473915 71.1164L67.1878 138.75L71.2007 134.735L3.539 67.1018L-0.473915 71.1164ZM71.2007 138.75L138.862 71.1164L134.849 67.1018L67.1878 134.735L71.2007 138.75ZM138.863 67.1022L71.2011 -0.559391L67.1873 3.45436L134.849 71.116L138.863 67.1022ZM67.1873 -0.559394L-0.474336 67.1022L3.53942 71.116L71.2011 3.45437L67.1873 -0.559394Z" fill="url(#paint0_linear)" mask="url(#path-1-inside-1)"/>
<path d="M69.0253 162L28 121.042L28.2019 120.823L68.9747 80L110 121.042L109.781 121.244L69.0253 162ZM28.9086 121.042L69.0253 161.208L109.142 121.042L69.0253 80.8596L28.9086 121.042Z" stroke="url(#paint1_linear)" stroke-width="0.5"/>
<defs>
<linearGradient id="paint0_linear" x1="-27.6606" y1="41.4228" x2="157.878" y2="42.933" gradientUnits="userSpaceOnUse">
<stop stop-color="#282882"/>
<stop offset="1" stop-color="#019AB5"/>
</linearGradient>
<linearGradient id="paint1_linear" x1="11.6" y1="104.6" x2="121.606" y2="105.494" gradientUnits="userSpaceOnUse">
<stop stop-color="#282882"/>
<stop offset="1" stop-color="#019AB5"/>
</linearGradient>
</defs>
</svg>
