<svg xmlns="http://www.w3.org/2000/svg" xmlns:xlink="http://www.w3.org/1999/xlink" width="61.7" height="58.1" viewBox="0 0 61.7 58.1"><image width="117" height="124" xlink:href="4123E77E.png" transform="translate(-18.9073 -29.4028)" overflow="visible" opacity=".58"/><linearGradient id="a" gradientUnits="userSpaceOnUse" x1="82.2509" y1="44.8253" x2="-37.7182" y2="29.3233" gradientTransform="matrix(1 0 0 -1 0 65.1943)"><stop offset=".013" stop-color="#2f046b"/><stop offset="1" stop-color="#11dcca"/></linearGradient><path d="M20.6 0C9.2 0 0 9.2 0 20.6c0 14.1 18.4 34.8 19.2 35.6.7.8 2 .8 2.8 0 .8-.9 19.2-21.6 19.2-35.6C41.2 9.2 31.9 0 20.6 0zm0 30.9c-5.7 0-10.4-4.6-10.4-10.4s4.6-10.4 10.4-10.4S31 14.7 31 20.5s-4.7 10.4-10.4 10.4z" fill="url(#a)"/></svg>